M48
; DRILL file {KiCad 8.0.5-8.0.5-0~ubuntu24.04.1} date 2024-09-20T13:42:20+0900
; FORMAT={-:-/ absolute / inch / decimal}
; #@! TF.CreationDate,2024-09-20T13:42:20+09:00
; #@! TF.GenerationSoftware,Kicad,Pcbnew,8.0.5-8.0.5-0~ubuntu24.04.1
; #@! TF.FileFunction,Plated,1,2,PTH
FMAT,2
INCH
; #@! TA.AperFunction,Plated,PTH,ViaDrill
T1C0.0118
; #@! TA.AperFunction,Plated,PTH,ComponentDrill
T2C0.0300
; #@! TA.AperFunction,Plated,PTH,ComponentDrill
T3C0.0394
; #@! TA.AperFunction,Plated,PTH,ComponentDrill
T4C0.0400
%
G90
G05
T1
X3.72Y-2.8725
X3.774Y-2.8725
X3.7965Y-2.7945
X3.835Y-2.874
X3.913Y-2.8765
X4.5512Y-5.8071
X4.5771Y-6.2
X4.5945Y-5.9055
X4.6614Y-5.748
X4.8203Y-6.0245
X4.966Y-2.772
X4.9675Y-2.898
X4.9955Y-2.836
T2
X4.1102Y-5.8819
X4.1102Y-5.9606
X4.1102Y-6.0394
X4.1102Y-6.1181
T3
X4.5255Y-6.4172
X4.6255Y-6.4172
X4.7255Y-6.4172
X4.8255Y-6.4172
T4
X4.3905Y-5.6676
X4.3905Y-6.2778
X4.4905Y-6.2778
X4.4909Y-5.6676
X4.5905Y-5.6676
X4.5909Y-6.2774
X4.6901Y-5.6676
X4.6905Y-6.2774
X4.7909Y-5.6676
X4.7909Y-6.2778
X4.8905Y-5.6676
X4.8909Y-6.2778
X4.9905Y-5.6672
X4.9905Y-6.2778
M30
