G04 #@! TF.GenerationSoftware,KiCad,Pcbnew,(5.1.2)-1*
G04 #@! TF.CreationDate,2022-09-26T01:02:19+09:00*
G04 #@! TF.ProjectId,gopher_jump_xiao,676f7068-6572-45f6-9a75-6d705f786961,rev?*
G04 #@! TF.SameCoordinates,Original*
G04 #@! TF.FileFunction,Legend,Top*
G04 #@! TF.FilePolarity,Positive*
%FSLAX46Y46*%
G04 Gerber Fmt 4.6, Leading zero omitted, Abs format (unit mm)*
G04 Created by KiCad (PCBNEW (5.1.2)-1) date 2022-09-26 01:02:19*
%MOMM*%
%LPD*%
G04 APERTURE LIST*
%ADD10C,0.100000*%
%ADD11C,0.120000*%
%ADD12C,0.127000*%
%ADD13C,0.066040*%
%ADD14C,0.150000*%
%ADD15C,0.101600*%
%ADD16C,0.076200*%
G04 APERTURE END LIST*
D10*
G36*
X101410000Y-41490000D02*
G01*
X102150000Y-41480000D01*
X103530000Y-41490000D01*
X104740000Y-41550000D01*
X105620000Y-41680000D01*
X106430000Y-41920000D01*
X107290000Y-42290000D01*
X107980000Y-42650000D01*
X109910000Y-44000000D01*
X111630000Y-45720000D01*
X112290000Y-46670000D01*
X112910000Y-47590000D01*
X113270000Y-48320000D01*
X113530000Y-49050000D01*
X113680000Y-49820000D01*
X113700000Y-50000000D01*
X113250000Y-50010000D01*
X113170000Y-49990000D01*
X113140000Y-49840000D01*
X112990000Y-49220000D01*
X112820000Y-48790000D01*
X112580000Y-48330000D01*
X112400000Y-48080000D01*
X112200000Y-47820000D01*
X111690000Y-47310000D01*
X111110000Y-46900000D01*
X110730000Y-46710000D01*
X110290000Y-46540000D01*
X109900000Y-46440000D01*
X109260000Y-46350000D01*
X108530000Y-46380000D01*
X107990000Y-46470000D01*
X107620000Y-46580000D01*
X107090000Y-46810000D01*
X106800000Y-46980000D01*
X106460000Y-47210000D01*
X106120000Y-47500000D01*
X105860000Y-47780000D01*
X105620000Y-48070000D01*
X105290000Y-48610000D01*
X105140000Y-48940000D01*
X104980000Y-49410000D01*
X104920000Y-49670000D01*
X104870000Y-49890000D01*
X100390000Y-49800000D01*
X97490000Y-49750000D01*
X93670000Y-49690000D01*
X90830000Y-49650000D01*
X91150000Y-48860000D01*
X91740000Y-47370000D01*
X93120000Y-45340000D01*
X94940000Y-43610000D01*
X96990000Y-42360000D01*
X97130000Y-42280000D01*
X97850000Y-41980000D01*
X98650000Y-41710000D01*
X99520000Y-41560000D01*
X100680000Y-41490000D01*
X101410000Y-41490000D01*
G37*
X101410000Y-41490000D02*
X102150000Y-41480000D01*
X103530000Y-41490000D01*
X104740000Y-41550000D01*
X105620000Y-41680000D01*
X106430000Y-41920000D01*
X107290000Y-42290000D01*
X107980000Y-42650000D01*
X109910000Y-44000000D01*
X111630000Y-45720000D01*
X112290000Y-46670000D01*
X112910000Y-47590000D01*
X113270000Y-48320000D01*
X113530000Y-49050000D01*
X113680000Y-49820000D01*
X113700000Y-50000000D01*
X113250000Y-50010000D01*
X113170000Y-49990000D01*
X113140000Y-49840000D01*
X112990000Y-49220000D01*
X112820000Y-48790000D01*
X112580000Y-48330000D01*
X112400000Y-48080000D01*
X112200000Y-47820000D01*
X111690000Y-47310000D01*
X111110000Y-46900000D01*
X110730000Y-46710000D01*
X110290000Y-46540000D01*
X109900000Y-46440000D01*
X109260000Y-46350000D01*
X108530000Y-46380000D01*
X107990000Y-46470000D01*
X107620000Y-46580000D01*
X107090000Y-46810000D01*
X106800000Y-46980000D01*
X106460000Y-47210000D01*
X106120000Y-47500000D01*
X105860000Y-47780000D01*
X105620000Y-48070000D01*
X105290000Y-48610000D01*
X105140000Y-48940000D01*
X104980000Y-49410000D01*
X104920000Y-49670000D01*
X104870000Y-49890000D01*
X100390000Y-49800000D01*
X97490000Y-49750000D01*
X93670000Y-49690000D01*
X90830000Y-49650000D01*
X91150000Y-48860000D01*
X91740000Y-47370000D01*
X93120000Y-45340000D01*
X94940000Y-43610000D01*
X96990000Y-42360000D01*
X97130000Y-42280000D01*
X97850000Y-41980000D01*
X98650000Y-41710000D01*
X99520000Y-41560000D01*
X100680000Y-41490000D01*
X101410000Y-41490000D01*
G36*
X113190000Y-50040000D02*
G01*
X113700000Y-50030000D01*
X113750000Y-50890000D01*
X113770000Y-51770000D01*
X113730000Y-54210000D01*
X113620000Y-55280000D01*
X113410000Y-56140000D01*
X113080000Y-56930000D01*
X112960000Y-57160000D01*
X112800000Y-57390000D01*
X112500000Y-57820000D01*
X112160000Y-58320000D01*
X111920000Y-58680000D01*
X110450000Y-60200000D01*
X108900000Y-61500000D01*
X107320000Y-62440000D01*
X106200000Y-62890000D01*
X105250000Y-63120000D01*
X104090000Y-63260000D01*
X102360000Y-63330000D01*
X101190000Y-63340000D01*
X99490000Y-63220000D01*
X98070000Y-62880000D01*
X96800000Y-62300000D01*
X95360000Y-61360000D01*
X94370000Y-60590000D01*
X92560000Y-58680000D01*
X91310000Y-56480000D01*
X90640000Y-54070000D01*
X90550000Y-51450000D01*
X90840000Y-49650000D01*
X104860000Y-49920000D01*
X104830000Y-50380000D01*
X104840000Y-50920000D01*
X104890000Y-51280000D01*
X104970000Y-51650000D01*
X105130000Y-52110000D01*
X105300000Y-52480000D01*
X105530000Y-52860000D01*
X105690000Y-53090000D01*
X105860000Y-53290000D01*
X106190000Y-53630000D01*
X106550000Y-53920000D01*
X106840000Y-54110000D01*
X107070000Y-54240000D01*
X107320000Y-54360000D01*
X107790000Y-54530000D01*
X108030000Y-54600000D01*
X108590000Y-54700000D01*
X109130000Y-54720000D01*
X109530000Y-54680000D01*
X110250000Y-54530000D01*
X110820000Y-54300000D01*
X111330000Y-54010000D01*
X111680000Y-53750000D01*
X111970000Y-53480000D01*
X112250000Y-53170000D01*
X112500000Y-52840000D01*
X112720000Y-52480000D01*
X112880000Y-52120000D01*
X113060000Y-51590000D01*
X113170000Y-51060000D01*
X113190000Y-50580000D01*
X113180000Y-50140000D01*
X113170000Y-50020000D01*
X113190000Y-50040000D01*
G37*
X113190000Y-50040000D02*
X113700000Y-50030000D01*
X113750000Y-50890000D01*
X113770000Y-51770000D01*
X113730000Y-54210000D01*
X113620000Y-55280000D01*
X113410000Y-56140000D01*
X113080000Y-56930000D01*
X112960000Y-57160000D01*
X112800000Y-57390000D01*
X112500000Y-57820000D01*
X112160000Y-58320000D01*
X111920000Y-58680000D01*
X110450000Y-60200000D01*
X108900000Y-61500000D01*
X107320000Y-62440000D01*
X106200000Y-62890000D01*
X105250000Y-63120000D01*
X104090000Y-63260000D01*
X102360000Y-63330000D01*
X101190000Y-63340000D01*
X99490000Y-63220000D01*
X98070000Y-62880000D01*
X96800000Y-62300000D01*
X95360000Y-61360000D01*
X94370000Y-60590000D01*
X92560000Y-58680000D01*
X91310000Y-56480000D01*
X90640000Y-54070000D01*
X90550000Y-51450000D01*
X90840000Y-49650000D01*
X104860000Y-49920000D01*
X104830000Y-50380000D01*
X104840000Y-50920000D01*
X104890000Y-51280000D01*
X104970000Y-51650000D01*
X105130000Y-52110000D01*
X105300000Y-52480000D01*
X105530000Y-52860000D01*
X105690000Y-53090000D01*
X105860000Y-53290000D01*
X106190000Y-53630000D01*
X106550000Y-53920000D01*
X106840000Y-54110000D01*
X107070000Y-54240000D01*
X107320000Y-54360000D01*
X107790000Y-54530000D01*
X108030000Y-54600000D01*
X108590000Y-54700000D01*
X109130000Y-54720000D01*
X109530000Y-54680000D01*
X110250000Y-54530000D01*
X110820000Y-54300000D01*
X111330000Y-54010000D01*
X111680000Y-53750000D01*
X111970000Y-53480000D01*
X112250000Y-53170000D01*
X112500000Y-52840000D01*
X112720000Y-52480000D01*
X112880000Y-52120000D01*
X113060000Y-51590000D01*
X113170000Y-51060000D01*
X113190000Y-50580000D01*
X113180000Y-50140000D01*
X113170000Y-50020000D01*
X113190000Y-50040000D01*
G36*
X71430000Y-55340000D02*
G01*
X72500000Y-55250000D01*
X73810000Y-55240000D01*
X75230000Y-55240000D01*
X76270000Y-55290000D01*
X77290000Y-55420000D01*
X78100000Y-55660000D01*
X79050000Y-56060000D01*
X80250000Y-56720000D01*
X81830000Y-57920000D01*
X81970000Y-58030000D01*
X82510000Y-58550000D01*
X83480000Y-59520000D01*
X84390000Y-60810000D01*
X84540000Y-61030000D01*
X84040000Y-61220000D01*
X83920000Y-61050000D01*
X83660000Y-60740000D01*
X83260000Y-60360000D01*
X82770000Y-60010000D01*
X82380000Y-59810000D01*
X81900000Y-59620000D01*
X81420000Y-59490000D01*
X80840000Y-59420000D01*
X80560000Y-59410000D01*
X80080000Y-59440000D01*
X79520000Y-59550000D01*
X78880000Y-59770000D01*
X78300000Y-60100000D01*
X77740000Y-60550000D01*
X77270000Y-61050000D01*
X76940000Y-61570000D01*
X76790000Y-61870000D01*
X76620000Y-62290000D01*
X76500000Y-62700000D01*
X76460000Y-62960000D01*
X76440000Y-63140000D01*
X72460000Y-63220000D01*
X68650000Y-63340000D01*
X63290000Y-63510000D01*
X62560000Y-63550000D01*
X62860000Y-62650000D01*
X63500000Y-61360000D01*
X63540000Y-61280000D01*
X65040000Y-59170000D01*
X66930000Y-57400000D01*
X69110000Y-56070000D01*
X69810000Y-55760000D01*
X70710000Y-55460000D01*
X71430000Y-55340000D01*
G37*
X71430000Y-55340000D02*
X72500000Y-55250000D01*
X73810000Y-55240000D01*
X75230000Y-55240000D01*
X76270000Y-55290000D01*
X77290000Y-55420000D01*
X78100000Y-55660000D01*
X79050000Y-56060000D01*
X80250000Y-56720000D01*
X81830000Y-57920000D01*
X81970000Y-58030000D01*
X82510000Y-58550000D01*
X83480000Y-59520000D01*
X84390000Y-60810000D01*
X84540000Y-61030000D01*
X84040000Y-61220000D01*
X83920000Y-61050000D01*
X83660000Y-60740000D01*
X83260000Y-60360000D01*
X82770000Y-60010000D01*
X82380000Y-59810000D01*
X81900000Y-59620000D01*
X81420000Y-59490000D01*
X80840000Y-59420000D01*
X80560000Y-59410000D01*
X80080000Y-59440000D01*
X79520000Y-59550000D01*
X78880000Y-59770000D01*
X78300000Y-60100000D01*
X77740000Y-60550000D01*
X77270000Y-61050000D01*
X76940000Y-61570000D01*
X76790000Y-61870000D01*
X76620000Y-62290000D01*
X76500000Y-62700000D01*
X76460000Y-62960000D01*
X76440000Y-63140000D01*
X72460000Y-63220000D01*
X68650000Y-63340000D01*
X63290000Y-63510000D01*
X62560000Y-63550000D01*
X62860000Y-62650000D01*
X63500000Y-61360000D01*
X63540000Y-61280000D01*
X65040000Y-59170000D01*
X66930000Y-57400000D01*
X69110000Y-56070000D01*
X69810000Y-55760000D01*
X70710000Y-55460000D01*
X71430000Y-55340000D01*
G36*
X84080000Y-61240000D02*
G01*
X84550000Y-61070000D01*
X84970000Y-62090000D01*
X85280000Y-62830000D01*
X85450000Y-63240000D01*
X85830000Y-65600000D01*
X85670000Y-67970000D01*
X85010000Y-70230000D01*
X83910000Y-72310000D01*
X82370000Y-74140000D01*
X80390000Y-75640000D01*
X78140000Y-76690000D01*
X77040000Y-76970000D01*
X75240000Y-77200000D01*
X73360000Y-77270000D01*
X71710000Y-77150000D01*
X70670000Y-76930000D01*
X68560000Y-76030000D01*
X66500000Y-74670000D01*
X64800000Y-72970000D01*
X63800000Y-71500000D01*
X63420000Y-70950000D01*
X62730000Y-69500000D01*
X62500000Y-68660000D01*
X62400000Y-67640000D01*
X62370000Y-66040000D01*
X62430000Y-64490000D01*
X62570000Y-63560000D01*
X76420000Y-63170000D01*
X76420000Y-63840000D01*
X76480000Y-64370000D01*
X76650000Y-65030000D01*
X76920000Y-65590000D01*
X77230000Y-66090000D01*
X77450000Y-66360000D01*
X77660000Y-66580000D01*
X77900000Y-66800000D01*
X78180000Y-67020000D01*
X78570000Y-67260000D01*
X79240000Y-67560000D01*
X79660000Y-67680000D01*
X80000000Y-67740000D01*
X80370000Y-67780000D01*
X80700000Y-67780000D01*
X81150000Y-67750000D01*
X81460000Y-67700000D01*
X81780000Y-67620000D01*
X82130000Y-67500000D01*
X82520000Y-67320000D01*
X82750000Y-67190000D01*
X83120000Y-66940000D01*
X83420000Y-66700000D01*
X83780000Y-66320000D01*
X84070000Y-65950000D01*
X84340000Y-65470000D01*
X84490000Y-65150000D01*
X84620000Y-64760000D01*
X84730000Y-64270000D01*
X84780000Y-63860000D01*
X84780000Y-63330000D01*
X84660000Y-62550000D01*
X84470000Y-62010000D01*
X84320000Y-61670000D01*
X84080000Y-61240000D01*
G37*
X84080000Y-61240000D02*
X84550000Y-61070000D01*
X84970000Y-62090000D01*
X85280000Y-62830000D01*
X85450000Y-63240000D01*
X85830000Y-65600000D01*
X85670000Y-67970000D01*
X85010000Y-70230000D01*
X83910000Y-72310000D01*
X82370000Y-74140000D01*
X80390000Y-75640000D01*
X78140000Y-76690000D01*
X77040000Y-76970000D01*
X75240000Y-77200000D01*
X73360000Y-77270000D01*
X71710000Y-77150000D01*
X70670000Y-76930000D01*
X68560000Y-76030000D01*
X66500000Y-74670000D01*
X64800000Y-72970000D01*
X63800000Y-71500000D01*
X63420000Y-70950000D01*
X62730000Y-69500000D01*
X62500000Y-68660000D01*
X62400000Y-67640000D01*
X62370000Y-66040000D01*
X62430000Y-64490000D01*
X62570000Y-63560000D01*
X76420000Y-63170000D01*
X76420000Y-63840000D01*
X76480000Y-64370000D01*
X76650000Y-65030000D01*
X76920000Y-65590000D01*
X77230000Y-66090000D01*
X77450000Y-66360000D01*
X77660000Y-66580000D01*
X77900000Y-66800000D01*
X78180000Y-67020000D01*
X78570000Y-67260000D01*
X79240000Y-67560000D01*
X79660000Y-67680000D01*
X80000000Y-67740000D01*
X80370000Y-67780000D01*
X80700000Y-67780000D01*
X81150000Y-67750000D01*
X81460000Y-67700000D01*
X81780000Y-67620000D01*
X82130000Y-67500000D01*
X82520000Y-67320000D01*
X82750000Y-67190000D01*
X83120000Y-66940000D01*
X83420000Y-66700000D01*
X83780000Y-66320000D01*
X84070000Y-65950000D01*
X84340000Y-65470000D01*
X84490000Y-65150000D01*
X84620000Y-64760000D01*
X84730000Y-64270000D01*
X84780000Y-63860000D01*
X84780000Y-63330000D01*
X84660000Y-62550000D01*
X84470000Y-62010000D01*
X84320000Y-61670000D01*
X84080000Y-61240000D01*
G36*
X96775000Y-76830000D02*
G01*
X96930000Y-77090000D01*
X97120000Y-77450000D01*
X97670000Y-78570000D01*
X98060000Y-79360000D01*
X98290000Y-79810000D01*
X98720000Y-80740000D01*
X98910000Y-81160000D01*
X99070000Y-81510000D01*
X99470000Y-82680000D01*
X99560000Y-83350000D01*
X99590000Y-83560000D01*
X99430000Y-84240000D01*
X99010000Y-84790000D01*
X98730000Y-85040000D01*
X97750000Y-85480000D01*
X96780000Y-85410000D01*
X95950000Y-84830000D01*
X95490000Y-84110000D01*
X94990000Y-83130000D01*
X94530000Y-82110000D01*
X93950000Y-80710000D01*
X93570000Y-79810000D01*
X94025000Y-79390000D01*
X96775000Y-76830000D01*
G37*
X96775000Y-76830000D02*
X96930000Y-77090000D01*
X97120000Y-77450000D01*
X97670000Y-78570000D01*
X98060000Y-79360000D01*
X98290000Y-79810000D01*
X98720000Y-80740000D01*
X98910000Y-81160000D01*
X99070000Y-81510000D01*
X99470000Y-82680000D01*
X99560000Y-83350000D01*
X99590000Y-83560000D01*
X99430000Y-84240000D01*
X99010000Y-84790000D01*
X98730000Y-85040000D01*
X97750000Y-85480000D01*
X96780000Y-85410000D01*
X95950000Y-84830000D01*
X95490000Y-84110000D01*
X94990000Y-83130000D01*
X94530000Y-82110000D01*
X93950000Y-80710000D01*
X93570000Y-79810000D01*
X94025000Y-79390000D01*
X96775000Y-76830000D01*
G36*
X98660000Y-76800000D02*
G01*
X98840000Y-76530000D01*
X99370000Y-76350000D01*
X100210000Y-76200000D01*
X100480000Y-76150000D01*
X101600000Y-76010000D01*
X102180000Y-76040000D01*
X102590000Y-76270000D01*
X103020000Y-76740000D01*
X103370000Y-77210000D01*
X103820000Y-78000000D01*
X103960000Y-78250000D01*
X104050000Y-78440000D01*
X104510000Y-79470000D01*
X104890000Y-80560000D01*
X105040000Y-81350000D01*
X105050000Y-81380000D01*
X104890000Y-81910000D01*
X104420000Y-82550000D01*
X104220000Y-82710000D01*
X103280000Y-83090000D01*
X102280000Y-83050000D01*
X101470000Y-82610000D01*
X101030000Y-81980000D01*
X100270000Y-80590000D01*
X99810000Y-79720000D01*
X99340000Y-78730000D01*
X98990000Y-77920000D01*
X98890000Y-77690000D01*
X98670000Y-77020000D01*
X98660000Y-76800000D01*
G37*
X98660000Y-76800000D02*
X98840000Y-76530000D01*
X99370000Y-76350000D01*
X100210000Y-76200000D01*
X100480000Y-76150000D01*
X101600000Y-76010000D01*
X102180000Y-76040000D01*
X102590000Y-76270000D01*
X103020000Y-76740000D01*
X103370000Y-77210000D01*
X103820000Y-78000000D01*
X103960000Y-78250000D01*
X104050000Y-78440000D01*
X104510000Y-79470000D01*
X104890000Y-80560000D01*
X105040000Y-81350000D01*
X105050000Y-81380000D01*
X104890000Y-81910000D01*
X104420000Y-82550000D01*
X104220000Y-82710000D01*
X103280000Y-83090000D01*
X102280000Y-83050000D01*
X101470000Y-82610000D01*
X101030000Y-81980000D01*
X100270000Y-80590000D01*
X99810000Y-79720000D01*
X99340000Y-78730000D01*
X98990000Y-77920000D01*
X98890000Y-77690000D01*
X98670000Y-77020000D01*
X98660000Y-76800000D01*
D11*
X113139177Y-50530824D02*
G75*
G03X113139177Y-50530824I-4129177J0D01*
G01*
X84729177Y-63600824D02*
G75*
G03X84729177Y-63600824I-4129177J0D01*
G01*
D12*
X119143780Y-138437620D02*
X126497080Y-138437620D01*
X119143780Y-147436840D02*
X119143780Y-138437620D01*
X126497080Y-147436840D02*
X119143780Y-147436840D01*
X126497080Y-138442700D02*
X126497080Y-147436840D01*
X124401580Y-134043420D02*
X104073960Y-134043420D01*
X125072140Y-134713980D02*
X124401580Y-134043420D01*
X125072140Y-151841200D02*
X125072140Y-134713980D01*
X104073960Y-151841200D02*
X125072140Y-151841200D01*
X104073960Y-134043420D02*
X104073960Y-151841200D01*
D13*
X122488960Y-146362420D02*
X125155960Y-146362420D01*
X125155960Y-146362420D02*
X125155960Y-148140420D01*
X122488960Y-148140420D02*
X125155960Y-148140420D01*
X122488960Y-146362420D02*
X122488960Y-148140420D01*
X118422420Y-146362420D02*
X121091960Y-146362420D01*
X121091960Y-146362420D02*
X121091960Y-148140420D01*
X118422420Y-148140420D02*
X121091960Y-148140420D01*
X118422420Y-146362420D02*
X118422420Y-148140420D01*
X118422420Y-137726420D02*
X121091960Y-137726420D01*
X121091960Y-137726420D02*
X121091960Y-139504420D01*
X118422420Y-139504420D02*
X121091960Y-139504420D01*
X118422420Y-137726420D02*
X118422420Y-139504420D01*
X122488960Y-137726420D02*
X125155960Y-137726420D01*
X125155960Y-137726420D02*
X125155960Y-139504420D01*
X122488960Y-139504420D02*
X125155960Y-139504420D01*
X122488960Y-137726420D02*
X122488960Y-139504420D01*
X104708960Y-140393420D02*
X107248960Y-140393420D01*
X107248960Y-140393420D02*
X107248960Y-146108420D01*
X104708960Y-146108420D02*
X107248960Y-146108420D01*
X104708960Y-140393420D02*
X104708960Y-146108420D01*
X121853960Y-140393420D02*
X124393960Y-140393420D01*
X124393960Y-140393420D02*
X124393960Y-145473420D01*
X121853960Y-145473420D02*
X124393960Y-145473420D01*
X121853960Y-140393420D02*
X121853960Y-145473420D01*
D11*
X112630000Y-53330000D02*
X112630000Y-52180000D01*
X105330000Y-53330000D02*
X112630000Y-53330000D01*
X105330000Y-47830000D02*
X112630000Y-47830000D01*
X84180000Y-66360000D02*
X84180000Y-65210000D01*
X76880000Y-66360000D02*
X84180000Y-66360000D01*
X76880000Y-60860000D02*
X84180000Y-60860000D01*
D14*
X81736666Y-44502380D02*
X81403333Y-44026190D01*
X81165238Y-44502380D02*
X81165238Y-43502380D01*
X81546190Y-43502380D01*
X81641428Y-43550000D01*
X81689047Y-43597619D01*
X81736666Y-43692857D01*
X81736666Y-43835714D01*
X81689047Y-43930952D01*
X81641428Y-43978571D01*
X81546190Y-44026190D01*
X81165238Y-44026190D01*
X82165238Y-43978571D02*
X82498571Y-43978571D01*
X82641428Y-44502380D02*
X82165238Y-44502380D01*
X82165238Y-43502380D01*
X82641428Y-43502380D01*
X83403333Y-43978571D02*
X83070000Y-43978571D01*
X83070000Y-44502380D02*
X83070000Y-43502380D01*
X83546190Y-43502380D01*
X84070000Y-43502380D02*
X84070000Y-43740476D01*
X83831904Y-43645238D02*
X84070000Y-43740476D01*
X84308095Y-43645238D01*
X83927142Y-43930952D02*
X84070000Y-43740476D01*
X84212857Y-43930952D01*
X84831904Y-43502380D02*
X84831904Y-43740476D01*
X84593809Y-43645238D02*
X84831904Y-43740476D01*
X85070000Y-43645238D01*
X84689047Y-43930952D02*
X84831904Y-43740476D01*
X84974761Y-43930952D01*
D15*
X125367626Y-144055253D02*
X126087293Y-144055253D01*
X126171960Y-144012920D01*
X126214293Y-143970586D01*
X126256626Y-143885920D01*
X126256626Y-143716586D01*
X126214293Y-143631920D01*
X126171960Y-143589586D01*
X126087293Y-143547253D01*
X125367626Y-143547253D01*
X126256626Y-142658253D02*
X126256626Y-143166253D01*
X126256626Y-142912253D02*
X125367626Y-142912253D01*
X125494626Y-142996920D01*
X125579293Y-143081586D01*
X125621626Y-143166253D01*
D16*
X115115702Y-146155591D02*
X115144731Y-146068505D01*
X115144731Y-145923362D01*
X115115702Y-145865305D01*
X115086674Y-145836277D01*
X115028617Y-145807248D01*
X114970560Y-145807248D01*
X114912502Y-145836277D01*
X114883474Y-145865305D01*
X114854445Y-145923362D01*
X114825417Y-146039477D01*
X114796388Y-146097534D01*
X114767360Y-146126562D01*
X114709302Y-146155591D01*
X114651245Y-146155591D01*
X114593188Y-146126562D01*
X114564160Y-146097534D01*
X114535131Y-146039477D01*
X114535131Y-145894334D01*
X114564160Y-145807248D01*
X115115702Y-145313762D02*
X115144731Y-145371820D01*
X115144731Y-145487934D01*
X115115702Y-145545991D01*
X115057645Y-145575020D01*
X114825417Y-145575020D01*
X114767360Y-145545991D01*
X114738331Y-145487934D01*
X114738331Y-145371820D01*
X114767360Y-145313762D01*
X114825417Y-145284734D01*
X114883474Y-145284734D01*
X114941531Y-145575020D01*
X115115702Y-144791248D02*
X115144731Y-144849305D01*
X115144731Y-144965420D01*
X115115702Y-145023477D01*
X115057645Y-145052505D01*
X114825417Y-145052505D01*
X114767360Y-145023477D01*
X114738331Y-144965420D01*
X114738331Y-144849305D01*
X114767360Y-144791248D01*
X114825417Y-144762220D01*
X114883474Y-144762220D01*
X114941531Y-145052505D01*
X115115702Y-144268734D02*
X115144731Y-144326791D01*
X115144731Y-144442905D01*
X115115702Y-144500962D01*
X115057645Y-144529991D01*
X114825417Y-144529991D01*
X114767360Y-144500962D01*
X114738331Y-144442905D01*
X114738331Y-144326791D01*
X114767360Y-144268734D01*
X114825417Y-144239705D01*
X114883474Y-144239705D01*
X114941531Y-144529991D01*
X115144731Y-143717191D02*
X114535131Y-143717191D01*
X115115702Y-143717191D02*
X115144731Y-143775248D01*
X115144731Y-143891362D01*
X115115702Y-143949420D01*
X115086674Y-143978448D01*
X115028617Y-144007477D01*
X114854445Y-144007477D01*
X114796388Y-143978448D01*
X114767360Y-143949420D01*
X114738331Y-143891362D01*
X114738331Y-143775248D01*
X114767360Y-143717191D01*
X114738331Y-143165648D02*
X115144731Y-143165648D01*
X114738331Y-143426905D02*
X115057645Y-143426905D01*
X115115702Y-143397877D01*
X115144731Y-143339820D01*
X115144731Y-143252734D01*
X115115702Y-143194677D01*
X115086674Y-143165648D01*
X115144731Y-142875362D02*
X114738331Y-142875362D01*
X114535131Y-142875362D02*
X114564160Y-142904391D01*
X114593188Y-142875362D01*
X114564160Y-142846334D01*
X114535131Y-142875362D01*
X114593188Y-142875362D01*
X114738331Y-142585077D02*
X115144731Y-142585077D01*
X114796388Y-142585077D02*
X114767360Y-142556048D01*
X114738331Y-142497991D01*
X114738331Y-142410905D01*
X114767360Y-142352848D01*
X114825417Y-142323820D01*
X115144731Y-142323820D01*
X115144731Y-141946448D02*
X115115702Y-142004505D01*
X115086674Y-142033534D01*
X115028617Y-142062562D01*
X114854445Y-142062562D01*
X114796388Y-142033534D01*
X114767360Y-142004505D01*
X114738331Y-141946448D01*
X114738331Y-141859362D01*
X114767360Y-141801305D01*
X114796388Y-141772277D01*
X114854445Y-141743248D01*
X115028617Y-141743248D01*
X115086674Y-141772277D01*
X115115702Y-141801305D01*
X115144731Y-141859362D01*
X115144731Y-141946448D01*
X114535131Y-141540048D02*
X115144731Y-141133648D01*
X114535131Y-141133648D02*
X115144731Y-141540048D01*
X115144731Y-140901420D02*
X114535131Y-140901420D01*
X114970560Y-140640162D02*
X114970560Y-140349877D01*
X115144731Y-140698220D02*
X114535131Y-140495020D01*
X115144731Y-140291820D01*
X114535131Y-139972505D02*
X114535131Y-139856391D01*
X114564160Y-139798334D01*
X114622217Y-139740277D01*
X114738331Y-139711248D01*
X114941531Y-139711248D01*
X115057645Y-139740277D01*
X115115702Y-139798334D01*
X115144731Y-139856391D01*
X115144731Y-139972505D01*
X115115702Y-140030562D01*
X115057645Y-140088620D01*
X114941531Y-140117648D01*
X114738331Y-140117648D01*
X114622217Y-140088620D01*
X114564160Y-140030562D01*
X114535131Y-139972505D01*
D14*
X108241904Y-47532380D02*
X108241904Y-46532380D01*
X108480000Y-46532380D01*
X108622857Y-46580000D01*
X108718095Y-46675238D01*
X108765714Y-46770476D01*
X108813333Y-46960952D01*
X108813333Y-47103809D01*
X108765714Y-47294285D01*
X108718095Y-47389523D01*
X108622857Y-47484761D01*
X108480000Y-47532380D01*
X108241904Y-47532380D01*
X109194285Y-46627619D02*
X109241904Y-46580000D01*
X109337142Y-46532380D01*
X109575238Y-46532380D01*
X109670476Y-46580000D01*
X109718095Y-46627619D01*
X109765714Y-46722857D01*
X109765714Y-46818095D01*
X109718095Y-46960952D01*
X109146666Y-47532380D01*
X109765714Y-47532380D01*
X105115714Y-49432380D02*
X104544285Y-49432380D01*
X104830000Y-49432380D02*
X104830000Y-48432380D01*
X104734761Y-48575238D01*
X104639523Y-48670476D01*
X104544285Y-48718095D01*
X79791904Y-60562380D02*
X79791904Y-59562380D01*
X80030000Y-59562380D01*
X80172857Y-59610000D01*
X80268095Y-59705238D01*
X80315714Y-59800476D01*
X80363333Y-59990952D01*
X80363333Y-60133809D01*
X80315714Y-60324285D01*
X80268095Y-60419523D01*
X80172857Y-60514761D01*
X80030000Y-60562380D01*
X79791904Y-60562380D01*
X81315714Y-60562380D02*
X80744285Y-60562380D01*
X81030000Y-60562380D02*
X81030000Y-59562380D01*
X80934761Y-59705238D01*
X80839523Y-59800476D01*
X80744285Y-59848095D01*
X76665714Y-62462380D02*
X76094285Y-62462380D01*
X76380000Y-62462380D02*
X76380000Y-61462380D01*
X76284761Y-61605238D01*
X76189523Y-61700476D01*
X76094285Y-61748095D01*
M02*
