G04 #@! TF.GenerationSoftware,KiCad,Pcbnew,(5.1.2)-1*
G04 #@! TF.CreationDate,2022-09-26T01:02:19+09:00*
G04 #@! TF.ProjectId,gopher_jump_xiao,676f7068-6572-45f6-9a75-6d705f786961,rev?*
G04 #@! TF.SameCoordinates,Original*
G04 #@! TF.FileFunction,Soldermask,Top*
G04 #@! TF.FilePolarity,Negative*
%FSLAX46Y46*%
G04 Gerber Fmt 4.6, Leading zero omitted, Abs format (unit mm)*
G04 Created by KiCad (PCBNEW (5.1.2)-1) date 2022-09-26 01:02:19*
%MOMM*%
%LPD*%
G04 APERTURE LIST*
%ADD10C,0.100000*%
G04 APERTURE END LIST*
D10*
G36*
X88470000Y-74020000D02*
G01*
X89510000Y-73680000D01*
X90440000Y-73600000D01*
X93130000Y-73160000D01*
X93310000Y-73100000D01*
X93370000Y-73080000D01*
X93430000Y-73060000D01*
X93590000Y-73010000D01*
X94170000Y-72820000D01*
X94670000Y-72650000D01*
X95190000Y-72480000D01*
X95380000Y-72420000D01*
X97290000Y-71330000D01*
X98810000Y-69940000D01*
X99350000Y-69390000D01*
X99800000Y-68910000D01*
X100350000Y-68470000D01*
X100820000Y-68300000D01*
X101340000Y-68340000D01*
X102300000Y-68590000D01*
X103640000Y-69210000D01*
X104580000Y-70020000D01*
X105120000Y-70920000D01*
X105210000Y-71840000D01*
X105100000Y-72070000D01*
X104790000Y-72700000D01*
X103830000Y-73400000D01*
X103550000Y-73520000D01*
X103240000Y-73620000D01*
X102740000Y-73780000D01*
X101560000Y-74090000D01*
X101380000Y-74140000D01*
X99970000Y-74460000D01*
X98260000Y-74840000D01*
X96910000Y-75250000D01*
X95750000Y-75780000D01*
X94680000Y-76480000D01*
X92710000Y-78070000D01*
X92450000Y-78280000D01*
X91560000Y-78920000D01*
X90790000Y-79400000D01*
X89550000Y-79810000D01*
X88490000Y-79700000D01*
X87620000Y-79070000D01*
X87130000Y-78150000D01*
X86960000Y-77000000D01*
X87150000Y-75830000D01*
X87680000Y-74780000D01*
X88470000Y-74020000D01*
G37*
X88470000Y-74020000D02*
X89510000Y-73680000D01*
X90440000Y-73600000D01*
X93130000Y-73160000D01*
X93310000Y-73100000D01*
X93370000Y-73080000D01*
X93430000Y-73060000D01*
X93590000Y-73010000D01*
X94170000Y-72820000D01*
X94670000Y-72650000D01*
X95190000Y-72480000D01*
X95380000Y-72420000D01*
X97290000Y-71330000D01*
X98810000Y-69940000D01*
X99350000Y-69390000D01*
X99800000Y-68910000D01*
X100350000Y-68470000D01*
X100820000Y-68300000D01*
X101340000Y-68340000D01*
X102300000Y-68590000D01*
X103640000Y-69210000D01*
X104580000Y-70020000D01*
X105120000Y-70920000D01*
X105210000Y-71840000D01*
X105100000Y-72070000D01*
X104790000Y-72700000D01*
X103830000Y-73400000D01*
X103550000Y-73520000D01*
X103240000Y-73620000D01*
X102740000Y-73780000D01*
X101560000Y-74090000D01*
X101380000Y-74140000D01*
X99970000Y-74460000D01*
X98260000Y-74840000D01*
X96910000Y-75250000D01*
X95750000Y-75780000D01*
X94680000Y-76480000D01*
X92710000Y-78070000D01*
X92450000Y-78280000D01*
X91560000Y-78920000D01*
X90790000Y-79400000D01*
X89550000Y-79810000D01*
X88490000Y-79700000D01*
X87620000Y-79070000D01*
X87130000Y-78150000D01*
X86960000Y-77000000D01*
X87150000Y-75830000D01*
X87680000Y-74780000D01*
X88470000Y-74020000D01*
G36*
X116690000Y-103370000D02*
G01*
X117190000Y-103310000D01*
X118170000Y-103370000D01*
X119450000Y-103530000D01*
X120660000Y-103730000D01*
X121780000Y-103980000D01*
X122540000Y-104240000D01*
X123180000Y-104710000D01*
X123720000Y-105340000D01*
X124030000Y-105960000D01*
X123980000Y-106370000D01*
X123820000Y-106410000D01*
X123180000Y-106330000D01*
X122560000Y-106160000D01*
X121840000Y-105950000D01*
X120900000Y-105790000D01*
X120390000Y-105900000D01*
X120360000Y-106250000D01*
X120880000Y-106790000D01*
X121520000Y-107190000D01*
X122040000Y-107370000D01*
X122220000Y-107390000D01*
X122720000Y-107690000D01*
X123020000Y-108150000D01*
X123020000Y-108160000D01*
X122970000Y-108460000D01*
X122950000Y-108560000D01*
X122760000Y-108690000D01*
X121890000Y-108950000D01*
X120790000Y-108960000D01*
X119650000Y-108720000D01*
X118320000Y-108210000D01*
X117400000Y-107810000D01*
X117030000Y-107650000D01*
X116440000Y-107360000D01*
X116030000Y-107160000D01*
X115920000Y-107110000D01*
X115190000Y-106670000D01*
X114910000Y-106380000D01*
X114990000Y-106010000D01*
X115320000Y-105250000D01*
X115770000Y-104460000D01*
X116300000Y-103710000D01*
X116690000Y-103370000D01*
G37*
X116690000Y-103370000D02*
X117190000Y-103310000D01*
X118170000Y-103370000D01*
X119450000Y-103530000D01*
X120660000Y-103730000D01*
X121780000Y-103980000D01*
X122540000Y-104240000D01*
X123180000Y-104710000D01*
X123720000Y-105340000D01*
X124030000Y-105960000D01*
X123980000Y-106370000D01*
X123820000Y-106410000D01*
X123180000Y-106330000D01*
X122560000Y-106160000D01*
X121840000Y-105950000D01*
X120900000Y-105790000D01*
X120390000Y-105900000D01*
X120360000Y-106250000D01*
X120880000Y-106790000D01*
X121520000Y-107190000D01*
X122040000Y-107370000D01*
X122220000Y-107390000D01*
X122720000Y-107690000D01*
X123020000Y-108150000D01*
X123020000Y-108160000D01*
X122970000Y-108460000D01*
X122950000Y-108560000D01*
X122760000Y-108690000D01*
X121890000Y-108950000D01*
X120790000Y-108960000D01*
X119650000Y-108720000D01*
X118320000Y-108210000D01*
X117400000Y-107810000D01*
X117030000Y-107650000D01*
X116440000Y-107360000D01*
X116030000Y-107160000D01*
X115920000Y-107110000D01*
X115190000Y-106670000D01*
X114910000Y-106380000D01*
X114990000Y-106010000D01*
X115320000Y-105250000D01*
X115770000Y-104460000D01*
X116300000Y-103710000D01*
X116690000Y-103370000D01*
G36*
X146610000Y-87020000D02*
G01*
X147060000Y-86860000D01*
X147910000Y-86780000D01*
X148750000Y-86760000D01*
X150100000Y-86770000D01*
X150880000Y-86770000D01*
X151720000Y-86870000D01*
X152270000Y-87050000D01*
X152690000Y-87360000D01*
X153020000Y-87730000D01*
X153120000Y-88170000D01*
X152670000Y-88430000D01*
X152640000Y-88440000D01*
X151990000Y-88490000D01*
X151200000Y-88530000D01*
X150380000Y-88660000D01*
X149950000Y-88870000D01*
X149910000Y-89170000D01*
X149910000Y-89180000D01*
X150280000Y-89590000D01*
X151010000Y-89910000D01*
X151890000Y-90030000D01*
X151940000Y-90040000D01*
X152430000Y-90060000D01*
X153030000Y-90250000D01*
X153060000Y-90630000D01*
X152490000Y-91180000D01*
X152010000Y-91450000D01*
X150880000Y-91760000D01*
X149630000Y-91830000D01*
X148460000Y-91660000D01*
X147660000Y-91250000D01*
X147310000Y-90760000D01*
X146910000Y-89870000D01*
X146590000Y-88790000D01*
X146420000Y-87820000D01*
X146460000Y-87190000D01*
X146610000Y-87020000D01*
G37*
X146610000Y-87020000D02*
X147060000Y-86860000D01*
X147910000Y-86780000D01*
X148750000Y-86760000D01*
X150100000Y-86770000D01*
X150880000Y-86770000D01*
X151720000Y-86870000D01*
X152270000Y-87050000D01*
X152690000Y-87360000D01*
X153020000Y-87730000D01*
X153120000Y-88170000D01*
X152670000Y-88430000D01*
X152640000Y-88440000D01*
X151990000Y-88490000D01*
X151200000Y-88530000D01*
X150380000Y-88660000D01*
X149950000Y-88870000D01*
X149910000Y-89170000D01*
X149910000Y-89180000D01*
X150280000Y-89590000D01*
X151010000Y-89910000D01*
X151890000Y-90030000D01*
X151940000Y-90040000D01*
X152430000Y-90060000D01*
X153030000Y-90250000D01*
X153060000Y-90630000D01*
X152490000Y-91180000D01*
X152010000Y-91450000D01*
X150880000Y-91760000D01*
X149630000Y-91830000D01*
X148460000Y-91660000D01*
X147660000Y-91250000D01*
X147310000Y-90760000D01*
X146910000Y-89870000D01*
X146590000Y-88790000D01*
X146420000Y-87820000D01*
X146460000Y-87190000D01*
X146610000Y-87020000D01*
G36*
X146610000Y-144350000D02*
G01*
X147000000Y-144040000D01*
X147730000Y-143830000D01*
X148180000Y-143890000D01*
X149220000Y-144210000D01*
X150270000Y-144690000D01*
X150510000Y-144790000D01*
X151700000Y-145450000D01*
X152740000Y-146180000D01*
X152950000Y-146360000D01*
X153670000Y-147140000D01*
X154230000Y-147970000D01*
X154520000Y-148660000D01*
X154480000Y-149080000D01*
X154180000Y-149000000D01*
X153840000Y-148810000D01*
X153520000Y-148630000D01*
X153390000Y-148540000D01*
X153320000Y-148490000D01*
X153220000Y-148420000D01*
X152980000Y-148250000D01*
X152670000Y-148030000D01*
X152330000Y-147780000D01*
X152050000Y-147580000D01*
X151730000Y-147350000D01*
X151460000Y-147160000D01*
X151030000Y-146940000D01*
X150890000Y-146870000D01*
X150540000Y-146870000D01*
X150530000Y-146870000D01*
X150280000Y-147120000D01*
X150300000Y-147340000D01*
X150670000Y-147890000D01*
X151500000Y-148700000D01*
X151950000Y-149130000D01*
X152700000Y-150110000D01*
X152890000Y-150900000D01*
X152500000Y-151480000D01*
X152070000Y-151700000D01*
X151280000Y-151860000D01*
X150990000Y-151800000D01*
X150280000Y-151550000D01*
X149130000Y-151070000D01*
X148120000Y-150610000D01*
X147530000Y-150340000D01*
X146700000Y-149950000D01*
X146120000Y-149660000D01*
X145500000Y-149340000D01*
X144760000Y-148930000D01*
X144620000Y-148850000D01*
X144300000Y-148610000D01*
X144300000Y-148400000D01*
X144530000Y-147770000D01*
X144980000Y-146880000D01*
X145500000Y-145950000D01*
X145830000Y-145430000D01*
X146100000Y-145010000D01*
X146610000Y-144350000D01*
G37*
X146610000Y-144350000D02*
X147000000Y-144040000D01*
X147730000Y-143830000D01*
X148180000Y-143890000D01*
X149220000Y-144210000D01*
X150270000Y-144690000D01*
X150510000Y-144790000D01*
X151700000Y-145450000D01*
X152740000Y-146180000D01*
X152950000Y-146360000D01*
X153670000Y-147140000D01*
X154230000Y-147970000D01*
X154520000Y-148660000D01*
X154480000Y-149080000D01*
X154180000Y-149000000D01*
X153840000Y-148810000D01*
X153520000Y-148630000D01*
X153390000Y-148540000D01*
X153320000Y-148490000D01*
X153220000Y-148420000D01*
X152980000Y-148250000D01*
X152670000Y-148030000D01*
X152330000Y-147780000D01*
X152050000Y-147580000D01*
X151730000Y-147350000D01*
X151460000Y-147160000D01*
X151030000Y-146940000D01*
X150890000Y-146870000D01*
X150540000Y-146870000D01*
X150530000Y-146870000D01*
X150280000Y-147120000D01*
X150300000Y-147340000D01*
X150670000Y-147890000D01*
X151500000Y-148700000D01*
X151950000Y-149130000D01*
X152700000Y-150110000D01*
X152890000Y-150900000D01*
X152500000Y-151480000D01*
X152070000Y-151700000D01*
X151280000Y-151860000D01*
X150990000Y-151800000D01*
X150280000Y-151550000D01*
X149130000Y-151070000D01*
X148120000Y-150610000D01*
X147530000Y-150340000D01*
X146700000Y-149950000D01*
X146120000Y-149660000D01*
X145500000Y-149340000D01*
X144760000Y-148930000D01*
X144620000Y-148850000D01*
X144300000Y-148610000D01*
X144300000Y-148400000D01*
X144530000Y-147770000D01*
X144980000Y-146880000D01*
X145500000Y-145950000D01*
X145830000Y-145430000D01*
X146100000Y-145010000D01*
X146610000Y-144350000D01*
G36*
X90070000Y-166730000D02*
G01*
X90740000Y-166830000D01*
X92430000Y-167160000D01*
X94100000Y-167480000D01*
X95390000Y-167730000D01*
X96160000Y-167920000D01*
X96580000Y-168080000D01*
X96760000Y-168230000D01*
X96790000Y-168400000D01*
X96680000Y-168920000D01*
X96360000Y-169770000D01*
X95450000Y-171700000D01*
X95190000Y-172240000D01*
X94890000Y-172810000D01*
X94590000Y-173360000D01*
X94490000Y-173530000D01*
X94180000Y-174050000D01*
X94080000Y-174230000D01*
X93590000Y-174910000D01*
X93330000Y-175150000D01*
X92480000Y-175630000D01*
X91620000Y-175790000D01*
X90990000Y-175580000D01*
X90880000Y-175080000D01*
X90820000Y-174180000D01*
X90790000Y-173220000D01*
X90780000Y-172470000D01*
X90750000Y-171910000D01*
X90710000Y-171360000D01*
X90570000Y-170850000D01*
X90340000Y-170700000D01*
X90320000Y-170700000D01*
X89890000Y-170990000D01*
X89880000Y-171000000D01*
X89600000Y-171800000D01*
X89540000Y-172540000D01*
X89460000Y-173400000D01*
X89410000Y-173850000D01*
X89160000Y-174770000D01*
X88970000Y-175200000D01*
X88960000Y-175210000D01*
X88720000Y-175390000D01*
X88360000Y-175130000D01*
X87970000Y-174570000D01*
X87700000Y-173400000D01*
X87800000Y-171880000D01*
X88230000Y-170170000D01*
X88710000Y-168910000D01*
X89190000Y-167890000D01*
X89520000Y-167350000D01*
X90070000Y-166730000D01*
G37*
X90070000Y-166730000D02*
X90740000Y-166830000D01*
X92430000Y-167160000D01*
X94100000Y-167480000D01*
X95390000Y-167730000D01*
X96160000Y-167920000D01*
X96580000Y-168080000D01*
X96760000Y-168230000D01*
X96790000Y-168400000D01*
X96680000Y-168920000D01*
X96360000Y-169770000D01*
X95450000Y-171700000D01*
X95190000Y-172240000D01*
X94890000Y-172810000D01*
X94590000Y-173360000D01*
X94490000Y-173530000D01*
X94180000Y-174050000D01*
X94080000Y-174230000D01*
X93590000Y-174910000D01*
X93330000Y-175150000D01*
X92480000Y-175630000D01*
X91620000Y-175790000D01*
X90990000Y-175580000D01*
X90880000Y-175080000D01*
X90820000Y-174180000D01*
X90790000Y-173220000D01*
X90780000Y-172470000D01*
X90750000Y-171910000D01*
X90710000Y-171360000D01*
X90570000Y-170850000D01*
X90340000Y-170700000D01*
X90320000Y-170700000D01*
X89890000Y-170990000D01*
X89880000Y-171000000D01*
X89600000Y-171800000D01*
X89540000Y-172540000D01*
X89460000Y-173400000D01*
X89410000Y-173850000D01*
X89160000Y-174770000D01*
X88970000Y-175200000D01*
X88960000Y-175210000D01*
X88720000Y-175390000D01*
X88360000Y-175130000D01*
X87970000Y-174570000D01*
X87700000Y-173400000D01*
X87800000Y-171880000D01*
X88230000Y-170170000D01*
X88710000Y-168910000D01*
X89190000Y-167890000D01*
X89520000Y-167350000D01*
X90070000Y-166730000D01*
G36*
X77950000Y-155390000D02*
G01*
X78320000Y-155560000D01*
X78730000Y-156070000D01*
X78790000Y-156150000D01*
X79210000Y-156900000D01*
X79450000Y-157450000D01*
X79510000Y-157920000D01*
X79290000Y-158170000D01*
X79150000Y-158260000D01*
X78300000Y-158440000D01*
X77430000Y-158330000D01*
X76770000Y-157980000D01*
X76500000Y-157470000D01*
X76510000Y-157380000D01*
X76750000Y-156870000D01*
X77170000Y-156160000D01*
X77610000Y-155560000D01*
X77950000Y-155390000D01*
G37*
X77950000Y-155390000D02*
X78320000Y-155560000D01*
X78730000Y-156070000D01*
X78790000Y-156150000D01*
X79210000Y-156900000D01*
X79450000Y-157450000D01*
X79510000Y-157920000D01*
X79290000Y-158170000D01*
X79150000Y-158260000D01*
X78300000Y-158440000D01*
X77430000Y-158330000D01*
X76770000Y-157980000D01*
X76500000Y-157470000D01*
X76510000Y-157380000D01*
X76750000Y-156870000D01*
X77170000Y-156160000D01*
X77610000Y-155560000D01*
X77950000Y-155390000D01*
G36*
X122487725Y-149712040D02*
G01*
X122653104Y-149780542D01*
X122677248Y-149790543D01*
X122847814Y-149904512D01*
X122992868Y-150049566D01*
X123106837Y-150220132D01*
X123185340Y-150409655D01*
X123225360Y-150610851D01*
X123225360Y-150815989D01*
X123185340Y-151017185D01*
X123106837Y-151206708D01*
X122992868Y-151377274D01*
X122847814Y-151522328D01*
X122677248Y-151636297D01*
X122677247Y-151636298D01*
X122677246Y-151636298D01*
X122487725Y-151714800D01*
X122286530Y-151754820D01*
X122081390Y-151754820D01*
X121880195Y-151714800D01*
X121690674Y-151636298D01*
X121690673Y-151636298D01*
X121690672Y-151636297D01*
X121520106Y-151522328D01*
X121375052Y-151377274D01*
X121261083Y-151206708D01*
X121182580Y-151017185D01*
X121142560Y-150815989D01*
X121142560Y-150610851D01*
X121182580Y-150409655D01*
X121261083Y-150220132D01*
X121375052Y-150049566D01*
X121520106Y-149904512D01*
X121690672Y-149790543D01*
X121714817Y-149780542D01*
X121880195Y-149712040D01*
X122081390Y-149672020D01*
X122286530Y-149672020D01*
X122487725Y-149712040D01*
X122487725Y-149712040D01*
G37*
G36*
X117417725Y-149712040D02*
G01*
X117583104Y-149780542D01*
X117607248Y-149790543D01*
X117777814Y-149904512D01*
X117922868Y-150049566D01*
X118036837Y-150220132D01*
X118115340Y-150409655D01*
X118155360Y-150610851D01*
X118155360Y-150815989D01*
X118115340Y-151017185D01*
X118036837Y-151206708D01*
X117922868Y-151377274D01*
X117777814Y-151522328D01*
X117607248Y-151636297D01*
X117607247Y-151636298D01*
X117607246Y-151636298D01*
X117417725Y-151714800D01*
X117216530Y-151754820D01*
X117011390Y-151754820D01*
X116810195Y-151714800D01*
X116620674Y-151636298D01*
X116620673Y-151636298D01*
X116620672Y-151636297D01*
X116450106Y-151522328D01*
X116305052Y-151377274D01*
X116191083Y-151206708D01*
X116112580Y-151017185D01*
X116072560Y-150815989D01*
X116072560Y-150610851D01*
X116112580Y-150409655D01*
X116191083Y-150220132D01*
X116305052Y-150049566D01*
X116450106Y-149904512D01*
X116620672Y-149790543D01*
X116644817Y-149780542D01*
X116810195Y-149712040D01*
X117011390Y-149672020D01*
X117216530Y-149672020D01*
X117417725Y-149712040D01*
X117417725Y-149712040D01*
G37*
G36*
X109787725Y-149712040D02*
G01*
X109953104Y-149780542D01*
X109977248Y-149790543D01*
X110147814Y-149904512D01*
X110292868Y-150049566D01*
X110406837Y-150220132D01*
X110485340Y-150409655D01*
X110525360Y-150610851D01*
X110525360Y-150815989D01*
X110485340Y-151017185D01*
X110406837Y-151206708D01*
X110292868Y-151377274D01*
X110147814Y-151522328D01*
X109977248Y-151636297D01*
X109977247Y-151636298D01*
X109977246Y-151636298D01*
X109787725Y-151714800D01*
X109586530Y-151754820D01*
X109381390Y-151754820D01*
X109180195Y-151714800D01*
X108990674Y-151636298D01*
X108990673Y-151636298D01*
X108990672Y-151636297D01*
X108820106Y-151522328D01*
X108675052Y-151377274D01*
X108561083Y-151206708D01*
X108482580Y-151017185D01*
X108442560Y-150815989D01*
X108442560Y-150610851D01*
X108482580Y-150409655D01*
X108561083Y-150220132D01*
X108675052Y-150049566D01*
X108820106Y-149904512D01*
X108990672Y-149790543D01*
X109014817Y-149780542D01*
X109180195Y-149712040D01*
X109381390Y-149672020D01*
X109586530Y-149672020D01*
X109787725Y-149712040D01*
X109787725Y-149712040D01*
G37*
G36*
X107247725Y-149712040D02*
G01*
X107413104Y-149780542D01*
X107437248Y-149790543D01*
X107607814Y-149904512D01*
X107752868Y-150049566D01*
X107866837Y-150220132D01*
X107945340Y-150409655D01*
X107985360Y-150610851D01*
X107985360Y-150815989D01*
X107945340Y-151017185D01*
X107866837Y-151206708D01*
X107752868Y-151377274D01*
X107607814Y-151522328D01*
X107437248Y-151636297D01*
X107437247Y-151636298D01*
X107437246Y-151636298D01*
X107247725Y-151714800D01*
X107046530Y-151754820D01*
X106841390Y-151754820D01*
X106640195Y-151714800D01*
X106450674Y-151636298D01*
X106450673Y-151636298D01*
X106450672Y-151636297D01*
X106280106Y-151522328D01*
X106135052Y-151377274D01*
X106021083Y-151206708D01*
X105942580Y-151017185D01*
X105902560Y-150815989D01*
X105902560Y-150610851D01*
X105942580Y-150409655D01*
X106021083Y-150220132D01*
X106135052Y-150049566D01*
X106280106Y-149904512D01*
X106450672Y-149790543D01*
X106474817Y-149780542D01*
X106640195Y-149712040D01*
X106841390Y-149672020D01*
X107046530Y-149672020D01*
X107247725Y-149712040D01*
X107247725Y-149712040D01*
G37*
G36*
X119957725Y-149712040D02*
G01*
X120123104Y-149780542D01*
X120147248Y-149790543D01*
X120317814Y-149904512D01*
X120462868Y-150049566D01*
X120576837Y-150220132D01*
X120655340Y-150409655D01*
X120695360Y-150610851D01*
X120695360Y-150815989D01*
X120655340Y-151017185D01*
X120576837Y-151206708D01*
X120462868Y-151377274D01*
X120317814Y-151522328D01*
X120147248Y-151636297D01*
X120147247Y-151636298D01*
X120147246Y-151636298D01*
X119957725Y-151714800D01*
X119756530Y-151754820D01*
X119551390Y-151754820D01*
X119350195Y-151714800D01*
X119160674Y-151636298D01*
X119160673Y-151636298D01*
X119160672Y-151636297D01*
X118990106Y-151522328D01*
X118845052Y-151377274D01*
X118731083Y-151206708D01*
X118652580Y-151017185D01*
X118612560Y-150815989D01*
X118612560Y-150610851D01*
X118652580Y-150409655D01*
X118731083Y-150220132D01*
X118845052Y-150049566D01*
X118990106Y-149904512D01*
X119160672Y-149790543D01*
X119184817Y-149780542D01*
X119350195Y-149712040D01*
X119551390Y-149672020D01*
X119756530Y-149672020D01*
X119957725Y-149712040D01*
X119957725Y-149712040D01*
G37*
G36*
X114867725Y-149702040D02*
G01*
X115057248Y-149780543D01*
X115227814Y-149894512D01*
X115372868Y-150039566D01*
X115486837Y-150210132D01*
X115565340Y-150399655D01*
X115605360Y-150600851D01*
X115605360Y-150805989D01*
X115565340Y-151007185D01*
X115486837Y-151196708D01*
X115372868Y-151367274D01*
X115227814Y-151512328D01*
X115057248Y-151626297D01*
X115057247Y-151626298D01*
X115057246Y-151626298D01*
X114867725Y-151704800D01*
X114666530Y-151744820D01*
X114461390Y-151744820D01*
X114260195Y-151704800D01*
X114070674Y-151626298D01*
X114070673Y-151626298D01*
X114070672Y-151626297D01*
X113900106Y-151512328D01*
X113755052Y-151367274D01*
X113641083Y-151196708D01*
X113562580Y-151007185D01*
X113522560Y-150805989D01*
X113522560Y-150600851D01*
X113562580Y-150399655D01*
X113641083Y-150210132D01*
X113755052Y-150039566D01*
X113900106Y-149894512D01*
X114070672Y-149780543D01*
X114260195Y-149702040D01*
X114461390Y-149662020D01*
X114666530Y-149662020D01*
X114867725Y-149702040D01*
X114867725Y-149702040D01*
G37*
G36*
X112337725Y-149702040D02*
G01*
X112527248Y-149780543D01*
X112697814Y-149894512D01*
X112842868Y-150039566D01*
X112956837Y-150210132D01*
X113035340Y-150399655D01*
X113075360Y-150600851D01*
X113075360Y-150805989D01*
X113035340Y-151007185D01*
X112956837Y-151196708D01*
X112842868Y-151367274D01*
X112697814Y-151512328D01*
X112527248Y-151626297D01*
X112527247Y-151626298D01*
X112527246Y-151626298D01*
X112337725Y-151704800D01*
X112136530Y-151744820D01*
X111931390Y-151744820D01*
X111730195Y-151704800D01*
X111540674Y-151626298D01*
X111540673Y-151626298D01*
X111540672Y-151626297D01*
X111370106Y-151512328D01*
X111225052Y-151367274D01*
X111111083Y-151196708D01*
X111032580Y-151007185D01*
X110992560Y-150805989D01*
X110992560Y-150600851D01*
X111032580Y-150399655D01*
X111111083Y-150210132D01*
X111225052Y-150039566D01*
X111370106Y-149894512D01*
X111540672Y-149780543D01*
X111730195Y-149702040D01*
X111931390Y-149662020D01*
X112136530Y-149662020D01*
X112337725Y-149702040D01*
X112337725Y-149702040D01*
G37*
G36*
X120459591Y-143671684D02*
G01*
X120519724Y-143683645D01*
X120557486Y-143699287D01*
X120633013Y-143730571D01*
X120734965Y-143798693D01*
X120821677Y-143885405D01*
X120889799Y-143987357D01*
X120936725Y-144100647D01*
X120960647Y-144220911D01*
X120960647Y-144343535D01*
X120936725Y-144463799D01*
X120889799Y-144577089D01*
X120821677Y-144679041D01*
X120734965Y-144765753D01*
X120633013Y-144833875D01*
X120557486Y-144865159D01*
X120519724Y-144880801D01*
X120459591Y-144892762D01*
X120399459Y-144904723D01*
X120276835Y-144904723D01*
X120216703Y-144892762D01*
X120156570Y-144880801D01*
X120118808Y-144865159D01*
X120043281Y-144833875D01*
X119941329Y-144765753D01*
X119854617Y-144679041D01*
X119786495Y-144577089D01*
X119739569Y-144463799D01*
X119715647Y-144343535D01*
X119715647Y-144220911D01*
X119739569Y-144100647D01*
X119786495Y-143987357D01*
X119854617Y-143885405D01*
X119941329Y-143798693D01*
X120043281Y-143730571D01*
X120118808Y-143699287D01*
X120156570Y-143683645D01*
X120216703Y-143671684D01*
X120276835Y-143659723D01*
X120399459Y-143659723D01*
X120459591Y-143671684D01*
X120459591Y-143671684D01*
G37*
G36*
X122999591Y-143671684D02*
G01*
X123059724Y-143683645D01*
X123097486Y-143699287D01*
X123173013Y-143730571D01*
X123274965Y-143798693D01*
X123361677Y-143885405D01*
X123429799Y-143987357D01*
X123476725Y-144100647D01*
X123500647Y-144220911D01*
X123500647Y-144343535D01*
X123476725Y-144463799D01*
X123429799Y-144577089D01*
X123361677Y-144679041D01*
X123274965Y-144765753D01*
X123173013Y-144833875D01*
X123097486Y-144865159D01*
X123059724Y-144880801D01*
X122999591Y-144892762D01*
X122939459Y-144904723D01*
X122816835Y-144904723D01*
X122756703Y-144892762D01*
X122696570Y-144880801D01*
X122658808Y-144865159D01*
X122583281Y-144833875D01*
X122481329Y-144765753D01*
X122394617Y-144679041D01*
X122326495Y-144577089D01*
X122279569Y-144463799D01*
X122255647Y-144343535D01*
X122255647Y-144220911D01*
X122279569Y-144100647D01*
X122326495Y-143987357D01*
X122394617Y-143885405D01*
X122481329Y-143798693D01*
X122583281Y-143730571D01*
X122658808Y-143699287D01*
X122696570Y-143683645D01*
X122756703Y-143671684D01*
X122816835Y-143659723D01*
X122939459Y-143659723D01*
X122999591Y-143671684D01*
X122999591Y-143671684D01*
G37*
G36*
X106491539Y-143742508D02*
G01*
X106491542Y-143742509D01*
X106491543Y-143742509D01*
X106596915Y-143774473D01*
X106596918Y-143774475D01*
X106596919Y-143774475D01*
X106694025Y-143826379D01*
X106694027Y-143826380D01*
X106694026Y-143826380D01*
X106779145Y-143896235D01*
X106849000Y-143981354D01*
X106900907Y-144078465D01*
X106932871Y-144183837D01*
X106932872Y-144183841D01*
X106943664Y-144293420D01*
X106932872Y-144402999D01*
X106932871Y-144403002D01*
X106932871Y-144403003D01*
X106900907Y-144508375D01*
X106900905Y-144508378D01*
X106900905Y-144508379D01*
X106849001Y-144605485D01*
X106779145Y-144690605D01*
X106694025Y-144760461D01*
X106684124Y-144765753D01*
X106596915Y-144812367D01*
X106491543Y-144844331D01*
X106491542Y-144844331D01*
X106491539Y-144844332D01*
X106409418Y-144852420D01*
X105338502Y-144852420D01*
X105256381Y-144844332D01*
X105256378Y-144844331D01*
X105256377Y-144844331D01*
X105151005Y-144812367D01*
X105063796Y-144765753D01*
X105053895Y-144760461D01*
X104968775Y-144690605D01*
X104898919Y-144605485D01*
X104847015Y-144508379D01*
X104847015Y-144508378D01*
X104847013Y-144508375D01*
X104815049Y-144403003D01*
X104815049Y-144403002D01*
X104815048Y-144402999D01*
X104804256Y-144293420D01*
X104815048Y-144183841D01*
X104815049Y-144183837D01*
X104847013Y-144078465D01*
X104898920Y-143981354D01*
X104968775Y-143896235D01*
X105053894Y-143826380D01*
X105053893Y-143826380D01*
X105053895Y-143826379D01*
X105151001Y-143774475D01*
X105151002Y-143774475D01*
X105151005Y-143774473D01*
X105256377Y-143742509D01*
X105256378Y-143742509D01*
X105256381Y-143742508D01*
X105338502Y-143734420D01*
X106409418Y-143734420D01*
X106491539Y-143742508D01*
X106491539Y-143742508D01*
G37*
G36*
X120459591Y-141131684D02*
G01*
X120519724Y-141143645D01*
X120557486Y-141159287D01*
X120633013Y-141190571D01*
X120734965Y-141258693D01*
X120821677Y-141345405D01*
X120889799Y-141447357D01*
X120936725Y-141560647D01*
X120960647Y-141680911D01*
X120960647Y-141803535D01*
X120936725Y-141923799D01*
X120889799Y-142037089D01*
X120821677Y-142139041D01*
X120734965Y-142225753D01*
X120633013Y-142293875D01*
X120557486Y-142325159D01*
X120519724Y-142340801D01*
X120459591Y-142352762D01*
X120399459Y-142364723D01*
X120276835Y-142364723D01*
X120216703Y-142352762D01*
X120156570Y-142340801D01*
X120118808Y-142325159D01*
X120043281Y-142293875D01*
X119941329Y-142225753D01*
X119854617Y-142139041D01*
X119786495Y-142037089D01*
X119739569Y-141923799D01*
X119715647Y-141803535D01*
X119715647Y-141680911D01*
X119739569Y-141560647D01*
X119786495Y-141447357D01*
X119854617Y-141345405D01*
X119941329Y-141258693D01*
X120043281Y-141190571D01*
X120118808Y-141159287D01*
X120156570Y-141143645D01*
X120216703Y-141131684D01*
X120276835Y-141119723D01*
X120399459Y-141119723D01*
X120459591Y-141131684D01*
X120459591Y-141131684D01*
G37*
G36*
X122999591Y-141131684D02*
G01*
X123059724Y-141143645D01*
X123097486Y-141159287D01*
X123173013Y-141190571D01*
X123274965Y-141258693D01*
X123361677Y-141345405D01*
X123429799Y-141447357D01*
X123476725Y-141560647D01*
X123500647Y-141680911D01*
X123500647Y-141803535D01*
X123476725Y-141923799D01*
X123429799Y-142037089D01*
X123361677Y-142139041D01*
X123274965Y-142225753D01*
X123173013Y-142293875D01*
X123097486Y-142325159D01*
X123059724Y-142340801D01*
X122999591Y-142352762D01*
X122939459Y-142364723D01*
X122816835Y-142364723D01*
X122756703Y-142352762D01*
X122696570Y-142340801D01*
X122658808Y-142325159D01*
X122583281Y-142293875D01*
X122481329Y-142225753D01*
X122394617Y-142139041D01*
X122326495Y-142037089D01*
X122279569Y-141923799D01*
X122255647Y-141803535D01*
X122255647Y-141680911D01*
X122279569Y-141560647D01*
X122326495Y-141447357D01*
X122394617Y-141345405D01*
X122481329Y-141258693D01*
X122583281Y-141190571D01*
X122658808Y-141159287D01*
X122696570Y-141143645D01*
X122756703Y-141131684D01*
X122816835Y-141119723D01*
X122939459Y-141119723D01*
X122999591Y-141131684D01*
X122999591Y-141131684D01*
G37*
G36*
X106491539Y-141192508D02*
G01*
X106491542Y-141192509D01*
X106491543Y-141192509D01*
X106596915Y-141224473D01*
X106596918Y-141224475D01*
X106596919Y-141224475D01*
X106694025Y-141276379D01*
X106694027Y-141276380D01*
X106694026Y-141276380D01*
X106779145Y-141346235D01*
X106849000Y-141431354D01*
X106900907Y-141528465D01*
X106910669Y-141560647D01*
X106932872Y-141633841D01*
X106943664Y-141743420D01*
X106932872Y-141852999D01*
X106932871Y-141853002D01*
X106932871Y-141853003D01*
X106900907Y-141958375D01*
X106900905Y-141958378D01*
X106900905Y-141958379D01*
X106849001Y-142055485D01*
X106779145Y-142140605D01*
X106694025Y-142210461D01*
X106596919Y-142262365D01*
X106596915Y-142262367D01*
X106491543Y-142294331D01*
X106491542Y-142294331D01*
X106491539Y-142294332D01*
X106409418Y-142302420D01*
X105338502Y-142302420D01*
X105256381Y-142294332D01*
X105256378Y-142294331D01*
X105256377Y-142294331D01*
X105151005Y-142262367D01*
X105151001Y-142262365D01*
X105053895Y-142210461D01*
X104968775Y-142140605D01*
X104898919Y-142055485D01*
X104847015Y-141958379D01*
X104847015Y-141958378D01*
X104847013Y-141958375D01*
X104815049Y-141853003D01*
X104815049Y-141853002D01*
X104815048Y-141852999D01*
X104804256Y-141743420D01*
X104815048Y-141633841D01*
X104837251Y-141560647D01*
X104847013Y-141528465D01*
X104898920Y-141431354D01*
X104968775Y-141346235D01*
X105053894Y-141276380D01*
X105053893Y-141276380D01*
X105053895Y-141276379D01*
X105151001Y-141224475D01*
X105151002Y-141224475D01*
X105151005Y-141224473D01*
X105256377Y-141192509D01*
X105256378Y-141192509D01*
X105256381Y-141192508D01*
X105338502Y-141184420D01*
X106409418Y-141184420D01*
X106491539Y-141192508D01*
X106491539Y-141192508D01*
G37*
G36*
X109797725Y-134212040D02*
G01*
X109963104Y-134280542D01*
X109987248Y-134290543D01*
X110157814Y-134404512D01*
X110302868Y-134549566D01*
X110416837Y-134720132D01*
X110495340Y-134909655D01*
X110535360Y-135110851D01*
X110535360Y-135315989D01*
X110495340Y-135517185D01*
X110416837Y-135706708D01*
X110302868Y-135877274D01*
X110157814Y-136022328D01*
X109987248Y-136136297D01*
X109987247Y-136136298D01*
X109987246Y-136136298D01*
X109797725Y-136214800D01*
X109596530Y-136254820D01*
X109391390Y-136254820D01*
X109190195Y-136214800D01*
X109000674Y-136136298D01*
X109000673Y-136136298D01*
X109000672Y-136136297D01*
X108830106Y-136022328D01*
X108685052Y-135877274D01*
X108571083Y-135706708D01*
X108492580Y-135517185D01*
X108452560Y-135315989D01*
X108452560Y-135110851D01*
X108492580Y-134909655D01*
X108571083Y-134720132D01*
X108685052Y-134549566D01*
X108830106Y-134404512D01*
X109000672Y-134290543D01*
X109024817Y-134280542D01*
X109190195Y-134212040D01*
X109391390Y-134172020D01*
X109596530Y-134172020D01*
X109797725Y-134212040D01*
X109797725Y-134212040D01*
G37*
G36*
X119947725Y-134212040D02*
G01*
X120113104Y-134280542D01*
X120137248Y-134290543D01*
X120307814Y-134404512D01*
X120452868Y-134549566D01*
X120566837Y-134720132D01*
X120645340Y-134909655D01*
X120685360Y-135110851D01*
X120685360Y-135315989D01*
X120645340Y-135517185D01*
X120566837Y-135706708D01*
X120452868Y-135877274D01*
X120307814Y-136022328D01*
X120137248Y-136136297D01*
X120137247Y-136136298D01*
X120137246Y-136136298D01*
X119947725Y-136214800D01*
X119746530Y-136254820D01*
X119541390Y-136254820D01*
X119340195Y-136214800D01*
X119150674Y-136136298D01*
X119150673Y-136136298D01*
X119150672Y-136136297D01*
X118980106Y-136022328D01*
X118835052Y-135877274D01*
X118721083Y-135706708D01*
X118642580Y-135517185D01*
X118602560Y-135315989D01*
X118602560Y-135110851D01*
X118642580Y-134909655D01*
X118721083Y-134720132D01*
X118835052Y-134549566D01*
X118980106Y-134404512D01*
X119150672Y-134290543D01*
X119174817Y-134280542D01*
X119340195Y-134212040D01*
X119541390Y-134172020D01*
X119746530Y-134172020D01*
X119947725Y-134212040D01*
X119947725Y-134212040D01*
G37*
G36*
X117417725Y-134212040D02*
G01*
X117583104Y-134280542D01*
X117607248Y-134290543D01*
X117777814Y-134404512D01*
X117922868Y-134549566D01*
X118036837Y-134720132D01*
X118115340Y-134909655D01*
X118155360Y-135110851D01*
X118155360Y-135315989D01*
X118115340Y-135517185D01*
X118036837Y-135706708D01*
X117922868Y-135877274D01*
X117777814Y-136022328D01*
X117607248Y-136136297D01*
X117607247Y-136136298D01*
X117607246Y-136136298D01*
X117417725Y-136214800D01*
X117216530Y-136254820D01*
X117011390Y-136254820D01*
X116810195Y-136214800D01*
X116620674Y-136136298D01*
X116620673Y-136136298D01*
X116620672Y-136136297D01*
X116450106Y-136022328D01*
X116305052Y-135877274D01*
X116191083Y-135706708D01*
X116112580Y-135517185D01*
X116072560Y-135315989D01*
X116072560Y-135110851D01*
X116112580Y-134909655D01*
X116191083Y-134720132D01*
X116305052Y-134549566D01*
X116450106Y-134404512D01*
X116620672Y-134290543D01*
X116644817Y-134280542D01*
X116810195Y-134212040D01*
X117011390Y-134172020D01*
X117216530Y-134172020D01*
X117417725Y-134212040D01*
X117417725Y-134212040D01*
G37*
G36*
X114857725Y-134212040D02*
G01*
X115023104Y-134280542D01*
X115047248Y-134290543D01*
X115217814Y-134404512D01*
X115362868Y-134549566D01*
X115476837Y-134720132D01*
X115555340Y-134909655D01*
X115595360Y-135110851D01*
X115595360Y-135315989D01*
X115555340Y-135517185D01*
X115476837Y-135706708D01*
X115362868Y-135877274D01*
X115217814Y-136022328D01*
X115047248Y-136136297D01*
X115047247Y-136136298D01*
X115047246Y-136136298D01*
X114857725Y-136214800D01*
X114656530Y-136254820D01*
X114451390Y-136254820D01*
X114250195Y-136214800D01*
X114060674Y-136136298D01*
X114060673Y-136136298D01*
X114060672Y-136136297D01*
X113890106Y-136022328D01*
X113745052Y-135877274D01*
X113631083Y-135706708D01*
X113552580Y-135517185D01*
X113512560Y-135315989D01*
X113512560Y-135110851D01*
X113552580Y-134909655D01*
X113631083Y-134720132D01*
X113745052Y-134549566D01*
X113890106Y-134404512D01*
X114060672Y-134290543D01*
X114084817Y-134280542D01*
X114250195Y-134212040D01*
X114451390Y-134172020D01*
X114656530Y-134172020D01*
X114857725Y-134212040D01*
X114857725Y-134212040D01*
G37*
G36*
X112327725Y-134212040D02*
G01*
X112493104Y-134280542D01*
X112517248Y-134290543D01*
X112687814Y-134404512D01*
X112832868Y-134549566D01*
X112946837Y-134720132D01*
X113025340Y-134909655D01*
X113065360Y-135110851D01*
X113065360Y-135315989D01*
X113025340Y-135517185D01*
X112946837Y-135706708D01*
X112832868Y-135877274D01*
X112687814Y-136022328D01*
X112517248Y-136136297D01*
X112517247Y-136136298D01*
X112517246Y-136136298D01*
X112327725Y-136214800D01*
X112126530Y-136254820D01*
X111921390Y-136254820D01*
X111720195Y-136214800D01*
X111530674Y-136136298D01*
X111530673Y-136136298D01*
X111530672Y-136136297D01*
X111360106Y-136022328D01*
X111215052Y-135877274D01*
X111101083Y-135706708D01*
X111022580Y-135517185D01*
X110982560Y-135315989D01*
X110982560Y-135110851D01*
X111022580Y-134909655D01*
X111101083Y-134720132D01*
X111215052Y-134549566D01*
X111360106Y-134404512D01*
X111530672Y-134290543D01*
X111554817Y-134280542D01*
X111720195Y-134212040D01*
X111921390Y-134172020D01*
X112126530Y-134172020D01*
X112327725Y-134212040D01*
X112327725Y-134212040D01*
G37*
G36*
X107247725Y-134212040D02*
G01*
X107413104Y-134280542D01*
X107437248Y-134290543D01*
X107607814Y-134404512D01*
X107752868Y-134549566D01*
X107866837Y-134720132D01*
X107945340Y-134909655D01*
X107985360Y-135110851D01*
X107985360Y-135315989D01*
X107945340Y-135517185D01*
X107866837Y-135706708D01*
X107752868Y-135877274D01*
X107607814Y-136022328D01*
X107437248Y-136136297D01*
X107437247Y-136136298D01*
X107437246Y-136136298D01*
X107247725Y-136214800D01*
X107046530Y-136254820D01*
X106841390Y-136254820D01*
X106640195Y-136214800D01*
X106450674Y-136136298D01*
X106450673Y-136136298D01*
X106450672Y-136136297D01*
X106280106Y-136022328D01*
X106135052Y-135877274D01*
X106021083Y-135706708D01*
X105942580Y-135517185D01*
X105902560Y-135315989D01*
X105902560Y-135110851D01*
X105942580Y-134909655D01*
X106021083Y-134720132D01*
X106135052Y-134549566D01*
X106280106Y-134404512D01*
X106450672Y-134290543D01*
X106474817Y-134280542D01*
X106640195Y-134212040D01*
X106841390Y-134172020D01*
X107046530Y-134172020D01*
X107247725Y-134212040D01*
X107247725Y-134212040D01*
G37*
G36*
X122487725Y-134202040D02*
G01*
X122677248Y-134280543D01*
X122847814Y-134394512D01*
X122992868Y-134539566D01*
X123106837Y-134710132D01*
X123185340Y-134899655D01*
X123225360Y-135100851D01*
X123225360Y-135305989D01*
X123185340Y-135507185D01*
X123106837Y-135696708D01*
X122992868Y-135867274D01*
X122847814Y-136012328D01*
X122677248Y-136126297D01*
X122677247Y-136126298D01*
X122677246Y-136126298D01*
X122487725Y-136204800D01*
X122286530Y-136244820D01*
X122081390Y-136244820D01*
X121880195Y-136204800D01*
X121690674Y-136126298D01*
X121690673Y-136126298D01*
X121690672Y-136126297D01*
X121520106Y-136012328D01*
X121375052Y-135867274D01*
X121261083Y-135696708D01*
X121182580Y-135507185D01*
X121142560Y-135305989D01*
X121142560Y-135100851D01*
X121182580Y-134899655D01*
X121261083Y-134710132D01*
X121375052Y-134539566D01*
X121520106Y-134394512D01*
X121690672Y-134280543D01*
X121880195Y-134202040D01*
X122081390Y-134162020D01*
X122286530Y-134162020D01*
X122487725Y-134202040D01*
X122487725Y-134202040D01*
G37*
G36*
X78881000Y-65761000D02*
G01*
X77279000Y-65761000D01*
X77279000Y-64659000D01*
X78881000Y-64659000D01*
X78881000Y-65761000D01*
X78881000Y-65761000D01*
G37*
G36*
X83781000Y-65761000D02*
G01*
X82179000Y-65761000D01*
X82179000Y-64659000D01*
X83781000Y-64659000D01*
X83781000Y-65761000D01*
X83781000Y-65761000D01*
G37*
G36*
X78881000Y-62561000D02*
G01*
X77279000Y-62561000D01*
X77279000Y-61459000D01*
X78881000Y-61459000D01*
X78881000Y-62561000D01*
X78881000Y-62561000D01*
G37*
G36*
X83781000Y-62561000D02*
G01*
X82179000Y-62561000D01*
X82179000Y-61459000D01*
X83781000Y-61459000D01*
X83781000Y-62561000D01*
X83781000Y-62561000D01*
G37*
G36*
X107331000Y-52731000D02*
G01*
X105729000Y-52731000D01*
X105729000Y-51629000D01*
X107331000Y-51629000D01*
X107331000Y-52731000D01*
X107331000Y-52731000D01*
G37*
G36*
X112231000Y-52731000D02*
G01*
X110629000Y-52731000D01*
X110629000Y-51629000D01*
X112231000Y-51629000D01*
X112231000Y-52731000D01*
X112231000Y-52731000D01*
G37*
G36*
X83445256Y-46641298D02*
G01*
X83551579Y-46662447D01*
X83852042Y-46786903D01*
X84122451Y-46967585D01*
X84352415Y-47197549D01*
X84533097Y-47467958D01*
X84657553Y-47768421D01*
X84721000Y-48087391D01*
X84721000Y-48412609D01*
X84657553Y-48731579D01*
X84533097Y-49032042D01*
X84352415Y-49302451D01*
X84122451Y-49532415D01*
X83852042Y-49713097D01*
X83551579Y-49837553D01*
X83445256Y-49858702D01*
X83232611Y-49901000D01*
X82907389Y-49901000D01*
X82694744Y-49858702D01*
X82588421Y-49837553D01*
X82287958Y-49713097D01*
X82017549Y-49532415D01*
X81787585Y-49302451D01*
X81606903Y-49032042D01*
X81482447Y-48731579D01*
X81419000Y-48412609D01*
X81419000Y-48087391D01*
X81482447Y-47768421D01*
X81606903Y-47467958D01*
X81787585Y-47197549D01*
X82017549Y-46967585D01*
X82287958Y-46786903D01*
X82588421Y-46662447D01*
X82694744Y-46641298D01*
X82907389Y-46599000D01*
X83232611Y-46599000D01*
X83445256Y-46641298D01*
X83445256Y-46641298D01*
G37*
G36*
X107331000Y-49531000D02*
G01*
X105729000Y-49531000D01*
X105729000Y-48429000D01*
X107331000Y-48429000D01*
X107331000Y-49531000D01*
X107331000Y-49531000D01*
G37*
G36*
X112231000Y-49531000D02*
G01*
X110629000Y-49531000D01*
X110629000Y-48429000D01*
X112231000Y-48429000D01*
X112231000Y-49531000D01*
X112231000Y-49531000D01*
G37*
M02*
