M48
; DRILL file {KiCad (5.1.2)-1} date 2022/09/26 1:02:25
; FORMAT={2:4/ absolute / inch / suppress leading zeros}
; #@! TF.CreationDate,2022-09-26T01:02:25+09:00
; #@! TF.GenerationSoftware,Kicad,Pcbnew,(5.1.2)-1
FMAT,2
INCH,TZ
T1C0.0118
T2C0.0400
T3C0.1260
%
G90
G05
T1
X30740Y-25098
X31408Y-25651
X31710Y-24440
X31894Y-25661
X32953Y-25146
X43097Y-19335
X43311Y-20598
X43315Y-19941
T2
X42104Y-53234
X42104Y-59336
X43104Y-59336
X43108Y-53234
X44104Y-53234
X44108Y-59332
X45100Y-53234
X45104Y-59332
X46108Y-53234
X46108Y-59336
X47104Y-53234
X47108Y-59336
X48104Y-53230
X48104Y-59336
T3
X32705Y-18996
T0
M30
