G04 #@! TF.GenerationSoftware,KiCad,Pcbnew,(5.1.2)-1*
G04 #@! TF.CreationDate,2022-09-26T01:02:19+09:00*
G04 #@! TF.ProjectId,gopher_jump_xiao,676f7068-6572-45f6-9a75-6d705f786961,rev?*
G04 #@! TF.SameCoordinates,Original*
G04 #@! TF.FileFunction,Copper,L2,Bot*
G04 #@! TF.FilePolarity,Positive*
%FSLAX46Y46*%
G04 Gerber Fmt 4.6, Leading zero omitted, Abs format (unit mm)*
G04 Created by KiCad (PCBNEW (5.1.2)-1) date 2022-09-26 01:02:19*
%MOMM*%
%LPD*%
G04 APERTURE LIST*
%ADD10C,1.879600*%
%ADD11C,0.100000*%
%ADD12C,0.975000*%
%ADD13C,0.600000*%
%ADD14C,0.400000*%
%ADD15C,0.250000*%
%ADD16C,0.254000*%
G04 APERTURE END LIST*
D10*
X122183960Y-150713420D03*
X119653960Y-150713420D03*
X117113960Y-150713420D03*
X114563960Y-150703420D03*
X112033960Y-150703420D03*
X109483960Y-150713420D03*
X106943960Y-150713420D03*
X106943960Y-135213420D03*
X109493960Y-135213420D03*
X112023960Y-135213420D03*
X114553960Y-135213420D03*
X117113960Y-135213420D03*
X119643960Y-135213420D03*
X122183960Y-135203420D03*
D11*
G36*
X98640982Y-106706514D02*
G01*
X98664643Y-106710024D01*
X98687847Y-106715836D01*
X98710369Y-106723894D01*
X98731993Y-106734122D01*
X98752510Y-106746419D01*
X98771723Y-106760669D01*
X98789447Y-106776733D01*
X98805511Y-106794457D01*
X98819761Y-106813670D01*
X98832058Y-106834187D01*
X98842286Y-106855811D01*
X98850344Y-106878333D01*
X98856156Y-106901537D01*
X98859666Y-106925198D01*
X98860840Y-106949090D01*
X98860840Y-107436590D01*
X98859666Y-107460482D01*
X98856156Y-107484143D01*
X98850344Y-107507347D01*
X98842286Y-107529869D01*
X98832058Y-107551493D01*
X98819761Y-107572010D01*
X98805511Y-107591223D01*
X98789447Y-107608947D01*
X98771723Y-107625011D01*
X98752510Y-107639261D01*
X98731993Y-107651558D01*
X98710369Y-107661786D01*
X98687847Y-107669844D01*
X98664643Y-107675656D01*
X98640982Y-107679166D01*
X98617090Y-107680340D01*
X97704590Y-107680340D01*
X97680698Y-107679166D01*
X97657037Y-107675656D01*
X97633833Y-107669844D01*
X97611311Y-107661786D01*
X97589687Y-107651558D01*
X97569170Y-107639261D01*
X97549957Y-107625011D01*
X97532233Y-107608947D01*
X97516169Y-107591223D01*
X97501919Y-107572010D01*
X97489622Y-107551493D01*
X97479394Y-107529869D01*
X97471336Y-107507347D01*
X97465524Y-107484143D01*
X97462014Y-107460482D01*
X97460840Y-107436590D01*
X97460840Y-106949090D01*
X97462014Y-106925198D01*
X97465524Y-106901537D01*
X97471336Y-106878333D01*
X97479394Y-106855811D01*
X97489622Y-106834187D01*
X97501919Y-106813670D01*
X97516169Y-106794457D01*
X97532233Y-106776733D01*
X97549957Y-106760669D01*
X97569170Y-106746419D01*
X97589687Y-106734122D01*
X97611311Y-106723894D01*
X97633833Y-106715836D01*
X97657037Y-106710024D01*
X97680698Y-106706514D01*
X97704590Y-106705340D01*
X98617090Y-106705340D01*
X98640982Y-106706514D01*
X98640982Y-106706514D01*
G37*
D12*
X98160840Y-107192840D03*
D11*
G36*
X98640982Y-108581514D02*
G01*
X98664643Y-108585024D01*
X98687847Y-108590836D01*
X98710369Y-108598894D01*
X98731993Y-108609122D01*
X98752510Y-108621419D01*
X98771723Y-108635669D01*
X98789447Y-108651733D01*
X98805511Y-108669457D01*
X98819761Y-108688670D01*
X98832058Y-108709187D01*
X98842286Y-108730811D01*
X98850344Y-108753333D01*
X98856156Y-108776537D01*
X98859666Y-108800198D01*
X98860840Y-108824090D01*
X98860840Y-109311590D01*
X98859666Y-109335482D01*
X98856156Y-109359143D01*
X98850344Y-109382347D01*
X98842286Y-109404869D01*
X98832058Y-109426493D01*
X98819761Y-109447010D01*
X98805511Y-109466223D01*
X98789447Y-109483947D01*
X98771723Y-109500011D01*
X98752510Y-109514261D01*
X98731993Y-109526558D01*
X98710369Y-109536786D01*
X98687847Y-109544844D01*
X98664643Y-109550656D01*
X98640982Y-109554166D01*
X98617090Y-109555340D01*
X97704590Y-109555340D01*
X97680698Y-109554166D01*
X97657037Y-109550656D01*
X97633833Y-109544844D01*
X97611311Y-109536786D01*
X97589687Y-109526558D01*
X97569170Y-109514261D01*
X97549957Y-109500011D01*
X97532233Y-109483947D01*
X97516169Y-109466223D01*
X97501919Y-109447010D01*
X97489622Y-109426493D01*
X97479394Y-109404869D01*
X97471336Y-109382347D01*
X97465524Y-109359143D01*
X97462014Y-109335482D01*
X97460840Y-109311590D01*
X97460840Y-108824090D01*
X97462014Y-108800198D01*
X97465524Y-108776537D01*
X97471336Y-108753333D01*
X97479394Y-108730811D01*
X97489622Y-108709187D01*
X97501919Y-108688670D01*
X97516169Y-108669457D01*
X97532233Y-108651733D01*
X97549957Y-108635669D01*
X97569170Y-108621419D01*
X97589687Y-108609122D01*
X97611311Y-108598894D01*
X97633833Y-108590836D01*
X97657037Y-108585024D01*
X97680698Y-108581514D01*
X97704590Y-108580340D01*
X98617090Y-108580340D01*
X98640982Y-108581514D01*
X98640982Y-108581514D01*
G37*
D12*
X98160840Y-109067840D03*
D13*
X79776320Y-65153540D03*
X80543400Y-62077600D03*
X109466380Y-49110900D03*
X110009940Y-52318920D03*
X83700000Y-63870000D03*
X78080000Y-63750000D03*
X110020000Y-50650000D03*
X81010000Y-65180000D03*
D14*
X122183960Y-150713420D02*
X120243420Y-148772880D01*
X120243420Y-148772880D02*
X101000560Y-148772880D01*
X101000560Y-148772880D02*
X90914220Y-138686540D01*
X84589620Y-132361940D02*
X90914220Y-138686540D01*
X84589620Y-97073720D02*
X84589620Y-132361940D01*
X79776320Y-65153540D02*
X79776320Y-92260420D01*
X79776320Y-92260420D02*
X84589620Y-97073720D01*
X80543400Y-62077600D02*
X94904560Y-47716440D01*
X94904560Y-47716440D02*
X108430060Y-47716440D01*
X108430060Y-47716440D02*
X109466380Y-48752760D01*
X109466380Y-48752760D02*
X109466380Y-49110900D01*
D15*
X120593759Y-151653219D02*
X119653960Y-150713420D01*
X120918761Y-151978221D02*
X120593759Y-151653219D01*
X122791065Y-151978221D02*
X120918761Y-151978221D01*
X123448761Y-151320525D02*
X122791065Y-151978221D01*
X123448761Y-72902761D02*
X123448761Y-151320525D01*
X112069880Y-61523880D02*
X123448761Y-72902761D01*
X110009940Y-61320680D02*
X110213140Y-61523880D01*
X110009940Y-52318920D02*
X110009940Y-61320680D01*
X88455500Y-61523880D02*
X110213140Y-61523880D01*
X110213140Y-61523880D02*
X112069880Y-61523880D01*
X86409379Y-63570001D02*
X88455500Y-61523880D01*
X83999999Y-63570001D02*
X86409379Y-63570001D01*
X83700000Y-63870000D02*
X83999999Y-63570001D01*
X78080000Y-63325736D02*
X78335736Y-63070000D01*
X78080000Y-63750000D02*
X78080000Y-63325736D01*
X78335736Y-63070000D02*
X83960000Y-63070000D01*
X83960000Y-63070000D02*
X84810000Y-63070000D01*
X84810000Y-63070000D02*
X97230000Y-50650000D01*
X97230000Y-50650000D02*
X110020000Y-50650000D01*
X98160840Y-106605340D02*
X82326480Y-90770980D01*
X98160840Y-107192840D02*
X98160840Y-106605340D01*
X82326480Y-90770980D02*
X82310980Y-90770980D01*
X82310980Y-90770980D02*
X81010000Y-89470000D01*
X81010000Y-89470000D02*
X81010000Y-65180000D01*
X122183960Y-133090960D02*
X98160840Y-109067840D01*
X122183960Y-135203420D02*
X122183960Y-133090960D01*
D16*
G36*
X105720733Y-149709543D02*
G01*
X105548390Y-149967472D01*
X105429678Y-150254068D01*
X105369160Y-150558316D01*
X105369160Y-150868524D01*
X105429678Y-151172772D01*
X105548390Y-151459368D01*
X105711875Y-151704040D01*
X104203458Y-151704040D01*
X104202769Y-149607880D01*
X105822396Y-149607880D01*
X105720733Y-149709543D01*
X105720733Y-149709543D01*
G37*
X105720733Y-149709543D02*
X105548390Y-149967472D01*
X105429678Y-150254068D01*
X105369160Y-150558316D01*
X105369160Y-150868524D01*
X105429678Y-151172772D01*
X105548390Y-151459368D01*
X105711875Y-151704040D01*
X104203458Y-151704040D01*
X104202769Y-149607880D01*
X105822396Y-149607880D01*
X105720733Y-149709543D01*
G36*
X118421875Y-151704040D02*
G01*
X118346045Y-151704040D01*
X118383960Y-151647296D01*
X118421875Y-151704040D01*
X118421875Y-151704040D01*
G37*
X118421875Y-151704040D02*
X118346045Y-151704040D01*
X118383960Y-151647296D01*
X118421875Y-151704040D01*
G36*
X108251875Y-151704040D02*
G01*
X108176045Y-151704040D01*
X108213960Y-151647296D01*
X108251875Y-151704040D01*
X108251875Y-151704040D01*
G37*
X108251875Y-151704040D02*
X108176045Y-151704040D01*
X108213960Y-151647296D01*
X108251875Y-151704040D01*
G36*
X113338557Y-151704040D02*
G01*
X113259363Y-151704040D01*
X113298960Y-151644779D01*
X113338557Y-151704040D01*
X113338557Y-151704040D01*
G37*
X113338557Y-151704040D02*
X113259363Y-151704040D01*
X113298960Y-151644779D01*
X113338557Y-151704040D01*
G36*
X115881875Y-151704040D02*
G01*
X115789363Y-151704040D01*
X115835619Y-151634813D01*
X115881875Y-151704040D01*
X115881875Y-151704040D01*
G37*
X115881875Y-151704040D02*
X115789363Y-151704040D01*
X115835619Y-151634813D01*
X115881875Y-151704040D01*
G36*
X124934544Y-151704040D02*
G01*
X124105523Y-151704040D01*
X124154307Y-151612772D01*
X124197764Y-151469511D01*
X124208761Y-151357858D01*
X124212438Y-151320525D01*
X124208761Y-151283192D01*
X124208761Y-134173248D01*
X124874455Y-134173006D01*
X124934544Y-151704040D01*
X124934544Y-151704040D01*
G37*
X124934544Y-151704040D02*
X124105523Y-151704040D01*
X124154307Y-151612772D01*
X124197764Y-151469511D01*
X124208761Y-151357858D01*
X124212438Y-151320525D01*
X124208761Y-151283192D01*
X124208761Y-134173248D01*
X124874455Y-134173006D01*
X124934544Y-151704040D01*
G36*
X110808557Y-151704040D02*
G01*
X110716045Y-151704040D01*
X110762301Y-151634813D01*
X110808557Y-151704040D01*
X110808557Y-151704040D01*
G37*
X110808557Y-151704040D02*
X110716045Y-151704040D01*
X110762301Y-151634813D01*
X110808557Y-151704040D01*
G36*
X115890733Y-149709543D02*
G01*
X115842301Y-149782027D01*
X115787187Y-149699543D01*
X115695524Y-149607880D01*
X115992396Y-149607880D01*
X115890733Y-149709543D01*
X115890733Y-149709543D01*
G37*
X115890733Y-149709543D02*
X115842301Y-149782027D01*
X115787187Y-149699543D01*
X115695524Y-149607880D01*
X115992396Y-149607880D01*
X115890733Y-149709543D01*
G36*
X110810733Y-149699543D02*
G01*
X110755619Y-149782027D01*
X110707187Y-149709543D01*
X110605524Y-149607880D01*
X110902396Y-149607880D01*
X110810733Y-149699543D01*
X110810733Y-149699543D01*
G37*
X110810733Y-149699543D02*
X110755619Y-149782027D01*
X110707187Y-149709543D01*
X110605524Y-149607880D01*
X110902396Y-149607880D01*
X110810733Y-149699543D01*
G36*
X108260733Y-149709543D02*
G01*
X108213960Y-149779544D01*
X108167187Y-149709543D01*
X108065524Y-149607880D01*
X108362396Y-149607880D01*
X108260733Y-149709543D01*
X108260733Y-149709543D01*
G37*
X108260733Y-149709543D02*
X108213960Y-149779544D01*
X108167187Y-149709543D01*
X108065524Y-149607880D01*
X108362396Y-149607880D01*
X108260733Y-149709543D01*
G36*
X118430733Y-149709543D02*
G01*
X118383960Y-149779544D01*
X118337187Y-149709543D01*
X118235524Y-149607880D01*
X118532396Y-149607880D01*
X118430733Y-149709543D01*
X118430733Y-149709543D01*
G37*
X118430733Y-149709543D02*
X118383960Y-149779544D01*
X118337187Y-149709543D01*
X118235524Y-149607880D01*
X118532396Y-149607880D01*
X118430733Y-149709543D01*
G36*
X113340733Y-149699543D02*
G01*
X113298960Y-149762061D01*
X113257187Y-149699543D01*
X113165524Y-149607880D01*
X113432396Y-149607880D01*
X113340733Y-149699543D01*
X113340733Y-149699543D01*
G37*
X113340733Y-149699543D02*
X113298960Y-149762061D01*
X113257187Y-149699543D01*
X113165524Y-149607880D01*
X113432396Y-149607880D01*
X113340733Y-149699543D01*
G36*
X105720733Y-134209543D02*
G01*
X105548390Y-134467472D01*
X105429678Y-134754068D01*
X105369160Y-135058316D01*
X105369160Y-135368524D01*
X105429678Y-135672772D01*
X105548390Y-135959368D01*
X105720733Y-136217297D01*
X105940083Y-136436647D01*
X106198012Y-136608990D01*
X106484608Y-136727702D01*
X106788856Y-136788220D01*
X107099064Y-136788220D01*
X107403312Y-136727702D01*
X107689908Y-136608990D01*
X107947837Y-136436647D01*
X108167187Y-136217297D01*
X108218960Y-136139813D01*
X108270733Y-136217297D01*
X108490083Y-136436647D01*
X108748012Y-136608990D01*
X109034608Y-136727702D01*
X109338856Y-136788220D01*
X109649064Y-136788220D01*
X109953312Y-136727702D01*
X110239908Y-136608990D01*
X110497837Y-136436647D01*
X110717187Y-136217297D01*
X110758960Y-136154779D01*
X110800733Y-136217297D01*
X111020083Y-136436647D01*
X111278012Y-136608990D01*
X111564608Y-136727702D01*
X111868856Y-136788220D01*
X112179064Y-136788220D01*
X112483312Y-136727702D01*
X112769908Y-136608990D01*
X113027837Y-136436647D01*
X113247187Y-136217297D01*
X113288960Y-136154779D01*
X113330733Y-136217297D01*
X113550083Y-136436647D01*
X113808012Y-136608990D01*
X114094608Y-136727702D01*
X114398856Y-136788220D01*
X114709064Y-136788220D01*
X115013312Y-136727702D01*
X115299908Y-136608990D01*
X115557837Y-136436647D01*
X115777187Y-136217297D01*
X115833960Y-136132330D01*
X115890733Y-136217297D01*
X116110083Y-136436647D01*
X116368012Y-136608990D01*
X116654608Y-136727702D01*
X116958856Y-136788220D01*
X117269064Y-136788220D01*
X117573312Y-136727702D01*
X117859908Y-136608990D01*
X118117837Y-136436647D01*
X118337187Y-136217297D01*
X118378960Y-136154779D01*
X118420733Y-136217297D01*
X118640083Y-136436647D01*
X118898012Y-136608990D01*
X119184608Y-136727702D01*
X119488856Y-136788220D01*
X119799064Y-136788220D01*
X120103312Y-136727702D01*
X120389908Y-136608990D01*
X120647837Y-136436647D01*
X120867187Y-136217297D01*
X120917301Y-136142296D01*
X120960733Y-136207297D01*
X121180083Y-136426647D01*
X121438012Y-136598990D01*
X121724608Y-136717702D01*
X122028856Y-136778220D01*
X122339064Y-136778220D01*
X122643312Y-136717702D01*
X122688762Y-136698876D01*
X122688762Y-149217964D01*
X122643312Y-149199138D01*
X122339064Y-149138620D01*
X122028856Y-149138620D01*
X121829651Y-149178244D01*
X120862866Y-148211459D01*
X120836711Y-148179589D01*
X120709566Y-148075244D01*
X120564507Y-147997708D01*
X120407109Y-147949962D01*
X120284439Y-147937880D01*
X120284438Y-147937880D01*
X120243420Y-147933840D01*
X120202402Y-147937880D01*
X104202221Y-147937880D01*
X104198420Y-136370199D01*
X104200821Y-134180534D01*
X105750306Y-134179970D01*
X105720733Y-134209543D01*
X105720733Y-134209543D01*
G37*
X105720733Y-134209543D02*
X105548390Y-134467472D01*
X105429678Y-134754068D01*
X105369160Y-135058316D01*
X105369160Y-135368524D01*
X105429678Y-135672772D01*
X105548390Y-135959368D01*
X105720733Y-136217297D01*
X105940083Y-136436647D01*
X106198012Y-136608990D01*
X106484608Y-136727702D01*
X106788856Y-136788220D01*
X107099064Y-136788220D01*
X107403312Y-136727702D01*
X107689908Y-136608990D01*
X107947837Y-136436647D01*
X108167187Y-136217297D01*
X108218960Y-136139813D01*
X108270733Y-136217297D01*
X108490083Y-136436647D01*
X108748012Y-136608990D01*
X109034608Y-136727702D01*
X109338856Y-136788220D01*
X109649064Y-136788220D01*
X109953312Y-136727702D01*
X110239908Y-136608990D01*
X110497837Y-136436647D01*
X110717187Y-136217297D01*
X110758960Y-136154779D01*
X110800733Y-136217297D01*
X111020083Y-136436647D01*
X111278012Y-136608990D01*
X111564608Y-136727702D01*
X111868856Y-136788220D01*
X112179064Y-136788220D01*
X112483312Y-136727702D01*
X112769908Y-136608990D01*
X113027837Y-136436647D01*
X113247187Y-136217297D01*
X113288960Y-136154779D01*
X113330733Y-136217297D01*
X113550083Y-136436647D01*
X113808012Y-136608990D01*
X114094608Y-136727702D01*
X114398856Y-136788220D01*
X114709064Y-136788220D01*
X115013312Y-136727702D01*
X115299908Y-136608990D01*
X115557837Y-136436647D01*
X115777187Y-136217297D01*
X115833960Y-136132330D01*
X115890733Y-136217297D01*
X116110083Y-136436647D01*
X116368012Y-136608990D01*
X116654608Y-136727702D01*
X116958856Y-136788220D01*
X117269064Y-136788220D01*
X117573312Y-136727702D01*
X117859908Y-136608990D01*
X118117837Y-136436647D01*
X118337187Y-136217297D01*
X118378960Y-136154779D01*
X118420733Y-136217297D01*
X118640083Y-136436647D01*
X118898012Y-136608990D01*
X119184608Y-136727702D01*
X119488856Y-136788220D01*
X119799064Y-136788220D01*
X120103312Y-136727702D01*
X120389908Y-136608990D01*
X120647837Y-136436647D01*
X120867187Y-136217297D01*
X120917301Y-136142296D01*
X120960733Y-136207297D01*
X121180083Y-136426647D01*
X121438012Y-136598990D01*
X121724608Y-136717702D01*
X122028856Y-136778220D01*
X122339064Y-136778220D01*
X122643312Y-136717702D01*
X122688762Y-136698876D01*
X122688762Y-149217964D01*
X122643312Y-149199138D01*
X122339064Y-149138620D01*
X122028856Y-149138620D01*
X121829651Y-149178244D01*
X120862866Y-148211459D01*
X120836711Y-148179589D01*
X120709566Y-148075244D01*
X120564507Y-147997708D01*
X120407109Y-147949962D01*
X120284439Y-147937880D01*
X120284438Y-147937880D01*
X120243420Y-147933840D01*
X120202402Y-147937880D01*
X104202221Y-147937880D01*
X104198420Y-136370199D01*
X104200821Y-134180534D01*
X105750306Y-134179970D01*
X105720733Y-134209543D01*
G36*
X115890733Y-134209543D02*
G01*
X115833960Y-134294510D01*
X115777187Y-134209543D01*
X115743975Y-134176331D01*
X115924011Y-134176265D01*
X115890733Y-134209543D01*
X115890733Y-134209543D01*
G37*
X115890733Y-134209543D02*
X115833960Y-134294510D01*
X115777187Y-134209543D01*
X115743975Y-134176331D01*
X115924011Y-134176265D01*
X115890733Y-134209543D01*
G36*
X108270733Y-134209543D02*
G01*
X108218960Y-134287027D01*
X108167187Y-134209543D01*
X108136745Y-134179101D01*
X108301235Y-134179041D01*
X108270733Y-134209543D01*
X108270733Y-134209543D01*
G37*
X108270733Y-134209543D02*
X108218960Y-134287027D01*
X108167187Y-134209543D01*
X108136745Y-134179101D01*
X108301235Y-134179041D01*
X108270733Y-134209543D01*
G36*
X120960733Y-134199543D02*
G01*
X120910619Y-134274544D01*
X120867187Y-134209543D01*
X120832122Y-134174478D01*
X120985854Y-134174422D01*
X120960733Y-134199543D01*
X120960733Y-134199543D01*
G37*
X120960733Y-134199543D02*
X120910619Y-134274544D01*
X120867187Y-134209543D01*
X120832122Y-134174478D01*
X120985854Y-134174422D01*
X120960733Y-134199543D01*
G36*
X110800733Y-134209543D02*
G01*
X110758960Y-134272061D01*
X110717187Y-134209543D01*
X110685817Y-134178173D01*
X110832157Y-134178119D01*
X110800733Y-134209543D01*
X110800733Y-134209543D01*
G37*
X110800733Y-134209543D02*
X110758960Y-134272061D01*
X110717187Y-134209543D01*
X110685817Y-134178173D01*
X110832157Y-134178119D01*
X110800733Y-134209543D01*
G36*
X113330733Y-134209543D02*
G01*
X113288960Y-134272061D01*
X113247187Y-134209543D01*
X113214896Y-134177252D01*
X113363078Y-134177198D01*
X113330733Y-134209543D01*
X113330733Y-134209543D01*
G37*
X113330733Y-134209543D02*
X113288960Y-134272061D01*
X113247187Y-134209543D01*
X113214896Y-134177252D01*
X113363078Y-134177198D01*
X113330733Y-134209543D01*
G36*
X118420733Y-134209543D02*
G01*
X118378960Y-134272061D01*
X118337187Y-134209543D01*
X118303043Y-134175399D01*
X118454932Y-134175344D01*
X118420733Y-134209543D01*
X118420733Y-134209543D01*
G37*
X118420733Y-134209543D02*
X118378960Y-134272061D01*
X118337187Y-134209543D01*
X118303043Y-134175399D01*
X118454932Y-134175344D01*
X118420733Y-134209543D01*
M02*
