G04 #@! TF.GenerationSoftware,KiCad,Pcbnew,(5.1.2)-1*
G04 #@! TF.CreationDate,2022-09-26T01:02:19+09:00*
G04 #@! TF.ProjectId,gopher_jump_xiao,676f7068-6572-45f6-9a75-6d705f786961,rev?*
G04 #@! TF.SameCoordinates,Original*
G04 #@! TF.FileFunction,Soldermask,Bot*
G04 #@! TF.FilePolarity,Negative*
%FSLAX46Y46*%
G04 Gerber Fmt 4.6, Leading zero omitted, Abs format (unit mm)*
G04 Created by KiCad (PCBNEW (5.1.2)-1) date 2022-09-26 01:02:19*
%MOMM*%
%LPD*%
G04 APERTURE LIST*
%ADD10C,0.100000*%
G04 APERTURE END LIST*
D10*
G36*
X107247725Y-149712040D02*
G01*
X107413104Y-149780542D01*
X107437248Y-149790543D01*
X107607814Y-149904512D01*
X107752868Y-150049566D01*
X107866837Y-150220132D01*
X107945340Y-150409655D01*
X107985360Y-150610851D01*
X107985360Y-150815989D01*
X107945340Y-151017185D01*
X107866837Y-151206708D01*
X107752868Y-151377274D01*
X107607814Y-151522328D01*
X107437248Y-151636297D01*
X107437247Y-151636298D01*
X107437246Y-151636298D01*
X107247725Y-151714800D01*
X107046530Y-151754820D01*
X106841390Y-151754820D01*
X106640195Y-151714800D01*
X106450674Y-151636298D01*
X106450673Y-151636298D01*
X106450672Y-151636297D01*
X106280106Y-151522328D01*
X106135052Y-151377274D01*
X106021083Y-151206708D01*
X105942580Y-151017185D01*
X105902560Y-150815989D01*
X105902560Y-150610851D01*
X105942580Y-150409655D01*
X106021083Y-150220132D01*
X106135052Y-150049566D01*
X106280106Y-149904512D01*
X106450672Y-149790543D01*
X106474817Y-149780542D01*
X106640195Y-149712040D01*
X106841390Y-149672020D01*
X107046530Y-149672020D01*
X107247725Y-149712040D01*
X107247725Y-149712040D01*
G37*
G36*
X109787725Y-149712040D02*
G01*
X109953104Y-149780542D01*
X109977248Y-149790543D01*
X110147814Y-149904512D01*
X110292868Y-150049566D01*
X110406837Y-150220132D01*
X110485340Y-150409655D01*
X110525360Y-150610851D01*
X110525360Y-150815989D01*
X110485340Y-151017185D01*
X110406837Y-151206708D01*
X110292868Y-151377274D01*
X110147814Y-151522328D01*
X109977248Y-151636297D01*
X109977247Y-151636298D01*
X109977246Y-151636298D01*
X109787725Y-151714800D01*
X109586530Y-151754820D01*
X109381390Y-151754820D01*
X109180195Y-151714800D01*
X108990674Y-151636298D01*
X108990673Y-151636298D01*
X108990672Y-151636297D01*
X108820106Y-151522328D01*
X108675052Y-151377274D01*
X108561083Y-151206708D01*
X108482580Y-151017185D01*
X108442560Y-150815989D01*
X108442560Y-150610851D01*
X108482580Y-150409655D01*
X108561083Y-150220132D01*
X108675052Y-150049566D01*
X108820106Y-149904512D01*
X108990672Y-149790543D01*
X109014817Y-149780542D01*
X109180195Y-149712040D01*
X109381390Y-149672020D01*
X109586530Y-149672020D01*
X109787725Y-149712040D01*
X109787725Y-149712040D01*
G37*
G36*
X117417725Y-149712040D02*
G01*
X117583104Y-149780542D01*
X117607248Y-149790543D01*
X117777814Y-149904512D01*
X117922868Y-150049566D01*
X118036837Y-150220132D01*
X118115340Y-150409655D01*
X118155360Y-150610851D01*
X118155360Y-150815989D01*
X118115340Y-151017185D01*
X118036837Y-151206708D01*
X117922868Y-151377274D01*
X117777814Y-151522328D01*
X117607248Y-151636297D01*
X117607247Y-151636298D01*
X117607246Y-151636298D01*
X117417725Y-151714800D01*
X117216530Y-151754820D01*
X117011390Y-151754820D01*
X116810195Y-151714800D01*
X116620674Y-151636298D01*
X116620673Y-151636298D01*
X116620672Y-151636297D01*
X116450106Y-151522328D01*
X116305052Y-151377274D01*
X116191083Y-151206708D01*
X116112580Y-151017185D01*
X116072560Y-150815989D01*
X116072560Y-150610851D01*
X116112580Y-150409655D01*
X116191083Y-150220132D01*
X116305052Y-150049566D01*
X116450106Y-149904512D01*
X116620672Y-149790543D01*
X116644817Y-149780542D01*
X116810195Y-149712040D01*
X117011390Y-149672020D01*
X117216530Y-149672020D01*
X117417725Y-149712040D01*
X117417725Y-149712040D01*
G37*
G36*
X122487725Y-149712040D02*
G01*
X122653104Y-149780542D01*
X122677248Y-149790543D01*
X122847814Y-149904512D01*
X122992868Y-150049566D01*
X123106837Y-150220132D01*
X123185340Y-150409655D01*
X123225360Y-150610851D01*
X123225360Y-150815989D01*
X123185340Y-151017185D01*
X123106837Y-151206708D01*
X122992868Y-151377274D01*
X122847814Y-151522328D01*
X122677248Y-151636297D01*
X122677247Y-151636298D01*
X122677246Y-151636298D01*
X122487725Y-151714800D01*
X122286530Y-151754820D01*
X122081390Y-151754820D01*
X121880195Y-151714800D01*
X121690674Y-151636298D01*
X121690673Y-151636298D01*
X121690672Y-151636297D01*
X121520106Y-151522328D01*
X121375052Y-151377274D01*
X121261083Y-151206708D01*
X121182580Y-151017185D01*
X121142560Y-150815989D01*
X121142560Y-150610851D01*
X121182580Y-150409655D01*
X121261083Y-150220132D01*
X121375052Y-150049566D01*
X121520106Y-149904512D01*
X121690672Y-149790543D01*
X121714817Y-149780542D01*
X121880195Y-149712040D01*
X122081390Y-149672020D01*
X122286530Y-149672020D01*
X122487725Y-149712040D01*
X122487725Y-149712040D01*
G37*
G36*
X119957725Y-149712040D02*
G01*
X120123104Y-149780542D01*
X120147248Y-149790543D01*
X120317814Y-149904512D01*
X120462868Y-150049566D01*
X120576837Y-150220132D01*
X120655340Y-150409655D01*
X120695360Y-150610851D01*
X120695360Y-150815989D01*
X120655340Y-151017185D01*
X120576837Y-151206708D01*
X120462868Y-151377274D01*
X120317814Y-151522328D01*
X120147248Y-151636297D01*
X120147247Y-151636298D01*
X120147246Y-151636298D01*
X119957725Y-151714800D01*
X119756530Y-151754820D01*
X119551390Y-151754820D01*
X119350195Y-151714800D01*
X119160674Y-151636298D01*
X119160673Y-151636298D01*
X119160672Y-151636297D01*
X118990106Y-151522328D01*
X118845052Y-151377274D01*
X118731083Y-151206708D01*
X118652580Y-151017185D01*
X118612560Y-150815989D01*
X118612560Y-150610851D01*
X118652580Y-150409655D01*
X118731083Y-150220132D01*
X118845052Y-150049566D01*
X118990106Y-149904512D01*
X119160672Y-149790543D01*
X119184817Y-149780542D01*
X119350195Y-149712040D01*
X119551390Y-149672020D01*
X119756530Y-149672020D01*
X119957725Y-149712040D01*
X119957725Y-149712040D01*
G37*
G36*
X112337725Y-149702040D02*
G01*
X112527248Y-149780543D01*
X112697814Y-149894512D01*
X112842868Y-150039566D01*
X112956837Y-150210132D01*
X113035340Y-150399655D01*
X113075360Y-150600851D01*
X113075360Y-150805989D01*
X113035340Y-151007185D01*
X112956837Y-151196708D01*
X112842868Y-151367274D01*
X112697814Y-151512328D01*
X112527248Y-151626297D01*
X112527247Y-151626298D01*
X112527246Y-151626298D01*
X112337725Y-151704800D01*
X112136530Y-151744820D01*
X111931390Y-151744820D01*
X111730195Y-151704800D01*
X111540674Y-151626298D01*
X111540673Y-151626298D01*
X111540672Y-151626297D01*
X111370106Y-151512328D01*
X111225052Y-151367274D01*
X111111083Y-151196708D01*
X111032580Y-151007185D01*
X110992560Y-150805989D01*
X110992560Y-150600851D01*
X111032580Y-150399655D01*
X111111083Y-150210132D01*
X111225052Y-150039566D01*
X111370106Y-149894512D01*
X111540672Y-149780543D01*
X111730195Y-149702040D01*
X111931390Y-149662020D01*
X112136530Y-149662020D01*
X112337725Y-149702040D01*
X112337725Y-149702040D01*
G37*
G36*
X114867725Y-149702040D02*
G01*
X115057248Y-149780543D01*
X115227814Y-149894512D01*
X115372868Y-150039566D01*
X115486837Y-150210132D01*
X115565340Y-150399655D01*
X115605360Y-150600851D01*
X115605360Y-150805989D01*
X115565340Y-151007185D01*
X115486837Y-151196708D01*
X115372868Y-151367274D01*
X115227814Y-151512328D01*
X115057248Y-151626297D01*
X115057247Y-151626298D01*
X115057246Y-151626298D01*
X114867725Y-151704800D01*
X114666530Y-151744820D01*
X114461390Y-151744820D01*
X114260195Y-151704800D01*
X114070674Y-151626298D01*
X114070673Y-151626298D01*
X114070672Y-151626297D01*
X113900106Y-151512328D01*
X113755052Y-151367274D01*
X113641083Y-151196708D01*
X113562580Y-151007185D01*
X113522560Y-150805989D01*
X113522560Y-150600851D01*
X113562580Y-150399655D01*
X113641083Y-150210132D01*
X113755052Y-150039566D01*
X113900106Y-149894512D01*
X114070672Y-149780543D01*
X114260195Y-149702040D01*
X114461390Y-149662020D01*
X114666530Y-149662020D01*
X114867725Y-149702040D01*
X114867725Y-149702040D01*
G37*
G36*
X119947725Y-134212040D02*
G01*
X120113104Y-134280542D01*
X120137248Y-134290543D01*
X120307814Y-134404512D01*
X120452868Y-134549566D01*
X120566837Y-134720132D01*
X120645340Y-134909655D01*
X120685360Y-135110851D01*
X120685360Y-135315989D01*
X120645340Y-135517185D01*
X120566837Y-135706708D01*
X120452868Y-135877274D01*
X120307814Y-136022328D01*
X120137248Y-136136297D01*
X120137247Y-136136298D01*
X120137246Y-136136298D01*
X119947725Y-136214800D01*
X119746530Y-136254820D01*
X119541390Y-136254820D01*
X119340195Y-136214800D01*
X119150674Y-136136298D01*
X119150673Y-136136298D01*
X119150672Y-136136297D01*
X118980106Y-136022328D01*
X118835052Y-135877274D01*
X118721083Y-135706708D01*
X118642580Y-135517185D01*
X118602560Y-135315989D01*
X118602560Y-135110851D01*
X118642580Y-134909655D01*
X118721083Y-134720132D01*
X118835052Y-134549566D01*
X118980106Y-134404512D01*
X119150672Y-134290543D01*
X119174817Y-134280542D01*
X119340195Y-134212040D01*
X119541390Y-134172020D01*
X119746530Y-134172020D01*
X119947725Y-134212040D01*
X119947725Y-134212040D01*
G37*
G36*
X117417725Y-134212040D02*
G01*
X117583104Y-134280542D01*
X117607248Y-134290543D01*
X117777814Y-134404512D01*
X117922868Y-134549566D01*
X118036837Y-134720132D01*
X118115340Y-134909655D01*
X118155360Y-135110851D01*
X118155360Y-135315989D01*
X118115340Y-135517185D01*
X118036837Y-135706708D01*
X117922868Y-135877274D01*
X117777814Y-136022328D01*
X117607248Y-136136297D01*
X117607247Y-136136298D01*
X117607246Y-136136298D01*
X117417725Y-136214800D01*
X117216530Y-136254820D01*
X117011390Y-136254820D01*
X116810195Y-136214800D01*
X116620674Y-136136298D01*
X116620673Y-136136298D01*
X116620672Y-136136297D01*
X116450106Y-136022328D01*
X116305052Y-135877274D01*
X116191083Y-135706708D01*
X116112580Y-135517185D01*
X116072560Y-135315989D01*
X116072560Y-135110851D01*
X116112580Y-134909655D01*
X116191083Y-134720132D01*
X116305052Y-134549566D01*
X116450106Y-134404512D01*
X116620672Y-134290543D01*
X116644817Y-134280542D01*
X116810195Y-134212040D01*
X117011390Y-134172020D01*
X117216530Y-134172020D01*
X117417725Y-134212040D01*
X117417725Y-134212040D01*
G37*
G36*
X107247725Y-134212040D02*
G01*
X107413104Y-134280542D01*
X107437248Y-134290543D01*
X107607814Y-134404512D01*
X107752868Y-134549566D01*
X107866837Y-134720132D01*
X107945340Y-134909655D01*
X107985360Y-135110851D01*
X107985360Y-135315989D01*
X107945340Y-135517185D01*
X107866837Y-135706708D01*
X107752868Y-135877274D01*
X107607814Y-136022328D01*
X107437248Y-136136297D01*
X107437247Y-136136298D01*
X107437246Y-136136298D01*
X107247725Y-136214800D01*
X107046530Y-136254820D01*
X106841390Y-136254820D01*
X106640195Y-136214800D01*
X106450674Y-136136298D01*
X106450673Y-136136298D01*
X106450672Y-136136297D01*
X106280106Y-136022328D01*
X106135052Y-135877274D01*
X106021083Y-135706708D01*
X105942580Y-135517185D01*
X105902560Y-135315989D01*
X105902560Y-135110851D01*
X105942580Y-134909655D01*
X106021083Y-134720132D01*
X106135052Y-134549566D01*
X106280106Y-134404512D01*
X106450672Y-134290543D01*
X106474817Y-134280542D01*
X106640195Y-134212040D01*
X106841390Y-134172020D01*
X107046530Y-134172020D01*
X107247725Y-134212040D01*
X107247725Y-134212040D01*
G37*
G36*
X109797725Y-134212040D02*
G01*
X109963104Y-134280542D01*
X109987248Y-134290543D01*
X110157814Y-134404512D01*
X110302868Y-134549566D01*
X110416837Y-134720132D01*
X110495340Y-134909655D01*
X110535360Y-135110851D01*
X110535360Y-135315989D01*
X110495340Y-135517185D01*
X110416837Y-135706708D01*
X110302868Y-135877274D01*
X110157814Y-136022328D01*
X109987248Y-136136297D01*
X109987247Y-136136298D01*
X109987246Y-136136298D01*
X109797725Y-136214800D01*
X109596530Y-136254820D01*
X109391390Y-136254820D01*
X109190195Y-136214800D01*
X109000674Y-136136298D01*
X109000673Y-136136298D01*
X109000672Y-136136297D01*
X108830106Y-136022328D01*
X108685052Y-135877274D01*
X108571083Y-135706708D01*
X108492580Y-135517185D01*
X108452560Y-135315989D01*
X108452560Y-135110851D01*
X108492580Y-134909655D01*
X108571083Y-134720132D01*
X108685052Y-134549566D01*
X108830106Y-134404512D01*
X109000672Y-134290543D01*
X109024817Y-134280542D01*
X109190195Y-134212040D01*
X109391390Y-134172020D01*
X109596530Y-134172020D01*
X109797725Y-134212040D01*
X109797725Y-134212040D01*
G37*
G36*
X112327725Y-134212040D02*
G01*
X112493104Y-134280542D01*
X112517248Y-134290543D01*
X112687814Y-134404512D01*
X112832868Y-134549566D01*
X112946837Y-134720132D01*
X113025340Y-134909655D01*
X113065360Y-135110851D01*
X113065360Y-135315989D01*
X113025340Y-135517185D01*
X112946837Y-135706708D01*
X112832868Y-135877274D01*
X112687814Y-136022328D01*
X112517248Y-136136297D01*
X112517247Y-136136298D01*
X112517246Y-136136298D01*
X112327725Y-136214800D01*
X112126530Y-136254820D01*
X111921390Y-136254820D01*
X111720195Y-136214800D01*
X111530674Y-136136298D01*
X111530673Y-136136298D01*
X111530672Y-136136297D01*
X111360106Y-136022328D01*
X111215052Y-135877274D01*
X111101083Y-135706708D01*
X111022580Y-135517185D01*
X110982560Y-135315989D01*
X110982560Y-135110851D01*
X111022580Y-134909655D01*
X111101083Y-134720132D01*
X111215052Y-134549566D01*
X111360106Y-134404512D01*
X111530672Y-134290543D01*
X111554817Y-134280542D01*
X111720195Y-134212040D01*
X111921390Y-134172020D01*
X112126530Y-134172020D01*
X112327725Y-134212040D01*
X112327725Y-134212040D01*
G37*
G36*
X114857725Y-134212040D02*
G01*
X115023104Y-134280542D01*
X115047248Y-134290543D01*
X115217814Y-134404512D01*
X115362868Y-134549566D01*
X115476837Y-134720132D01*
X115555340Y-134909655D01*
X115595360Y-135110851D01*
X115595360Y-135315989D01*
X115555340Y-135517185D01*
X115476837Y-135706708D01*
X115362868Y-135877274D01*
X115217814Y-136022328D01*
X115047248Y-136136297D01*
X115047247Y-136136298D01*
X115047246Y-136136298D01*
X114857725Y-136214800D01*
X114656530Y-136254820D01*
X114451390Y-136254820D01*
X114250195Y-136214800D01*
X114060674Y-136136298D01*
X114060673Y-136136298D01*
X114060672Y-136136297D01*
X113890106Y-136022328D01*
X113745052Y-135877274D01*
X113631083Y-135706708D01*
X113552580Y-135517185D01*
X113512560Y-135315989D01*
X113512560Y-135110851D01*
X113552580Y-134909655D01*
X113631083Y-134720132D01*
X113745052Y-134549566D01*
X113890106Y-134404512D01*
X114060672Y-134290543D01*
X114084817Y-134280542D01*
X114250195Y-134212040D01*
X114451390Y-134172020D01*
X114656530Y-134172020D01*
X114857725Y-134212040D01*
X114857725Y-134212040D01*
G37*
G36*
X122487725Y-134202040D02*
G01*
X122677248Y-134280543D01*
X122847814Y-134394512D01*
X122992868Y-134539566D01*
X123106837Y-134710132D01*
X123185340Y-134899655D01*
X123225360Y-135100851D01*
X123225360Y-135305989D01*
X123185340Y-135507185D01*
X123106837Y-135696708D01*
X122992868Y-135867274D01*
X122847814Y-136012328D01*
X122677248Y-136126297D01*
X122677247Y-136126298D01*
X122677246Y-136126298D01*
X122487725Y-136204800D01*
X122286530Y-136244820D01*
X122081390Y-136244820D01*
X121880195Y-136204800D01*
X121690674Y-136126298D01*
X121690673Y-136126298D01*
X121690672Y-136126297D01*
X121520106Y-136012328D01*
X121375052Y-135867274D01*
X121261083Y-135696708D01*
X121182580Y-135507185D01*
X121142560Y-135305989D01*
X121142560Y-135100851D01*
X121182580Y-134899655D01*
X121261083Y-134710132D01*
X121375052Y-134539566D01*
X121520106Y-134394512D01*
X121690672Y-134280543D01*
X121880195Y-134202040D01*
X122081390Y-134162020D01*
X122286530Y-134162020D01*
X122487725Y-134202040D01*
X122487725Y-134202040D01*
G37*
G36*
X98745308Y-108533905D02*
G01*
X98783978Y-108545636D01*
X98819617Y-108564686D01*
X98850857Y-108590323D01*
X98876494Y-108621563D01*
X98895544Y-108657202D01*
X98907275Y-108695872D01*
X98911840Y-108742228D01*
X98911840Y-109393452D01*
X98907275Y-109439808D01*
X98895544Y-109478478D01*
X98876494Y-109514117D01*
X98850857Y-109545357D01*
X98819617Y-109570994D01*
X98783978Y-109590044D01*
X98745308Y-109601775D01*
X98698952Y-109606340D01*
X97622728Y-109606340D01*
X97576372Y-109601775D01*
X97537702Y-109590044D01*
X97502063Y-109570994D01*
X97470823Y-109545357D01*
X97445186Y-109514117D01*
X97426136Y-109478478D01*
X97414405Y-109439808D01*
X97409840Y-109393452D01*
X97409840Y-108742228D01*
X97414405Y-108695872D01*
X97426136Y-108657202D01*
X97445186Y-108621563D01*
X97470823Y-108590323D01*
X97502063Y-108564686D01*
X97537702Y-108545636D01*
X97576372Y-108533905D01*
X97622728Y-108529340D01*
X98698952Y-108529340D01*
X98745308Y-108533905D01*
X98745308Y-108533905D01*
G37*
G36*
X98745308Y-106658905D02*
G01*
X98783978Y-106670636D01*
X98819617Y-106689686D01*
X98850857Y-106715323D01*
X98876494Y-106746563D01*
X98895544Y-106782202D01*
X98907275Y-106820872D01*
X98911840Y-106867228D01*
X98911840Y-107518452D01*
X98907275Y-107564808D01*
X98895544Y-107603478D01*
X98876494Y-107639117D01*
X98850857Y-107670357D01*
X98819617Y-107695994D01*
X98783978Y-107715044D01*
X98745308Y-107726775D01*
X98698952Y-107731340D01*
X97622728Y-107731340D01*
X97576372Y-107726775D01*
X97537702Y-107715044D01*
X97502063Y-107695994D01*
X97470823Y-107670357D01*
X97445186Y-107639117D01*
X97426136Y-107603478D01*
X97414405Y-107564808D01*
X97409840Y-107518452D01*
X97409840Y-106867228D01*
X97414405Y-106820872D01*
X97426136Y-106782202D01*
X97445186Y-106746563D01*
X97470823Y-106715323D01*
X97502063Y-106689686D01*
X97537702Y-106670636D01*
X97576372Y-106658905D01*
X97622728Y-106654340D01*
X98698952Y-106654340D01*
X98745308Y-106658905D01*
X98745308Y-106658905D01*
G37*
G36*
X83445256Y-46641298D02*
G01*
X83551579Y-46662447D01*
X83852042Y-46786903D01*
X84122451Y-46967585D01*
X84352415Y-47197549D01*
X84533097Y-47467958D01*
X84657553Y-47768421D01*
X84721000Y-48087391D01*
X84721000Y-48412609D01*
X84657553Y-48731579D01*
X84533097Y-49032042D01*
X84352415Y-49302451D01*
X84122451Y-49532415D01*
X83852042Y-49713097D01*
X83551579Y-49837553D01*
X83445256Y-49858702D01*
X83232611Y-49901000D01*
X82907389Y-49901000D01*
X82694744Y-49858702D01*
X82588421Y-49837553D01*
X82287958Y-49713097D01*
X82017549Y-49532415D01*
X81787585Y-49302451D01*
X81606903Y-49032042D01*
X81482447Y-48731579D01*
X81419000Y-48412609D01*
X81419000Y-48087391D01*
X81482447Y-47768421D01*
X81606903Y-47467958D01*
X81787585Y-47197549D01*
X82017549Y-46967585D01*
X82287958Y-46786903D01*
X82588421Y-46662447D01*
X82694744Y-46641298D01*
X82907389Y-46599000D01*
X83232611Y-46599000D01*
X83445256Y-46641298D01*
X83445256Y-46641298D01*
G37*
M02*
