M48
; DRILL file {KiCad (5.1.2)-1} date 2023/05/08 17:00:20
; FORMAT={2:4/ absolute / inch / suppress leading zeros}
; #@! TF.CreationDate,2023-05-08T17:00:20+09:00
; #@! TF.GenerationSoftware,Kicad,Pcbnew,(5.1.2)-1
FMAT,2
INCH,TZ
T1C0.0118
T2C0.0300
T3C0.0400
T4C0.1260
%
G90
G05
T1
X35917Y-23760
X36457Y-23760
X36682Y-22980
X37067Y-23775
X37874Y-23937
X45039Y-54646
X45551Y-53504
X47835Y-54488
X48676Y-22964
X48691Y-24224
X48971Y-23604
T2
X41701Y-57559
X42701Y-57559
X43701Y-57559
X44701Y-57559
X45701Y-57559
X46701Y-57559
X47701Y-57559
X48701Y-57559
T3
X42063Y-50331
X42063Y-56433
X43063Y-56433
X43067Y-50331
X44063Y-50331
X44067Y-56429
X45059Y-50331
X45063Y-56429
X46067Y-50331
X46067Y-56433
X47063Y-50331
X47067Y-56433
X48063Y-50327
X48063Y-56433
T4
X44567Y-17020
T0
M30
