G04 #@! TF.GenerationSoftware,KiCad,Pcbnew,(5.1.2)-1*
G04 #@! TF.CreationDate,2023-05-08T17:00:15+09:00*
G04 #@! TF.ProjectId,gopher_beer_xiao,676f7068-6572-45f6-9265-65725f786961,rev?*
G04 #@! TF.SameCoordinates,Original*
G04 #@! TF.FileFunction,Soldermask,Bot*
G04 #@! TF.FilePolarity,Negative*
%FSLAX46Y46*%
G04 Gerber Fmt 4.6, Leading zero omitted, Abs format (unit mm)*
G04 Created by KiCad (PCBNEW (5.1.2)-1) date 2023-05-08 17:00:15*
%MOMM*%
%LPD*%
G04 APERTURE LIST*
%ADD10C,0.100000*%
G04 APERTURE END LIST*
D10*
G36*
X123937142Y-145418242D02*
G01*
X124085101Y-145479529D01*
X124218255Y-145568499D01*
X124331501Y-145681745D01*
X124420471Y-145814899D01*
X124481758Y-145962858D01*
X124513000Y-146119925D01*
X124513000Y-146280075D01*
X124481758Y-146437142D01*
X124420471Y-146585101D01*
X124331501Y-146718255D01*
X124218255Y-146831501D01*
X124085101Y-146920471D01*
X123937142Y-146981758D01*
X123780075Y-147013000D01*
X123619925Y-147013000D01*
X123462858Y-146981758D01*
X123314899Y-146920471D01*
X123181745Y-146831501D01*
X123068499Y-146718255D01*
X122979529Y-146585101D01*
X122918242Y-146437142D01*
X122887000Y-146280075D01*
X122887000Y-146119925D01*
X122918242Y-145962858D01*
X122979529Y-145814899D01*
X123068499Y-145681745D01*
X123181745Y-145568499D01*
X123314899Y-145479529D01*
X123462858Y-145418242D01*
X123619925Y-145387000D01*
X123780075Y-145387000D01*
X123937142Y-145418242D01*
X123937142Y-145418242D01*
G37*
G36*
X118857142Y-145418242D02*
G01*
X119005101Y-145479529D01*
X119138255Y-145568499D01*
X119251501Y-145681745D01*
X119340471Y-145814899D01*
X119401758Y-145962858D01*
X119433000Y-146119925D01*
X119433000Y-146280075D01*
X119401758Y-146437142D01*
X119340471Y-146585101D01*
X119251501Y-146718255D01*
X119138255Y-146831501D01*
X119005101Y-146920471D01*
X118857142Y-146981758D01*
X118700075Y-147013000D01*
X118539925Y-147013000D01*
X118382858Y-146981758D01*
X118234899Y-146920471D01*
X118101745Y-146831501D01*
X117988499Y-146718255D01*
X117899529Y-146585101D01*
X117838242Y-146437142D01*
X117807000Y-146280075D01*
X117807000Y-146119925D01*
X117838242Y-145962858D01*
X117899529Y-145814899D01*
X117988499Y-145681745D01*
X118101745Y-145568499D01*
X118234899Y-145479529D01*
X118382858Y-145418242D01*
X118539925Y-145387000D01*
X118700075Y-145387000D01*
X118857142Y-145418242D01*
X118857142Y-145418242D01*
G37*
G36*
X116317142Y-145418242D02*
G01*
X116465101Y-145479529D01*
X116598255Y-145568499D01*
X116711501Y-145681745D01*
X116800471Y-145814899D01*
X116861758Y-145962858D01*
X116893000Y-146119925D01*
X116893000Y-146280075D01*
X116861758Y-146437142D01*
X116800471Y-146585101D01*
X116711501Y-146718255D01*
X116598255Y-146831501D01*
X116465101Y-146920471D01*
X116317142Y-146981758D01*
X116160075Y-147013000D01*
X115999925Y-147013000D01*
X115842858Y-146981758D01*
X115694899Y-146920471D01*
X115561745Y-146831501D01*
X115448499Y-146718255D01*
X115359529Y-146585101D01*
X115298242Y-146437142D01*
X115267000Y-146280075D01*
X115267000Y-146119925D01*
X115298242Y-145962858D01*
X115359529Y-145814899D01*
X115448499Y-145681745D01*
X115561745Y-145568499D01*
X115694899Y-145479529D01*
X115842858Y-145418242D01*
X115999925Y-145387000D01*
X116160075Y-145387000D01*
X116317142Y-145418242D01*
X116317142Y-145418242D01*
G37*
G36*
X113777142Y-145418242D02*
G01*
X113925101Y-145479529D01*
X114058255Y-145568499D01*
X114171501Y-145681745D01*
X114260471Y-145814899D01*
X114321758Y-145962858D01*
X114353000Y-146119925D01*
X114353000Y-146280075D01*
X114321758Y-146437142D01*
X114260471Y-146585101D01*
X114171501Y-146718255D01*
X114058255Y-146831501D01*
X113925101Y-146920471D01*
X113777142Y-146981758D01*
X113620075Y-147013000D01*
X113459925Y-147013000D01*
X113302858Y-146981758D01*
X113154899Y-146920471D01*
X113021745Y-146831501D01*
X112908499Y-146718255D01*
X112819529Y-146585101D01*
X112758242Y-146437142D01*
X112727000Y-146280075D01*
X112727000Y-146119925D01*
X112758242Y-145962858D01*
X112819529Y-145814899D01*
X112908499Y-145681745D01*
X113021745Y-145568499D01*
X113154899Y-145479529D01*
X113302858Y-145418242D01*
X113459925Y-145387000D01*
X113620075Y-145387000D01*
X113777142Y-145418242D01*
X113777142Y-145418242D01*
G37*
G36*
X111237142Y-145418242D02*
G01*
X111385101Y-145479529D01*
X111518255Y-145568499D01*
X111631501Y-145681745D01*
X111720471Y-145814899D01*
X111781758Y-145962858D01*
X111813000Y-146119925D01*
X111813000Y-146280075D01*
X111781758Y-146437142D01*
X111720471Y-146585101D01*
X111631501Y-146718255D01*
X111518255Y-146831501D01*
X111385101Y-146920471D01*
X111237142Y-146981758D01*
X111080075Y-147013000D01*
X110919925Y-147013000D01*
X110762858Y-146981758D01*
X110614899Y-146920471D01*
X110481745Y-146831501D01*
X110368499Y-146718255D01*
X110279529Y-146585101D01*
X110218242Y-146437142D01*
X110187000Y-146280075D01*
X110187000Y-146119925D01*
X110218242Y-145962858D01*
X110279529Y-145814899D01*
X110368499Y-145681745D01*
X110481745Y-145568499D01*
X110614899Y-145479529D01*
X110762858Y-145418242D01*
X110919925Y-145387000D01*
X111080075Y-145387000D01*
X111237142Y-145418242D01*
X111237142Y-145418242D01*
G37*
G36*
X108697142Y-145418242D02*
G01*
X108845101Y-145479529D01*
X108978255Y-145568499D01*
X109091501Y-145681745D01*
X109180471Y-145814899D01*
X109241758Y-145962858D01*
X109273000Y-146119925D01*
X109273000Y-146280075D01*
X109241758Y-146437142D01*
X109180471Y-146585101D01*
X109091501Y-146718255D01*
X108978255Y-146831501D01*
X108845101Y-146920471D01*
X108697142Y-146981758D01*
X108540075Y-147013000D01*
X108379925Y-147013000D01*
X108222858Y-146981758D01*
X108074899Y-146920471D01*
X107941745Y-146831501D01*
X107828499Y-146718255D01*
X107739529Y-146585101D01*
X107678242Y-146437142D01*
X107647000Y-146280075D01*
X107647000Y-146119925D01*
X107678242Y-145962858D01*
X107739529Y-145814899D01*
X107828499Y-145681745D01*
X107941745Y-145568499D01*
X108074899Y-145479529D01*
X108222858Y-145418242D01*
X108379925Y-145387000D01*
X108540075Y-145387000D01*
X108697142Y-145418242D01*
X108697142Y-145418242D01*
G37*
G36*
X106157142Y-145418242D02*
G01*
X106305101Y-145479529D01*
X106438255Y-145568499D01*
X106551501Y-145681745D01*
X106640471Y-145814899D01*
X106701758Y-145962858D01*
X106733000Y-146119925D01*
X106733000Y-146280075D01*
X106701758Y-146437142D01*
X106640471Y-146585101D01*
X106551501Y-146718255D01*
X106438255Y-146831501D01*
X106305101Y-146920471D01*
X106157142Y-146981758D01*
X106000075Y-147013000D01*
X105839925Y-147013000D01*
X105682858Y-146981758D01*
X105534899Y-146920471D01*
X105401745Y-146831501D01*
X105288499Y-146718255D01*
X105199529Y-146585101D01*
X105138242Y-146437142D01*
X105107000Y-146280075D01*
X105107000Y-146119925D01*
X105138242Y-145962858D01*
X105199529Y-145814899D01*
X105288499Y-145681745D01*
X105401745Y-145568499D01*
X105534899Y-145479529D01*
X105682858Y-145418242D01*
X105839925Y-145387000D01*
X106000075Y-145387000D01*
X106157142Y-145418242D01*
X106157142Y-145418242D01*
G37*
G36*
X121397142Y-145418242D02*
G01*
X121545101Y-145479529D01*
X121678255Y-145568499D01*
X121791501Y-145681745D01*
X121880471Y-145814899D01*
X121941758Y-145962858D01*
X121973000Y-146119925D01*
X121973000Y-146280075D01*
X121941758Y-146437142D01*
X121880471Y-146585101D01*
X121791501Y-146718255D01*
X121678255Y-146831501D01*
X121545101Y-146920471D01*
X121397142Y-146981758D01*
X121240075Y-147013000D01*
X121079925Y-147013000D01*
X120922858Y-146981758D01*
X120774899Y-146920471D01*
X120641745Y-146831501D01*
X120528499Y-146718255D01*
X120439529Y-146585101D01*
X120378242Y-146437142D01*
X120347000Y-146280075D01*
X120347000Y-146119925D01*
X120378242Y-145962858D01*
X120439529Y-145814899D01*
X120528499Y-145681745D01*
X120641745Y-145568499D01*
X120774899Y-145479529D01*
X120922858Y-145418242D01*
X121079925Y-145387000D01*
X121240075Y-145387000D01*
X121397142Y-145418242D01*
X121397142Y-145418242D01*
G37*
G36*
X119853765Y-142338620D02*
G01*
X120019144Y-142407122D01*
X120043288Y-142417123D01*
X120213854Y-142531092D01*
X120358908Y-142676146D01*
X120472877Y-142846712D01*
X120551380Y-143036235D01*
X120591400Y-143237431D01*
X120591400Y-143442569D01*
X120551380Y-143643765D01*
X120472877Y-143833288D01*
X120358908Y-144003854D01*
X120213854Y-144148908D01*
X120043288Y-144262877D01*
X120043287Y-144262878D01*
X120043286Y-144262878D01*
X119853765Y-144341380D01*
X119652570Y-144381400D01*
X119447430Y-144381400D01*
X119246235Y-144341380D01*
X119056714Y-144262878D01*
X119056713Y-144262878D01*
X119056712Y-144262877D01*
X118886146Y-144148908D01*
X118741092Y-144003854D01*
X118627123Y-143833288D01*
X118548620Y-143643765D01*
X118508600Y-143442569D01*
X118508600Y-143237431D01*
X118548620Y-143036235D01*
X118627123Y-142846712D01*
X118741092Y-142676146D01*
X118886146Y-142531092D01*
X119056712Y-142417123D01*
X119080857Y-142407122D01*
X119246235Y-142338620D01*
X119447430Y-142298600D01*
X119652570Y-142298600D01*
X119853765Y-142338620D01*
X119853765Y-142338620D01*
G37*
G36*
X109683765Y-142338620D02*
G01*
X109849144Y-142407122D01*
X109873288Y-142417123D01*
X110043854Y-142531092D01*
X110188908Y-142676146D01*
X110302877Y-142846712D01*
X110381380Y-143036235D01*
X110421400Y-143237431D01*
X110421400Y-143442569D01*
X110381380Y-143643765D01*
X110302877Y-143833288D01*
X110188908Y-144003854D01*
X110043854Y-144148908D01*
X109873288Y-144262877D01*
X109873287Y-144262878D01*
X109873286Y-144262878D01*
X109683765Y-144341380D01*
X109482570Y-144381400D01*
X109277430Y-144381400D01*
X109076235Y-144341380D01*
X108886714Y-144262878D01*
X108886713Y-144262878D01*
X108886712Y-144262877D01*
X108716146Y-144148908D01*
X108571092Y-144003854D01*
X108457123Y-143833288D01*
X108378620Y-143643765D01*
X108338600Y-143442569D01*
X108338600Y-143237431D01*
X108378620Y-143036235D01*
X108457123Y-142846712D01*
X108571092Y-142676146D01*
X108716146Y-142531092D01*
X108886712Y-142417123D01*
X108910857Y-142407122D01*
X109076235Y-142338620D01*
X109277430Y-142298600D01*
X109482570Y-142298600D01*
X109683765Y-142338620D01*
X109683765Y-142338620D01*
G37*
G36*
X107143765Y-142338620D02*
G01*
X107309144Y-142407122D01*
X107333288Y-142417123D01*
X107503854Y-142531092D01*
X107648908Y-142676146D01*
X107762877Y-142846712D01*
X107841380Y-143036235D01*
X107881400Y-143237431D01*
X107881400Y-143442569D01*
X107841380Y-143643765D01*
X107762877Y-143833288D01*
X107648908Y-144003854D01*
X107503854Y-144148908D01*
X107333288Y-144262877D01*
X107333287Y-144262878D01*
X107333286Y-144262878D01*
X107143765Y-144341380D01*
X106942570Y-144381400D01*
X106737430Y-144381400D01*
X106536235Y-144341380D01*
X106346714Y-144262878D01*
X106346713Y-144262878D01*
X106346712Y-144262877D01*
X106176146Y-144148908D01*
X106031092Y-144003854D01*
X105917123Y-143833288D01*
X105838620Y-143643765D01*
X105798600Y-143442569D01*
X105798600Y-143237431D01*
X105838620Y-143036235D01*
X105917123Y-142846712D01*
X106031092Y-142676146D01*
X106176146Y-142531092D01*
X106346712Y-142417123D01*
X106370857Y-142407122D01*
X106536235Y-142338620D01*
X106737430Y-142298600D01*
X106942570Y-142298600D01*
X107143765Y-142338620D01*
X107143765Y-142338620D01*
G37*
G36*
X122383765Y-142338620D02*
G01*
X122549144Y-142407122D01*
X122573288Y-142417123D01*
X122743854Y-142531092D01*
X122888908Y-142676146D01*
X123002877Y-142846712D01*
X123081380Y-143036235D01*
X123121400Y-143237431D01*
X123121400Y-143442569D01*
X123081380Y-143643765D01*
X123002877Y-143833288D01*
X122888908Y-144003854D01*
X122743854Y-144148908D01*
X122573288Y-144262877D01*
X122573287Y-144262878D01*
X122573286Y-144262878D01*
X122383765Y-144341380D01*
X122182570Y-144381400D01*
X121977430Y-144381400D01*
X121776235Y-144341380D01*
X121586714Y-144262878D01*
X121586713Y-144262878D01*
X121586712Y-144262877D01*
X121416146Y-144148908D01*
X121271092Y-144003854D01*
X121157123Y-143833288D01*
X121078620Y-143643765D01*
X121038600Y-143442569D01*
X121038600Y-143237431D01*
X121078620Y-143036235D01*
X121157123Y-142846712D01*
X121271092Y-142676146D01*
X121416146Y-142531092D01*
X121586712Y-142417123D01*
X121610857Y-142407122D01*
X121776235Y-142338620D01*
X121977430Y-142298600D01*
X122182570Y-142298600D01*
X122383765Y-142338620D01*
X122383765Y-142338620D01*
G37*
G36*
X117313765Y-142338620D02*
G01*
X117479144Y-142407122D01*
X117503288Y-142417123D01*
X117673854Y-142531092D01*
X117818908Y-142676146D01*
X117932877Y-142846712D01*
X118011380Y-143036235D01*
X118051400Y-143237431D01*
X118051400Y-143442569D01*
X118011380Y-143643765D01*
X117932877Y-143833288D01*
X117818908Y-144003854D01*
X117673854Y-144148908D01*
X117503288Y-144262877D01*
X117503287Y-144262878D01*
X117503286Y-144262878D01*
X117313765Y-144341380D01*
X117112570Y-144381400D01*
X116907430Y-144381400D01*
X116706235Y-144341380D01*
X116516714Y-144262878D01*
X116516713Y-144262878D01*
X116516712Y-144262877D01*
X116346146Y-144148908D01*
X116201092Y-144003854D01*
X116087123Y-143833288D01*
X116008620Y-143643765D01*
X115968600Y-143442569D01*
X115968600Y-143237431D01*
X116008620Y-143036235D01*
X116087123Y-142846712D01*
X116201092Y-142676146D01*
X116346146Y-142531092D01*
X116516712Y-142417123D01*
X116540857Y-142407122D01*
X116706235Y-142338620D01*
X116907430Y-142298600D01*
X117112570Y-142298600D01*
X117313765Y-142338620D01*
X117313765Y-142338620D01*
G37*
G36*
X114763765Y-142328620D02*
G01*
X114953288Y-142407123D01*
X115123854Y-142521092D01*
X115268908Y-142666146D01*
X115382877Y-142836712D01*
X115461380Y-143026235D01*
X115501400Y-143227431D01*
X115501400Y-143432569D01*
X115461380Y-143633765D01*
X115382877Y-143823288D01*
X115268908Y-143993854D01*
X115123854Y-144138908D01*
X114953288Y-144252877D01*
X114953287Y-144252878D01*
X114953286Y-144252878D01*
X114763765Y-144331380D01*
X114562570Y-144371400D01*
X114357430Y-144371400D01*
X114156235Y-144331380D01*
X113966714Y-144252878D01*
X113966713Y-144252878D01*
X113966712Y-144252877D01*
X113796146Y-144138908D01*
X113651092Y-143993854D01*
X113537123Y-143823288D01*
X113458620Y-143633765D01*
X113418600Y-143432569D01*
X113418600Y-143227431D01*
X113458620Y-143026235D01*
X113537123Y-142836712D01*
X113651092Y-142666146D01*
X113796146Y-142521092D01*
X113966712Y-142407123D01*
X114156235Y-142328620D01*
X114357430Y-142288600D01*
X114562570Y-142288600D01*
X114763765Y-142328620D01*
X114763765Y-142328620D01*
G37*
G36*
X112233765Y-142328620D02*
G01*
X112423288Y-142407123D01*
X112593854Y-142521092D01*
X112738908Y-142666146D01*
X112852877Y-142836712D01*
X112931380Y-143026235D01*
X112971400Y-143227431D01*
X112971400Y-143432569D01*
X112931380Y-143633765D01*
X112852877Y-143823288D01*
X112738908Y-143993854D01*
X112593854Y-144138908D01*
X112423288Y-144252877D01*
X112423287Y-144252878D01*
X112423286Y-144252878D01*
X112233765Y-144331380D01*
X112032570Y-144371400D01*
X111827430Y-144371400D01*
X111626235Y-144331380D01*
X111436714Y-144252878D01*
X111436713Y-144252878D01*
X111436712Y-144252877D01*
X111266146Y-144138908D01*
X111121092Y-143993854D01*
X111007123Y-143823288D01*
X110928620Y-143633765D01*
X110888600Y-143432569D01*
X110888600Y-143227431D01*
X110928620Y-143026235D01*
X111007123Y-142836712D01*
X111121092Y-142666146D01*
X111266146Y-142521092D01*
X111436712Y-142407123D01*
X111626235Y-142328620D01*
X111827430Y-142288600D01*
X112032570Y-142288600D01*
X112233765Y-142328620D01*
X112233765Y-142328620D01*
G37*
G36*
X117313765Y-126838620D02*
G01*
X117479144Y-126907122D01*
X117503288Y-126917123D01*
X117673854Y-127031092D01*
X117818908Y-127176146D01*
X117932877Y-127346712D01*
X118011380Y-127536235D01*
X118051400Y-127737431D01*
X118051400Y-127942569D01*
X118011380Y-128143765D01*
X117932877Y-128333288D01*
X117818908Y-128503854D01*
X117673854Y-128648908D01*
X117503288Y-128762877D01*
X117503287Y-128762878D01*
X117503286Y-128762878D01*
X117313765Y-128841380D01*
X117112570Y-128881400D01*
X116907430Y-128881400D01*
X116706235Y-128841380D01*
X116516714Y-128762878D01*
X116516713Y-128762878D01*
X116516712Y-128762877D01*
X116346146Y-128648908D01*
X116201092Y-128503854D01*
X116087123Y-128333288D01*
X116008620Y-128143765D01*
X115968600Y-127942569D01*
X115968600Y-127737431D01*
X116008620Y-127536235D01*
X116087123Y-127346712D01*
X116201092Y-127176146D01*
X116346146Y-127031092D01*
X116516712Y-126917123D01*
X116540857Y-126907122D01*
X116706235Y-126838620D01*
X116907430Y-126798600D01*
X117112570Y-126798600D01*
X117313765Y-126838620D01*
X117313765Y-126838620D01*
G37*
G36*
X119843765Y-126838620D02*
G01*
X120009144Y-126907122D01*
X120033288Y-126917123D01*
X120203854Y-127031092D01*
X120348908Y-127176146D01*
X120462877Y-127346712D01*
X120541380Y-127536235D01*
X120581400Y-127737431D01*
X120581400Y-127942569D01*
X120541380Y-128143765D01*
X120462877Y-128333288D01*
X120348908Y-128503854D01*
X120203854Y-128648908D01*
X120033288Y-128762877D01*
X120033287Y-128762878D01*
X120033286Y-128762878D01*
X119843765Y-128841380D01*
X119642570Y-128881400D01*
X119437430Y-128881400D01*
X119236235Y-128841380D01*
X119046714Y-128762878D01*
X119046713Y-128762878D01*
X119046712Y-128762877D01*
X118876146Y-128648908D01*
X118731092Y-128503854D01*
X118617123Y-128333288D01*
X118538620Y-128143765D01*
X118498600Y-127942569D01*
X118498600Y-127737431D01*
X118538620Y-127536235D01*
X118617123Y-127346712D01*
X118731092Y-127176146D01*
X118876146Y-127031092D01*
X119046712Y-126917123D01*
X119070857Y-126907122D01*
X119236235Y-126838620D01*
X119437430Y-126798600D01*
X119642570Y-126798600D01*
X119843765Y-126838620D01*
X119843765Y-126838620D01*
G37*
G36*
X114753765Y-126838620D02*
G01*
X114919144Y-126907122D01*
X114943288Y-126917123D01*
X115113854Y-127031092D01*
X115258908Y-127176146D01*
X115372877Y-127346712D01*
X115451380Y-127536235D01*
X115491400Y-127737431D01*
X115491400Y-127942569D01*
X115451380Y-128143765D01*
X115372877Y-128333288D01*
X115258908Y-128503854D01*
X115113854Y-128648908D01*
X114943288Y-128762877D01*
X114943287Y-128762878D01*
X114943286Y-128762878D01*
X114753765Y-128841380D01*
X114552570Y-128881400D01*
X114347430Y-128881400D01*
X114146235Y-128841380D01*
X113956714Y-128762878D01*
X113956713Y-128762878D01*
X113956712Y-128762877D01*
X113786146Y-128648908D01*
X113641092Y-128503854D01*
X113527123Y-128333288D01*
X113448620Y-128143765D01*
X113408600Y-127942569D01*
X113408600Y-127737431D01*
X113448620Y-127536235D01*
X113527123Y-127346712D01*
X113641092Y-127176146D01*
X113786146Y-127031092D01*
X113956712Y-126917123D01*
X113980857Y-126907122D01*
X114146235Y-126838620D01*
X114347430Y-126798600D01*
X114552570Y-126798600D01*
X114753765Y-126838620D01*
X114753765Y-126838620D01*
G37*
G36*
X112223765Y-126838620D02*
G01*
X112389144Y-126907122D01*
X112413288Y-126917123D01*
X112583854Y-127031092D01*
X112728908Y-127176146D01*
X112842877Y-127346712D01*
X112921380Y-127536235D01*
X112961400Y-127737431D01*
X112961400Y-127942569D01*
X112921380Y-128143765D01*
X112842877Y-128333288D01*
X112728908Y-128503854D01*
X112583854Y-128648908D01*
X112413288Y-128762877D01*
X112413287Y-128762878D01*
X112413286Y-128762878D01*
X112223765Y-128841380D01*
X112022570Y-128881400D01*
X111817430Y-128881400D01*
X111616235Y-128841380D01*
X111426714Y-128762878D01*
X111426713Y-128762878D01*
X111426712Y-128762877D01*
X111256146Y-128648908D01*
X111111092Y-128503854D01*
X110997123Y-128333288D01*
X110918620Y-128143765D01*
X110878600Y-127942569D01*
X110878600Y-127737431D01*
X110918620Y-127536235D01*
X110997123Y-127346712D01*
X111111092Y-127176146D01*
X111256146Y-127031092D01*
X111426712Y-126917123D01*
X111450857Y-126907122D01*
X111616235Y-126838620D01*
X111817430Y-126798600D01*
X112022570Y-126798600D01*
X112223765Y-126838620D01*
X112223765Y-126838620D01*
G37*
G36*
X109693765Y-126838620D02*
G01*
X109859144Y-126907122D01*
X109883288Y-126917123D01*
X110053854Y-127031092D01*
X110198908Y-127176146D01*
X110312877Y-127346712D01*
X110391380Y-127536235D01*
X110431400Y-127737431D01*
X110431400Y-127942569D01*
X110391380Y-128143765D01*
X110312877Y-128333288D01*
X110198908Y-128503854D01*
X110053854Y-128648908D01*
X109883288Y-128762877D01*
X109883287Y-128762878D01*
X109883286Y-128762878D01*
X109693765Y-128841380D01*
X109492570Y-128881400D01*
X109287430Y-128881400D01*
X109086235Y-128841380D01*
X108896714Y-128762878D01*
X108896713Y-128762878D01*
X108896712Y-128762877D01*
X108726146Y-128648908D01*
X108581092Y-128503854D01*
X108467123Y-128333288D01*
X108388620Y-128143765D01*
X108348600Y-127942569D01*
X108348600Y-127737431D01*
X108388620Y-127536235D01*
X108467123Y-127346712D01*
X108581092Y-127176146D01*
X108726146Y-127031092D01*
X108896712Y-126917123D01*
X108920857Y-126907122D01*
X109086235Y-126838620D01*
X109287430Y-126798600D01*
X109492570Y-126798600D01*
X109693765Y-126838620D01*
X109693765Y-126838620D01*
G37*
G36*
X107143765Y-126838620D02*
G01*
X107309144Y-126907122D01*
X107333288Y-126917123D01*
X107503854Y-127031092D01*
X107648908Y-127176146D01*
X107762877Y-127346712D01*
X107841380Y-127536235D01*
X107881400Y-127737431D01*
X107881400Y-127942569D01*
X107841380Y-128143765D01*
X107762877Y-128333288D01*
X107648908Y-128503854D01*
X107503854Y-128648908D01*
X107333288Y-128762877D01*
X107333287Y-128762878D01*
X107333286Y-128762878D01*
X107143765Y-128841380D01*
X106942570Y-128881400D01*
X106737430Y-128881400D01*
X106536235Y-128841380D01*
X106346714Y-128762878D01*
X106346713Y-128762878D01*
X106346712Y-128762877D01*
X106176146Y-128648908D01*
X106031092Y-128503854D01*
X105917123Y-128333288D01*
X105838620Y-128143765D01*
X105798600Y-127942569D01*
X105798600Y-127737431D01*
X105838620Y-127536235D01*
X105917123Y-127346712D01*
X106031092Y-127176146D01*
X106176146Y-127031092D01*
X106346712Y-126917123D01*
X106370857Y-126907122D01*
X106536235Y-126838620D01*
X106737430Y-126798600D01*
X106942570Y-126798600D01*
X107143765Y-126838620D01*
X107143765Y-126838620D01*
G37*
G36*
X122383765Y-126828620D02*
G01*
X122573288Y-126907123D01*
X122743854Y-127021092D01*
X122888908Y-127166146D01*
X123002877Y-127336712D01*
X123081380Y-127526235D01*
X123121400Y-127727431D01*
X123121400Y-127932569D01*
X123081380Y-128133765D01*
X123002877Y-128323288D01*
X122888908Y-128493854D01*
X122743854Y-128638908D01*
X122573288Y-128752877D01*
X122573287Y-128752878D01*
X122573286Y-128752878D01*
X122383765Y-128831380D01*
X122182570Y-128871400D01*
X121977430Y-128871400D01*
X121776235Y-128831380D01*
X121586714Y-128752878D01*
X121586713Y-128752878D01*
X121586712Y-128752877D01*
X121416146Y-128638908D01*
X121271092Y-128493854D01*
X121157123Y-128323288D01*
X121078620Y-128133765D01*
X121038600Y-127932569D01*
X121038600Y-127727431D01*
X121078620Y-127526235D01*
X121157123Y-127336712D01*
X121271092Y-127166146D01*
X121416146Y-127021092D01*
X121586712Y-126907123D01*
X121776235Y-126828620D01*
X121977430Y-126788600D01*
X122182570Y-126788600D01*
X122383765Y-126828620D01*
X122383765Y-126828620D01*
G37*
G36*
X94584468Y-85003565D02*
G01*
X94623138Y-85015296D01*
X94658777Y-85034346D01*
X94690017Y-85059983D01*
X94715654Y-85091223D01*
X94734704Y-85126862D01*
X94746435Y-85165532D01*
X94751000Y-85211888D01*
X94751000Y-85863112D01*
X94746435Y-85909468D01*
X94734704Y-85948138D01*
X94715654Y-85983777D01*
X94690017Y-86015017D01*
X94658777Y-86040654D01*
X94623138Y-86059704D01*
X94584468Y-86071435D01*
X94538112Y-86076000D01*
X93461888Y-86076000D01*
X93415532Y-86071435D01*
X93376862Y-86059704D01*
X93341223Y-86040654D01*
X93309983Y-86015017D01*
X93284346Y-85983777D01*
X93265296Y-85948138D01*
X93253565Y-85909468D01*
X93249000Y-85863112D01*
X93249000Y-85211888D01*
X93253565Y-85165532D01*
X93265296Y-85126862D01*
X93284346Y-85091223D01*
X93309983Y-85059983D01*
X93341223Y-85034346D01*
X93376862Y-85015296D01*
X93415532Y-85003565D01*
X93461888Y-84999000D01*
X94538112Y-84999000D01*
X94584468Y-85003565D01*
X94584468Y-85003565D01*
G37*
G36*
X94584468Y-83128565D02*
G01*
X94623138Y-83140296D01*
X94658777Y-83159346D01*
X94690017Y-83184983D01*
X94715654Y-83216223D01*
X94734704Y-83251862D01*
X94746435Y-83290532D01*
X94751000Y-83336888D01*
X94751000Y-83988112D01*
X94746435Y-84034468D01*
X94734704Y-84073138D01*
X94715654Y-84108777D01*
X94690017Y-84140017D01*
X94658777Y-84165654D01*
X94623138Y-84184704D01*
X94584468Y-84196435D01*
X94538112Y-84201000D01*
X93461888Y-84201000D01*
X93415532Y-84196435D01*
X93376862Y-84184704D01*
X93341223Y-84165654D01*
X93309983Y-84140017D01*
X93284346Y-84108777D01*
X93265296Y-84073138D01*
X93253565Y-84034468D01*
X93249000Y-83988112D01*
X93249000Y-83336888D01*
X93253565Y-83290532D01*
X93265296Y-83251862D01*
X93284346Y-83216223D01*
X93309983Y-83184983D01*
X93341223Y-83159346D01*
X93376862Y-83140296D01*
X93415532Y-83128565D01*
X93461888Y-83124000D01*
X94538112Y-83124000D01*
X94584468Y-83128565D01*
X94584468Y-83128565D01*
G37*
G36*
X113575256Y-41621298D02*
G01*
X113681579Y-41642447D01*
X113982042Y-41766903D01*
X114252451Y-41947585D01*
X114482415Y-42177549D01*
X114663097Y-42447958D01*
X114787553Y-42748421D01*
X114851000Y-43067391D01*
X114851000Y-43392609D01*
X114787553Y-43711579D01*
X114663097Y-44012042D01*
X114482415Y-44282451D01*
X114252451Y-44512415D01*
X113982042Y-44693097D01*
X113681579Y-44817553D01*
X113575256Y-44838702D01*
X113362611Y-44881000D01*
X113037389Y-44881000D01*
X112824744Y-44838702D01*
X112718421Y-44817553D01*
X112417958Y-44693097D01*
X112147549Y-44512415D01*
X111917585Y-44282451D01*
X111736903Y-44012042D01*
X111612447Y-43711579D01*
X111549000Y-43392609D01*
X111549000Y-43067391D01*
X111612447Y-42748421D01*
X111736903Y-42447958D01*
X111917585Y-42177549D01*
X112147549Y-41947585D01*
X112417958Y-41766903D01*
X112718421Y-41642447D01*
X112824744Y-41621298D01*
X113037389Y-41579000D01*
X113362611Y-41579000D01*
X113575256Y-41621298D01*
X113575256Y-41621298D01*
G37*
M02*
