G04 #@! TF.GenerationSoftware,KiCad,Pcbnew,(5.1.2)-1*
G04 #@! TF.CreationDate,2023-05-08T19:06:34+09:00*
G04 #@! TF.ProjectId,gopher_goldpilot_xiao,676f7068-6572-45f6-976f-6c6470696c6f,rev?*
G04 #@! TF.SameCoordinates,Original*
G04 #@! TF.FileFunction,Soldermask,Top*
G04 #@! TF.FilePolarity,Negative*
%FSLAX46Y46*%
G04 Gerber Fmt 4.6, Leading zero omitted, Abs format (unit mm)*
G04 Created by KiCad (PCBNEW (5.1.2)-1) date 2023-05-08 19:06:34*
%MOMM*%
%LPD*%
G04 APERTURE LIST*
%ADD10C,0.100000*%
G04 APERTURE END LIST*
D10*
G36*
X92742600Y-65086520D02*
G01*
X92622600Y-65296520D01*
X92062600Y-66001520D01*
X91372600Y-66981520D01*
X90892600Y-68021520D01*
X90472600Y-68951520D01*
X89912600Y-71121520D01*
X89742600Y-73421520D01*
X89862600Y-75211520D01*
X90412600Y-77401520D01*
X91272600Y-79341520D01*
X91972600Y-80341520D01*
X92482600Y-81101520D01*
X93212600Y-81851520D01*
X93992600Y-82641520D01*
X95792600Y-83951520D01*
X97802600Y-84901520D01*
X100092600Y-85531520D01*
X100502600Y-85601520D01*
X101032600Y-85721520D01*
X101132600Y-85761520D01*
X101172600Y-85771520D01*
X100862600Y-85801520D01*
X100142600Y-85851520D01*
X99502600Y-85901520D01*
X99092600Y-85931520D01*
X97352600Y-85831520D01*
X95532600Y-85461520D01*
X93752600Y-84891520D01*
X92172600Y-84121520D01*
X90692600Y-83161520D01*
X89622600Y-82111520D01*
X89082600Y-81361520D01*
X88112600Y-79551520D01*
X87512600Y-77601520D01*
X87272600Y-75601520D01*
X87392600Y-73551520D01*
X87892600Y-71511520D01*
X88722600Y-69591520D01*
X89902600Y-67791520D01*
X91452600Y-66141520D01*
X92742600Y-65086520D01*
G37*
X92742600Y-65086520D02*
X92622600Y-65296520D01*
X92062600Y-66001520D01*
X91372600Y-66981520D01*
X90892600Y-68021520D01*
X90472600Y-68951520D01*
X89912600Y-71121520D01*
X89742600Y-73421520D01*
X89862600Y-75211520D01*
X90412600Y-77401520D01*
X91272600Y-79341520D01*
X91972600Y-80341520D01*
X92482600Y-81101520D01*
X93212600Y-81851520D01*
X93992600Y-82641520D01*
X95792600Y-83951520D01*
X97802600Y-84901520D01*
X100092600Y-85531520D01*
X100502600Y-85601520D01*
X101032600Y-85721520D01*
X101132600Y-85761520D01*
X101172600Y-85771520D01*
X100862600Y-85801520D01*
X100142600Y-85851520D01*
X99502600Y-85901520D01*
X99092600Y-85931520D01*
X97352600Y-85831520D01*
X95532600Y-85461520D01*
X93752600Y-84891520D01*
X92172600Y-84121520D01*
X90692600Y-83161520D01*
X89622600Y-82111520D01*
X89082600Y-81361520D01*
X88112600Y-79551520D01*
X87512600Y-77601520D01*
X87272600Y-75601520D01*
X87392600Y-73551520D01*
X87892600Y-71511520D01*
X88722600Y-69591520D01*
X89902600Y-67791520D01*
X91452600Y-66141520D01*
X92742600Y-65086520D01*
G36*
X141982600Y-64596520D02*
G01*
X142642600Y-65066520D01*
X143402600Y-65971520D01*
X144222600Y-67121520D01*
X144822600Y-68031520D01*
X145312600Y-68971520D01*
X145952600Y-70531520D01*
X146422600Y-72601520D01*
X146542600Y-74691520D01*
X146282600Y-76601520D01*
X145662600Y-78411520D01*
X144722600Y-80051520D01*
X143452600Y-81531520D01*
X141862600Y-82781520D01*
X139952600Y-83751520D01*
X137782600Y-84361520D01*
X136642600Y-84521520D01*
X135102600Y-84611520D01*
X133922600Y-84630270D01*
X132602600Y-84562770D01*
X131112600Y-84349020D01*
X132352600Y-84316520D01*
X134842600Y-83911520D01*
X137082600Y-83071520D01*
X138932600Y-81981520D01*
X139862600Y-81191520D01*
X140602600Y-80561520D01*
X140982600Y-80151520D01*
X141712600Y-79201520D01*
X142402600Y-78271520D01*
X143382600Y-76331520D01*
X143962600Y-74181520D01*
X144162600Y-71911520D01*
X144142600Y-71321520D01*
X143922600Y-69331520D01*
X143372600Y-67501520D01*
X142562600Y-65851520D01*
X142042600Y-64871520D01*
X141982600Y-64596520D01*
G37*
X141982600Y-64596520D02*
X142642600Y-65066520D01*
X143402600Y-65971520D01*
X144222600Y-67121520D01*
X144822600Y-68031520D01*
X145312600Y-68971520D01*
X145952600Y-70531520D01*
X146422600Y-72601520D01*
X146542600Y-74691520D01*
X146282600Y-76601520D01*
X145662600Y-78411520D01*
X144722600Y-80051520D01*
X143452600Y-81531520D01*
X141862600Y-82781520D01*
X139952600Y-83751520D01*
X137782600Y-84361520D01*
X136642600Y-84521520D01*
X135102600Y-84611520D01*
X133922600Y-84630270D01*
X132602600Y-84562770D01*
X131112600Y-84349020D01*
X132352600Y-84316520D01*
X134842600Y-83911520D01*
X137082600Y-83071520D01*
X138932600Y-81981520D01*
X139862600Y-81191520D01*
X140602600Y-80561520D01*
X140982600Y-80151520D01*
X141712600Y-79201520D01*
X142402600Y-78271520D01*
X143382600Y-76331520D01*
X143962600Y-74181520D01*
X144162600Y-71911520D01*
X144142600Y-71321520D01*
X143922600Y-69331520D01*
X143372600Y-67501520D01*
X142562600Y-65851520D01*
X142042600Y-64871520D01*
X141982600Y-64596520D01*
G36*
X147552600Y-71311520D02*
G01*
X148592600Y-70991520D01*
X149782600Y-70711520D01*
X149882600Y-70791520D01*
X150032600Y-71371520D01*
X150322600Y-72421520D01*
X150552600Y-73311520D01*
X150742600Y-74981520D01*
X150822600Y-75701520D01*
X150722600Y-77981520D01*
X150562600Y-79031520D01*
X149912600Y-81521520D01*
X148912600Y-83791520D01*
X147622600Y-85731520D01*
X146582600Y-86821520D01*
X145922600Y-87461520D01*
X144002600Y-88821520D01*
X142322600Y-89641520D01*
X141732600Y-89941520D01*
X140822600Y-90261520D01*
X140212600Y-90401520D01*
X139542600Y-90471520D01*
X138702600Y-90501520D01*
X137912600Y-90501520D01*
X135782600Y-90471520D01*
X133922600Y-90311520D01*
X132272600Y-89951520D01*
X131022600Y-89441520D01*
X129792600Y-88731520D01*
X128612600Y-87751520D01*
X127052600Y-86161520D01*
X125912600Y-85051520D01*
X125042600Y-84321520D01*
X124442600Y-83911520D01*
X123972600Y-83631520D01*
X123512600Y-83231520D01*
X123162600Y-82241520D01*
X122732600Y-81621520D01*
X122582600Y-81391520D01*
X122982600Y-81081520D01*
X123052600Y-81071520D01*
X123292600Y-81301520D01*
X123702600Y-81731520D01*
X124282600Y-82321520D01*
X125042600Y-82891520D01*
X126122600Y-83721520D01*
X128092600Y-84821520D01*
X130172600Y-85501520D01*
X132142600Y-85971520D01*
X132812600Y-86001520D01*
X133962600Y-86001520D01*
X135302600Y-85961520D01*
X136242600Y-85921520D01*
X137402600Y-85821520D01*
X138452600Y-85661520D01*
X139412600Y-85401520D01*
X140952600Y-84831520D01*
X143042600Y-83671520D01*
X144652600Y-82351520D01*
X145992600Y-80711520D01*
X146982600Y-78781520D01*
X147642600Y-76661520D01*
X147882600Y-74481520D01*
X147782600Y-72401520D01*
X147512600Y-71321520D01*
X147552600Y-71311520D01*
G37*
X147552600Y-71311520D02*
X148592600Y-70991520D01*
X149782600Y-70711520D01*
X149882600Y-70791520D01*
X150032600Y-71371520D01*
X150322600Y-72421520D01*
X150552600Y-73311520D01*
X150742600Y-74981520D01*
X150822600Y-75701520D01*
X150722600Y-77981520D01*
X150562600Y-79031520D01*
X149912600Y-81521520D01*
X148912600Y-83791520D01*
X147622600Y-85731520D01*
X146582600Y-86821520D01*
X145922600Y-87461520D01*
X144002600Y-88821520D01*
X142322600Y-89641520D01*
X141732600Y-89941520D01*
X140822600Y-90261520D01*
X140212600Y-90401520D01*
X139542600Y-90471520D01*
X138702600Y-90501520D01*
X137912600Y-90501520D01*
X135782600Y-90471520D01*
X133922600Y-90311520D01*
X132272600Y-89951520D01*
X131022600Y-89441520D01*
X129792600Y-88731520D01*
X128612600Y-87751520D01*
X127052600Y-86161520D01*
X125912600Y-85051520D01*
X125042600Y-84321520D01*
X124442600Y-83911520D01*
X123972600Y-83631520D01*
X123512600Y-83231520D01*
X123162600Y-82241520D01*
X122732600Y-81621520D01*
X122582600Y-81391520D01*
X122982600Y-81081520D01*
X123052600Y-81071520D01*
X123292600Y-81301520D01*
X123702600Y-81731520D01*
X124282600Y-82321520D01*
X125042600Y-82891520D01*
X126122600Y-83721520D01*
X128092600Y-84821520D01*
X130172600Y-85501520D01*
X132142600Y-85971520D01*
X132812600Y-86001520D01*
X133962600Y-86001520D01*
X135302600Y-85961520D01*
X136242600Y-85921520D01*
X137402600Y-85821520D01*
X138452600Y-85661520D01*
X139412600Y-85401520D01*
X140952600Y-84831520D01*
X143042600Y-83671520D01*
X144652600Y-82351520D01*
X145992600Y-80711520D01*
X146982600Y-78781520D01*
X147642600Y-76661520D01*
X147882600Y-74481520D01*
X147782600Y-72401520D01*
X147512600Y-71321520D01*
X147552600Y-71311520D01*
G36*
X104447600Y-58276520D02*
G01*
X106162600Y-58051520D01*
X108622600Y-57656520D01*
X113382600Y-57446520D01*
X118362600Y-57521520D01*
X121542600Y-57521520D01*
X124952600Y-57611520D01*
X126812600Y-57681520D01*
X130102600Y-57971520D01*
X133402600Y-58411520D01*
X136272600Y-58991520D01*
X138772600Y-59701520D01*
X140992600Y-60571520D01*
X142952600Y-61631520D01*
X144602600Y-62821520D01*
X146072600Y-64231520D01*
X147082600Y-65521520D01*
X147322600Y-65821520D01*
X148792600Y-68291520D01*
X149812600Y-70681520D01*
X147512600Y-71241520D01*
X147292600Y-70311520D01*
X146902600Y-69351520D01*
X146452600Y-68241520D01*
X146202600Y-67761520D01*
X145712600Y-66981520D01*
X145072600Y-65931520D01*
X143952600Y-64651520D01*
X143402600Y-64061520D01*
X141542600Y-62521520D01*
X139352600Y-61221520D01*
X136882600Y-60201520D01*
X134342600Y-59581520D01*
X132762600Y-59381520D01*
X130522600Y-59391520D01*
X128172600Y-59801520D01*
X126202600Y-60491520D01*
X124302600Y-61541520D01*
X122792600Y-62741520D01*
X121462600Y-64241520D01*
X120292600Y-66056520D01*
X119557600Y-67864020D01*
X119132600Y-69841520D01*
X119027600Y-72124020D01*
X119477600Y-74779020D01*
X114652600Y-75161520D01*
X114592600Y-74851520D01*
X114812600Y-72571520D01*
X114682600Y-70851520D01*
X114152600Y-68751520D01*
X113282600Y-66801520D01*
X112052600Y-65051520D01*
X110472600Y-63501520D01*
X108542600Y-62171520D01*
X106372600Y-61211520D01*
X104977600Y-60866520D01*
X104447600Y-58276520D01*
G37*
X104447600Y-58276520D02*
X106162600Y-58051520D01*
X108622600Y-57656520D01*
X113382600Y-57446520D01*
X118362600Y-57521520D01*
X121542600Y-57521520D01*
X124952600Y-57611520D01*
X126812600Y-57681520D01*
X130102600Y-57971520D01*
X133402600Y-58411520D01*
X136272600Y-58991520D01*
X138772600Y-59701520D01*
X140992600Y-60571520D01*
X142952600Y-61631520D01*
X144602600Y-62821520D01*
X146072600Y-64231520D01*
X147082600Y-65521520D01*
X147322600Y-65821520D01*
X148792600Y-68291520D01*
X149812600Y-70681520D01*
X147512600Y-71241520D01*
X147292600Y-70311520D01*
X146902600Y-69351520D01*
X146452600Y-68241520D01*
X146202600Y-67761520D01*
X145712600Y-66981520D01*
X145072600Y-65931520D01*
X143952600Y-64651520D01*
X143402600Y-64061520D01*
X141542600Y-62521520D01*
X139352600Y-61221520D01*
X136882600Y-60201520D01*
X134342600Y-59581520D01*
X132762600Y-59381520D01*
X130522600Y-59391520D01*
X128172600Y-59801520D01*
X126202600Y-60491520D01*
X124302600Y-61541520D01*
X122792600Y-62741520D01*
X121462600Y-64241520D01*
X120292600Y-66056520D01*
X119557600Y-67864020D01*
X119132600Y-69841520D01*
X119027600Y-72124020D01*
X119477600Y-74779020D01*
X114652600Y-75161520D01*
X114592600Y-74851520D01*
X114812600Y-72571520D01*
X114682600Y-70851520D01*
X114152600Y-68751520D01*
X113282600Y-66801520D01*
X112052600Y-65051520D01*
X110472600Y-63501520D01*
X108542600Y-62171520D01*
X106372600Y-61211520D01*
X104977600Y-60866520D01*
X104447600Y-58276520D01*
G36*
X84042600Y-82851520D02*
G01*
X83372600Y-80731520D01*
X83232600Y-79861520D01*
X83167600Y-77196520D01*
X83317600Y-74386520D01*
X83662600Y-72281520D01*
X84242600Y-70491520D01*
X85222600Y-68501520D01*
X86442600Y-66521520D01*
X87782600Y-64931520D01*
X88722600Y-64051520D01*
X89192600Y-63611520D01*
X90452600Y-62751520D01*
X92262600Y-61761520D01*
X92572600Y-61581520D01*
X94972600Y-60601520D01*
X97692600Y-59721520D01*
X100682600Y-59001520D01*
X104412600Y-58291520D01*
X105022600Y-60901520D01*
X104782600Y-60831520D01*
X103172600Y-60681520D01*
X101512600Y-60651520D01*
X99822600Y-60771520D01*
X98302600Y-61041520D01*
X96102600Y-61701520D01*
X94522600Y-62441520D01*
X93732600Y-62801520D01*
X92222600Y-63781520D01*
X91622600Y-64181520D01*
X90272600Y-65421520D01*
X89752600Y-65881520D01*
X88962600Y-66911520D01*
X88252600Y-67811520D01*
X87142600Y-69841520D01*
X86592600Y-71391520D01*
X86282600Y-72321520D01*
X85962600Y-74101520D01*
X85932600Y-76331520D01*
X86312600Y-78481520D01*
X87012600Y-80411520D01*
X88082600Y-82211520D01*
X88832600Y-83121520D01*
X89482600Y-83831520D01*
X91122600Y-85151520D01*
X93062600Y-86181520D01*
X95212600Y-86831520D01*
X95682600Y-86921520D01*
X97102600Y-87071520D01*
X98592600Y-87151520D01*
X100272600Y-87141520D01*
X101752600Y-87041520D01*
X103112600Y-86861520D01*
X104542600Y-86451520D01*
X106682600Y-85501520D01*
X108492600Y-84341520D01*
X109772600Y-83251520D01*
X110312600Y-82771520D01*
X111772600Y-81061520D01*
X112682600Y-79701520D01*
X113072600Y-79071520D01*
X113992600Y-77021520D01*
X114572600Y-74951520D01*
X119472600Y-74821520D01*
X120092600Y-76601520D01*
X121232600Y-78741520D01*
X121872600Y-79591520D01*
X122662600Y-80651520D01*
X123012600Y-81021520D01*
X122562600Y-81381520D01*
X121762600Y-80631520D01*
X120762600Y-80041520D01*
X119892600Y-79691520D01*
X119262600Y-79571520D01*
X118422600Y-79521520D01*
X117002600Y-79491520D01*
X115862600Y-79541520D01*
X115282600Y-79581520D01*
X114542600Y-79761520D01*
X113882600Y-80041520D01*
X113512600Y-80231520D01*
X112702600Y-80781520D01*
X112082600Y-81371520D01*
X111512600Y-82171520D01*
X111282600Y-82811520D01*
X111212600Y-83241520D01*
X110932600Y-83621520D01*
X110182600Y-84181520D01*
X109182600Y-85071520D01*
X108122600Y-86081520D01*
X106512600Y-87721520D01*
X106097600Y-88146520D01*
X105167600Y-89036520D01*
X104527600Y-89616520D01*
X103457600Y-90326520D01*
X102242600Y-90841520D01*
X101232600Y-91211520D01*
X100292600Y-91391520D01*
X99342600Y-91521520D01*
X97942600Y-91601520D01*
X96522600Y-91661520D01*
X94822600Y-91611520D01*
X94052600Y-91541520D01*
X93282600Y-91401520D01*
X91722600Y-90801520D01*
X89737600Y-89691520D01*
X87847600Y-88211520D01*
X86392600Y-86621520D01*
X85342600Y-85201520D01*
X85052600Y-84781520D01*
X84342600Y-83431520D01*
X84042600Y-82851520D01*
G37*
X84042600Y-82851520D02*
X83372600Y-80731520D01*
X83232600Y-79861520D01*
X83167600Y-77196520D01*
X83317600Y-74386520D01*
X83662600Y-72281520D01*
X84242600Y-70491520D01*
X85222600Y-68501520D01*
X86442600Y-66521520D01*
X87782600Y-64931520D01*
X88722600Y-64051520D01*
X89192600Y-63611520D01*
X90452600Y-62751520D01*
X92262600Y-61761520D01*
X92572600Y-61581520D01*
X94972600Y-60601520D01*
X97692600Y-59721520D01*
X100682600Y-59001520D01*
X104412600Y-58291520D01*
X105022600Y-60901520D01*
X104782600Y-60831520D01*
X103172600Y-60681520D01*
X101512600Y-60651520D01*
X99822600Y-60771520D01*
X98302600Y-61041520D01*
X96102600Y-61701520D01*
X94522600Y-62441520D01*
X93732600Y-62801520D01*
X92222600Y-63781520D01*
X91622600Y-64181520D01*
X90272600Y-65421520D01*
X89752600Y-65881520D01*
X88962600Y-66911520D01*
X88252600Y-67811520D01*
X87142600Y-69841520D01*
X86592600Y-71391520D01*
X86282600Y-72321520D01*
X85962600Y-74101520D01*
X85932600Y-76331520D01*
X86312600Y-78481520D01*
X87012600Y-80411520D01*
X88082600Y-82211520D01*
X88832600Y-83121520D01*
X89482600Y-83831520D01*
X91122600Y-85151520D01*
X93062600Y-86181520D01*
X95212600Y-86831520D01*
X95682600Y-86921520D01*
X97102600Y-87071520D01*
X98592600Y-87151520D01*
X100272600Y-87141520D01*
X101752600Y-87041520D01*
X103112600Y-86861520D01*
X104542600Y-86451520D01*
X106682600Y-85501520D01*
X108492600Y-84341520D01*
X109772600Y-83251520D01*
X110312600Y-82771520D01*
X111772600Y-81061520D01*
X112682600Y-79701520D01*
X113072600Y-79071520D01*
X113992600Y-77021520D01*
X114572600Y-74951520D01*
X119472600Y-74821520D01*
X120092600Y-76601520D01*
X121232600Y-78741520D01*
X121872600Y-79591520D01*
X122662600Y-80651520D01*
X123012600Y-81021520D01*
X122562600Y-81381520D01*
X121762600Y-80631520D01*
X120762600Y-80041520D01*
X119892600Y-79691520D01*
X119262600Y-79571520D01*
X118422600Y-79521520D01*
X117002600Y-79491520D01*
X115862600Y-79541520D01*
X115282600Y-79581520D01*
X114542600Y-79761520D01*
X113882600Y-80041520D01*
X113512600Y-80231520D01*
X112702600Y-80781520D01*
X112082600Y-81371520D01*
X111512600Y-82171520D01*
X111282600Y-82811520D01*
X111212600Y-83241520D01*
X110932600Y-83621520D01*
X110182600Y-84181520D01*
X109182600Y-85071520D01*
X108122600Y-86081520D01*
X106512600Y-87721520D01*
X106097600Y-88146520D01*
X105167600Y-89036520D01*
X104527600Y-89616520D01*
X103457600Y-90326520D01*
X102242600Y-90841520D01*
X101232600Y-91211520D01*
X100292600Y-91391520D01*
X99342600Y-91521520D01*
X97942600Y-91601520D01*
X96522600Y-91661520D01*
X94822600Y-91611520D01*
X94052600Y-91541520D01*
X93282600Y-91401520D01*
X91722600Y-90801520D01*
X89737600Y-89691520D01*
X87847600Y-88211520D01*
X86392600Y-86621520D01*
X85342600Y-85201520D01*
X85052600Y-84781520D01*
X84342600Y-83431520D01*
X84042600Y-82851520D01*
G36*
X149152600Y-86261520D02*
G01*
X149412600Y-85711520D01*
X149992600Y-84771520D01*
X150502600Y-83841520D01*
X150692600Y-83401520D01*
X151072600Y-82661520D01*
X151352600Y-82391520D01*
X152572600Y-82231520D01*
X154322600Y-81751520D01*
X155062600Y-81411520D01*
X155662600Y-81131520D01*
X155962600Y-81021520D01*
X155972600Y-81831520D01*
X155952600Y-83131520D01*
X155862600Y-85481520D01*
X155772600Y-87271520D01*
X156592600Y-88321520D01*
X157092600Y-89041520D01*
X157312600Y-89581520D01*
X157472600Y-90291520D01*
X157632600Y-92471520D01*
X157542600Y-94501520D01*
X157152600Y-96451520D01*
X156512600Y-98381520D01*
X155442600Y-100661520D01*
X154972600Y-101761520D01*
X154642600Y-102851520D01*
X154612600Y-103831520D01*
X154922600Y-104741520D01*
X155602600Y-105581520D01*
X156622600Y-106401520D01*
X157072600Y-106671520D01*
X158322600Y-107471520D01*
X158932600Y-107901520D01*
X159562600Y-108321520D01*
X160472600Y-108971520D01*
X162002600Y-110121520D01*
X162982600Y-110731520D01*
X163522600Y-110941520D01*
X163792600Y-110961520D01*
X164752600Y-110821520D01*
X165702600Y-110231520D01*
X166192600Y-109701520D01*
X166632600Y-109201520D01*
X166892600Y-108841520D01*
X167472600Y-108061520D01*
X168042600Y-107331520D01*
X168512600Y-106741520D01*
X168942600Y-106221520D01*
X169152600Y-105961520D01*
X169452600Y-105631520D01*
X169532600Y-105551520D01*
X169792600Y-105341520D01*
X169922600Y-105421520D01*
X170122600Y-105761520D01*
X170332600Y-106241520D01*
X170452600Y-106701520D01*
X170432600Y-106921520D01*
X170022600Y-107231520D01*
X169642600Y-107531520D01*
X169182600Y-107881520D01*
X168142600Y-109231520D01*
X167972600Y-109581520D01*
X167582600Y-110401520D01*
X167342600Y-110971520D01*
X167272600Y-111141520D01*
X166802600Y-112071520D01*
X166232600Y-112781520D01*
X165622600Y-113221520D01*
X165062600Y-113371520D01*
X164482600Y-113201520D01*
X164352600Y-113131520D01*
X163872600Y-112991520D01*
X162692600Y-112721520D01*
X161862600Y-112561520D01*
X160922600Y-112331520D01*
X160112600Y-112091520D01*
X159212600Y-111751520D01*
X157472600Y-110811520D01*
X155462600Y-109661520D01*
X152542600Y-107881520D01*
X151142600Y-107011520D01*
X150142600Y-106271520D01*
X149722600Y-105761520D01*
X149522600Y-105211520D01*
X149452600Y-104561520D01*
X149542600Y-103691520D01*
X149782600Y-102511520D01*
X150172600Y-100841520D01*
X150332600Y-100151520D01*
X150572600Y-98931520D01*
X150672600Y-98411520D01*
X150832600Y-96981520D01*
X150782600Y-95721520D01*
X150562600Y-94561520D01*
X150082600Y-93281520D01*
X149752600Y-92441520D01*
X149592600Y-92051520D01*
X149252600Y-90851520D01*
X149062600Y-89541520D01*
X149012600Y-88001520D01*
X149042600Y-86791520D01*
X149132600Y-86321520D01*
X149152600Y-86261520D01*
G37*
X149152600Y-86261520D02*
X149412600Y-85711520D01*
X149992600Y-84771520D01*
X150502600Y-83841520D01*
X150692600Y-83401520D01*
X151072600Y-82661520D01*
X151352600Y-82391520D01*
X152572600Y-82231520D01*
X154322600Y-81751520D01*
X155062600Y-81411520D01*
X155662600Y-81131520D01*
X155962600Y-81021520D01*
X155972600Y-81831520D01*
X155952600Y-83131520D01*
X155862600Y-85481520D01*
X155772600Y-87271520D01*
X156592600Y-88321520D01*
X157092600Y-89041520D01*
X157312600Y-89581520D01*
X157472600Y-90291520D01*
X157632600Y-92471520D01*
X157542600Y-94501520D01*
X157152600Y-96451520D01*
X156512600Y-98381520D01*
X155442600Y-100661520D01*
X154972600Y-101761520D01*
X154642600Y-102851520D01*
X154612600Y-103831520D01*
X154922600Y-104741520D01*
X155602600Y-105581520D01*
X156622600Y-106401520D01*
X157072600Y-106671520D01*
X158322600Y-107471520D01*
X158932600Y-107901520D01*
X159562600Y-108321520D01*
X160472600Y-108971520D01*
X162002600Y-110121520D01*
X162982600Y-110731520D01*
X163522600Y-110941520D01*
X163792600Y-110961520D01*
X164752600Y-110821520D01*
X165702600Y-110231520D01*
X166192600Y-109701520D01*
X166632600Y-109201520D01*
X166892600Y-108841520D01*
X167472600Y-108061520D01*
X168042600Y-107331520D01*
X168512600Y-106741520D01*
X168942600Y-106221520D01*
X169152600Y-105961520D01*
X169452600Y-105631520D01*
X169532600Y-105551520D01*
X169792600Y-105341520D01*
X169922600Y-105421520D01*
X170122600Y-105761520D01*
X170332600Y-106241520D01*
X170452600Y-106701520D01*
X170432600Y-106921520D01*
X170022600Y-107231520D01*
X169642600Y-107531520D01*
X169182600Y-107881520D01*
X168142600Y-109231520D01*
X167972600Y-109581520D01*
X167582600Y-110401520D01*
X167342600Y-110971520D01*
X167272600Y-111141520D01*
X166802600Y-112071520D01*
X166232600Y-112781520D01*
X165622600Y-113221520D01*
X165062600Y-113371520D01*
X164482600Y-113201520D01*
X164352600Y-113131520D01*
X163872600Y-112991520D01*
X162692600Y-112721520D01*
X161862600Y-112561520D01*
X160922600Y-112331520D01*
X160112600Y-112091520D01*
X159212600Y-111751520D01*
X157472600Y-110811520D01*
X155462600Y-109661520D01*
X152542600Y-107881520D01*
X151142600Y-107011520D01*
X150142600Y-106271520D01*
X149722600Y-105761520D01*
X149522600Y-105211520D01*
X149452600Y-104561520D01*
X149542600Y-103691520D01*
X149782600Y-102511520D01*
X150172600Y-100841520D01*
X150332600Y-100151520D01*
X150572600Y-98931520D01*
X150672600Y-98411520D01*
X150832600Y-96981520D01*
X150782600Y-95721520D01*
X150562600Y-94561520D01*
X150082600Y-93281520D01*
X149752600Y-92441520D01*
X149592600Y-92051520D01*
X149252600Y-90851520D01*
X149062600Y-89541520D01*
X149012600Y-88001520D01*
X149042600Y-86791520D01*
X149132600Y-86321520D01*
X149152600Y-86261520D01*
G36*
X79222600Y-83111520D02*
G01*
X79462600Y-83131520D01*
X79932600Y-83271520D01*
X80782600Y-83481520D01*
X83032600Y-83931520D01*
X83412600Y-84721520D01*
X83932600Y-85661520D01*
X84742600Y-86841520D01*
X85622600Y-87941520D01*
X86592600Y-89031520D01*
X87482600Y-89811520D01*
X88402600Y-90541520D01*
X88162600Y-91301520D01*
X87852600Y-92361520D01*
X87592600Y-93881520D01*
X87452600Y-95561520D01*
X87452600Y-97391520D01*
X87592600Y-99271520D01*
X87652600Y-99571520D01*
X87692600Y-99961520D01*
X87722600Y-100531520D01*
X87682600Y-101011520D01*
X87532600Y-101441520D01*
X87252600Y-101991520D01*
X86962600Y-102451520D01*
X86282600Y-103361520D01*
X85392600Y-104341520D01*
X84842600Y-104921520D01*
X83442600Y-106211520D01*
X82702600Y-106831520D01*
X81882600Y-107401520D01*
X81322600Y-107671520D01*
X80562600Y-107851520D01*
X79122600Y-108101520D01*
X78822600Y-108171520D01*
X77832600Y-108431520D01*
X77512600Y-108521520D01*
X76502600Y-108911520D01*
X76042600Y-109151520D01*
X75612600Y-109311520D01*
X75142600Y-109431520D01*
X74572600Y-109501520D01*
X73752600Y-109541520D01*
X72882600Y-109561520D01*
X71622600Y-109571520D01*
X70112600Y-109591520D01*
X68692600Y-109641520D01*
X67822600Y-109731520D01*
X67282600Y-109841520D01*
X66812600Y-109971520D01*
X66302600Y-110131520D01*
X65612600Y-110371520D01*
X64712600Y-110621520D01*
X64002600Y-110721520D01*
X63342600Y-110661520D01*
X62602600Y-110431520D01*
X61502600Y-109861520D01*
X60422600Y-108941520D01*
X59522600Y-107841520D01*
X59282600Y-107551520D01*
X58692600Y-106651520D01*
X57902600Y-105301520D01*
X57452600Y-104421520D01*
X57322600Y-104051520D01*
X57552600Y-103881520D01*
X58152600Y-103601520D01*
X58702600Y-103201520D01*
X59062600Y-102741520D01*
X59272600Y-102371520D01*
X59432600Y-102211520D01*
X59582600Y-102311520D01*
X59832600Y-102781520D01*
X60112600Y-103551520D01*
X60352600Y-104501520D01*
X60582600Y-105701520D01*
X60872600Y-107131520D01*
X60962600Y-107481520D01*
X61032600Y-107801520D01*
X61182600Y-108251520D01*
X61472600Y-108661520D01*
X62192600Y-109151520D01*
X63172600Y-109451520D01*
X64242600Y-109561520D01*
X65422600Y-109471520D01*
X66512600Y-109161520D01*
X67222600Y-108961520D01*
X68142600Y-108821520D01*
X69402600Y-108691520D01*
X70902600Y-108621520D01*
X72392600Y-108541520D01*
X73742600Y-108441520D01*
X74702600Y-108271520D01*
X75332600Y-108021520D01*
X75842600Y-107641520D01*
X76272600Y-107081520D01*
X76672600Y-106371520D01*
X76982600Y-105731520D01*
X77332600Y-105031520D01*
X77622600Y-104411520D01*
X78072600Y-103441520D01*
X78452600Y-102521520D01*
X78672600Y-102031520D01*
X78892600Y-101371520D01*
X79092600Y-100801520D01*
X79372600Y-99711520D01*
X79552600Y-98551520D01*
X79642600Y-97311520D01*
X79662600Y-96071520D01*
X79652600Y-95571520D01*
X79582600Y-94531520D01*
X79452600Y-93531520D01*
X79202600Y-92031520D01*
X79002600Y-90771520D01*
X78862600Y-89941520D01*
X78672600Y-87681520D01*
X78672600Y-85701520D01*
X78892600Y-84071520D01*
X79092600Y-83361520D01*
X79222600Y-83111520D01*
G37*
X79222600Y-83111520D02*
X79462600Y-83131520D01*
X79932600Y-83271520D01*
X80782600Y-83481520D01*
X83032600Y-83931520D01*
X83412600Y-84721520D01*
X83932600Y-85661520D01*
X84742600Y-86841520D01*
X85622600Y-87941520D01*
X86592600Y-89031520D01*
X87482600Y-89811520D01*
X88402600Y-90541520D01*
X88162600Y-91301520D01*
X87852600Y-92361520D01*
X87592600Y-93881520D01*
X87452600Y-95561520D01*
X87452600Y-97391520D01*
X87592600Y-99271520D01*
X87652600Y-99571520D01*
X87692600Y-99961520D01*
X87722600Y-100531520D01*
X87682600Y-101011520D01*
X87532600Y-101441520D01*
X87252600Y-101991520D01*
X86962600Y-102451520D01*
X86282600Y-103361520D01*
X85392600Y-104341520D01*
X84842600Y-104921520D01*
X83442600Y-106211520D01*
X82702600Y-106831520D01*
X81882600Y-107401520D01*
X81322600Y-107671520D01*
X80562600Y-107851520D01*
X79122600Y-108101520D01*
X78822600Y-108171520D01*
X77832600Y-108431520D01*
X77512600Y-108521520D01*
X76502600Y-108911520D01*
X76042600Y-109151520D01*
X75612600Y-109311520D01*
X75142600Y-109431520D01*
X74572600Y-109501520D01*
X73752600Y-109541520D01*
X72882600Y-109561520D01*
X71622600Y-109571520D01*
X70112600Y-109591520D01*
X68692600Y-109641520D01*
X67822600Y-109731520D01*
X67282600Y-109841520D01*
X66812600Y-109971520D01*
X66302600Y-110131520D01*
X65612600Y-110371520D01*
X64712600Y-110621520D01*
X64002600Y-110721520D01*
X63342600Y-110661520D01*
X62602600Y-110431520D01*
X61502600Y-109861520D01*
X60422600Y-108941520D01*
X59522600Y-107841520D01*
X59282600Y-107551520D01*
X58692600Y-106651520D01*
X57902600Y-105301520D01*
X57452600Y-104421520D01*
X57322600Y-104051520D01*
X57552600Y-103881520D01*
X58152600Y-103601520D01*
X58702600Y-103201520D01*
X59062600Y-102741520D01*
X59272600Y-102371520D01*
X59432600Y-102211520D01*
X59582600Y-102311520D01*
X59832600Y-102781520D01*
X60112600Y-103551520D01*
X60352600Y-104501520D01*
X60582600Y-105701520D01*
X60872600Y-107131520D01*
X60962600Y-107481520D01*
X61032600Y-107801520D01*
X61182600Y-108251520D01*
X61472600Y-108661520D01*
X62192600Y-109151520D01*
X63172600Y-109451520D01*
X64242600Y-109561520D01*
X65422600Y-109471520D01*
X66512600Y-109161520D01*
X67222600Y-108961520D01*
X68142600Y-108821520D01*
X69402600Y-108691520D01*
X70902600Y-108621520D01*
X72392600Y-108541520D01*
X73742600Y-108441520D01*
X74702600Y-108271520D01*
X75332600Y-108021520D01*
X75842600Y-107641520D01*
X76272600Y-107081520D01*
X76672600Y-106371520D01*
X76982600Y-105731520D01*
X77332600Y-105031520D01*
X77622600Y-104411520D01*
X78072600Y-103441520D01*
X78452600Y-102521520D01*
X78672600Y-102031520D01*
X78892600Y-101371520D01*
X79092600Y-100801520D01*
X79372600Y-99711520D01*
X79552600Y-98551520D01*
X79642600Y-97311520D01*
X79662600Y-96071520D01*
X79652600Y-95571520D01*
X79582600Y-94531520D01*
X79452600Y-93531520D01*
X79202600Y-92031520D01*
X79002600Y-90771520D01*
X78862600Y-89941520D01*
X78672600Y-87681520D01*
X78672600Y-85701520D01*
X78892600Y-84071520D01*
X79092600Y-83361520D01*
X79222600Y-83111520D01*
G36*
X152832600Y-77141520D02*
G01*
X153942600Y-76881520D01*
X154752600Y-76611520D01*
X154922600Y-76561520D01*
X155192600Y-76451520D01*
X155582600Y-76301520D01*
X155762600Y-76231520D01*
X156172600Y-76051520D01*
X156552600Y-75881520D01*
X156962600Y-75701520D01*
X156812600Y-76651520D01*
X156752600Y-76961520D01*
X156362600Y-78261520D01*
X155722600Y-79241520D01*
X154802600Y-79961520D01*
X153482600Y-80521520D01*
X152712600Y-80751520D01*
X152102600Y-80901520D01*
X151752600Y-80901520D01*
X151642600Y-80781520D01*
X151672600Y-80461520D01*
X151782600Y-79931520D01*
X151902600Y-79191520D01*
X151962600Y-78791520D01*
X152072600Y-78081520D01*
X152222600Y-77581520D01*
X152452600Y-77291520D01*
X152442600Y-77291520D01*
X152832600Y-77141520D01*
G37*
X152832600Y-77141520D02*
X153942600Y-76881520D01*
X154752600Y-76611520D01*
X154922600Y-76561520D01*
X155192600Y-76451520D01*
X155582600Y-76301520D01*
X155762600Y-76231520D01*
X156172600Y-76051520D01*
X156552600Y-75881520D01*
X156962600Y-75701520D01*
X156812600Y-76651520D01*
X156752600Y-76961520D01*
X156362600Y-78261520D01*
X155722600Y-79241520D01*
X154802600Y-79961520D01*
X153482600Y-80521520D01*
X152712600Y-80751520D01*
X152102600Y-80901520D01*
X151752600Y-80901520D01*
X151642600Y-80781520D01*
X151672600Y-80461520D01*
X151782600Y-79931520D01*
X151902600Y-79191520D01*
X151962600Y-78791520D01*
X152072600Y-78081520D01*
X152222600Y-77581520D01*
X152452600Y-77291520D01*
X152442600Y-77291520D01*
X152832600Y-77141520D01*
G36*
X77352600Y-77831520D02*
G01*
X77872600Y-77951520D01*
X79132600Y-78411520D01*
X80372600Y-78821520D01*
X81672600Y-79151520D01*
X81972600Y-80781520D01*
X82202600Y-82071520D01*
X82222600Y-82131520D01*
X82182600Y-82191520D01*
X81942600Y-82261520D01*
X81412600Y-82211520D01*
X80712600Y-82031520D01*
X79972600Y-81731520D01*
X79012600Y-81111520D01*
X78102600Y-80081520D01*
X77572600Y-78851520D01*
X77352600Y-77831520D01*
G37*
X77352600Y-77831520D02*
X77872600Y-77951520D01*
X79132600Y-78411520D01*
X80372600Y-78821520D01*
X81672600Y-79151520D01*
X81972600Y-80781520D01*
X82202600Y-82071520D01*
X82222600Y-82131520D01*
X82182600Y-82191520D01*
X81942600Y-82261520D01*
X81412600Y-82211520D01*
X80712600Y-82031520D01*
X79972600Y-81731520D01*
X79012600Y-81111520D01*
X78102600Y-80081520D01*
X77572600Y-78851520D01*
X77352600Y-77831520D01*
G36*
X88177600Y-54361520D02*
G01*
X88330100Y-55051520D01*
X88632600Y-57291520D01*
X88912600Y-59061520D01*
X89162600Y-60381520D01*
X89472600Y-61671520D01*
X88822600Y-62131520D01*
X88162600Y-62671520D01*
X87482600Y-63331520D01*
X87272600Y-63531520D01*
X86912600Y-63931520D01*
X86502600Y-64371520D01*
X85772600Y-65231520D01*
X85382600Y-65701520D01*
X84852600Y-66391520D01*
X84132600Y-67441520D01*
X83372600Y-69011520D01*
X82942600Y-70211520D01*
X82682600Y-70861520D01*
X82232600Y-72651520D01*
X82122600Y-73121520D01*
X82082600Y-73471520D01*
X81872600Y-74811520D01*
X81792600Y-75391520D01*
X81662600Y-76801520D01*
X81652600Y-76951520D01*
X81592600Y-77571520D01*
X81412600Y-77641520D01*
X81112600Y-77591520D01*
X80882600Y-77431520D01*
X80862600Y-77371520D01*
X80852600Y-76901520D01*
X80902600Y-76061520D01*
X80982600Y-75241520D01*
X81082600Y-74421520D01*
X81122600Y-74141520D01*
X81242600Y-73331520D01*
X81402600Y-72491520D01*
X81552600Y-71921520D01*
X81972600Y-70681520D01*
X82432600Y-69381520D01*
X82652600Y-68961520D01*
X82912600Y-68481520D01*
X83382600Y-67591520D01*
X83682600Y-67021520D01*
X84412600Y-66041520D01*
X85252600Y-64911520D01*
X86412600Y-63761520D01*
X87152600Y-63031520D01*
X87732600Y-62511520D01*
X88352600Y-61831520D01*
X88512600Y-61511520D01*
X88502600Y-61451520D01*
X88222600Y-61111520D01*
X87522600Y-60771520D01*
X86472600Y-60461520D01*
X84842600Y-60111520D01*
X84272600Y-60001520D01*
X83742600Y-59831520D01*
X83572600Y-59731520D01*
X83602600Y-59541520D01*
X83782600Y-59041520D01*
X84122600Y-58271520D01*
X84842600Y-56921520D01*
X85142600Y-56491520D01*
X85292600Y-56321520D01*
X85752600Y-55951520D01*
X86442600Y-55441520D01*
X87132600Y-54961520D01*
X87892600Y-54491520D01*
X88177600Y-54361520D01*
G37*
X88177600Y-54361520D02*
X88330100Y-55051520D01*
X88632600Y-57291520D01*
X88912600Y-59061520D01*
X89162600Y-60381520D01*
X89472600Y-61671520D01*
X88822600Y-62131520D01*
X88162600Y-62671520D01*
X87482600Y-63331520D01*
X87272600Y-63531520D01*
X86912600Y-63931520D01*
X86502600Y-64371520D01*
X85772600Y-65231520D01*
X85382600Y-65701520D01*
X84852600Y-66391520D01*
X84132600Y-67441520D01*
X83372600Y-69011520D01*
X82942600Y-70211520D01*
X82682600Y-70861520D01*
X82232600Y-72651520D01*
X82122600Y-73121520D01*
X82082600Y-73471520D01*
X81872600Y-74811520D01*
X81792600Y-75391520D01*
X81662600Y-76801520D01*
X81652600Y-76951520D01*
X81592600Y-77571520D01*
X81412600Y-77641520D01*
X81112600Y-77591520D01*
X80882600Y-77431520D01*
X80862600Y-77371520D01*
X80852600Y-76901520D01*
X80902600Y-76061520D01*
X80982600Y-75241520D01*
X81082600Y-74421520D01*
X81122600Y-74141520D01*
X81242600Y-73331520D01*
X81402600Y-72491520D01*
X81552600Y-71921520D01*
X81972600Y-70681520D01*
X82432600Y-69381520D01*
X82652600Y-68961520D01*
X82912600Y-68481520D01*
X83382600Y-67591520D01*
X83682600Y-67021520D01*
X84412600Y-66041520D01*
X85252600Y-64911520D01*
X86412600Y-63761520D01*
X87152600Y-63031520D01*
X87732600Y-62511520D01*
X88352600Y-61831520D01*
X88512600Y-61511520D01*
X88502600Y-61451520D01*
X88222600Y-61111520D01*
X87522600Y-60771520D01*
X86472600Y-60461520D01*
X84842600Y-60111520D01*
X84272600Y-60001520D01*
X83742600Y-59831520D01*
X83572600Y-59731520D01*
X83602600Y-59541520D01*
X83782600Y-59041520D01*
X84122600Y-58271520D01*
X84842600Y-56921520D01*
X85142600Y-56491520D01*
X85292600Y-56321520D01*
X85752600Y-55951520D01*
X86442600Y-55441520D01*
X87132600Y-54961520D01*
X87892600Y-54491520D01*
X88177600Y-54361520D01*
G36*
X142737600Y-59501520D02*
G01*
X142907600Y-58761520D01*
X143552600Y-56971520D01*
X143872600Y-56111520D01*
X144122600Y-55471520D01*
X144382600Y-54791520D01*
X144662600Y-54081520D01*
X144772600Y-53801520D01*
X144992600Y-53261520D01*
X145202600Y-52761520D01*
X145452600Y-52301520D01*
X145802600Y-52531520D01*
X146502600Y-53001520D01*
X147162600Y-53451520D01*
X148082600Y-54141520D01*
X148442600Y-54411520D01*
X149252600Y-55211520D01*
X149852600Y-56081520D01*
X150232600Y-56951520D01*
X150362600Y-57311520D01*
X150632600Y-58081520D01*
X149902600Y-58211520D01*
X149082600Y-58361520D01*
X148012600Y-58561520D01*
X147252600Y-58701520D01*
X145992600Y-58981520D01*
X145162600Y-59261520D01*
X144652600Y-59511520D01*
X144482600Y-59801520D01*
X144642600Y-60181520D01*
X145182600Y-60731520D01*
X145522600Y-60991520D01*
X146312600Y-61631520D01*
X147012600Y-62221520D01*
X148542600Y-63781520D01*
X148862600Y-64121520D01*
X149332600Y-64791520D01*
X150332600Y-66201520D01*
X150442600Y-66351520D01*
X151012600Y-67531520D01*
X151672600Y-68901520D01*
X152052600Y-69931520D01*
X152412600Y-71131520D01*
X152732600Y-72401520D01*
X152902600Y-73091520D01*
X152972600Y-73501520D01*
X153082600Y-74151520D01*
X153182600Y-74901520D01*
X153192600Y-75461520D01*
X153082600Y-75651520D01*
X152982600Y-75661520D01*
X152612600Y-75761520D01*
X152502600Y-75791520D01*
X152342600Y-75681520D01*
X152232600Y-75271520D01*
X152062600Y-74121520D01*
X151822600Y-72621520D01*
X151682600Y-72131520D01*
X151262600Y-70691520D01*
X151062600Y-69951520D01*
X149952600Y-67401520D01*
X149032600Y-65931520D01*
X148442600Y-64971520D01*
X147602600Y-63961520D01*
X146822600Y-63031520D01*
X144962600Y-61351520D01*
X143812600Y-60481520D01*
X143062600Y-59951520D01*
X142742600Y-59701520D01*
X142737600Y-59501520D01*
G37*
X142737600Y-59501520D02*
X142907600Y-58761520D01*
X143552600Y-56971520D01*
X143872600Y-56111520D01*
X144122600Y-55471520D01*
X144382600Y-54791520D01*
X144662600Y-54081520D01*
X144772600Y-53801520D01*
X144992600Y-53261520D01*
X145202600Y-52761520D01*
X145452600Y-52301520D01*
X145802600Y-52531520D01*
X146502600Y-53001520D01*
X147162600Y-53451520D01*
X148082600Y-54141520D01*
X148442600Y-54411520D01*
X149252600Y-55211520D01*
X149852600Y-56081520D01*
X150232600Y-56951520D01*
X150362600Y-57311520D01*
X150632600Y-58081520D01*
X149902600Y-58211520D01*
X149082600Y-58361520D01*
X148012600Y-58561520D01*
X147252600Y-58701520D01*
X145992600Y-58981520D01*
X145162600Y-59261520D01*
X144652600Y-59511520D01*
X144482600Y-59801520D01*
X144642600Y-60181520D01*
X145182600Y-60731520D01*
X145522600Y-60991520D01*
X146312600Y-61631520D01*
X147012600Y-62221520D01*
X148542600Y-63781520D01*
X148862600Y-64121520D01*
X149332600Y-64791520D01*
X150332600Y-66201520D01*
X150442600Y-66351520D01*
X151012600Y-67531520D01*
X151672600Y-68901520D01*
X152052600Y-69931520D01*
X152412600Y-71131520D01*
X152732600Y-72401520D01*
X152902600Y-73091520D01*
X152972600Y-73501520D01*
X153082600Y-74151520D01*
X153182600Y-74901520D01*
X153192600Y-75461520D01*
X153082600Y-75651520D01*
X152982600Y-75661520D01*
X152612600Y-75761520D01*
X152502600Y-75791520D01*
X152342600Y-75681520D01*
X152232600Y-75271520D01*
X152062600Y-74121520D01*
X151822600Y-72621520D01*
X151682600Y-72131520D01*
X151262600Y-70691520D01*
X151062600Y-69951520D01*
X149952600Y-67401520D01*
X149032600Y-65931520D01*
X148442600Y-64971520D01*
X147602600Y-63961520D01*
X146822600Y-63031520D01*
X144962600Y-61351520D01*
X143812600Y-60481520D01*
X143062600Y-59951520D01*
X142742600Y-59701520D01*
X142737600Y-59501520D01*
G36*
X115432600Y-40101520D02*
G01*
X120867600Y-40321520D01*
X123317600Y-40541520D01*
X125347600Y-40916520D01*
X128677600Y-42006520D01*
X134532600Y-44261520D01*
X136612600Y-45121520D01*
X138302600Y-45916520D01*
X139482600Y-46766520D01*
X140222600Y-47491520D01*
X142162600Y-49411520D01*
X143562600Y-50831520D01*
X144232600Y-51521520D01*
X143982600Y-52161520D01*
X143492600Y-53431520D01*
X142932600Y-54871520D01*
X142452600Y-56121520D01*
X142042600Y-57161520D01*
X141832600Y-57691520D01*
X141522600Y-58441520D01*
X141232600Y-59051520D01*
X140592600Y-58811520D01*
X139392600Y-58341520D01*
X137582600Y-57811520D01*
X135542600Y-57351520D01*
X133132600Y-56931520D01*
X130542600Y-56591520D01*
X127542600Y-56301520D01*
X125022600Y-56131520D01*
X121312600Y-55981520D01*
X118622600Y-55941520D01*
X116092600Y-55941520D01*
X116092600Y-54231520D01*
X116082600Y-51781520D01*
X116062600Y-48891520D01*
X116042600Y-47061520D01*
X115992600Y-45941520D01*
X115922600Y-44331520D01*
X115732600Y-42191520D01*
X115462600Y-40291520D01*
X115432600Y-40101520D01*
G37*
X115432600Y-40101520D02*
X120867600Y-40321520D01*
X123317600Y-40541520D01*
X125347600Y-40916520D01*
X128677600Y-42006520D01*
X134532600Y-44261520D01*
X136612600Y-45121520D01*
X138302600Y-45916520D01*
X139482600Y-46766520D01*
X140222600Y-47491520D01*
X142162600Y-49411520D01*
X143562600Y-50831520D01*
X144232600Y-51521520D01*
X143982600Y-52161520D01*
X143492600Y-53431520D01*
X142932600Y-54871520D01*
X142452600Y-56121520D01*
X142042600Y-57161520D01*
X141832600Y-57691520D01*
X141522600Y-58441520D01*
X141232600Y-59051520D01*
X140592600Y-58811520D01*
X139392600Y-58341520D01*
X137582600Y-57811520D01*
X135542600Y-57351520D01*
X133132600Y-56931520D01*
X130542600Y-56591520D01*
X127542600Y-56301520D01*
X125022600Y-56131520D01*
X121312600Y-55981520D01*
X118622600Y-55941520D01*
X116092600Y-55941520D01*
X116092600Y-54231520D01*
X116082600Y-51781520D01*
X116062600Y-48891520D01*
X116042600Y-47061520D01*
X115992600Y-45941520D01*
X115922600Y-44331520D01*
X115732600Y-42191520D01*
X115462600Y-40291520D01*
X115432600Y-40101520D01*
G36*
X89672600Y-53451520D02*
G01*
X89862600Y-52821520D01*
X90272600Y-52371520D01*
X90952600Y-51921520D01*
X91932600Y-51401520D01*
X92502600Y-51091520D01*
X93202600Y-50691520D01*
X93732600Y-50241520D01*
X94292600Y-49641520D01*
X95142600Y-48551520D01*
X95922600Y-47531520D01*
X96622600Y-46781520D01*
X97242600Y-46221520D01*
X98052600Y-45671520D01*
X99082600Y-45071520D01*
X100392600Y-44371520D01*
X101902600Y-43611520D01*
X102862600Y-43221520D01*
X105762600Y-42281520D01*
X108562600Y-41541520D01*
X110392600Y-41051520D01*
X112852600Y-40471520D01*
X113722600Y-40361520D01*
X114002600Y-40451520D01*
X114142600Y-40721520D01*
X114402600Y-42131520D01*
X114512600Y-43611520D01*
X114602600Y-46051520D01*
X114672600Y-48571520D01*
X114732600Y-50781520D01*
X114762600Y-51831520D01*
X114782600Y-53611520D01*
X114822600Y-55921520D01*
X114022600Y-55971520D01*
X112502600Y-56051520D01*
X109942600Y-56211520D01*
X106592600Y-56571520D01*
X104542600Y-56861520D01*
X103452600Y-57041520D01*
X101372600Y-57421520D01*
X100792600Y-57531520D01*
X98562600Y-58021520D01*
X98012600Y-58141520D01*
X95652600Y-58811520D01*
X93722600Y-59481520D01*
X92312600Y-60101520D01*
X91792600Y-60351520D01*
X91102600Y-60691520D01*
X90822600Y-60791520D01*
X90642600Y-60751520D01*
X90562600Y-60551520D01*
X90262600Y-59071520D01*
X90092600Y-58041520D01*
X89782600Y-55801520D01*
X89632600Y-54021520D01*
X89652600Y-53731520D01*
X89672600Y-53451520D01*
G37*
X89672600Y-53451520D02*
X89862600Y-52821520D01*
X90272600Y-52371520D01*
X90952600Y-51921520D01*
X91932600Y-51401520D01*
X92502600Y-51091520D01*
X93202600Y-50691520D01*
X93732600Y-50241520D01*
X94292600Y-49641520D01*
X95142600Y-48551520D01*
X95922600Y-47531520D01*
X96622600Y-46781520D01*
X97242600Y-46221520D01*
X98052600Y-45671520D01*
X99082600Y-45071520D01*
X100392600Y-44371520D01*
X101902600Y-43611520D01*
X102862600Y-43221520D01*
X105762600Y-42281520D01*
X108562600Y-41541520D01*
X110392600Y-41051520D01*
X112852600Y-40471520D01*
X113722600Y-40361520D01*
X114002600Y-40451520D01*
X114142600Y-40721520D01*
X114402600Y-42131520D01*
X114512600Y-43611520D01*
X114602600Y-46051520D01*
X114672600Y-48571520D01*
X114732600Y-50781520D01*
X114762600Y-51831520D01*
X114782600Y-53611520D01*
X114822600Y-55921520D01*
X114022600Y-55971520D01*
X112502600Y-56051520D01*
X109942600Y-56211520D01*
X106592600Y-56571520D01*
X104542600Y-56861520D01*
X103452600Y-57041520D01*
X101372600Y-57421520D01*
X100792600Y-57531520D01*
X98562600Y-58021520D01*
X98012600Y-58141520D01*
X95652600Y-58811520D01*
X93722600Y-59481520D01*
X92312600Y-60101520D01*
X91792600Y-60351520D01*
X91102600Y-60691520D01*
X90822600Y-60791520D01*
X90642600Y-60751520D01*
X90562600Y-60551520D01*
X90262600Y-59071520D01*
X90092600Y-58041520D01*
X89782600Y-55801520D01*
X89632600Y-54021520D01*
X89652600Y-53731520D01*
X89672600Y-53451520D01*
G36*
X86292600Y-61811520D02*
G01*
X85732600Y-62431520D01*
X84582600Y-63671520D01*
X83872600Y-64471520D01*
X83362600Y-65091520D01*
X83052600Y-65491520D01*
X82912600Y-65661520D01*
X82632600Y-65971520D01*
X82142600Y-66151520D01*
X81782600Y-66221520D01*
X81102600Y-66571520D01*
X80562600Y-66981520D01*
X80382600Y-67121520D01*
X79802600Y-67751520D01*
X79532600Y-68321520D01*
X79372600Y-69281520D01*
X79442600Y-70271520D01*
X79752600Y-71221520D01*
X79882600Y-71491520D01*
X80012600Y-71951520D01*
X80012600Y-72261520D01*
X80012600Y-72511520D01*
X80002600Y-72591520D01*
X79982600Y-72741520D01*
X79972600Y-72811520D01*
X79962600Y-72891520D01*
X79942600Y-73031520D01*
X79932600Y-73101520D01*
X79922600Y-73181520D01*
X79892600Y-73391520D01*
X79802600Y-73931520D01*
X79702600Y-74771520D01*
X79692600Y-74991520D01*
X79652600Y-75451520D01*
X79642600Y-75811520D01*
X79622600Y-76161520D01*
X79532600Y-76641520D01*
X79472600Y-76781520D01*
X79322600Y-76931520D01*
X79032600Y-76881520D01*
X78492600Y-76611520D01*
X77672600Y-76031520D01*
X76842600Y-75221520D01*
X75872600Y-74031520D01*
X75192600Y-72791520D01*
X74882600Y-71981520D01*
X74732600Y-71291520D01*
X74652600Y-70241520D01*
X74652600Y-68931520D01*
X74672600Y-68201520D01*
X74742600Y-67541520D01*
X74772600Y-67371520D01*
X74962600Y-66701520D01*
X75262600Y-65981520D01*
X75692600Y-65201520D01*
X76552600Y-64021520D01*
X77542600Y-63041520D01*
X78522600Y-62361520D01*
X78962600Y-62151520D01*
X80302600Y-61761520D01*
X81902600Y-61521520D01*
X83592600Y-61491520D01*
X85292600Y-61651520D01*
X85812600Y-61721520D01*
X86292600Y-61811520D01*
G37*
X86292600Y-61811520D02*
X85732600Y-62431520D01*
X84582600Y-63671520D01*
X83872600Y-64471520D01*
X83362600Y-65091520D01*
X83052600Y-65491520D01*
X82912600Y-65661520D01*
X82632600Y-65971520D01*
X82142600Y-66151520D01*
X81782600Y-66221520D01*
X81102600Y-66571520D01*
X80562600Y-66981520D01*
X80382600Y-67121520D01*
X79802600Y-67751520D01*
X79532600Y-68321520D01*
X79372600Y-69281520D01*
X79442600Y-70271520D01*
X79752600Y-71221520D01*
X79882600Y-71491520D01*
X80012600Y-71951520D01*
X80012600Y-72261520D01*
X80012600Y-72511520D01*
X80002600Y-72591520D01*
X79982600Y-72741520D01*
X79972600Y-72811520D01*
X79962600Y-72891520D01*
X79942600Y-73031520D01*
X79932600Y-73101520D01*
X79922600Y-73181520D01*
X79892600Y-73391520D01*
X79802600Y-73931520D01*
X79702600Y-74771520D01*
X79692600Y-74991520D01*
X79652600Y-75451520D01*
X79642600Y-75811520D01*
X79622600Y-76161520D01*
X79532600Y-76641520D01*
X79472600Y-76781520D01*
X79322600Y-76931520D01*
X79032600Y-76881520D01*
X78492600Y-76611520D01*
X77672600Y-76031520D01*
X76842600Y-75221520D01*
X75872600Y-74031520D01*
X75192600Y-72791520D01*
X74882600Y-71981520D01*
X74732600Y-71291520D01*
X74652600Y-70241520D01*
X74652600Y-68931520D01*
X74672600Y-68201520D01*
X74742600Y-67541520D01*
X74772600Y-67371520D01*
X74962600Y-66701520D01*
X75262600Y-65981520D01*
X75692600Y-65201520D01*
X76552600Y-64021520D01*
X77542600Y-63041520D01*
X78522600Y-62361520D01*
X78962600Y-62151520D01*
X80302600Y-61761520D01*
X81902600Y-61521520D01*
X83592600Y-61491520D01*
X85292600Y-61651520D01*
X85812600Y-61721520D01*
X86292600Y-61811520D01*
G36*
X147102600Y-60291520D02*
G01*
X148632600Y-59961520D01*
X150932600Y-59681520D01*
X152942600Y-59791520D01*
X154812600Y-60231520D01*
X156312600Y-61051520D01*
X157612600Y-62221520D01*
X158102600Y-62841520D01*
X158862600Y-64161520D01*
X159392600Y-65731520D01*
X159572600Y-67641520D01*
X159532600Y-68751520D01*
X159182600Y-70491520D01*
X158452600Y-72101520D01*
X157382600Y-73491520D01*
X156432600Y-74221520D01*
X156012600Y-74541520D01*
X155412600Y-74881520D01*
X154752600Y-75201520D01*
X154632600Y-75141520D01*
X154572600Y-74941520D01*
X154472600Y-74551520D01*
X154302600Y-73471520D01*
X154032600Y-71871520D01*
X153902600Y-71331520D01*
X153762600Y-70771520D01*
X153712600Y-70581520D01*
X153752600Y-70121520D01*
X154022600Y-69611520D01*
X154222600Y-69201520D01*
X154432600Y-68791520D01*
X154552600Y-68131520D01*
X154622600Y-67731520D01*
X154492600Y-66681520D01*
X154162600Y-65911520D01*
X154072600Y-65701520D01*
X153422600Y-64911520D01*
X152562600Y-64371520D01*
X152212600Y-64301520D01*
X151552600Y-64171520D01*
X151542600Y-64171520D01*
X151512600Y-64171520D01*
X151412600Y-64161520D01*
X151062600Y-64111520D01*
X150712600Y-63941520D01*
X150282600Y-63611520D01*
X149802600Y-63151520D01*
X149122600Y-62461520D01*
X148712600Y-62041520D01*
X148452600Y-61771520D01*
X148232600Y-61541520D01*
X147992600Y-61291520D01*
X147762600Y-61041520D01*
X147412600Y-60681520D01*
X147212600Y-60461520D01*
X147072600Y-60301520D01*
X147102600Y-60291520D01*
G37*
X147102600Y-60291520D02*
X148632600Y-59961520D01*
X150932600Y-59681520D01*
X152942600Y-59791520D01*
X154812600Y-60231520D01*
X156312600Y-61051520D01*
X157612600Y-62221520D01*
X158102600Y-62841520D01*
X158862600Y-64161520D01*
X159392600Y-65731520D01*
X159572600Y-67641520D01*
X159532600Y-68751520D01*
X159182600Y-70491520D01*
X158452600Y-72101520D01*
X157382600Y-73491520D01*
X156432600Y-74221520D01*
X156012600Y-74541520D01*
X155412600Y-74881520D01*
X154752600Y-75201520D01*
X154632600Y-75141520D01*
X154572600Y-74941520D01*
X154472600Y-74551520D01*
X154302600Y-73471520D01*
X154032600Y-71871520D01*
X153902600Y-71331520D01*
X153762600Y-70771520D01*
X153712600Y-70581520D01*
X153752600Y-70121520D01*
X154022600Y-69611520D01*
X154222600Y-69201520D01*
X154432600Y-68791520D01*
X154552600Y-68131520D01*
X154622600Y-67731520D01*
X154492600Y-66681520D01*
X154162600Y-65911520D01*
X154072600Y-65701520D01*
X153422600Y-64911520D01*
X152562600Y-64371520D01*
X152212600Y-64301520D01*
X151552600Y-64171520D01*
X151542600Y-64171520D01*
X151512600Y-64171520D01*
X151412600Y-64161520D01*
X151062600Y-64111520D01*
X150712600Y-63941520D01*
X150282600Y-63611520D01*
X149802600Y-63151520D01*
X149122600Y-62461520D01*
X148712600Y-62041520D01*
X148452600Y-61771520D01*
X148232600Y-61541520D01*
X147992600Y-61291520D01*
X147762600Y-61041520D01*
X147412600Y-60681520D01*
X147212600Y-60461520D01*
X147072600Y-60301520D01*
X147102600Y-60291520D01*
G36*
X112082600Y-85371520D02*
G01*
X113242600Y-86041520D01*
X114492600Y-86601520D01*
X115872600Y-86901520D01*
X117202600Y-87041520D01*
X118652600Y-86961520D01*
X119752600Y-86721520D01*
X120762600Y-86341520D01*
X121152600Y-86181520D01*
X121712600Y-85921520D01*
X122342600Y-85471520D01*
X122482600Y-85351520D01*
X122762600Y-85221520D01*
X123092600Y-85261520D01*
X123682600Y-85481520D01*
X124522600Y-85951520D01*
X125302600Y-86661520D01*
X125902600Y-87421520D01*
X126262600Y-88351520D01*
X126292600Y-88731520D01*
X126212600Y-89691520D01*
X125842600Y-90501520D01*
X125272600Y-91021520D01*
X124422600Y-91271520D01*
X123212600Y-91321520D01*
X121802600Y-91101520D01*
X118912600Y-90211520D01*
X117372600Y-90021520D01*
X115902600Y-90211520D01*
X113602600Y-91101520D01*
X112602600Y-91361520D01*
X111412600Y-91481520D01*
X110672600Y-91511520D01*
X109832600Y-91441520D01*
X109192600Y-91211520D01*
X108802600Y-90781520D01*
X108512600Y-90091520D01*
X108382600Y-89411520D01*
X108492600Y-88331520D01*
X108992600Y-87301520D01*
X109832600Y-86411520D01*
X110982600Y-85681520D01*
X111802600Y-85351520D01*
X112082600Y-85371520D01*
G37*
X112082600Y-85371520D02*
X113242600Y-86041520D01*
X114492600Y-86601520D01*
X115872600Y-86901520D01*
X117202600Y-87041520D01*
X118652600Y-86961520D01*
X119752600Y-86721520D01*
X120762600Y-86341520D01*
X121152600Y-86181520D01*
X121712600Y-85921520D01*
X122342600Y-85471520D01*
X122482600Y-85351520D01*
X122762600Y-85221520D01*
X123092600Y-85261520D01*
X123682600Y-85481520D01*
X124522600Y-85951520D01*
X125302600Y-86661520D01*
X125902600Y-87421520D01*
X126262600Y-88351520D01*
X126292600Y-88731520D01*
X126212600Y-89691520D01*
X125842600Y-90501520D01*
X125272600Y-91021520D01*
X124422600Y-91271520D01*
X123212600Y-91321520D01*
X121802600Y-91101520D01*
X118912600Y-90211520D01*
X117372600Y-90021520D01*
X115902600Y-90211520D01*
X113602600Y-91101520D01*
X112602600Y-91361520D01*
X111412600Y-91481520D01*
X110672600Y-91511520D01*
X109832600Y-91441520D01*
X109192600Y-91211520D01*
X108802600Y-90781520D01*
X108512600Y-90091520D01*
X108382600Y-89411520D01*
X108492600Y-88331520D01*
X108992600Y-87301520D01*
X109832600Y-86411520D01*
X110982600Y-85681520D01*
X111802600Y-85351520D01*
X112082600Y-85371520D01*
G36*
X156982600Y-117201520D02*
G01*
X157952600Y-117431520D01*
X159652600Y-117881520D01*
X161362600Y-118411520D01*
X162572600Y-118941520D01*
X163362600Y-119451520D01*
X163802600Y-119991520D01*
X163972600Y-120731520D01*
X164052600Y-121431520D01*
X164012600Y-121841520D01*
X163892600Y-122031520D01*
X163322600Y-121681520D01*
X162732600Y-121291520D01*
X162582600Y-121221520D01*
X161952600Y-121011520D01*
X161382600Y-121021520D01*
X161082600Y-121291520D01*
X161072600Y-121391520D01*
X161122600Y-121591520D01*
X161352600Y-121851520D01*
X161912600Y-122291520D01*
X162292600Y-122571520D01*
X162732600Y-122891520D01*
X163132600Y-123181520D01*
X163472600Y-123441520D01*
X162892600Y-123951520D01*
X162292600Y-124321520D01*
X161372600Y-124451520D01*
X160312600Y-124231520D01*
X159212600Y-123671520D01*
X157212600Y-121931520D01*
X157082600Y-119201520D01*
X156982600Y-117201520D01*
G37*
X156982600Y-117201520D02*
X157952600Y-117431520D01*
X159652600Y-117881520D01*
X161362600Y-118411520D01*
X162572600Y-118941520D01*
X163362600Y-119451520D01*
X163802600Y-119991520D01*
X163972600Y-120731520D01*
X164052600Y-121431520D01*
X164012600Y-121841520D01*
X163892600Y-122031520D01*
X163322600Y-121681520D01*
X162732600Y-121291520D01*
X162582600Y-121221520D01*
X161952600Y-121011520D01*
X161382600Y-121021520D01*
X161082600Y-121291520D01*
X161072600Y-121391520D01*
X161122600Y-121591520D01*
X161352600Y-121851520D01*
X161912600Y-122291520D01*
X162292600Y-122571520D01*
X162732600Y-122891520D01*
X163132600Y-123181520D01*
X163472600Y-123441520D01*
X162892600Y-123951520D01*
X162292600Y-124321520D01*
X161372600Y-124451520D01*
X160312600Y-124231520D01*
X159212600Y-123671520D01*
X157212600Y-121931520D01*
X157082600Y-119201520D01*
X156982600Y-117201520D01*
G36*
X148162600Y-172091520D02*
G01*
X148532600Y-172231520D01*
X149142600Y-172681520D01*
X149952600Y-173341520D01*
X150662600Y-174011520D01*
X151312600Y-174781520D01*
X151752600Y-175331520D01*
X152462600Y-176321520D01*
X152652600Y-176591520D01*
X153122600Y-177481520D01*
X153242600Y-177831520D01*
X153422600Y-178421520D01*
X153422600Y-178991520D01*
X153272600Y-179531520D01*
X152932600Y-180261520D01*
X152752600Y-180471520D01*
X152682600Y-180361520D01*
X152522600Y-180101520D01*
X152242600Y-179251520D01*
X151862600Y-178331520D01*
X151422600Y-177511520D01*
X150922600Y-176791520D01*
X150452600Y-176351520D01*
X150042600Y-176221520D01*
X149632600Y-176461520D01*
X149462600Y-176721520D01*
X149502600Y-177021520D01*
X149672600Y-177241520D01*
X150012600Y-177751520D01*
X150312600Y-178201520D01*
X150422600Y-178361520D01*
X150982600Y-179561520D01*
X151172600Y-180571520D01*
X151232600Y-181591520D01*
X149302600Y-181651520D01*
X149062600Y-181631520D01*
X148802600Y-181541520D01*
X148412600Y-181261520D01*
X148012600Y-180891520D01*
X147392600Y-180211520D01*
X146522600Y-179221520D01*
X145862600Y-178461520D01*
X145372600Y-177901520D01*
X144852600Y-177351520D01*
X144342600Y-176851520D01*
X144022600Y-176561520D01*
X143602600Y-176221520D01*
X143162600Y-175921520D01*
X142982600Y-175721520D01*
X143112600Y-175591520D01*
X144292600Y-174761520D01*
X145602600Y-173871520D01*
X146452600Y-173181520D01*
X146782600Y-172921520D01*
X147332600Y-172491520D01*
X147932600Y-172111520D01*
X148162600Y-172091520D01*
G37*
X148162600Y-172091520D02*
X148532600Y-172231520D01*
X149142600Y-172681520D01*
X149952600Y-173341520D01*
X150662600Y-174011520D01*
X151312600Y-174781520D01*
X151752600Y-175331520D01*
X152462600Y-176321520D01*
X152652600Y-176591520D01*
X153122600Y-177481520D01*
X153242600Y-177831520D01*
X153422600Y-178421520D01*
X153422600Y-178991520D01*
X153272600Y-179531520D01*
X152932600Y-180261520D01*
X152752600Y-180471520D01*
X152682600Y-180361520D01*
X152522600Y-180101520D01*
X152242600Y-179251520D01*
X151862600Y-178331520D01*
X151422600Y-177511520D01*
X150922600Y-176791520D01*
X150452600Y-176351520D01*
X150042600Y-176221520D01*
X149632600Y-176461520D01*
X149462600Y-176721520D01*
X149502600Y-177021520D01*
X149672600Y-177241520D01*
X150012600Y-177751520D01*
X150312600Y-178201520D01*
X150422600Y-178361520D01*
X150982600Y-179561520D01*
X151172600Y-180571520D01*
X151232600Y-181591520D01*
X149302600Y-181651520D01*
X149062600Y-181631520D01*
X148802600Y-181541520D01*
X148412600Y-181261520D01*
X148012600Y-180891520D01*
X147392600Y-180211520D01*
X146522600Y-179221520D01*
X145862600Y-178461520D01*
X145372600Y-177901520D01*
X144852600Y-177351520D01*
X144342600Y-176851520D01*
X144022600Y-176561520D01*
X143602600Y-176221520D01*
X143162600Y-175921520D01*
X142982600Y-175721520D01*
X143112600Y-175591520D01*
X144292600Y-174761520D01*
X145602600Y-173871520D01*
X146452600Y-173181520D01*
X146782600Y-172921520D01*
X147332600Y-172491520D01*
X147932600Y-172111520D01*
X148162600Y-172091520D01*
G36*
X89082600Y-173651520D02*
G01*
X89302600Y-173671520D01*
X89712600Y-173851520D01*
X90492600Y-174341520D01*
X91192600Y-174811520D01*
X91592600Y-175101520D01*
X91952600Y-175331520D01*
X92502600Y-175691520D01*
X92962600Y-175971520D01*
X93362600Y-176211520D01*
X94162600Y-176641520D01*
X94542600Y-176851520D01*
X94852600Y-177021520D01*
X94992600Y-177111520D01*
X95152600Y-177251520D01*
X95062600Y-177321520D01*
X94872600Y-177451520D01*
X94352600Y-177691520D01*
X93662600Y-177991520D01*
X93322600Y-178201520D01*
X92872600Y-178461520D01*
X92612600Y-178621520D01*
X92392600Y-178751520D01*
X92032600Y-179011520D01*
X91812600Y-179181520D01*
X91752600Y-179221520D01*
X91162600Y-179641520D01*
X91012600Y-179761520D01*
X90542600Y-180161520D01*
X89822600Y-180771520D01*
X89442600Y-181111520D01*
X88802600Y-181621520D01*
X88432600Y-181871520D01*
X88052600Y-182121520D01*
X87612600Y-182341520D01*
X86862600Y-182511520D01*
X86262600Y-182481520D01*
X85612600Y-182331520D01*
X85172600Y-182191520D01*
X84942600Y-181971520D01*
X84972600Y-181611520D01*
X85172600Y-181081520D01*
X85232600Y-180921520D01*
X85682600Y-180061520D01*
X85862600Y-179721520D01*
X86292600Y-179141520D01*
X86722600Y-178551520D01*
X87042600Y-178131520D01*
X87292600Y-177551520D01*
X87202600Y-177171520D01*
X86862600Y-177061520D01*
X86782600Y-177031520D01*
X86462600Y-177151520D01*
X85942600Y-177571520D01*
X85562600Y-178001520D01*
X85332600Y-178271520D01*
X84812600Y-179001520D01*
X84232600Y-180001520D01*
X83962600Y-180551520D01*
X83922600Y-180661520D01*
X83722600Y-180871520D01*
X83602600Y-180841520D01*
X83432600Y-180561520D01*
X83322600Y-180251520D01*
X83172600Y-179741520D01*
X83242600Y-178931520D01*
X83562600Y-178181520D01*
X83652600Y-177961520D01*
X84242600Y-177061520D01*
X84382600Y-176851520D01*
X84612600Y-176581520D01*
X84912600Y-176301520D01*
X85282600Y-175941520D01*
X85902600Y-175451520D01*
X86462600Y-175021520D01*
X87032600Y-174621520D01*
X87982600Y-174021520D01*
X88692600Y-173691520D01*
X89082600Y-173651520D01*
G37*
X89082600Y-173651520D02*
X89302600Y-173671520D01*
X89712600Y-173851520D01*
X90492600Y-174341520D01*
X91192600Y-174811520D01*
X91592600Y-175101520D01*
X91952600Y-175331520D01*
X92502600Y-175691520D01*
X92962600Y-175971520D01*
X93362600Y-176211520D01*
X94162600Y-176641520D01*
X94542600Y-176851520D01*
X94852600Y-177021520D01*
X94992600Y-177111520D01*
X95152600Y-177251520D01*
X95062600Y-177321520D01*
X94872600Y-177451520D01*
X94352600Y-177691520D01*
X93662600Y-177991520D01*
X93322600Y-178201520D01*
X92872600Y-178461520D01*
X92612600Y-178621520D01*
X92392600Y-178751520D01*
X92032600Y-179011520D01*
X91812600Y-179181520D01*
X91752600Y-179221520D01*
X91162600Y-179641520D01*
X91012600Y-179761520D01*
X90542600Y-180161520D01*
X89822600Y-180771520D01*
X89442600Y-181111520D01*
X88802600Y-181621520D01*
X88432600Y-181871520D01*
X88052600Y-182121520D01*
X87612600Y-182341520D01*
X86862600Y-182511520D01*
X86262600Y-182481520D01*
X85612600Y-182331520D01*
X85172600Y-182191520D01*
X84942600Y-181971520D01*
X84972600Y-181611520D01*
X85172600Y-181081520D01*
X85232600Y-180921520D01*
X85682600Y-180061520D01*
X85862600Y-179721520D01*
X86292600Y-179141520D01*
X86722600Y-178551520D01*
X87042600Y-178131520D01*
X87292600Y-177551520D01*
X87202600Y-177171520D01*
X86862600Y-177061520D01*
X86782600Y-177031520D01*
X86462600Y-177151520D01*
X85942600Y-177571520D01*
X85562600Y-178001520D01*
X85332600Y-178271520D01*
X84812600Y-179001520D01*
X84232600Y-180001520D01*
X83962600Y-180551520D01*
X83922600Y-180661520D01*
X83722600Y-180871520D01*
X83602600Y-180841520D01*
X83432600Y-180561520D01*
X83322600Y-180251520D01*
X83172600Y-179741520D01*
X83242600Y-178931520D01*
X83562600Y-178181520D01*
X83652600Y-177961520D01*
X84242600Y-177061520D01*
X84382600Y-176851520D01*
X84612600Y-176581520D01*
X84912600Y-176301520D01*
X85282600Y-175941520D01*
X85902600Y-175451520D01*
X86462600Y-175021520D01*
X87032600Y-174621520D01*
X87982600Y-174021520D01*
X88692600Y-173691520D01*
X89082600Y-173651520D01*
G36*
X80092600Y-118071520D02*
G01*
X80102600Y-122391520D01*
X79562600Y-122861520D01*
X78402600Y-123801520D01*
X77652600Y-124361520D01*
X77132600Y-124711520D01*
X76722600Y-124951520D01*
X76172600Y-125231520D01*
X75172600Y-125511520D01*
X74362600Y-125441520D01*
X73732600Y-125061520D01*
X73382600Y-124721520D01*
X73282600Y-124461520D01*
X73422600Y-124151520D01*
X73942600Y-123721520D01*
X74502600Y-123351520D01*
X74802600Y-123171520D01*
X75232600Y-122781520D01*
X75332600Y-122381520D01*
X75262600Y-122141520D01*
X74932600Y-121891520D01*
X74922600Y-121891520D01*
X74352600Y-121991520D01*
X73812600Y-122301520D01*
X73502600Y-122481520D01*
X73172600Y-122691520D01*
X72712600Y-122931520D01*
X72482600Y-122971520D01*
X72442600Y-122921520D01*
X72372600Y-122471520D01*
X72442600Y-121801520D01*
X72652600Y-121091520D01*
X72942600Y-120641520D01*
X73552600Y-120151520D01*
X74482600Y-119661520D01*
X75512600Y-119281520D01*
X75792600Y-119181520D01*
X77352600Y-118711520D01*
X79302600Y-118251520D01*
X80092600Y-118071520D01*
G37*
X80092600Y-118071520D02*
X80102600Y-122391520D01*
X79562600Y-122861520D01*
X78402600Y-123801520D01*
X77652600Y-124361520D01*
X77132600Y-124711520D01*
X76722600Y-124951520D01*
X76172600Y-125231520D01*
X75172600Y-125511520D01*
X74362600Y-125441520D01*
X73732600Y-125061520D01*
X73382600Y-124721520D01*
X73282600Y-124461520D01*
X73422600Y-124151520D01*
X73942600Y-123721520D01*
X74502600Y-123351520D01*
X74802600Y-123171520D01*
X75232600Y-122781520D01*
X75332600Y-122381520D01*
X75262600Y-122141520D01*
X74932600Y-121891520D01*
X74922600Y-121891520D01*
X74352600Y-121991520D01*
X73812600Y-122301520D01*
X73502600Y-122481520D01*
X73172600Y-122691520D01*
X72712600Y-122931520D01*
X72482600Y-122971520D01*
X72442600Y-122921520D01*
X72372600Y-122471520D01*
X72442600Y-121801520D01*
X72652600Y-121091520D01*
X72942600Y-120641520D01*
X73552600Y-120151520D01*
X74482600Y-119661520D01*
X75512600Y-119281520D01*
X75792600Y-119181520D01*
X77352600Y-118711520D01*
X79302600Y-118251520D01*
X80092600Y-118071520D01*
G36*
X109737142Y-169018242D02*
G01*
X109885101Y-169079529D01*
X110018255Y-169168499D01*
X110131501Y-169281745D01*
X110220471Y-169414899D01*
X110281758Y-169562858D01*
X110313000Y-169719925D01*
X110313000Y-169880075D01*
X110281758Y-170037142D01*
X110220471Y-170185101D01*
X110131501Y-170318255D01*
X110018255Y-170431501D01*
X109885101Y-170520471D01*
X109737142Y-170581758D01*
X109580075Y-170613000D01*
X109419925Y-170613000D01*
X109262858Y-170581758D01*
X109114899Y-170520471D01*
X108981745Y-170431501D01*
X108868499Y-170318255D01*
X108779529Y-170185101D01*
X108718242Y-170037142D01*
X108687000Y-169880075D01*
X108687000Y-169719925D01*
X108718242Y-169562858D01*
X108779529Y-169414899D01*
X108868499Y-169281745D01*
X108981745Y-169168499D01*
X109114899Y-169079529D01*
X109262858Y-169018242D01*
X109419925Y-168987000D01*
X109580075Y-168987000D01*
X109737142Y-169018242D01*
X109737142Y-169018242D01*
G37*
G36*
X124977142Y-169018242D02*
G01*
X125125101Y-169079529D01*
X125258255Y-169168499D01*
X125371501Y-169281745D01*
X125460471Y-169414899D01*
X125521758Y-169562858D01*
X125553000Y-169719925D01*
X125553000Y-169880075D01*
X125521758Y-170037142D01*
X125460471Y-170185101D01*
X125371501Y-170318255D01*
X125258255Y-170431501D01*
X125125101Y-170520471D01*
X124977142Y-170581758D01*
X124820075Y-170613000D01*
X124659925Y-170613000D01*
X124502858Y-170581758D01*
X124354899Y-170520471D01*
X124221745Y-170431501D01*
X124108499Y-170318255D01*
X124019529Y-170185101D01*
X123958242Y-170037142D01*
X123927000Y-169880075D01*
X123927000Y-169719925D01*
X123958242Y-169562858D01*
X124019529Y-169414899D01*
X124108499Y-169281745D01*
X124221745Y-169168499D01*
X124354899Y-169079529D01*
X124502858Y-169018242D01*
X124659925Y-168987000D01*
X124820075Y-168987000D01*
X124977142Y-169018242D01*
X124977142Y-169018242D01*
G37*
G36*
X127517142Y-169018242D02*
G01*
X127665101Y-169079529D01*
X127798255Y-169168499D01*
X127911501Y-169281745D01*
X128000471Y-169414899D01*
X128061758Y-169562858D01*
X128093000Y-169719925D01*
X128093000Y-169880075D01*
X128061758Y-170037142D01*
X128000471Y-170185101D01*
X127911501Y-170318255D01*
X127798255Y-170431501D01*
X127665101Y-170520471D01*
X127517142Y-170581758D01*
X127360075Y-170613000D01*
X127199925Y-170613000D01*
X127042858Y-170581758D01*
X126894899Y-170520471D01*
X126761745Y-170431501D01*
X126648499Y-170318255D01*
X126559529Y-170185101D01*
X126498242Y-170037142D01*
X126467000Y-169880075D01*
X126467000Y-169719925D01*
X126498242Y-169562858D01*
X126559529Y-169414899D01*
X126648499Y-169281745D01*
X126761745Y-169168499D01*
X126894899Y-169079529D01*
X127042858Y-169018242D01*
X127199925Y-168987000D01*
X127360075Y-168987000D01*
X127517142Y-169018242D01*
X127517142Y-169018242D01*
G37*
G36*
X122437142Y-169018242D02*
G01*
X122585101Y-169079529D01*
X122718255Y-169168499D01*
X122831501Y-169281745D01*
X122920471Y-169414899D01*
X122981758Y-169562858D01*
X123013000Y-169719925D01*
X123013000Y-169880075D01*
X122981758Y-170037142D01*
X122920471Y-170185101D01*
X122831501Y-170318255D01*
X122718255Y-170431501D01*
X122585101Y-170520471D01*
X122437142Y-170581758D01*
X122280075Y-170613000D01*
X122119925Y-170613000D01*
X121962858Y-170581758D01*
X121814899Y-170520471D01*
X121681745Y-170431501D01*
X121568499Y-170318255D01*
X121479529Y-170185101D01*
X121418242Y-170037142D01*
X121387000Y-169880075D01*
X121387000Y-169719925D01*
X121418242Y-169562858D01*
X121479529Y-169414899D01*
X121568499Y-169281745D01*
X121681745Y-169168499D01*
X121814899Y-169079529D01*
X121962858Y-169018242D01*
X122119925Y-168987000D01*
X122280075Y-168987000D01*
X122437142Y-169018242D01*
X122437142Y-169018242D01*
G37*
G36*
X119897142Y-169018242D02*
G01*
X120045101Y-169079529D01*
X120178255Y-169168499D01*
X120291501Y-169281745D01*
X120380471Y-169414899D01*
X120441758Y-169562858D01*
X120473000Y-169719925D01*
X120473000Y-169880075D01*
X120441758Y-170037142D01*
X120380471Y-170185101D01*
X120291501Y-170318255D01*
X120178255Y-170431501D01*
X120045101Y-170520471D01*
X119897142Y-170581758D01*
X119740075Y-170613000D01*
X119579925Y-170613000D01*
X119422858Y-170581758D01*
X119274899Y-170520471D01*
X119141745Y-170431501D01*
X119028499Y-170318255D01*
X118939529Y-170185101D01*
X118878242Y-170037142D01*
X118847000Y-169880075D01*
X118847000Y-169719925D01*
X118878242Y-169562858D01*
X118939529Y-169414899D01*
X119028499Y-169281745D01*
X119141745Y-169168499D01*
X119274899Y-169079529D01*
X119422858Y-169018242D01*
X119579925Y-168987000D01*
X119740075Y-168987000D01*
X119897142Y-169018242D01*
X119897142Y-169018242D01*
G37*
G36*
X117357142Y-169018242D02*
G01*
X117505101Y-169079529D01*
X117638255Y-169168499D01*
X117751501Y-169281745D01*
X117840471Y-169414899D01*
X117901758Y-169562858D01*
X117933000Y-169719925D01*
X117933000Y-169880075D01*
X117901758Y-170037142D01*
X117840471Y-170185101D01*
X117751501Y-170318255D01*
X117638255Y-170431501D01*
X117505101Y-170520471D01*
X117357142Y-170581758D01*
X117200075Y-170613000D01*
X117039925Y-170613000D01*
X116882858Y-170581758D01*
X116734899Y-170520471D01*
X116601745Y-170431501D01*
X116488499Y-170318255D01*
X116399529Y-170185101D01*
X116338242Y-170037142D01*
X116307000Y-169880075D01*
X116307000Y-169719925D01*
X116338242Y-169562858D01*
X116399529Y-169414899D01*
X116488499Y-169281745D01*
X116601745Y-169168499D01*
X116734899Y-169079529D01*
X116882858Y-169018242D01*
X117039925Y-168987000D01*
X117200075Y-168987000D01*
X117357142Y-169018242D01*
X117357142Y-169018242D01*
G37*
G36*
X114817142Y-169018242D02*
G01*
X114965101Y-169079529D01*
X115098255Y-169168499D01*
X115211501Y-169281745D01*
X115300471Y-169414899D01*
X115361758Y-169562858D01*
X115393000Y-169719925D01*
X115393000Y-169880075D01*
X115361758Y-170037142D01*
X115300471Y-170185101D01*
X115211501Y-170318255D01*
X115098255Y-170431501D01*
X114965101Y-170520471D01*
X114817142Y-170581758D01*
X114660075Y-170613000D01*
X114499925Y-170613000D01*
X114342858Y-170581758D01*
X114194899Y-170520471D01*
X114061745Y-170431501D01*
X113948499Y-170318255D01*
X113859529Y-170185101D01*
X113798242Y-170037142D01*
X113767000Y-169880075D01*
X113767000Y-169719925D01*
X113798242Y-169562858D01*
X113859529Y-169414899D01*
X113948499Y-169281745D01*
X114061745Y-169168499D01*
X114194899Y-169079529D01*
X114342858Y-169018242D01*
X114499925Y-168987000D01*
X114660075Y-168987000D01*
X114817142Y-169018242D01*
X114817142Y-169018242D01*
G37*
G36*
X112277142Y-169018242D02*
G01*
X112425101Y-169079529D01*
X112558255Y-169168499D01*
X112671501Y-169281745D01*
X112760471Y-169414899D01*
X112821758Y-169562858D01*
X112853000Y-169719925D01*
X112853000Y-169880075D01*
X112821758Y-170037142D01*
X112760471Y-170185101D01*
X112671501Y-170318255D01*
X112558255Y-170431501D01*
X112425101Y-170520471D01*
X112277142Y-170581758D01*
X112120075Y-170613000D01*
X111959925Y-170613000D01*
X111802858Y-170581758D01*
X111654899Y-170520471D01*
X111521745Y-170431501D01*
X111408499Y-170318255D01*
X111319529Y-170185101D01*
X111258242Y-170037142D01*
X111227000Y-169880075D01*
X111227000Y-169719925D01*
X111258242Y-169562858D01*
X111319529Y-169414899D01*
X111408499Y-169281745D01*
X111521745Y-169168499D01*
X111654899Y-169079529D01*
X111802858Y-169018242D01*
X111959925Y-168987000D01*
X112120075Y-168987000D01*
X112277142Y-169018242D01*
X112277142Y-169018242D01*
G37*
G36*
X120863765Y-166178620D02*
G01*
X121029144Y-166247122D01*
X121053288Y-166257123D01*
X121223854Y-166371092D01*
X121368908Y-166516146D01*
X121482877Y-166686712D01*
X121561380Y-166876235D01*
X121601400Y-167077431D01*
X121601400Y-167282569D01*
X121561380Y-167483765D01*
X121482877Y-167673288D01*
X121368908Y-167843854D01*
X121223854Y-167988908D01*
X121053288Y-168102877D01*
X121053287Y-168102878D01*
X121053286Y-168102878D01*
X120863765Y-168181380D01*
X120662570Y-168221400D01*
X120457430Y-168221400D01*
X120256235Y-168181380D01*
X120066714Y-168102878D01*
X120066713Y-168102878D01*
X120066712Y-168102877D01*
X119896146Y-167988908D01*
X119751092Y-167843854D01*
X119637123Y-167673288D01*
X119558620Y-167483765D01*
X119518600Y-167282569D01*
X119518600Y-167077431D01*
X119558620Y-166876235D01*
X119637123Y-166686712D01*
X119751092Y-166516146D01*
X119896146Y-166371092D01*
X120066712Y-166257123D01*
X120090857Y-166247122D01*
X120256235Y-166178620D01*
X120457430Y-166138600D01*
X120662570Y-166138600D01*
X120863765Y-166178620D01*
X120863765Y-166178620D01*
G37*
G36*
X110693765Y-166178620D02*
G01*
X110859144Y-166247122D01*
X110883288Y-166257123D01*
X111053854Y-166371092D01*
X111198908Y-166516146D01*
X111312877Y-166686712D01*
X111391380Y-166876235D01*
X111431400Y-167077431D01*
X111431400Y-167282569D01*
X111391380Y-167483765D01*
X111312877Y-167673288D01*
X111198908Y-167843854D01*
X111053854Y-167988908D01*
X110883288Y-168102877D01*
X110883287Y-168102878D01*
X110883286Y-168102878D01*
X110693765Y-168181380D01*
X110492570Y-168221400D01*
X110287430Y-168221400D01*
X110086235Y-168181380D01*
X109896714Y-168102878D01*
X109896713Y-168102878D01*
X109896712Y-168102877D01*
X109726146Y-167988908D01*
X109581092Y-167843854D01*
X109467123Y-167673288D01*
X109388620Y-167483765D01*
X109348600Y-167282569D01*
X109348600Y-167077431D01*
X109388620Y-166876235D01*
X109467123Y-166686712D01*
X109581092Y-166516146D01*
X109726146Y-166371092D01*
X109896712Y-166257123D01*
X109920857Y-166247122D01*
X110086235Y-166178620D01*
X110287430Y-166138600D01*
X110492570Y-166138600D01*
X110693765Y-166178620D01*
X110693765Y-166178620D01*
G37*
G36*
X113233765Y-166178620D02*
G01*
X113399144Y-166247122D01*
X113423288Y-166257123D01*
X113593854Y-166371092D01*
X113738908Y-166516146D01*
X113852877Y-166686712D01*
X113931380Y-166876235D01*
X113971400Y-167077431D01*
X113971400Y-167282569D01*
X113931380Y-167483765D01*
X113852877Y-167673288D01*
X113738908Y-167843854D01*
X113593854Y-167988908D01*
X113423288Y-168102877D01*
X113423287Y-168102878D01*
X113423286Y-168102878D01*
X113233765Y-168181380D01*
X113032570Y-168221400D01*
X112827430Y-168221400D01*
X112626235Y-168181380D01*
X112436714Y-168102878D01*
X112436713Y-168102878D01*
X112436712Y-168102877D01*
X112266146Y-167988908D01*
X112121092Y-167843854D01*
X112007123Y-167673288D01*
X111928620Y-167483765D01*
X111888600Y-167282569D01*
X111888600Y-167077431D01*
X111928620Y-166876235D01*
X112007123Y-166686712D01*
X112121092Y-166516146D01*
X112266146Y-166371092D01*
X112436712Y-166257123D01*
X112460857Y-166247122D01*
X112626235Y-166178620D01*
X112827430Y-166138600D01*
X113032570Y-166138600D01*
X113233765Y-166178620D01*
X113233765Y-166178620D01*
G37*
G36*
X123403765Y-166178620D02*
G01*
X123569144Y-166247122D01*
X123593288Y-166257123D01*
X123763854Y-166371092D01*
X123908908Y-166516146D01*
X124022877Y-166686712D01*
X124101380Y-166876235D01*
X124141400Y-167077431D01*
X124141400Y-167282569D01*
X124101380Y-167483765D01*
X124022877Y-167673288D01*
X123908908Y-167843854D01*
X123763854Y-167988908D01*
X123593288Y-168102877D01*
X123593287Y-168102878D01*
X123593286Y-168102878D01*
X123403765Y-168181380D01*
X123202570Y-168221400D01*
X122997430Y-168221400D01*
X122796235Y-168181380D01*
X122606714Y-168102878D01*
X122606713Y-168102878D01*
X122606712Y-168102877D01*
X122436146Y-167988908D01*
X122291092Y-167843854D01*
X122177123Y-167673288D01*
X122098620Y-167483765D01*
X122058600Y-167282569D01*
X122058600Y-167077431D01*
X122098620Y-166876235D01*
X122177123Y-166686712D01*
X122291092Y-166516146D01*
X122436146Y-166371092D01*
X122606712Y-166257123D01*
X122630857Y-166247122D01*
X122796235Y-166178620D01*
X122997430Y-166138600D01*
X123202570Y-166138600D01*
X123403765Y-166178620D01*
X123403765Y-166178620D01*
G37*
G36*
X125933765Y-166178620D02*
G01*
X126099144Y-166247122D01*
X126123288Y-166257123D01*
X126293854Y-166371092D01*
X126438908Y-166516146D01*
X126552877Y-166686712D01*
X126631380Y-166876235D01*
X126671400Y-167077431D01*
X126671400Y-167282569D01*
X126631380Y-167483765D01*
X126552877Y-167673288D01*
X126438908Y-167843854D01*
X126293854Y-167988908D01*
X126123288Y-168102877D01*
X126123287Y-168102878D01*
X126123286Y-168102878D01*
X125933765Y-168181380D01*
X125732570Y-168221400D01*
X125527430Y-168221400D01*
X125326235Y-168181380D01*
X125136714Y-168102878D01*
X125136713Y-168102878D01*
X125136712Y-168102877D01*
X124966146Y-167988908D01*
X124821092Y-167843854D01*
X124707123Y-167673288D01*
X124628620Y-167483765D01*
X124588600Y-167282569D01*
X124588600Y-167077431D01*
X124628620Y-166876235D01*
X124707123Y-166686712D01*
X124821092Y-166516146D01*
X124966146Y-166371092D01*
X125136712Y-166257123D01*
X125160857Y-166247122D01*
X125326235Y-166178620D01*
X125527430Y-166138600D01*
X125732570Y-166138600D01*
X125933765Y-166178620D01*
X125933765Y-166178620D01*
G37*
G36*
X118313765Y-166168620D02*
G01*
X118503288Y-166247123D01*
X118673854Y-166361092D01*
X118818908Y-166506146D01*
X118932877Y-166676712D01*
X119011380Y-166866235D01*
X119051400Y-167067431D01*
X119051400Y-167272569D01*
X119011380Y-167473765D01*
X118932877Y-167663288D01*
X118818908Y-167833854D01*
X118673854Y-167978908D01*
X118503288Y-168092877D01*
X118503287Y-168092878D01*
X118503286Y-168092878D01*
X118313765Y-168171380D01*
X118112570Y-168211400D01*
X117907430Y-168211400D01*
X117706235Y-168171380D01*
X117516714Y-168092878D01*
X117516713Y-168092878D01*
X117516712Y-168092877D01*
X117346146Y-167978908D01*
X117201092Y-167833854D01*
X117087123Y-167663288D01*
X117008620Y-167473765D01*
X116968600Y-167272569D01*
X116968600Y-167067431D01*
X117008620Y-166866235D01*
X117087123Y-166676712D01*
X117201092Y-166506146D01*
X117346146Y-166361092D01*
X117516712Y-166247123D01*
X117706235Y-166168620D01*
X117907430Y-166128600D01*
X118112570Y-166128600D01*
X118313765Y-166168620D01*
X118313765Y-166168620D01*
G37*
G36*
X115783765Y-166168620D02*
G01*
X115973288Y-166247123D01*
X116143854Y-166361092D01*
X116288908Y-166506146D01*
X116402877Y-166676712D01*
X116481380Y-166866235D01*
X116521400Y-167067431D01*
X116521400Y-167272569D01*
X116481380Y-167473765D01*
X116402877Y-167663288D01*
X116288908Y-167833854D01*
X116143854Y-167978908D01*
X115973288Y-168092877D01*
X115973287Y-168092878D01*
X115973286Y-168092878D01*
X115783765Y-168171380D01*
X115582570Y-168211400D01*
X115377430Y-168211400D01*
X115176235Y-168171380D01*
X114986714Y-168092878D01*
X114986713Y-168092878D01*
X114986712Y-168092877D01*
X114816146Y-167978908D01*
X114671092Y-167833854D01*
X114557123Y-167663288D01*
X114478620Y-167473765D01*
X114438600Y-167272569D01*
X114438600Y-167067431D01*
X114478620Y-166866235D01*
X114557123Y-166676712D01*
X114671092Y-166506146D01*
X114816146Y-166361092D01*
X114986712Y-166247123D01*
X115176235Y-166168620D01*
X115377430Y-166128600D01*
X115582570Y-166128600D01*
X115783765Y-166168620D01*
X115783765Y-166168620D01*
G37*
G36*
X123905631Y-160138264D02*
G01*
X123965764Y-160150225D01*
X124003526Y-160165867D01*
X124079053Y-160197151D01*
X124181005Y-160265273D01*
X124267717Y-160351985D01*
X124335839Y-160453937D01*
X124382765Y-160567227D01*
X124406687Y-160687491D01*
X124406687Y-160810115D01*
X124382765Y-160930379D01*
X124335839Y-161043669D01*
X124267717Y-161145621D01*
X124181005Y-161232333D01*
X124079053Y-161300455D01*
X124003526Y-161331739D01*
X123965764Y-161347381D01*
X123905631Y-161359342D01*
X123845499Y-161371303D01*
X123722875Y-161371303D01*
X123662743Y-161359342D01*
X123602610Y-161347381D01*
X123564848Y-161331739D01*
X123489321Y-161300455D01*
X123387369Y-161232333D01*
X123300657Y-161145621D01*
X123232535Y-161043669D01*
X123185609Y-160930379D01*
X123161687Y-160810115D01*
X123161687Y-160687491D01*
X123185609Y-160567227D01*
X123232535Y-160453937D01*
X123300657Y-160351985D01*
X123387369Y-160265273D01*
X123489321Y-160197151D01*
X123564848Y-160165867D01*
X123602610Y-160150225D01*
X123662743Y-160138264D01*
X123722875Y-160126303D01*
X123845499Y-160126303D01*
X123905631Y-160138264D01*
X123905631Y-160138264D01*
G37*
G36*
X126445631Y-160138264D02*
G01*
X126505764Y-160150225D01*
X126543526Y-160165867D01*
X126619053Y-160197151D01*
X126721005Y-160265273D01*
X126807717Y-160351985D01*
X126875839Y-160453937D01*
X126922765Y-160567227D01*
X126946687Y-160687491D01*
X126946687Y-160810115D01*
X126922765Y-160930379D01*
X126875839Y-161043669D01*
X126807717Y-161145621D01*
X126721005Y-161232333D01*
X126619053Y-161300455D01*
X126543526Y-161331739D01*
X126505764Y-161347381D01*
X126445631Y-161359342D01*
X126385499Y-161371303D01*
X126262875Y-161371303D01*
X126202743Y-161359342D01*
X126142610Y-161347381D01*
X126104848Y-161331739D01*
X126029321Y-161300455D01*
X125927369Y-161232333D01*
X125840657Y-161145621D01*
X125772535Y-161043669D01*
X125725609Y-160930379D01*
X125701687Y-160810115D01*
X125701687Y-160687491D01*
X125725609Y-160567227D01*
X125772535Y-160453937D01*
X125840657Y-160351985D01*
X125927369Y-160265273D01*
X126029321Y-160197151D01*
X126104848Y-160165867D01*
X126142610Y-160150225D01*
X126202743Y-160138264D01*
X126262875Y-160126303D01*
X126385499Y-160126303D01*
X126445631Y-160138264D01*
X126445631Y-160138264D01*
G37*
G36*
X109937579Y-160209088D02*
G01*
X109937582Y-160209089D01*
X109937583Y-160209089D01*
X110042955Y-160241053D01*
X110042958Y-160241055D01*
X110042959Y-160241055D01*
X110140065Y-160292959D01*
X110140067Y-160292960D01*
X110140066Y-160292960D01*
X110225185Y-160362815D01*
X110295040Y-160447934D01*
X110346947Y-160545045D01*
X110378911Y-160650417D01*
X110378912Y-160650421D01*
X110389704Y-160760000D01*
X110378912Y-160869579D01*
X110378911Y-160869582D01*
X110378911Y-160869583D01*
X110346947Y-160974955D01*
X110346945Y-160974958D01*
X110346945Y-160974959D01*
X110295041Y-161072065D01*
X110225185Y-161157185D01*
X110140065Y-161227041D01*
X110130164Y-161232333D01*
X110042955Y-161278947D01*
X109937583Y-161310911D01*
X109937582Y-161310911D01*
X109937579Y-161310912D01*
X109855458Y-161319000D01*
X108784542Y-161319000D01*
X108702421Y-161310912D01*
X108702418Y-161310911D01*
X108702417Y-161310911D01*
X108597045Y-161278947D01*
X108509836Y-161232333D01*
X108499935Y-161227041D01*
X108414815Y-161157185D01*
X108344959Y-161072065D01*
X108293055Y-160974959D01*
X108293055Y-160974958D01*
X108293053Y-160974955D01*
X108261089Y-160869583D01*
X108261089Y-160869582D01*
X108261088Y-160869579D01*
X108250296Y-160760000D01*
X108261088Y-160650421D01*
X108261089Y-160650417D01*
X108293053Y-160545045D01*
X108344960Y-160447934D01*
X108414815Y-160362815D01*
X108499934Y-160292960D01*
X108499933Y-160292960D01*
X108499935Y-160292959D01*
X108597041Y-160241055D01*
X108597042Y-160241055D01*
X108597045Y-160241053D01*
X108702417Y-160209089D01*
X108702418Y-160209089D01*
X108702421Y-160209088D01*
X108784542Y-160201000D01*
X109855458Y-160201000D01*
X109937579Y-160209088D01*
X109937579Y-160209088D01*
G37*
G36*
X123905631Y-157598264D02*
G01*
X123965764Y-157610225D01*
X124003526Y-157625867D01*
X124079053Y-157657151D01*
X124181005Y-157725273D01*
X124267717Y-157811985D01*
X124335839Y-157913937D01*
X124382765Y-158027227D01*
X124406687Y-158147491D01*
X124406687Y-158270115D01*
X124382765Y-158390379D01*
X124335839Y-158503669D01*
X124267717Y-158605621D01*
X124181005Y-158692333D01*
X124079053Y-158760455D01*
X124003526Y-158791739D01*
X123965764Y-158807381D01*
X123905631Y-158819342D01*
X123845499Y-158831303D01*
X123722875Y-158831303D01*
X123662743Y-158819342D01*
X123602610Y-158807381D01*
X123564848Y-158791739D01*
X123489321Y-158760455D01*
X123387369Y-158692333D01*
X123300657Y-158605621D01*
X123232535Y-158503669D01*
X123185609Y-158390379D01*
X123161687Y-158270115D01*
X123161687Y-158147491D01*
X123185609Y-158027227D01*
X123232535Y-157913937D01*
X123300657Y-157811985D01*
X123387369Y-157725273D01*
X123489321Y-157657151D01*
X123564848Y-157625867D01*
X123602610Y-157610225D01*
X123662743Y-157598264D01*
X123722875Y-157586303D01*
X123845499Y-157586303D01*
X123905631Y-157598264D01*
X123905631Y-157598264D01*
G37*
G36*
X126445631Y-157598264D02*
G01*
X126505764Y-157610225D01*
X126543526Y-157625867D01*
X126619053Y-157657151D01*
X126721005Y-157725273D01*
X126807717Y-157811985D01*
X126875839Y-157913937D01*
X126922765Y-158027227D01*
X126946687Y-158147491D01*
X126946687Y-158270115D01*
X126922765Y-158390379D01*
X126875839Y-158503669D01*
X126807717Y-158605621D01*
X126721005Y-158692333D01*
X126619053Y-158760455D01*
X126543526Y-158791739D01*
X126505764Y-158807381D01*
X126445631Y-158819342D01*
X126385499Y-158831303D01*
X126262875Y-158831303D01*
X126202743Y-158819342D01*
X126142610Y-158807381D01*
X126104848Y-158791739D01*
X126029321Y-158760455D01*
X125927369Y-158692333D01*
X125840657Y-158605621D01*
X125772535Y-158503669D01*
X125725609Y-158390379D01*
X125701687Y-158270115D01*
X125701687Y-158147491D01*
X125725609Y-158027227D01*
X125772535Y-157913937D01*
X125840657Y-157811985D01*
X125927369Y-157725273D01*
X126029321Y-157657151D01*
X126104848Y-157625867D01*
X126142610Y-157610225D01*
X126202743Y-157598264D01*
X126262875Y-157586303D01*
X126385499Y-157586303D01*
X126445631Y-157598264D01*
X126445631Y-157598264D01*
G37*
G36*
X109937579Y-157659088D02*
G01*
X109937582Y-157659089D01*
X109937583Y-157659089D01*
X110042955Y-157691053D01*
X110042958Y-157691055D01*
X110042959Y-157691055D01*
X110140065Y-157742959D01*
X110140067Y-157742960D01*
X110140066Y-157742960D01*
X110225185Y-157812815D01*
X110295040Y-157897934D01*
X110346947Y-157995045D01*
X110356709Y-158027227D01*
X110378912Y-158100421D01*
X110389704Y-158210000D01*
X110378912Y-158319579D01*
X110378911Y-158319582D01*
X110378911Y-158319583D01*
X110346947Y-158424955D01*
X110346945Y-158424958D01*
X110346945Y-158424959D01*
X110295041Y-158522065D01*
X110225185Y-158607185D01*
X110140065Y-158677041D01*
X110042959Y-158728945D01*
X110042955Y-158728947D01*
X109937583Y-158760911D01*
X109937582Y-158760911D01*
X109937579Y-158760912D01*
X109855458Y-158769000D01*
X108784542Y-158769000D01*
X108702421Y-158760912D01*
X108702418Y-158760911D01*
X108702417Y-158760911D01*
X108597045Y-158728947D01*
X108597041Y-158728945D01*
X108499935Y-158677041D01*
X108414815Y-158607185D01*
X108344959Y-158522065D01*
X108293055Y-158424959D01*
X108293055Y-158424958D01*
X108293053Y-158424955D01*
X108261089Y-158319583D01*
X108261089Y-158319582D01*
X108261088Y-158319579D01*
X108250296Y-158210000D01*
X108261088Y-158100421D01*
X108283291Y-158027227D01*
X108293053Y-157995045D01*
X108344960Y-157897934D01*
X108414815Y-157812815D01*
X108499934Y-157742960D01*
X108499933Y-157742960D01*
X108499935Y-157742959D01*
X108597041Y-157691055D01*
X108597042Y-157691055D01*
X108597045Y-157691053D01*
X108702417Y-157659089D01*
X108702418Y-157659089D01*
X108702421Y-157659088D01*
X108784542Y-157651000D01*
X109855458Y-157651000D01*
X109937579Y-157659088D01*
X109937579Y-157659088D01*
G37*
G36*
X115773765Y-150678620D02*
G01*
X115939144Y-150747122D01*
X115963288Y-150757123D01*
X116133854Y-150871092D01*
X116278908Y-151016146D01*
X116392877Y-151186712D01*
X116471380Y-151376235D01*
X116511400Y-151577431D01*
X116511400Y-151782569D01*
X116471380Y-151983765D01*
X116392877Y-152173288D01*
X116278908Y-152343854D01*
X116133854Y-152488908D01*
X115963288Y-152602877D01*
X115963287Y-152602878D01*
X115963286Y-152602878D01*
X115773765Y-152681380D01*
X115572570Y-152721400D01*
X115367430Y-152721400D01*
X115166235Y-152681380D01*
X114976714Y-152602878D01*
X114976713Y-152602878D01*
X114976712Y-152602877D01*
X114806146Y-152488908D01*
X114661092Y-152343854D01*
X114547123Y-152173288D01*
X114468620Y-151983765D01*
X114428600Y-151782569D01*
X114428600Y-151577431D01*
X114468620Y-151376235D01*
X114547123Y-151186712D01*
X114661092Y-151016146D01*
X114806146Y-150871092D01*
X114976712Y-150757123D01*
X115000857Y-150747122D01*
X115166235Y-150678620D01*
X115367430Y-150638600D01*
X115572570Y-150638600D01*
X115773765Y-150678620D01*
X115773765Y-150678620D01*
G37*
G36*
X123393765Y-150678620D02*
G01*
X123559144Y-150747122D01*
X123583288Y-150757123D01*
X123753854Y-150871092D01*
X123898908Y-151016146D01*
X124012877Y-151186712D01*
X124091380Y-151376235D01*
X124131400Y-151577431D01*
X124131400Y-151782569D01*
X124091380Y-151983765D01*
X124012877Y-152173288D01*
X123898908Y-152343854D01*
X123753854Y-152488908D01*
X123583288Y-152602877D01*
X123583287Y-152602878D01*
X123583286Y-152602878D01*
X123393765Y-152681380D01*
X123192570Y-152721400D01*
X122987430Y-152721400D01*
X122786235Y-152681380D01*
X122596714Y-152602878D01*
X122596713Y-152602878D01*
X122596712Y-152602877D01*
X122426146Y-152488908D01*
X122281092Y-152343854D01*
X122167123Y-152173288D01*
X122088620Y-151983765D01*
X122048600Y-151782569D01*
X122048600Y-151577431D01*
X122088620Y-151376235D01*
X122167123Y-151186712D01*
X122281092Y-151016146D01*
X122426146Y-150871092D01*
X122596712Y-150757123D01*
X122620857Y-150747122D01*
X122786235Y-150678620D01*
X122987430Y-150638600D01*
X123192570Y-150638600D01*
X123393765Y-150678620D01*
X123393765Y-150678620D01*
G37*
G36*
X110693765Y-150678620D02*
G01*
X110859144Y-150747122D01*
X110883288Y-150757123D01*
X111053854Y-150871092D01*
X111198908Y-151016146D01*
X111312877Y-151186712D01*
X111391380Y-151376235D01*
X111431400Y-151577431D01*
X111431400Y-151782569D01*
X111391380Y-151983765D01*
X111312877Y-152173288D01*
X111198908Y-152343854D01*
X111053854Y-152488908D01*
X110883288Y-152602877D01*
X110883287Y-152602878D01*
X110883286Y-152602878D01*
X110693765Y-152681380D01*
X110492570Y-152721400D01*
X110287430Y-152721400D01*
X110086235Y-152681380D01*
X109896714Y-152602878D01*
X109896713Y-152602878D01*
X109896712Y-152602877D01*
X109726146Y-152488908D01*
X109581092Y-152343854D01*
X109467123Y-152173288D01*
X109388620Y-151983765D01*
X109348600Y-151782569D01*
X109348600Y-151577431D01*
X109388620Y-151376235D01*
X109467123Y-151186712D01*
X109581092Y-151016146D01*
X109726146Y-150871092D01*
X109896712Y-150757123D01*
X109920857Y-150747122D01*
X110086235Y-150678620D01*
X110287430Y-150638600D01*
X110492570Y-150638600D01*
X110693765Y-150678620D01*
X110693765Y-150678620D01*
G37*
G36*
X113243765Y-150678620D02*
G01*
X113409144Y-150747122D01*
X113433288Y-150757123D01*
X113603854Y-150871092D01*
X113748908Y-151016146D01*
X113862877Y-151186712D01*
X113941380Y-151376235D01*
X113981400Y-151577431D01*
X113981400Y-151782569D01*
X113941380Y-151983765D01*
X113862877Y-152173288D01*
X113748908Y-152343854D01*
X113603854Y-152488908D01*
X113433288Y-152602877D01*
X113433287Y-152602878D01*
X113433286Y-152602878D01*
X113243765Y-152681380D01*
X113042570Y-152721400D01*
X112837430Y-152721400D01*
X112636235Y-152681380D01*
X112446714Y-152602878D01*
X112446713Y-152602878D01*
X112446712Y-152602877D01*
X112276146Y-152488908D01*
X112131092Y-152343854D01*
X112017123Y-152173288D01*
X111938620Y-151983765D01*
X111898600Y-151782569D01*
X111898600Y-151577431D01*
X111938620Y-151376235D01*
X112017123Y-151186712D01*
X112131092Y-151016146D01*
X112276146Y-150871092D01*
X112446712Y-150757123D01*
X112470857Y-150747122D01*
X112636235Y-150678620D01*
X112837430Y-150638600D01*
X113042570Y-150638600D01*
X113243765Y-150678620D01*
X113243765Y-150678620D01*
G37*
G36*
X118303765Y-150678620D02*
G01*
X118469144Y-150747122D01*
X118493288Y-150757123D01*
X118663854Y-150871092D01*
X118808908Y-151016146D01*
X118922877Y-151186712D01*
X119001380Y-151376235D01*
X119041400Y-151577431D01*
X119041400Y-151782569D01*
X119001380Y-151983765D01*
X118922877Y-152173288D01*
X118808908Y-152343854D01*
X118663854Y-152488908D01*
X118493288Y-152602877D01*
X118493287Y-152602878D01*
X118493286Y-152602878D01*
X118303765Y-152681380D01*
X118102570Y-152721400D01*
X117897430Y-152721400D01*
X117696235Y-152681380D01*
X117506714Y-152602878D01*
X117506713Y-152602878D01*
X117506712Y-152602877D01*
X117336146Y-152488908D01*
X117191092Y-152343854D01*
X117077123Y-152173288D01*
X116998620Y-151983765D01*
X116958600Y-151782569D01*
X116958600Y-151577431D01*
X116998620Y-151376235D01*
X117077123Y-151186712D01*
X117191092Y-151016146D01*
X117336146Y-150871092D01*
X117506712Y-150757123D01*
X117530857Y-150747122D01*
X117696235Y-150678620D01*
X117897430Y-150638600D01*
X118102570Y-150638600D01*
X118303765Y-150678620D01*
X118303765Y-150678620D01*
G37*
G36*
X120863765Y-150678620D02*
G01*
X121029144Y-150747122D01*
X121053288Y-150757123D01*
X121223854Y-150871092D01*
X121368908Y-151016146D01*
X121482877Y-151186712D01*
X121561380Y-151376235D01*
X121601400Y-151577431D01*
X121601400Y-151782569D01*
X121561380Y-151983765D01*
X121482877Y-152173288D01*
X121368908Y-152343854D01*
X121223854Y-152488908D01*
X121053288Y-152602877D01*
X121053287Y-152602878D01*
X121053286Y-152602878D01*
X120863765Y-152681380D01*
X120662570Y-152721400D01*
X120457430Y-152721400D01*
X120256235Y-152681380D01*
X120066714Y-152602878D01*
X120066713Y-152602878D01*
X120066712Y-152602877D01*
X119896146Y-152488908D01*
X119751092Y-152343854D01*
X119637123Y-152173288D01*
X119558620Y-151983765D01*
X119518600Y-151782569D01*
X119518600Y-151577431D01*
X119558620Y-151376235D01*
X119637123Y-151186712D01*
X119751092Y-151016146D01*
X119896146Y-150871092D01*
X120066712Y-150757123D01*
X120090857Y-150747122D01*
X120256235Y-150678620D01*
X120457430Y-150638600D01*
X120662570Y-150638600D01*
X120863765Y-150678620D01*
X120863765Y-150678620D01*
G37*
G36*
X125933765Y-150668620D02*
G01*
X126123288Y-150747123D01*
X126293854Y-150861092D01*
X126438908Y-151006146D01*
X126552877Y-151176712D01*
X126631380Y-151366235D01*
X126671400Y-151567431D01*
X126671400Y-151772569D01*
X126631380Y-151973765D01*
X126552877Y-152163288D01*
X126438908Y-152333854D01*
X126293854Y-152478908D01*
X126123288Y-152592877D01*
X126123287Y-152592878D01*
X126123286Y-152592878D01*
X125933765Y-152671380D01*
X125732570Y-152711400D01*
X125527430Y-152711400D01*
X125326235Y-152671380D01*
X125136714Y-152592878D01*
X125136713Y-152592878D01*
X125136712Y-152592877D01*
X124966146Y-152478908D01*
X124821092Y-152333854D01*
X124707123Y-152163288D01*
X124628620Y-151973765D01*
X124588600Y-151772569D01*
X124588600Y-151567431D01*
X124628620Y-151366235D01*
X124707123Y-151176712D01*
X124821092Y-151006146D01*
X124966146Y-150861092D01*
X125136712Y-150747123D01*
X125326235Y-150668620D01*
X125527430Y-150628600D01*
X125732570Y-150628600D01*
X125933765Y-150668620D01*
X125933765Y-150668620D01*
G37*
G36*
X94967520Y-74993120D02*
G01*
X93365520Y-74993120D01*
X93365520Y-73891120D01*
X94967520Y-73891120D01*
X94967520Y-74993120D01*
X94967520Y-74993120D01*
G37*
G36*
X99867520Y-74993120D02*
G01*
X98265520Y-74993120D01*
X98265520Y-73891120D01*
X99867520Y-73891120D01*
X99867520Y-74993120D01*
X99867520Y-74993120D01*
G37*
G36*
X129566300Y-74129320D02*
G01*
X127964300Y-74129320D01*
X127964300Y-73027320D01*
X129566300Y-73027320D01*
X129566300Y-74129320D01*
X129566300Y-74129320D01*
G37*
G36*
X124666300Y-74129320D02*
G01*
X123064300Y-74129320D01*
X123064300Y-73027320D01*
X124666300Y-73027320D01*
X124666300Y-74129320D01*
X124666300Y-74129320D01*
G37*
G36*
X99867520Y-71793120D02*
G01*
X98265520Y-71793120D01*
X98265520Y-70691120D01*
X99867520Y-70691120D01*
X99867520Y-71793120D01*
X99867520Y-71793120D01*
G37*
G36*
X94967520Y-71793120D02*
G01*
X93365520Y-71793120D01*
X93365520Y-70691120D01*
X94967520Y-70691120D01*
X94967520Y-71793120D01*
X94967520Y-71793120D01*
G37*
G36*
X124666300Y-70929320D02*
G01*
X123064300Y-70929320D01*
X123064300Y-69827320D01*
X124666300Y-69827320D01*
X124666300Y-70929320D01*
X124666300Y-70929320D01*
G37*
G36*
X129566300Y-70929320D02*
G01*
X127964300Y-70929320D01*
X127964300Y-69827320D01*
X129566300Y-69827320D01*
X129566300Y-70929320D01*
X129566300Y-70929320D01*
G37*
G36*
X118475256Y-41991298D02*
G01*
X118581579Y-42012447D01*
X118882042Y-42136903D01*
X119152451Y-42317585D01*
X119382415Y-42547549D01*
X119563097Y-42817958D01*
X119687553Y-43118421D01*
X119751000Y-43437391D01*
X119751000Y-43762609D01*
X119687553Y-44081579D01*
X119563097Y-44382042D01*
X119382415Y-44652451D01*
X119152451Y-44882415D01*
X118882042Y-45063097D01*
X118581579Y-45187553D01*
X118475256Y-45208702D01*
X118262611Y-45251000D01*
X117937389Y-45251000D01*
X117724744Y-45208702D01*
X117618421Y-45187553D01*
X117317958Y-45063097D01*
X117047549Y-44882415D01*
X116817585Y-44652451D01*
X116636903Y-44382042D01*
X116512447Y-44081579D01*
X116449000Y-43762609D01*
X116449000Y-43437391D01*
X116512447Y-43118421D01*
X116636903Y-42817958D01*
X116817585Y-42547549D01*
X117047549Y-42317585D01*
X117317958Y-42136903D01*
X117618421Y-42012447D01*
X117724744Y-41991298D01*
X117937389Y-41949000D01*
X118262611Y-41949000D01*
X118475256Y-41991298D01*
X118475256Y-41991298D01*
G37*
M02*
