M48
; DRILL file {KiCad (5.1.2)-1} date 2022/09/08 9:55:24
; FORMAT={2:4/ absolute / inch / suppress leading zeros}
; #@! TF.CreationDate,2022-09-08T09:55:24+09:00
; #@! TF.GenerationSoftware,Kicad,Pcbnew,(5.1.2)-1
FMAT,2
INCH,TZ
T1C0.0118
T2C0.0394
T3C0.0400
T4C0.1260
%
G90
G05
T1
X37200Y-28725
X37740Y-28725
X37965Y-27945
X38350Y-28740
X39130Y-28765
X45771Y-62000
X48203Y-60245
X49660Y-27720
X49675Y-28980
X49955Y-28360
T2
X45255Y-64172
X46255Y-64172
X47255Y-64172
X48255Y-64172
T3
X43905Y-56676
X43905Y-62778
X44905Y-62778
X44909Y-56676
X45905Y-56676
X45909Y-62774
X46901Y-56676
X46905Y-62774
X47909Y-56676
X47909Y-62778
X48905Y-56676
X48909Y-62778
X49905Y-56672
X49905Y-62778
T4
X46321Y-23224
T0
M30
