G04 #@! TF.GenerationSoftware,KiCad,Pcbnew,(5.1.2)-1*
G04 #@! TF.CreationDate,2022-09-08T09:55:22+09:00*
G04 #@! TF.ProjectId,gopher_xiao,676f7068-6572-45f7-9869-616f2e6b6963,rev?*
G04 #@! TF.SameCoordinates,Original*
G04 #@! TF.FileFunction,Copper,L2,Bot*
G04 #@! TF.FilePolarity,Positive*
%FSLAX46Y46*%
G04 Gerber Fmt 4.6, Leading zero omitted, Abs format (unit mm)*
G04 Created by KiCad (PCBNEW (5.1.2)-1) date 2022-09-08 09:55:22*
%MOMM*%
%LPD*%
G04 APERTURE LIST*
%ADD10C,1.879600*%
%ADD11O,1.600000X2.000000*%
%ADD12C,0.100000*%
%ADD13C,0.975000*%
%ADD14C,0.600000*%
%ADD15C,0.250000*%
%ADD16C,0.400000*%
%ADD17C,0.254000*%
G04 APERTURE END LIST*
D10*
X126758500Y-159456100D03*
X124228500Y-159456100D03*
X121688500Y-159456100D03*
X119138500Y-159446100D03*
X116608500Y-159446100D03*
X114058500Y-159456100D03*
X111518500Y-159456100D03*
X111518500Y-143956100D03*
X114068500Y-143956100D03*
X116598500Y-143956100D03*
X119128500Y-143956100D03*
X121688500Y-143956100D03*
X124218500Y-143956100D03*
X126758500Y-143946100D03*
D11*
X117487200Y-162996300D03*
X114947200Y-162996300D03*
X120027200Y-162996300D03*
X122567200Y-162996300D03*
D12*
G36*
X97711342Y-130603074D02*
G01*
X97735003Y-130606584D01*
X97758207Y-130612396D01*
X97780729Y-130620454D01*
X97802353Y-130630682D01*
X97822870Y-130642979D01*
X97842083Y-130657229D01*
X97859807Y-130673293D01*
X97875871Y-130691017D01*
X97890121Y-130710230D01*
X97902418Y-130730747D01*
X97912646Y-130752371D01*
X97920704Y-130774893D01*
X97926516Y-130798097D01*
X97930026Y-130821758D01*
X97931200Y-130845650D01*
X97931200Y-131333150D01*
X97930026Y-131357042D01*
X97926516Y-131380703D01*
X97920704Y-131403907D01*
X97912646Y-131426429D01*
X97902418Y-131448053D01*
X97890121Y-131468570D01*
X97875871Y-131487783D01*
X97859807Y-131505507D01*
X97842083Y-131521571D01*
X97822870Y-131535821D01*
X97802353Y-131548118D01*
X97780729Y-131558346D01*
X97758207Y-131566404D01*
X97735003Y-131572216D01*
X97711342Y-131575726D01*
X97687450Y-131576900D01*
X96774950Y-131576900D01*
X96751058Y-131575726D01*
X96727397Y-131572216D01*
X96704193Y-131566404D01*
X96681671Y-131558346D01*
X96660047Y-131548118D01*
X96639530Y-131535821D01*
X96620317Y-131521571D01*
X96602593Y-131505507D01*
X96586529Y-131487783D01*
X96572279Y-131468570D01*
X96559982Y-131448053D01*
X96549754Y-131426429D01*
X96541696Y-131403907D01*
X96535884Y-131380703D01*
X96532374Y-131357042D01*
X96531200Y-131333150D01*
X96531200Y-130845650D01*
X96532374Y-130821758D01*
X96535884Y-130798097D01*
X96541696Y-130774893D01*
X96549754Y-130752371D01*
X96559982Y-130730747D01*
X96572279Y-130710230D01*
X96586529Y-130691017D01*
X96602593Y-130673293D01*
X96620317Y-130657229D01*
X96639530Y-130642979D01*
X96660047Y-130630682D01*
X96681671Y-130620454D01*
X96704193Y-130612396D01*
X96727397Y-130606584D01*
X96751058Y-130603074D01*
X96774950Y-130601900D01*
X97687450Y-130601900D01*
X97711342Y-130603074D01*
X97711342Y-130603074D01*
G37*
D13*
X97231200Y-131089400D03*
D12*
G36*
X97711342Y-132478074D02*
G01*
X97735003Y-132481584D01*
X97758207Y-132487396D01*
X97780729Y-132495454D01*
X97802353Y-132505682D01*
X97822870Y-132517979D01*
X97842083Y-132532229D01*
X97859807Y-132548293D01*
X97875871Y-132566017D01*
X97890121Y-132585230D01*
X97902418Y-132605747D01*
X97912646Y-132627371D01*
X97920704Y-132649893D01*
X97926516Y-132673097D01*
X97930026Y-132696758D01*
X97931200Y-132720650D01*
X97931200Y-133208150D01*
X97930026Y-133232042D01*
X97926516Y-133255703D01*
X97920704Y-133278907D01*
X97912646Y-133301429D01*
X97902418Y-133323053D01*
X97890121Y-133343570D01*
X97875871Y-133362783D01*
X97859807Y-133380507D01*
X97842083Y-133396571D01*
X97822870Y-133410821D01*
X97802353Y-133423118D01*
X97780729Y-133433346D01*
X97758207Y-133441404D01*
X97735003Y-133447216D01*
X97711342Y-133450726D01*
X97687450Y-133451900D01*
X96774950Y-133451900D01*
X96751058Y-133450726D01*
X96727397Y-133447216D01*
X96704193Y-133441404D01*
X96681671Y-133433346D01*
X96660047Y-133423118D01*
X96639530Y-133410821D01*
X96620317Y-133396571D01*
X96602593Y-133380507D01*
X96586529Y-133362783D01*
X96572279Y-133343570D01*
X96559982Y-133323053D01*
X96549754Y-133301429D01*
X96541696Y-133278907D01*
X96535884Y-133255703D01*
X96532374Y-133232042D01*
X96531200Y-133208150D01*
X96531200Y-132720650D01*
X96532374Y-132696758D01*
X96535884Y-132673097D01*
X96541696Y-132649893D01*
X96549754Y-132627371D01*
X96559982Y-132605747D01*
X96572279Y-132585230D01*
X96586529Y-132566017D01*
X96602593Y-132548293D01*
X96620317Y-132532229D01*
X96639530Y-132517979D01*
X96660047Y-132505682D01*
X96681671Y-132495454D01*
X96704193Y-132487396D01*
X96727397Y-132481584D01*
X96751058Y-132478074D01*
X96774950Y-132476900D01*
X97687450Y-132476900D01*
X97711342Y-132478074D01*
X97711342Y-132478074D01*
G37*
D13*
X97231200Y-132964400D03*
D14*
X99390200Y-73063100D03*
X126174500Y-73609200D03*
X122435620Y-153022300D03*
X97409000Y-72999600D03*
X126885700Y-72034400D03*
X95859600Y-72961500D03*
X94488000Y-72961500D03*
X96431100Y-70980300D03*
X126136400Y-70408800D03*
X116258340Y-157480000D03*
D15*
X126174500Y-73609200D02*
X131660900Y-79095600D01*
X131660900Y-79095600D02*
X131660900Y-152023700D01*
D16*
X122435620Y-153446564D02*
X122428000Y-153454184D01*
X122435620Y-153022300D02*
X122435620Y-153446564D01*
X122428000Y-157655600D02*
X124228500Y-159456100D01*
X122428000Y-153454184D02*
X122428000Y-157655600D01*
D15*
X131660900Y-152023700D02*
X124228500Y-159456100D01*
X99390200Y-73063100D02*
X99690199Y-72763101D01*
X125328401Y-72763101D02*
X126174500Y-73609200D01*
X99690199Y-72763101D02*
X125328401Y-72763101D01*
X97409000Y-72999600D02*
X98374200Y-72034400D01*
X98374200Y-72034400D02*
X126885700Y-72034400D01*
X95859600Y-72961500D02*
X97231200Y-74333100D01*
X97231200Y-74333100D02*
X97231200Y-127589280D01*
X97231200Y-127589280D02*
X97231200Y-131089400D01*
D16*
X96731099Y-70680301D02*
X120340399Y-70680301D01*
X96431100Y-70980300D02*
X96731099Y-70680301D01*
X120340399Y-70680301D02*
X122008900Y-69011800D01*
X122008900Y-69011800D02*
X125006100Y-69011800D01*
X125006100Y-69011800D02*
X126136400Y-70142100D01*
X126136400Y-70142100D02*
X126136400Y-70408800D01*
X99987100Y-157480000D02*
X111429800Y-157480000D01*
X94488000Y-72961500D02*
X94488000Y-151980900D01*
X94488000Y-151980900D02*
X99987100Y-157480000D01*
X111429800Y-157480000D02*
X116258340Y-157480000D01*
D15*
X97231200Y-133551900D02*
X105413840Y-141734540D01*
X97231200Y-132964400D02*
X97231200Y-133551900D01*
X124546940Y-141734540D02*
X126758500Y-143946100D01*
X105413840Y-141734540D02*
X124546940Y-141734540D01*
X120027200Y-162796300D02*
X120027200Y-162996300D01*
X117873301Y-160642401D02*
X120027200Y-162796300D01*
X117873301Y-147760901D02*
X117873301Y-160642401D01*
X114068500Y-143956100D02*
X117873301Y-147760901D01*
X117538299Y-144895899D02*
X117538299Y-146659399D01*
X116598500Y-143956100D02*
X117538299Y-144895899D01*
X122567200Y-162796300D02*
X122567200Y-162996300D01*
X120423699Y-160652799D02*
X122567200Y-162796300D01*
X120423699Y-149544799D02*
X120423699Y-160652799D01*
X117538299Y-146659399D02*
X120423699Y-149544799D01*
D17*
G36*
X129425922Y-164502868D02*
G01*
X123188211Y-164491492D01*
X123368301Y-164395232D01*
X123586808Y-164215908D01*
X123766132Y-163997401D01*
X123899382Y-163748107D01*
X123981436Y-163477608D01*
X124002200Y-163266791D01*
X124002200Y-162725808D01*
X123981436Y-162514991D01*
X123899382Y-162244492D01*
X123766132Y-161995199D01*
X123586807Y-161776692D01*
X123368300Y-161597368D01*
X123119007Y-161464118D01*
X122848508Y-161382064D01*
X122567200Y-161354357D01*
X122285891Y-161382064D01*
X122241294Y-161395592D01*
X121871127Y-161025425D01*
X122147852Y-160970382D01*
X122434448Y-160851670D01*
X122692377Y-160679327D01*
X122911727Y-160459977D01*
X122958500Y-160389976D01*
X123005273Y-160459977D01*
X123224623Y-160679327D01*
X123482552Y-160851670D01*
X123769148Y-160970382D01*
X124073396Y-161030900D01*
X124383604Y-161030900D01*
X124687852Y-160970382D01*
X124974448Y-160851670D01*
X125232377Y-160679327D01*
X125451727Y-160459977D01*
X125493500Y-160397459D01*
X125535273Y-160459977D01*
X125754623Y-160679327D01*
X126012552Y-160851670D01*
X126299148Y-160970382D01*
X126603396Y-161030900D01*
X126913604Y-161030900D01*
X127217852Y-160970382D01*
X127504448Y-160851670D01*
X127762377Y-160679327D01*
X127981727Y-160459977D01*
X128154070Y-160202048D01*
X128272782Y-159915452D01*
X128333300Y-159611204D01*
X128333300Y-159300996D01*
X128272782Y-158996748D01*
X128154070Y-158710152D01*
X127981727Y-158452223D01*
X127762377Y-158232873D01*
X127504448Y-158060530D01*
X127217852Y-157941818D01*
X126913604Y-157881300D01*
X126878101Y-157881300D01*
X129441943Y-155317459D01*
X129425922Y-164502868D01*
X129425922Y-164502868D01*
G37*
X129425922Y-164502868D02*
X123188211Y-164491492D01*
X123368301Y-164395232D01*
X123586808Y-164215908D01*
X123766132Y-163997401D01*
X123899382Y-163748107D01*
X123981436Y-163477608D01*
X124002200Y-163266791D01*
X124002200Y-162725808D01*
X123981436Y-162514991D01*
X123899382Y-162244492D01*
X123766132Y-161995199D01*
X123586807Y-161776692D01*
X123368300Y-161597368D01*
X123119007Y-161464118D01*
X122848508Y-161382064D01*
X122567200Y-161354357D01*
X122285891Y-161382064D01*
X122241294Y-161395592D01*
X121871127Y-161025425D01*
X122147852Y-160970382D01*
X122434448Y-160851670D01*
X122692377Y-160679327D01*
X122911727Y-160459977D01*
X122958500Y-160389976D01*
X123005273Y-160459977D01*
X123224623Y-160679327D01*
X123482552Y-160851670D01*
X123769148Y-160970382D01*
X124073396Y-161030900D01*
X124383604Y-161030900D01*
X124687852Y-160970382D01*
X124974448Y-160851670D01*
X125232377Y-160679327D01*
X125451727Y-160459977D01*
X125493500Y-160397459D01*
X125535273Y-160459977D01*
X125754623Y-160679327D01*
X126012552Y-160851670D01*
X126299148Y-160970382D01*
X126603396Y-161030900D01*
X126913604Y-161030900D01*
X127217852Y-160970382D01*
X127504448Y-160851670D01*
X127762377Y-160679327D01*
X127981727Y-160459977D01*
X128154070Y-160202048D01*
X128272782Y-159915452D01*
X128333300Y-159611204D01*
X128333300Y-159300996D01*
X128272782Y-158996748D01*
X128154070Y-158710152D01*
X127981727Y-158452223D01*
X127762377Y-158232873D01*
X127504448Y-158060530D01*
X127217852Y-157941818D01*
X126913604Y-157881300D01*
X126878101Y-157881300D01*
X129441943Y-155317459D01*
X129425922Y-164502868D01*
G36*
X121368268Y-163997401D02*
G01*
X121547593Y-164215908D01*
X121766100Y-164395232D01*
X121941938Y-164489220D01*
X120656847Y-164486876D01*
X120828301Y-164395232D01*
X121046808Y-164215908D01*
X121226132Y-163997401D01*
X121297200Y-163864442D01*
X121368268Y-163997401D01*
X121368268Y-163997401D01*
G37*
X121368268Y-163997401D02*
X121547593Y-164215908D01*
X121766100Y-164395232D01*
X121941938Y-164489220D01*
X120656847Y-164486876D01*
X120828301Y-164395232D01*
X121046808Y-164215908D01*
X121226132Y-163997401D01*
X121297200Y-163864442D01*
X121368268Y-163997401D01*
G36*
X118828268Y-163997401D02*
G01*
X119007593Y-164215908D01*
X119226100Y-164395232D01*
X119393242Y-164484572D01*
X118125484Y-164482260D01*
X118288301Y-164395232D01*
X118506808Y-164215908D01*
X118686132Y-163997401D01*
X118757200Y-163864442D01*
X118828268Y-163997401D01*
X118828268Y-163997401D01*
G37*
X118828268Y-163997401D02*
X119007593Y-164215908D01*
X119226100Y-164395232D01*
X119393242Y-164484572D01*
X118125484Y-164482260D01*
X118288301Y-164395232D01*
X118506808Y-164215908D01*
X118686132Y-163997401D01*
X118757200Y-163864442D01*
X118828268Y-163997401D01*
G36*
X116288268Y-163997401D02*
G01*
X116467593Y-164215908D01*
X116686100Y-164395232D01*
X116844547Y-164479924D01*
X115594121Y-164477643D01*
X115748301Y-164395232D01*
X115966808Y-164215908D01*
X116146132Y-163997401D01*
X116217200Y-163864442D01*
X116288268Y-163997401D01*
X116288268Y-163997401D01*
G37*
X116288268Y-163997401D02*
X116467593Y-164215908D01*
X116686100Y-164395232D01*
X116844547Y-164479924D01*
X115594121Y-164477643D01*
X115748301Y-164395232D01*
X115966808Y-164215908D01*
X116146132Y-163997401D01*
X116217200Y-163864442D01*
X116288268Y-163997401D01*
G36*
X110295273Y-158452223D02*
G01*
X110122930Y-158710152D01*
X110004218Y-158996748D01*
X109943700Y-159300996D01*
X109943700Y-159611204D01*
X110004218Y-159915452D01*
X110122930Y-160202048D01*
X110295273Y-160459977D01*
X110514623Y-160679327D01*
X110772552Y-160851670D01*
X111059148Y-160970382D01*
X111363396Y-161030900D01*
X111673604Y-161030900D01*
X111977852Y-160970382D01*
X112264448Y-160851670D01*
X112522377Y-160679327D01*
X112741727Y-160459977D01*
X112788500Y-160389976D01*
X112835273Y-160459977D01*
X113054623Y-160679327D01*
X113312552Y-160851670D01*
X113599148Y-160970382D01*
X113903396Y-161030900D01*
X114213604Y-161030900D01*
X114517852Y-160970382D01*
X114804448Y-160851670D01*
X115062377Y-160679327D01*
X115281727Y-160459977D01*
X115336841Y-160377493D01*
X115385273Y-160449977D01*
X115604623Y-160669327D01*
X115862552Y-160841670D01*
X116149148Y-160960382D01*
X116453396Y-161020900D01*
X116763604Y-161020900D01*
X117067852Y-160960382D01*
X117163539Y-160920747D01*
X117167755Y-160934647D01*
X117238327Y-161066677D01*
X117246861Y-161077075D01*
X117333301Y-161182402D01*
X117362299Y-161206200D01*
X117512997Y-161356898D01*
X117487200Y-161354357D01*
X117205891Y-161382064D01*
X116935392Y-161464118D01*
X116686099Y-161597368D01*
X116467592Y-161776693D01*
X116288268Y-161995200D01*
X116217200Y-162128158D01*
X116146132Y-161995199D01*
X115966807Y-161776692D01*
X115748300Y-161597368D01*
X115499007Y-161464118D01*
X115228508Y-161382064D01*
X114947200Y-161354357D01*
X114665891Y-161382064D01*
X114395392Y-161464118D01*
X114146099Y-161597368D01*
X113927592Y-161776693D01*
X113748268Y-161995200D01*
X113615018Y-162244493D01*
X113532964Y-162514992D01*
X113512200Y-162725809D01*
X113512200Y-163266792D01*
X113532964Y-163477609D01*
X113615018Y-163748108D01*
X113748268Y-163997401D01*
X113927593Y-164215908D01*
X114146100Y-164395232D01*
X114295851Y-164475275D01*
X108788052Y-164465231D01*
X108780884Y-158315000D01*
X110432496Y-158315000D01*
X110295273Y-158452223D01*
X110295273Y-158452223D01*
G37*
X110295273Y-158452223D02*
X110122930Y-158710152D01*
X110004218Y-158996748D01*
X109943700Y-159300996D01*
X109943700Y-159611204D01*
X110004218Y-159915452D01*
X110122930Y-160202048D01*
X110295273Y-160459977D01*
X110514623Y-160679327D01*
X110772552Y-160851670D01*
X111059148Y-160970382D01*
X111363396Y-161030900D01*
X111673604Y-161030900D01*
X111977852Y-160970382D01*
X112264448Y-160851670D01*
X112522377Y-160679327D01*
X112741727Y-160459977D01*
X112788500Y-160389976D01*
X112835273Y-160459977D01*
X113054623Y-160679327D01*
X113312552Y-160851670D01*
X113599148Y-160970382D01*
X113903396Y-161030900D01*
X114213604Y-161030900D01*
X114517852Y-160970382D01*
X114804448Y-160851670D01*
X115062377Y-160679327D01*
X115281727Y-160459977D01*
X115336841Y-160377493D01*
X115385273Y-160449977D01*
X115604623Y-160669327D01*
X115862552Y-160841670D01*
X116149148Y-160960382D01*
X116453396Y-161020900D01*
X116763604Y-161020900D01*
X117067852Y-160960382D01*
X117163539Y-160920747D01*
X117167755Y-160934647D01*
X117238327Y-161066677D01*
X117246861Y-161077075D01*
X117333301Y-161182402D01*
X117362299Y-161206200D01*
X117512997Y-161356898D01*
X117487200Y-161354357D01*
X117205891Y-161382064D01*
X116935392Y-161464118D01*
X116686099Y-161597368D01*
X116467592Y-161776693D01*
X116288268Y-161995200D01*
X116217200Y-162128158D01*
X116146132Y-161995199D01*
X115966807Y-161776692D01*
X115748300Y-161597368D01*
X115499007Y-161464118D01*
X115228508Y-161382064D01*
X114947200Y-161354357D01*
X114665891Y-161382064D01*
X114395392Y-161464118D01*
X114146099Y-161597368D01*
X113927592Y-161776693D01*
X113748268Y-161995200D01*
X113615018Y-162244493D01*
X113532964Y-162514992D01*
X113512200Y-162725809D01*
X113512200Y-163266792D01*
X113532964Y-163477609D01*
X113615018Y-163748108D01*
X113748268Y-163997401D01*
X113927593Y-164215908D01*
X114146100Y-164395232D01*
X114295851Y-164475275D01*
X108788052Y-164465231D01*
X108780884Y-158315000D01*
X110432496Y-158315000D01*
X110295273Y-158452223D01*
G36*
X119718153Y-160945045D02*
G01*
X119788725Y-161077075D01*
X119859900Y-161163801D01*
X119883699Y-161192800D01*
X119912697Y-161216598D01*
X120052997Y-161356898D01*
X120027200Y-161354357D01*
X119745891Y-161382064D01*
X119701294Y-161395592D01*
X119321127Y-161015425D01*
X119597852Y-160960382D01*
X119708858Y-160914402D01*
X119718153Y-160945045D01*
X119718153Y-160945045D01*
G37*
X119718153Y-160945045D02*
X119788725Y-161077075D01*
X119859900Y-161163801D01*
X119883699Y-161192800D01*
X119912697Y-161216598D01*
X120052997Y-161356898D01*
X120027200Y-161354357D01*
X119745891Y-161382064D01*
X119701294Y-161395592D01*
X119321127Y-161015425D01*
X119597852Y-160960382D01*
X119708858Y-160914402D01*
X119718153Y-160945045D01*
G36*
X115385273Y-158442223D02*
G01*
X115330159Y-158524707D01*
X115281727Y-158452223D01*
X115144504Y-158315000D01*
X115512496Y-158315000D01*
X115385273Y-158442223D01*
X115385273Y-158442223D01*
G37*
X115385273Y-158442223D02*
X115330159Y-158524707D01*
X115281727Y-158452223D01*
X115144504Y-158315000D01*
X115512496Y-158315000D01*
X115385273Y-158442223D01*
G36*
X112835273Y-158452223D02*
G01*
X112788500Y-158522224D01*
X112741727Y-158452223D01*
X112604504Y-158315000D01*
X112972496Y-158315000D01*
X112835273Y-158452223D01*
X112835273Y-158452223D01*
G37*
X112835273Y-158452223D02*
X112788500Y-158522224D01*
X112741727Y-158452223D01*
X112604504Y-158315000D01*
X112972496Y-158315000D01*
X112835273Y-158452223D01*
G36*
X129445699Y-153164100D02*
G01*
X124671278Y-157938521D01*
X124383604Y-157881300D01*
X124073396Y-157881300D01*
X123874192Y-157920924D01*
X123263000Y-157309733D01*
X123263000Y-153564949D01*
X123270620Y-153487582D01*
X123270620Y-153487573D01*
X123274659Y-153446565D01*
X123274133Y-153441223D01*
X123334688Y-153295029D01*
X123370620Y-153114389D01*
X123370620Y-152930211D01*
X123334688Y-152749571D01*
X123264206Y-152579411D01*
X123161882Y-152426272D01*
X123031648Y-152296038D01*
X122878509Y-152193714D01*
X122708349Y-152123232D01*
X122527709Y-152087300D01*
X122343531Y-152087300D01*
X122162891Y-152123232D01*
X121992731Y-152193714D01*
X121839592Y-152296038D01*
X121709358Y-152426272D01*
X121607034Y-152579411D01*
X121536552Y-152749571D01*
X121500620Y-152930211D01*
X121500620Y-153114389D01*
X121536552Y-153295029D01*
X121591556Y-153427822D01*
X121588960Y-153454184D01*
X121593000Y-153495203D01*
X121593001Y-157614572D01*
X121588960Y-157655600D01*
X121605082Y-157819288D01*
X121623893Y-157881300D01*
X121533396Y-157881300D01*
X121229148Y-157941818D01*
X121183699Y-157960644D01*
X121183699Y-149582122D01*
X121187375Y-149544799D01*
X121183699Y-149507476D01*
X121183699Y-149507466D01*
X121172702Y-149395813D01*
X121129245Y-149252552D01*
X121058673Y-149120523D01*
X120963700Y-149004798D01*
X120934703Y-148981001D01*
X118298299Y-146344598D01*
X118298299Y-145295374D01*
X118382552Y-145351670D01*
X118669148Y-145470382D01*
X118973396Y-145530900D01*
X119283604Y-145530900D01*
X119587852Y-145470382D01*
X119874448Y-145351670D01*
X120132377Y-145179327D01*
X120351727Y-144959977D01*
X120408500Y-144875010D01*
X120465273Y-144959977D01*
X120684623Y-145179327D01*
X120942552Y-145351670D01*
X121229148Y-145470382D01*
X121533396Y-145530900D01*
X121843604Y-145530900D01*
X122147852Y-145470382D01*
X122434448Y-145351670D01*
X122692377Y-145179327D01*
X122911727Y-144959977D01*
X122953500Y-144897459D01*
X122995273Y-144959977D01*
X123214623Y-145179327D01*
X123472552Y-145351670D01*
X123759148Y-145470382D01*
X124063396Y-145530900D01*
X124373604Y-145530900D01*
X124677852Y-145470382D01*
X124964448Y-145351670D01*
X125222377Y-145179327D01*
X125441727Y-144959977D01*
X125491841Y-144884976D01*
X125535273Y-144949977D01*
X125754623Y-145169327D01*
X126012552Y-145341670D01*
X126299148Y-145460382D01*
X126603396Y-145520900D01*
X126913604Y-145520900D01*
X127217852Y-145460382D01*
X127504448Y-145341670D01*
X127762377Y-145169327D01*
X127981727Y-144949977D01*
X128154070Y-144692048D01*
X128272782Y-144405452D01*
X128333300Y-144101204D01*
X128333300Y-143790996D01*
X128272782Y-143486748D01*
X128154070Y-143200152D01*
X127981727Y-142942223D01*
X127952604Y-142913100D01*
X129463578Y-142913100D01*
X129445699Y-153164100D01*
X129445699Y-153164100D01*
G37*
X129445699Y-153164100D02*
X124671278Y-157938521D01*
X124383604Y-157881300D01*
X124073396Y-157881300D01*
X123874192Y-157920924D01*
X123263000Y-157309733D01*
X123263000Y-153564949D01*
X123270620Y-153487582D01*
X123270620Y-153487573D01*
X123274659Y-153446565D01*
X123274133Y-153441223D01*
X123334688Y-153295029D01*
X123370620Y-153114389D01*
X123370620Y-152930211D01*
X123334688Y-152749571D01*
X123264206Y-152579411D01*
X123161882Y-152426272D01*
X123031648Y-152296038D01*
X122878509Y-152193714D01*
X122708349Y-152123232D01*
X122527709Y-152087300D01*
X122343531Y-152087300D01*
X122162891Y-152123232D01*
X121992731Y-152193714D01*
X121839592Y-152296038D01*
X121709358Y-152426272D01*
X121607034Y-152579411D01*
X121536552Y-152749571D01*
X121500620Y-152930211D01*
X121500620Y-153114389D01*
X121536552Y-153295029D01*
X121591556Y-153427822D01*
X121588960Y-153454184D01*
X121593000Y-153495203D01*
X121593001Y-157614572D01*
X121588960Y-157655600D01*
X121605082Y-157819288D01*
X121623893Y-157881300D01*
X121533396Y-157881300D01*
X121229148Y-157941818D01*
X121183699Y-157960644D01*
X121183699Y-149582122D01*
X121187375Y-149544799D01*
X121183699Y-149507476D01*
X121183699Y-149507466D01*
X121172702Y-149395813D01*
X121129245Y-149252552D01*
X121058673Y-149120523D01*
X120963700Y-149004798D01*
X120934703Y-148981001D01*
X118298299Y-146344598D01*
X118298299Y-145295374D01*
X118382552Y-145351670D01*
X118669148Y-145470382D01*
X118973396Y-145530900D01*
X119283604Y-145530900D01*
X119587852Y-145470382D01*
X119874448Y-145351670D01*
X120132377Y-145179327D01*
X120351727Y-144959977D01*
X120408500Y-144875010D01*
X120465273Y-144959977D01*
X120684623Y-145179327D01*
X120942552Y-145351670D01*
X121229148Y-145470382D01*
X121533396Y-145530900D01*
X121843604Y-145530900D01*
X122147852Y-145470382D01*
X122434448Y-145351670D01*
X122692377Y-145179327D01*
X122911727Y-144959977D01*
X122953500Y-144897459D01*
X122995273Y-144959977D01*
X123214623Y-145179327D01*
X123472552Y-145351670D01*
X123759148Y-145470382D01*
X124063396Y-145530900D01*
X124373604Y-145530900D01*
X124677852Y-145470382D01*
X124964448Y-145351670D01*
X125222377Y-145179327D01*
X125441727Y-144959977D01*
X125491841Y-144884976D01*
X125535273Y-144949977D01*
X125754623Y-145169327D01*
X126012552Y-145341670D01*
X126299148Y-145460382D01*
X126603396Y-145520900D01*
X126913604Y-145520900D01*
X127217852Y-145460382D01*
X127504448Y-145341670D01*
X127762377Y-145169327D01*
X127981727Y-144949977D01*
X128154070Y-144692048D01*
X128272782Y-144405452D01*
X128333300Y-144101204D01*
X128333300Y-143790996D01*
X128272782Y-143486748D01*
X128154070Y-143200152D01*
X127981727Y-142942223D01*
X127952604Y-142913100D01*
X129463578Y-142913100D01*
X129445699Y-153164100D01*
G36*
X119663699Y-149859601D02*
G01*
X119663700Y-157959093D01*
X119597852Y-157931818D01*
X119293604Y-157871300D01*
X118983396Y-157871300D01*
X118679148Y-157931818D01*
X118633301Y-157950808D01*
X118633301Y-148829203D01*
X119663699Y-149859601D01*
X119663699Y-149859601D01*
G37*
X119663699Y-149859601D02*
X119663700Y-157959093D01*
X119597852Y-157931818D01*
X119293604Y-157871300D01*
X118983396Y-157871300D01*
X118679148Y-157931818D01*
X118633301Y-157950808D01*
X118633301Y-148829203D01*
X119663699Y-149859601D01*
G36*
X117113302Y-157950644D02*
G01*
X117078118Y-157936070D01*
X117086926Y-157922889D01*
X117113302Y-157859212D01*
X117113302Y-157950644D01*
X117113302Y-157950644D01*
G37*
X117113302Y-157950644D02*
X117078118Y-157936070D01*
X117086926Y-157922889D01*
X117113302Y-157859212D01*
X117113302Y-157950644D01*
G36*
X110295273Y-142952223D02*
G01*
X110122930Y-143210152D01*
X110004218Y-143496748D01*
X109943700Y-143800996D01*
X109943700Y-144111204D01*
X110004218Y-144415452D01*
X110122930Y-144702048D01*
X110295273Y-144959977D01*
X110514623Y-145179327D01*
X110772552Y-145351670D01*
X111059148Y-145470382D01*
X111363396Y-145530900D01*
X111673604Y-145530900D01*
X111977852Y-145470382D01*
X112264448Y-145351670D01*
X112522377Y-145179327D01*
X112741727Y-144959977D01*
X112793500Y-144882493D01*
X112845273Y-144959977D01*
X113064623Y-145179327D01*
X113322552Y-145351670D01*
X113609148Y-145470382D01*
X113913396Y-145530900D01*
X114223604Y-145530900D01*
X114511278Y-145473679D01*
X117113301Y-148075703D01*
X117113302Y-157100788D01*
X117086926Y-157037111D01*
X116984602Y-156883972D01*
X116854368Y-156753738D01*
X116701229Y-156651414D01*
X116531069Y-156580932D01*
X116350429Y-156545000D01*
X116166251Y-156545000D01*
X115985611Y-156580932D01*
X115830936Y-156645000D01*
X108778938Y-156645000D01*
X108762933Y-142913100D01*
X110334396Y-142913100D01*
X110295273Y-142952223D01*
X110295273Y-142952223D01*
G37*
X110295273Y-142952223D02*
X110122930Y-143210152D01*
X110004218Y-143496748D01*
X109943700Y-143800996D01*
X109943700Y-144111204D01*
X110004218Y-144415452D01*
X110122930Y-144702048D01*
X110295273Y-144959977D01*
X110514623Y-145179327D01*
X110772552Y-145351670D01*
X111059148Y-145470382D01*
X111363396Y-145530900D01*
X111673604Y-145530900D01*
X111977852Y-145470382D01*
X112264448Y-145351670D01*
X112522377Y-145179327D01*
X112741727Y-144959977D01*
X112793500Y-144882493D01*
X112845273Y-144959977D01*
X113064623Y-145179327D01*
X113322552Y-145351670D01*
X113609148Y-145470382D01*
X113913396Y-145530900D01*
X114223604Y-145530900D01*
X114511278Y-145473679D01*
X117113301Y-148075703D01*
X117113302Y-157100788D01*
X117086926Y-157037111D01*
X116984602Y-156883972D01*
X116854368Y-156753738D01*
X116701229Y-156651414D01*
X116531069Y-156580932D01*
X116350429Y-156545000D01*
X116166251Y-156545000D01*
X115985611Y-156580932D01*
X115830936Y-156645000D01*
X108778938Y-156645000D01*
X108762933Y-142913100D01*
X110334396Y-142913100D01*
X110295273Y-142952223D01*
G36*
X116778299Y-145591098D02*
G01*
X116718102Y-145530900D01*
X116753604Y-145530900D01*
X116778299Y-145525988D01*
X116778299Y-145591098D01*
X116778299Y-145591098D01*
G37*
X116778299Y-145591098D02*
X116718102Y-145530900D01*
X116753604Y-145530900D01*
X116778299Y-145525988D01*
X116778299Y-145591098D01*
G36*
X120465273Y-142952223D02*
G01*
X120408500Y-143037190D01*
X120351727Y-142952223D01*
X120312604Y-142913100D01*
X120504396Y-142913100D01*
X120465273Y-142952223D01*
X120465273Y-142952223D01*
G37*
X120465273Y-142952223D02*
X120408500Y-143037190D01*
X120351727Y-142952223D01*
X120312604Y-142913100D01*
X120504396Y-142913100D01*
X120465273Y-142952223D01*
G36*
X112845273Y-142952223D02*
G01*
X112793500Y-143029707D01*
X112741727Y-142952223D01*
X112702604Y-142913100D01*
X112884396Y-142913100D01*
X112845273Y-142952223D01*
X112845273Y-142952223D01*
G37*
X112845273Y-142952223D02*
X112793500Y-143029707D01*
X112741727Y-142952223D01*
X112702604Y-142913100D01*
X112884396Y-142913100D01*
X112845273Y-142952223D01*
G36*
X122995273Y-142952223D02*
G01*
X122953500Y-143014741D01*
X122911727Y-142952223D01*
X122872604Y-142913100D01*
X123034396Y-142913100D01*
X122995273Y-142952223D01*
X122995273Y-142952223D01*
G37*
X122995273Y-142952223D02*
X122953500Y-143014741D01*
X122911727Y-142952223D01*
X122872604Y-142913100D01*
X123034396Y-142913100D01*
X122995273Y-142952223D01*
G36*
X117905273Y-142952223D02*
G01*
X117863500Y-143014741D01*
X117821727Y-142952223D01*
X117782604Y-142913100D01*
X117944396Y-142913100D01*
X117905273Y-142952223D01*
X117905273Y-142952223D01*
G37*
X117905273Y-142952223D02*
X117863500Y-143014741D01*
X117821727Y-142952223D01*
X117782604Y-142913100D01*
X117944396Y-142913100D01*
X117905273Y-142952223D01*
G36*
X115375273Y-142952223D02*
G01*
X115333500Y-143014741D01*
X115291727Y-142952223D01*
X115252604Y-142913100D01*
X115414396Y-142913100D01*
X115375273Y-142952223D01*
X115375273Y-142952223D01*
G37*
X115375273Y-142952223D02*
X115333500Y-143014741D01*
X115291727Y-142952223D01*
X115252604Y-142913100D01*
X115414396Y-142913100D01*
X115375273Y-142952223D01*
M02*
