G04 #@! TF.GenerationSoftware,KiCad,Pcbnew,(5.1.2)-1*
G04 #@! TF.CreationDate,2022-09-08T09:55:22+09:00*
G04 #@! TF.ProjectId,gopher_xiao,676f7068-6572-45f7-9869-616f2e6b6963,rev?*
G04 #@! TF.SameCoordinates,Original*
G04 #@! TF.FileFunction,Soldermask,Bot*
G04 #@! TF.FilePolarity,Negative*
%FSLAX46Y46*%
G04 Gerber Fmt 4.6, Leading zero omitted, Abs format (unit mm)*
G04 Created by KiCad (PCBNEW (5.1.2)-1) date 2022-09-08 09:55:22*
%MOMM*%
%LPD*%
G04 APERTURE LIST*
%ADD10C,0.100000*%
G04 APERTURE END LIST*
D10*
G36*
X120194022Y-161957613D02*
G01*
X120354441Y-162006276D01*
X120502277Y-162085295D01*
X120631859Y-162191641D01*
X120738204Y-162321222D01*
X120738205Y-162321224D01*
X120817224Y-162469058D01*
X120865887Y-162629477D01*
X120878200Y-162754496D01*
X120878200Y-163238103D01*
X120865887Y-163363122D01*
X120817224Y-163523542D01*
X120746314Y-163656206D01*
X120738204Y-163671378D01*
X120631859Y-163800959D01*
X120502278Y-163907304D01*
X120502276Y-163907305D01*
X120354442Y-163986324D01*
X120194023Y-164034987D01*
X120027200Y-164051417D01*
X119860378Y-164034987D01*
X119699959Y-163986324D01*
X119552125Y-163907305D01*
X119552123Y-163907304D01*
X119422542Y-163800959D01*
X119316196Y-163671378D01*
X119308086Y-163656206D01*
X119237176Y-163523542D01*
X119188513Y-163363123D01*
X119176200Y-163238104D01*
X119176200Y-162754497D01*
X119188513Y-162629478D01*
X119237176Y-162469059D01*
X119316195Y-162321223D01*
X119422541Y-162191641D01*
X119552122Y-162085296D01*
X119567294Y-162077186D01*
X119699958Y-162006276D01*
X119860377Y-161957613D01*
X120027200Y-161941183D01*
X120194022Y-161957613D01*
X120194022Y-161957613D01*
G37*
G36*
X122734022Y-161957613D02*
G01*
X122894441Y-162006276D01*
X123042277Y-162085295D01*
X123171859Y-162191641D01*
X123278204Y-162321222D01*
X123278205Y-162321224D01*
X123357224Y-162469058D01*
X123405887Y-162629477D01*
X123418200Y-162754496D01*
X123418200Y-163238103D01*
X123405887Y-163363122D01*
X123357224Y-163523542D01*
X123286314Y-163656206D01*
X123278204Y-163671378D01*
X123171859Y-163800959D01*
X123042278Y-163907304D01*
X123042276Y-163907305D01*
X122894442Y-163986324D01*
X122734023Y-164034987D01*
X122567200Y-164051417D01*
X122400378Y-164034987D01*
X122239959Y-163986324D01*
X122092125Y-163907305D01*
X122092123Y-163907304D01*
X121962542Y-163800959D01*
X121856196Y-163671378D01*
X121848086Y-163656206D01*
X121777176Y-163523542D01*
X121728513Y-163363123D01*
X121716200Y-163238104D01*
X121716200Y-162754497D01*
X121728513Y-162629478D01*
X121777176Y-162469059D01*
X121856195Y-162321223D01*
X121962541Y-162191641D01*
X122092122Y-162085296D01*
X122107294Y-162077186D01*
X122239958Y-162006276D01*
X122400377Y-161957613D01*
X122567200Y-161941183D01*
X122734022Y-161957613D01*
X122734022Y-161957613D01*
G37*
G36*
X115114022Y-161957613D02*
G01*
X115274441Y-162006276D01*
X115422277Y-162085295D01*
X115551859Y-162191641D01*
X115658204Y-162321222D01*
X115658205Y-162321224D01*
X115737224Y-162469058D01*
X115785887Y-162629477D01*
X115798200Y-162754496D01*
X115798200Y-163238103D01*
X115785887Y-163363122D01*
X115737224Y-163523542D01*
X115666314Y-163656206D01*
X115658204Y-163671378D01*
X115551859Y-163800959D01*
X115422278Y-163907304D01*
X115422276Y-163907305D01*
X115274442Y-163986324D01*
X115114023Y-164034987D01*
X114947200Y-164051417D01*
X114780378Y-164034987D01*
X114619959Y-163986324D01*
X114472125Y-163907305D01*
X114472123Y-163907304D01*
X114342542Y-163800959D01*
X114236196Y-163671378D01*
X114228086Y-163656206D01*
X114157176Y-163523542D01*
X114108513Y-163363123D01*
X114096200Y-163238104D01*
X114096200Y-162754497D01*
X114108513Y-162629478D01*
X114157176Y-162469059D01*
X114236195Y-162321223D01*
X114342541Y-162191641D01*
X114472122Y-162085296D01*
X114487294Y-162077186D01*
X114619958Y-162006276D01*
X114780377Y-161957613D01*
X114947200Y-161941183D01*
X115114022Y-161957613D01*
X115114022Y-161957613D01*
G37*
G36*
X117654022Y-161957613D02*
G01*
X117814441Y-162006276D01*
X117962277Y-162085295D01*
X118091859Y-162191641D01*
X118198204Y-162321222D01*
X118198205Y-162321224D01*
X118277224Y-162469058D01*
X118325887Y-162629477D01*
X118338200Y-162754496D01*
X118338200Y-163238103D01*
X118325887Y-163363122D01*
X118277224Y-163523542D01*
X118206314Y-163656206D01*
X118198204Y-163671378D01*
X118091859Y-163800959D01*
X117962278Y-163907304D01*
X117962276Y-163907305D01*
X117814442Y-163986324D01*
X117654023Y-164034987D01*
X117487200Y-164051417D01*
X117320378Y-164034987D01*
X117159959Y-163986324D01*
X117012125Y-163907305D01*
X117012123Y-163907304D01*
X116882542Y-163800959D01*
X116776196Y-163671378D01*
X116768086Y-163656206D01*
X116697176Y-163523542D01*
X116648513Y-163363123D01*
X116636200Y-163238104D01*
X116636200Y-162754497D01*
X116648513Y-162629478D01*
X116697176Y-162469059D01*
X116776195Y-162321223D01*
X116882541Y-162191641D01*
X117012122Y-162085296D01*
X117027294Y-162077186D01*
X117159958Y-162006276D01*
X117320377Y-161957613D01*
X117487200Y-161941183D01*
X117654022Y-161957613D01*
X117654022Y-161957613D01*
G37*
G36*
X127062265Y-158454720D02*
G01*
X127227644Y-158523222D01*
X127251788Y-158533223D01*
X127422354Y-158647192D01*
X127567408Y-158792246D01*
X127681377Y-158962812D01*
X127759880Y-159152335D01*
X127799900Y-159353531D01*
X127799900Y-159558669D01*
X127759880Y-159759865D01*
X127681377Y-159949388D01*
X127567408Y-160119954D01*
X127422354Y-160265008D01*
X127251788Y-160378977D01*
X127251787Y-160378978D01*
X127251786Y-160378978D01*
X127062265Y-160457480D01*
X126861070Y-160497500D01*
X126655930Y-160497500D01*
X126454735Y-160457480D01*
X126265214Y-160378978D01*
X126265213Y-160378978D01*
X126265212Y-160378977D01*
X126094646Y-160265008D01*
X125949592Y-160119954D01*
X125835623Y-159949388D01*
X125757120Y-159759865D01*
X125717100Y-159558669D01*
X125717100Y-159353531D01*
X125757120Y-159152335D01*
X125835623Y-158962812D01*
X125949592Y-158792246D01*
X126094646Y-158647192D01*
X126265212Y-158533223D01*
X126289357Y-158523222D01*
X126454735Y-158454720D01*
X126655930Y-158414700D01*
X126861070Y-158414700D01*
X127062265Y-158454720D01*
X127062265Y-158454720D01*
G37*
G36*
X111822265Y-158454720D02*
G01*
X111987644Y-158523222D01*
X112011788Y-158533223D01*
X112182354Y-158647192D01*
X112327408Y-158792246D01*
X112441377Y-158962812D01*
X112519880Y-159152335D01*
X112559900Y-159353531D01*
X112559900Y-159558669D01*
X112519880Y-159759865D01*
X112441377Y-159949388D01*
X112327408Y-160119954D01*
X112182354Y-160265008D01*
X112011788Y-160378977D01*
X112011787Y-160378978D01*
X112011786Y-160378978D01*
X111822265Y-160457480D01*
X111621070Y-160497500D01*
X111415930Y-160497500D01*
X111214735Y-160457480D01*
X111025214Y-160378978D01*
X111025213Y-160378978D01*
X111025212Y-160378977D01*
X110854646Y-160265008D01*
X110709592Y-160119954D01*
X110595623Y-159949388D01*
X110517120Y-159759865D01*
X110477100Y-159558669D01*
X110477100Y-159353531D01*
X110517120Y-159152335D01*
X110595623Y-158962812D01*
X110709592Y-158792246D01*
X110854646Y-158647192D01*
X111025212Y-158533223D01*
X111049357Y-158523222D01*
X111214735Y-158454720D01*
X111415930Y-158414700D01*
X111621070Y-158414700D01*
X111822265Y-158454720D01*
X111822265Y-158454720D01*
G37*
G36*
X114362265Y-158454720D02*
G01*
X114527644Y-158523222D01*
X114551788Y-158533223D01*
X114722354Y-158647192D01*
X114867408Y-158792246D01*
X114981377Y-158962812D01*
X115059880Y-159152335D01*
X115099900Y-159353531D01*
X115099900Y-159558669D01*
X115059880Y-159759865D01*
X114981377Y-159949388D01*
X114867408Y-160119954D01*
X114722354Y-160265008D01*
X114551788Y-160378977D01*
X114551787Y-160378978D01*
X114551786Y-160378978D01*
X114362265Y-160457480D01*
X114161070Y-160497500D01*
X113955930Y-160497500D01*
X113754735Y-160457480D01*
X113565214Y-160378978D01*
X113565213Y-160378978D01*
X113565212Y-160378977D01*
X113394646Y-160265008D01*
X113249592Y-160119954D01*
X113135623Y-159949388D01*
X113057120Y-159759865D01*
X113017100Y-159558669D01*
X113017100Y-159353531D01*
X113057120Y-159152335D01*
X113135623Y-158962812D01*
X113249592Y-158792246D01*
X113394646Y-158647192D01*
X113565212Y-158533223D01*
X113589357Y-158523222D01*
X113754735Y-158454720D01*
X113955930Y-158414700D01*
X114161070Y-158414700D01*
X114362265Y-158454720D01*
X114362265Y-158454720D01*
G37*
G36*
X121992265Y-158454720D02*
G01*
X122157644Y-158523222D01*
X122181788Y-158533223D01*
X122352354Y-158647192D01*
X122497408Y-158792246D01*
X122611377Y-158962812D01*
X122689880Y-159152335D01*
X122729900Y-159353531D01*
X122729900Y-159558669D01*
X122689880Y-159759865D01*
X122611377Y-159949388D01*
X122497408Y-160119954D01*
X122352354Y-160265008D01*
X122181788Y-160378977D01*
X122181787Y-160378978D01*
X122181786Y-160378978D01*
X121992265Y-160457480D01*
X121791070Y-160497500D01*
X121585930Y-160497500D01*
X121384735Y-160457480D01*
X121195214Y-160378978D01*
X121195213Y-160378978D01*
X121195212Y-160378977D01*
X121024646Y-160265008D01*
X120879592Y-160119954D01*
X120765623Y-159949388D01*
X120687120Y-159759865D01*
X120647100Y-159558669D01*
X120647100Y-159353531D01*
X120687120Y-159152335D01*
X120765623Y-158962812D01*
X120879592Y-158792246D01*
X121024646Y-158647192D01*
X121195212Y-158533223D01*
X121219357Y-158523222D01*
X121384735Y-158454720D01*
X121585930Y-158414700D01*
X121791070Y-158414700D01*
X121992265Y-158454720D01*
X121992265Y-158454720D01*
G37*
G36*
X124532265Y-158454720D02*
G01*
X124697644Y-158523222D01*
X124721788Y-158533223D01*
X124892354Y-158647192D01*
X125037408Y-158792246D01*
X125151377Y-158962812D01*
X125229880Y-159152335D01*
X125269900Y-159353531D01*
X125269900Y-159558669D01*
X125229880Y-159759865D01*
X125151377Y-159949388D01*
X125037408Y-160119954D01*
X124892354Y-160265008D01*
X124721788Y-160378977D01*
X124721787Y-160378978D01*
X124721786Y-160378978D01*
X124532265Y-160457480D01*
X124331070Y-160497500D01*
X124125930Y-160497500D01*
X123924735Y-160457480D01*
X123735214Y-160378978D01*
X123735213Y-160378978D01*
X123735212Y-160378977D01*
X123564646Y-160265008D01*
X123419592Y-160119954D01*
X123305623Y-159949388D01*
X123227120Y-159759865D01*
X123187100Y-159558669D01*
X123187100Y-159353531D01*
X123227120Y-159152335D01*
X123305623Y-158962812D01*
X123419592Y-158792246D01*
X123564646Y-158647192D01*
X123735212Y-158533223D01*
X123759357Y-158523222D01*
X123924735Y-158454720D01*
X124125930Y-158414700D01*
X124331070Y-158414700D01*
X124532265Y-158454720D01*
X124532265Y-158454720D01*
G37*
G36*
X119442265Y-158444720D02*
G01*
X119631788Y-158523223D01*
X119802354Y-158637192D01*
X119947408Y-158782246D01*
X120061377Y-158952812D01*
X120139880Y-159142335D01*
X120179900Y-159343531D01*
X120179900Y-159548669D01*
X120139880Y-159749865D01*
X120061377Y-159939388D01*
X119947408Y-160109954D01*
X119802354Y-160255008D01*
X119631788Y-160368977D01*
X119631787Y-160368978D01*
X119631786Y-160368978D01*
X119442265Y-160447480D01*
X119241070Y-160487500D01*
X119035930Y-160487500D01*
X118834735Y-160447480D01*
X118645214Y-160368978D01*
X118645213Y-160368978D01*
X118645212Y-160368977D01*
X118474646Y-160255008D01*
X118329592Y-160109954D01*
X118215623Y-159939388D01*
X118137120Y-159749865D01*
X118097100Y-159548669D01*
X118097100Y-159343531D01*
X118137120Y-159142335D01*
X118215623Y-158952812D01*
X118329592Y-158782246D01*
X118474646Y-158637192D01*
X118645212Y-158523223D01*
X118834735Y-158444720D01*
X119035930Y-158404700D01*
X119241070Y-158404700D01*
X119442265Y-158444720D01*
X119442265Y-158444720D01*
G37*
G36*
X116912265Y-158444720D02*
G01*
X117101788Y-158523223D01*
X117272354Y-158637192D01*
X117417408Y-158782246D01*
X117531377Y-158952812D01*
X117609880Y-159142335D01*
X117649900Y-159343531D01*
X117649900Y-159548669D01*
X117609880Y-159749865D01*
X117531377Y-159939388D01*
X117417408Y-160109954D01*
X117272354Y-160255008D01*
X117101788Y-160368977D01*
X117101787Y-160368978D01*
X117101786Y-160368978D01*
X116912265Y-160447480D01*
X116711070Y-160487500D01*
X116505930Y-160487500D01*
X116304735Y-160447480D01*
X116115214Y-160368978D01*
X116115213Y-160368978D01*
X116115212Y-160368977D01*
X115944646Y-160255008D01*
X115799592Y-160109954D01*
X115685623Y-159939388D01*
X115607120Y-159749865D01*
X115567100Y-159548669D01*
X115567100Y-159343531D01*
X115607120Y-159142335D01*
X115685623Y-158952812D01*
X115799592Y-158782246D01*
X115944646Y-158637192D01*
X116115212Y-158523223D01*
X116304735Y-158444720D01*
X116505930Y-158404700D01*
X116711070Y-158404700D01*
X116912265Y-158444720D01*
X116912265Y-158444720D01*
G37*
G36*
X116902265Y-142954720D02*
G01*
X117067644Y-143023222D01*
X117091788Y-143033223D01*
X117262354Y-143147192D01*
X117407408Y-143292246D01*
X117521377Y-143462812D01*
X117599880Y-143652335D01*
X117639900Y-143853531D01*
X117639900Y-144058669D01*
X117599880Y-144259865D01*
X117521377Y-144449388D01*
X117407408Y-144619954D01*
X117262354Y-144765008D01*
X117091788Y-144878977D01*
X117091787Y-144878978D01*
X117091786Y-144878978D01*
X116902265Y-144957480D01*
X116701070Y-144997500D01*
X116495930Y-144997500D01*
X116294735Y-144957480D01*
X116105214Y-144878978D01*
X116105213Y-144878978D01*
X116105212Y-144878977D01*
X115934646Y-144765008D01*
X115789592Y-144619954D01*
X115675623Y-144449388D01*
X115597120Y-144259865D01*
X115557100Y-144058669D01*
X115557100Y-143853531D01*
X115597120Y-143652335D01*
X115675623Y-143462812D01*
X115789592Y-143292246D01*
X115934646Y-143147192D01*
X116105212Y-143033223D01*
X116129357Y-143023222D01*
X116294735Y-142954720D01*
X116495930Y-142914700D01*
X116701070Y-142914700D01*
X116902265Y-142954720D01*
X116902265Y-142954720D01*
G37*
G36*
X124522265Y-142954720D02*
G01*
X124687644Y-143023222D01*
X124711788Y-143033223D01*
X124882354Y-143147192D01*
X125027408Y-143292246D01*
X125141377Y-143462812D01*
X125219880Y-143652335D01*
X125259900Y-143853531D01*
X125259900Y-144058669D01*
X125219880Y-144259865D01*
X125141377Y-144449388D01*
X125027408Y-144619954D01*
X124882354Y-144765008D01*
X124711788Y-144878977D01*
X124711787Y-144878978D01*
X124711786Y-144878978D01*
X124522265Y-144957480D01*
X124321070Y-144997500D01*
X124115930Y-144997500D01*
X123914735Y-144957480D01*
X123725214Y-144878978D01*
X123725213Y-144878978D01*
X123725212Y-144878977D01*
X123554646Y-144765008D01*
X123409592Y-144619954D01*
X123295623Y-144449388D01*
X123217120Y-144259865D01*
X123177100Y-144058669D01*
X123177100Y-143853531D01*
X123217120Y-143652335D01*
X123295623Y-143462812D01*
X123409592Y-143292246D01*
X123554646Y-143147192D01*
X123725212Y-143033223D01*
X123749357Y-143023222D01*
X123914735Y-142954720D01*
X124115930Y-142914700D01*
X124321070Y-142914700D01*
X124522265Y-142954720D01*
X124522265Y-142954720D01*
G37*
G36*
X121992265Y-142954720D02*
G01*
X122157644Y-143023222D01*
X122181788Y-143033223D01*
X122352354Y-143147192D01*
X122497408Y-143292246D01*
X122611377Y-143462812D01*
X122689880Y-143652335D01*
X122729900Y-143853531D01*
X122729900Y-144058669D01*
X122689880Y-144259865D01*
X122611377Y-144449388D01*
X122497408Y-144619954D01*
X122352354Y-144765008D01*
X122181788Y-144878977D01*
X122181787Y-144878978D01*
X122181786Y-144878978D01*
X121992265Y-144957480D01*
X121791070Y-144997500D01*
X121585930Y-144997500D01*
X121384735Y-144957480D01*
X121195214Y-144878978D01*
X121195213Y-144878978D01*
X121195212Y-144878977D01*
X121024646Y-144765008D01*
X120879592Y-144619954D01*
X120765623Y-144449388D01*
X120687120Y-144259865D01*
X120647100Y-144058669D01*
X120647100Y-143853531D01*
X120687120Y-143652335D01*
X120765623Y-143462812D01*
X120879592Y-143292246D01*
X121024646Y-143147192D01*
X121195212Y-143033223D01*
X121219357Y-143023222D01*
X121384735Y-142954720D01*
X121585930Y-142914700D01*
X121791070Y-142914700D01*
X121992265Y-142954720D01*
X121992265Y-142954720D01*
G37*
G36*
X119432265Y-142954720D02*
G01*
X119597644Y-143023222D01*
X119621788Y-143033223D01*
X119792354Y-143147192D01*
X119937408Y-143292246D01*
X120051377Y-143462812D01*
X120129880Y-143652335D01*
X120169900Y-143853531D01*
X120169900Y-144058669D01*
X120129880Y-144259865D01*
X120051377Y-144449388D01*
X119937408Y-144619954D01*
X119792354Y-144765008D01*
X119621788Y-144878977D01*
X119621787Y-144878978D01*
X119621786Y-144878978D01*
X119432265Y-144957480D01*
X119231070Y-144997500D01*
X119025930Y-144997500D01*
X118824735Y-144957480D01*
X118635214Y-144878978D01*
X118635213Y-144878978D01*
X118635212Y-144878977D01*
X118464646Y-144765008D01*
X118319592Y-144619954D01*
X118205623Y-144449388D01*
X118127120Y-144259865D01*
X118087100Y-144058669D01*
X118087100Y-143853531D01*
X118127120Y-143652335D01*
X118205623Y-143462812D01*
X118319592Y-143292246D01*
X118464646Y-143147192D01*
X118635212Y-143033223D01*
X118659357Y-143023222D01*
X118824735Y-142954720D01*
X119025930Y-142914700D01*
X119231070Y-142914700D01*
X119432265Y-142954720D01*
X119432265Y-142954720D01*
G37*
G36*
X114372265Y-142954720D02*
G01*
X114537644Y-143023222D01*
X114561788Y-143033223D01*
X114732354Y-143147192D01*
X114877408Y-143292246D01*
X114991377Y-143462812D01*
X115069880Y-143652335D01*
X115109900Y-143853531D01*
X115109900Y-144058669D01*
X115069880Y-144259865D01*
X114991377Y-144449388D01*
X114877408Y-144619954D01*
X114732354Y-144765008D01*
X114561788Y-144878977D01*
X114561787Y-144878978D01*
X114561786Y-144878978D01*
X114372265Y-144957480D01*
X114171070Y-144997500D01*
X113965930Y-144997500D01*
X113764735Y-144957480D01*
X113575214Y-144878978D01*
X113575213Y-144878978D01*
X113575212Y-144878977D01*
X113404646Y-144765008D01*
X113259592Y-144619954D01*
X113145623Y-144449388D01*
X113067120Y-144259865D01*
X113027100Y-144058669D01*
X113027100Y-143853531D01*
X113067120Y-143652335D01*
X113145623Y-143462812D01*
X113259592Y-143292246D01*
X113404646Y-143147192D01*
X113575212Y-143033223D01*
X113599357Y-143023222D01*
X113764735Y-142954720D01*
X113965930Y-142914700D01*
X114171070Y-142914700D01*
X114372265Y-142954720D01*
X114372265Y-142954720D01*
G37*
G36*
X111822265Y-142954720D02*
G01*
X111987644Y-143023222D01*
X112011788Y-143033223D01*
X112182354Y-143147192D01*
X112327408Y-143292246D01*
X112441377Y-143462812D01*
X112519880Y-143652335D01*
X112559900Y-143853531D01*
X112559900Y-144058669D01*
X112519880Y-144259865D01*
X112441377Y-144449388D01*
X112327408Y-144619954D01*
X112182354Y-144765008D01*
X112011788Y-144878977D01*
X112011787Y-144878978D01*
X112011786Y-144878978D01*
X111822265Y-144957480D01*
X111621070Y-144997500D01*
X111415930Y-144997500D01*
X111214735Y-144957480D01*
X111025214Y-144878978D01*
X111025213Y-144878978D01*
X111025212Y-144878977D01*
X110854646Y-144765008D01*
X110709592Y-144619954D01*
X110595623Y-144449388D01*
X110517120Y-144259865D01*
X110477100Y-144058669D01*
X110477100Y-143853531D01*
X110517120Y-143652335D01*
X110595623Y-143462812D01*
X110709592Y-143292246D01*
X110854646Y-143147192D01*
X111025212Y-143033223D01*
X111049357Y-143023222D01*
X111214735Y-142954720D01*
X111415930Y-142914700D01*
X111621070Y-142914700D01*
X111822265Y-142954720D01*
X111822265Y-142954720D01*
G37*
G36*
X127062265Y-142944720D02*
G01*
X127251788Y-143023223D01*
X127422354Y-143137192D01*
X127567408Y-143282246D01*
X127681377Y-143452812D01*
X127759880Y-143642335D01*
X127799900Y-143843531D01*
X127799900Y-144048669D01*
X127759880Y-144249865D01*
X127681377Y-144439388D01*
X127567408Y-144609954D01*
X127422354Y-144755008D01*
X127251788Y-144868977D01*
X127251787Y-144868978D01*
X127251786Y-144868978D01*
X127062265Y-144947480D01*
X126861070Y-144987500D01*
X126655930Y-144987500D01*
X126454735Y-144947480D01*
X126265214Y-144868978D01*
X126265213Y-144868978D01*
X126265212Y-144868977D01*
X126094646Y-144755008D01*
X125949592Y-144609954D01*
X125835623Y-144439388D01*
X125757120Y-144249865D01*
X125717100Y-144048669D01*
X125717100Y-143843531D01*
X125757120Y-143642335D01*
X125835623Y-143452812D01*
X125949592Y-143282246D01*
X126094646Y-143137192D01*
X126265212Y-143023223D01*
X126454735Y-142944720D01*
X126655930Y-142904700D01*
X126861070Y-142904700D01*
X127062265Y-142944720D01*
X127062265Y-142944720D01*
G37*
G36*
X97815668Y-132430465D02*
G01*
X97854338Y-132442196D01*
X97889977Y-132461246D01*
X97921217Y-132486883D01*
X97946854Y-132518123D01*
X97965904Y-132553762D01*
X97977635Y-132592432D01*
X97982200Y-132638788D01*
X97982200Y-133290012D01*
X97977635Y-133336368D01*
X97965904Y-133375038D01*
X97946854Y-133410677D01*
X97921217Y-133441917D01*
X97889977Y-133467554D01*
X97854338Y-133486604D01*
X97815668Y-133498335D01*
X97769312Y-133502900D01*
X96693088Y-133502900D01*
X96646732Y-133498335D01*
X96608062Y-133486604D01*
X96572423Y-133467554D01*
X96541183Y-133441917D01*
X96515546Y-133410677D01*
X96496496Y-133375038D01*
X96484765Y-133336368D01*
X96480200Y-133290012D01*
X96480200Y-132638788D01*
X96484765Y-132592432D01*
X96496496Y-132553762D01*
X96515546Y-132518123D01*
X96541183Y-132486883D01*
X96572423Y-132461246D01*
X96608062Y-132442196D01*
X96646732Y-132430465D01*
X96693088Y-132425900D01*
X97769312Y-132425900D01*
X97815668Y-132430465D01*
X97815668Y-132430465D01*
G37*
G36*
X97815668Y-130555465D02*
G01*
X97854338Y-130567196D01*
X97889977Y-130586246D01*
X97921217Y-130611883D01*
X97946854Y-130643123D01*
X97965904Y-130678762D01*
X97977635Y-130717432D01*
X97982200Y-130763788D01*
X97982200Y-131415012D01*
X97977635Y-131461368D01*
X97965904Y-131500038D01*
X97946854Y-131535677D01*
X97921217Y-131566917D01*
X97889977Y-131592554D01*
X97854338Y-131611604D01*
X97815668Y-131623335D01*
X97769312Y-131627900D01*
X96693088Y-131627900D01*
X96646732Y-131623335D01*
X96608062Y-131611604D01*
X96572423Y-131592554D01*
X96541183Y-131566917D01*
X96515546Y-131535677D01*
X96496496Y-131500038D01*
X96484765Y-131461368D01*
X96480200Y-131415012D01*
X96480200Y-130763788D01*
X96484765Y-130717432D01*
X96496496Y-130678762D01*
X96515546Y-130643123D01*
X96541183Y-130611883D01*
X96572423Y-130586246D01*
X96608062Y-130567196D01*
X96646732Y-130555465D01*
X96693088Y-130550900D01*
X97769312Y-130550900D01*
X97815668Y-130555465D01*
X97815668Y-130555465D01*
G37*
G36*
X118030596Y-57380258D02*
G01*
X118136919Y-57401407D01*
X118437382Y-57525863D01*
X118707791Y-57706545D01*
X118937755Y-57936509D01*
X119118437Y-58206918D01*
X119242893Y-58507381D01*
X119306340Y-58826351D01*
X119306340Y-59151569D01*
X119242893Y-59470539D01*
X119118437Y-59771002D01*
X118937755Y-60041411D01*
X118707791Y-60271375D01*
X118437382Y-60452057D01*
X118136919Y-60576513D01*
X118030596Y-60597662D01*
X117817951Y-60639960D01*
X117492729Y-60639960D01*
X117280084Y-60597662D01*
X117173761Y-60576513D01*
X116873298Y-60452057D01*
X116602889Y-60271375D01*
X116372925Y-60041411D01*
X116192243Y-59771002D01*
X116067787Y-59470539D01*
X116004340Y-59151569D01*
X116004340Y-58826351D01*
X116067787Y-58507381D01*
X116192243Y-58206918D01*
X116372925Y-57936509D01*
X116602889Y-57706545D01*
X116873298Y-57525863D01*
X117173761Y-57401407D01*
X117280084Y-57380258D01*
X117492729Y-57337960D01*
X117817951Y-57337960D01*
X118030596Y-57380258D01*
X118030596Y-57380258D01*
G37*
M02*
