G04 #@! TF.GenerationSoftware,KiCad,Pcbnew,8.0.5-8.0.5-0~ubuntu24.04.1*
G04 #@! TF.CreationDate,2024-09-20T13:44:17+09:00*
G04 #@! TF.ProjectId,gopher_pilot_xiao_sw,676f7068-6572-45f7-9069-6c6f745f7869,rev?*
G04 #@! TF.SameCoordinates,Original*
G04 #@! TF.FileFunction,Soldermask,Bot*
G04 #@! TF.FilePolarity,Negative*
%FSLAX46Y46*%
G04 Gerber Fmt 4.6, Leading zero omitted, Abs format (unit mm)*
G04 Created by KiCad (PCBNEW 8.0.5-8.0.5-0~ubuntu24.04.1) date 2024-09-20 13:44:17*
%MOMM*%
%LPD*%
G01*
G04 APERTURE LIST*
G04 APERTURE END LIST*
G36*
X93750938Y-166654017D02*
G01*
X93796923Y-166654017D01*
X93848139Y-166663590D01*
X93905040Y-166669195D01*
X93948261Y-166682306D01*
X93987474Y-166689636D01*
X94041785Y-166710676D01*
X94102200Y-166729003D01*
X94136720Y-166747454D01*
X94168232Y-166759662D01*
X94222977Y-166793559D01*
X94283904Y-166826125D01*
X94309506Y-166847136D01*
X94333048Y-166861713D01*
X94385212Y-166909267D01*
X94443169Y-166956831D01*
X94460342Y-166977757D01*
X94476301Y-166992305D01*
X94522629Y-167053653D01*
X94573875Y-167116096D01*
X94583783Y-167134634D01*
X94593122Y-167147000D01*
X94630274Y-167221613D01*
X94670997Y-167297800D01*
X94675340Y-167312117D01*
X94679528Y-167320528D01*
X94704267Y-167407476D01*
X94730805Y-167494960D01*
X94731676Y-167503811D01*
X94732577Y-167506975D01*
X94741938Y-167608002D01*
X94751000Y-167700000D01*
X94741938Y-167792005D01*
X94732577Y-167893024D01*
X94731676Y-167896187D01*
X94730805Y-167905040D01*
X94704262Y-167992538D01*
X94679528Y-168079471D01*
X94675341Y-168087879D01*
X94670997Y-168102200D01*
X94630267Y-168178399D01*
X94593122Y-168252999D01*
X94583785Y-168265362D01*
X94573875Y-168283904D01*
X94522620Y-168346357D01*
X94476301Y-168407694D01*
X94460345Y-168422238D01*
X94443169Y-168443169D01*
X94385201Y-168490741D01*
X94333048Y-168538286D01*
X94309511Y-168552859D01*
X94283904Y-168573875D01*
X94222965Y-168606447D01*
X94168232Y-168640337D01*
X94136726Y-168652542D01*
X94102200Y-168670997D01*
X94041773Y-168689327D01*
X93987474Y-168710363D01*
X93948268Y-168717691D01*
X93905040Y-168730805D01*
X93848136Y-168736409D01*
X93796923Y-168745983D01*
X93750938Y-168745983D01*
X93700000Y-168751000D01*
X93649062Y-168745983D01*
X93603077Y-168745983D01*
X93551863Y-168736409D01*
X93494960Y-168730805D01*
X93451732Y-168717692D01*
X93412525Y-168710363D01*
X93358221Y-168689325D01*
X93297800Y-168670997D01*
X93263275Y-168652543D01*
X93231767Y-168640337D01*
X93177027Y-168606443D01*
X93116096Y-168573875D01*
X93090491Y-168552861D01*
X93066951Y-168538286D01*
X93014788Y-168490733D01*
X92956831Y-168443169D01*
X92939656Y-168422242D01*
X92923698Y-168407694D01*
X92877367Y-168346342D01*
X92826125Y-168283904D01*
X92816216Y-168265366D01*
X92806877Y-168252999D01*
X92769717Y-168178372D01*
X92729003Y-168102200D01*
X92724660Y-168087884D01*
X92720471Y-168079471D01*
X92695721Y-167992485D01*
X92669195Y-167905040D01*
X92668323Y-167896192D01*
X92667422Y-167893024D01*
X92658044Y-167791833D01*
X92649000Y-167700000D01*
X92658044Y-167608173D01*
X92667422Y-167506975D01*
X92668323Y-167503805D01*
X92669195Y-167494960D01*
X92695716Y-167407529D01*
X92720471Y-167320528D01*
X92724661Y-167312112D01*
X92729003Y-167297800D01*
X92769710Y-167221641D01*
X92806877Y-167147000D01*
X92816218Y-167134629D01*
X92826125Y-167116096D01*
X92877357Y-167053668D01*
X92923698Y-166992305D01*
X92939660Y-166977753D01*
X92956831Y-166956831D01*
X93014777Y-166909275D01*
X93066951Y-166861713D01*
X93090496Y-166847134D01*
X93116096Y-166826125D01*
X93177015Y-166793563D01*
X93231767Y-166759662D01*
X93263282Y-166747452D01*
X93297800Y-166729003D01*
X93358209Y-166710677D01*
X93412525Y-166689636D01*
X93451739Y-166682305D01*
X93494960Y-166669195D01*
X93551860Y-166663590D01*
X93603077Y-166654017D01*
X93649062Y-166654017D01*
X93700000Y-166649000D01*
X93750938Y-166654017D01*
G37*
G36*
X100250938Y-166654017D02*
G01*
X100296923Y-166654017D01*
X100348139Y-166663590D01*
X100405040Y-166669195D01*
X100448261Y-166682306D01*
X100487474Y-166689636D01*
X100541785Y-166710676D01*
X100602200Y-166729003D01*
X100636720Y-166747454D01*
X100668232Y-166759662D01*
X100722977Y-166793559D01*
X100783904Y-166826125D01*
X100809506Y-166847136D01*
X100833048Y-166861713D01*
X100885212Y-166909267D01*
X100943169Y-166956831D01*
X100960342Y-166977757D01*
X100976301Y-166992305D01*
X101022629Y-167053653D01*
X101073875Y-167116096D01*
X101083783Y-167134634D01*
X101093122Y-167147000D01*
X101130274Y-167221613D01*
X101170997Y-167297800D01*
X101175340Y-167312117D01*
X101179528Y-167320528D01*
X101204267Y-167407476D01*
X101230805Y-167494960D01*
X101231676Y-167503811D01*
X101232577Y-167506975D01*
X101241938Y-167608002D01*
X101251000Y-167700000D01*
X101241938Y-167792005D01*
X101232577Y-167893024D01*
X101231676Y-167896187D01*
X101230805Y-167905040D01*
X101204262Y-167992538D01*
X101179528Y-168079471D01*
X101175341Y-168087879D01*
X101170997Y-168102200D01*
X101130267Y-168178399D01*
X101093122Y-168252999D01*
X101083785Y-168265362D01*
X101073875Y-168283904D01*
X101022620Y-168346357D01*
X100976301Y-168407694D01*
X100960345Y-168422238D01*
X100943169Y-168443169D01*
X100885201Y-168490741D01*
X100833048Y-168538286D01*
X100809511Y-168552859D01*
X100783904Y-168573875D01*
X100722965Y-168606447D01*
X100668232Y-168640337D01*
X100636726Y-168652542D01*
X100602200Y-168670997D01*
X100541773Y-168689327D01*
X100487474Y-168710363D01*
X100448268Y-168717691D01*
X100405040Y-168730805D01*
X100348136Y-168736409D01*
X100296923Y-168745983D01*
X100250938Y-168745983D01*
X100200000Y-168751000D01*
X100149062Y-168745983D01*
X100103077Y-168745983D01*
X100051863Y-168736409D01*
X99994960Y-168730805D01*
X99951732Y-168717692D01*
X99912525Y-168710363D01*
X99858221Y-168689325D01*
X99797800Y-168670997D01*
X99763275Y-168652543D01*
X99731767Y-168640337D01*
X99677027Y-168606443D01*
X99616096Y-168573875D01*
X99590491Y-168552861D01*
X99566951Y-168538286D01*
X99514788Y-168490733D01*
X99456831Y-168443169D01*
X99439656Y-168422242D01*
X99423698Y-168407694D01*
X99377367Y-168346342D01*
X99326125Y-168283904D01*
X99316216Y-168265366D01*
X99306877Y-168252999D01*
X99269717Y-168178372D01*
X99229003Y-168102200D01*
X99224660Y-168087884D01*
X99220471Y-168079471D01*
X99195721Y-167992485D01*
X99169195Y-167905040D01*
X99168323Y-167896192D01*
X99167422Y-167893024D01*
X99158044Y-167791833D01*
X99149000Y-167700000D01*
X99158044Y-167608173D01*
X99167422Y-167506975D01*
X99168323Y-167503805D01*
X99169195Y-167494960D01*
X99195716Y-167407529D01*
X99220471Y-167320528D01*
X99224661Y-167312112D01*
X99229003Y-167297800D01*
X99269710Y-167221641D01*
X99306877Y-167147000D01*
X99316218Y-167134629D01*
X99326125Y-167116096D01*
X99377357Y-167053668D01*
X99423698Y-166992305D01*
X99439660Y-166977753D01*
X99456831Y-166956831D01*
X99514777Y-166909275D01*
X99566951Y-166861713D01*
X99590496Y-166847134D01*
X99616096Y-166826125D01*
X99677015Y-166793563D01*
X99731767Y-166759662D01*
X99763282Y-166747452D01*
X99797800Y-166729003D01*
X99858209Y-166710677D01*
X99912525Y-166689636D01*
X99951739Y-166682305D01*
X99994960Y-166669195D01*
X100051860Y-166663590D01*
X100103077Y-166654017D01*
X100149062Y-166654017D01*
X100200000Y-166649000D01*
X100250938Y-166654017D01*
G37*
G36*
X114775523Y-163723576D02*
G01*
X114821037Y-163723576D01*
X114871723Y-163733050D01*
X114928167Y-163738610D01*
X114971046Y-163751617D01*
X115009850Y-163758871D01*
X115063597Y-163779692D01*
X115123527Y-163797872D01*
X115157764Y-163816172D01*
X115188951Y-163828254D01*
X115243140Y-163861807D01*
X115303571Y-163894108D01*
X115328962Y-163914946D01*
X115352259Y-163929371D01*
X115403876Y-163976426D01*
X115461381Y-164023619D01*
X115478421Y-164044382D01*
X115494209Y-164058775D01*
X115540042Y-164119468D01*
X115590892Y-164181429D01*
X115600725Y-164199826D01*
X115609961Y-164212056D01*
X115646700Y-164285839D01*
X115687128Y-164361473D01*
X115691440Y-164375687D01*
X115695577Y-164383996D01*
X115720017Y-164469894D01*
X115746390Y-164556833D01*
X115747256Y-164565628D01*
X115748141Y-164568738D01*
X115757340Y-164668013D01*
X115766400Y-164760000D01*
X115757339Y-164851994D01*
X115748141Y-164951261D01*
X115747256Y-164954369D01*
X115746390Y-164963167D01*
X115720012Y-165050120D01*
X115695577Y-165136003D01*
X115691440Y-165144309D01*
X115687128Y-165158527D01*
X115646693Y-165234174D01*
X115609961Y-165307943D01*
X115600727Y-165320170D01*
X115590892Y-165338571D01*
X115540032Y-165400543D01*
X115494209Y-165461224D01*
X115478424Y-165475613D01*
X115461381Y-165496381D01*
X115403865Y-165543582D01*
X115352259Y-165590628D01*
X115328967Y-165605049D01*
X115303571Y-165625892D01*
X115243128Y-165658199D01*
X115188951Y-165691745D01*
X115157771Y-165703823D01*
X115123527Y-165722128D01*
X115063585Y-165740311D01*
X115009850Y-165761128D01*
X114971053Y-165768380D01*
X114928167Y-165781390D01*
X114871720Y-165786949D01*
X114821037Y-165796424D01*
X114775523Y-165796424D01*
X114725000Y-165801400D01*
X114674477Y-165796424D01*
X114628963Y-165796424D01*
X114578279Y-165786949D01*
X114521833Y-165781390D01*
X114478947Y-165768380D01*
X114440149Y-165761128D01*
X114386410Y-165740309D01*
X114326473Y-165722128D01*
X114292230Y-165703825D01*
X114261048Y-165691745D01*
X114206863Y-165658195D01*
X114146429Y-165625892D01*
X114121035Y-165605051D01*
X114097740Y-165590628D01*
X114046124Y-165543574D01*
X113988619Y-165496381D01*
X113971578Y-165475617D01*
X113955790Y-165461224D01*
X113909954Y-165400528D01*
X113859108Y-165338571D01*
X113849274Y-165320174D01*
X113840038Y-165307943D01*
X113803291Y-165234147D01*
X113762872Y-165158527D01*
X113758560Y-165144314D01*
X113754422Y-165136003D01*
X113729971Y-165050067D01*
X113703610Y-164963167D01*
X113702744Y-164954375D01*
X113701858Y-164951261D01*
X113692643Y-164851822D01*
X113683600Y-164760000D01*
X113692642Y-164668185D01*
X113701858Y-164568738D01*
X113702744Y-164565623D01*
X113703610Y-164556833D01*
X113729966Y-164469947D01*
X113754422Y-164383996D01*
X113758561Y-164375682D01*
X113762872Y-164361473D01*
X113803284Y-164285866D01*
X113840038Y-164212056D01*
X113849276Y-164199821D01*
X113859108Y-164181429D01*
X113909945Y-164119483D01*
X113955790Y-164058775D01*
X113971581Y-164044378D01*
X113988619Y-164023619D01*
X114046113Y-163976434D01*
X114097740Y-163929371D01*
X114121040Y-163914943D01*
X114146429Y-163894108D01*
X114206851Y-163861811D01*
X114261048Y-163828254D01*
X114292237Y-163816171D01*
X114326473Y-163797872D01*
X114386398Y-163779693D01*
X114440149Y-163758871D01*
X114478954Y-163751617D01*
X114521833Y-163738610D01*
X114578276Y-163733050D01*
X114628963Y-163723576D01*
X114674477Y-163723576D01*
X114725000Y-163718600D01*
X114775523Y-163723576D01*
G37*
G36*
X130285523Y-163723576D02*
G01*
X130331037Y-163723576D01*
X130381723Y-163733050D01*
X130438167Y-163738610D01*
X130481046Y-163751617D01*
X130519850Y-163758871D01*
X130573597Y-163779692D01*
X130633527Y-163797872D01*
X130667764Y-163816172D01*
X130698951Y-163828254D01*
X130753140Y-163861807D01*
X130813571Y-163894108D01*
X130838962Y-163914946D01*
X130862259Y-163929371D01*
X130913876Y-163976426D01*
X130971381Y-164023619D01*
X130988421Y-164044382D01*
X131004209Y-164058775D01*
X131050042Y-164119468D01*
X131100892Y-164181429D01*
X131110725Y-164199826D01*
X131119961Y-164212056D01*
X131156700Y-164285839D01*
X131197128Y-164361473D01*
X131201440Y-164375687D01*
X131205577Y-164383996D01*
X131230017Y-164469894D01*
X131256390Y-164556833D01*
X131257256Y-164565628D01*
X131258141Y-164568738D01*
X131267340Y-164668013D01*
X131276400Y-164760000D01*
X131267339Y-164851994D01*
X131258141Y-164951261D01*
X131257256Y-164954369D01*
X131256390Y-164963167D01*
X131230012Y-165050120D01*
X131205577Y-165136003D01*
X131201440Y-165144309D01*
X131197128Y-165158527D01*
X131156693Y-165234174D01*
X131119961Y-165307943D01*
X131110727Y-165320170D01*
X131100892Y-165338571D01*
X131050032Y-165400543D01*
X131004209Y-165461224D01*
X130988424Y-165475613D01*
X130971381Y-165496381D01*
X130913865Y-165543582D01*
X130862259Y-165590628D01*
X130838967Y-165605049D01*
X130813571Y-165625892D01*
X130753128Y-165658199D01*
X130698951Y-165691745D01*
X130667771Y-165703823D01*
X130633527Y-165722128D01*
X130573585Y-165740311D01*
X130519850Y-165761128D01*
X130481053Y-165768380D01*
X130438167Y-165781390D01*
X130381720Y-165786949D01*
X130331037Y-165796424D01*
X130285523Y-165796424D01*
X130235000Y-165801400D01*
X130184477Y-165796424D01*
X130138963Y-165796424D01*
X130088279Y-165786949D01*
X130031833Y-165781390D01*
X129988947Y-165768380D01*
X129950149Y-165761128D01*
X129896410Y-165740309D01*
X129836473Y-165722128D01*
X129802230Y-165703825D01*
X129771048Y-165691745D01*
X129716863Y-165658195D01*
X129656429Y-165625892D01*
X129631035Y-165605051D01*
X129607740Y-165590628D01*
X129556124Y-165543574D01*
X129498619Y-165496381D01*
X129481578Y-165475617D01*
X129465790Y-165461224D01*
X129419954Y-165400528D01*
X129369108Y-165338571D01*
X129359274Y-165320174D01*
X129350038Y-165307943D01*
X129313291Y-165234147D01*
X129272872Y-165158527D01*
X129268560Y-165144314D01*
X129264422Y-165136003D01*
X129239971Y-165050067D01*
X129213610Y-164963167D01*
X129212744Y-164954375D01*
X129211858Y-164951261D01*
X129202643Y-164851822D01*
X129193600Y-164760000D01*
X129202642Y-164668185D01*
X129211858Y-164568738D01*
X129212744Y-164565623D01*
X129213610Y-164556833D01*
X129239966Y-164469947D01*
X129264422Y-164383996D01*
X129268561Y-164375682D01*
X129272872Y-164361473D01*
X129313284Y-164285866D01*
X129350038Y-164212056D01*
X129359276Y-164199821D01*
X129369108Y-164181429D01*
X129419945Y-164119483D01*
X129465790Y-164058775D01*
X129481581Y-164044378D01*
X129498619Y-164023619D01*
X129556113Y-163976434D01*
X129607740Y-163929371D01*
X129631040Y-163914943D01*
X129656429Y-163894108D01*
X129716851Y-163861811D01*
X129771048Y-163828254D01*
X129802237Y-163816171D01*
X129836473Y-163797872D01*
X129896398Y-163779693D01*
X129950149Y-163758871D01*
X129988954Y-163751617D01*
X130031833Y-163738610D01*
X130088276Y-163733050D01*
X130138963Y-163723576D01*
X130184477Y-163723576D01*
X130235000Y-163718600D01*
X130285523Y-163723576D01*
G37*
G36*
X93750938Y-162154017D02*
G01*
X93796923Y-162154017D01*
X93848139Y-162163590D01*
X93905040Y-162169195D01*
X93948261Y-162182306D01*
X93987474Y-162189636D01*
X94041785Y-162210676D01*
X94102200Y-162229003D01*
X94136720Y-162247454D01*
X94168232Y-162259662D01*
X94222977Y-162293559D01*
X94283904Y-162326125D01*
X94309506Y-162347136D01*
X94333048Y-162361713D01*
X94385212Y-162409267D01*
X94443169Y-162456831D01*
X94460342Y-162477757D01*
X94476301Y-162492305D01*
X94522629Y-162553653D01*
X94573875Y-162616096D01*
X94583783Y-162634634D01*
X94593122Y-162647000D01*
X94630274Y-162721613D01*
X94670997Y-162797800D01*
X94675340Y-162812117D01*
X94679528Y-162820528D01*
X94704267Y-162907476D01*
X94730805Y-162994960D01*
X94731676Y-163003811D01*
X94732577Y-163006975D01*
X94741938Y-163108002D01*
X94751000Y-163200000D01*
X94741938Y-163292005D01*
X94732577Y-163393024D01*
X94731676Y-163396187D01*
X94730805Y-163405040D01*
X94704262Y-163492538D01*
X94679528Y-163579471D01*
X94675341Y-163587879D01*
X94670997Y-163602200D01*
X94630267Y-163678399D01*
X94593122Y-163752999D01*
X94583785Y-163765362D01*
X94573875Y-163783904D01*
X94522620Y-163846357D01*
X94476301Y-163907694D01*
X94460345Y-163922238D01*
X94443169Y-163943169D01*
X94385201Y-163990741D01*
X94333048Y-164038286D01*
X94309511Y-164052859D01*
X94283904Y-164073875D01*
X94222965Y-164106447D01*
X94168232Y-164140337D01*
X94136726Y-164152542D01*
X94102200Y-164170997D01*
X94041773Y-164189327D01*
X93987474Y-164210363D01*
X93948268Y-164217691D01*
X93905040Y-164230805D01*
X93848136Y-164236409D01*
X93796923Y-164245983D01*
X93750938Y-164245983D01*
X93700000Y-164251000D01*
X93649062Y-164245983D01*
X93603077Y-164245983D01*
X93551863Y-164236409D01*
X93494960Y-164230805D01*
X93451732Y-164217692D01*
X93412525Y-164210363D01*
X93358221Y-164189325D01*
X93297800Y-164170997D01*
X93263275Y-164152543D01*
X93231767Y-164140337D01*
X93177027Y-164106443D01*
X93116096Y-164073875D01*
X93090491Y-164052861D01*
X93066951Y-164038286D01*
X93014788Y-163990733D01*
X92956831Y-163943169D01*
X92939656Y-163922242D01*
X92923698Y-163907694D01*
X92877367Y-163846342D01*
X92826125Y-163783904D01*
X92816216Y-163765366D01*
X92806877Y-163752999D01*
X92769717Y-163678372D01*
X92729003Y-163602200D01*
X92724660Y-163587884D01*
X92720471Y-163579471D01*
X92695721Y-163492485D01*
X92669195Y-163405040D01*
X92668323Y-163396192D01*
X92667422Y-163393024D01*
X92658044Y-163291833D01*
X92649000Y-163200000D01*
X92658044Y-163108173D01*
X92667422Y-163006975D01*
X92668323Y-163003805D01*
X92669195Y-162994960D01*
X92695716Y-162907529D01*
X92720471Y-162820528D01*
X92724661Y-162812112D01*
X92729003Y-162797800D01*
X92769710Y-162721641D01*
X92806877Y-162647000D01*
X92816218Y-162634629D01*
X92826125Y-162616096D01*
X92877357Y-162553668D01*
X92923698Y-162492305D01*
X92939660Y-162477753D01*
X92956831Y-162456831D01*
X93014777Y-162409275D01*
X93066951Y-162361713D01*
X93090496Y-162347134D01*
X93116096Y-162326125D01*
X93177015Y-162293563D01*
X93231767Y-162259662D01*
X93263282Y-162247452D01*
X93297800Y-162229003D01*
X93358209Y-162210677D01*
X93412525Y-162189636D01*
X93451739Y-162182305D01*
X93494960Y-162169195D01*
X93551860Y-162163590D01*
X93603077Y-162154017D01*
X93649062Y-162154017D01*
X93700000Y-162149000D01*
X93750938Y-162154017D01*
G37*
G36*
X100250938Y-162154017D02*
G01*
X100296923Y-162154017D01*
X100348139Y-162163590D01*
X100405040Y-162169195D01*
X100448261Y-162182306D01*
X100487474Y-162189636D01*
X100541785Y-162210676D01*
X100602200Y-162229003D01*
X100636720Y-162247454D01*
X100668232Y-162259662D01*
X100722977Y-162293559D01*
X100783904Y-162326125D01*
X100809506Y-162347136D01*
X100833048Y-162361713D01*
X100885212Y-162409267D01*
X100943169Y-162456831D01*
X100960342Y-162477757D01*
X100976301Y-162492305D01*
X101022629Y-162553653D01*
X101073875Y-162616096D01*
X101083783Y-162634634D01*
X101093122Y-162647000D01*
X101130274Y-162721613D01*
X101170997Y-162797800D01*
X101175340Y-162812117D01*
X101179528Y-162820528D01*
X101204267Y-162907476D01*
X101230805Y-162994960D01*
X101231676Y-163003811D01*
X101232577Y-163006975D01*
X101241938Y-163108002D01*
X101251000Y-163200000D01*
X101241938Y-163292005D01*
X101232577Y-163393024D01*
X101231676Y-163396187D01*
X101230805Y-163405040D01*
X101204262Y-163492538D01*
X101179528Y-163579471D01*
X101175341Y-163587879D01*
X101170997Y-163602200D01*
X101130267Y-163678399D01*
X101093122Y-163752999D01*
X101083785Y-163765362D01*
X101073875Y-163783904D01*
X101022620Y-163846357D01*
X100976301Y-163907694D01*
X100960345Y-163922238D01*
X100943169Y-163943169D01*
X100885201Y-163990741D01*
X100833048Y-164038286D01*
X100809511Y-164052859D01*
X100783904Y-164073875D01*
X100722965Y-164106447D01*
X100668232Y-164140337D01*
X100636726Y-164152542D01*
X100602200Y-164170997D01*
X100541773Y-164189327D01*
X100487474Y-164210363D01*
X100448268Y-164217691D01*
X100405040Y-164230805D01*
X100348136Y-164236409D01*
X100296923Y-164245983D01*
X100250938Y-164245983D01*
X100200000Y-164251000D01*
X100149062Y-164245983D01*
X100103077Y-164245983D01*
X100051863Y-164236409D01*
X99994960Y-164230805D01*
X99951732Y-164217692D01*
X99912525Y-164210363D01*
X99858221Y-164189325D01*
X99797800Y-164170997D01*
X99763275Y-164152543D01*
X99731767Y-164140337D01*
X99677027Y-164106443D01*
X99616096Y-164073875D01*
X99590491Y-164052861D01*
X99566951Y-164038286D01*
X99514788Y-163990733D01*
X99456831Y-163943169D01*
X99439656Y-163922242D01*
X99423698Y-163907694D01*
X99377367Y-163846342D01*
X99326125Y-163783904D01*
X99316216Y-163765366D01*
X99306877Y-163752999D01*
X99269717Y-163678372D01*
X99229003Y-163602200D01*
X99224660Y-163587884D01*
X99220471Y-163579471D01*
X99195721Y-163492485D01*
X99169195Y-163405040D01*
X99168323Y-163396192D01*
X99167422Y-163393024D01*
X99158044Y-163291833D01*
X99149000Y-163200000D01*
X99158044Y-163108173D01*
X99167422Y-163006975D01*
X99168323Y-163003805D01*
X99169195Y-162994960D01*
X99195716Y-162907529D01*
X99220471Y-162820528D01*
X99224661Y-162812112D01*
X99229003Y-162797800D01*
X99269710Y-162721641D01*
X99306877Y-162647000D01*
X99316218Y-162634629D01*
X99326125Y-162616096D01*
X99377357Y-162553668D01*
X99423698Y-162492305D01*
X99439660Y-162477753D01*
X99456831Y-162456831D01*
X99514777Y-162409275D01*
X99566951Y-162361713D01*
X99590496Y-162347134D01*
X99616096Y-162326125D01*
X99677015Y-162293563D01*
X99731767Y-162259662D01*
X99763282Y-162247452D01*
X99797800Y-162229003D01*
X99858209Y-162210677D01*
X99912525Y-162189636D01*
X99951739Y-162182305D01*
X99994960Y-162169195D01*
X100051860Y-162163590D01*
X100103077Y-162154017D01*
X100149062Y-162154017D01*
X100200000Y-162149000D01*
X100250938Y-162154017D01*
G37*
G36*
X114775523Y-161193576D02*
G01*
X114821037Y-161193576D01*
X114871723Y-161203050D01*
X114928167Y-161208610D01*
X114971046Y-161221617D01*
X115009850Y-161228871D01*
X115063597Y-161249692D01*
X115123527Y-161267872D01*
X115157764Y-161286172D01*
X115188951Y-161298254D01*
X115243140Y-161331807D01*
X115303571Y-161364108D01*
X115328962Y-161384946D01*
X115352259Y-161399371D01*
X115403876Y-161446426D01*
X115461381Y-161493619D01*
X115478421Y-161514382D01*
X115494209Y-161528775D01*
X115540042Y-161589468D01*
X115590892Y-161651429D01*
X115600725Y-161669826D01*
X115609961Y-161682056D01*
X115646700Y-161755839D01*
X115687128Y-161831473D01*
X115691440Y-161845687D01*
X115695577Y-161853996D01*
X115720017Y-161939894D01*
X115746390Y-162026833D01*
X115747256Y-162035628D01*
X115748141Y-162038738D01*
X115757340Y-162138013D01*
X115766400Y-162230000D01*
X115757339Y-162321994D01*
X115748141Y-162421261D01*
X115747256Y-162424369D01*
X115746390Y-162433167D01*
X115720012Y-162520120D01*
X115695577Y-162606003D01*
X115691440Y-162614309D01*
X115687128Y-162628527D01*
X115646693Y-162704174D01*
X115609961Y-162777943D01*
X115600727Y-162790170D01*
X115590892Y-162808571D01*
X115540032Y-162870543D01*
X115494209Y-162931224D01*
X115478424Y-162945613D01*
X115461381Y-162966381D01*
X115403865Y-163013582D01*
X115352259Y-163060628D01*
X115328967Y-163075049D01*
X115303571Y-163095892D01*
X115243128Y-163128199D01*
X115188951Y-163161745D01*
X115157771Y-163173823D01*
X115123527Y-163192128D01*
X115063585Y-163210311D01*
X115009850Y-163231128D01*
X114971053Y-163238380D01*
X114928167Y-163251390D01*
X114871720Y-163256949D01*
X114821037Y-163266424D01*
X114775523Y-163266424D01*
X114725000Y-163271400D01*
X114674477Y-163266424D01*
X114628963Y-163266424D01*
X114578279Y-163256949D01*
X114521833Y-163251390D01*
X114478947Y-163238380D01*
X114440149Y-163231128D01*
X114386410Y-163210309D01*
X114326473Y-163192128D01*
X114292230Y-163173825D01*
X114261048Y-163161745D01*
X114206863Y-163128195D01*
X114146429Y-163095892D01*
X114121035Y-163075051D01*
X114097740Y-163060628D01*
X114046124Y-163013574D01*
X113988619Y-162966381D01*
X113971578Y-162945617D01*
X113955790Y-162931224D01*
X113909954Y-162870528D01*
X113859108Y-162808571D01*
X113849274Y-162790174D01*
X113840038Y-162777943D01*
X113803291Y-162704147D01*
X113762872Y-162628527D01*
X113758560Y-162614314D01*
X113754422Y-162606003D01*
X113729971Y-162520067D01*
X113703610Y-162433167D01*
X113702744Y-162424375D01*
X113701858Y-162421261D01*
X113692643Y-162321822D01*
X113683600Y-162230000D01*
X113692642Y-162138185D01*
X113701858Y-162038738D01*
X113702744Y-162035623D01*
X113703610Y-162026833D01*
X113729966Y-161939947D01*
X113754422Y-161853996D01*
X113758561Y-161845682D01*
X113762872Y-161831473D01*
X113803284Y-161755866D01*
X113840038Y-161682056D01*
X113849276Y-161669821D01*
X113859108Y-161651429D01*
X113909945Y-161589483D01*
X113955790Y-161528775D01*
X113971581Y-161514378D01*
X113988619Y-161493619D01*
X114046113Y-161446434D01*
X114097740Y-161399371D01*
X114121040Y-161384943D01*
X114146429Y-161364108D01*
X114206851Y-161331811D01*
X114261048Y-161298254D01*
X114292237Y-161286171D01*
X114326473Y-161267872D01*
X114386398Y-161249693D01*
X114440149Y-161228871D01*
X114478954Y-161221617D01*
X114521833Y-161208610D01*
X114578276Y-161203050D01*
X114628963Y-161193576D01*
X114674477Y-161193576D01*
X114725000Y-161188600D01*
X114775523Y-161193576D01*
G37*
G36*
X130275523Y-161183576D02*
G01*
X130321037Y-161183576D01*
X130371723Y-161193050D01*
X130428167Y-161198610D01*
X130471046Y-161211617D01*
X130509850Y-161218871D01*
X130563597Y-161239692D01*
X130623527Y-161257872D01*
X130657764Y-161276172D01*
X130688951Y-161288254D01*
X130743140Y-161321807D01*
X130803571Y-161354108D01*
X130828962Y-161374946D01*
X130852259Y-161389371D01*
X130903876Y-161436426D01*
X130961381Y-161483619D01*
X130978421Y-161504382D01*
X130994209Y-161518775D01*
X131040042Y-161579468D01*
X131090892Y-161641429D01*
X131100725Y-161659826D01*
X131109961Y-161672056D01*
X131146700Y-161745839D01*
X131187128Y-161821473D01*
X131191440Y-161835687D01*
X131195577Y-161843996D01*
X131220017Y-161929894D01*
X131246390Y-162016833D01*
X131247256Y-162025628D01*
X131248141Y-162028738D01*
X131257340Y-162128013D01*
X131266400Y-162220000D01*
X131257339Y-162311994D01*
X131248141Y-162411261D01*
X131247256Y-162414369D01*
X131246390Y-162423167D01*
X131220012Y-162510120D01*
X131195577Y-162596003D01*
X131191440Y-162604309D01*
X131187128Y-162618527D01*
X131146693Y-162694174D01*
X131109961Y-162767943D01*
X131100727Y-162780170D01*
X131090892Y-162798571D01*
X131040032Y-162860543D01*
X130994209Y-162921224D01*
X130978424Y-162935613D01*
X130961381Y-162956381D01*
X130903865Y-163003582D01*
X130852259Y-163050628D01*
X130828967Y-163065049D01*
X130803571Y-163085892D01*
X130743128Y-163118199D01*
X130688951Y-163151745D01*
X130657771Y-163163823D01*
X130623527Y-163182128D01*
X130563585Y-163200311D01*
X130509850Y-163221128D01*
X130471053Y-163228380D01*
X130428167Y-163241390D01*
X130371720Y-163246949D01*
X130321037Y-163256424D01*
X130275523Y-163256424D01*
X130225000Y-163261400D01*
X130174477Y-163256424D01*
X130128963Y-163256424D01*
X130078279Y-163246949D01*
X130021833Y-163241390D01*
X129978947Y-163228380D01*
X129940149Y-163221128D01*
X129886410Y-163200309D01*
X129826473Y-163182128D01*
X129792230Y-163163825D01*
X129761048Y-163151745D01*
X129706863Y-163118195D01*
X129646429Y-163085892D01*
X129621035Y-163065051D01*
X129597740Y-163050628D01*
X129546124Y-163003574D01*
X129488619Y-162956381D01*
X129471578Y-162935617D01*
X129455790Y-162921224D01*
X129409954Y-162860528D01*
X129359108Y-162798571D01*
X129349274Y-162780174D01*
X129340038Y-162767943D01*
X129303291Y-162694147D01*
X129262872Y-162618527D01*
X129258560Y-162604314D01*
X129254422Y-162596003D01*
X129229971Y-162510067D01*
X129203610Y-162423167D01*
X129202744Y-162414375D01*
X129201858Y-162411261D01*
X129192643Y-162311822D01*
X129183600Y-162220000D01*
X129192642Y-162128185D01*
X129201858Y-162028738D01*
X129202744Y-162025623D01*
X129203610Y-162016833D01*
X129229966Y-161929947D01*
X129254422Y-161843996D01*
X129258561Y-161835682D01*
X129262872Y-161821473D01*
X129303284Y-161745866D01*
X129340038Y-161672056D01*
X129349276Y-161659821D01*
X129359108Y-161641429D01*
X129409945Y-161579483D01*
X129455790Y-161518775D01*
X129471581Y-161504378D01*
X129488619Y-161483619D01*
X129546113Y-161436434D01*
X129597740Y-161389371D01*
X129621040Y-161374943D01*
X129646429Y-161354108D01*
X129706851Y-161321811D01*
X129761048Y-161288254D01*
X129792237Y-161276171D01*
X129826473Y-161257872D01*
X129886398Y-161239693D01*
X129940149Y-161218871D01*
X129978954Y-161211617D01*
X130021833Y-161198610D01*
X130078276Y-161193050D01*
X130128963Y-161183576D01*
X130174477Y-161183576D01*
X130225000Y-161178600D01*
X130275523Y-161183576D01*
G37*
G36*
X142650938Y-160954017D02*
G01*
X142696923Y-160954017D01*
X142748139Y-160963590D01*
X142805040Y-160969195D01*
X142848261Y-160982306D01*
X142887474Y-160989636D01*
X142941785Y-161010676D01*
X143002200Y-161029003D01*
X143036720Y-161047454D01*
X143068232Y-161059662D01*
X143122977Y-161093559D01*
X143183904Y-161126125D01*
X143209506Y-161147136D01*
X143233048Y-161161713D01*
X143285212Y-161209267D01*
X143343169Y-161256831D01*
X143360342Y-161277757D01*
X143376301Y-161292305D01*
X143422629Y-161353653D01*
X143473875Y-161416096D01*
X143483783Y-161434634D01*
X143493122Y-161447000D01*
X143530274Y-161521613D01*
X143570997Y-161597800D01*
X143575340Y-161612117D01*
X143579528Y-161620528D01*
X143604267Y-161707476D01*
X143630805Y-161794960D01*
X143631676Y-161803811D01*
X143632577Y-161806975D01*
X143641938Y-161908002D01*
X143651000Y-162000000D01*
X143641938Y-162092005D01*
X143632577Y-162193024D01*
X143631676Y-162196187D01*
X143630805Y-162205040D01*
X143604262Y-162292538D01*
X143579528Y-162379471D01*
X143575341Y-162387879D01*
X143570997Y-162402200D01*
X143530267Y-162478399D01*
X143493122Y-162552999D01*
X143483785Y-162565362D01*
X143473875Y-162583904D01*
X143422620Y-162646357D01*
X143376301Y-162707694D01*
X143360345Y-162722238D01*
X143343169Y-162743169D01*
X143285201Y-162790741D01*
X143233048Y-162838286D01*
X143209511Y-162852859D01*
X143183904Y-162873875D01*
X143122965Y-162906447D01*
X143068232Y-162940337D01*
X143036726Y-162952542D01*
X143002200Y-162970997D01*
X142941773Y-162989327D01*
X142887474Y-163010363D01*
X142848268Y-163017691D01*
X142805040Y-163030805D01*
X142748136Y-163036409D01*
X142696923Y-163045983D01*
X142650938Y-163045983D01*
X142600000Y-163051000D01*
X142549062Y-163045983D01*
X142503077Y-163045983D01*
X142451863Y-163036409D01*
X142394960Y-163030805D01*
X142351732Y-163017692D01*
X142312525Y-163010363D01*
X142258221Y-162989325D01*
X142197800Y-162970997D01*
X142163275Y-162952543D01*
X142131767Y-162940337D01*
X142077027Y-162906443D01*
X142016096Y-162873875D01*
X141990491Y-162852861D01*
X141966951Y-162838286D01*
X141914788Y-162790733D01*
X141856831Y-162743169D01*
X141839656Y-162722242D01*
X141823698Y-162707694D01*
X141777367Y-162646342D01*
X141726125Y-162583904D01*
X141716216Y-162565366D01*
X141706877Y-162552999D01*
X141669717Y-162478372D01*
X141629003Y-162402200D01*
X141624660Y-162387884D01*
X141620471Y-162379471D01*
X141595721Y-162292485D01*
X141569195Y-162205040D01*
X141568323Y-162196192D01*
X141567422Y-162193024D01*
X141558044Y-162091833D01*
X141549000Y-162000000D01*
X141558044Y-161908173D01*
X141567422Y-161806975D01*
X141568323Y-161803805D01*
X141569195Y-161794960D01*
X141595716Y-161707529D01*
X141620471Y-161620528D01*
X141624661Y-161612112D01*
X141629003Y-161597800D01*
X141669710Y-161521641D01*
X141706877Y-161447000D01*
X141716218Y-161434629D01*
X141726125Y-161416096D01*
X141777357Y-161353668D01*
X141823698Y-161292305D01*
X141839660Y-161277753D01*
X141856831Y-161256831D01*
X141914777Y-161209275D01*
X141966951Y-161161713D01*
X141990496Y-161147134D01*
X142016096Y-161126125D01*
X142077015Y-161093563D01*
X142131767Y-161059662D01*
X142163282Y-161047452D01*
X142197800Y-161029003D01*
X142258209Y-161010677D01*
X142312525Y-160989636D01*
X142351739Y-160982305D01*
X142394960Y-160969195D01*
X142451860Y-160963590D01*
X142503077Y-160954017D01*
X142549062Y-160954017D01*
X142600000Y-160949000D01*
X142650938Y-160954017D01*
G37*
G36*
X149150938Y-160954017D02*
G01*
X149196923Y-160954017D01*
X149248139Y-160963590D01*
X149305040Y-160969195D01*
X149348261Y-160982306D01*
X149387474Y-160989636D01*
X149441785Y-161010676D01*
X149502200Y-161029003D01*
X149536720Y-161047454D01*
X149568232Y-161059662D01*
X149622977Y-161093559D01*
X149683904Y-161126125D01*
X149709506Y-161147136D01*
X149733048Y-161161713D01*
X149785212Y-161209267D01*
X149843169Y-161256831D01*
X149860342Y-161277757D01*
X149876301Y-161292305D01*
X149922629Y-161353653D01*
X149973875Y-161416096D01*
X149983783Y-161434634D01*
X149993122Y-161447000D01*
X150030274Y-161521613D01*
X150070997Y-161597800D01*
X150075340Y-161612117D01*
X150079528Y-161620528D01*
X150104267Y-161707476D01*
X150130805Y-161794960D01*
X150131676Y-161803811D01*
X150132577Y-161806975D01*
X150141938Y-161908002D01*
X150151000Y-162000000D01*
X150141938Y-162092005D01*
X150132577Y-162193024D01*
X150131676Y-162196187D01*
X150130805Y-162205040D01*
X150104262Y-162292538D01*
X150079528Y-162379471D01*
X150075341Y-162387879D01*
X150070997Y-162402200D01*
X150030267Y-162478399D01*
X149993122Y-162552999D01*
X149983785Y-162565362D01*
X149973875Y-162583904D01*
X149922620Y-162646357D01*
X149876301Y-162707694D01*
X149860345Y-162722238D01*
X149843169Y-162743169D01*
X149785201Y-162790741D01*
X149733048Y-162838286D01*
X149709511Y-162852859D01*
X149683904Y-162873875D01*
X149622965Y-162906447D01*
X149568232Y-162940337D01*
X149536726Y-162952542D01*
X149502200Y-162970997D01*
X149441773Y-162989327D01*
X149387474Y-163010363D01*
X149348268Y-163017691D01*
X149305040Y-163030805D01*
X149248136Y-163036409D01*
X149196923Y-163045983D01*
X149150938Y-163045983D01*
X149100000Y-163051000D01*
X149049062Y-163045983D01*
X149003077Y-163045983D01*
X148951863Y-163036409D01*
X148894960Y-163030805D01*
X148851732Y-163017692D01*
X148812525Y-163010363D01*
X148758221Y-162989325D01*
X148697800Y-162970997D01*
X148663275Y-162952543D01*
X148631767Y-162940337D01*
X148577027Y-162906443D01*
X148516096Y-162873875D01*
X148490491Y-162852861D01*
X148466951Y-162838286D01*
X148414788Y-162790733D01*
X148356831Y-162743169D01*
X148339656Y-162722242D01*
X148323698Y-162707694D01*
X148277367Y-162646342D01*
X148226125Y-162583904D01*
X148216216Y-162565366D01*
X148206877Y-162552999D01*
X148169717Y-162478372D01*
X148129003Y-162402200D01*
X148124660Y-162387884D01*
X148120471Y-162379471D01*
X148095721Y-162292485D01*
X148069195Y-162205040D01*
X148068323Y-162196192D01*
X148067422Y-162193024D01*
X148058044Y-162091833D01*
X148049000Y-162000000D01*
X148058044Y-161908173D01*
X148067422Y-161806975D01*
X148068323Y-161803805D01*
X148069195Y-161794960D01*
X148095716Y-161707529D01*
X148120471Y-161620528D01*
X148124661Y-161612112D01*
X148129003Y-161597800D01*
X148169710Y-161521641D01*
X148206877Y-161447000D01*
X148216218Y-161434629D01*
X148226125Y-161416096D01*
X148277357Y-161353668D01*
X148323698Y-161292305D01*
X148339660Y-161277753D01*
X148356831Y-161256831D01*
X148414777Y-161209275D01*
X148466951Y-161161713D01*
X148490496Y-161147134D01*
X148516096Y-161126125D01*
X148577015Y-161093563D01*
X148631767Y-161059662D01*
X148663282Y-161047452D01*
X148697800Y-161029003D01*
X148758209Y-161010677D01*
X148812525Y-160989636D01*
X148851739Y-160982305D01*
X148894960Y-160969195D01*
X148951860Y-160963590D01*
X149003077Y-160954017D01*
X149049062Y-160954017D01*
X149100000Y-160949000D01*
X149150938Y-160954017D01*
G37*
G36*
X114775523Y-158653576D02*
G01*
X114821037Y-158653576D01*
X114871723Y-158663050D01*
X114928167Y-158668610D01*
X114971046Y-158681617D01*
X115009850Y-158688871D01*
X115063597Y-158709692D01*
X115123527Y-158727872D01*
X115157764Y-158746172D01*
X115188951Y-158758254D01*
X115243140Y-158791807D01*
X115303571Y-158824108D01*
X115328962Y-158844946D01*
X115352259Y-158859371D01*
X115403876Y-158906426D01*
X115461381Y-158953619D01*
X115478421Y-158974382D01*
X115494209Y-158988775D01*
X115540042Y-159049468D01*
X115590892Y-159111429D01*
X115600725Y-159129826D01*
X115609961Y-159142056D01*
X115646700Y-159215839D01*
X115687128Y-159291473D01*
X115691440Y-159305687D01*
X115695577Y-159313996D01*
X115720017Y-159399894D01*
X115746390Y-159486833D01*
X115747256Y-159495628D01*
X115748141Y-159498738D01*
X115757340Y-159598013D01*
X115766400Y-159690000D01*
X115757339Y-159781994D01*
X115748141Y-159881261D01*
X115747256Y-159884369D01*
X115746390Y-159893167D01*
X115720012Y-159980120D01*
X115695577Y-160066003D01*
X115691440Y-160074309D01*
X115687128Y-160088527D01*
X115646693Y-160164174D01*
X115609961Y-160237943D01*
X115600727Y-160250170D01*
X115590892Y-160268571D01*
X115540032Y-160330543D01*
X115494209Y-160391224D01*
X115478424Y-160405613D01*
X115461381Y-160426381D01*
X115403865Y-160473582D01*
X115352259Y-160520628D01*
X115328967Y-160535049D01*
X115303571Y-160555892D01*
X115243128Y-160588199D01*
X115188951Y-160621745D01*
X115157771Y-160633823D01*
X115123527Y-160652128D01*
X115063585Y-160670311D01*
X115009850Y-160691128D01*
X114971053Y-160698380D01*
X114928167Y-160711390D01*
X114871720Y-160716949D01*
X114821037Y-160726424D01*
X114775523Y-160726424D01*
X114725000Y-160731400D01*
X114674477Y-160726424D01*
X114628963Y-160726424D01*
X114578279Y-160716949D01*
X114521833Y-160711390D01*
X114478947Y-160698380D01*
X114440149Y-160691128D01*
X114386410Y-160670309D01*
X114326473Y-160652128D01*
X114292230Y-160633825D01*
X114261048Y-160621745D01*
X114206863Y-160588195D01*
X114146429Y-160555892D01*
X114121035Y-160535051D01*
X114097740Y-160520628D01*
X114046124Y-160473574D01*
X113988619Y-160426381D01*
X113971578Y-160405617D01*
X113955790Y-160391224D01*
X113909954Y-160330528D01*
X113859108Y-160268571D01*
X113849274Y-160250174D01*
X113840038Y-160237943D01*
X113803291Y-160164147D01*
X113762872Y-160088527D01*
X113758560Y-160074314D01*
X113754422Y-160066003D01*
X113729971Y-159980067D01*
X113703610Y-159893167D01*
X113702744Y-159884375D01*
X113701858Y-159881261D01*
X113692643Y-159781822D01*
X113683600Y-159690000D01*
X113692642Y-159598185D01*
X113701858Y-159498738D01*
X113702744Y-159495623D01*
X113703610Y-159486833D01*
X113729966Y-159399947D01*
X113754422Y-159313996D01*
X113758561Y-159305682D01*
X113762872Y-159291473D01*
X113803284Y-159215866D01*
X113840038Y-159142056D01*
X113849276Y-159129821D01*
X113859108Y-159111429D01*
X113909945Y-159049483D01*
X113955790Y-158988775D01*
X113971581Y-158974378D01*
X113988619Y-158953619D01*
X114046113Y-158906434D01*
X114097740Y-158859371D01*
X114121040Y-158844943D01*
X114146429Y-158824108D01*
X114206851Y-158791811D01*
X114261048Y-158758254D01*
X114292237Y-158746171D01*
X114326473Y-158727872D01*
X114386398Y-158709693D01*
X114440149Y-158688871D01*
X114478954Y-158681617D01*
X114521833Y-158668610D01*
X114578276Y-158663050D01*
X114628963Y-158653576D01*
X114674477Y-158653576D01*
X114725000Y-158648600D01*
X114775523Y-158653576D01*
G37*
G36*
X130275523Y-158653576D02*
G01*
X130321037Y-158653576D01*
X130371723Y-158663050D01*
X130428167Y-158668610D01*
X130471046Y-158681617D01*
X130509850Y-158688871D01*
X130563597Y-158709692D01*
X130623527Y-158727872D01*
X130657764Y-158746172D01*
X130688951Y-158758254D01*
X130743140Y-158791807D01*
X130803571Y-158824108D01*
X130828962Y-158844946D01*
X130852259Y-158859371D01*
X130903876Y-158906426D01*
X130961381Y-158953619D01*
X130978421Y-158974382D01*
X130994209Y-158988775D01*
X131040042Y-159049468D01*
X131090892Y-159111429D01*
X131100725Y-159129826D01*
X131109961Y-159142056D01*
X131146700Y-159215839D01*
X131187128Y-159291473D01*
X131191440Y-159305687D01*
X131195577Y-159313996D01*
X131220017Y-159399894D01*
X131246390Y-159486833D01*
X131247256Y-159495628D01*
X131248141Y-159498738D01*
X131257340Y-159598013D01*
X131266400Y-159690000D01*
X131257339Y-159781994D01*
X131248141Y-159881261D01*
X131247256Y-159884369D01*
X131246390Y-159893167D01*
X131220012Y-159980120D01*
X131195577Y-160066003D01*
X131191440Y-160074309D01*
X131187128Y-160088527D01*
X131146693Y-160164174D01*
X131109961Y-160237943D01*
X131100727Y-160250170D01*
X131090892Y-160268571D01*
X131040032Y-160330543D01*
X130994209Y-160391224D01*
X130978424Y-160405613D01*
X130961381Y-160426381D01*
X130903865Y-160473582D01*
X130852259Y-160520628D01*
X130828967Y-160535049D01*
X130803571Y-160555892D01*
X130743128Y-160588199D01*
X130688951Y-160621745D01*
X130657771Y-160633823D01*
X130623527Y-160652128D01*
X130563585Y-160670311D01*
X130509850Y-160691128D01*
X130471053Y-160698380D01*
X130428167Y-160711390D01*
X130371720Y-160716949D01*
X130321037Y-160726424D01*
X130275523Y-160726424D01*
X130225000Y-160731400D01*
X130174477Y-160726424D01*
X130128963Y-160726424D01*
X130078279Y-160716949D01*
X130021833Y-160711390D01*
X129978947Y-160698380D01*
X129940149Y-160691128D01*
X129886410Y-160670309D01*
X129826473Y-160652128D01*
X129792230Y-160633825D01*
X129761048Y-160621745D01*
X129706863Y-160588195D01*
X129646429Y-160555892D01*
X129621035Y-160535051D01*
X129597740Y-160520628D01*
X129546124Y-160473574D01*
X129488619Y-160426381D01*
X129471578Y-160405617D01*
X129455790Y-160391224D01*
X129409954Y-160330528D01*
X129359108Y-160268571D01*
X129349274Y-160250174D01*
X129340038Y-160237943D01*
X129303291Y-160164147D01*
X129262872Y-160088527D01*
X129258560Y-160074314D01*
X129254422Y-160066003D01*
X129229971Y-159980067D01*
X129203610Y-159893167D01*
X129202744Y-159884375D01*
X129201858Y-159881261D01*
X129192643Y-159781822D01*
X129183600Y-159690000D01*
X129192642Y-159598185D01*
X129201858Y-159498738D01*
X129202744Y-159495623D01*
X129203610Y-159486833D01*
X129229966Y-159399947D01*
X129254422Y-159313996D01*
X129258561Y-159305682D01*
X129262872Y-159291473D01*
X129303284Y-159215866D01*
X129340038Y-159142056D01*
X129349276Y-159129821D01*
X129359108Y-159111429D01*
X129409945Y-159049483D01*
X129455790Y-158988775D01*
X129471581Y-158974378D01*
X129488619Y-158953619D01*
X129546113Y-158906434D01*
X129597740Y-158859371D01*
X129621040Y-158844943D01*
X129646429Y-158824108D01*
X129706851Y-158791811D01*
X129761048Y-158758254D01*
X129792237Y-158746171D01*
X129826473Y-158727872D01*
X129886398Y-158709693D01*
X129940149Y-158688871D01*
X129978954Y-158681617D01*
X130021833Y-158668610D01*
X130078276Y-158663050D01*
X130128963Y-158653576D01*
X130174477Y-158653576D01*
X130225000Y-158648600D01*
X130275523Y-158653576D01*
G37*
G36*
X84950938Y-156754017D02*
G01*
X84996923Y-156754017D01*
X85048139Y-156763590D01*
X85105040Y-156769195D01*
X85148261Y-156782306D01*
X85187474Y-156789636D01*
X85241785Y-156810676D01*
X85302200Y-156829003D01*
X85336720Y-156847454D01*
X85368232Y-156859662D01*
X85422977Y-156893559D01*
X85483904Y-156926125D01*
X85509506Y-156947136D01*
X85533048Y-156961713D01*
X85585212Y-157009267D01*
X85643169Y-157056831D01*
X85660342Y-157077757D01*
X85676301Y-157092305D01*
X85722629Y-157153653D01*
X85773875Y-157216096D01*
X85783783Y-157234634D01*
X85793122Y-157247000D01*
X85830274Y-157321613D01*
X85870997Y-157397800D01*
X85875340Y-157412117D01*
X85879528Y-157420528D01*
X85904267Y-157507476D01*
X85930805Y-157594960D01*
X85931676Y-157603811D01*
X85932577Y-157606975D01*
X85941938Y-157708002D01*
X85951000Y-157800000D01*
X85941938Y-157892005D01*
X85932577Y-157993024D01*
X85931676Y-157996187D01*
X85930805Y-158005040D01*
X85904262Y-158092538D01*
X85879528Y-158179471D01*
X85875341Y-158187879D01*
X85870997Y-158202200D01*
X85830267Y-158278399D01*
X85793122Y-158352999D01*
X85783785Y-158365362D01*
X85773875Y-158383904D01*
X85722620Y-158446357D01*
X85676301Y-158507694D01*
X85660345Y-158522238D01*
X85643169Y-158543169D01*
X85585201Y-158590741D01*
X85533048Y-158638286D01*
X85509511Y-158652859D01*
X85483904Y-158673875D01*
X85422965Y-158706447D01*
X85368232Y-158740337D01*
X85336726Y-158752542D01*
X85302200Y-158770997D01*
X85241773Y-158789327D01*
X85187474Y-158810363D01*
X85148268Y-158817691D01*
X85105040Y-158830805D01*
X85048136Y-158836409D01*
X84996923Y-158845983D01*
X84950938Y-158845983D01*
X84900000Y-158851000D01*
X84849062Y-158845983D01*
X84803077Y-158845983D01*
X84751863Y-158836409D01*
X84694960Y-158830805D01*
X84651732Y-158817692D01*
X84612525Y-158810363D01*
X84558221Y-158789325D01*
X84497800Y-158770997D01*
X84463275Y-158752543D01*
X84431767Y-158740337D01*
X84377027Y-158706443D01*
X84316096Y-158673875D01*
X84290491Y-158652861D01*
X84266951Y-158638286D01*
X84214788Y-158590733D01*
X84156831Y-158543169D01*
X84139656Y-158522242D01*
X84123698Y-158507694D01*
X84077367Y-158446342D01*
X84026125Y-158383904D01*
X84016216Y-158365366D01*
X84006877Y-158352999D01*
X83969717Y-158278372D01*
X83929003Y-158202200D01*
X83924660Y-158187884D01*
X83920471Y-158179471D01*
X83895721Y-158092485D01*
X83869195Y-158005040D01*
X83868323Y-157996192D01*
X83867422Y-157993024D01*
X83858044Y-157891833D01*
X83849000Y-157800000D01*
X83858044Y-157708173D01*
X83867422Y-157606975D01*
X83868323Y-157603805D01*
X83869195Y-157594960D01*
X83895716Y-157507529D01*
X83920471Y-157420528D01*
X83924661Y-157412112D01*
X83929003Y-157397800D01*
X83969710Y-157321641D01*
X84006877Y-157247000D01*
X84016218Y-157234629D01*
X84026125Y-157216096D01*
X84077357Y-157153668D01*
X84123698Y-157092305D01*
X84139660Y-157077753D01*
X84156831Y-157056831D01*
X84214777Y-157009275D01*
X84266951Y-156961713D01*
X84290496Y-156947134D01*
X84316096Y-156926125D01*
X84377015Y-156893563D01*
X84431767Y-156859662D01*
X84463282Y-156847452D01*
X84497800Y-156829003D01*
X84558209Y-156810677D01*
X84612525Y-156789636D01*
X84651739Y-156782305D01*
X84694960Y-156769195D01*
X84751860Y-156763590D01*
X84803077Y-156754017D01*
X84849062Y-156754017D01*
X84900000Y-156749000D01*
X84950938Y-156754017D01*
G37*
G36*
X91450938Y-156754017D02*
G01*
X91496923Y-156754017D01*
X91548139Y-156763590D01*
X91605040Y-156769195D01*
X91648261Y-156782306D01*
X91687474Y-156789636D01*
X91741785Y-156810676D01*
X91802200Y-156829003D01*
X91836720Y-156847454D01*
X91868232Y-156859662D01*
X91922977Y-156893559D01*
X91983904Y-156926125D01*
X92009506Y-156947136D01*
X92033048Y-156961713D01*
X92085212Y-157009267D01*
X92143169Y-157056831D01*
X92160342Y-157077757D01*
X92176301Y-157092305D01*
X92222629Y-157153653D01*
X92273875Y-157216096D01*
X92283783Y-157234634D01*
X92293122Y-157247000D01*
X92330274Y-157321613D01*
X92370997Y-157397800D01*
X92375340Y-157412117D01*
X92379528Y-157420528D01*
X92404267Y-157507476D01*
X92430805Y-157594960D01*
X92431676Y-157603811D01*
X92432577Y-157606975D01*
X92441938Y-157708002D01*
X92451000Y-157800000D01*
X92441938Y-157892005D01*
X92432577Y-157993024D01*
X92431676Y-157996187D01*
X92430805Y-158005040D01*
X92404262Y-158092538D01*
X92379528Y-158179471D01*
X92375341Y-158187879D01*
X92370997Y-158202200D01*
X92330267Y-158278399D01*
X92293122Y-158352999D01*
X92283785Y-158365362D01*
X92273875Y-158383904D01*
X92222620Y-158446357D01*
X92176301Y-158507694D01*
X92160345Y-158522238D01*
X92143169Y-158543169D01*
X92085201Y-158590741D01*
X92033048Y-158638286D01*
X92009511Y-158652859D01*
X91983904Y-158673875D01*
X91922965Y-158706447D01*
X91868232Y-158740337D01*
X91836726Y-158752542D01*
X91802200Y-158770997D01*
X91741773Y-158789327D01*
X91687474Y-158810363D01*
X91648268Y-158817691D01*
X91605040Y-158830805D01*
X91548136Y-158836409D01*
X91496923Y-158845983D01*
X91450938Y-158845983D01*
X91400000Y-158851000D01*
X91349062Y-158845983D01*
X91303077Y-158845983D01*
X91251863Y-158836409D01*
X91194960Y-158830805D01*
X91151732Y-158817692D01*
X91112525Y-158810363D01*
X91058221Y-158789325D01*
X90997800Y-158770997D01*
X90963275Y-158752543D01*
X90931767Y-158740337D01*
X90877027Y-158706443D01*
X90816096Y-158673875D01*
X90790491Y-158652861D01*
X90766951Y-158638286D01*
X90714788Y-158590733D01*
X90656831Y-158543169D01*
X90639656Y-158522242D01*
X90623698Y-158507694D01*
X90577367Y-158446342D01*
X90526125Y-158383904D01*
X90516216Y-158365366D01*
X90506877Y-158352999D01*
X90469717Y-158278372D01*
X90429003Y-158202200D01*
X90424660Y-158187884D01*
X90420471Y-158179471D01*
X90395721Y-158092485D01*
X90369195Y-158005040D01*
X90368323Y-157996192D01*
X90367422Y-157993024D01*
X90358044Y-157891833D01*
X90349000Y-157800000D01*
X90358044Y-157708173D01*
X90367422Y-157606975D01*
X90368323Y-157603805D01*
X90369195Y-157594960D01*
X90395716Y-157507529D01*
X90420471Y-157420528D01*
X90424661Y-157412112D01*
X90429003Y-157397800D01*
X90469710Y-157321641D01*
X90506877Y-157247000D01*
X90516218Y-157234629D01*
X90526125Y-157216096D01*
X90577357Y-157153668D01*
X90623698Y-157092305D01*
X90639660Y-157077753D01*
X90656831Y-157056831D01*
X90714777Y-157009275D01*
X90766951Y-156961713D01*
X90790496Y-156947134D01*
X90816096Y-156926125D01*
X90877015Y-156893563D01*
X90931767Y-156859662D01*
X90963282Y-156847452D01*
X90997800Y-156829003D01*
X91058209Y-156810677D01*
X91112525Y-156789636D01*
X91151739Y-156782305D01*
X91194960Y-156769195D01*
X91251860Y-156763590D01*
X91303077Y-156754017D01*
X91349062Y-156754017D01*
X91400000Y-156749000D01*
X91450938Y-156754017D01*
G37*
G36*
X101750938Y-156754017D02*
G01*
X101796923Y-156754017D01*
X101848139Y-156763590D01*
X101905040Y-156769195D01*
X101948261Y-156782306D01*
X101987474Y-156789636D01*
X102041785Y-156810676D01*
X102102200Y-156829003D01*
X102136720Y-156847454D01*
X102168232Y-156859662D01*
X102222977Y-156893559D01*
X102283904Y-156926125D01*
X102309506Y-156947136D01*
X102333048Y-156961713D01*
X102385212Y-157009267D01*
X102443169Y-157056831D01*
X102460342Y-157077757D01*
X102476301Y-157092305D01*
X102522629Y-157153653D01*
X102573875Y-157216096D01*
X102583783Y-157234634D01*
X102593122Y-157247000D01*
X102630274Y-157321613D01*
X102670997Y-157397800D01*
X102675340Y-157412117D01*
X102679528Y-157420528D01*
X102704267Y-157507476D01*
X102730805Y-157594960D01*
X102731676Y-157603811D01*
X102732577Y-157606975D01*
X102741938Y-157708002D01*
X102751000Y-157800000D01*
X102741938Y-157892005D01*
X102732577Y-157993024D01*
X102731676Y-157996187D01*
X102730805Y-158005040D01*
X102704262Y-158092538D01*
X102679528Y-158179471D01*
X102675341Y-158187879D01*
X102670997Y-158202200D01*
X102630267Y-158278399D01*
X102593122Y-158352999D01*
X102583785Y-158365362D01*
X102573875Y-158383904D01*
X102522620Y-158446357D01*
X102476301Y-158507694D01*
X102460345Y-158522238D01*
X102443169Y-158543169D01*
X102385201Y-158590741D01*
X102333048Y-158638286D01*
X102309511Y-158652859D01*
X102283904Y-158673875D01*
X102222965Y-158706447D01*
X102168232Y-158740337D01*
X102136726Y-158752542D01*
X102102200Y-158770997D01*
X102041773Y-158789327D01*
X101987474Y-158810363D01*
X101948268Y-158817691D01*
X101905040Y-158830805D01*
X101848136Y-158836409D01*
X101796923Y-158845983D01*
X101750938Y-158845983D01*
X101700000Y-158851000D01*
X101649062Y-158845983D01*
X101603077Y-158845983D01*
X101551863Y-158836409D01*
X101494960Y-158830805D01*
X101451732Y-158817692D01*
X101412525Y-158810363D01*
X101358221Y-158789325D01*
X101297800Y-158770997D01*
X101263275Y-158752543D01*
X101231767Y-158740337D01*
X101177027Y-158706443D01*
X101116096Y-158673875D01*
X101090491Y-158652861D01*
X101066951Y-158638286D01*
X101014788Y-158590733D01*
X100956831Y-158543169D01*
X100939656Y-158522242D01*
X100923698Y-158507694D01*
X100877367Y-158446342D01*
X100826125Y-158383904D01*
X100816216Y-158365366D01*
X100806877Y-158352999D01*
X100769717Y-158278372D01*
X100729003Y-158202200D01*
X100724660Y-158187884D01*
X100720471Y-158179471D01*
X100695721Y-158092485D01*
X100669195Y-158005040D01*
X100668323Y-157996192D01*
X100667422Y-157993024D01*
X100658044Y-157891833D01*
X100649000Y-157800000D01*
X100658044Y-157708173D01*
X100667422Y-157606975D01*
X100668323Y-157603805D01*
X100669195Y-157594960D01*
X100695716Y-157507529D01*
X100720471Y-157420528D01*
X100724661Y-157412112D01*
X100729003Y-157397800D01*
X100769710Y-157321641D01*
X100806877Y-157247000D01*
X100816218Y-157234629D01*
X100826125Y-157216096D01*
X100877357Y-157153668D01*
X100923698Y-157092305D01*
X100939660Y-157077753D01*
X100956831Y-157056831D01*
X101014777Y-157009275D01*
X101066951Y-156961713D01*
X101090496Y-156947134D01*
X101116096Y-156926125D01*
X101177015Y-156893563D01*
X101231767Y-156859662D01*
X101263282Y-156847452D01*
X101297800Y-156829003D01*
X101358209Y-156810677D01*
X101412525Y-156789636D01*
X101451739Y-156782305D01*
X101494960Y-156769195D01*
X101551860Y-156763590D01*
X101603077Y-156754017D01*
X101649062Y-156754017D01*
X101700000Y-156749000D01*
X101750938Y-156754017D01*
G37*
G36*
X108250938Y-156754017D02*
G01*
X108296923Y-156754017D01*
X108348139Y-156763590D01*
X108405040Y-156769195D01*
X108448261Y-156782306D01*
X108487474Y-156789636D01*
X108541785Y-156810676D01*
X108602200Y-156829003D01*
X108636720Y-156847454D01*
X108668232Y-156859662D01*
X108722977Y-156893559D01*
X108783904Y-156926125D01*
X108809506Y-156947136D01*
X108833048Y-156961713D01*
X108885212Y-157009267D01*
X108943169Y-157056831D01*
X108960342Y-157077757D01*
X108976301Y-157092305D01*
X109022629Y-157153653D01*
X109073875Y-157216096D01*
X109083783Y-157234634D01*
X109093122Y-157247000D01*
X109130274Y-157321613D01*
X109170997Y-157397800D01*
X109175340Y-157412117D01*
X109179528Y-157420528D01*
X109204267Y-157507476D01*
X109230805Y-157594960D01*
X109231676Y-157603811D01*
X109232577Y-157606975D01*
X109241938Y-157708002D01*
X109251000Y-157800000D01*
X109241938Y-157892005D01*
X109232577Y-157993024D01*
X109231676Y-157996187D01*
X109230805Y-158005040D01*
X109204262Y-158092538D01*
X109179528Y-158179471D01*
X109175341Y-158187879D01*
X109170997Y-158202200D01*
X109130267Y-158278399D01*
X109093122Y-158352999D01*
X109083785Y-158365362D01*
X109073875Y-158383904D01*
X109022620Y-158446357D01*
X108976301Y-158507694D01*
X108960345Y-158522238D01*
X108943169Y-158543169D01*
X108885201Y-158590741D01*
X108833048Y-158638286D01*
X108809511Y-158652859D01*
X108783904Y-158673875D01*
X108722965Y-158706447D01*
X108668232Y-158740337D01*
X108636726Y-158752542D01*
X108602200Y-158770997D01*
X108541773Y-158789327D01*
X108487474Y-158810363D01*
X108448268Y-158817691D01*
X108405040Y-158830805D01*
X108348136Y-158836409D01*
X108296923Y-158845983D01*
X108250938Y-158845983D01*
X108200000Y-158851000D01*
X108149062Y-158845983D01*
X108103077Y-158845983D01*
X108051863Y-158836409D01*
X107994960Y-158830805D01*
X107951732Y-158817692D01*
X107912525Y-158810363D01*
X107858221Y-158789325D01*
X107797800Y-158770997D01*
X107763275Y-158752543D01*
X107731767Y-158740337D01*
X107677027Y-158706443D01*
X107616096Y-158673875D01*
X107590491Y-158652861D01*
X107566951Y-158638286D01*
X107514788Y-158590733D01*
X107456831Y-158543169D01*
X107439656Y-158522242D01*
X107423698Y-158507694D01*
X107377367Y-158446342D01*
X107326125Y-158383904D01*
X107316216Y-158365366D01*
X107306877Y-158352999D01*
X107269717Y-158278372D01*
X107229003Y-158202200D01*
X107224660Y-158187884D01*
X107220471Y-158179471D01*
X107195721Y-158092485D01*
X107169195Y-158005040D01*
X107168323Y-157996192D01*
X107167422Y-157993024D01*
X107158044Y-157891833D01*
X107149000Y-157800000D01*
X107158044Y-157708173D01*
X107167422Y-157606975D01*
X107168323Y-157603805D01*
X107169195Y-157594960D01*
X107195716Y-157507529D01*
X107220471Y-157420528D01*
X107224661Y-157412112D01*
X107229003Y-157397800D01*
X107269710Y-157321641D01*
X107306877Y-157247000D01*
X107316218Y-157234629D01*
X107326125Y-157216096D01*
X107377357Y-157153668D01*
X107423698Y-157092305D01*
X107439660Y-157077753D01*
X107456831Y-157056831D01*
X107514777Y-157009275D01*
X107566951Y-156961713D01*
X107590496Y-156947134D01*
X107616096Y-156926125D01*
X107677015Y-156893563D01*
X107731767Y-156859662D01*
X107763282Y-156847452D01*
X107797800Y-156829003D01*
X107858209Y-156810677D01*
X107912525Y-156789636D01*
X107951739Y-156782305D01*
X107994960Y-156769195D01*
X108051860Y-156763590D01*
X108103077Y-156754017D01*
X108149062Y-156754017D01*
X108200000Y-156749000D01*
X108250938Y-156754017D01*
G37*
G36*
X142650938Y-156454017D02*
G01*
X142696923Y-156454017D01*
X142748139Y-156463590D01*
X142805040Y-156469195D01*
X142848261Y-156482306D01*
X142887474Y-156489636D01*
X142941785Y-156510676D01*
X143002200Y-156529003D01*
X143036720Y-156547454D01*
X143068232Y-156559662D01*
X143122977Y-156593559D01*
X143183904Y-156626125D01*
X143209506Y-156647136D01*
X143233048Y-156661713D01*
X143285212Y-156709267D01*
X143343169Y-156756831D01*
X143360342Y-156777757D01*
X143376301Y-156792305D01*
X143422629Y-156853653D01*
X143473875Y-156916096D01*
X143483783Y-156934634D01*
X143493122Y-156947000D01*
X143530274Y-157021613D01*
X143570997Y-157097800D01*
X143575340Y-157112117D01*
X143579528Y-157120528D01*
X143604267Y-157207476D01*
X143630805Y-157294960D01*
X143631676Y-157303811D01*
X143632577Y-157306975D01*
X143641938Y-157408002D01*
X143651000Y-157500000D01*
X143641938Y-157592005D01*
X143632577Y-157693024D01*
X143631676Y-157696187D01*
X143630805Y-157705040D01*
X143604262Y-157792538D01*
X143579528Y-157879471D01*
X143575341Y-157887879D01*
X143570997Y-157902200D01*
X143530267Y-157978399D01*
X143493122Y-158052999D01*
X143483785Y-158065362D01*
X143473875Y-158083904D01*
X143422620Y-158146357D01*
X143376301Y-158207694D01*
X143360345Y-158222238D01*
X143343169Y-158243169D01*
X143285201Y-158290741D01*
X143233048Y-158338286D01*
X143209511Y-158352859D01*
X143183904Y-158373875D01*
X143122965Y-158406447D01*
X143068232Y-158440337D01*
X143036726Y-158452542D01*
X143002200Y-158470997D01*
X142941773Y-158489327D01*
X142887474Y-158510363D01*
X142848268Y-158517691D01*
X142805040Y-158530805D01*
X142748136Y-158536409D01*
X142696923Y-158545983D01*
X142650938Y-158545983D01*
X142600000Y-158551000D01*
X142549062Y-158545983D01*
X142503077Y-158545983D01*
X142451863Y-158536409D01*
X142394960Y-158530805D01*
X142351732Y-158517692D01*
X142312525Y-158510363D01*
X142258221Y-158489325D01*
X142197800Y-158470997D01*
X142163275Y-158452543D01*
X142131767Y-158440337D01*
X142077027Y-158406443D01*
X142016096Y-158373875D01*
X141990491Y-158352861D01*
X141966951Y-158338286D01*
X141914788Y-158290733D01*
X141856831Y-158243169D01*
X141839656Y-158222242D01*
X141823698Y-158207694D01*
X141777367Y-158146342D01*
X141726125Y-158083904D01*
X141716216Y-158065366D01*
X141706877Y-158052999D01*
X141669717Y-157978372D01*
X141629003Y-157902200D01*
X141624660Y-157887884D01*
X141620471Y-157879471D01*
X141595721Y-157792485D01*
X141569195Y-157705040D01*
X141568323Y-157696192D01*
X141567422Y-157693024D01*
X141558044Y-157591833D01*
X141549000Y-157500000D01*
X141558044Y-157408173D01*
X141567422Y-157306975D01*
X141568323Y-157303805D01*
X141569195Y-157294960D01*
X141595716Y-157207529D01*
X141620471Y-157120528D01*
X141624661Y-157112112D01*
X141629003Y-157097800D01*
X141669710Y-157021641D01*
X141706877Y-156947000D01*
X141716218Y-156934629D01*
X141726125Y-156916096D01*
X141777357Y-156853668D01*
X141823698Y-156792305D01*
X141839660Y-156777753D01*
X141856831Y-156756831D01*
X141914777Y-156709275D01*
X141966951Y-156661713D01*
X141990496Y-156647134D01*
X142016096Y-156626125D01*
X142077015Y-156593563D01*
X142131767Y-156559662D01*
X142163282Y-156547452D01*
X142197800Y-156529003D01*
X142258209Y-156510677D01*
X142312525Y-156489636D01*
X142351739Y-156482305D01*
X142394960Y-156469195D01*
X142451860Y-156463590D01*
X142503077Y-156454017D01*
X142549062Y-156454017D01*
X142600000Y-156449000D01*
X142650938Y-156454017D01*
G37*
G36*
X149150938Y-156454017D02*
G01*
X149196923Y-156454017D01*
X149248139Y-156463590D01*
X149305040Y-156469195D01*
X149348261Y-156482306D01*
X149387474Y-156489636D01*
X149441785Y-156510676D01*
X149502200Y-156529003D01*
X149536720Y-156547454D01*
X149568232Y-156559662D01*
X149622977Y-156593559D01*
X149683904Y-156626125D01*
X149709506Y-156647136D01*
X149733048Y-156661713D01*
X149785212Y-156709267D01*
X149843169Y-156756831D01*
X149860342Y-156777757D01*
X149876301Y-156792305D01*
X149922629Y-156853653D01*
X149973875Y-156916096D01*
X149983783Y-156934634D01*
X149993122Y-156947000D01*
X150030274Y-157021613D01*
X150070997Y-157097800D01*
X150075340Y-157112117D01*
X150079528Y-157120528D01*
X150104267Y-157207476D01*
X150130805Y-157294960D01*
X150131676Y-157303811D01*
X150132577Y-157306975D01*
X150141938Y-157408002D01*
X150151000Y-157500000D01*
X150141938Y-157592005D01*
X150132577Y-157693024D01*
X150131676Y-157696187D01*
X150130805Y-157705040D01*
X150104262Y-157792538D01*
X150079528Y-157879471D01*
X150075341Y-157887879D01*
X150070997Y-157902200D01*
X150030267Y-157978399D01*
X149993122Y-158052999D01*
X149983785Y-158065362D01*
X149973875Y-158083904D01*
X149922620Y-158146357D01*
X149876301Y-158207694D01*
X149860345Y-158222238D01*
X149843169Y-158243169D01*
X149785201Y-158290741D01*
X149733048Y-158338286D01*
X149709511Y-158352859D01*
X149683904Y-158373875D01*
X149622965Y-158406447D01*
X149568232Y-158440337D01*
X149536726Y-158452542D01*
X149502200Y-158470997D01*
X149441773Y-158489327D01*
X149387474Y-158510363D01*
X149348268Y-158517691D01*
X149305040Y-158530805D01*
X149248136Y-158536409D01*
X149196923Y-158545983D01*
X149150938Y-158545983D01*
X149100000Y-158551000D01*
X149049062Y-158545983D01*
X149003077Y-158545983D01*
X148951863Y-158536409D01*
X148894960Y-158530805D01*
X148851732Y-158517692D01*
X148812525Y-158510363D01*
X148758221Y-158489325D01*
X148697800Y-158470997D01*
X148663275Y-158452543D01*
X148631767Y-158440337D01*
X148577027Y-158406443D01*
X148516096Y-158373875D01*
X148490491Y-158352861D01*
X148466951Y-158338286D01*
X148414788Y-158290733D01*
X148356831Y-158243169D01*
X148339656Y-158222242D01*
X148323698Y-158207694D01*
X148277367Y-158146342D01*
X148226125Y-158083904D01*
X148216216Y-158065366D01*
X148206877Y-158052999D01*
X148169717Y-157978372D01*
X148129003Y-157902200D01*
X148124660Y-157887884D01*
X148120471Y-157879471D01*
X148095721Y-157792485D01*
X148069195Y-157705040D01*
X148068323Y-157696192D01*
X148067422Y-157693024D01*
X148058044Y-157591833D01*
X148049000Y-157500000D01*
X148058044Y-157408173D01*
X148067422Y-157306975D01*
X148068323Y-157303805D01*
X148069195Y-157294960D01*
X148095716Y-157207529D01*
X148120471Y-157120528D01*
X148124661Y-157112112D01*
X148129003Y-157097800D01*
X148169710Y-157021641D01*
X148206877Y-156947000D01*
X148216218Y-156934629D01*
X148226125Y-156916096D01*
X148277357Y-156853668D01*
X148323698Y-156792305D01*
X148339660Y-156777753D01*
X148356831Y-156756831D01*
X148414777Y-156709275D01*
X148466951Y-156661713D01*
X148490496Y-156647134D01*
X148516096Y-156626125D01*
X148577015Y-156593563D01*
X148631767Y-156559662D01*
X148663282Y-156547452D01*
X148697800Y-156529003D01*
X148758209Y-156510677D01*
X148812525Y-156489636D01*
X148851739Y-156482305D01*
X148894960Y-156469195D01*
X148951860Y-156463590D01*
X149003077Y-156454017D01*
X149049062Y-156454017D01*
X149100000Y-156449000D01*
X149150938Y-156454017D01*
G37*
G36*
X114785523Y-156103576D02*
G01*
X114831037Y-156103576D01*
X114881723Y-156113050D01*
X114938167Y-156118610D01*
X114981046Y-156131617D01*
X115019850Y-156138871D01*
X115073597Y-156159692D01*
X115133527Y-156177872D01*
X115167764Y-156196172D01*
X115198951Y-156208254D01*
X115253140Y-156241807D01*
X115313571Y-156274108D01*
X115338962Y-156294946D01*
X115362259Y-156309371D01*
X115413876Y-156356426D01*
X115471381Y-156403619D01*
X115488421Y-156424382D01*
X115504209Y-156438775D01*
X115550042Y-156499468D01*
X115600892Y-156561429D01*
X115610725Y-156579826D01*
X115619961Y-156592056D01*
X115656700Y-156665839D01*
X115697128Y-156741473D01*
X115701440Y-156755687D01*
X115705577Y-156763996D01*
X115730017Y-156849894D01*
X115756390Y-156936833D01*
X115757256Y-156945628D01*
X115758141Y-156948738D01*
X115767340Y-157048013D01*
X115776400Y-157140000D01*
X115767339Y-157231994D01*
X115758141Y-157331261D01*
X115757256Y-157334369D01*
X115756390Y-157343167D01*
X115730012Y-157430120D01*
X115705577Y-157516003D01*
X115701440Y-157524309D01*
X115697128Y-157538527D01*
X115656693Y-157614174D01*
X115619961Y-157687943D01*
X115610727Y-157700170D01*
X115600892Y-157718571D01*
X115550032Y-157780543D01*
X115504209Y-157841224D01*
X115488424Y-157855613D01*
X115471381Y-157876381D01*
X115413865Y-157923582D01*
X115362259Y-157970628D01*
X115338967Y-157985049D01*
X115313571Y-158005892D01*
X115253128Y-158038199D01*
X115198951Y-158071745D01*
X115167771Y-158083823D01*
X115133527Y-158102128D01*
X115073585Y-158120311D01*
X115019850Y-158141128D01*
X114981053Y-158148380D01*
X114938167Y-158161390D01*
X114881720Y-158166949D01*
X114831037Y-158176424D01*
X114785523Y-158176424D01*
X114735000Y-158181400D01*
X114684477Y-158176424D01*
X114638963Y-158176424D01*
X114588279Y-158166949D01*
X114531833Y-158161390D01*
X114488947Y-158148380D01*
X114450149Y-158141128D01*
X114396410Y-158120309D01*
X114336473Y-158102128D01*
X114302230Y-158083825D01*
X114271048Y-158071745D01*
X114216863Y-158038195D01*
X114156429Y-158005892D01*
X114131035Y-157985051D01*
X114107740Y-157970628D01*
X114056124Y-157923574D01*
X113998619Y-157876381D01*
X113981578Y-157855617D01*
X113965790Y-157841224D01*
X113919954Y-157780528D01*
X113869108Y-157718571D01*
X113859274Y-157700174D01*
X113850038Y-157687943D01*
X113813291Y-157614147D01*
X113772872Y-157538527D01*
X113768560Y-157524314D01*
X113764422Y-157516003D01*
X113739971Y-157430067D01*
X113713610Y-157343167D01*
X113712744Y-157334375D01*
X113711858Y-157331261D01*
X113702643Y-157231822D01*
X113693600Y-157140000D01*
X113702642Y-157048185D01*
X113711858Y-156948738D01*
X113712744Y-156945623D01*
X113713610Y-156936833D01*
X113739966Y-156849947D01*
X113764422Y-156763996D01*
X113768561Y-156755682D01*
X113772872Y-156741473D01*
X113813284Y-156665866D01*
X113850038Y-156592056D01*
X113859276Y-156579821D01*
X113869108Y-156561429D01*
X113919945Y-156499483D01*
X113965790Y-156438775D01*
X113981581Y-156424378D01*
X113998619Y-156403619D01*
X114056113Y-156356434D01*
X114107740Y-156309371D01*
X114131040Y-156294943D01*
X114156429Y-156274108D01*
X114216851Y-156241811D01*
X114271048Y-156208254D01*
X114302237Y-156196171D01*
X114336473Y-156177872D01*
X114396398Y-156159693D01*
X114450149Y-156138871D01*
X114488954Y-156131617D01*
X114531833Y-156118610D01*
X114588276Y-156113050D01*
X114638963Y-156103576D01*
X114684477Y-156103576D01*
X114735000Y-156098600D01*
X114785523Y-156103576D01*
G37*
G36*
X130275523Y-156093576D02*
G01*
X130321037Y-156093576D01*
X130371723Y-156103050D01*
X130428167Y-156108610D01*
X130471046Y-156121617D01*
X130509850Y-156128871D01*
X130563597Y-156149692D01*
X130623527Y-156167872D01*
X130657764Y-156186172D01*
X130688951Y-156198254D01*
X130743140Y-156231807D01*
X130803571Y-156264108D01*
X130828962Y-156284946D01*
X130852259Y-156299371D01*
X130903876Y-156346426D01*
X130961381Y-156393619D01*
X130978421Y-156414382D01*
X130994209Y-156428775D01*
X131040042Y-156489468D01*
X131090892Y-156551429D01*
X131100725Y-156569826D01*
X131109961Y-156582056D01*
X131146700Y-156655839D01*
X131187128Y-156731473D01*
X131191440Y-156745687D01*
X131195577Y-156753996D01*
X131220017Y-156839894D01*
X131246390Y-156926833D01*
X131247256Y-156935628D01*
X131248141Y-156938738D01*
X131257340Y-157038013D01*
X131266400Y-157130000D01*
X131257339Y-157221994D01*
X131248141Y-157321261D01*
X131247256Y-157324369D01*
X131246390Y-157333167D01*
X131220012Y-157420120D01*
X131195577Y-157506003D01*
X131191440Y-157514309D01*
X131187128Y-157528527D01*
X131146693Y-157604174D01*
X131109961Y-157677943D01*
X131100727Y-157690170D01*
X131090892Y-157708571D01*
X131040032Y-157770543D01*
X130994209Y-157831224D01*
X130978424Y-157845613D01*
X130961381Y-157866381D01*
X130903865Y-157913582D01*
X130852259Y-157960628D01*
X130828967Y-157975049D01*
X130803571Y-157995892D01*
X130743128Y-158028199D01*
X130688951Y-158061745D01*
X130657771Y-158073823D01*
X130623527Y-158092128D01*
X130563585Y-158110311D01*
X130509850Y-158131128D01*
X130471053Y-158138380D01*
X130428167Y-158151390D01*
X130371720Y-158156949D01*
X130321037Y-158166424D01*
X130275523Y-158166424D01*
X130225000Y-158171400D01*
X130174477Y-158166424D01*
X130128963Y-158166424D01*
X130078279Y-158156949D01*
X130021833Y-158151390D01*
X129978947Y-158138380D01*
X129940149Y-158131128D01*
X129886410Y-158110309D01*
X129826473Y-158092128D01*
X129792230Y-158073825D01*
X129761048Y-158061745D01*
X129706863Y-158028195D01*
X129646429Y-157995892D01*
X129621035Y-157975051D01*
X129597740Y-157960628D01*
X129546124Y-157913574D01*
X129488619Y-157866381D01*
X129471578Y-157845617D01*
X129455790Y-157831224D01*
X129409954Y-157770528D01*
X129359108Y-157708571D01*
X129349274Y-157690174D01*
X129340038Y-157677943D01*
X129303291Y-157604147D01*
X129262872Y-157528527D01*
X129258560Y-157514314D01*
X129254422Y-157506003D01*
X129229971Y-157420067D01*
X129203610Y-157333167D01*
X129202744Y-157324375D01*
X129201858Y-157321261D01*
X129192643Y-157221822D01*
X129183600Y-157130000D01*
X129192642Y-157038185D01*
X129201858Y-156938738D01*
X129202744Y-156935623D01*
X129203610Y-156926833D01*
X129229966Y-156839947D01*
X129254422Y-156753996D01*
X129258561Y-156745682D01*
X129262872Y-156731473D01*
X129303284Y-156655866D01*
X129340038Y-156582056D01*
X129349276Y-156569821D01*
X129359108Y-156551429D01*
X129409945Y-156489483D01*
X129455790Y-156428775D01*
X129471581Y-156414378D01*
X129488619Y-156393619D01*
X129546113Y-156346434D01*
X129597740Y-156299371D01*
X129621040Y-156284943D01*
X129646429Y-156264108D01*
X129706851Y-156231811D01*
X129761048Y-156198254D01*
X129792237Y-156186171D01*
X129826473Y-156167872D01*
X129886398Y-156149693D01*
X129940149Y-156128871D01*
X129978954Y-156121617D01*
X130021833Y-156108610D01*
X130078276Y-156103050D01*
X130128963Y-156093576D01*
X130174477Y-156093576D01*
X130225000Y-156088600D01*
X130275523Y-156093576D01*
G37*
G36*
X114785523Y-153573576D02*
G01*
X114831037Y-153573576D01*
X114881723Y-153583050D01*
X114938167Y-153588610D01*
X114981046Y-153601617D01*
X115019850Y-153608871D01*
X115073597Y-153629692D01*
X115133527Y-153647872D01*
X115167764Y-153666172D01*
X115198951Y-153678254D01*
X115253140Y-153711807D01*
X115313571Y-153744108D01*
X115338962Y-153764946D01*
X115362259Y-153779371D01*
X115413876Y-153826426D01*
X115471381Y-153873619D01*
X115488421Y-153894382D01*
X115504209Y-153908775D01*
X115550042Y-153969468D01*
X115600892Y-154031429D01*
X115610725Y-154049826D01*
X115619961Y-154062056D01*
X115656700Y-154135839D01*
X115697128Y-154211473D01*
X115701440Y-154225687D01*
X115705577Y-154233996D01*
X115730017Y-154319894D01*
X115756390Y-154406833D01*
X115757256Y-154415628D01*
X115758141Y-154418738D01*
X115767340Y-154518013D01*
X115776400Y-154610000D01*
X115767339Y-154701994D01*
X115758141Y-154801261D01*
X115757256Y-154804369D01*
X115756390Y-154813167D01*
X115730012Y-154900120D01*
X115705577Y-154986003D01*
X115701440Y-154994309D01*
X115697128Y-155008527D01*
X115656693Y-155084174D01*
X115619961Y-155157943D01*
X115610727Y-155170170D01*
X115600892Y-155188571D01*
X115550032Y-155250543D01*
X115504209Y-155311224D01*
X115488424Y-155325613D01*
X115471381Y-155346381D01*
X115413865Y-155393582D01*
X115362259Y-155440628D01*
X115338967Y-155455049D01*
X115313571Y-155475892D01*
X115253128Y-155508199D01*
X115198951Y-155541745D01*
X115167771Y-155553823D01*
X115133527Y-155572128D01*
X115073585Y-155590311D01*
X115019850Y-155611128D01*
X114981053Y-155618380D01*
X114938167Y-155631390D01*
X114881720Y-155636949D01*
X114831037Y-155646424D01*
X114785523Y-155646424D01*
X114735000Y-155651400D01*
X114684477Y-155646424D01*
X114638963Y-155646424D01*
X114588279Y-155636949D01*
X114531833Y-155631390D01*
X114488947Y-155618380D01*
X114450149Y-155611128D01*
X114396410Y-155590309D01*
X114336473Y-155572128D01*
X114302230Y-155553825D01*
X114271048Y-155541745D01*
X114216863Y-155508195D01*
X114156429Y-155475892D01*
X114131035Y-155455051D01*
X114107740Y-155440628D01*
X114056124Y-155393574D01*
X113998619Y-155346381D01*
X113981578Y-155325617D01*
X113965790Y-155311224D01*
X113919954Y-155250528D01*
X113869108Y-155188571D01*
X113859274Y-155170174D01*
X113850038Y-155157943D01*
X113813291Y-155084147D01*
X113772872Y-155008527D01*
X113768560Y-154994314D01*
X113764422Y-154986003D01*
X113739971Y-154900067D01*
X113713610Y-154813167D01*
X113712744Y-154804375D01*
X113711858Y-154801261D01*
X113702643Y-154701822D01*
X113693600Y-154610000D01*
X113702642Y-154518185D01*
X113711858Y-154418738D01*
X113712744Y-154415623D01*
X113713610Y-154406833D01*
X113739966Y-154319947D01*
X113764422Y-154233996D01*
X113768561Y-154225682D01*
X113772872Y-154211473D01*
X113813284Y-154135866D01*
X113850038Y-154062056D01*
X113859276Y-154049821D01*
X113869108Y-154031429D01*
X113919945Y-153969483D01*
X113965790Y-153908775D01*
X113981581Y-153894378D01*
X113998619Y-153873619D01*
X114056113Y-153826434D01*
X114107740Y-153779371D01*
X114131040Y-153764943D01*
X114156429Y-153744108D01*
X114216851Y-153711811D01*
X114271048Y-153678254D01*
X114302237Y-153666171D01*
X114336473Y-153647872D01*
X114396398Y-153629693D01*
X114450149Y-153608871D01*
X114488954Y-153601617D01*
X114531833Y-153588610D01*
X114588276Y-153583050D01*
X114638963Y-153573576D01*
X114684477Y-153573576D01*
X114735000Y-153568600D01*
X114785523Y-153573576D01*
G37*
G36*
X130275523Y-153563576D02*
G01*
X130321037Y-153563576D01*
X130371723Y-153573050D01*
X130428167Y-153578610D01*
X130471046Y-153591617D01*
X130509850Y-153598871D01*
X130563597Y-153619692D01*
X130623527Y-153637872D01*
X130657764Y-153656172D01*
X130688951Y-153668254D01*
X130743140Y-153701807D01*
X130803571Y-153734108D01*
X130828962Y-153754946D01*
X130852259Y-153769371D01*
X130903876Y-153816426D01*
X130961381Y-153863619D01*
X130978421Y-153884382D01*
X130994209Y-153898775D01*
X131040042Y-153959468D01*
X131090892Y-154021429D01*
X131100725Y-154039826D01*
X131109961Y-154052056D01*
X131146700Y-154125839D01*
X131187128Y-154201473D01*
X131191440Y-154215687D01*
X131195577Y-154223996D01*
X131220017Y-154309894D01*
X131246390Y-154396833D01*
X131247256Y-154405628D01*
X131248141Y-154408738D01*
X131257340Y-154508013D01*
X131266400Y-154600000D01*
X131257339Y-154691994D01*
X131248141Y-154791261D01*
X131247256Y-154794369D01*
X131246390Y-154803167D01*
X131220012Y-154890120D01*
X131195577Y-154976003D01*
X131191440Y-154984309D01*
X131187128Y-154998527D01*
X131146693Y-155074174D01*
X131109961Y-155147943D01*
X131100727Y-155160170D01*
X131090892Y-155178571D01*
X131040032Y-155240543D01*
X130994209Y-155301224D01*
X130978424Y-155315613D01*
X130961381Y-155336381D01*
X130903865Y-155383582D01*
X130852259Y-155430628D01*
X130828967Y-155445049D01*
X130803571Y-155465892D01*
X130743128Y-155498199D01*
X130688951Y-155531745D01*
X130657771Y-155543823D01*
X130623527Y-155562128D01*
X130563585Y-155580311D01*
X130509850Y-155601128D01*
X130471053Y-155608380D01*
X130428167Y-155621390D01*
X130371720Y-155626949D01*
X130321037Y-155636424D01*
X130275523Y-155636424D01*
X130225000Y-155641400D01*
X130174477Y-155636424D01*
X130128963Y-155636424D01*
X130078279Y-155626949D01*
X130021833Y-155621390D01*
X129978947Y-155608380D01*
X129940149Y-155601128D01*
X129886410Y-155580309D01*
X129826473Y-155562128D01*
X129792230Y-155543825D01*
X129761048Y-155531745D01*
X129706863Y-155498195D01*
X129646429Y-155465892D01*
X129621035Y-155445051D01*
X129597740Y-155430628D01*
X129546124Y-155383574D01*
X129488619Y-155336381D01*
X129471578Y-155315617D01*
X129455790Y-155301224D01*
X129409954Y-155240528D01*
X129359108Y-155178571D01*
X129349274Y-155160174D01*
X129340038Y-155147943D01*
X129303291Y-155074147D01*
X129262872Y-154998527D01*
X129258560Y-154984314D01*
X129254422Y-154976003D01*
X129229971Y-154890067D01*
X129203610Y-154803167D01*
X129202744Y-154794375D01*
X129201858Y-154791261D01*
X129192643Y-154691822D01*
X129183600Y-154600000D01*
X129192642Y-154508185D01*
X129201858Y-154408738D01*
X129202744Y-154405623D01*
X129203610Y-154396833D01*
X129229966Y-154309947D01*
X129254422Y-154223996D01*
X129258561Y-154215682D01*
X129262872Y-154201473D01*
X129303284Y-154125866D01*
X129340038Y-154052056D01*
X129349276Y-154039821D01*
X129359108Y-154021429D01*
X129409945Y-153959483D01*
X129455790Y-153898775D01*
X129471581Y-153884378D01*
X129488619Y-153863619D01*
X129546113Y-153816434D01*
X129597740Y-153769371D01*
X129621040Y-153754943D01*
X129646429Y-153734108D01*
X129706851Y-153701811D01*
X129761048Y-153668254D01*
X129792237Y-153656171D01*
X129826473Y-153637872D01*
X129886398Y-153619693D01*
X129940149Y-153598871D01*
X129978954Y-153591617D01*
X130021833Y-153578610D01*
X130078276Y-153573050D01*
X130128963Y-153563576D01*
X130174477Y-153563576D01*
X130225000Y-153558600D01*
X130275523Y-153563576D01*
G37*
G36*
X84950938Y-152254017D02*
G01*
X84996923Y-152254017D01*
X85048139Y-152263590D01*
X85105040Y-152269195D01*
X85148261Y-152282306D01*
X85187474Y-152289636D01*
X85241785Y-152310676D01*
X85302200Y-152329003D01*
X85336720Y-152347454D01*
X85368232Y-152359662D01*
X85422977Y-152393559D01*
X85483904Y-152426125D01*
X85509506Y-152447136D01*
X85533048Y-152461713D01*
X85585212Y-152509267D01*
X85643169Y-152556831D01*
X85660342Y-152577757D01*
X85676301Y-152592305D01*
X85722629Y-152653653D01*
X85773875Y-152716096D01*
X85783783Y-152734634D01*
X85793122Y-152747000D01*
X85830274Y-152821613D01*
X85870997Y-152897800D01*
X85875340Y-152912117D01*
X85879528Y-152920528D01*
X85904267Y-153007476D01*
X85930805Y-153094960D01*
X85931676Y-153103811D01*
X85932577Y-153106975D01*
X85941938Y-153208002D01*
X85951000Y-153300000D01*
X85941938Y-153392005D01*
X85932577Y-153493024D01*
X85931676Y-153496187D01*
X85930805Y-153505040D01*
X85904262Y-153592538D01*
X85879528Y-153679471D01*
X85875341Y-153687879D01*
X85870997Y-153702200D01*
X85830267Y-153778399D01*
X85793122Y-153852999D01*
X85783785Y-153865362D01*
X85773875Y-153883904D01*
X85722620Y-153946357D01*
X85676301Y-154007694D01*
X85660345Y-154022238D01*
X85643169Y-154043169D01*
X85585201Y-154090741D01*
X85533048Y-154138286D01*
X85509511Y-154152859D01*
X85483904Y-154173875D01*
X85422965Y-154206447D01*
X85368232Y-154240337D01*
X85336726Y-154252542D01*
X85302200Y-154270997D01*
X85241773Y-154289327D01*
X85187474Y-154310363D01*
X85148268Y-154317691D01*
X85105040Y-154330805D01*
X85048136Y-154336409D01*
X84996923Y-154345983D01*
X84950938Y-154345983D01*
X84900000Y-154351000D01*
X84849062Y-154345983D01*
X84803077Y-154345983D01*
X84751863Y-154336409D01*
X84694960Y-154330805D01*
X84651732Y-154317692D01*
X84612525Y-154310363D01*
X84558221Y-154289325D01*
X84497800Y-154270997D01*
X84463275Y-154252543D01*
X84431767Y-154240337D01*
X84377027Y-154206443D01*
X84316096Y-154173875D01*
X84290491Y-154152861D01*
X84266951Y-154138286D01*
X84214788Y-154090733D01*
X84156831Y-154043169D01*
X84139656Y-154022242D01*
X84123698Y-154007694D01*
X84077367Y-153946342D01*
X84026125Y-153883904D01*
X84016216Y-153865366D01*
X84006877Y-153852999D01*
X83969717Y-153778372D01*
X83929003Y-153702200D01*
X83924660Y-153687884D01*
X83920471Y-153679471D01*
X83895721Y-153592485D01*
X83869195Y-153505040D01*
X83868323Y-153496192D01*
X83867422Y-153493024D01*
X83858044Y-153391833D01*
X83849000Y-153300000D01*
X83858044Y-153208173D01*
X83867422Y-153106975D01*
X83868323Y-153103805D01*
X83869195Y-153094960D01*
X83895716Y-153007529D01*
X83920471Y-152920528D01*
X83924661Y-152912112D01*
X83929003Y-152897800D01*
X83969710Y-152821641D01*
X84006877Y-152747000D01*
X84016218Y-152734629D01*
X84026125Y-152716096D01*
X84077357Y-152653668D01*
X84123698Y-152592305D01*
X84139660Y-152577753D01*
X84156831Y-152556831D01*
X84214777Y-152509275D01*
X84266951Y-152461713D01*
X84290496Y-152447134D01*
X84316096Y-152426125D01*
X84377015Y-152393563D01*
X84431767Y-152359662D01*
X84463282Y-152347452D01*
X84497800Y-152329003D01*
X84558209Y-152310677D01*
X84612525Y-152289636D01*
X84651739Y-152282305D01*
X84694960Y-152269195D01*
X84751860Y-152263590D01*
X84803077Y-152254017D01*
X84849062Y-152254017D01*
X84900000Y-152249000D01*
X84950938Y-152254017D01*
G37*
G36*
X91450938Y-152254017D02*
G01*
X91496923Y-152254017D01*
X91548139Y-152263590D01*
X91605040Y-152269195D01*
X91648261Y-152282306D01*
X91687474Y-152289636D01*
X91741785Y-152310676D01*
X91802200Y-152329003D01*
X91836720Y-152347454D01*
X91868232Y-152359662D01*
X91922977Y-152393559D01*
X91983904Y-152426125D01*
X92009506Y-152447136D01*
X92033048Y-152461713D01*
X92085212Y-152509267D01*
X92143169Y-152556831D01*
X92160342Y-152577757D01*
X92176301Y-152592305D01*
X92222629Y-152653653D01*
X92273875Y-152716096D01*
X92283783Y-152734634D01*
X92293122Y-152747000D01*
X92330274Y-152821613D01*
X92370997Y-152897800D01*
X92375340Y-152912117D01*
X92379528Y-152920528D01*
X92404267Y-153007476D01*
X92430805Y-153094960D01*
X92431676Y-153103811D01*
X92432577Y-153106975D01*
X92441938Y-153208002D01*
X92451000Y-153300000D01*
X92441938Y-153392005D01*
X92432577Y-153493024D01*
X92431676Y-153496187D01*
X92430805Y-153505040D01*
X92404262Y-153592538D01*
X92379528Y-153679471D01*
X92375341Y-153687879D01*
X92370997Y-153702200D01*
X92330267Y-153778399D01*
X92293122Y-153852999D01*
X92283785Y-153865362D01*
X92273875Y-153883904D01*
X92222620Y-153946357D01*
X92176301Y-154007694D01*
X92160345Y-154022238D01*
X92143169Y-154043169D01*
X92085201Y-154090741D01*
X92033048Y-154138286D01*
X92009511Y-154152859D01*
X91983904Y-154173875D01*
X91922965Y-154206447D01*
X91868232Y-154240337D01*
X91836726Y-154252542D01*
X91802200Y-154270997D01*
X91741773Y-154289327D01*
X91687474Y-154310363D01*
X91648268Y-154317691D01*
X91605040Y-154330805D01*
X91548136Y-154336409D01*
X91496923Y-154345983D01*
X91450938Y-154345983D01*
X91400000Y-154351000D01*
X91349062Y-154345983D01*
X91303077Y-154345983D01*
X91251863Y-154336409D01*
X91194960Y-154330805D01*
X91151732Y-154317692D01*
X91112525Y-154310363D01*
X91058221Y-154289325D01*
X90997800Y-154270997D01*
X90963275Y-154252543D01*
X90931767Y-154240337D01*
X90877027Y-154206443D01*
X90816096Y-154173875D01*
X90790491Y-154152861D01*
X90766951Y-154138286D01*
X90714788Y-154090733D01*
X90656831Y-154043169D01*
X90639656Y-154022242D01*
X90623698Y-154007694D01*
X90577367Y-153946342D01*
X90526125Y-153883904D01*
X90516216Y-153865366D01*
X90506877Y-153852999D01*
X90469717Y-153778372D01*
X90429003Y-153702200D01*
X90424660Y-153687884D01*
X90420471Y-153679471D01*
X90395721Y-153592485D01*
X90369195Y-153505040D01*
X90368323Y-153496192D01*
X90367422Y-153493024D01*
X90358044Y-153391833D01*
X90349000Y-153300000D01*
X90358044Y-153208173D01*
X90367422Y-153106975D01*
X90368323Y-153103805D01*
X90369195Y-153094960D01*
X90395716Y-153007529D01*
X90420471Y-152920528D01*
X90424661Y-152912112D01*
X90429003Y-152897800D01*
X90469710Y-152821641D01*
X90506877Y-152747000D01*
X90516218Y-152734629D01*
X90526125Y-152716096D01*
X90577357Y-152653668D01*
X90623698Y-152592305D01*
X90639660Y-152577753D01*
X90656831Y-152556831D01*
X90714777Y-152509275D01*
X90766951Y-152461713D01*
X90790496Y-152447134D01*
X90816096Y-152426125D01*
X90877015Y-152393563D01*
X90931767Y-152359662D01*
X90963282Y-152347452D01*
X90997800Y-152329003D01*
X91058209Y-152310677D01*
X91112525Y-152289636D01*
X91151739Y-152282305D01*
X91194960Y-152269195D01*
X91251860Y-152263590D01*
X91303077Y-152254017D01*
X91349062Y-152254017D01*
X91400000Y-152249000D01*
X91450938Y-152254017D01*
G37*
G36*
X101750938Y-152254017D02*
G01*
X101796923Y-152254017D01*
X101848139Y-152263590D01*
X101905040Y-152269195D01*
X101948261Y-152282306D01*
X101987474Y-152289636D01*
X102041785Y-152310676D01*
X102102200Y-152329003D01*
X102136720Y-152347454D01*
X102168232Y-152359662D01*
X102222977Y-152393559D01*
X102283904Y-152426125D01*
X102309506Y-152447136D01*
X102333048Y-152461713D01*
X102385212Y-152509267D01*
X102443169Y-152556831D01*
X102460342Y-152577757D01*
X102476301Y-152592305D01*
X102522629Y-152653653D01*
X102573875Y-152716096D01*
X102583783Y-152734634D01*
X102593122Y-152747000D01*
X102630274Y-152821613D01*
X102670997Y-152897800D01*
X102675340Y-152912117D01*
X102679528Y-152920528D01*
X102704267Y-153007476D01*
X102730805Y-153094960D01*
X102731676Y-153103811D01*
X102732577Y-153106975D01*
X102741938Y-153208002D01*
X102751000Y-153300000D01*
X102741938Y-153392005D01*
X102732577Y-153493024D01*
X102731676Y-153496187D01*
X102730805Y-153505040D01*
X102704262Y-153592538D01*
X102679528Y-153679471D01*
X102675341Y-153687879D01*
X102670997Y-153702200D01*
X102630267Y-153778399D01*
X102593122Y-153852999D01*
X102583785Y-153865362D01*
X102573875Y-153883904D01*
X102522620Y-153946357D01*
X102476301Y-154007694D01*
X102460345Y-154022238D01*
X102443169Y-154043169D01*
X102385201Y-154090741D01*
X102333048Y-154138286D01*
X102309511Y-154152859D01*
X102283904Y-154173875D01*
X102222965Y-154206447D01*
X102168232Y-154240337D01*
X102136726Y-154252542D01*
X102102200Y-154270997D01*
X102041773Y-154289327D01*
X101987474Y-154310363D01*
X101948268Y-154317691D01*
X101905040Y-154330805D01*
X101848136Y-154336409D01*
X101796923Y-154345983D01*
X101750938Y-154345983D01*
X101700000Y-154351000D01*
X101649062Y-154345983D01*
X101603077Y-154345983D01*
X101551863Y-154336409D01*
X101494960Y-154330805D01*
X101451732Y-154317692D01*
X101412525Y-154310363D01*
X101358221Y-154289325D01*
X101297800Y-154270997D01*
X101263275Y-154252543D01*
X101231767Y-154240337D01*
X101177027Y-154206443D01*
X101116096Y-154173875D01*
X101090491Y-154152861D01*
X101066951Y-154138286D01*
X101014788Y-154090733D01*
X100956831Y-154043169D01*
X100939656Y-154022242D01*
X100923698Y-154007694D01*
X100877367Y-153946342D01*
X100826125Y-153883904D01*
X100816216Y-153865366D01*
X100806877Y-153852999D01*
X100769717Y-153778372D01*
X100729003Y-153702200D01*
X100724660Y-153687884D01*
X100720471Y-153679471D01*
X100695721Y-153592485D01*
X100669195Y-153505040D01*
X100668323Y-153496192D01*
X100667422Y-153493024D01*
X100658044Y-153391833D01*
X100649000Y-153300000D01*
X100658044Y-153208173D01*
X100667422Y-153106975D01*
X100668323Y-153103805D01*
X100669195Y-153094960D01*
X100695716Y-153007529D01*
X100720471Y-152920528D01*
X100724661Y-152912112D01*
X100729003Y-152897800D01*
X100769710Y-152821641D01*
X100806877Y-152747000D01*
X100816218Y-152734629D01*
X100826125Y-152716096D01*
X100877357Y-152653668D01*
X100923698Y-152592305D01*
X100939660Y-152577753D01*
X100956831Y-152556831D01*
X101014777Y-152509275D01*
X101066951Y-152461713D01*
X101090496Y-152447134D01*
X101116096Y-152426125D01*
X101177015Y-152393563D01*
X101231767Y-152359662D01*
X101263282Y-152347452D01*
X101297800Y-152329003D01*
X101358209Y-152310677D01*
X101412525Y-152289636D01*
X101451739Y-152282305D01*
X101494960Y-152269195D01*
X101551860Y-152263590D01*
X101603077Y-152254017D01*
X101649062Y-152254017D01*
X101700000Y-152249000D01*
X101750938Y-152254017D01*
G37*
G36*
X108250938Y-152254017D02*
G01*
X108296923Y-152254017D01*
X108348139Y-152263590D01*
X108405040Y-152269195D01*
X108448261Y-152282306D01*
X108487474Y-152289636D01*
X108541785Y-152310676D01*
X108602200Y-152329003D01*
X108636720Y-152347454D01*
X108668232Y-152359662D01*
X108722977Y-152393559D01*
X108783904Y-152426125D01*
X108809506Y-152447136D01*
X108833048Y-152461713D01*
X108885212Y-152509267D01*
X108943169Y-152556831D01*
X108960342Y-152577757D01*
X108976301Y-152592305D01*
X109022629Y-152653653D01*
X109073875Y-152716096D01*
X109083783Y-152734634D01*
X109093122Y-152747000D01*
X109130274Y-152821613D01*
X109170997Y-152897800D01*
X109175340Y-152912117D01*
X109179528Y-152920528D01*
X109204267Y-153007476D01*
X109230805Y-153094960D01*
X109231676Y-153103811D01*
X109232577Y-153106975D01*
X109241938Y-153208002D01*
X109251000Y-153300000D01*
X109241938Y-153392005D01*
X109232577Y-153493024D01*
X109231676Y-153496187D01*
X109230805Y-153505040D01*
X109204262Y-153592538D01*
X109179528Y-153679471D01*
X109175341Y-153687879D01*
X109170997Y-153702200D01*
X109130267Y-153778399D01*
X109093122Y-153852999D01*
X109083785Y-153865362D01*
X109073875Y-153883904D01*
X109022620Y-153946357D01*
X108976301Y-154007694D01*
X108960345Y-154022238D01*
X108943169Y-154043169D01*
X108885201Y-154090741D01*
X108833048Y-154138286D01*
X108809511Y-154152859D01*
X108783904Y-154173875D01*
X108722965Y-154206447D01*
X108668232Y-154240337D01*
X108636726Y-154252542D01*
X108602200Y-154270997D01*
X108541773Y-154289327D01*
X108487474Y-154310363D01*
X108448268Y-154317691D01*
X108405040Y-154330805D01*
X108348136Y-154336409D01*
X108296923Y-154345983D01*
X108250938Y-154345983D01*
X108200000Y-154351000D01*
X108149062Y-154345983D01*
X108103077Y-154345983D01*
X108051863Y-154336409D01*
X107994960Y-154330805D01*
X107951732Y-154317692D01*
X107912525Y-154310363D01*
X107858221Y-154289325D01*
X107797800Y-154270997D01*
X107763275Y-154252543D01*
X107731767Y-154240337D01*
X107677027Y-154206443D01*
X107616096Y-154173875D01*
X107590491Y-154152861D01*
X107566951Y-154138286D01*
X107514788Y-154090733D01*
X107456831Y-154043169D01*
X107439656Y-154022242D01*
X107423698Y-154007694D01*
X107377367Y-153946342D01*
X107326125Y-153883904D01*
X107316216Y-153865366D01*
X107306877Y-153852999D01*
X107269717Y-153778372D01*
X107229003Y-153702200D01*
X107224660Y-153687884D01*
X107220471Y-153679471D01*
X107195721Y-153592485D01*
X107169195Y-153505040D01*
X107168323Y-153496192D01*
X107167422Y-153493024D01*
X107158044Y-153391833D01*
X107149000Y-153300000D01*
X107158044Y-153208173D01*
X107167422Y-153106975D01*
X107168323Y-153103805D01*
X107169195Y-153094960D01*
X107195716Y-153007529D01*
X107220471Y-152920528D01*
X107224661Y-152912112D01*
X107229003Y-152897800D01*
X107269710Y-152821641D01*
X107306877Y-152747000D01*
X107316218Y-152734629D01*
X107326125Y-152716096D01*
X107377357Y-152653668D01*
X107423698Y-152592305D01*
X107439660Y-152577753D01*
X107456831Y-152556831D01*
X107514777Y-152509275D01*
X107566951Y-152461713D01*
X107590496Y-152447134D01*
X107616096Y-152426125D01*
X107677015Y-152393563D01*
X107731767Y-152359662D01*
X107763282Y-152347452D01*
X107797800Y-152329003D01*
X107858209Y-152310677D01*
X107912525Y-152289636D01*
X107951739Y-152282305D01*
X107994960Y-152269195D01*
X108051860Y-152263590D01*
X108103077Y-152254017D01*
X108149062Y-152254017D01*
X108200000Y-152249000D01*
X108250938Y-152254017D01*
G37*
G36*
X130275523Y-151033576D02*
G01*
X130321037Y-151033576D01*
X130371723Y-151043050D01*
X130428167Y-151048610D01*
X130471046Y-151061617D01*
X130509850Y-151068871D01*
X130563597Y-151089692D01*
X130623527Y-151107872D01*
X130657764Y-151126172D01*
X130688951Y-151138254D01*
X130743140Y-151171807D01*
X130803571Y-151204108D01*
X130828962Y-151224946D01*
X130852259Y-151239371D01*
X130903876Y-151286426D01*
X130961381Y-151333619D01*
X130978421Y-151354382D01*
X130994209Y-151368775D01*
X131040042Y-151429468D01*
X131090892Y-151491429D01*
X131100725Y-151509826D01*
X131109961Y-151522056D01*
X131146700Y-151595839D01*
X131187128Y-151671473D01*
X131191440Y-151685687D01*
X131195577Y-151693996D01*
X131220017Y-151779894D01*
X131246390Y-151866833D01*
X131247256Y-151875628D01*
X131248141Y-151878738D01*
X131257340Y-151978013D01*
X131266400Y-152070000D01*
X131257339Y-152161994D01*
X131248141Y-152261261D01*
X131247256Y-152264369D01*
X131246390Y-152273167D01*
X131220012Y-152360120D01*
X131195577Y-152446003D01*
X131191440Y-152454309D01*
X131187128Y-152468527D01*
X131146693Y-152544174D01*
X131109961Y-152617943D01*
X131100727Y-152630170D01*
X131090892Y-152648571D01*
X131040032Y-152710543D01*
X130994209Y-152771224D01*
X130978424Y-152785613D01*
X130961381Y-152806381D01*
X130903865Y-152853582D01*
X130852259Y-152900628D01*
X130828967Y-152915049D01*
X130803571Y-152935892D01*
X130743128Y-152968199D01*
X130688951Y-153001745D01*
X130657771Y-153013823D01*
X130623527Y-153032128D01*
X130563585Y-153050311D01*
X130509850Y-153071128D01*
X130471053Y-153078380D01*
X130428167Y-153091390D01*
X130371720Y-153096949D01*
X130321037Y-153106424D01*
X130275523Y-153106424D01*
X130225000Y-153111400D01*
X130174477Y-153106424D01*
X130128963Y-153106424D01*
X130078279Y-153096949D01*
X130021833Y-153091390D01*
X129978947Y-153078380D01*
X129940149Y-153071128D01*
X129886410Y-153050309D01*
X129826473Y-153032128D01*
X129792230Y-153013825D01*
X129761048Y-153001745D01*
X129706863Y-152968195D01*
X129646429Y-152935892D01*
X129621035Y-152915051D01*
X129597740Y-152900628D01*
X129546124Y-152853574D01*
X129488619Y-152806381D01*
X129471578Y-152785617D01*
X129455790Y-152771224D01*
X129409954Y-152710528D01*
X129359108Y-152648571D01*
X129349274Y-152630174D01*
X129340038Y-152617943D01*
X129303291Y-152544147D01*
X129262872Y-152468527D01*
X129258560Y-152454314D01*
X129254422Y-152446003D01*
X129229971Y-152360067D01*
X129203610Y-152273167D01*
X129202744Y-152264375D01*
X129201858Y-152261261D01*
X129192643Y-152161822D01*
X129183600Y-152070000D01*
X129192642Y-151978185D01*
X129201858Y-151878738D01*
X129202744Y-151875623D01*
X129203610Y-151866833D01*
X129229966Y-151779947D01*
X129254422Y-151693996D01*
X129258561Y-151685682D01*
X129262872Y-151671473D01*
X129303284Y-151595866D01*
X129340038Y-151522056D01*
X129349276Y-151509821D01*
X129359108Y-151491429D01*
X129409945Y-151429483D01*
X129455790Y-151368775D01*
X129471581Y-151354378D01*
X129488619Y-151333619D01*
X129546113Y-151286434D01*
X129597740Y-151239371D01*
X129621040Y-151224943D01*
X129646429Y-151204108D01*
X129706851Y-151171811D01*
X129761048Y-151138254D01*
X129792237Y-151126171D01*
X129826473Y-151107872D01*
X129886398Y-151089693D01*
X129940149Y-151068871D01*
X129978954Y-151061617D01*
X130021833Y-151048610D01*
X130078276Y-151043050D01*
X130128963Y-151033576D01*
X130174477Y-151033576D01*
X130225000Y-151028600D01*
X130275523Y-151033576D01*
G37*
G36*
X114775523Y-151023576D02*
G01*
X114821037Y-151023576D01*
X114871723Y-151033050D01*
X114928167Y-151038610D01*
X114971046Y-151051617D01*
X115009850Y-151058871D01*
X115063597Y-151079692D01*
X115123527Y-151097872D01*
X115157764Y-151116172D01*
X115188951Y-151128254D01*
X115243140Y-151161807D01*
X115303571Y-151194108D01*
X115328962Y-151214946D01*
X115352259Y-151229371D01*
X115403876Y-151276426D01*
X115461381Y-151323619D01*
X115478421Y-151344382D01*
X115494209Y-151358775D01*
X115540042Y-151419468D01*
X115590892Y-151481429D01*
X115600725Y-151499826D01*
X115609961Y-151512056D01*
X115646700Y-151585839D01*
X115687128Y-151661473D01*
X115691440Y-151675687D01*
X115695577Y-151683996D01*
X115720017Y-151769894D01*
X115746390Y-151856833D01*
X115747256Y-151865628D01*
X115748141Y-151868738D01*
X115757340Y-151968013D01*
X115766400Y-152060000D01*
X115757339Y-152151994D01*
X115748141Y-152251261D01*
X115747256Y-152254369D01*
X115746390Y-152263167D01*
X115720012Y-152350120D01*
X115695577Y-152436003D01*
X115691440Y-152444309D01*
X115687128Y-152458527D01*
X115646693Y-152534174D01*
X115609961Y-152607943D01*
X115600727Y-152620170D01*
X115590892Y-152638571D01*
X115540032Y-152700543D01*
X115494209Y-152761224D01*
X115478424Y-152775613D01*
X115461381Y-152796381D01*
X115403865Y-152843582D01*
X115352259Y-152890628D01*
X115328967Y-152905049D01*
X115303571Y-152925892D01*
X115243128Y-152958199D01*
X115188951Y-152991745D01*
X115157771Y-153003823D01*
X115123527Y-153022128D01*
X115063585Y-153040311D01*
X115009850Y-153061128D01*
X114971053Y-153068380D01*
X114928167Y-153081390D01*
X114871720Y-153086949D01*
X114821037Y-153096424D01*
X114775523Y-153096424D01*
X114725000Y-153101400D01*
X114674477Y-153096424D01*
X114628963Y-153096424D01*
X114578279Y-153086949D01*
X114521833Y-153081390D01*
X114478947Y-153068380D01*
X114440149Y-153061128D01*
X114386410Y-153040309D01*
X114326473Y-153022128D01*
X114292230Y-153003825D01*
X114261048Y-152991745D01*
X114206863Y-152958195D01*
X114146429Y-152925892D01*
X114121035Y-152905051D01*
X114097740Y-152890628D01*
X114046124Y-152843574D01*
X113988619Y-152796381D01*
X113971578Y-152775617D01*
X113955790Y-152761224D01*
X113909954Y-152700528D01*
X113859108Y-152638571D01*
X113849274Y-152620174D01*
X113840038Y-152607943D01*
X113803291Y-152534147D01*
X113762872Y-152458527D01*
X113758560Y-152444314D01*
X113754422Y-152436003D01*
X113729971Y-152350067D01*
X113703610Y-152263167D01*
X113702744Y-152254375D01*
X113701858Y-152251261D01*
X113692643Y-152151822D01*
X113683600Y-152060000D01*
X113692642Y-151968185D01*
X113701858Y-151868738D01*
X113702744Y-151865623D01*
X113703610Y-151856833D01*
X113729966Y-151769947D01*
X113754422Y-151683996D01*
X113758561Y-151675682D01*
X113762872Y-151661473D01*
X113803284Y-151585866D01*
X113840038Y-151512056D01*
X113849276Y-151499821D01*
X113859108Y-151481429D01*
X113909945Y-151419483D01*
X113955790Y-151358775D01*
X113971581Y-151344378D01*
X113988619Y-151323619D01*
X114046113Y-151276434D01*
X114097740Y-151229371D01*
X114121040Y-151214943D01*
X114146429Y-151194108D01*
X114206851Y-151161811D01*
X114261048Y-151128254D01*
X114292237Y-151116171D01*
X114326473Y-151097872D01*
X114386398Y-151079693D01*
X114440149Y-151058871D01*
X114478954Y-151051617D01*
X114521833Y-151038610D01*
X114578276Y-151033050D01*
X114628963Y-151023576D01*
X114674477Y-151023576D01*
X114725000Y-151018600D01*
X114775523Y-151023576D01*
G37*
G36*
X137050938Y-150154017D02*
G01*
X137096923Y-150154017D01*
X137148139Y-150163590D01*
X137205040Y-150169195D01*
X137248261Y-150182306D01*
X137287474Y-150189636D01*
X137341785Y-150210676D01*
X137402200Y-150229003D01*
X137436720Y-150247454D01*
X137468232Y-150259662D01*
X137522977Y-150293559D01*
X137583904Y-150326125D01*
X137609506Y-150347136D01*
X137633048Y-150361713D01*
X137685212Y-150409267D01*
X137743169Y-150456831D01*
X137760342Y-150477757D01*
X137776301Y-150492305D01*
X137822629Y-150553653D01*
X137873875Y-150616096D01*
X137883783Y-150634634D01*
X137893122Y-150647000D01*
X137930274Y-150721613D01*
X137970997Y-150797800D01*
X137975340Y-150812117D01*
X137979528Y-150820528D01*
X138004267Y-150907476D01*
X138030805Y-150994960D01*
X138031676Y-151003811D01*
X138032577Y-151006975D01*
X138041938Y-151108002D01*
X138051000Y-151200000D01*
X138041938Y-151292005D01*
X138032577Y-151393024D01*
X138031676Y-151396187D01*
X138030805Y-151405040D01*
X138004262Y-151492538D01*
X137979528Y-151579471D01*
X137975341Y-151587879D01*
X137970997Y-151602200D01*
X137930267Y-151678399D01*
X137893122Y-151752999D01*
X137883785Y-151765362D01*
X137873875Y-151783904D01*
X137822620Y-151846357D01*
X137776301Y-151907694D01*
X137760345Y-151922238D01*
X137743169Y-151943169D01*
X137685201Y-151990741D01*
X137633048Y-152038286D01*
X137609511Y-152052859D01*
X137583904Y-152073875D01*
X137522965Y-152106447D01*
X137468232Y-152140337D01*
X137436726Y-152152542D01*
X137402200Y-152170997D01*
X137341773Y-152189327D01*
X137287474Y-152210363D01*
X137248268Y-152217691D01*
X137205040Y-152230805D01*
X137148136Y-152236409D01*
X137096923Y-152245983D01*
X137050938Y-152245983D01*
X137000000Y-152251000D01*
X136949062Y-152245983D01*
X136903077Y-152245983D01*
X136851863Y-152236409D01*
X136794960Y-152230805D01*
X136751732Y-152217692D01*
X136712525Y-152210363D01*
X136658221Y-152189325D01*
X136597800Y-152170997D01*
X136563275Y-152152543D01*
X136531767Y-152140337D01*
X136477027Y-152106443D01*
X136416096Y-152073875D01*
X136390491Y-152052861D01*
X136366951Y-152038286D01*
X136314788Y-151990733D01*
X136256831Y-151943169D01*
X136239656Y-151922242D01*
X136223698Y-151907694D01*
X136177367Y-151846342D01*
X136126125Y-151783904D01*
X136116216Y-151765366D01*
X136106877Y-151752999D01*
X136069717Y-151678372D01*
X136029003Y-151602200D01*
X136024660Y-151587884D01*
X136020471Y-151579471D01*
X135995721Y-151492485D01*
X135969195Y-151405040D01*
X135968323Y-151396192D01*
X135967422Y-151393024D01*
X135958044Y-151291833D01*
X135949000Y-151200000D01*
X135958044Y-151108173D01*
X135967422Y-151006975D01*
X135968323Y-151003805D01*
X135969195Y-150994960D01*
X135995716Y-150907529D01*
X136020471Y-150820528D01*
X136024661Y-150812112D01*
X136029003Y-150797800D01*
X136069710Y-150721641D01*
X136106877Y-150647000D01*
X136116218Y-150634629D01*
X136126125Y-150616096D01*
X136177357Y-150553668D01*
X136223698Y-150492305D01*
X136239660Y-150477753D01*
X136256831Y-150456831D01*
X136314777Y-150409275D01*
X136366951Y-150361713D01*
X136390496Y-150347134D01*
X136416096Y-150326125D01*
X136477015Y-150293563D01*
X136531767Y-150259662D01*
X136563282Y-150247452D01*
X136597800Y-150229003D01*
X136658209Y-150210677D01*
X136712525Y-150189636D01*
X136751739Y-150182305D01*
X136794960Y-150169195D01*
X136851860Y-150163590D01*
X136903077Y-150154017D01*
X136949062Y-150154017D01*
X137000000Y-150149000D01*
X137050938Y-150154017D01*
G37*
G36*
X143550938Y-150154017D02*
G01*
X143596923Y-150154017D01*
X143648139Y-150163590D01*
X143705040Y-150169195D01*
X143748261Y-150182306D01*
X143787474Y-150189636D01*
X143841785Y-150210676D01*
X143902200Y-150229003D01*
X143936720Y-150247454D01*
X143968232Y-150259662D01*
X144022977Y-150293559D01*
X144083904Y-150326125D01*
X144109506Y-150347136D01*
X144133048Y-150361713D01*
X144185212Y-150409267D01*
X144243169Y-150456831D01*
X144260342Y-150477757D01*
X144276301Y-150492305D01*
X144322629Y-150553653D01*
X144373875Y-150616096D01*
X144383783Y-150634634D01*
X144393122Y-150647000D01*
X144430274Y-150721613D01*
X144470997Y-150797800D01*
X144475340Y-150812117D01*
X144479528Y-150820528D01*
X144504267Y-150907476D01*
X144530805Y-150994960D01*
X144531676Y-151003811D01*
X144532577Y-151006975D01*
X144541938Y-151108002D01*
X144551000Y-151200000D01*
X144541938Y-151292005D01*
X144532577Y-151393024D01*
X144531676Y-151396187D01*
X144530805Y-151405040D01*
X144504262Y-151492538D01*
X144479528Y-151579471D01*
X144475341Y-151587879D01*
X144470997Y-151602200D01*
X144430267Y-151678399D01*
X144393122Y-151752999D01*
X144383785Y-151765362D01*
X144373875Y-151783904D01*
X144322620Y-151846357D01*
X144276301Y-151907694D01*
X144260345Y-151922238D01*
X144243169Y-151943169D01*
X144185201Y-151990741D01*
X144133048Y-152038286D01*
X144109511Y-152052859D01*
X144083904Y-152073875D01*
X144022965Y-152106447D01*
X143968232Y-152140337D01*
X143936726Y-152152542D01*
X143902200Y-152170997D01*
X143841773Y-152189327D01*
X143787474Y-152210363D01*
X143748268Y-152217691D01*
X143705040Y-152230805D01*
X143648136Y-152236409D01*
X143596923Y-152245983D01*
X143550938Y-152245983D01*
X143500000Y-152251000D01*
X143449062Y-152245983D01*
X143403077Y-152245983D01*
X143351863Y-152236409D01*
X143294960Y-152230805D01*
X143251732Y-152217692D01*
X143212525Y-152210363D01*
X143158221Y-152189325D01*
X143097800Y-152170997D01*
X143063275Y-152152543D01*
X143031767Y-152140337D01*
X142977027Y-152106443D01*
X142916096Y-152073875D01*
X142890491Y-152052861D01*
X142866951Y-152038286D01*
X142814788Y-151990733D01*
X142756831Y-151943169D01*
X142739656Y-151922242D01*
X142723698Y-151907694D01*
X142677367Y-151846342D01*
X142626125Y-151783904D01*
X142616216Y-151765366D01*
X142606877Y-151752999D01*
X142569717Y-151678372D01*
X142529003Y-151602200D01*
X142524660Y-151587884D01*
X142520471Y-151579471D01*
X142495721Y-151492485D01*
X142469195Y-151405040D01*
X142468323Y-151396192D01*
X142467422Y-151393024D01*
X142458044Y-151291833D01*
X142449000Y-151200000D01*
X142458044Y-151108173D01*
X142467422Y-151006975D01*
X142468323Y-151003805D01*
X142469195Y-150994960D01*
X142495716Y-150907529D01*
X142520471Y-150820528D01*
X142524661Y-150812112D01*
X142529003Y-150797800D01*
X142569710Y-150721641D01*
X142606877Y-150647000D01*
X142616218Y-150634629D01*
X142626125Y-150616096D01*
X142677357Y-150553668D01*
X142723698Y-150492305D01*
X142739660Y-150477753D01*
X142756831Y-150456831D01*
X142814777Y-150409275D01*
X142866951Y-150361713D01*
X142890496Y-150347134D01*
X142916096Y-150326125D01*
X142977015Y-150293563D01*
X143031767Y-150259662D01*
X143063282Y-150247452D01*
X143097800Y-150229003D01*
X143158209Y-150210677D01*
X143212525Y-150189636D01*
X143251739Y-150182305D01*
X143294960Y-150169195D01*
X143351860Y-150163590D01*
X143403077Y-150154017D01*
X143449062Y-150154017D01*
X143500000Y-150149000D01*
X143550938Y-150154017D01*
G37*
G36*
X114775523Y-148483576D02*
G01*
X114821037Y-148483576D01*
X114871723Y-148493050D01*
X114928167Y-148498610D01*
X114971046Y-148511617D01*
X115009850Y-148518871D01*
X115063597Y-148539692D01*
X115123527Y-148557872D01*
X115157764Y-148576172D01*
X115188951Y-148588254D01*
X115243140Y-148621807D01*
X115303571Y-148654108D01*
X115328962Y-148674946D01*
X115352259Y-148689371D01*
X115403876Y-148736426D01*
X115461381Y-148783619D01*
X115478421Y-148804382D01*
X115494209Y-148818775D01*
X115540042Y-148879468D01*
X115590892Y-148941429D01*
X115600725Y-148959826D01*
X115609961Y-148972056D01*
X115646700Y-149045839D01*
X115687128Y-149121473D01*
X115691440Y-149135687D01*
X115695577Y-149143996D01*
X115720017Y-149229894D01*
X115746390Y-149316833D01*
X115747256Y-149325628D01*
X115748141Y-149328738D01*
X115757340Y-149428013D01*
X115766400Y-149520000D01*
X115757339Y-149611994D01*
X115748141Y-149711261D01*
X115747256Y-149714369D01*
X115746390Y-149723167D01*
X115720012Y-149810120D01*
X115695577Y-149896003D01*
X115691440Y-149904309D01*
X115687128Y-149918527D01*
X115646693Y-149994174D01*
X115609961Y-150067943D01*
X115600727Y-150080170D01*
X115590892Y-150098571D01*
X115540032Y-150160543D01*
X115494209Y-150221224D01*
X115478424Y-150235613D01*
X115461381Y-150256381D01*
X115403865Y-150303582D01*
X115352259Y-150350628D01*
X115328967Y-150365049D01*
X115303571Y-150385892D01*
X115243128Y-150418199D01*
X115188951Y-150451745D01*
X115157771Y-150463823D01*
X115123527Y-150482128D01*
X115063585Y-150500311D01*
X115009850Y-150521128D01*
X114971053Y-150528380D01*
X114928167Y-150541390D01*
X114871720Y-150546949D01*
X114821037Y-150556424D01*
X114775523Y-150556424D01*
X114725000Y-150561400D01*
X114674477Y-150556424D01*
X114628963Y-150556424D01*
X114578279Y-150546949D01*
X114521833Y-150541390D01*
X114478947Y-150528380D01*
X114440149Y-150521128D01*
X114386410Y-150500309D01*
X114326473Y-150482128D01*
X114292230Y-150463825D01*
X114261048Y-150451745D01*
X114206863Y-150418195D01*
X114146429Y-150385892D01*
X114121035Y-150365051D01*
X114097740Y-150350628D01*
X114046124Y-150303574D01*
X113988619Y-150256381D01*
X113971578Y-150235617D01*
X113955790Y-150221224D01*
X113909954Y-150160528D01*
X113859108Y-150098571D01*
X113849274Y-150080174D01*
X113840038Y-150067943D01*
X113803291Y-149994147D01*
X113762872Y-149918527D01*
X113758560Y-149904314D01*
X113754422Y-149896003D01*
X113729971Y-149810067D01*
X113703610Y-149723167D01*
X113702744Y-149714375D01*
X113701858Y-149711261D01*
X113692643Y-149611822D01*
X113683600Y-149520000D01*
X113692642Y-149428185D01*
X113701858Y-149328738D01*
X113702744Y-149325623D01*
X113703610Y-149316833D01*
X113729966Y-149229947D01*
X113754422Y-149143996D01*
X113758561Y-149135682D01*
X113762872Y-149121473D01*
X113803284Y-149045866D01*
X113840038Y-148972056D01*
X113849276Y-148959821D01*
X113859108Y-148941429D01*
X113909945Y-148879483D01*
X113955790Y-148818775D01*
X113971581Y-148804378D01*
X113988619Y-148783619D01*
X114046113Y-148736434D01*
X114097740Y-148689371D01*
X114121040Y-148674943D01*
X114146429Y-148654108D01*
X114206851Y-148621811D01*
X114261048Y-148588254D01*
X114292237Y-148576171D01*
X114326473Y-148557872D01*
X114386398Y-148539693D01*
X114440149Y-148518871D01*
X114478954Y-148511617D01*
X114521833Y-148498610D01*
X114578276Y-148493050D01*
X114628963Y-148483576D01*
X114674477Y-148483576D01*
X114725000Y-148478600D01*
X114775523Y-148483576D01*
G37*
G36*
X130275523Y-148483576D02*
G01*
X130321037Y-148483576D01*
X130371723Y-148493050D01*
X130428167Y-148498610D01*
X130471046Y-148511617D01*
X130509850Y-148518871D01*
X130563597Y-148539692D01*
X130623527Y-148557872D01*
X130657764Y-148576172D01*
X130688951Y-148588254D01*
X130743140Y-148621807D01*
X130803571Y-148654108D01*
X130828962Y-148674946D01*
X130852259Y-148689371D01*
X130903876Y-148736426D01*
X130961381Y-148783619D01*
X130978421Y-148804382D01*
X130994209Y-148818775D01*
X131040042Y-148879468D01*
X131090892Y-148941429D01*
X131100725Y-148959826D01*
X131109961Y-148972056D01*
X131146700Y-149045839D01*
X131187128Y-149121473D01*
X131191440Y-149135687D01*
X131195577Y-149143996D01*
X131220017Y-149229894D01*
X131246390Y-149316833D01*
X131247256Y-149325628D01*
X131248141Y-149328738D01*
X131257340Y-149428013D01*
X131266400Y-149520000D01*
X131257339Y-149611994D01*
X131248141Y-149711261D01*
X131247256Y-149714369D01*
X131246390Y-149723167D01*
X131220012Y-149810120D01*
X131195577Y-149896003D01*
X131191440Y-149904309D01*
X131187128Y-149918527D01*
X131146693Y-149994174D01*
X131109961Y-150067943D01*
X131100727Y-150080170D01*
X131090892Y-150098571D01*
X131040032Y-150160543D01*
X130994209Y-150221224D01*
X130978424Y-150235613D01*
X130961381Y-150256381D01*
X130903865Y-150303582D01*
X130852259Y-150350628D01*
X130828967Y-150365049D01*
X130803571Y-150385892D01*
X130743128Y-150418199D01*
X130688951Y-150451745D01*
X130657771Y-150463823D01*
X130623527Y-150482128D01*
X130563585Y-150500311D01*
X130509850Y-150521128D01*
X130471053Y-150528380D01*
X130428167Y-150541390D01*
X130371720Y-150546949D01*
X130321037Y-150556424D01*
X130275523Y-150556424D01*
X130225000Y-150561400D01*
X130174477Y-150556424D01*
X130128963Y-150556424D01*
X130078279Y-150546949D01*
X130021833Y-150541390D01*
X129978947Y-150528380D01*
X129940149Y-150521128D01*
X129886410Y-150500309D01*
X129826473Y-150482128D01*
X129792230Y-150463825D01*
X129761048Y-150451745D01*
X129706863Y-150418195D01*
X129646429Y-150385892D01*
X129621035Y-150365051D01*
X129597740Y-150350628D01*
X129546124Y-150303574D01*
X129488619Y-150256381D01*
X129471578Y-150235617D01*
X129455790Y-150221224D01*
X129409954Y-150160528D01*
X129359108Y-150098571D01*
X129349274Y-150080174D01*
X129340038Y-150067943D01*
X129303291Y-149994147D01*
X129262872Y-149918527D01*
X129258560Y-149904314D01*
X129254422Y-149896003D01*
X129229971Y-149810067D01*
X129203610Y-149723167D01*
X129202744Y-149714375D01*
X129201858Y-149711261D01*
X129192643Y-149611822D01*
X129183600Y-149520000D01*
X129192642Y-149428185D01*
X129201858Y-149328738D01*
X129202744Y-149325623D01*
X129203610Y-149316833D01*
X129229966Y-149229947D01*
X129254422Y-149143996D01*
X129258561Y-149135682D01*
X129262872Y-149121473D01*
X129303284Y-149045866D01*
X129340038Y-148972056D01*
X129349276Y-148959821D01*
X129359108Y-148941429D01*
X129409945Y-148879483D01*
X129455790Y-148818775D01*
X129471581Y-148804378D01*
X129488619Y-148783619D01*
X129546113Y-148736434D01*
X129597740Y-148689371D01*
X129621040Y-148674943D01*
X129646429Y-148654108D01*
X129706851Y-148621811D01*
X129761048Y-148588254D01*
X129792237Y-148576171D01*
X129826473Y-148557872D01*
X129886398Y-148539693D01*
X129940149Y-148518871D01*
X129978954Y-148511617D01*
X130021833Y-148498610D01*
X130078276Y-148493050D01*
X130128963Y-148483576D01*
X130174477Y-148483576D01*
X130225000Y-148478600D01*
X130275523Y-148483576D01*
G37*
G36*
X93750938Y-147054017D02*
G01*
X93796923Y-147054017D01*
X93848139Y-147063590D01*
X93905040Y-147069195D01*
X93948261Y-147082306D01*
X93987474Y-147089636D01*
X94041785Y-147110676D01*
X94102200Y-147129003D01*
X94136720Y-147147454D01*
X94168232Y-147159662D01*
X94222977Y-147193559D01*
X94283904Y-147226125D01*
X94309506Y-147247136D01*
X94333048Y-147261713D01*
X94385212Y-147309267D01*
X94443169Y-147356831D01*
X94460342Y-147377757D01*
X94476301Y-147392305D01*
X94522629Y-147453653D01*
X94573875Y-147516096D01*
X94583783Y-147534634D01*
X94593122Y-147547000D01*
X94630274Y-147621613D01*
X94670997Y-147697800D01*
X94675340Y-147712117D01*
X94679528Y-147720528D01*
X94704267Y-147807476D01*
X94730805Y-147894960D01*
X94731676Y-147903811D01*
X94732577Y-147906975D01*
X94741938Y-148008002D01*
X94751000Y-148100000D01*
X94741938Y-148192005D01*
X94732577Y-148293024D01*
X94731676Y-148296187D01*
X94730805Y-148305040D01*
X94704262Y-148392538D01*
X94679528Y-148479471D01*
X94675341Y-148487879D01*
X94670997Y-148502200D01*
X94630267Y-148578399D01*
X94593122Y-148652999D01*
X94583785Y-148665362D01*
X94573875Y-148683904D01*
X94522620Y-148746357D01*
X94476301Y-148807694D01*
X94460345Y-148822238D01*
X94443169Y-148843169D01*
X94385201Y-148890741D01*
X94333048Y-148938286D01*
X94309511Y-148952859D01*
X94283904Y-148973875D01*
X94222965Y-149006447D01*
X94168232Y-149040337D01*
X94136726Y-149052542D01*
X94102200Y-149070997D01*
X94041773Y-149089327D01*
X93987474Y-149110363D01*
X93948268Y-149117691D01*
X93905040Y-149130805D01*
X93848136Y-149136409D01*
X93796923Y-149145983D01*
X93750938Y-149145983D01*
X93700000Y-149151000D01*
X93649062Y-149145983D01*
X93603077Y-149145983D01*
X93551863Y-149136409D01*
X93494960Y-149130805D01*
X93451732Y-149117692D01*
X93412525Y-149110363D01*
X93358221Y-149089325D01*
X93297800Y-149070997D01*
X93263275Y-149052543D01*
X93231767Y-149040337D01*
X93177027Y-149006443D01*
X93116096Y-148973875D01*
X93090491Y-148952861D01*
X93066951Y-148938286D01*
X93014788Y-148890733D01*
X92956831Y-148843169D01*
X92939656Y-148822242D01*
X92923698Y-148807694D01*
X92877367Y-148746342D01*
X92826125Y-148683904D01*
X92816216Y-148665366D01*
X92806877Y-148652999D01*
X92769717Y-148578372D01*
X92729003Y-148502200D01*
X92724660Y-148487884D01*
X92720471Y-148479471D01*
X92695721Y-148392485D01*
X92669195Y-148305040D01*
X92668323Y-148296192D01*
X92667422Y-148293024D01*
X92658044Y-148191833D01*
X92649000Y-148100000D01*
X92658044Y-148008173D01*
X92667422Y-147906975D01*
X92668323Y-147903805D01*
X92669195Y-147894960D01*
X92695716Y-147807529D01*
X92720471Y-147720528D01*
X92724661Y-147712112D01*
X92729003Y-147697800D01*
X92769710Y-147621641D01*
X92806877Y-147547000D01*
X92816218Y-147534629D01*
X92826125Y-147516096D01*
X92877357Y-147453668D01*
X92923698Y-147392305D01*
X92939660Y-147377753D01*
X92956831Y-147356831D01*
X93014777Y-147309275D01*
X93066951Y-147261713D01*
X93090496Y-147247134D01*
X93116096Y-147226125D01*
X93177015Y-147193563D01*
X93231767Y-147159662D01*
X93263282Y-147147452D01*
X93297800Y-147129003D01*
X93358209Y-147110677D01*
X93412525Y-147089636D01*
X93451739Y-147082305D01*
X93494960Y-147069195D01*
X93551860Y-147063590D01*
X93603077Y-147054017D01*
X93649062Y-147054017D01*
X93700000Y-147049000D01*
X93750938Y-147054017D01*
G37*
G36*
X100250938Y-147054017D02*
G01*
X100296923Y-147054017D01*
X100348139Y-147063590D01*
X100405040Y-147069195D01*
X100448261Y-147082306D01*
X100487474Y-147089636D01*
X100541785Y-147110676D01*
X100602200Y-147129003D01*
X100636720Y-147147454D01*
X100668232Y-147159662D01*
X100722977Y-147193559D01*
X100783904Y-147226125D01*
X100809506Y-147247136D01*
X100833048Y-147261713D01*
X100885212Y-147309267D01*
X100943169Y-147356831D01*
X100960342Y-147377757D01*
X100976301Y-147392305D01*
X101022629Y-147453653D01*
X101073875Y-147516096D01*
X101083783Y-147534634D01*
X101093122Y-147547000D01*
X101130274Y-147621613D01*
X101170997Y-147697800D01*
X101175340Y-147712117D01*
X101179528Y-147720528D01*
X101204267Y-147807476D01*
X101230805Y-147894960D01*
X101231676Y-147903811D01*
X101232577Y-147906975D01*
X101241938Y-148008002D01*
X101251000Y-148100000D01*
X101241938Y-148192005D01*
X101232577Y-148293024D01*
X101231676Y-148296187D01*
X101230805Y-148305040D01*
X101204262Y-148392538D01*
X101179528Y-148479471D01*
X101175341Y-148487879D01*
X101170997Y-148502200D01*
X101130267Y-148578399D01*
X101093122Y-148652999D01*
X101083785Y-148665362D01*
X101073875Y-148683904D01*
X101022620Y-148746357D01*
X100976301Y-148807694D01*
X100960345Y-148822238D01*
X100943169Y-148843169D01*
X100885201Y-148890741D01*
X100833048Y-148938286D01*
X100809511Y-148952859D01*
X100783904Y-148973875D01*
X100722965Y-149006447D01*
X100668232Y-149040337D01*
X100636726Y-149052542D01*
X100602200Y-149070997D01*
X100541773Y-149089327D01*
X100487474Y-149110363D01*
X100448268Y-149117691D01*
X100405040Y-149130805D01*
X100348136Y-149136409D01*
X100296923Y-149145983D01*
X100250938Y-149145983D01*
X100200000Y-149151000D01*
X100149062Y-149145983D01*
X100103077Y-149145983D01*
X100051863Y-149136409D01*
X99994960Y-149130805D01*
X99951732Y-149117692D01*
X99912525Y-149110363D01*
X99858221Y-149089325D01*
X99797800Y-149070997D01*
X99763275Y-149052543D01*
X99731767Y-149040337D01*
X99677027Y-149006443D01*
X99616096Y-148973875D01*
X99590491Y-148952861D01*
X99566951Y-148938286D01*
X99514788Y-148890733D01*
X99456831Y-148843169D01*
X99439656Y-148822242D01*
X99423698Y-148807694D01*
X99377367Y-148746342D01*
X99326125Y-148683904D01*
X99316216Y-148665366D01*
X99306877Y-148652999D01*
X99269717Y-148578372D01*
X99229003Y-148502200D01*
X99224660Y-148487884D01*
X99220471Y-148479471D01*
X99195721Y-148392485D01*
X99169195Y-148305040D01*
X99168323Y-148296192D01*
X99167422Y-148293024D01*
X99158044Y-148191833D01*
X99149000Y-148100000D01*
X99158044Y-148008173D01*
X99167422Y-147906975D01*
X99168323Y-147903805D01*
X99169195Y-147894960D01*
X99195716Y-147807529D01*
X99220471Y-147720528D01*
X99224661Y-147712112D01*
X99229003Y-147697800D01*
X99269710Y-147621641D01*
X99306877Y-147547000D01*
X99316218Y-147534629D01*
X99326125Y-147516096D01*
X99377357Y-147453668D01*
X99423698Y-147392305D01*
X99439660Y-147377753D01*
X99456831Y-147356831D01*
X99514777Y-147309275D01*
X99566951Y-147261713D01*
X99590496Y-147247134D01*
X99616096Y-147226125D01*
X99677015Y-147193563D01*
X99731767Y-147159662D01*
X99763282Y-147147452D01*
X99797800Y-147129003D01*
X99858209Y-147110677D01*
X99912525Y-147089636D01*
X99951739Y-147082305D01*
X99994960Y-147069195D01*
X100051860Y-147063590D01*
X100103077Y-147054017D01*
X100149062Y-147054017D01*
X100200000Y-147049000D01*
X100250938Y-147054017D01*
G37*
G36*
X137050938Y-145654017D02*
G01*
X137096923Y-145654017D01*
X137148139Y-145663590D01*
X137205040Y-145669195D01*
X137248261Y-145682306D01*
X137287474Y-145689636D01*
X137341785Y-145710676D01*
X137402200Y-145729003D01*
X137436720Y-145747454D01*
X137468232Y-145759662D01*
X137522977Y-145793559D01*
X137583904Y-145826125D01*
X137609506Y-145847136D01*
X137633048Y-145861713D01*
X137685212Y-145909267D01*
X137743169Y-145956831D01*
X137760342Y-145977757D01*
X137776301Y-145992305D01*
X137822629Y-146053653D01*
X137873875Y-146116096D01*
X137883783Y-146134634D01*
X137893122Y-146147000D01*
X137930274Y-146221613D01*
X137970997Y-146297800D01*
X137975340Y-146312117D01*
X137979528Y-146320528D01*
X138004267Y-146407476D01*
X138030805Y-146494960D01*
X138031676Y-146503811D01*
X138032577Y-146506975D01*
X138041938Y-146608002D01*
X138051000Y-146700000D01*
X138041938Y-146792005D01*
X138032577Y-146893024D01*
X138031676Y-146896187D01*
X138030805Y-146905040D01*
X138004262Y-146992538D01*
X137979528Y-147079471D01*
X137975341Y-147087879D01*
X137970997Y-147102200D01*
X137930267Y-147178399D01*
X137893122Y-147252999D01*
X137883785Y-147265362D01*
X137873875Y-147283904D01*
X137822620Y-147346357D01*
X137776301Y-147407694D01*
X137760345Y-147422238D01*
X137743169Y-147443169D01*
X137685201Y-147490741D01*
X137633048Y-147538286D01*
X137609511Y-147552859D01*
X137583904Y-147573875D01*
X137522965Y-147606447D01*
X137468232Y-147640337D01*
X137436726Y-147652542D01*
X137402200Y-147670997D01*
X137341773Y-147689327D01*
X137287474Y-147710363D01*
X137248268Y-147717691D01*
X137205040Y-147730805D01*
X137148136Y-147736409D01*
X137096923Y-147745983D01*
X137050938Y-147745983D01*
X137000000Y-147751000D01*
X136949062Y-147745983D01*
X136903077Y-147745983D01*
X136851863Y-147736409D01*
X136794960Y-147730805D01*
X136751732Y-147717692D01*
X136712525Y-147710363D01*
X136658221Y-147689325D01*
X136597800Y-147670997D01*
X136563275Y-147652543D01*
X136531767Y-147640337D01*
X136477027Y-147606443D01*
X136416096Y-147573875D01*
X136390491Y-147552861D01*
X136366951Y-147538286D01*
X136314788Y-147490733D01*
X136256831Y-147443169D01*
X136239656Y-147422242D01*
X136223698Y-147407694D01*
X136177367Y-147346342D01*
X136126125Y-147283904D01*
X136116216Y-147265366D01*
X136106877Y-147252999D01*
X136069717Y-147178372D01*
X136029003Y-147102200D01*
X136024660Y-147087884D01*
X136020471Y-147079471D01*
X135995721Y-146992485D01*
X135969195Y-146905040D01*
X135968323Y-146896192D01*
X135967422Y-146893024D01*
X135958044Y-146791833D01*
X135949000Y-146700000D01*
X135958044Y-146608173D01*
X135967422Y-146506975D01*
X135968323Y-146503805D01*
X135969195Y-146494960D01*
X135995716Y-146407529D01*
X136020471Y-146320528D01*
X136024661Y-146312112D01*
X136029003Y-146297800D01*
X136069710Y-146221641D01*
X136106877Y-146147000D01*
X136116218Y-146134629D01*
X136126125Y-146116096D01*
X136177357Y-146053668D01*
X136223698Y-145992305D01*
X136239660Y-145977753D01*
X136256831Y-145956831D01*
X136314777Y-145909275D01*
X136366951Y-145861713D01*
X136390496Y-145847134D01*
X136416096Y-145826125D01*
X136477015Y-145793563D01*
X136531767Y-145759662D01*
X136563282Y-145747452D01*
X136597800Y-145729003D01*
X136658209Y-145710677D01*
X136712525Y-145689636D01*
X136751739Y-145682305D01*
X136794960Y-145669195D01*
X136851860Y-145663590D01*
X136903077Y-145654017D01*
X136949062Y-145654017D01*
X137000000Y-145649000D01*
X137050938Y-145654017D01*
G37*
G36*
X143550938Y-145654017D02*
G01*
X143596923Y-145654017D01*
X143648139Y-145663590D01*
X143705040Y-145669195D01*
X143748261Y-145682306D01*
X143787474Y-145689636D01*
X143841785Y-145710676D01*
X143902200Y-145729003D01*
X143936720Y-145747454D01*
X143968232Y-145759662D01*
X144022977Y-145793559D01*
X144083904Y-145826125D01*
X144109506Y-145847136D01*
X144133048Y-145861713D01*
X144185212Y-145909267D01*
X144243169Y-145956831D01*
X144260342Y-145977757D01*
X144276301Y-145992305D01*
X144322629Y-146053653D01*
X144373875Y-146116096D01*
X144383783Y-146134634D01*
X144393122Y-146147000D01*
X144430274Y-146221613D01*
X144470997Y-146297800D01*
X144475340Y-146312117D01*
X144479528Y-146320528D01*
X144504267Y-146407476D01*
X144530805Y-146494960D01*
X144531676Y-146503811D01*
X144532577Y-146506975D01*
X144541938Y-146608002D01*
X144551000Y-146700000D01*
X144541938Y-146792005D01*
X144532577Y-146893024D01*
X144531676Y-146896187D01*
X144530805Y-146905040D01*
X144504262Y-146992538D01*
X144479528Y-147079471D01*
X144475341Y-147087879D01*
X144470997Y-147102200D01*
X144430267Y-147178399D01*
X144393122Y-147252999D01*
X144383785Y-147265362D01*
X144373875Y-147283904D01*
X144322620Y-147346357D01*
X144276301Y-147407694D01*
X144260345Y-147422238D01*
X144243169Y-147443169D01*
X144185201Y-147490741D01*
X144133048Y-147538286D01*
X144109511Y-147552859D01*
X144083904Y-147573875D01*
X144022965Y-147606447D01*
X143968232Y-147640337D01*
X143936726Y-147652542D01*
X143902200Y-147670997D01*
X143841773Y-147689327D01*
X143787474Y-147710363D01*
X143748268Y-147717691D01*
X143705040Y-147730805D01*
X143648136Y-147736409D01*
X143596923Y-147745983D01*
X143550938Y-147745983D01*
X143500000Y-147751000D01*
X143449062Y-147745983D01*
X143403077Y-147745983D01*
X143351863Y-147736409D01*
X143294960Y-147730805D01*
X143251732Y-147717692D01*
X143212525Y-147710363D01*
X143158221Y-147689325D01*
X143097800Y-147670997D01*
X143063275Y-147652543D01*
X143031767Y-147640337D01*
X142977027Y-147606443D01*
X142916096Y-147573875D01*
X142890491Y-147552861D01*
X142866951Y-147538286D01*
X142814788Y-147490733D01*
X142756831Y-147443169D01*
X142739656Y-147422242D01*
X142723698Y-147407694D01*
X142677367Y-147346342D01*
X142626125Y-147283904D01*
X142616216Y-147265366D01*
X142606877Y-147252999D01*
X142569717Y-147178372D01*
X142529003Y-147102200D01*
X142524660Y-147087884D01*
X142520471Y-147079471D01*
X142495721Y-146992485D01*
X142469195Y-146905040D01*
X142468323Y-146896192D01*
X142467422Y-146893024D01*
X142458044Y-146791833D01*
X142449000Y-146700000D01*
X142458044Y-146608173D01*
X142467422Y-146506975D01*
X142468323Y-146503805D01*
X142469195Y-146494960D01*
X142495716Y-146407529D01*
X142520471Y-146320528D01*
X142524661Y-146312112D01*
X142529003Y-146297800D01*
X142569710Y-146221641D01*
X142606877Y-146147000D01*
X142616218Y-146134629D01*
X142626125Y-146116096D01*
X142677357Y-146053668D01*
X142723698Y-145992305D01*
X142739660Y-145977753D01*
X142756831Y-145956831D01*
X142814777Y-145909275D01*
X142866951Y-145861713D01*
X142890496Y-145847134D01*
X142916096Y-145826125D01*
X142977015Y-145793563D01*
X143031767Y-145759662D01*
X143063282Y-145747452D01*
X143097800Y-145729003D01*
X143158209Y-145710677D01*
X143212525Y-145689636D01*
X143251739Y-145682305D01*
X143294960Y-145669195D01*
X143351860Y-145663590D01*
X143403077Y-145654017D01*
X143449062Y-145654017D01*
X143500000Y-145649000D01*
X143550938Y-145654017D01*
G37*
G36*
X93750938Y-142554017D02*
G01*
X93796923Y-142554017D01*
X93848139Y-142563590D01*
X93905040Y-142569195D01*
X93948261Y-142582306D01*
X93987474Y-142589636D01*
X94041785Y-142610676D01*
X94102200Y-142629003D01*
X94136720Y-142647454D01*
X94168232Y-142659662D01*
X94222977Y-142693559D01*
X94283904Y-142726125D01*
X94309506Y-142747136D01*
X94333048Y-142761713D01*
X94385212Y-142809267D01*
X94443169Y-142856831D01*
X94460342Y-142877757D01*
X94476301Y-142892305D01*
X94522629Y-142953653D01*
X94573875Y-143016096D01*
X94583783Y-143034634D01*
X94593122Y-143047000D01*
X94630274Y-143121613D01*
X94670997Y-143197800D01*
X94675340Y-143212117D01*
X94679528Y-143220528D01*
X94704267Y-143307476D01*
X94730805Y-143394960D01*
X94731676Y-143403811D01*
X94732577Y-143406975D01*
X94741938Y-143508002D01*
X94751000Y-143600000D01*
X94741938Y-143692005D01*
X94732577Y-143793024D01*
X94731676Y-143796187D01*
X94730805Y-143805040D01*
X94704262Y-143892538D01*
X94679528Y-143979471D01*
X94675341Y-143987879D01*
X94670997Y-144002200D01*
X94630267Y-144078399D01*
X94593122Y-144152999D01*
X94583785Y-144165362D01*
X94573875Y-144183904D01*
X94522620Y-144246357D01*
X94476301Y-144307694D01*
X94460345Y-144322238D01*
X94443169Y-144343169D01*
X94385201Y-144390741D01*
X94333048Y-144438286D01*
X94309511Y-144452859D01*
X94283904Y-144473875D01*
X94222965Y-144506447D01*
X94168232Y-144540337D01*
X94136726Y-144552542D01*
X94102200Y-144570997D01*
X94041773Y-144589327D01*
X93987474Y-144610363D01*
X93948268Y-144617691D01*
X93905040Y-144630805D01*
X93848136Y-144636409D01*
X93796923Y-144645983D01*
X93750938Y-144645983D01*
X93700000Y-144651000D01*
X93649062Y-144645983D01*
X93603077Y-144645983D01*
X93551863Y-144636409D01*
X93494960Y-144630805D01*
X93451732Y-144617692D01*
X93412525Y-144610363D01*
X93358221Y-144589325D01*
X93297800Y-144570997D01*
X93263275Y-144552543D01*
X93231767Y-144540337D01*
X93177027Y-144506443D01*
X93116096Y-144473875D01*
X93090491Y-144452861D01*
X93066951Y-144438286D01*
X93014788Y-144390733D01*
X92956831Y-144343169D01*
X92939656Y-144322242D01*
X92923698Y-144307694D01*
X92877367Y-144246342D01*
X92826125Y-144183904D01*
X92816216Y-144165366D01*
X92806877Y-144152999D01*
X92769717Y-144078372D01*
X92729003Y-144002200D01*
X92724660Y-143987884D01*
X92720471Y-143979471D01*
X92695721Y-143892485D01*
X92669195Y-143805040D01*
X92668323Y-143796192D01*
X92667422Y-143793024D01*
X92658044Y-143691833D01*
X92649000Y-143600000D01*
X92658044Y-143508173D01*
X92667422Y-143406975D01*
X92668323Y-143403805D01*
X92669195Y-143394960D01*
X92695716Y-143307529D01*
X92720471Y-143220528D01*
X92724661Y-143212112D01*
X92729003Y-143197800D01*
X92769710Y-143121641D01*
X92806877Y-143047000D01*
X92816218Y-143034629D01*
X92826125Y-143016096D01*
X92877357Y-142953668D01*
X92923698Y-142892305D01*
X92939660Y-142877753D01*
X92956831Y-142856831D01*
X93014777Y-142809275D01*
X93066951Y-142761713D01*
X93090496Y-142747134D01*
X93116096Y-142726125D01*
X93177015Y-142693563D01*
X93231767Y-142659662D01*
X93263282Y-142647452D01*
X93297800Y-142629003D01*
X93358209Y-142610677D01*
X93412525Y-142589636D01*
X93451739Y-142582305D01*
X93494960Y-142569195D01*
X93551860Y-142563590D01*
X93603077Y-142554017D01*
X93649062Y-142554017D01*
X93700000Y-142549000D01*
X93750938Y-142554017D01*
G37*
G36*
X100250938Y-142554017D02*
G01*
X100296923Y-142554017D01*
X100348139Y-142563590D01*
X100405040Y-142569195D01*
X100448261Y-142582306D01*
X100487474Y-142589636D01*
X100541785Y-142610676D01*
X100602200Y-142629003D01*
X100636720Y-142647454D01*
X100668232Y-142659662D01*
X100722977Y-142693559D01*
X100783904Y-142726125D01*
X100809506Y-142747136D01*
X100833048Y-142761713D01*
X100885212Y-142809267D01*
X100943169Y-142856831D01*
X100960342Y-142877757D01*
X100976301Y-142892305D01*
X101022629Y-142953653D01*
X101073875Y-143016096D01*
X101083783Y-143034634D01*
X101093122Y-143047000D01*
X101130274Y-143121613D01*
X101170997Y-143197800D01*
X101175340Y-143212117D01*
X101179528Y-143220528D01*
X101204267Y-143307476D01*
X101230805Y-143394960D01*
X101231676Y-143403811D01*
X101232577Y-143406975D01*
X101241938Y-143508002D01*
X101251000Y-143600000D01*
X101241938Y-143692005D01*
X101232577Y-143793024D01*
X101231676Y-143796187D01*
X101230805Y-143805040D01*
X101204262Y-143892538D01*
X101179528Y-143979471D01*
X101175341Y-143987879D01*
X101170997Y-144002200D01*
X101130267Y-144078399D01*
X101093122Y-144152999D01*
X101083785Y-144165362D01*
X101073875Y-144183904D01*
X101022620Y-144246357D01*
X100976301Y-144307694D01*
X100960345Y-144322238D01*
X100943169Y-144343169D01*
X100885201Y-144390741D01*
X100833048Y-144438286D01*
X100809511Y-144452859D01*
X100783904Y-144473875D01*
X100722965Y-144506447D01*
X100668232Y-144540337D01*
X100636726Y-144552542D01*
X100602200Y-144570997D01*
X100541773Y-144589327D01*
X100487474Y-144610363D01*
X100448268Y-144617691D01*
X100405040Y-144630805D01*
X100348136Y-144636409D01*
X100296923Y-144645983D01*
X100250938Y-144645983D01*
X100200000Y-144651000D01*
X100149062Y-144645983D01*
X100103077Y-144645983D01*
X100051863Y-144636409D01*
X99994960Y-144630805D01*
X99951732Y-144617692D01*
X99912525Y-144610363D01*
X99858221Y-144589325D01*
X99797800Y-144570997D01*
X99763275Y-144552543D01*
X99731767Y-144540337D01*
X99677027Y-144506443D01*
X99616096Y-144473875D01*
X99590491Y-144452861D01*
X99566951Y-144438286D01*
X99514788Y-144390733D01*
X99456831Y-144343169D01*
X99439656Y-144322242D01*
X99423698Y-144307694D01*
X99377367Y-144246342D01*
X99326125Y-144183904D01*
X99316216Y-144165366D01*
X99306877Y-144152999D01*
X99269717Y-144078372D01*
X99229003Y-144002200D01*
X99224660Y-143987884D01*
X99220471Y-143979471D01*
X99195721Y-143892485D01*
X99169195Y-143805040D01*
X99168323Y-143796192D01*
X99167422Y-143793024D01*
X99158044Y-143691833D01*
X99149000Y-143600000D01*
X99158044Y-143508173D01*
X99167422Y-143406975D01*
X99168323Y-143403805D01*
X99169195Y-143394960D01*
X99195716Y-143307529D01*
X99220471Y-143220528D01*
X99224661Y-143212112D01*
X99229003Y-143197800D01*
X99269710Y-143121641D01*
X99306877Y-143047000D01*
X99316218Y-143034629D01*
X99326125Y-143016096D01*
X99377357Y-142953668D01*
X99423698Y-142892305D01*
X99439660Y-142877753D01*
X99456831Y-142856831D01*
X99514777Y-142809275D01*
X99566951Y-142761713D01*
X99590496Y-142747134D01*
X99616096Y-142726125D01*
X99677015Y-142693563D01*
X99731767Y-142659662D01*
X99763282Y-142647452D01*
X99797800Y-142629003D01*
X99858209Y-142610677D01*
X99912525Y-142589636D01*
X99951739Y-142582305D01*
X99994960Y-142569195D01*
X100051860Y-142563590D01*
X100103077Y-142554017D01*
X100149062Y-142554017D01*
X100200000Y-142549000D01*
X100250938Y-142554017D01*
G37*
G36*
X93023733Y-111544329D02*
G01*
X93039330Y-111551216D01*
X93046850Y-111552407D01*
X93078166Y-111568363D01*
X93122824Y-111588082D01*
X93199418Y-111664676D01*
X93219139Y-111709340D01*
X93235092Y-111740649D01*
X93236282Y-111748166D01*
X93243171Y-111763767D01*
X93251000Y-111831250D01*
X93251000Y-112318750D01*
X93243171Y-112386233D01*
X93236282Y-112401834D01*
X93235092Y-112409350D01*
X93219142Y-112440652D01*
X93199418Y-112485324D01*
X93122824Y-112561918D01*
X93078152Y-112581642D01*
X93046850Y-112597592D01*
X93039334Y-112598782D01*
X93023733Y-112605671D01*
X92956250Y-112613500D01*
X92043750Y-112613500D01*
X91976267Y-112605671D01*
X91960666Y-112598782D01*
X91953149Y-112597592D01*
X91921840Y-112581639D01*
X91877176Y-112561918D01*
X91800582Y-112485324D01*
X91780863Y-112440666D01*
X91764907Y-112409350D01*
X91763716Y-112401830D01*
X91756829Y-112386233D01*
X91749000Y-112318750D01*
X91749000Y-111831250D01*
X91756829Y-111763767D01*
X91763715Y-111748169D01*
X91764907Y-111740649D01*
X91780867Y-111709325D01*
X91800582Y-111664676D01*
X91877176Y-111588082D01*
X91921825Y-111568367D01*
X91953149Y-111552407D01*
X91960669Y-111551215D01*
X91976267Y-111544329D01*
X92043750Y-111536500D01*
X92956250Y-111536500D01*
X93023733Y-111544329D01*
G37*
G36*
X114527032Y-110185644D02*
G01*
X114681159Y-110249485D01*
X114819869Y-110342168D01*
X114937832Y-110460131D01*
X115030515Y-110598841D01*
X115094356Y-110752968D01*
X115126902Y-110916587D01*
X115131000Y-111000000D01*
X115131000Y-111400000D01*
X115126902Y-111483413D01*
X115094356Y-111647032D01*
X115030515Y-111801159D01*
X114937832Y-111939869D01*
X114819869Y-112057832D01*
X114681159Y-112150515D01*
X114527032Y-112214356D01*
X114363413Y-112246902D01*
X114196587Y-112246902D01*
X114032968Y-112214356D01*
X113878841Y-112150515D01*
X113740131Y-112057832D01*
X113622168Y-111939869D01*
X113529485Y-111801159D01*
X113465644Y-111647032D01*
X113433098Y-111483413D01*
X113429000Y-111400000D01*
X113429000Y-111000000D01*
X113433098Y-110916587D01*
X113465644Y-110752968D01*
X113529485Y-110598841D01*
X113622168Y-110460131D01*
X113740131Y-110342168D01*
X113878841Y-110249485D01*
X114032968Y-110185644D01*
X114196587Y-110153098D01*
X114363413Y-110153098D01*
X114527032Y-110185644D01*
G37*
G36*
X117067032Y-110185644D02*
G01*
X117221159Y-110249485D01*
X117359869Y-110342168D01*
X117477832Y-110460131D01*
X117570515Y-110598841D01*
X117634356Y-110752968D01*
X117666902Y-110916587D01*
X117671000Y-111000000D01*
X117671000Y-111400000D01*
X117666902Y-111483413D01*
X117634356Y-111647032D01*
X117570515Y-111801159D01*
X117477832Y-111939869D01*
X117359869Y-112057832D01*
X117221159Y-112150515D01*
X117067032Y-112214356D01*
X116903413Y-112246902D01*
X116736587Y-112246902D01*
X116572968Y-112214356D01*
X116418841Y-112150515D01*
X116280131Y-112057832D01*
X116162168Y-111939869D01*
X116069485Y-111801159D01*
X116005644Y-111647032D01*
X115973098Y-111483413D01*
X115969000Y-111400000D01*
X115969000Y-111000000D01*
X115973098Y-110916587D01*
X116005644Y-110752968D01*
X116069485Y-110598841D01*
X116162168Y-110460131D01*
X116280131Y-110342168D01*
X116418841Y-110249485D01*
X116572968Y-110185644D01*
X116736587Y-110153098D01*
X116903413Y-110153098D01*
X117067032Y-110185644D01*
G37*
G36*
X119607032Y-110185644D02*
G01*
X119761159Y-110249485D01*
X119899869Y-110342168D01*
X120017832Y-110460131D01*
X120110515Y-110598841D01*
X120174356Y-110752968D01*
X120206902Y-110916587D01*
X120211000Y-111000000D01*
X120211000Y-111400000D01*
X120206902Y-111483413D01*
X120174356Y-111647032D01*
X120110515Y-111801159D01*
X120017832Y-111939869D01*
X119899869Y-112057832D01*
X119761159Y-112150515D01*
X119607032Y-112214356D01*
X119443413Y-112246902D01*
X119276587Y-112246902D01*
X119112968Y-112214356D01*
X118958841Y-112150515D01*
X118820131Y-112057832D01*
X118702168Y-111939869D01*
X118609485Y-111801159D01*
X118545644Y-111647032D01*
X118513098Y-111483413D01*
X118509000Y-111400000D01*
X118509000Y-111000000D01*
X118513098Y-110916587D01*
X118545644Y-110752968D01*
X118609485Y-110598841D01*
X118702168Y-110460131D01*
X118820131Y-110342168D01*
X118958841Y-110249485D01*
X119112968Y-110185644D01*
X119276587Y-110153098D01*
X119443413Y-110153098D01*
X119607032Y-110185644D01*
G37*
G36*
X122147032Y-110185644D02*
G01*
X122301159Y-110249485D01*
X122439869Y-110342168D01*
X122557832Y-110460131D01*
X122650515Y-110598841D01*
X122714356Y-110752968D01*
X122746902Y-110916587D01*
X122751000Y-111000000D01*
X122751000Y-111400000D01*
X122746902Y-111483413D01*
X122714356Y-111647032D01*
X122650515Y-111801159D01*
X122557832Y-111939869D01*
X122439869Y-112057832D01*
X122301159Y-112150515D01*
X122147032Y-112214356D01*
X121983413Y-112246902D01*
X121816587Y-112246902D01*
X121652968Y-112214356D01*
X121498841Y-112150515D01*
X121360131Y-112057832D01*
X121242168Y-111939869D01*
X121149485Y-111801159D01*
X121085644Y-111647032D01*
X121053098Y-111483413D01*
X121049000Y-111400000D01*
X121049000Y-111000000D01*
X121053098Y-110916587D01*
X121085644Y-110752968D01*
X121149485Y-110598841D01*
X121242168Y-110460131D01*
X121360131Y-110342168D01*
X121498841Y-110249485D01*
X121652968Y-110185644D01*
X121816587Y-110153098D01*
X121983413Y-110153098D01*
X122147032Y-110185644D01*
G37*
G36*
X93023733Y-109669329D02*
G01*
X93039330Y-109676216D01*
X93046850Y-109677407D01*
X93078166Y-109693363D01*
X93122824Y-109713082D01*
X93199418Y-109789676D01*
X93219139Y-109834340D01*
X93235092Y-109865649D01*
X93236282Y-109873166D01*
X93243171Y-109888767D01*
X93251000Y-109956250D01*
X93251000Y-110443750D01*
X93243171Y-110511233D01*
X93236282Y-110526834D01*
X93235092Y-110534350D01*
X93219142Y-110565652D01*
X93199418Y-110610324D01*
X93122824Y-110686918D01*
X93078152Y-110706642D01*
X93046850Y-110722592D01*
X93039334Y-110723782D01*
X93023733Y-110730671D01*
X92956250Y-110738500D01*
X92043750Y-110738500D01*
X91976267Y-110730671D01*
X91960666Y-110723782D01*
X91953149Y-110722592D01*
X91921840Y-110706639D01*
X91877176Y-110686918D01*
X91800582Y-110610324D01*
X91780863Y-110565666D01*
X91764907Y-110534350D01*
X91763716Y-110526830D01*
X91756829Y-110511233D01*
X91749000Y-110443750D01*
X91749000Y-109956250D01*
X91756829Y-109888767D01*
X91763715Y-109873169D01*
X91764907Y-109865649D01*
X91780867Y-109834325D01*
X91800582Y-109789676D01*
X91877176Y-109713082D01*
X91921825Y-109693367D01*
X91953149Y-109677407D01*
X91960669Y-109676215D01*
X91976267Y-109669329D01*
X92043750Y-109661500D01*
X92956250Y-109661500D01*
X93023733Y-109669329D01*
G37*
G36*
X119311018Y-42133406D02*
G01*
X119371273Y-42133406D01*
X119437119Y-42143330D01*
X119506193Y-42148767D01*
X119561867Y-42162133D01*
X119615222Y-42170175D01*
X119684941Y-42191680D01*
X119758107Y-42209246D01*
X119805415Y-42228841D01*
X119850972Y-42242894D01*
X119922489Y-42277335D01*
X119997458Y-42308388D01*
X120035942Y-42331971D01*
X120073242Y-42349934D01*
X120144191Y-42398306D01*
X120218353Y-42443753D01*
X120248047Y-42469114D01*
X120277082Y-42488910D01*
X120344876Y-42551814D01*
X120415353Y-42612007D01*
X120436754Y-42637065D01*
X120457931Y-42656714D01*
X120519845Y-42734351D01*
X120583607Y-42809007D01*
X120597629Y-42831889D01*
X120611750Y-42849596D01*
X120665007Y-42941839D01*
X120718972Y-43029902D01*
X120726897Y-43049037D01*
X120735105Y-43063252D01*
X120776958Y-43169894D01*
X120818114Y-43269253D01*
X120821517Y-43283431D01*
X120825234Y-43292900D01*
X120853077Y-43414886D01*
X120878593Y-43521167D01*
X120879254Y-43529573D01*
X120880134Y-43533426D01*
X120891603Y-43686471D01*
X120898920Y-43779440D01*
X120891602Y-43872415D01*
X120880134Y-44025453D01*
X120879254Y-44029305D01*
X120878593Y-44037713D01*
X120853072Y-44144013D01*
X120825234Y-44265979D01*
X120821518Y-44275445D01*
X120818114Y-44289627D01*
X120776951Y-44389003D01*
X120735105Y-44495627D01*
X120726899Y-44509839D01*
X120718972Y-44528978D01*
X120664997Y-44617056D01*
X120611750Y-44709283D01*
X120597632Y-44726986D01*
X120583607Y-44749873D01*
X120519833Y-44824542D01*
X120457931Y-44902165D01*
X120436758Y-44921809D01*
X120415353Y-44946873D01*
X120344862Y-45007077D01*
X120277082Y-45069969D01*
X120248053Y-45089760D01*
X120218353Y-45115127D01*
X120144177Y-45160582D01*
X120073242Y-45208945D01*
X120035950Y-45226903D01*
X119997458Y-45250492D01*
X119922474Y-45281550D01*
X119850972Y-45315985D01*
X119805424Y-45330034D01*
X119758107Y-45349634D01*
X119684927Y-45367202D01*
X119615222Y-45388704D01*
X119561875Y-45396744D01*
X119506193Y-45410113D01*
X119437115Y-45415549D01*
X119371273Y-45425474D01*
X119311018Y-45425474D01*
X119247920Y-45430440D01*
X119184822Y-45425474D01*
X119124567Y-45425474D01*
X119058723Y-45415549D01*
X118989647Y-45410113D01*
X118933965Y-45396745D01*
X118880617Y-45388704D01*
X118810908Y-45367201D01*
X118737733Y-45349634D01*
X118690418Y-45330035D01*
X118644867Y-45315985D01*
X118573358Y-45281547D01*
X118498382Y-45250492D01*
X118459892Y-45226905D01*
X118422595Y-45208944D01*
X118351646Y-45160571D01*
X118277487Y-45115127D01*
X118247793Y-45089766D01*
X118218759Y-45069971D01*
X118150963Y-45007065D01*
X118080487Y-44946873D01*
X118059084Y-44921814D01*
X118037908Y-44902165D01*
X117975991Y-44824524D01*
X117912233Y-44749873D01*
X117898211Y-44726991D01*
X117884089Y-44709283D01*
X117830825Y-44617028D01*
X117776868Y-44528978D01*
X117768943Y-44509845D01*
X117760734Y-44495627D01*
X117718869Y-44388957D01*
X117677726Y-44289627D01*
X117674322Y-44275452D01*
X117670605Y-44265979D01*
X117642747Y-44143928D01*
X117617247Y-44037713D01*
X117616585Y-44029311D01*
X117615705Y-44025453D01*
X117604216Y-43872150D01*
X117596920Y-43779440D01*
X117604216Y-43686737D01*
X117615705Y-43533426D01*
X117616585Y-43529566D01*
X117617247Y-43521167D01*
X117642742Y-43414970D01*
X117670605Y-43292900D01*
X117674323Y-43283424D01*
X117677726Y-43269253D01*
X117718862Y-43169940D01*
X117760734Y-43063252D01*
X117768944Y-43049030D01*
X117776868Y-43029902D01*
X117830815Y-42941867D01*
X117884089Y-42849596D01*
X117898213Y-42831883D01*
X117912233Y-42809007D01*
X117975979Y-42734369D01*
X118037908Y-42656714D01*
X118059089Y-42637060D01*
X118080487Y-42612007D01*
X118150949Y-42551826D01*
X118218759Y-42488908D01*
X118247799Y-42469108D01*
X118277487Y-42443753D01*
X118351631Y-42398316D01*
X118422595Y-42349935D01*
X118459900Y-42331969D01*
X118498382Y-42308388D01*
X118573343Y-42277338D01*
X118644867Y-42242894D01*
X118690427Y-42228840D01*
X118737733Y-42209246D01*
X118810893Y-42191681D01*
X118880617Y-42170175D01*
X118933974Y-42162132D01*
X118989647Y-42148767D01*
X119058719Y-42143330D01*
X119124567Y-42133406D01*
X119184822Y-42133406D01*
X119247920Y-42128440D01*
X119311018Y-42133406D01*
G37*
M02*
