G04 #@! TF.GenerationSoftware,KiCad,Pcbnew,8.0.5-8.0.5-0~ubuntu24.04.1*
G04 #@! TF.CreationDate,2024-09-20T13:44:16+09:00*
G04 #@! TF.ProjectId,gopher_pilot_xiao_sw,676f7068-6572-45f7-9069-6c6f745f7869,rev?*
G04 #@! TF.SameCoordinates,Original*
G04 #@! TF.FileFunction,Copper,L1,Top*
G04 #@! TF.FilePolarity,Positive*
%FSLAX46Y46*%
G04 Gerber Fmt 4.6, Leading zero omitted, Abs format (unit mm)*
G04 Created by KiCad (PCBNEW 8.0.5-8.0.5-0~ubuntu24.04.1) date 2024-09-20 13:44:16*
%MOMM*%
%LPD*%
G01*
G04 APERTURE LIST*
G04 #@! TA.AperFunction,EtchedComponent*
%ADD10C,0.100000*%
G04 #@! TD*
G04 #@! TA.AperFunction,EtchedComponent*
%ADD11C,0.010000*%
G04 #@! TD*
G04 #@! TA.AperFunction,SMDPad,CuDef*
%ADD12R,1.500000X1.000000*%
G04 #@! TD*
G04 #@! TA.AperFunction,ComponentPad*
%ADD13C,1.879600*%
G04 #@! TD*
G04 #@! TA.AperFunction,SMDPad,CuDef*
%ADD14O,1.016000X2.032000*%
G04 #@! TD*
G04 #@! TA.AperFunction,SMDPad,CuDef*
%ADD15C,1.143000*%
G04 #@! TD*
G04 #@! TA.AperFunction,ComponentPad*
%ADD16O,1.600000X2.000000*%
G04 #@! TD*
G04 #@! TA.AperFunction,ComponentPad*
%ADD17C,2.000000*%
G04 #@! TD*
G04 #@! TA.AperFunction,ViaPad*
%ADD18C,0.600000*%
G04 #@! TD*
G04 #@! TA.AperFunction,Conductor*
%ADD19C,0.600000*%
G04 #@! TD*
G04 #@! TA.AperFunction,Conductor*
%ADD20C,0.250000*%
G04 #@! TD*
G04 #@! TA.AperFunction,Conductor*
%ADD21C,0.200000*%
G04 #@! TD*
G04 #@! TA.AperFunction,Conductor*
%ADD22C,0.400000*%
G04 #@! TD*
G04 APERTURE END LIST*
D10*
X77852600Y-77951520D02*
X79112600Y-78411520D01*
X80352600Y-78821520D01*
X81652600Y-79151520D01*
X81952600Y-80781520D01*
X82182600Y-82071520D01*
X82202600Y-82131520D01*
X82162600Y-82191520D01*
X81922600Y-82261520D01*
X81392600Y-82211520D01*
X80692600Y-82031520D01*
X79952600Y-81731520D01*
X78992600Y-81111520D01*
X78082600Y-80081520D01*
X77552600Y-78851520D01*
X77332600Y-77831520D01*
X77852600Y-77951520D01*
G04 #@! TA.AperFunction,EtchedComponent*
G36*
X77852600Y-77951520D02*
G01*
X79112600Y-78411520D01*
X80352600Y-78821520D01*
X81652600Y-79151520D01*
X81952600Y-80781520D01*
X82182600Y-82071520D01*
X82202600Y-82131520D01*
X82162600Y-82191520D01*
X81922600Y-82261520D01*
X81392600Y-82211520D01*
X80692600Y-82031520D01*
X79952600Y-81731520D01*
X78992600Y-81111520D01*
X78082600Y-80081520D01*
X77552600Y-78851520D01*
X77332600Y-77831520D01*
X77852600Y-77951520D01*
G37*
G04 #@! TD.AperFunction*
X156802600Y-76651520D02*
X156742600Y-76961520D01*
X156352600Y-78261520D01*
X155712600Y-79241520D01*
X154792600Y-79961520D01*
X153472600Y-80521520D01*
X152702600Y-80751520D01*
X152092600Y-80901520D01*
X151742600Y-80901520D01*
X151632600Y-80781520D01*
X151662600Y-80461520D01*
X151772600Y-79931520D01*
X151892600Y-79191520D01*
X151952600Y-78791520D01*
X152062600Y-78081520D01*
X152212600Y-77581520D01*
X152442600Y-77291520D01*
X152432600Y-77291520D01*
X152822600Y-77141520D01*
X153932600Y-76881520D01*
X154742600Y-76611520D01*
X154912600Y-76561520D01*
X155182600Y-76451520D01*
X155572600Y-76301520D01*
X155752600Y-76231520D01*
X156162600Y-76051520D01*
X156542600Y-75881520D01*
X156952600Y-75701520D01*
X156802600Y-76651520D01*
G04 #@! TA.AperFunction,EtchedComponent*
G36*
X156802600Y-76651520D02*
G01*
X156742600Y-76961520D01*
X156352600Y-78261520D01*
X155712600Y-79241520D01*
X154792600Y-79961520D01*
X153472600Y-80521520D01*
X152702600Y-80751520D01*
X152092600Y-80901520D01*
X151742600Y-80901520D01*
X151632600Y-80781520D01*
X151662600Y-80461520D01*
X151772600Y-79931520D01*
X151892600Y-79191520D01*
X151952600Y-78791520D01*
X152062600Y-78081520D01*
X152212600Y-77581520D01*
X152442600Y-77291520D01*
X152432600Y-77291520D01*
X152822600Y-77141520D01*
X153932600Y-76881520D01*
X154742600Y-76611520D01*
X154912600Y-76561520D01*
X155182600Y-76451520D01*
X155572600Y-76301520D01*
X155752600Y-76231520D01*
X156162600Y-76051520D01*
X156542600Y-75881520D01*
X156952600Y-75701520D01*
X156802600Y-76651520D01*
G37*
G04 #@! TD.AperFunction*
X142592600Y-65086520D02*
X143352600Y-65991520D01*
X144172600Y-67141520D01*
X144772600Y-68051520D01*
X145262600Y-68991520D01*
X145902600Y-70551520D01*
X146372600Y-72621520D01*
X146492600Y-74711520D01*
X146232600Y-76621520D01*
X145612600Y-78431520D01*
X144672600Y-80071520D01*
X143402600Y-81551520D01*
X141812600Y-82801520D01*
X139902600Y-83771520D01*
X137732600Y-84381520D01*
X136592600Y-84541520D01*
X135052600Y-84631520D01*
X133872600Y-84650270D01*
X132552600Y-84582770D01*
X131062600Y-84369020D01*
X132302600Y-84336520D01*
X134792600Y-83931520D01*
X137032600Y-83091520D01*
X138882600Y-82001520D01*
X139812600Y-81211520D01*
X140552600Y-80581520D01*
X140932600Y-80171520D01*
X141662600Y-79221520D01*
X142352600Y-78291520D01*
X143332600Y-76351520D01*
X143912600Y-74201520D01*
X144112600Y-71931520D01*
X144092600Y-71341520D01*
X143872600Y-69351520D01*
X143322600Y-67521520D01*
X142512600Y-65871520D01*
X141992600Y-64891520D01*
X141932600Y-64616520D01*
X142592600Y-65086520D01*
G04 #@! TA.AperFunction,EtchedComponent*
G36*
X142592600Y-65086520D02*
G01*
X143352600Y-65991520D01*
X144172600Y-67141520D01*
X144772600Y-68051520D01*
X145262600Y-68991520D01*
X145902600Y-70551520D01*
X146372600Y-72621520D01*
X146492600Y-74711520D01*
X146232600Y-76621520D01*
X145612600Y-78431520D01*
X144672600Y-80071520D01*
X143402600Y-81551520D01*
X141812600Y-82801520D01*
X139902600Y-83771520D01*
X137732600Y-84381520D01*
X136592600Y-84541520D01*
X135052600Y-84631520D01*
X133872600Y-84650270D01*
X132552600Y-84582770D01*
X131062600Y-84369020D01*
X132302600Y-84336520D01*
X134792600Y-83931520D01*
X137032600Y-83091520D01*
X138882600Y-82001520D01*
X139812600Y-81211520D01*
X140552600Y-80581520D01*
X140932600Y-80171520D01*
X141662600Y-79221520D01*
X142352600Y-78291520D01*
X143332600Y-76351520D01*
X143912600Y-74201520D01*
X144112600Y-71931520D01*
X144092600Y-71341520D01*
X143872600Y-69351520D01*
X143322600Y-67521520D01*
X142512600Y-65871520D01*
X141992600Y-64891520D01*
X141932600Y-64616520D01*
X142592600Y-65086520D01*
G37*
G04 #@! TD.AperFunction*
X120867600Y-40251520D02*
X123317600Y-40471520D01*
X125347600Y-40846520D01*
X128677600Y-41936520D01*
X134532600Y-44191520D01*
X136612600Y-45051520D01*
X138302600Y-45846520D01*
X139482600Y-46696520D01*
X140222600Y-47421520D01*
X142162600Y-49341520D01*
X143562600Y-50761520D01*
X144232600Y-51451520D01*
X143982600Y-52091520D01*
X143492600Y-53361520D01*
X142932600Y-54801520D01*
X142452600Y-56051520D01*
X142042600Y-57091520D01*
X141832600Y-57621520D01*
X141522600Y-58371520D01*
X141232600Y-58981520D01*
X140592600Y-58741520D01*
X139392600Y-58271520D01*
X137582600Y-57741520D01*
X135542600Y-57281520D01*
X133132600Y-56861520D01*
X130542600Y-56521520D01*
X127542600Y-56231520D01*
X125022600Y-56061520D01*
X121312600Y-55911520D01*
X118622600Y-55871520D01*
X116092600Y-55871520D01*
X116092600Y-54161520D01*
X116082600Y-51711520D01*
X116062600Y-48821520D01*
X116042600Y-46991520D01*
X115992600Y-45871520D01*
X115922600Y-44261520D01*
X115732600Y-42121520D01*
X115462600Y-40221520D01*
X115432600Y-40031520D01*
X120867600Y-40251520D01*
G04 #@! TA.AperFunction,EtchedComponent*
G36*
X120867600Y-40251520D02*
G01*
X123317600Y-40471520D01*
X125347600Y-40846520D01*
X128677600Y-41936520D01*
X134532600Y-44191520D01*
X136612600Y-45051520D01*
X138302600Y-45846520D01*
X139482600Y-46696520D01*
X140222600Y-47421520D01*
X142162600Y-49341520D01*
X143562600Y-50761520D01*
X144232600Y-51451520D01*
X143982600Y-52091520D01*
X143492600Y-53361520D01*
X142932600Y-54801520D01*
X142452600Y-56051520D01*
X142042600Y-57091520D01*
X141832600Y-57621520D01*
X141522600Y-58371520D01*
X141232600Y-58981520D01*
X140592600Y-58741520D01*
X139392600Y-58271520D01*
X137582600Y-57741520D01*
X135542600Y-57281520D01*
X133132600Y-56861520D01*
X130542600Y-56521520D01*
X127542600Y-56231520D01*
X125022600Y-56061520D01*
X121312600Y-55911520D01*
X118622600Y-55871520D01*
X116092600Y-55871520D01*
X116092600Y-54161520D01*
X116082600Y-51711520D01*
X116062600Y-48821520D01*
X116042600Y-46991520D01*
X115992600Y-45871520D01*
X115922600Y-44261520D01*
X115732600Y-42121520D01*
X115462600Y-40221520D01*
X115432600Y-40031520D01*
X120867600Y-40251520D01*
G37*
G04 #@! TD.AperFunction*
X92622600Y-65286520D02*
X92062600Y-65991520D01*
X91372600Y-66971520D01*
X90892600Y-68011520D01*
X90472600Y-68941520D01*
X89912600Y-71111520D01*
X89742600Y-73411520D01*
X89862600Y-75201520D01*
X90412600Y-77391520D01*
X91272600Y-79331520D01*
X91972600Y-80331520D01*
X92482600Y-81091520D01*
X93212600Y-81841520D01*
X93992600Y-82631520D01*
X95792600Y-83941520D01*
X97802600Y-84891520D01*
X100092600Y-85521520D01*
X100502600Y-85591520D01*
X101032600Y-85711520D01*
X101132600Y-85751520D01*
X101172600Y-85761520D01*
X100862600Y-85791520D01*
X100142600Y-85841520D01*
X99502600Y-85891520D01*
X99092600Y-85921520D01*
X97352600Y-85821520D01*
X95532600Y-85451520D01*
X93752600Y-84881520D01*
X92172600Y-84111520D01*
X90692600Y-83151520D01*
X89622600Y-82101520D01*
X89082600Y-81351520D01*
X88112600Y-79541520D01*
X87512600Y-77591520D01*
X87272600Y-75591520D01*
X87392600Y-73541520D01*
X87892600Y-71501520D01*
X88722600Y-69581520D01*
X89902600Y-67781520D01*
X91452600Y-66131520D01*
X92742600Y-65076520D01*
X92622600Y-65286520D01*
G04 #@! TA.AperFunction,EtchedComponent*
G36*
X92622600Y-65286520D02*
G01*
X92062600Y-65991520D01*
X91372600Y-66971520D01*
X90892600Y-68011520D01*
X90472600Y-68941520D01*
X89912600Y-71111520D01*
X89742600Y-73411520D01*
X89862600Y-75201520D01*
X90412600Y-77391520D01*
X91272600Y-79331520D01*
X91972600Y-80331520D01*
X92482600Y-81091520D01*
X93212600Y-81841520D01*
X93992600Y-82631520D01*
X95792600Y-83941520D01*
X97802600Y-84891520D01*
X100092600Y-85521520D01*
X100502600Y-85591520D01*
X101032600Y-85711520D01*
X101132600Y-85751520D01*
X101172600Y-85761520D01*
X100862600Y-85791520D01*
X100142600Y-85841520D01*
X99502600Y-85891520D01*
X99092600Y-85921520D01*
X97352600Y-85821520D01*
X95532600Y-85451520D01*
X93752600Y-84881520D01*
X92172600Y-84111520D01*
X90692600Y-83151520D01*
X89622600Y-82101520D01*
X89082600Y-81351520D01*
X88112600Y-79541520D01*
X87512600Y-77591520D01*
X87272600Y-75591520D01*
X87392600Y-73541520D01*
X87892600Y-71501520D01*
X88722600Y-69581520D01*
X89902600Y-67781520D01*
X91452600Y-66131520D01*
X92742600Y-65076520D01*
X92622600Y-65286520D01*
G37*
G04 #@! TD.AperFunction*
X114002600Y-40421520D02*
X114142600Y-40691520D01*
X114402600Y-42101520D01*
X114512600Y-43581520D01*
X114602600Y-46021520D01*
X114672600Y-48541520D01*
X114732600Y-50751520D01*
X114762600Y-51801520D01*
X114782600Y-53581520D01*
X114822600Y-55891520D01*
X114022600Y-55941520D01*
X112502600Y-56021520D01*
X109942600Y-56181520D01*
X106592600Y-56541520D01*
X104542600Y-56831520D01*
X103452600Y-57011520D01*
X101372600Y-57391520D01*
X100792600Y-57501520D01*
X98562600Y-57991520D01*
X98012600Y-58111520D01*
X95652600Y-58781520D01*
X93722600Y-59451520D01*
X92312600Y-60071520D01*
X91792600Y-60321520D01*
X91102600Y-60661520D01*
X90822600Y-60761520D01*
X90642600Y-60721520D01*
X90562600Y-60521520D01*
X90262600Y-59041520D01*
X90092600Y-58011520D01*
X89782600Y-55771520D01*
X89632600Y-53991520D01*
X89652600Y-53701520D01*
X89672600Y-53421520D01*
X89862600Y-52791520D01*
X90272600Y-52341520D01*
X90952600Y-51891520D01*
X91932600Y-51371520D01*
X92502600Y-51061520D01*
X93202600Y-50661520D01*
X93732600Y-50211520D01*
X94292600Y-49611520D01*
X95142600Y-48521520D01*
X95922600Y-47501520D01*
X96622600Y-46751520D01*
X97242600Y-46191520D01*
X98052600Y-45641520D01*
X99082600Y-45041520D01*
X100392600Y-44341520D01*
X101902600Y-43581520D01*
X102862600Y-43191520D01*
X105762600Y-42251520D01*
X108562600Y-41511520D01*
X110392600Y-41021520D01*
X112852600Y-40441520D01*
X113722600Y-40331520D01*
X114002600Y-40421520D01*
G04 #@! TA.AperFunction,EtchedComponent*
G36*
X114002600Y-40421520D02*
G01*
X114142600Y-40691520D01*
X114402600Y-42101520D01*
X114512600Y-43581520D01*
X114602600Y-46021520D01*
X114672600Y-48541520D01*
X114732600Y-50751520D01*
X114762600Y-51801520D01*
X114782600Y-53581520D01*
X114822600Y-55891520D01*
X114022600Y-55941520D01*
X112502600Y-56021520D01*
X109942600Y-56181520D01*
X106592600Y-56541520D01*
X104542600Y-56831520D01*
X103452600Y-57011520D01*
X101372600Y-57391520D01*
X100792600Y-57501520D01*
X98562600Y-57991520D01*
X98012600Y-58111520D01*
X95652600Y-58781520D01*
X93722600Y-59451520D01*
X92312600Y-60071520D01*
X91792600Y-60321520D01*
X91102600Y-60661520D01*
X90822600Y-60761520D01*
X90642600Y-60721520D01*
X90562600Y-60521520D01*
X90262600Y-59041520D01*
X90092600Y-58011520D01*
X89782600Y-55771520D01*
X89632600Y-53991520D01*
X89652600Y-53701520D01*
X89672600Y-53421520D01*
X89862600Y-52791520D01*
X90272600Y-52341520D01*
X90952600Y-51891520D01*
X91932600Y-51371520D01*
X92502600Y-51061520D01*
X93202600Y-50661520D01*
X93732600Y-50211520D01*
X94292600Y-49611520D01*
X95142600Y-48521520D01*
X95922600Y-47501520D01*
X96622600Y-46751520D01*
X97242600Y-46191520D01*
X98052600Y-45641520D01*
X99082600Y-45041520D01*
X100392600Y-44341520D01*
X101902600Y-43581520D01*
X102862600Y-43191520D01*
X105762600Y-42251520D01*
X108562600Y-41511520D01*
X110392600Y-41021520D01*
X112852600Y-40441520D01*
X113722600Y-40331520D01*
X114002600Y-40421520D01*
G37*
G04 #@! TD.AperFunction*
X118362600Y-57521520D02*
X121542600Y-57521520D01*
X124952600Y-57611520D01*
X126812600Y-57681520D01*
X130102600Y-57971520D01*
X133402600Y-58411520D01*
X136272600Y-58991520D01*
X138772600Y-59701520D01*
X140992600Y-60571520D01*
X142952600Y-61631520D01*
X144602600Y-62821520D01*
X146072600Y-64231520D01*
X147082600Y-65521520D01*
X147322600Y-65821520D01*
X148792600Y-68291520D01*
X149812600Y-70681520D01*
X147512600Y-71241520D01*
X147292600Y-70311520D01*
X146902600Y-69351520D01*
X146452600Y-68241520D01*
X146202600Y-67761520D01*
X145712600Y-66981520D01*
X145072600Y-65931520D01*
X143952600Y-64651520D01*
X143402600Y-64061520D01*
X141542600Y-62521520D01*
X139352600Y-61221520D01*
X136882600Y-60201520D01*
X134342600Y-59581520D01*
X132762600Y-59381520D01*
X130522600Y-59391520D01*
X128172600Y-59801520D01*
X126202600Y-60491520D01*
X124302600Y-61541520D01*
X122792600Y-62741520D01*
X121462600Y-64241520D01*
X120292600Y-66056520D01*
X119557600Y-67864020D01*
X119132600Y-69841520D01*
X119027600Y-72124020D01*
X119477600Y-74779020D01*
X114652600Y-75161520D01*
X114592600Y-74851520D01*
X114812600Y-72571520D01*
X114682600Y-70851520D01*
X114152600Y-68751520D01*
X113282600Y-66801520D01*
X112052600Y-65051520D01*
X110472600Y-63501520D01*
X108542600Y-62171520D01*
X106372600Y-61211520D01*
X104977600Y-60866520D01*
X104447600Y-58276520D01*
X106162600Y-58051520D01*
X108622600Y-57656520D01*
X113382600Y-57446520D01*
X118362600Y-57521520D01*
G04 #@! TA.AperFunction,EtchedComponent*
G36*
X118362600Y-57521520D02*
G01*
X121542600Y-57521520D01*
X124952600Y-57611520D01*
X126812600Y-57681520D01*
X130102600Y-57971520D01*
X133402600Y-58411520D01*
X136272600Y-58991520D01*
X138772600Y-59701520D01*
X140992600Y-60571520D01*
X142952600Y-61631520D01*
X144602600Y-62821520D01*
X146072600Y-64231520D01*
X147082600Y-65521520D01*
X147322600Y-65821520D01*
X148792600Y-68291520D01*
X149812600Y-70681520D01*
X147512600Y-71241520D01*
X147292600Y-70311520D01*
X146902600Y-69351520D01*
X146452600Y-68241520D01*
X146202600Y-67761520D01*
X145712600Y-66981520D01*
X145072600Y-65931520D01*
X143952600Y-64651520D01*
X143402600Y-64061520D01*
X141542600Y-62521520D01*
X139352600Y-61221520D01*
X136882600Y-60201520D01*
X134342600Y-59581520D01*
X132762600Y-59381520D01*
X130522600Y-59391520D01*
X128172600Y-59801520D01*
X126202600Y-60491520D01*
X124302600Y-61541520D01*
X122792600Y-62741520D01*
X121462600Y-64241520D01*
X120292600Y-66056520D01*
X119557600Y-67864020D01*
X119132600Y-69841520D01*
X119027600Y-72124020D01*
X119477600Y-74779020D01*
X114652600Y-75161520D01*
X114592600Y-74851520D01*
X114812600Y-72571520D01*
X114682600Y-70851520D01*
X114152600Y-68751520D01*
X113282600Y-66801520D01*
X112052600Y-65051520D01*
X110472600Y-63501520D01*
X108542600Y-62171520D01*
X106372600Y-61211520D01*
X104977600Y-60866520D01*
X104447600Y-58276520D01*
X106162600Y-58051520D01*
X108622600Y-57656520D01*
X113382600Y-57446520D01*
X118362600Y-57521520D01*
G37*
G04 #@! TD.AperFunction*
X149862600Y-70771520D02*
X150012600Y-71351520D01*
X150302600Y-72401520D01*
X150532600Y-73291520D01*
X150722600Y-74961520D01*
X150802600Y-75681520D01*
X150702600Y-77961520D01*
X150542600Y-79011520D01*
X149892600Y-81501520D01*
X148892600Y-83771520D01*
X147602600Y-85711520D01*
X146562600Y-86801520D01*
X145902600Y-87441520D01*
X143982600Y-88801520D01*
X142302600Y-89621520D01*
X141712600Y-89921520D01*
X140802600Y-90241520D01*
X140192600Y-90381520D01*
X139522600Y-90451520D01*
X138682600Y-90481520D01*
X137892600Y-90481520D01*
X135762600Y-90451520D01*
X133902600Y-90291520D01*
X132252600Y-89931520D01*
X131002600Y-89421520D01*
X129772600Y-88711520D01*
X128592600Y-87731520D01*
X127032600Y-86141520D01*
X125892600Y-85031520D01*
X125022600Y-84301520D01*
X124422600Y-83891520D01*
X123952600Y-83611520D01*
X123492600Y-83211520D01*
X123142600Y-82221520D01*
X122712600Y-81601520D01*
X122562600Y-81371520D01*
X122962600Y-81061520D01*
X123032600Y-81051520D01*
X123272600Y-81281520D01*
X123682600Y-81711520D01*
X124262600Y-82301520D01*
X125022600Y-82871520D01*
X126102600Y-83701520D01*
X128072600Y-84801520D01*
X130152600Y-85481520D01*
X132122600Y-85951520D01*
X132792600Y-85981520D01*
X133942600Y-85981520D01*
X135282600Y-85941520D01*
X136222600Y-85901520D01*
X137382600Y-85801520D01*
X138432600Y-85641520D01*
X139392600Y-85381520D01*
X140932600Y-84811520D01*
X143022600Y-83651520D01*
X144632600Y-82331520D01*
X145972600Y-80691520D01*
X146962600Y-78761520D01*
X147622600Y-76641520D01*
X147862600Y-74461520D01*
X147762600Y-72381520D01*
X147492600Y-71301520D01*
X147532600Y-71291520D01*
X148572600Y-70971520D01*
X149762600Y-70691520D01*
X149862600Y-70771520D01*
G04 #@! TA.AperFunction,EtchedComponent*
G36*
X149862600Y-70771520D02*
G01*
X150012600Y-71351520D01*
X150302600Y-72401520D01*
X150532600Y-73291520D01*
X150722600Y-74961520D01*
X150802600Y-75681520D01*
X150702600Y-77961520D01*
X150542600Y-79011520D01*
X149892600Y-81501520D01*
X148892600Y-83771520D01*
X147602600Y-85711520D01*
X146562600Y-86801520D01*
X145902600Y-87441520D01*
X143982600Y-88801520D01*
X142302600Y-89621520D01*
X141712600Y-89921520D01*
X140802600Y-90241520D01*
X140192600Y-90381520D01*
X139522600Y-90451520D01*
X138682600Y-90481520D01*
X137892600Y-90481520D01*
X135762600Y-90451520D01*
X133902600Y-90291520D01*
X132252600Y-89931520D01*
X131002600Y-89421520D01*
X129772600Y-88711520D01*
X128592600Y-87731520D01*
X127032600Y-86141520D01*
X125892600Y-85031520D01*
X125022600Y-84301520D01*
X124422600Y-83891520D01*
X123952600Y-83611520D01*
X123492600Y-83211520D01*
X123142600Y-82221520D01*
X122712600Y-81601520D01*
X122562600Y-81371520D01*
X122962600Y-81061520D01*
X123032600Y-81051520D01*
X123272600Y-81281520D01*
X123682600Y-81711520D01*
X124262600Y-82301520D01*
X125022600Y-82871520D01*
X126102600Y-83701520D01*
X128072600Y-84801520D01*
X130152600Y-85481520D01*
X132122600Y-85951520D01*
X132792600Y-85981520D01*
X133942600Y-85981520D01*
X135282600Y-85941520D01*
X136222600Y-85901520D01*
X137382600Y-85801520D01*
X138432600Y-85641520D01*
X139392600Y-85381520D01*
X140932600Y-84811520D01*
X143022600Y-83651520D01*
X144632600Y-82331520D01*
X145972600Y-80691520D01*
X146962600Y-78761520D01*
X147622600Y-76641520D01*
X147862600Y-74461520D01*
X147762600Y-72381520D01*
X147492600Y-71301520D01*
X147532600Y-71291520D01*
X148572600Y-70971520D01*
X149762600Y-70691520D01*
X149862600Y-70771520D01*
G37*
G04 #@! TD.AperFunction*
X145802600Y-52531520D02*
X146502600Y-53001520D01*
X147162600Y-53451520D01*
X148082600Y-54141520D01*
X148442600Y-54411520D01*
X149252600Y-55211520D01*
X149852600Y-56081520D01*
X150232600Y-56951520D01*
X150362600Y-57311520D01*
X150632600Y-58081520D01*
X149902600Y-58211520D01*
X149082600Y-58361520D01*
X148012600Y-58561520D01*
X147252600Y-58701520D01*
X145992600Y-58981520D01*
X145162600Y-59261520D01*
X144652600Y-59511520D01*
X144482600Y-59801520D01*
X144642600Y-60181520D01*
X145182600Y-60731520D01*
X145522600Y-60991520D01*
X146312600Y-61631520D01*
X147012600Y-62221520D01*
X148542600Y-63781520D01*
X148862600Y-64121520D01*
X149332600Y-64791520D01*
X150332600Y-66201520D01*
X150442600Y-66351520D01*
X151012600Y-67531520D01*
X151672600Y-68901520D01*
X152052600Y-69931520D01*
X152412600Y-71131520D01*
X152732600Y-72401520D01*
X152902600Y-73091520D01*
X152972600Y-73501520D01*
X153082600Y-74151520D01*
X153182600Y-74901520D01*
X153192600Y-75461520D01*
X153082600Y-75651520D01*
X152982600Y-75661520D01*
X152612600Y-75761520D01*
X152502600Y-75791520D01*
X152342600Y-75681520D01*
X152232600Y-75271520D01*
X152062600Y-74121520D01*
X151822600Y-72621520D01*
X151682600Y-72131520D01*
X151262600Y-70691520D01*
X151062600Y-69951520D01*
X149952600Y-67401520D01*
X149032600Y-65931520D01*
X148442600Y-64971520D01*
X147602600Y-63961520D01*
X146822600Y-63031520D01*
X144962600Y-61351520D01*
X143812600Y-60481520D01*
X143062600Y-59951520D01*
X142742600Y-59701520D01*
X142737600Y-59501520D01*
X142907600Y-58761520D01*
X143552600Y-56971520D01*
X143872600Y-56111520D01*
X144122600Y-55471520D01*
X144382600Y-54791520D01*
X144662600Y-54081520D01*
X144772600Y-53801520D01*
X144992600Y-53261520D01*
X145202600Y-52761520D01*
X145452600Y-52301520D01*
X145802600Y-52531520D01*
G04 #@! TA.AperFunction,EtchedComponent*
G36*
X145802600Y-52531520D02*
G01*
X146502600Y-53001520D01*
X147162600Y-53451520D01*
X148082600Y-54141520D01*
X148442600Y-54411520D01*
X149252600Y-55211520D01*
X149852600Y-56081520D01*
X150232600Y-56951520D01*
X150362600Y-57311520D01*
X150632600Y-58081520D01*
X149902600Y-58211520D01*
X149082600Y-58361520D01*
X148012600Y-58561520D01*
X147252600Y-58701520D01*
X145992600Y-58981520D01*
X145162600Y-59261520D01*
X144652600Y-59511520D01*
X144482600Y-59801520D01*
X144642600Y-60181520D01*
X145182600Y-60731520D01*
X145522600Y-60991520D01*
X146312600Y-61631520D01*
X147012600Y-62221520D01*
X148542600Y-63781520D01*
X148862600Y-64121520D01*
X149332600Y-64791520D01*
X150332600Y-66201520D01*
X150442600Y-66351520D01*
X151012600Y-67531520D01*
X151672600Y-68901520D01*
X152052600Y-69931520D01*
X152412600Y-71131520D01*
X152732600Y-72401520D01*
X152902600Y-73091520D01*
X152972600Y-73501520D01*
X153082600Y-74151520D01*
X153182600Y-74901520D01*
X153192600Y-75461520D01*
X153082600Y-75651520D01*
X152982600Y-75661520D01*
X152612600Y-75761520D01*
X152502600Y-75791520D01*
X152342600Y-75681520D01*
X152232600Y-75271520D01*
X152062600Y-74121520D01*
X151822600Y-72621520D01*
X151682600Y-72131520D01*
X151262600Y-70691520D01*
X151062600Y-69951520D01*
X149952600Y-67401520D01*
X149032600Y-65931520D01*
X148442600Y-64971520D01*
X147602600Y-63961520D01*
X146822600Y-63031520D01*
X144962600Y-61351520D01*
X143812600Y-60481520D01*
X143062600Y-59951520D01*
X142742600Y-59701520D01*
X142737600Y-59501520D01*
X142907600Y-58761520D01*
X143552600Y-56971520D01*
X143872600Y-56111520D01*
X144122600Y-55471520D01*
X144382600Y-54791520D01*
X144662600Y-54081520D01*
X144772600Y-53801520D01*
X144992600Y-53261520D01*
X145202600Y-52761520D01*
X145452600Y-52301520D01*
X145802600Y-52531520D01*
G37*
G04 #@! TD.AperFunction*
X88310100Y-55031520D02*
X88612600Y-57271520D01*
X88892600Y-59041520D01*
X89142600Y-60361520D01*
X89452600Y-61651520D01*
X88802600Y-62111520D01*
X88142600Y-62651520D01*
X87462600Y-63311520D01*
X87252600Y-63511520D01*
X86892600Y-63911520D01*
X86482600Y-64351520D01*
X85752600Y-65211520D01*
X85362600Y-65681520D01*
X84832600Y-66371520D01*
X84112600Y-67421520D01*
X83352600Y-68991520D01*
X82922600Y-70191520D01*
X82662600Y-70841520D01*
X82212600Y-72631520D01*
X82102600Y-73101520D01*
X82062600Y-73451520D01*
X81852600Y-74791520D01*
X81772600Y-75371520D01*
X81642600Y-76781520D01*
X81632600Y-76931520D01*
X81572600Y-77551520D01*
X81392600Y-77621520D01*
X81092600Y-77571520D01*
X80862600Y-77411520D01*
X80842600Y-77351520D01*
X80832600Y-76881520D01*
X80882600Y-76041520D01*
X80962600Y-75221520D01*
X81062600Y-74401520D01*
X81102600Y-74121520D01*
X81222600Y-73311520D01*
X81382600Y-72471520D01*
X81532600Y-71901520D01*
X81952600Y-70661520D01*
X82412600Y-69361520D01*
X82632600Y-68941520D01*
X82892600Y-68461520D01*
X83362600Y-67571520D01*
X83662600Y-67001520D01*
X84392600Y-66021520D01*
X85232600Y-64891520D01*
X86392600Y-63741520D01*
X87132600Y-63011520D01*
X87712600Y-62491520D01*
X88332600Y-61811520D01*
X88492600Y-61491520D01*
X88482600Y-61431520D01*
X88202600Y-61091520D01*
X87502600Y-60751520D01*
X86452600Y-60441520D01*
X84822600Y-60091520D01*
X84252600Y-59981520D01*
X83722600Y-59811520D01*
X83552600Y-59711520D01*
X83582600Y-59521520D01*
X83762600Y-59021520D01*
X84102600Y-58251520D01*
X84822600Y-56901520D01*
X85122600Y-56471520D01*
X85272600Y-56301520D01*
X85732600Y-55931520D01*
X86422600Y-55421520D01*
X87112600Y-54941520D01*
X87872600Y-54471520D01*
X88157600Y-54341520D01*
X88310100Y-55031520D01*
G04 #@! TA.AperFunction,EtchedComponent*
G36*
X88310100Y-55031520D02*
G01*
X88612600Y-57271520D01*
X88892600Y-59041520D01*
X89142600Y-60361520D01*
X89452600Y-61651520D01*
X88802600Y-62111520D01*
X88142600Y-62651520D01*
X87462600Y-63311520D01*
X87252600Y-63511520D01*
X86892600Y-63911520D01*
X86482600Y-64351520D01*
X85752600Y-65211520D01*
X85362600Y-65681520D01*
X84832600Y-66371520D01*
X84112600Y-67421520D01*
X83352600Y-68991520D01*
X82922600Y-70191520D01*
X82662600Y-70841520D01*
X82212600Y-72631520D01*
X82102600Y-73101520D01*
X82062600Y-73451520D01*
X81852600Y-74791520D01*
X81772600Y-75371520D01*
X81642600Y-76781520D01*
X81632600Y-76931520D01*
X81572600Y-77551520D01*
X81392600Y-77621520D01*
X81092600Y-77571520D01*
X80862600Y-77411520D01*
X80842600Y-77351520D01*
X80832600Y-76881520D01*
X80882600Y-76041520D01*
X80962600Y-75221520D01*
X81062600Y-74401520D01*
X81102600Y-74121520D01*
X81222600Y-73311520D01*
X81382600Y-72471520D01*
X81532600Y-71901520D01*
X81952600Y-70661520D01*
X82412600Y-69361520D01*
X82632600Y-68941520D01*
X82892600Y-68461520D01*
X83362600Y-67571520D01*
X83662600Y-67001520D01*
X84392600Y-66021520D01*
X85232600Y-64891520D01*
X86392600Y-63741520D01*
X87132600Y-63011520D01*
X87712600Y-62491520D01*
X88332600Y-61811520D01*
X88492600Y-61491520D01*
X88482600Y-61431520D01*
X88202600Y-61091520D01*
X87502600Y-60751520D01*
X86452600Y-60441520D01*
X84822600Y-60091520D01*
X84252600Y-59981520D01*
X83722600Y-59811520D01*
X83552600Y-59711520D01*
X83582600Y-59521520D01*
X83762600Y-59021520D01*
X84102600Y-58251520D01*
X84822600Y-56901520D01*
X85122600Y-56471520D01*
X85272600Y-56301520D01*
X85732600Y-55931520D01*
X86422600Y-55421520D01*
X87112600Y-54941520D01*
X87872600Y-54471520D01*
X88157600Y-54341520D01*
X88310100Y-55031520D01*
G37*
G04 #@! TD.AperFunction*
X155972600Y-81831520D02*
X155952600Y-83131520D01*
X155862600Y-85481520D01*
X155772600Y-87271520D01*
X156592600Y-88321520D01*
X157092600Y-89041520D01*
X157312600Y-89581520D01*
X157472600Y-90291520D01*
X157632600Y-92471520D01*
X157542600Y-94501520D01*
X157152600Y-96451520D01*
X156512600Y-98381520D01*
X155442600Y-100661520D01*
X154972600Y-101761520D01*
X154642600Y-102851520D01*
X154612600Y-103831520D01*
X154922600Y-104741520D01*
X155602600Y-105581520D01*
X156622600Y-106401520D01*
X157072600Y-106671520D01*
X158322600Y-107471520D01*
X158932600Y-107901520D01*
X159562600Y-108321520D01*
X160472600Y-108971520D01*
X162002600Y-110121520D01*
X162982600Y-110731520D01*
X163522600Y-110941520D01*
X163792600Y-110961520D01*
X164752600Y-110821520D01*
X165702600Y-110231520D01*
X166192600Y-109701520D01*
X166632600Y-109201520D01*
X166892600Y-108841520D01*
X167472600Y-108061520D01*
X168042600Y-107331520D01*
X168512600Y-106741520D01*
X168942600Y-106221520D01*
X169152600Y-105961520D01*
X169452600Y-105631520D01*
X169532600Y-105551520D01*
X169792600Y-105341520D01*
X169922600Y-105421520D01*
X170122600Y-105761520D01*
X170332600Y-106241520D01*
X170452600Y-106701520D01*
X170432600Y-106921520D01*
X170022600Y-107231520D01*
X169642600Y-107531520D01*
X169182600Y-107881520D01*
X168142600Y-109231520D01*
X167972600Y-109581520D01*
X167582600Y-110401520D01*
X167342600Y-110971520D01*
X167272600Y-111141520D01*
X166802600Y-112071520D01*
X166232600Y-112781520D01*
X165622600Y-113221520D01*
X165062600Y-113371520D01*
X164482600Y-113201520D01*
X164352600Y-113131520D01*
X163872600Y-112991520D01*
X162692600Y-112721520D01*
X161862600Y-112561520D01*
X160922600Y-112331520D01*
X160112600Y-112091520D01*
X159212600Y-111751520D01*
X157472600Y-110811520D01*
X155462600Y-109661520D01*
X152542600Y-107881520D01*
X151142600Y-107011520D01*
X150142600Y-106271520D01*
X149722600Y-105761520D01*
X149522600Y-105211520D01*
X149452600Y-104561520D01*
X149542600Y-103691520D01*
X149782600Y-102511520D01*
X150172600Y-100841520D01*
X150332600Y-100151520D01*
X150572600Y-98931520D01*
X150672600Y-98411520D01*
X150832600Y-96981520D01*
X150782600Y-95721520D01*
X150562600Y-94561520D01*
X150082600Y-93281520D01*
X149752600Y-92441520D01*
X149592600Y-92051520D01*
X149252600Y-90851520D01*
X149062600Y-89541520D01*
X149012600Y-88001520D01*
X149042600Y-86791520D01*
X149132600Y-86321520D01*
X149152600Y-86261520D01*
X149412600Y-85711520D01*
X149992600Y-84771520D01*
X150502600Y-83841520D01*
X150692600Y-83401520D01*
X151072600Y-82661520D01*
X151352600Y-82391520D01*
X152572600Y-82231520D01*
X154322600Y-81751520D01*
X155062600Y-81411520D01*
X155662600Y-81131520D01*
X155962600Y-81021520D01*
X155972600Y-81831520D01*
G04 #@! TA.AperFunction,EtchedComponent*
G36*
X155972600Y-81831520D02*
G01*
X155952600Y-83131520D01*
X155862600Y-85481520D01*
X155772600Y-87271520D01*
X156592600Y-88321520D01*
X157092600Y-89041520D01*
X157312600Y-89581520D01*
X157472600Y-90291520D01*
X157632600Y-92471520D01*
X157542600Y-94501520D01*
X157152600Y-96451520D01*
X156512600Y-98381520D01*
X155442600Y-100661520D01*
X154972600Y-101761520D01*
X154642600Y-102851520D01*
X154612600Y-103831520D01*
X154922600Y-104741520D01*
X155602600Y-105581520D01*
X156622600Y-106401520D01*
X157072600Y-106671520D01*
X158322600Y-107471520D01*
X158932600Y-107901520D01*
X159562600Y-108321520D01*
X160472600Y-108971520D01*
X162002600Y-110121520D01*
X162982600Y-110731520D01*
X163522600Y-110941520D01*
X163792600Y-110961520D01*
X164752600Y-110821520D01*
X165702600Y-110231520D01*
X166192600Y-109701520D01*
X166632600Y-109201520D01*
X166892600Y-108841520D01*
X167472600Y-108061520D01*
X168042600Y-107331520D01*
X168512600Y-106741520D01*
X168942600Y-106221520D01*
X169152600Y-105961520D01*
X169452600Y-105631520D01*
X169532600Y-105551520D01*
X169792600Y-105341520D01*
X169922600Y-105421520D01*
X170122600Y-105761520D01*
X170332600Y-106241520D01*
X170452600Y-106701520D01*
X170432600Y-106921520D01*
X170022600Y-107231520D01*
X169642600Y-107531520D01*
X169182600Y-107881520D01*
X168142600Y-109231520D01*
X167972600Y-109581520D01*
X167582600Y-110401520D01*
X167342600Y-110971520D01*
X167272600Y-111141520D01*
X166802600Y-112071520D01*
X166232600Y-112781520D01*
X165622600Y-113221520D01*
X165062600Y-113371520D01*
X164482600Y-113201520D01*
X164352600Y-113131520D01*
X163872600Y-112991520D01*
X162692600Y-112721520D01*
X161862600Y-112561520D01*
X160922600Y-112331520D01*
X160112600Y-112091520D01*
X159212600Y-111751520D01*
X157472600Y-110811520D01*
X155462600Y-109661520D01*
X152542600Y-107881520D01*
X151142600Y-107011520D01*
X150142600Y-106271520D01*
X149722600Y-105761520D01*
X149522600Y-105211520D01*
X149452600Y-104561520D01*
X149542600Y-103691520D01*
X149782600Y-102511520D01*
X150172600Y-100841520D01*
X150332600Y-100151520D01*
X150572600Y-98931520D01*
X150672600Y-98411520D01*
X150832600Y-96981520D01*
X150782600Y-95721520D01*
X150562600Y-94561520D01*
X150082600Y-93281520D01*
X149752600Y-92441520D01*
X149592600Y-92051520D01*
X149252600Y-90851520D01*
X149062600Y-89541520D01*
X149012600Y-88001520D01*
X149042600Y-86791520D01*
X149132600Y-86321520D01*
X149152600Y-86261520D01*
X149412600Y-85711520D01*
X149992600Y-84771520D01*
X150502600Y-83841520D01*
X150692600Y-83401520D01*
X151072600Y-82661520D01*
X151352600Y-82391520D01*
X152572600Y-82231520D01*
X154322600Y-81751520D01*
X155062600Y-81411520D01*
X155662600Y-81131520D01*
X155962600Y-81021520D01*
X155972600Y-81831520D01*
G37*
G04 #@! TD.AperFunction*
X104992600Y-60871520D02*
X104752600Y-60801520D01*
X103142600Y-60651520D01*
X101482600Y-60621520D01*
X99792600Y-60741520D01*
X98272600Y-61011520D01*
X96072600Y-61671520D01*
X94492600Y-62411520D01*
X93702600Y-62771520D01*
X92192600Y-63751520D01*
X91592600Y-64151520D01*
X90242600Y-65391520D01*
X89722600Y-65851520D01*
X88932600Y-66881520D01*
X88222600Y-67781520D01*
X87112600Y-69811520D01*
X86562600Y-71361520D01*
X86252600Y-72291520D01*
X85932600Y-74071520D01*
X85902600Y-76301520D01*
X86282600Y-78451520D01*
X86982600Y-80381520D01*
X88052600Y-82181520D01*
X88802600Y-83091520D01*
X89452600Y-83801520D01*
X91092600Y-85121520D01*
X93032600Y-86151520D01*
X95182600Y-86801520D01*
X95652600Y-86891520D01*
X97072600Y-87041520D01*
X98562600Y-87121520D01*
X100242600Y-87111520D01*
X101722600Y-87011520D01*
X103082600Y-86831520D01*
X104512600Y-86421520D01*
X106652600Y-85471520D01*
X108462600Y-84311520D01*
X109742600Y-83221520D01*
X110282600Y-82741520D01*
X111742600Y-81031520D01*
X112652600Y-79671520D01*
X113042600Y-79041520D01*
X113962600Y-76991520D01*
X114542600Y-74921520D01*
X119442600Y-74791520D01*
X120062600Y-76571520D01*
X121202600Y-78711520D01*
X121842600Y-79561520D01*
X122632600Y-80621520D01*
X122982600Y-80991520D01*
X122532600Y-81351520D01*
X121732600Y-80601520D01*
X120732600Y-80011520D01*
X119862600Y-79661520D01*
X119232600Y-79541520D01*
X118392600Y-79491520D01*
X116972600Y-79461520D01*
X115832600Y-79511520D01*
X115252600Y-79551520D01*
X114512600Y-79731520D01*
X113852600Y-80011520D01*
X113482600Y-80201520D01*
X112672600Y-80751520D01*
X112052600Y-81341520D01*
X111482600Y-82141520D01*
X111252600Y-82781520D01*
X111182600Y-83211520D01*
X110902600Y-83591520D01*
X110152600Y-84151520D01*
X109152600Y-85041520D01*
X108092600Y-86051520D01*
X106482600Y-87691520D01*
X106067600Y-88116520D01*
X105137600Y-89006520D01*
X104497600Y-89586520D01*
X103427600Y-90296520D01*
X102212600Y-90811520D01*
X101202600Y-91181520D01*
X100262600Y-91361520D01*
X99312600Y-91491520D01*
X97912600Y-91571520D01*
X96492600Y-91631520D01*
X94792600Y-91581520D01*
X94022600Y-91511520D01*
X93252600Y-91371520D01*
X91692600Y-90771520D01*
X89707600Y-89661520D01*
X87817600Y-88181520D01*
X86362600Y-86591520D01*
X85312600Y-85171520D01*
X85022600Y-84751520D01*
X84312600Y-83401520D01*
X84012600Y-82821520D01*
X83342600Y-80701520D01*
X83202600Y-79831520D01*
X83137600Y-77166520D01*
X83287600Y-74356520D01*
X83632600Y-72251520D01*
X84212600Y-70461520D01*
X85192600Y-68471520D01*
X86412600Y-66491520D01*
X87752600Y-64901520D01*
X88692600Y-64021520D01*
X89162600Y-63581520D01*
X90422600Y-62721520D01*
X92232600Y-61731520D01*
X92542600Y-61551520D01*
X94942600Y-60571520D01*
X97662600Y-59691520D01*
X100652600Y-58971520D01*
X104382600Y-58261520D01*
X104992600Y-60871520D01*
G04 #@! TA.AperFunction,EtchedComponent*
G36*
X104992600Y-60871520D02*
G01*
X104752600Y-60801520D01*
X103142600Y-60651520D01*
X101482600Y-60621520D01*
X99792600Y-60741520D01*
X98272600Y-61011520D01*
X96072600Y-61671520D01*
X94492600Y-62411520D01*
X93702600Y-62771520D01*
X92192600Y-63751520D01*
X91592600Y-64151520D01*
X90242600Y-65391520D01*
X89722600Y-65851520D01*
X88932600Y-66881520D01*
X88222600Y-67781520D01*
X87112600Y-69811520D01*
X86562600Y-71361520D01*
X86252600Y-72291520D01*
X85932600Y-74071520D01*
X85902600Y-76301520D01*
X86282600Y-78451520D01*
X86982600Y-80381520D01*
X88052600Y-82181520D01*
X88802600Y-83091520D01*
X89452600Y-83801520D01*
X91092600Y-85121520D01*
X93032600Y-86151520D01*
X95182600Y-86801520D01*
X95652600Y-86891520D01*
X97072600Y-87041520D01*
X98562600Y-87121520D01*
X100242600Y-87111520D01*
X101722600Y-87011520D01*
X103082600Y-86831520D01*
X104512600Y-86421520D01*
X106652600Y-85471520D01*
X108462600Y-84311520D01*
X109742600Y-83221520D01*
X110282600Y-82741520D01*
X111742600Y-81031520D01*
X112652600Y-79671520D01*
X113042600Y-79041520D01*
X113962600Y-76991520D01*
X114542600Y-74921520D01*
X119442600Y-74791520D01*
X120062600Y-76571520D01*
X121202600Y-78711520D01*
X121842600Y-79561520D01*
X122632600Y-80621520D01*
X122982600Y-80991520D01*
X122532600Y-81351520D01*
X121732600Y-80601520D01*
X120732600Y-80011520D01*
X119862600Y-79661520D01*
X119232600Y-79541520D01*
X118392600Y-79491520D01*
X116972600Y-79461520D01*
X115832600Y-79511520D01*
X115252600Y-79551520D01*
X114512600Y-79731520D01*
X113852600Y-80011520D01*
X113482600Y-80201520D01*
X112672600Y-80751520D01*
X112052600Y-81341520D01*
X111482600Y-82141520D01*
X111252600Y-82781520D01*
X111182600Y-83211520D01*
X110902600Y-83591520D01*
X110152600Y-84151520D01*
X109152600Y-85041520D01*
X108092600Y-86051520D01*
X106482600Y-87691520D01*
X106067600Y-88116520D01*
X105137600Y-89006520D01*
X104497600Y-89586520D01*
X103427600Y-90296520D01*
X102212600Y-90811520D01*
X101202600Y-91181520D01*
X100262600Y-91361520D01*
X99312600Y-91491520D01*
X97912600Y-91571520D01*
X96492600Y-91631520D01*
X94792600Y-91581520D01*
X94022600Y-91511520D01*
X93252600Y-91371520D01*
X91692600Y-90771520D01*
X89707600Y-89661520D01*
X87817600Y-88181520D01*
X86362600Y-86591520D01*
X85312600Y-85171520D01*
X85022600Y-84751520D01*
X84312600Y-83401520D01*
X84012600Y-82821520D01*
X83342600Y-80701520D01*
X83202600Y-79831520D01*
X83137600Y-77166520D01*
X83287600Y-74356520D01*
X83632600Y-72251520D01*
X84212600Y-70461520D01*
X85192600Y-68471520D01*
X86412600Y-66491520D01*
X87752600Y-64901520D01*
X88692600Y-64021520D01*
X89162600Y-63581520D01*
X90422600Y-62721520D01*
X92232600Y-61731520D01*
X92542600Y-61551520D01*
X94942600Y-60571520D01*
X97662600Y-59691520D01*
X100652600Y-58971520D01*
X104382600Y-58261520D01*
X104992600Y-60871520D01*
G37*
G04 #@! TD.AperFunction*
X79412600Y-83131520D02*
X79882600Y-83271520D01*
X80732600Y-83481520D01*
X82982600Y-83931520D01*
X83362600Y-84721520D01*
X83882600Y-85661520D01*
X84692600Y-86841520D01*
X85572600Y-87941520D01*
X86542600Y-89031520D01*
X87432600Y-89811520D01*
X88352600Y-90541520D01*
X88112600Y-91301520D01*
X87802600Y-92361520D01*
X87542600Y-93881520D01*
X87402600Y-95561520D01*
X87402600Y-97391520D01*
X87542600Y-99271520D01*
X87602600Y-99571520D01*
X87642600Y-99961520D01*
X87672600Y-100531520D01*
X87632600Y-101011520D01*
X87482600Y-101441520D01*
X87202600Y-101991520D01*
X86912600Y-102451520D01*
X86232600Y-103361520D01*
X85342600Y-104341520D01*
X84792600Y-104921520D01*
X83392600Y-106211520D01*
X82652600Y-106831520D01*
X81832600Y-107401520D01*
X81272600Y-107671520D01*
X80512600Y-107851520D01*
X79072600Y-108101520D01*
X78772600Y-108171520D01*
X77782600Y-108431520D01*
X77462600Y-108521520D01*
X76452600Y-108911520D01*
X75992600Y-109151520D01*
X75562600Y-109311520D01*
X75092600Y-109431520D01*
X74522600Y-109501520D01*
X73702600Y-109541520D01*
X72832600Y-109561520D01*
X71572600Y-109571520D01*
X70062600Y-109591520D01*
X68642600Y-109641520D01*
X67772600Y-109731520D01*
X67232600Y-109841520D01*
X66762600Y-109971520D01*
X66252600Y-110131520D01*
X65562600Y-110371520D01*
X64662600Y-110621520D01*
X63952600Y-110721520D01*
X63292600Y-110661520D01*
X62552600Y-110431520D01*
X61452600Y-109861520D01*
X60372600Y-108941520D01*
X59472600Y-107841520D01*
X59232600Y-107551520D01*
X58642600Y-106651520D01*
X57852600Y-105301520D01*
X57402600Y-104421520D01*
X57272600Y-104051520D01*
X57502600Y-103881520D01*
X58102600Y-103601520D01*
X58652600Y-103201520D01*
X59012600Y-102741520D01*
X59222600Y-102371520D01*
X59382600Y-102211520D01*
X59532600Y-102311520D01*
X59782600Y-102781520D01*
X60062600Y-103551520D01*
X60302600Y-104501520D01*
X60532600Y-105701520D01*
X60822600Y-107131520D01*
X60912600Y-107481520D01*
X60982600Y-107801520D01*
X61132600Y-108251520D01*
X61422600Y-108661520D01*
X62142600Y-109151520D01*
X63122600Y-109451520D01*
X64192600Y-109561520D01*
X65372600Y-109471520D01*
X66462600Y-109161520D01*
X67172600Y-108961520D01*
X68092600Y-108821520D01*
X69352600Y-108691520D01*
X70852600Y-108621520D01*
X72342600Y-108541520D01*
X73692600Y-108441520D01*
X74652600Y-108271520D01*
X75282600Y-108021520D01*
X75792600Y-107641520D01*
X76222600Y-107081520D01*
X76622600Y-106371520D01*
X76932600Y-105731520D01*
X77282600Y-105031520D01*
X77572600Y-104411520D01*
X78022600Y-103441520D01*
X78402600Y-102521520D01*
X78622600Y-102031520D01*
X78842600Y-101371520D01*
X79042600Y-100801520D01*
X79322600Y-99711520D01*
X79502600Y-98551520D01*
X79592600Y-97311520D01*
X79612600Y-96071520D01*
X79602600Y-95571520D01*
X79532600Y-94531520D01*
X79402600Y-93531520D01*
X79152600Y-92031520D01*
X78952600Y-90771520D01*
X78812600Y-89941520D01*
X78622600Y-87681520D01*
X78622600Y-85701520D01*
X78842600Y-84071520D01*
X79042600Y-83361520D01*
X79172600Y-83111520D01*
X79412600Y-83131520D01*
G04 #@! TA.AperFunction,EtchedComponent*
G36*
X79412600Y-83131520D02*
G01*
X79882600Y-83271520D01*
X80732600Y-83481520D01*
X82982600Y-83931520D01*
X83362600Y-84721520D01*
X83882600Y-85661520D01*
X84692600Y-86841520D01*
X85572600Y-87941520D01*
X86542600Y-89031520D01*
X87432600Y-89811520D01*
X88352600Y-90541520D01*
X88112600Y-91301520D01*
X87802600Y-92361520D01*
X87542600Y-93881520D01*
X87402600Y-95561520D01*
X87402600Y-97391520D01*
X87542600Y-99271520D01*
X87602600Y-99571520D01*
X87642600Y-99961520D01*
X87672600Y-100531520D01*
X87632600Y-101011520D01*
X87482600Y-101441520D01*
X87202600Y-101991520D01*
X86912600Y-102451520D01*
X86232600Y-103361520D01*
X85342600Y-104341520D01*
X84792600Y-104921520D01*
X83392600Y-106211520D01*
X82652600Y-106831520D01*
X81832600Y-107401520D01*
X81272600Y-107671520D01*
X80512600Y-107851520D01*
X79072600Y-108101520D01*
X78772600Y-108171520D01*
X77782600Y-108431520D01*
X77462600Y-108521520D01*
X76452600Y-108911520D01*
X75992600Y-109151520D01*
X75562600Y-109311520D01*
X75092600Y-109431520D01*
X74522600Y-109501520D01*
X73702600Y-109541520D01*
X72832600Y-109561520D01*
X71572600Y-109571520D01*
X70062600Y-109591520D01*
X68642600Y-109641520D01*
X67772600Y-109731520D01*
X67232600Y-109841520D01*
X66762600Y-109971520D01*
X66252600Y-110131520D01*
X65562600Y-110371520D01*
X64662600Y-110621520D01*
X63952600Y-110721520D01*
X63292600Y-110661520D01*
X62552600Y-110431520D01*
X61452600Y-109861520D01*
X60372600Y-108941520D01*
X59472600Y-107841520D01*
X59232600Y-107551520D01*
X58642600Y-106651520D01*
X57852600Y-105301520D01*
X57402600Y-104421520D01*
X57272600Y-104051520D01*
X57502600Y-103881520D01*
X58102600Y-103601520D01*
X58652600Y-103201520D01*
X59012600Y-102741520D01*
X59222600Y-102371520D01*
X59382600Y-102211520D01*
X59532600Y-102311520D01*
X59782600Y-102781520D01*
X60062600Y-103551520D01*
X60302600Y-104501520D01*
X60532600Y-105701520D01*
X60822600Y-107131520D01*
X60912600Y-107481520D01*
X60982600Y-107801520D01*
X61132600Y-108251520D01*
X61422600Y-108661520D01*
X62142600Y-109151520D01*
X63122600Y-109451520D01*
X64192600Y-109561520D01*
X65372600Y-109471520D01*
X66462600Y-109161520D01*
X67172600Y-108961520D01*
X68092600Y-108821520D01*
X69352600Y-108691520D01*
X70852600Y-108621520D01*
X72342600Y-108541520D01*
X73692600Y-108441520D01*
X74652600Y-108271520D01*
X75282600Y-108021520D01*
X75792600Y-107641520D01*
X76222600Y-107081520D01*
X76622600Y-106371520D01*
X76932600Y-105731520D01*
X77282600Y-105031520D01*
X77572600Y-104411520D01*
X78022600Y-103441520D01*
X78402600Y-102521520D01*
X78622600Y-102031520D01*
X78842600Y-101371520D01*
X79042600Y-100801520D01*
X79322600Y-99711520D01*
X79502600Y-98551520D01*
X79592600Y-97311520D01*
X79612600Y-96071520D01*
X79602600Y-95571520D01*
X79532600Y-94531520D01*
X79402600Y-93531520D01*
X79152600Y-92031520D01*
X78952600Y-90771520D01*
X78812600Y-89941520D01*
X78622600Y-87681520D01*
X78622600Y-85701520D01*
X78842600Y-84071520D01*
X79042600Y-83361520D01*
X79172600Y-83111520D01*
X79412600Y-83131520D01*
G37*
G04 #@! TD.AperFunction*
D11*
X103213059Y-60704738D02*
X104803989Y-60872636D01*
X106147806Y-61178563D01*
X106370997Y-61254590D01*
X108549300Y-62252810D01*
X110435659Y-63537026D01*
X112008780Y-65078218D01*
X113247366Y-66847364D01*
X114130122Y-68815443D01*
X114635754Y-70953434D01*
X114754711Y-72679781D01*
X114546225Y-74886681D01*
X113947712Y-77052338D01*
X112999588Y-79127819D01*
X111742268Y-81064192D01*
X110216169Y-82812524D01*
X108461707Y-84323882D01*
X106519297Y-85549336D01*
X104429355Y-86439952D01*
X103092607Y-86799307D01*
X101791704Y-86991476D01*
X100245747Y-87095703D01*
X98606300Y-87112101D01*
X97024930Y-87040779D01*
X95653201Y-86881850D01*
X95196083Y-86793531D01*
X93040209Y-86103030D01*
X91123541Y-85076025D01*
X89470541Y-83752525D01*
X88105672Y-82172540D01*
X87053395Y-80376078D01*
X86338172Y-78403149D01*
X85984465Y-76293763D01*
X85994751Y-75590608D01*
X87232708Y-75590608D01*
X87468197Y-77616840D01*
X88073935Y-79569161D01*
X89055723Y-81396201D01*
X89600659Y-82137628D01*
X90685558Y-83196473D01*
X92096875Y-84133987D01*
X93738631Y-84914173D01*
X95514846Y-85501036D01*
X97329539Y-85858579D01*
X99086730Y-85950806D01*
X99669507Y-85913830D01*
X100402153Y-85850367D01*
X101049453Y-85807293D01*
X101176287Y-85801700D01*
X101244564Y-85759701D01*
X100948488Y-85664341D01*
X100348667Y-85532932D01*
X100016159Y-85470324D01*
X97817169Y-84867195D01*
X95813866Y-83911004D01*
X94039538Y-82640918D01*
X92527475Y-81096103D01*
X91310963Y-79315726D01*
X90423293Y-77338952D01*
X89897751Y-75204948D01*
X89760402Y-73403646D01*
X89809633Y-72782286D01*
X90995110Y-72782286D01*
X91076514Y-74654238D01*
X91470364Y-76475409D01*
X92158943Y-78203514D01*
X93124534Y-79796266D01*
X94349421Y-81211381D01*
X95815886Y-82406573D01*
X97506212Y-83339557D01*
X99402682Y-83968048D01*
X101487579Y-84249761D01*
X101953447Y-84260934D01*
X102998759Y-84228115D01*
X104040124Y-84132771D01*
X104888004Y-83993676D01*
X105046443Y-83954563D01*
X107043105Y-83206136D01*
X108791160Y-82109286D01*
X109922688Y-81088031D01*
X111347791Y-79334673D01*
X112380865Y-77447718D01*
X113016025Y-75464265D01*
X113247388Y-73421410D01*
X113069069Y-71356251D01*
X112475185Y-69305884D01*
X111967644Y-68194775D01*
X110815149Y-66414949D01*
X109398061Y-64942712D01*
X107767588Y-63785425D01*
X105974934Y-62950454D01*
X104071304Y-62445159D01*
X102107904Y-62276906D01*
X100135939Y-62453058D01*
X98206614Y-62980976D01*
X96371135Y-63868026D01*
X94680706Y-65121570D01*
X94148301Y-65632367D01*
X92802749Y-67284592D01*
X91840511Y-69055178D01*
X91243870Y-70901837D01*
X90995110Y-72782286D01*
X89809633Y-72782286D01*
X89943936Y-71087222D01*
X90496158Y-68940731D01*
X91403608Y-67004822D01*
X92303578Y-65722389D01*
X92682695Y-65237622D01*
X92780222Y-65043164D01*
X92588411Y-65142698D01*
X92099511Y-65539905D01*
X91405990Y-66148774D01*
X89877238Y-67773995D01*
X88689733Y-69582160D01*
X87849276Y-71521897D01*
X87361668Y-73541837D01*
X87232708Y-75590608D01*
X85994751Y-75590608D01*
X86016734Y-74087928D01*
X86332847Y-72296889D01*
X87132984Y-69953465D01*
X88301909Y-67810619D01*
X89813645Y-65892696D01*
X91642218Y-64224040D01*
X93761651Y-62828998D01*
X96145968Y-61731914D01*
X98320603Y-61061840D01*
X99835066Y-60796076D01*
X101511318Y-60678130D01*
X103213059Y-60704738D01*
G04 #@! TA.AperFunction,EtchedComponent*
G36*
X103213059Y-60704738D02*
G01*
X104803989Y-60872636D01*
X106147806Y-61178563D01*
X106370997Y-61254590D01*
X108549300Y-62252810D01*
X110435659Y-63537026D01*
X112008780Y-65078218D01*
X113247366Y-66847364D01*
X114130122Y-68815443D01*
X114635754Y-70953434D01*
X114754711Y-72679781D01*
X114546225Y-74886681D01*
X113947712Y-77052338D01*
X112999588Y-79127819D01*
X111742268Y-81064192D01*
X110216169Y-82812524D01*
X108461707Y-84323882D01*
X106519297Y-85549336D01*
X104429355Y-86439952D01*
X103092607Y-86799307D01*
X101791704Y-86991476D01*
X100245747Y-87095703D01*
X98606300Y-87112101D01*
X97024930Y-87040779D01*
X95653201Y-86881850D01*
X95196083Y-86793531D01*
X93040209Y-86103030D01*
X91123541Y-85076025D01*
X89470541Y-83752525D01*
X88105672Y-82172540D01*
X87053395Y-80376078D01*
X86338172Y-78403149D01*
X85984465Y-76293763D01*
X85994751Y-75590608D01*
X87232708Y-75590608D01*
X87468197Y-77616840D01*
X88073935Y-79569161D01*
X89055723Y-81396201D01*
X89600659Y-82137628D01*
X90685558Y-83196473D01*
X92096875Y-84133987D01*
X93738631Y-84914173D01*
X95514846Y-85501036D01*
X97329539Y-85858579D01*
X99086730Y-85950806D01*
X99669507Y-85913830D01*
X100402153Y-85850367D01*
X101049453Y-85807293D01*
X101176287Y-85801700D01*
X101244564Y-85759701D01*
X100948488Y-85664341D01*
X100348667Y-85532932D01*
X100016159Y-85470324D01*
X97817169Y-84867195D01*
X95813866Y-83911004D01*
X94039538Y-82640918D01*
X92527475Y-81096103D01*
X91310963Y-79315726D01*
X90423293Y-77338952D01*
X89897751Y-75204948D01*
X89760402Y-73403646D01*
X89809633Y-72782286D01*
X90995110Y-72782286D01*
X91076514Y-74654238D01*
X91470364Y-76475409D01*
X92158943Y-78203514D01*
X93124534Y-79796266D01*
X94349421Y-81211381D01*
X95815886Y-82406573D01*
X97506212Y-83339557D01*
X99402682Y-83968048D01*
X101487579Y-84249761D01*
X101953447Y-84260934D01*
X102998759Y-84228115D01*
X104040124Y-84132771D01*
X104888004Y-83993676D01*
X105046443Y-83954563D01*
X107043105Y-83206136D01*
X108791160Y-82109286D01*
X109922688Y-81088031D01*
X111347791Y-79334673D01*
X112380865Y-77447718D01*
X113016025Y-75464265D01*
X113247388Y-73421410D01*
X113069069Y-71356251D01*
X112475185Y-69305884D01*
X111967644Y-68194775D01*
X110815149Y-66414949D01*
X109398061Y-64942712D01*
X107767588Y-63785425D01*
X105974934Y-62950454D01*
X104071304Y-62445159D01*
X102107904Y-62276906D01*
X100135939Y-62453058D01*
X98206614Y-62980976D01*
X96371135Y-63868026D01*
X94680706Y-65121570D01*
X94148301Y-65632367D01*
X92802749Y-67284592D01*
X91840511Y-69055178D01*
X91243870Y-70901837D01*
X90995110Y-72782286D01*
X89809633Y-72782286D01*
X89943936Y-71087222D01*
X90496158Y-68940731D01*
X91403608Y-67004822D01*
X92303578Y-65722389D01*
X92682695Y-65237622D01*
X92780222Y-65043164D01*
X92588411Y-65142698D01*
X92099511Y-65539905D01*
X91405990Y-66148774D01*
X89877238Y-67773995D01*
X88689733Y-69582160D01*
X87849276Y-71521897D01*
X87361668Y-73541837D01*
X87232708Y-75590608D01*
X85994751Y-75590608D01*
X86016734Y-74087928D01*
X86332847Y-72296889D01*
X87132984Y-69953465D01*
X88301909Y-67810619D01*
X89813645Y-65892696D01*
X91642218Y-64224040D01*
X93761651Y-62828998D01*
X96145968Y-61731914D01*
X98320603Y-61061840D01*
X99835066Y-60796076D01*
X101511318Y-60678130D01*
X103213059Y-60704738D01*
G37*
G04 #@! TD.AperFunction*
X134307887Y-59626709D02*
X136901020Y-60279100D01*
X139307677Y-61263662D01*
X141488140Y-62552220D01*
X143402693Y-64116600D01*
X145011619Y-65928627D01*
X146275201Y-67960126D01*
X146393452Y-68200036D01*
X147266306Y-70360384D01*
X147749969Y-72433007D01*
X147855137Y-74493802D01*
X147592504Y-76618666D01*
X147584995Y-76655433D01*
X146939452Y-78805515D01*
X145942361Y-80703999D01*
X144601490Y-82342598D01*
X142924608Y-83713025D01*
X140919484Y-84806996D01*
X139407684Y-85377520D01*
X138449205Y-85632154D01*
X137377444Y-85802950D01*
X136068528Y-85906526D01*
X135210227Y-85940636D01*
X134140653Y-85963468D01*
X133198549Y-85966683D01*
X132483629Y-85951072D01*
X132095609Y-85917425D01*
X132089040Y-85915898D01*
X131667995Y-85815626D01*
X130975839Y-85653369D01*
X130161489Y-85464034D01*
X130151752Y-85461780D01*
X128094125Y-84768613D01*
X127298239Y-84333584D01*
X131012769Y-84333584D01*
X131766159Y-84496303D01*
X132733191Y-84625834D01*
X133973801Y-84679035D01*
X135337962Y-84658363D01*
X136675647Y-84566275D01*
X137836828Y-84405229D01*
X137884153Y-84396081D01*
X140004932Y-83779108D01*
X141865342Y-82836208D01*
X143446066Y-81607452D01*
X144727785Y-80132913D01*
X145691185Y-78452662D01*
X146316947Y-76606771D01*
X146585756Y-74635312D01*
X146478294Y-72578358D01*
X145975245Y-70475980D01*
X145342013Y-68924998D01*
X144773000Y-67877583D01*
X144095322Y-66828633D01*
X143382102Y-65875198D01*
X142706461Y-65114328D01*
X142141525Y-64643073D01*
X142095875Y-64616676D01*
X141935640Y-64592885D01*
X141995090Y-64839429D01*
X142286877Y-65395194D01*
X142429067Y-65640750D01*
X143342791Y-67485216D01*
X143891029Y-69335041D01*
X144113761Y-71338086D01*
X144123286Y-71906737D01*
X143931888Y-74194521D01*
X143351729Y-76307901D01*
X142373398Y-78269791D01*
X140987484Y-80103105D01*
X140575693Y-80544571D01*
X138908234Y-81962325D01*
X136979602Y-83077682D01*
X134871971Y-83854725D01*
X132667519Y-84257541D01*
X131981413Y-84300673D01*
X131012769Y-84333584D01*
X127298239Y-84333584D01*
X126122320Y-83690831D01*
X124290285Y-82284344D01*
X122651970Y-80605064D01*
X121261325Y-78708901D01*
X120172298Y-76651768D01*
X119438840Y-74489575D01*
X119397848Y-74316822D01*
X119081055Y-72067096D01*
X119106063Y-71388770D01*
X120603473Y-71388770D01*
X120703908Y-73386731D01*
X121174083Y-75321144D01*
X121984246Y-77143354D01*
X123104641Y-78804708D01*
X124505516Y-80256551D01*
X126157114Y-81450230D01*
X128029683Y-82337090D01*
X129016773Y-82644353D01*
X130183128Y-82830374D01*
X131590573Y-82877773D01*
X133074307Y-82795164D01*
X134469529Y-82591161D01*
X135533108Y-82303735D01*
X137422098Y-81402162D01*
X139084406Y-80183781D01*
X140488389Y-78700940D01*
X141602400Y-77005987D01*
X142394796Y-75151272D01*
X142833933Y-73189142D01*
X142888165Y-71171946D01*
X142786044Y-70305433D01*
X142234869Y-68201372D01*
X141321327Y-66291677D01*
X140085134Y-64612858D01*
X138566007Y-63201426D01*
X136803661Y-62093892D01*
X134837812Y-61326766D01*
X132708177Y-60936560D01*
X132583739Y-60926507D01*
X130417907Y-60970569D01*
X128356983Y-61413693D01*
X126444792Y-62224176D01*
X124725163Y-63370318D01*
X123241921Y-64820416D01*
X122038894Y-66542769D01*
X121159909Y-68505676D01*
X120902534Y-69375915D01*
X120603473Y-71388770D01*
X119106063Y-71388770D01*
X119160651Y-69908126D01*
X119606672Y-67869433D01*
X120389156Y-65980538D01*
X121478139Y-64270962D01*
X122843659Y-62770227D01*
X124455751Y-61507853D01*
X126284454Y-60513362D01*
X128299802Y-59816276D01*
X130471835Y-59446114D01*
X132770588Y-59432399D01*
X134307887Y-59626709D01*
G04 #@! TA.AperFunction,EtchedComponent*
G36*
X134307887Y-59626709D02*
G01*
X136901020Y-60279100D01*
X139307677Y-61263662D01*
X141488140Y-62552220D01*
X143402693Y-64116600D01*
X145011619Y-65928627D01*
X146275201Y-67960126D01*
X146393452Y-68200036D01*
X147266306Y-70360384D01*
X147749969Y-72433007D01*
X147855137Y-74493802D01*
X147592504Y-76618666D01*
X147584995Y-76655433D01*
X146939452Y-78805515D01*
X145942361Y-80703999D01*
X144601490Y-82342598D01*
X142924608Y-83713025D01*
X140919484Y-84806996D01*
X139407684Y-85377520D01*
X138449205Y-85632154D01*
X137377444Y-85802950D01*
X136068528Y-85906526D01*
X135210227Y-85940636D01*
X134140653Y-85963468D01*
X133198549Y-85966683D01*
X132483629Y-85951072D01*
X132095609Y-85917425D01*
X132089040Y-85915898D01*
X131667995Y-85815626D01*
X130975839Y-85653369D01*
X130161489Y-85464034D01*
X130151752Y-85461780D01*
X128094125Y-84768613D01*
X127298239Y-84333584D01*
X131012769Y-84333584D01*
X131766159Y-84496303D01*
X132733191Y-84625834D01*
X133973801Y-84679035D01*
X135337962Y-84658363D01*
X136675647Y-84566275D01*
X137836828Y-84405229D01*
X137884153Y-84396081D01*
X140004932Y-83779108D01*
X141865342Y-82836208D01*
X143446066Y-81607452D01*
X144727785Y-80132913D01*
X145691185Y-78452662D01*
X146316947Y-76606771D01*
X146585756Y-74635312D01*
X146478294Y-72578358D01*
X145975245Y-70475980D01*
X145342013Y-68924998D01*
X144773000Y-67877583D01*
X144095322Y-66828633D01*
X143382102Y-65875198D01*
X142706461Y-65114328D01*
X142141525Y-64643073D01*
X142095875Y-64616676D01*
X141935640Y-64592885D01*
X141995090Y-64839429D01*
X142286877Y-65395194D01*
X142429067Y-65640750D01*
X143342791Y-67485216D01*
X143891029Y-69335041D01*
X144113761Y-71338086D01*
X144123286Y-71906737D01*
X143931888Y-74194521D01*
X143351729Y-76307901D01*
X142373398Y-78269791D01*
X140987484Y-80103105D01*
X140575693Y-80544571D01*
X138908234Y-81962325D01*
X136979602Y-83077682D01*
X134871971Y-83854725D01*
X132667519Y-84257541D01*
X131981413Y-84300673D01*
X131012769Y-84333584D01*
X127298239Y-84333584D01*
X126122320Y-83690831D01*
X124290285Y-82284344D01*
X122651970Y-80605064D01*
X121261325Y-78708901D01*
X120172298Y-76651768D01*
X119438840Y-74489575D01*
X119397848Y-74316822D01*
X119081055Y-72067096D01*
X119106063Y-71388770D01*
X120603473Y-71388770D01*
X120703908Y-73386731D01*
X121174083Y-75321144D01*
X121984246Y-77143354D01*
X123104641Y-78804708D01*
X124505516Y-80256551D01*
X126157114Y-81450230D01*
X128029683Y-82337090D01*
X129016773Y-82644353D01*
X130183128Y-82830374D01*
X131590573Y-82877773D01*
X133074307Y-82795164D01*
X134469529Y-82591161D01*
X135533108Y-82303735D01*
X137422098Y-81402162D01*
X139084406Y-80183781D01*
X140488389Y-78700940D01*
X141602400Y-77005987D01*
X142394796Y-75151272D01*
X142833933Y-73189142D01*
X142888165Y-71171946D01*
X142786044Y-70305433D01*
X142234869Y-68201372D01*
X141321327Y-66291677D01*
X140085134Y-64612858D01*
X138566007Y-63201426D01*
X136803661Y-62093892D01*
X134837812Y-61326766D01*
X132708177Y-60936560D01*
X132583739Y-60926507D01*
X130417907Y-60970569D01*
X128356983Y-61413693D01*
X126444792Y-62224176D01*
X124725163Y-63370318D01*
X123241921Y-64820416D01*
X122038894Y-66542769D01*
X121159909Y-68505676D01*
X120902534Y-69375915D01*
X120603473Y-71388770D01*
X119106063Y-71388770D01*
X119160651Y-69908126D01*
X119606672Y-67869433D01*
X120389156Y-65980538D01*
X121478139Y-64270962D01*
X122843659Y-62770227D01*
X124455751Y-61507853D01*
X126284454Y-60513362D01*
X128299802Y-59816276D01*
X130471835Y-59446114D01*
X132770588Y-59432399D01*
X134307887Y-59626709D01*
G37*
G04 #@! TD.AperFunction*
X117333809Y-38930593D02*
X118907204Y-38982561D01*
X119496668Y-39005734D01*
X121040881Y-39079429D01*
X122483890Y-39170393D01*
X123747784Y-39272176D01*
X124754655Y-39378325D01*
X125426593Y-39482387D01*
X125523786Y-39504887D01*
X126028098Y-39661242D01*
X126863774Y-39950309D01*
X127963206Y-40346347D01*
X129258787Y-40823612D01*
X130682909Y-41356363D01*
X132167966Y-41918859D01*
X133646349Y-42485356D01*
X135050452Y-43030114D01*
X136312667Y-43527391D01*
X137365387Y-43951443D01*
X138141004Y-44276530D01*
X138546668Y-44463430D01*
X139165557Y-44831535D01*
X139863041Y-45342250D01*
X140689266Y-46038406D01*
X141694380Y-46962833D01*
X142928529Y-48158364D01*
X143282261Y-48508128D01*
X144291190Y-49466362D01*
X145380608Y-50430378D01*
X146431942Y-51299358D01*
X147326617Y-51972485D01*
X147479718Y-52077005D01*
X148795300Y-53008184D01*
X149786123Y-53853565D01*
X150525283Y-54696108D01*
X151085877Y-55618773D01*
X151530035Y-56673930D01*
X152113063Y-58294620D01*
X153621006Y-58555328D01*
X155518368Y-59084532D01*
X157163133Y-59967467D01*
X158542556Y-61194528D01*
X159643894Y-62756108D01*
X159928139Y-63309333D01*
X160590614Y-65148515D01*
X160897290Y-67062984D01*
X160855829Y-68976118D01*
X160473894Y-70811293D01*
X159759146Y-72491888D01*
X158883532Y-73755831D01*
X158484150Y-74273931D01*
X158257236Y-74762054D01*
X158144751Y-75391298D01*
X158100282Y-76064882D01*
X158015517Y-76993488D01*
X157866397Y-77887444D01*
X157725951Y-78422389D01*
X157614017Y-78933851D01*
X157495780Y-79790149D01*
X157379192Y-80894623D01*
X157272205Y-82150614D01*
X157182771Y-83461459D01*
X157118842Y-84730500D01*
X157088368Y-85861076D01*
X157087015Y-86189190D01*
X157298866Y-86996350D01*
X157770382Y-87684110D01*
X158138437Y-88148615D01*
X158404951Y-88604914D01*
X158586069Y-89134429D01*
X158697934Y-89818581D01*
X158756690Y-90738793D01*
X158778483Y-91976487D01*
X158780566Y-92778911D01*
X158750389Y-94406950D01*
X158639214Y-95742809D01*
X158416078Y-96933057D01*
X158050016Y-98124261D01*
X157510064Y-99462986D01*
X157240729Y-100067607D01*
X156967528Y-100778419D01*
X156811681Y-101515943D01*
X156745689Y-102443660D01*
X156737753Y-103057896D01*
X156735651Y-104943838D01*
X157973362Y-105686743D01*
X160776357Y-107523845D01*
X162439888Y-108794875D01*
X163061746Y-109255639D01*
X163600962Y-109574099D01*
X163900427Y-109674320D01*
X164530878Y-109489987D01*
X165212765Y-108920409D01*
X165967781Y-107946041D01*
X166182727Y-107617726D01*
X166773689Y-106783487D01*
X167503459Y-105893338D01*
X168298491Y-105022191D01*
X169049767Y-104279998D01*
X171157684Y-104279998D01*
X171241112Y-104522880D01*
X171535441Y-104569787D01*
X172106745Y-104418460D01*
X172613445Y-104230207D01*
X173261439Y-104020216D01*
X173646305Y-104022814D01*
X173793777Y-104119772D01*
X173924778Y-104362844D01*
X173776358Y-104597576D01*
X173300200Y-104865984D01*
X172610651Y-105148571D01*
X171921693Y-105478326D01*
X171614640Y-105808376D01*
X171588193Y-105950657D01*
X171602434Y-106196179D01*
X171693130Y-106311453D01*
X171932238Y-106282066D01*
X172391719Y-106093605D01*
X173143531Y-105731657D01*
X173459711Y-105575799D01*
X174538469Y-104962869D01*
X175193528Y-104396073D01*
X175428825Y-103870603D01*
X175252805Y-103387191D01*
X174858663Y-103152042D01*
X174282787Y-103049504D01*
X174260589Y-103049346D01*
X173628847Y-103125163D01*
X172889643Y-103321451D01*
X172160833Y-103591468D01*
X171560272Y-103888470D01*
X171205817Y-104165713D01*
X171157684Y-104279998D01*
X169049767Y-104279998D01*
X169085236Y-104244958D01*
X169790148Y-103636550D01*
X170339678Y-103271879D01*
X170511922Y-103208229D01*
X171007231Y-103070358D01*
X171722504Y-102833237D01*
X172282392Y-102630319D01*
X173623921Y-102241709D01*
X174698318Y-102190652D01*
X175516422Y-102477389D01*
X175795435Y-102708002D01*
X176239130Y-103401440D01*
X176262841Y-104124991D01*
X175874905Y-104864279D01*
X175083658Y-105604932D01*
X173897437Y-106332575D01*
X173609460Y-106477259D01*
X172782784Y-106886565D01*
X172178801Y-107219507D01*
X171675897Y-107563065D01*
X171152453Y-108004218D01*
X170486855Y-108629947D01*
X170163474Y-108941830D01*
X169375370Y-109817760D01*
X168833117Y-110741693D01*
X168561606Y-111422162D01*
X167997802Y-112625256D01*
X167268081Y-113596311D01*
X166432641Y-114290923D01*
X165551677Y-114664685D01*
X164685389Y-114673192D01*
X164322728Y-114549007D01*
X163858316Y-114388749D01*
X163095473Y-114185120D01*
X162159958Y-113970155D01*
X161597396Y-113854781D01*
X160229620Y-113527782D01*
X159000998Y-113122543D01*
X158215959Y-112771145D01*
X157556670Y-112429656D01*
X157054963Y-112189393D01*
X156829303Y-112104998D01*
X156772692Y-112304116D01*
X156750887Y-112818259D01*
X156758843Y-113522606D01*
X156791515Y-114292341D01*
X156843858Y-115002644D01*
X156910829Y-115528696D01*
X156976149Y-115738438D01*
X157228368Y-115843482D01*
X157805685Y-116020699D01*
X158613816Y-116242494D01*
X159283742Y-116413821D01*
X161191430Y-116960879D01*
X162734764Y-117560477D01*
X163892861Y-118202764D01*
X164644836Y-118877893D01*
X164718028Y-118976644D01*
X165008794Y-119476397D01*
X165168223Y-120020656D01*
X165231548Y-120766013D01*
X165238193Y-121288406D01*
X165211483Y-122198690D01*
X165100755Y-122855696D01*
X164860109Y-123446150D01*
X164592430Y-123915494D01*
X163759809Y-124930978D01*
X162750829Y-125556455D01*
X161595592Y-125789547D01*
X160324202Y-125627872D01*
X158966761Y-125069051D01*
X157978861Y-124438393D01*
X157316055Y-123954122D01*
X157454735Y-125815212D01*
X157791575Y-131328247D01*
X157966726Y-136622546D01*
X157977506Y-141610887D01*
X157964020Y-142364129D01*
X157775980Y-146816116D01*
X157400743Y-150890201D01*
X156831471Y-154609586D01*
X156061327Y-157997474D01*
X155083472Y-161077068D01*
X153891069Y-163871570D01*
X152477280Y-166404182D01*
X150835266Y-168698108D01*
X149871545Y-169823487D01*
X149354899Y-170407287D01*
X149102141Y-170762174D01*
X149075608Y-170974502D01*
X149237634Y-171130627D01*
X149287827Y-171161788D01*
X150555317Y-172077934D01*
X151771107Y-173233433D01*
X152864495Y-174536716D01*
X153764779Y-175896211D01*
X154401257Y-177220350D01*
X154660111Y-178119689D01*
X154675990Y-179298582D01*
X154318972Y-180413227D01*
X153646657Y-181401854D01*
X152716649Y-182202693D01*
X151586552Y-182753976D01*
X150313968Y-182993932D01*
X150109669Y-182999278D01*
X149023419Y-182911039D01*
X148126271Y-182594464D01*
X147299055Y-181987385D01*
X146491499Y-181111780D01*
X145486597Y-179907478D01*
X144687467Y-178988765D01*
X144034295Y-178293569D01*
X143467269Y-177759815D01*
X142926577Y-177325428D01*
X142658171Y-177133532D01*
X141603573Y-176404023D01*
X140613256Y-176913732D01*
X138392514Y-177927120D01*
X135828494Y-178870202D01*
X133006198Y-179717576D01*
X130010627Y-180443842D01*
X126926782Y-181023598D01*
X126784224Y-181046321D01*
X125759464Y-181198757D01*
X124794197Y-181317224D01*
X123810299Y-181406002D01*
X122729645Y-181469371D01*
X121474111Y-181511610D01*
X119965573Y-181537000D01*
X118125907Y-181549820D01*
X117559379Y-181551689D01*
X114660781Y-181530612D01*
X112106909Y-181442735D01*
X109815363Y-181276526D01*
X107703744Y-181020453D01*
X105689652Y-180662984D01*
X103690687Y-180192586D01*
X101624450Y-179597727D01*
X100125506Y-179111727D01*
X97221293Y-178134444D01*
X95820421Y-178577927D01*
X94399398Y-179127377D01*
X93061475Y-179872475D01*
X91692197Y-180883625D01*
X90760227Y-181690488D01*
X90015999Y-182332186D01*
X89313060Y-182881489D01*
X88764512Y-183252064D01*
X88607684Y-183333507D01*
X87754329Y-183609129D01*
X86855306Y-183759505D01*
X86111763Y-183753249D01*
X86024634Y-183736532D01*
X84848425Y-183383879D01*
X83920279Y-182887977D01*
X83217986Y-182310048D01*
X82379204Y-181272615D01*
X81948349Y-180146954D01*
X81943836Y-179751363D01*
X83162300Y-179751363D01*
X83400677Y-180515508D01*
X83424859Y-180561312D01*
X83595147Y-180846365D01*
X83736455Y-180896958D01*
X83918857Y-180663010D01*
X84212425Y-180094439D01*
X84285791Y-179945991D01*
X84788097Y-179062667D01*
X85368984Y-178245524D01*
X85954714Y-177580453D01*
X86471546Y-177153346D01*
X86780041Y-177040650D01*
X87195300Y-177176082D01*
X87288092Y-177546641D01*
X87061767Y-178098725D01*
X86682445Y-178602137D01*
X85867047Y-179708767D01*
X85215609Y-180937483D01*
X84964384Y-181614295D01*
X84928216Y-181966720D01*
X85159266Y-182181740D01*
X85528713Y-182312201D01*
X86266972Y-182496811D01*
X86837434Y-182521296D01*
X87471960Y-182389744D01*
X87613749Y-182348963D01*
X88108454Y-182103973D01*
X88789484Y-181639010D01*
X89533434Y-181040909D01*
X89764870Y-180835361D01*
X91099037Y-179704307D01*
X92414692Y-178747122D01*
X93619739Y-178026756D01*
X94365735Y-177690602D01*
X94874740Y-177472085D01*
X95154416Y-177291246D01*
X95172939Y-177254905D01*
X94994453Y-177094136D01*
X94532919Y-176822219D01*
X94058946Y-176581449D01*
X93380976Y-176214804D01*
X92498484Y-175680793D01*
X91557027Y-175069150D01*
X91121248Y-174770366D01*
X90287030Y-174195593D01*
X89714047Y-173839154D01*
X89312242Y-173664035D01*
X88991554Y-173633223D01*
X88661926Y-173709702D01*
X88594761Y-173731983D01*
X87918509Y-174054033D01*
X87057499Y-174591508D01*
X86136140Y-175252431D01*
X85278844Y-175944825D01*
X84610020Y-176576712D01*
X84380314Y-176847740D01*
X83636431Y-177978447D01*
X83235655Y-178925999D01*
X83162300Y-179751363D01*
X81943836Y-179751363D01*
X81934844Y-178963204D01*
X82034792Y-178525798D01*
X82629239Y-177174562D01*
X83593883Y-175836176D01*
X84871295Y-174574533D01*
X86404048Y-173453521D01*
X86818496Y-173203831D01*
X88060748Y-172485500D01*
X87072968Y-171505249D01*
X85527412Y-169785399D01*
X84068221Y-167808826D01*
X82758055Y-165682283D01*
X81659570Y-163512529D01*
X80835425Y-161406318D01*
X80534436Y-160364998D01*
X80373661Y-159684833D01*
X80234856Y-159005733D01*
X80116876Y-158292641D01*
X80018570Y-157510497D01*
X79938793Y-156624243D01*
X79876397Y-155598821D01*
X79830234Y-154399172D01*
X79799156Y-152990238D01*
X79785721Y-151694273D01*
X81017693Y-151694273D01*
X81019273Y-153061385D01*
X81029202Y-154060891D01*
X81041070Y-154511955D01*
X81337541Y-157709162D01*
X81970999Y-160650024D01*
X82958387Y-163373648D01*
X84316650Y-165919140D01*
X86062729Y-168325608D01*
X87887391Y-170313736D01*
X90557700Y-172652546D01*
X93541756Y-174689177D01*
X96839119Y-176423446D01*
X100449350Y-177855171D01*
X104372007Y-178984168D01*
X108606652Y-179810257D01*
X111747515Y-180207308D01*
X112541836Y-180258596D01*
X113673794Y-180293390D01*
X115050842Y-180312320D01*
X116580431Y-180316012D01*
X118170013Y-180305094D01*
X119727042Y-180280195D01*
X121158968Y-180241941D01*
X122373244Y-180190961D01*
X123263617Y-180129190D01*
X127644795Y-179566076D01*
X131696370Y-178734107D01*
X135435089Y-177626788D01*
X138877699Y-176237625D01*
X139848068Y-175723029D01*
X142965484Y-175723029D01*
X143126764Y-175902544D01*
X143529385Y-176185929D01*
X143593671Y-176225520D01*
X144000979Y-176549039D01*
X144598266Y-177117956D01*
X145294812Y-177842739D01*
X145800026Y-178403037D01*
X146776097Y-179518354D01*
X147511498Y-180350304D01*
X148058557Y-180939171D01*
X148469603Y-181325237D01*
X148796964Y-181548784D01*
X149092968Y-181650095D01*
X149409943Y-181669453D01*
X149800217Y-181647140D01*
X149998485Y-181635037D01*
X151246668Y-181568476D01*
X151208012Y-180651469D01*
X150983237Y-179548480D01*
X150426448Y-178346758D01*
X149802812Y-177424765D01*
X149504504Y-176994060D01*
X149473509Y-176723819D01*
X149670995Y-176464508D01*
X150037144Y-176235415D01*
X150461411Y-176360542D01*
X150894802Y-176760659D01*
X151382305Y-177458429D01*
X151851104Y-178329401D01*
X152228382Y-179249127D01*
X152317884Y-179533393D01*
X152519479Y-180097111D01*
X152713898Y-180427834D01*
X152777206Y-180464129D01*
X152957150Y-180275191D01*
X153185439Y-179799329D01*
X153276441Y-179550763D01*
X153451703Y-178919749D01*
X153450678Y-178414726D01*
X153266305Y-177793308D01*
X153221759Y-177673371D01*
X152652966Y-176536818D01*
X151806555Y-175311429D01*
X150785178Y-174115456D01*
X149691491Y-173067146D01*
X148628146Y-172284748D01*
X148459534Y-172187654D01*
X148183482Y-172078628D01*
X147898415Y-172111923D01*
X147512539Y-172330341D01*
X146934063Y-172776682D01*
X146592664Y-173058137D01*
X145760207Y-173719357D01*
X144875052Y-174374104D01*
X144123017Y-174885141D01*
X144095569Y-174902380D01*
X143503773Y-175289493D01*
X143094278Y-175590135D01*
X142965484Y-175723029D01*
X139848068Y-175723029D01*
X142040949Y-174560124D01*
X144941587Y-172587791D01*
X146893246Y-170966737D01*
X149187788Y-168635952D01*
X151134655Y-166082034D01*
X152747243Y-163280834D01*
X154038947Y-160208199D01*
X155023160Y-156839980D01*
X155223012Y-155947607D01*
X155640407Y-153819767D01*
X155988852Y-151689026D01*
X156269278Y-149514702D01*
X156482618Y-147256111D01*
X156629801Y-144872571D01*
X156711760Y-142323397D01*
X156729424Y-139567908D01*
X156683727Y-136565420D01*
X156575597Y-133275249D01*
X156405967Y-129656714D01*
X156175769Y-125669131D01*
X155983816Y-122706737D01*
X155876281Y-121029330D01*
X155768651Y-119213736D01*
X155669390Y-117412378D01*
X155657813Y-117182766D01*
X156974917Y-117182766D01*
X157202555Y-121933694D01*
X158099187Y-122792764D01*
X159211250Y-123682323D01*
X160318355Y-124242184D01*
X161364219Y-124458742D01*
X162292561Y-124318394D01*
X162898515Y-123952728D01*
X163488776Y-123431762D01*
X162533823Y-122741842D01*
X161790487Y-122195137D01*
X161342352Y-121830684D01*
X161126524Y-121585531D01*
X161080112Y-121396726D01*
X161099888Y-121306551D01*
X161385135Y-121032687D01*
X161912790Y-121011853D01*
X162578834Y-121234821D01*
X162990604Y-121474281D01*
X163509659Y-121811826D01*
X163866275Y-122016195D01*
X163942052Y-122044129D01*
X164037928Y-121853539D01*
X164055161Y-121383911D01*
X164003874Y-120788452D01*
X163894185Y-120220371D01*
X163804074Y-119955327D01*
X163368567Y-119440191D01*
X162528481Y-118914207D01*
X161309233Y-118388117D01*
X159736237Y-117872662D01*
X157834910Y-117378584D01*
X157554860Y-117314197D01*
X156974917Y-117182766D01*
X155657813Y-117182766D01*
X155586963Y-115777675D01*
X155538989Y-114696269D01*
X155398439Y-111213627D01*
X153860689Y-110307058D01*
X152247694Y-109341608D01*
X150981663Y-108549081D01*
X150025151Y-107903528D01*
X149340709Y-107378998D01*
X148890892Y-106949541D01*
X148739089Y-106757794D01*
X148378394Y-106062119D01*
X148196891Y-105229590D01*
X148195095Y-104196075D01*
X148373521Y-102897439D01*
X148732684Y-101269549D01*
X148784792Y-101061520D01*
X149249954Y-98947483D01*
X149483565Y-97188817D01*
X149486231Y-95768887D01*
X149258558Y-94671059D01*
X149034807Y-94197581D01*
X148671275Y-93415297D01*
X148316780Y-92346717D01*
X148010172Y-91146222D01*
X147790298Y-89968197D01*
X147696009Y-88967024D01*
X147694973Y-88873227D01*
X147694973Y-88070011D01*
X148991760Y-88070011D01*
X149046095Y-89571033D01*
X149227451Y-90838100D01*
X149577823Y-92070203D01*
X150122677Y-93428779D01*
X150538821Y-94569242D01*
X150765843Y-95723730D01*
X150803495Y-96978401D01*
X150651528Y-98419416D01*
X150309694Y-100132933D01*
X150100855Y-100988408D01*
X149735240Y-102504958D01*
X149510677Y-103672148D01*
X149427368Y-104558045D01*
X149485514Y-105230718D01*
X149685318Y-105758233D01*
X150026980Y-106208659D01*
X150116583Y-106299641D01*
X150518523Y-106618182D01*
X151228015Y-107104583D01*
X152174196Y-107716062D01*
X153286207Y-108409839D01*
X154493185Y-109143134D01*
X155724271Y-109873167D01*
X156908602Y-110557156D01*
X157975317Y-111152322D01*
X158853556Y-111615884D01*
X159211074Y-111790185D01*
X159936440Y-112066239D01*
X160907937Y-112354190D01*
X161945690Y-112602221D01*
X162218199Y-112656434D01*
X163114213Y-112839925D01*
X163870545Y-113021052D01*
X164370311Y-113170728D01*
X164478368Y-113218861D01*
X165057671Y-113408284D01*
X165654568Y-113240010D01*
X166253161Y-112790543D01*
X166825894Y-112082510D01*
X167297665Y-111150883D01*
X167364332Y-110968369D01*
X168140175Y-109271022D01*
X169191275Y-107906455D01*
X170452274Y-106918453D01*
X170472672Y-106687237D01*
X170346395Y-106245336D01*
X170142108Y-105760881D01*
X169928474Y-105402003D01*
X169798545Y-105317732D01*
X169534203Y-105535014D01*
X169065256Y-106046998D01*
X168442120Y-106792494D01*
X167715209Y-107710308D01*
X166934939Y-108739249D01*
X166565820Y-109241496D01*
X165662042Y-110234986D01*
X164711452Y-110800524D01*
X163725004Y-110932224D01*
X163482204Y-110898252D01*
X162971532Y-110691192D01*
X162254979Y-110259697D01*
X161446688Y-109674806D01*
X161203018Y-109479753D01*
X160251397Y-108746101D01*
X159168427Y-107981368D01*
X158165581Y-107333933D01*
X158027176Y-107251427D01*
X156612272Y-106352543D01*
X155590368Y-105519386D01*
X154940548Y-104696238D01*
X154641893Y-103827379D01*
X154673486Y-102857089D01*
X155014409Y-101729650D01*
X155532181Y-100605362D01*
X156521328Y-98449018D01*
X157189389Y-96453348D01*
X157559181Y-94513291D01*
X157653522Y-92523791D01*
X157579939Y-91176712D01*
X157478877Y-90222073D01*
X157347178Y-89560265D01*
X157135472Y-89042799D01*
X156794389Y-88521187D01*
X156620398Y-88290756D01*
X155825400Y-87257172D01*
X155958408Y-84109781D01*
X155997936Y-82988601D01*
X156016286Y-82043628D01*
X156013110Y-81353037D01*
X155988063Y-80995003D01*
X155972335Y-80962389D01*
X155719914Y-81054549D01*
X155253961Y-81281062D01*
X155164368Y-81328100D01*
X154370204Y-81671351D01*
X153404838Y-81980485D01*
X152457407Y-82202634D01*
X151741062Y-82284985D01*
X151345945Y-82360310D01*
X151047273Y-82651280D01*
X150739194Y-83261855D01*
X150733883Y-83274157D01*
X150341103Y-84073008D01*
X149848184Y-84933383D01*
X149647539Y-85246561D01*
X149317063Y-85776719D01*
X149120170Y-86245293D01*
X149023257Y-86796963D01*
X148992720Y-87576409D01*
X148991760Y-88070011D01*
X147694973Y-88070011D01*
X147694973Y-87799074D01*
X146574873Y-88707559D01*
X144635116Y-90024856D01*
X142467327Y-91048104D01*
X140201618Y-91721240D01*
X139173833Y-91896403D01*
X138187122Y-91947230D01*
X136914051Y-91903437D01*
X135485406Y-91779620D01*
X134031972Y-91590371D01*
X132684533Y-91350286D01*
X131573873Y-91073958D01*
X131448046Y-91034295D01*
X130485563Y-90659908D01*
X129520849Y-90186458D01*
X128780823Y-89728629D01*
X127719454Y-88946220D01*
X127488830Y-89886005D01*
X127046360Y-91068455D01*
X126362108Y-91901650D01*
X125391738Y-92426291D01*
X124493831Y-92635413D01*
X123516259Y-92778911D01*
X123566102Y-95687186D01*
X123569526Y-97135618D01*
X123508801Y-98220050D01*
X123362554Y-99016033D01*
X123109413Y-99599122D01*
X122728005Y-100044867D01*
X122230709Y-100407853D01*
X121259713Y-100780440D01*
X120159017Y-100837039D01*
X119094312Y-100583008D01*
X118548942Y-100288782D01*
X117756394Y-99736915D01*
X117120354Y-100219427D01*
X116306749Y-100616903D01*
X115304256Y-100799884D01*
X114286579Y-100759126D01*
X113427422Y-100485389D01*
X113319804Y-100421635D01*
X112763627Y-100022648D01*
X112369113Y-99603395D01*
X112111548Y-99082757D01*
X111966217Y-98379614D01*
X111908675Y-97417361D01*
X113112144Y-97417361D01*
X113163129Y-98010402D01*
X113274231Y-98436868D01*
X113351389Y-98611055D01*
X113647569Y-99097960D01*
X114001987Y-99362140D01*
X114553315Y-99473678D01*
X115106337Y-99497996D01*
X115889485Y-99401970D01*
X116503409Y-99025634D01*
X116559303Y-98973805D01*
X116952504Y-98599893D01*
X118420396Y-98599893D01*
X118987561Y-99057663D01*
X119745326Y-99438935D01*
X120599332Y-99523702D01*
X121393943Y-99316079D01*
X121847289Y-98982017D01*
X122052390Y-98728620D01*
X122189196Y-98441406D01*
X122270231Y-98032235D01*
X122308017Y-97412965D01*
X122315078Y-96495456D01*
X122309430Y-95729191D01*
X122287411Y-94676033D01*
X122246529Y-93789909D01*
X122192511Y-93160754D01*
X122131086Y-92878505D01*
X122127642Y-92874864D01*
X121861163Y-92741430D01*
X121309065Y-92514831D01*
X120594461Y-92240615D01*
X119840464Y-91964328D01*
X119170188Y-91731518D01*
X118706746Y-91587730D01*
X118581837Y-91563065D01*
X118527210Y-91771948D01*
X118480489Y-92348428D01*
X118445073Y-93218389D01*
X118424363Y-94307711D01*
X118420396Y-95082011D01*
X118420396Y-98599893D01*
X116952504Y-98599893D01*
X117128871Y-98432178D01*
X117128871Y-95082011D01*
X117128871Y-91334843D01*
X116536922Y-91478447D01*
X116026553Y-91640588D01*
X115295724Y-91917533D01*
X114629181Y-92195178D01*
X113313390Y-92768304D01*
X113170211Y-95367880D01*
X113116198Y-96566827D01*
X113112144Y-97417361D01*
X111908675Y-97417361D01*
X111908405Y-97412846D01*
X111913396Y-96101333D01*
X111919023Y-95823952D01*
X111982905Y-92889346D01*
X110889652Y-92889346D01*
X109553393Y-92725089D01*
X108498014Y-92227811D01*
X107714161Y-91390748D01*
X107195967Y-90219125D01*
X106962024Y-89417921D01*
X108376479Y-89417921D01*
X108513851Y-90113395D01*
X108805659Y-90794390D01*
X109211662Y-91229721D01*
X109816286Y-91459587D01*
X110703955Y-91524190D01*
X111424634Y-91499382D01*
X112613783Y-91376877D01*
X113591141Y-91130371D01*
X114438193Y-90773493D01*
X115901478Y-90222927D01*
X117340918Y-90035839D01*
X118852227Y-90210418D01*
X120318555Y-90662129D01*
X121822605Y-91123163D01*
X123214317Y-91335488D01*
X124414877Y-91293509D01*
X125301292Y-91015796D01*
X125869849Y-90484866D01*
X126229807Y-89678845D01*
X126331403Y-88733215D01*
X126286337Y-88333946D01*
X125953926Y-87496788D01*
X125321515Y-86654273D01*
X124501082Y-85929239D01*
X123677240Y-85471860D01*
X123077890Y-85257047D01*
X122721947Y-85215696D01*
X122457906Y-85345392D01*
X122337722Y-85450519D01*
X121670636Y-85905783D01*
X120718674Y-86347493D01*
X119625306Y-86717855D01*
X118630715Y-86943779D01*
X117236713Y-87033289D01*
X115773080Y-86886584D01*
X114366947Y-86533604D01*
X113145447Y-86004290D01*
X112385471Y-85472971D01*
X112129826Y-85326185D01*
X111785933Y-85352335D01*
X111230214Y-85570090D01*
X110984752Y-85684576D01*
X109827338Y-86411210D01*
X108985996Y-87312973D01*
X108491963Y-88333874D01*
X108376479Y-89417921D01*
X106962024Y-89417921D01*
X106949687Y-89375671D01*
X106065974Y-90151893D01*
X104574333Y-91245291D01*
X102884669Y-92061520D01*
X100951134Y-92614613D01*
X98727882Y-92918602D01*
X96787345Y-92991758D01*
X95250445Y-92970535D01*
X94025078Y-92881916D01*
X92994394Y-92702302D01*
X92041539Y-92408094D01*
X91049661Y-91975696D01*
X90573176Y-91736825D01*
X90026561Y-91513449D01*
X89636603Y-91459346D01*
X89559558Y-91492989D01*
X89416584Y-91789560D01*
X89218724Y-92384576D01*
X89018510Y-93112189D01*
X88863166Y-93832561D01*
X88774165Y-94557635D01*
X88746037Y-95405857D01*
X88773313Y-96495673D01*
X88819701Y-97417172D01*
X88900882Y-98946461D01*
X88937001Y-100120016D01*
X88909659Y-101022996D01*
X88800456Y-101740558D01*
X88590992Y-102357860D01*
X88262869Y-102960060D01*
X87797685Y-103632316D01*
X87346521Y-104235382D01*
X86770272Y-104906675D01*
X85977364Y-105708637D01*
X85058725Y-106561664D01*
X84105284Y-107386150D01*
X83207969Y-108102492D01*
X82457707Y-108631084D01*
X82090272Y-108837060D01*
X81169471Y-109259785D01*
X81310832Y-111510653D01*
X81354921Y-112274366D01*
X81391470Y-113064550D01*
X81420337Y-113913763D01*
X81441385Y-114854561D01*
X81454473Y-115919501D01*
X81459463Y-117141138D01*
X81456214Y-118552031D01*
X81444587Y-120184735D01*
X81424444Y-122071807D01*
X81395644Y-124245804D01*
X81358047Y-126739283D01*
X81311516Y-129584799D01*
X81255910Y-132814911D01*
X81208028Y-135517172D01*
X81161959Y-138228977D01*
X81121540Y-140880313D01*
X81087157Y-143427303D01*
X81059195Y-145826071D01*
X81038040Y-148032740D01*
X81024078Y-150003433D01*
X81017693Y-151694273D01*
X79785721Y-151694273D01*
X79782016Y-151336960D01*
X79777666Y-149404279D01*
X79784958Y-147157138D01*
X79802746Y-144560477D01*
X79829881Y-141579238D01*
X79851206Y-139492824D01*
X79877559Y-136950094D01*
X79901773Y-134539816D01*
X79923537Y-132297899D01*
X79942538Y-130260250D01*
X79958464Y-128462778D01*
X79971004Y-126941388D01*
X79979844Y-125731991D01*
X79984673Y-124870492D01*
X79985178Y-124392800D01*
X79983218Y-124305190D01*
X79816694Y-124395702D01*
X79420636Y-124690793D01*
X79115781Y-124934877D01*
X77656445Y-125955651D01*
X76270906Y-126575855D01*
X74979049Y-126789884D01*
X73800761Y-126592134D01*
X73570005Y-126497945D01*
X72640689Y-125866264D01*
X71919779Y-124965082D01*
X71424944Y-123885903D01*
X71173847Y-122720234D01*
X71176051Y-122472053D01*
X72358376Y-122472053D01*
X72439471Y-122925213D01*
X72480688Y-122981935D01*
X72712171Y-122940875D01*
X73174188Y-122698734D01*
X73557574Y-122450499D01*
X74355188Y-121997824D01*
X74925828Y-121895772D01*
X75256022Y-122144828D01*
X75324842Y-122386984D01*
X75234038Y-122773440D01*
X74806570Y-123160496D01*
X74545613Y-123321423D01*
X73957183Y-123702736D01*
X73503711Y-124069236D01*
X73413417Y-124165687D01*
X73265345Y-124446184D01*
X73384065Y-124723530D01*
X73720327Y-125051165D01*
X74391328Y-125461192D01*
X75150215Y-125535537D01*
X76082797Y-125276659D01*
X76421748Y-125128588D01*
X77057959Y-124768077D01*
X77856339Y-124226836D01*
X78655237Y-123615225D01*
X78735731Y-123548786D01*
X80105142Y-122408737D01*
X80105142Y-118060060D01*
X79513193Y-118193418D01*
X77448647Y-118693347D01*
X75786655Y-119175752D01*
X74500184Y-119652029D01*
X73562203Y-120133574D01*
X72945680Y-120631781D01*
X72650235Y-121086470D01*
X72433311Y-121806814D01*
X72358376Y-122472053D01*
X71176051Y-122472053D01*
X71184156Y-121559580D01*
X71473537Y-120495444D01*
X72059657Y-119619334D01*
X72214080Y-119474696D01*
X73199436Y-118819804D01*
X74591458Y-118197817D01*
X76366961Y-117617201D01*
X78502761Y-117086422D01*
X79098619Y-116960807D01*
X80352266Y-116705152D01*
X80222507Y-114460292D01*
X80152264Y-113315648D01*
X80074362Y-112156678D01*
X80001562Y-111169689D01*
X79974185Y-110834998D01*
X79855622Y-109454563D01*
X79143532Y-109454563D01*
X78596139Y-109549291D01*
X77828890Y-109798399D01*
X77002245Y-110149273D01*
X76954310Y-110172389D01*
X75477176Y-110890216D01*
X71710227Y-110901784D01*
X70325758Y-110909941D01*
X69282016Y-110931560D01*
X68489232Y-110976966D01*
X67857633Y-111056485D01*
X67297451Y-111180441D01*
X66718914Y-111359160D01*
X66227021Y-111532441D01*
X64985141Y-111910375D01*
X63941037Y-112036219D01*
X62936362Y-111906081D01*
X61812764Y-111516071D01*
X61586718Y-111418435D01*
X60632478Y-110830988D01*
X59605344Y-109917412D01*
X58577663Y-108767422D01*
X57621779Y-107470731D01*
X56810040Y-106117053D01*
X56214791Y-104796100D01*
X56189589Y-104725664D01*
X56021176Y-104122137D01*
X56026661Y-104053566D01*
X57288193Y-104053566D01*
X57400645Y-104402388D01*
X57699519Y-105012649D01*
X58127093Y-105781952D01*
X58625644Y-106607900D01*
X59137452Y-107388096D01*
X59290715Y-107605962D01*
X60401058Y-108954740D01*
X61519884Y-109903608D01*
X62615298Y-110464654D01*
X63340552Y-110682074D01*
X64008345Y-110743362D01*
X64751392Y-110638927D01*
X65702411Y-110359178D01*
X66129728Y-110210686D01*
X66753392Y-110000549D01*
X67323072Y-109847936D01*
X67928027Y-109742745D01*
X68657516Y-109674870D01*
X69600799Y-109634205D01*
X70847136Y-109610647D01*
X71494973Y-109603295D01*
X72862032Y-109586633D01*
X73878933Y-109561511D01*
X74626024Y-109517376D01*
X75183650Y-109443672D01*
X75632157Y-109329845D01*
X76051892Y-109165341D01*
X76514498Y-108943921D01*
X77577621Y-108525179D01*
X78880457Y-108177997D01*
X79695628Y-108027232D01*
X80671539Y-107860253D01*
X81367430Y-107677061D01*
X81931738Y-107418373D01*
X82512901Y-107024904D01*
X82841227Y-106770918D01*
X84066155Y-105728251D01*
X85219621Y-104606357D01*
X86218790Y-103494398D01*
X86980825Y-102481535D01*
X87261316Y-102013335D01*
X87547472Y-101448470D01*
X87707337Y-101002167D01*
X87757730Y-100532169D01*
X87715469Y-99896222D01*
X87610984Y-99055784D01*
X87473746Y-97352830D01*
X87479166Y-95567601D01*
X87618740Y-93850127D01*
X87883965Y-92350435D01*
X88018860Y-91859431D01*
X88443257Y-90498211D01*
X87478403Y-89761170D01*
X86605341Y-88978501D01*
X85652776Y-87938136D01*
X84733168Y-86777771D01*
X83958977Y-85635103D01*
X83625297Y-85043375D01*
X83045409Y-83906912D01*
X81413835Y-83576393D01*
X80584828Y-83397508D01*
X79894758Y-83228800D01*
X79475839Y-83102942D01*
X79444411Y-83089709D01*
X79222208Y-83083603D01*
X79046157Y-83357051D01*
X78869960Y-83986177D01*
X78852461Y-84063078D01*
X78636577Y-85689025D01*
X78636229Y-87663634D01*
X78850121Y-89953948D01*
X79160838Y-91916474D01*
X79409123Y-93361049D01*
X79563900Y-94525906D01*
X79637795Y-95559432D01*
X79643434Y-96610015D01*
X79619465Y-97306737D01*
X79529043Y-98538823D01*
X79356400Y-99673789D01*
X79073289Y-100804003D01*
X78651467Y-102021831D01*
X78062688Y-103419641D01*
X77278708Y-105089799D01*
X77173107Y-105306889D01*
X76673066Y-106316227D01*
X76243594Y-107078081D01*
X75813885Y-107630459D01*
X75313133Y-108011371D01*
X74670531Y-108258826D01*
X73815273Y-108410833D01*
X72676553Y-108505402D01*
X71183563Y-108580541D01*
X71064464Y-108586031D01*
X69414159Y-108680707D01*
X68146430Y-108797223D01*
X67213630Y-108941291D01*
X66568114Y-109118621D01*
X66544125Y-109127838D01*
X65404217Y-109439585D01*
X64234684Y-109531328D01*
X63128824Y-109418631D01*
X62179936Y-109117056D01*
X61481321Y-108642169D01*
X61200450Y-108236436D01*
X61057817Y-107782488D01*
X60879279Y-107025807D01*
X60695186Y-106100140D01*
X60624072Y-105696462D01*
X60395895Y-104550614D01*
X60131781Y-103547592D01*
X59858129Y-102765804D01*
X59601336Y-102283663D01*
X59435419Y-102165868D01*
X59254209Y-102343415D01*
X59044297Y-102729518D01*
X58679254Y-103192829D01*
X58117243Y-103581059D01*
X58041101Y-103615961D01*
X57556604Y-103850781D01*
X57300323Y-104027844D01*
X57288193Y-104053566D01*
X56026661Y-104053566D01*
X56056300Y-103683090D01*
X56222361Y-103319395D01*
X56667710Y-102829678D01*
X57222104Y-102532317D01*
X57805407Y-102208629D01*
X58041630Y-101752316D01*
X58309644Y-101102803D01*
X58708745Y-100606404D01*
X59128079Y-100399255D01*
X59143726Y-100398911D01*
X59465148Y-100535489D01*
X59948274Y-100880214D01*
X60172669Y-101071818D01*
X60662975Y-101622042D01*
X61063776Y-102341082D01*
X61402776Y-103302585D01*
X61707681Y-104580197D01*
X61916592Y-105707476D01*
X62145329Y-106806288D01*
X62389909Y-107542928D01*
X62597835Y-107850449D01*
X63365446Y-108209355D01*
X64357946Y-108275360D01*
X65617748Y-108049193D01*
X66099584Y-107910499D01*
X66991244Y-107671586D01*
X67940063Y-107503475D01*
X69064044Y-107390893D01*
X70481191Y-107318570D01*
X70741583Y-107309761D01*
X72170503Y-107262759D01*
X73243066Y-107198850D01*
X74032775Y-107076863D01*
X74613130Y-106855628D01*
X75057634Y-106493975D01*
X75439789Y-105950734D01*
X75833096Y-105184734D01*
X76288943Y-104202556D01*
X77151993Y-102230720D01*
X77777543Y-100503928D01*
X78179414Y-98911877D01*
X78371428Y-97344267D01*
X78367407Y-95690794D01*
X78181172Y-93841157D01*
X77844973Y-91784998D01*
X77455600Y-89132558D01*
X77324103Y-86801433D01*
X77449746Y-84759785D01*
X77656154Y-83626657D01*
X78005472Y-82141633D01*
X77245535Y-81120090D01*
X76564967Y-79892170D01*
X76138162Y-78446465D01*
X76077542Y-77818221D01*
X77308037Y-77818221D01*
X77361166Y-78116861D01*
X77492360Y-78664611D01*
X77544430Y-78864129D01*
X78092787Y-80126557D01*
X78987760Y-81134917D01*
X79972324Y-81757043D01*
X80712346Y-82054416D01*
X81403493Y-82237937D01*
X81942285Y-82290989D01*
X82225244Y-82196951D01*
X82244411Y-82121955D01*
X82199844Y-81833752D01*
X82096524Y-81244105D01*
X81968521Y-80544053D01*
X81705904Y-79131803D01*
X80636455Y-78850916D01*
X79775179Y-78592926D01*
X78825536Y-78263084D01*
X78436922Y-78112910D01*
X77827805Y-77892252D01*
X77418002Y-77793069D01*
X77308037Y-77818221D01*
X76077542Y-77818221D01*
X76015312Y-77173302D01*
X75846457Y-76464547D01*
X75387801Y-75685236D01*
X75376622Y-75670684D01*
X74293052Y-73927328D01*
X73596387Y-72041981D01*
X73289288Y-70071865D01*
X73314630Y-69477172D01*
X74624481Y-69477172D01*
X74641201Y-70544920D01*
X74709471Y-71326781D01*
X74856455Y-71977899D01*
X75109318Y-72653416D01*
X75228179Y-72925032D01*
X75860382Y-74035755D01*
X76712664Y-75122519D01*
X77663596Y-76047736D01*
X78490735Y-76621804D01*
X79034658Y-76893751D01*
X79325671Y-76946779D01*
X79346109Y-76925566D01*
X80834388Y-76925566D01*
X80846675Y-77372717D01*
X80867306Y-77443044D01*
X81104556Y-77598781D01*
X81429534Y-77655514D01*
X81610591Y-77576138D01*
X81611922Y-77562313D01*
X81631263Y-77334978D01*
X83154158Y-77334978D01*
X83157166Y-78729185D01*
X83218166Y-79923012D01*
X83326480Y-80724102D01*
X83970436Y-82785781D01*
X84989147Y-84775918D01*
X86327023Y-86635047D01*
X87928471Y-88303702D01*
X89737900Y-89722418D01*
X91699718Y-90831727D01*
X93366538Y-91463874D01*
X94133429Y-91602080D01*
X95210105Y-91679335D01*
X96480389Y-91698692D01*
X97828100Y-91663203D01*
X99137060Y-91575919D01*
X100291089Y-91439894D01*
X101171768Y-91258821D01*
X102314167Y-90881184D01*
X103321497Y-90418839D01*
X104279792Y-89812874D01*
X105275085Y-89004378D01*
X106393408Y-87934441D01*
X107114744Y-87189368D01*
X108006697Y-86274061D01*
X108873272Y-85426750D01*
X109636430Y-84720847D01*
X110218129Y-84229766D01*
X110401791Y-84097194D01*
X110990016Y-83652171D01*
X111264070Y-83247612D01*
X111316622Y-82895634D01*
X111503392Y-82243150D01*
X112007055Y-81519519D01*
X112743754Y-80814980D01*
X113629633Y-80219774D01*
X113955670Y-80055699D01*
X114562630Y-79809056D01*
X115166080Y-79653936D01*
X115894108Y-79570767D01*
X116874804Y-79539976D01*
X117344125Y-79537937D01*
X118454856Y-79553801D01*
X119264020Y-79614479D01*
X119899859Y-79739605D01*
X120490613Y-79948810D01*
X120735946Y-80057184D01*
X121754165Y-80666867D01*
X122587062Y-81440088D01*
X123142755Y-82280096D01*
X123301660Y-82758870D01*
X123500566Y-83247836D01*
X123946253Y-83656320D01*
X124422836Y-83933072D01*
X125005387Y-84327359D01*
X125780582Y-84981790D01*
X126662324Y-85819861D01*
X127362300Y-86544980D01*
X128603502Y-87789849D01*
X129788296Y-88756419D01*
X130997698Y-89476646D01*
X132312720Y-89982489D01*
X133814378Y-90305904D01*
X135583686Y-90478848D01*
X137470396Y-90532249D01*
X138674009Y-90531351D01*
X139560668Y-90500777D01*
X140243684Y-90425829D01*
X140836365Y-90291808D01*
X141452018Y-90084012D01*
X141719849Y-89980966D01*
X144012501Y-88871141D01*
X145983096Y-87468611D01*
X147629103Y-85776714D01*
X148947991Y-83798786D01*
X149937228Y-81538164D01*
X150134089Y-80777156D01*
X151612569Y-80777156D01*
X151744330Y-80929319D01*
X152108883Y-80923912D01*
X152767639Y-80762928D01*
X153537977Y-80526574D01*
X154817871Y-79985026D01*
X155746009Y-79254986D01*
X156379175Y-78268950D01*
X156774150Y-76959413D01*
X156837480Y-76604072D01*
X156987476Y-75669233D01*
X155838762Y-76190501D01*
X154919800Y-76549616D01*
X153897590Y-76866649D01*
X153452966Y-76975286D01*
X152822254Y-77118540D01*
X152427317Y-77285264D01*
X152195308Y-77574811D01*
X152053382Y-78086536D01*
X151928690Y-78919791D01*
X151906101Y-79084998D01*
X151793047Y-79791908D01*
X151671246Y-80390188D01*
X151652186Y-80465433D01*
X151612569Y-80777156D01*
X150134089Y-80777156D01*
X150594283Y-78998185D01*
X150738901Y-78091085D01*
X150853085Y-75712763D01*
X150571068Y-73259784D01*
X149908064Y-70787586D01*
X148879287Y-68351606D01*
X147499951Y-66007282D01*
X147371359Y-65820241D01*
X146086185Y-64200584D01*
X144612805Y-62787470D01*
X142921025Y-61568233D01*
X140980651Y-60530211D01*
X138761488Y-59660736D01*
X138224243Y-59509094D01*
X142696376Y-59509094D01*
X142728739Y-59726476D01*
X142844573Y-59852469D01*
X142871391Y-59869346D01*
X143201936Y-60094311D01*
X143777685Y-60512029D01*
X144499552Y-61050046D01*
X144876192Y-61335335D01*
X146805208Y-63069976D01*
X148497197Y-65129684D01*
X149916224Y-67448938D01*
X151026357Y-69962221D01*
X151791661Y-72604012D01*
X152105420Y-74516611D01*
X152213361Y-75289788D01*
X152336603Y-75694827D01*
X152502503Y-75805154D01*
X152578591Y-75786611D01*
X152983993Y-75672965D01*
X153096477Y-75661520D01*
X153205073Y-75463876D01*
X153201337Y-74923556D01*
X153101461Y-74119480D01*
X152921637Y-73130568D01*
X152678054Y-72035739D01*
X152386905Y-70913913D01*
X152064380Y-69844010D01*
X151726670Y-68904948D01*
X151693599Y-68823497D01*
X150443618Y-66308397D01*
X148879380Y-64091401D01*
X146986676Y-62153838D01*
X146014365Y-61360783D01*
X145171088Y-60672730D01*
X144804831Y-60296351D01*
X147049210Y-60296351D01*
X147190789Y-60453654D01*
X147576922Y-60864153D01*
X148149706Y-61466696D01*
X148851234Y-62200128D01*
X148898141Y-62249031D01*
X149698208Y-63070091D01*
X150277605Y-63620323D01*
X150708623Y-63952586D01*
X151063549Y-64119737D01*
X151414673Y-64174637D01*
X151535005Y-64177128D01*
X152552986Y-64376244D01*
X153410169Y-64915044D01*
X154066214Y-65709120D01*
X154480783Y-66674059D01*
X154613534Y-67725453D01*
X154424128Y-68778891D01*
X154070882Y-69483405D01*
X153737200Y-70103739D01*
X153696083Y-70586599D01*
X153740878Y-70742327D01*
X153868278Y-71210729D01*
X154021701Y-71949742D01*
X154156619Y-72730153D01*
X154330539Y-73816879D01*
X154459736Y-74537711D01*
X154561175Y-74963935D01*
X154651822Y-75166839D01*
X154748643Y-75217708D01*
X154748650Y-75217708D01*
X155005923Y-75114430D01*
X155513601Y-74848509D01*
X156033224Y-74552302D01*
X157401828Y-73503555D01*
X158455989Y-72167654D01*
X159179592Y-70575926D01*
X159556519Y-68759698D01*
X159609811Y-67599781D01*
X159436961Y-65747545D01*
X158936550Y-64138616D01*
X158083001Y-62701465D01*
X157682524Y-62210283D01*
X156363005Y-61024048D01*
X154802790Y-60202838D01*
X153001258Y-59746510D01*
X150957786Y-59654923D01*
X148671754Y-59927934D01*
X148179295Y-60027586D01*
X147553247Y-60166686D01*
X147142869Y-60266083D01*
X147049210Y-60296351D01*
X144804831Y-60296351D01*
X144661500Y-60149059D01*
X144507635Y-59812530D01*
X144508777Y-59805393D01*
X144696824Y-59548032D01*
X145184436Y-59294485D01*
X146004817Y-59033997D01*
X147191172Y-58755809D01*
X148590868Y-58482948D01*
X150670662Y-58102389D01*
X150312902Y-57050403D01*
X149879970Y-56048678D01*
X149275545Y-55176576D01*
X148423267Y-54346490D01*
X147246773Y-53470814D01*
X147115536Y-53382184D01*
X145441696Y-52259406D01*
X145186205Y-52759751D01*
X145020665Y-53135310D01*
X144734341Y-53837570D01*
X144361252Y-54781040D01*
X143935416Y-55880228D01*
X143716092Y-56454286D01*
X143257340Y-57672917D01*
X142944953Y-58545883D01*
X142763206Y-59136752D01*
X142696376Y-59509094D01*
X138224243Y-59509094D01*
X136233344Y-58947146D01*
X133366025Y-58376774D01*
X130129337Y-57936957D01*
X128106837Y-57739760D01*
X126786463Y-57650263D01*
X125162827Y-57577801D01*
X123306868Y-57522410D01*
X121289526Y-57484124D01*
X119181739Y-57462980D01*
X117054446Y-57459012D01*
X114978587Y-57472255D01*
X113025101Y-57502745D01*
X111264927Y-57550517D01*
X109769004Y-57615606D01*
X108608271Y-57698047D01*
X108303447Y-57729934D01*
X104369473Y-58268801D01*
X100838429Y-58917846D01*
X97695207Y-59681698D01*
X94924697Y-60564988D01*
X92511792Y-61572345D01*
X90441384Y-62708399D01*
X89177618Y-63590554D01*
X87713185Y-64945523D01*
X86347499Y-66631170D01*
X85151172Y-68537377D01*
X84194815Y-70554027D01*
X83632490Y-72238042D01*
X83448309Y-73191923D01*
X83304207Y-74442162D01*
X83204664Y-75864575D01*
X83154158Y-77334978D01*
X81631263Y-77334978D01*
X81632536Y-77320023D01*
X81688195Y-76734677D01*
X81769619Y-75902614D01*
X81838527Y-75209464D01*
X82174648Y-73035610D01*
X82727002Y-70879722D01*
X83451788Y-68888844D01*
X84135931Y-67496854D01*
X84706553Y-66622372D01*
X85485849Y-65600571D01*
X86382030Y-64536276D01*
X87303307Y-63534309D01*
X88157890Y-62699496D01*
X88792878Y-62178594D01*
X89504325Y-61678385D01*
X89221297Y-60442561D01*
X89069761Y-59688823D01*
X88890212Y-58656936D01*
X88709565Y-57506882D01*
X88606920Y-56790842D01*
X88468794Y-55814176D01*
X88347962Y-55015683D01*
X88258723Y-54486429D01*
X88218391Y-54316274D01*
X88010486Y-54384209D01*
X87557562Y-54650606D01*
X86957753Y-55047176D01*
X86309192Y-55505631D01*
X85710013Y-55957682D01*
X85258351Y-56335041D01*
X85120796Y-56471794D01*
X84828202Y-56894918D01*
X84463256Y-57548344D01*
X84090602Y-58298175D01*
X83774884Y-59010516D01*
X83580743Y-59551470D01*
X83549210Y-59727031D01*
X83743817Y-59850764D01*
X84254962Y-60008046D01*
X84973635Y-60165577D01*
X85002176Y-60170864D01*
X86455181Y-60480203D01*
X87533462Y-60802031D01*
X88219343Y-61129605D01*
X88495148Y-61456184D01*
X88500057Y-61505053D01*
X88341500Y-61816251D01*
X87920219Y-62301819D01*
X87317799Y-62870953D01*
X87126099Y-63034311D01*
X85241929Y-64881086D01*
X83656145Y-67014807D01*
X82407238Y-69371911D01*
X81533699Y-71888832D01*
X81381796Y-72520448D01*
X81228699Y-73331313D01*
X81086141Y-74285080D01*
X80965390Y-75273925D01*
X80877716Y-76190028D01*
X80834388Y-76925566D01*
X79346109Y-76925566D01*
X79483796Y-76782664D01*
X79543977Y-76637369D01*
X79633123Y-76184679D01*
X79674306Y-75552965D01*
X79674634Y-75495895D01*
X79712794Y-74838154D01*
X79811273Y-73970180D01*
X79907811Y-73329859D01*
X80023506Y-72512937D01*
X80022414Y-71956259D01*
X79892981Y-71491731D01*
X79762334Y-71213506D01*
X79458885Y-70285993D01*
X79387332Y-69265188D01*
X79545097Y-68321714D01*
X79814471Y-67764562D01*
X80398872Y-67121897D01*
X81103481Y-66580415D01*
X81787448Y-66236341D01*
X82157133Y-66164129D01*
X82643204Y-65977263D01*
X83000943Y-65596822D01*
X83304482Y-65193017D01*
X83822481Y-64574006D01*
X84468889Y-63840892D01*
X84858992Y-63413763D01*
X86354778Y-61798012D01*
X85357132Y-61644503D01*
X83608532Y-61482320D01*
X81883938Y-61518604D01*
X80294432Y-61741980D01*
X78951095Y-62141070D01*
X78510710Y-62345691D01*
X77507762Y-63050643D01*
X76522559Y-64043619D01*
X75680131Y-65184841D01*
X75240150Y-66001941D01*
X74938526Y-66732484D01*
X74754152Y-67375547D01*
X74659362Y-68087287D01*
X74626491Y-69023862D01*
X74624481Y-69477172D01*
X73314630Y-69477172D01*
X73374416Y-68074202D01*
X73854433Y-66106214D01*
X74732000Y-64225124D01*
X74836356Y-64052674D01*
X75960781Y-62637031D01*
X77382876Y-61526638D01*
X79070564Y-60742750D01*
X80332007Y-60411160D01*
X81079407Y-60265574D01*
X81663921Y-60147931D01*
X81941474Y-60087747D01*
X82123505Y-59861993D01*
X82360370Y-59339328D01*
X82532293Y-58845710D01*
X83096853Y-57341497D01*
X83793416Y-56146423D01*
X84716113Y-55129599D01*
X85845016Y-54239470D01*
X86142171Y-54022099D01*
X89604103Y-54022099D01*
X89658253Y-54902352D01*
X89752048Y-55821358D01*
X89891769Y-56908824D01*
X90058759Y-58045386D01*
X90234359Y-59111677D01*
X90399913Y-59988334D01*
X90536764Y-60555991D01*
X90546810Y-60587172D01*
X90638524Y-60782656D01*
X90802387Y-60832343D01*
X91134522Y-60718071D01*
X91731049Y-60421677D01*
X91907702Y-60330024D01*
X93644447Y-59552992D01*
X95754503Y-58822222D01*
X98181999Y-58149306D01*
X100871065Y-57545836D01*
X103765831Y-57023406D01*
X106810426Y-56593606D01*
X109948982Y-56268031D01*
X112285651Y-56101789D01*
X114868701Y-55954556D01*
X114735028Y-49518907D01*
X114695500Y-47829723D01*
X114650027Y-46244488D01*
X114601131Y-44828454D01*
X114551336Y-43646870D01*
X114503165Y-42764989D01*
X114459140Y-42248060D01*
X114452016Y-42199781D01*
X114296197Y-41277319D01*
X114169942Y-40709842D01*
X114014195Y-40420057D01*
X113769901Y-40330670D01*
X113378003Y-40364388D01*
X113082149Y-40406855D01*
X112571215Y-40503956D01*
X111723268Y-40695921D01*
X110617201Y-40963534D01*
X109331904Y-41287580D01*
X107946270Y-41648842D01*
X107550057Y-41754315D01*
X105938776Y-42193119D01*
X104653394Y-42566358D01*
X103600347Y-42907893D01*
X102686073Y-43251587D01*
X101817009Y-43631301D01*
X100899591Y-44080895D01*
X100381993Y-44348504D01*
X99048802Y-45062422D01*
X98020149Y-45666589D01*
X97207829Y-46232179D01*
X96523640Y-46830370D01*
X95879377Y-47532334D01*
X95186835Y-48409249D01*
X94938919Y-48740727D01*
X94269800Y-49608209D01*
X93710749Y-50218980D01*
X93134750Y-50685050D01*
X92414788Y-51118426D01*
X91985229Y-51345422D01*
X90958065Y-51894601D01*
X90264314Y-52348287D01*
X89846032Y-52795053D01*
X89645276Y-53323467D01*
X89604103Y-54022099D01*
X86142171Y-54022099D01*
X86732665Y-53590149D01*
X87614444Y-52900716D01*
X88336886Y-52292388D01*
X88506842Y-52137016D01*
X89168852Y-51596853D01*
X90055521Y-50983605D01*
X91000978Y-50410088D01*
X91231919Y-50283558D01*
X92238852Y-49701592D01*
X92940333Y-49175972D01*
X93439771Y-48624735D01*
X93576675Y-48425098D01*
X94508110Y-47133111D01*
X95552103Y-46015674D01*
X96794881Y-44998206D01*
X98322673Y-44006122D01*
X99368046Y-43415837D01*
X100392574Y-42871244D01*
X101281194Y-42432467D01*
X102130463Y-42062842D01*
X103036936Y-41725706D01*
X104097171Y-41384394D01*
X105407725Y-41002242D01*
X106594298Y-40671920D01*
X108524023Y-40145500D01*
X108875917Y-40053653D01*
X115378578Y-40053653D01*
X115500406Y-40795412D01*
X115700435Y-42202198D01*
X115851227Y-43720117D01*
X115957012Y-45424604D01*
X116022021Y-47391091D01*
X116050484Y-49695010D01*
X116052600Y-50642247D01*
X116052600Y-56004129D01*
X118581837Y-56005264D01*
X121696541Y-56050098D01*
X124761394Y-56177707D01*
X127726142Y-56381957D01*
X130540532Y-56656718D01*
X133154308Y-56995858D01*
X135517219Y-57393243D01*
X137579008Y-57842742D01*
X139289424Y-58338223D01*
X140056223Y-58625638D01*
X140674601Y-58876907D01*
X141113930Y-59044313D01*
X141242524Y-59084258D01*
X141352961Y-58892865D01*
X141592141Y-58353315D01*
X141933590Y-57529481D01*
X142350834Y-56485233D01*
X142816414Y-55287013D01*
X144277500Y-51477723D01*
X141627338Y-48809639D01*
X140842688Y-48021517D01*
X140173771Y-47369312D01*
X139567660Y-46823343D01*
X138971431Y-46353930D01*
X138332156Y-45931391D01*
X137596910Y-45526045D01*
X136712767Y-45108211D01*
X135626801Y-44648207D01*
X134286087Y-44116353D01*
X132637698Y-43482968D01*
X131054885Y-42880544D01*
X129235918Y-42193966D01*
X127733986Y-41647961D01*
X126464484Y-41224057D01*
X125342810Y-40903783D01*
X124284359Y-40668669D01*
X123204529Y-40500245D01*
X122018715Y-40380039D01*
X120642315Y-40289581D01*
X118990725Y-40210401D01*
X118782962Y-40201341D01*
X115378578Y-40053653D01*
X108875917Y-40053653D01*
X110121613Y-39728518D01*
X111469236Y-39410363D01*
X112649064Y-39180423D01*
X113743265Y-39028087D01*
X114834010Y-38942745D01*
X116003468Y-38913783D01*
X117333809Y-38930593D01*
G04 #@! TA.AperFunction,EtchedComponent*
G36*
X117333809Y-38930593D02*
G01*
X118907204Y-38982561D01*
X119496668Y-39005734D01*
X121040881Y-39079429D01*
X122483890Y-39170393D01*
X123747784Y-39272176D01*
X124754655Y-39378325D01*
X125426593Y-39482387D01*
X125523786Y-39504887D01*
X126028098Y-39661242D01*
X126863774Y-39950309D01*
X127963206Y-40346347D01*
X129258787Y-40823612D01*
X130682909Y-41356363D01*
X132167966Y-41918859D01*
X133646349Y-42485356D01*
X135050452Y-43030114D01*
X136312667Y-43527391D01*
X137365387Y-43951443D01*
X138141004Y-44276530D01*
X138546668Y-44463430D01*
X139165557Y-44831535D01*
X139863041Y-45342250D01*
X140689266Y-46038406D01*
X141694380Y-46962833D01*
X142928529Y-48158364D01*
X143282261Y-48508128D01*
X144291190Y-49466362D01*
X145380608Y-50430378D01*
X146431942Y-51299358D01*
X147326617Y-51972485D01*
X147479718Y-52077005D01*
X148795300Y-53008184D01*
X149786123Y-53853565D01*
X150525283Y-54696108D01*
X151085877Y-55618773D01*
X151530035Y-56673930D01*
X152113063Y-58294620D01*
X153621006Y-58555328D01*
X155518368Y-59084532D01*
X157163133Y-59967467D01*
X158542556Y-61194528D01*
X159643894Y-62756108D01*
X159928139Y-63309333D01*
X160590614Y-65148515D01*
X160897290Y-67062984D01*
X160855829Y-68976118D01*
X160473894Y-70811293D01*
X159759146Y-72491888D01*
X158883532Y-73755831D01*
X158484150Y-74273931D01*
X158257236Y-74762054D01*
X158144751Y-75391298D01*
X158100282Y-76064882D01*
X158015517Y-76993488D01*
X157866397Y-77887444D01*
X157725951Y-78422389D01*
X157614017Y-78933851D01*
X157495780Y-79790149D01*
X157379192Y-80894623D01*
X157272205Y-82150614D01*
X157182771Y-83461459D01*
X157118842Y-84730500D01*
X157088368Y-85861076D01*
X157087015Y-86189190D01*
X157298866Y-86996350D01*
X157770382Y-87684110D01*
X158138437Y-88148615D01*
X158404951Y-88604914D01*
X158586069Y-89134429D01*
X158697934Y-89818581D01*
X158756690Y-90738793D01*
X158778483Y-91976487D01*
X158780566Y-92778911D01*
X158750389Y-94406950D01*
X158639214Y-95742809D01*
X158416078Y-96933057D01*
X158050016Y-98124261D01*
X157510064Y-99462986D01*
X157240729Y-100067607D01*
X156967528Y-100778419D01*
X156811681Y-101515943D01*
X156745689Y-102443660D01*
X156737753Y-103057896D01*
X156735651Y-104943838D01*
X157973362Y-105686743D01*
X160776357Y-107523845D01*
X162439888Y-108794875D01*
X163061746Y-109255639D01*
X163600962Y-109574099D01*
X163900427Y-109674320D01*
X164530878Y-109489987D01*
X165212765Y-108920409D01*
X165967781Y-107946041D01*
X166182727Y-107617726D01*
X166773689Y-106783487D01*
X167503459Y-105893338D01*
X168298491Y-105022191D01*
X169049767Y-104279998D01*
X171157684Y-104279998D01*
X171241112Y-104522880D01*
X171535441Y-104569787D01*
X172106745Y-104418460D01*
X172613445Y-104230207D01*
X173261439Y-104020216D01*
X173646305Y-104022814D01*
X173793777Y-104119772D01*
X173924778Y-104362844D01*
X173776358Y-104597576D01*
X173300200Y-104865984D01*
X172610651Y-105148571D01*
X171921693Y-105478326D01*
X171614640Y-105808376D01*
X171588193Y-105950657D01*
X171602434Y-106196179D01*
X171693130Y-106311453D01*
X171932238Y-106282066D01*
X172391719Y-106093605D01*
X173143531Y-105731657D01*
X173459711Y-105575799D01*
X174538469Y-104962869D01*
X175193528Y-104396073D01*
X175428825Y-103870603D01*
X175252805Y-103387191D01*
X174858663Y-103152042D01*
X174282787Y-103049504D01*
X174260589Y-103049346D01*
X173628847Y-103125163D01*
X172889643Y-103321451D01*
X172160833Y-103591468D01*
X171560272Y-103888470D01*
X171205817Y-104165713D01*
X171157684Y-104279998D01*
X169049767Y-104279998D01*
X169085236Y-104244958D01*
X169790148Y-103636550D01*
X170339678Y-103271879D01*
X170511922Y-103208229D01*
X171007231Y-103070358D01*
X171722504Y-102833237D01*
X172282392Y-102630319D01*
X173623921Y-102241709D01*
X174698318Y-102190652D01*
X175516422Y-102477389D01*
X175795435Y-102708002D01*
X176239130Y-103401440D01*
X176262841Y-104124991D01*
X175874905Y-104864279D01*
X175083658Y-105604932D01*
X173897437Y-106332575D01*
X173609460Y-106477259D01*
X172782784Y-106886565D01*
X172178801Y-107219507D01*
X171675897Y-107563065D01*
X171152453Y-108004218D01*
X170486855Y-108629947D01*
X170163474Y-108941830D01*
X169375370Y-109817760D01*
X168833117Y-110741693D01*
X168561606Y-111422162D01*
X167997802Y-112625256D01*
X167268081Y-113596311D01*
X166432641Y-114290923D01*
X165551677Y-114664685D01*
X164685389Y-114673192D01*
X164322728Y-114549007D01*
X163858316Y-114388749D01*
X163095473Y-114185120D01*
X162159958Y-113970155D01*
X161597396Y-113854781D01*
X160229620Y-113527782D01*
X159000998Y-113122543D01*
X158215959Y-112771145D01*
X157556670Y-112429656D01*
X157054963Y-112189393D01*
X156829303Y-112104998D01*
X156772692Y-112304116D01*
X156750887Y-112818259D01*
X156758843Y-113522606D01*
X156791515Y-114292341D01*
X156843858Y-115002644D01*
X156910829Y-115528696D01*
X156976149Y-115738438D01*
X157228368Y-115843482D01*
X157805685Y-116020699D01*
X158613816Y-116242494D01*
X159283742Y-116413821D01*
X161191430Y-116960879D01*
X162734764Y-117560477D01*
X163892861Y-118202764D01*
X164644836Y-118877893D01*
X164718028Y-118976644D01*
X165008794Y-119476397D01*
X165168223Y-120020656D01*
X165231548Y-120766013D01*
X165238193Y-121288406D01*
X165211483Y-122198690D01*
X165100755Y-122855696D01*
X164860109Y-123446150D01*
X164592430Y-123915494D01*
X163759809Y-124930978D01*
X162750829Y-125556455D01*
X161595592Y-125789547D01*
X160324202Y-125627872D01*
X158966761Y-125069051D01*
X157978861Y-124438393D01*
X157316055Y-123954122D01*
X157454735Y-125815212D01*
X157791575Y-131328247D01*
X157966726Y-136622546D01*
X157977506Y-141610887D01*
X157964020Y-142364129D01*
X157775980Y-146816116D01*
X157400743Y-150890201D01*
X156831471Y-154609586D01*
X156061327Y-157997474D01*
X155083472Y-161077068D01*
X153891069Y-163871570D01*
X152477280Y-166404182D01*
X150835266Y-168698108D01*
X149871545Y-169823487D01*
X149354899Y-170407287D01*
X149102141Y-170762174D01*
X149075608Y-170974502D01*
X149237634Y-171130627D01*
X149287827Y-171161788D01*
X150555317Y-172077934D01*
X151771107Y-173233433D01*
X152864495Y-174536716D01*
X153764779Y-175896211D01*
X154401257Y-177220350D01*
X154660111Y-178119689D01*
X154675990Y-179298582D01*
X154318972Y-180413227D01*
X153646657Y-181401854D01*
X152716649Y-182202693D01*
X151586552Y-182753976D01*
X150313968Y-182993932D01*
X150109669Y-182999278D01*
X149023419Y-182911039D01*
X148126271Y-182594464D01*
X147299055Y-181987385D01*
X146491499Y-181111780D01*
X145486597Y-179907478D01*
X144687467Y-178988765D01*
X144034295Y-178293569D01*
X143467269Y-177759815D01*
X142926577Y-177325428D01*
X142658171Y-177133532D01*
X141603573Y-176404023D01*
X140613256Y-176913732D01*
X138392514Y-177927120D01*
X135828494Y-178870202D01*
X133006198Y-179717576D01*
X130010627Y-180443842D01*
X126926782Y-181023598D01*
X126784224Y-181046321D01*
X125759464Y-181198757D01*
X124794197Y-181317224D01*
X123810299Y-181406002D01*
X122729645Y-181469371D01*
X121474111Y-181511610D01*
X119965573Y-181537000D01*
X118125907Y-181549820D01*
X117559379Y-181551689D01*
X114660781Y-181530612D01*
X112106909Y-181442735D01*
X109815363Y-181276526D01*
X107703744Y-181020453D01*
X105689652Y-180662984D01*
X103690687Y-180192586D01*
X101624450Y-179597727D01*
X100125506Y-179111727D01*
X97221293Y-178134444D01*
X95820421Y-178577927D01*
X94399398Y-179127377D01*
X93061475Y-179872475D01*
X91692197Y-180883625D01*
X90760227Y-181690488D01*
X90015999Y-182332186D01*
X89313060Y-182881489D01*
X88764512Y-183252064D01*
X88607684Y-183333507D01*
X87754329Y-183609129D01*
X86855306Y-183759505D01*
X86111763Y-183753249D01*
X86024634Y-183736532D01*
X84848425Y-183383879D01*
X83920279Y-182887977D01*
X83217986Y-182310048D01*
X82379204Y-181272615D01*
X81948349Y-180146954D01*
X81943836Y-179751363D01*
X83162300Y-179751363D01*
X83400677Y-180515508D01*
X83424859Y-180561312D01*
X83595147Y-180846365D01*
X83736455Y-180896958D01*
X83918857Y-180663010D01*
X84212425Y-180094439D01*
X84285791Y-179945991D01*
X84788097Y-179062667D01*
X85368984Y-178245524D01*
X85954714Y-177580453D01*
X86471546Y-177153346D01*
X86780041Y-177040650D01*
X87195300Y-177176082D01*
X87288092Y-177546641D01*
X87061767Y-178098725D01*
X86682445Y-178602137D01*
X85867047Y-179708767D01*
X85215609Y-180937483D01*
X84964384Y-181614295D01*
X84928216Y-181966720D01*
X85159266Y-182181740D01*
X85528713Y-182312201D01*
X86266972Y-182496811D01*
X86837434Y-182521296D01*
X87471960Y-182389744D01*
X87613749Y-182348963D01*
X88108454Y-182103973D01*
X88789484Y-181639010D01*
X89533434Y-181040909D01*
X89764870Y-180835361D01*
X91099037Y-179704307D01*
X92414692Y-178747122D01*
X93619739Y-178026756D01*
X94365735Y-177690602D01*
X94874740Y-177472085D01*
X95154416Y-177291246D01*
X95172939Y-177254905D01*
X94994453Y-177094136D01*
X94532919Y-176822219D01*
X94058946Y-176581449D01*
X93380976Y-176214804D01*
X92498484Y-175680793D01*
X91557027Y-175069150D01*
X91121248Y-174770366D01*
X90287030Y-174195593D01*
X89714047Y-173839154D01*
X89312242Y-173664035D01*
X88991554Y-173633223D01*
X88661926Y-173709702D01*
X88594761Y-173731983D01*
X87918509Y-174054033D01*
X87057499Y-174591508D01*
X86136140Y-175252431D01*
X85278844Y-175944825D01*
X84610020Y-176576712D01*
X84380314Y-176847740D01*
X83636431Y-177978447D01*
X83235655Y-178925999D01*
X83162300Y-179751363D01*
X81943836Y-179751363D01*
X81934844Y-178963204D01*
X82034792Y-178525798D01*
X82629239Y-177174562D01*
X83593883Y-175836176D01*
X84871295Y-174574533D01*
X86404048Y-173453521D01*
X86818496Y-173203831D01*
X88060748Y-172485500D01*
X87072968Y-171505249D01*
X85527412Y-169785399D01*
X84068221Y-167808826D01*
X82758055Y-165682283D01*
X81659570Y-163512529D01*
X80835425Y-161406318D01*
X80534436Y-160364998D01*
X80373661Y-159684833D01*
X80234856Y-159005733D01*
X80116876Y-158292641D01*
X80018570Y-157510497D01*
X79938793Y-156624243D01*
X79876397Y-155598821D01*
X79830234Y-154399172D01*
X79799156Y-152990238D01*
X79785721Y-151694273D01*
X81017693Y-151694273D01*
X81019273Y-153061385D01*
X81029202Y-154060891D01*
X81041070Y-154511955D01*
X81337541Y-157709162D01*
X81970999Y-160650024D01*
X82958387Y-163373648D01*
X84316650Y-165919140D01*
X86062729Y-168325608D01*
X87887391Y-170313736D01*
X90557700Y-172652546D01*
X93541756Y-174689177D01*
X96839119Y-176423446D01*
X100449350Y-177855171D01*
X104372007Y-178984168D01*
X108606652Y-179810257D01*
X111747515Y-180207308D01*
X112541836Y-180258596D01*
X113673794Y-180293390D01*
X115050842Y-180312320D01*
X116580431Y-180316012D01*
X118170013Y-180305094D01*
X119727042Y-180280195D01*
X121158968Y-180241941D01*
X122373244Y-180190961D01*
X123263617Y-180129190D01*
X127644795Y-179566076D01*
X131696370Y-178734107D01*
X135435089Y-177626788D01*
X138877699Y-176237625D01*
X139848068Y-175723029D01*
X142965484Y-175723029D01*
X143126764Y-175902544D01*
X143529385Y-176185929D01*
X143593671Y-176225520D01*
X144000979Y-176549039D01*
X144598266Y-177117956D01*
X145294812Y-177842739D01*
X145800026Y-178403037D01*
X146776097Y-179518354D01*
X147511498Y-180350304D01*
X148058557Y-180939171D01*
X148469603Y-181325237D01*
X148796964Y-181548784D01*
X149092968Y-181650095D01*
X149409943Y-181669453D01*
X149800217Y-181647140D01*
X149998485Y-181635037D01*
X151246668Y-181568476D01*
X151208012Y-180651469D01*
X150983237Y-179548480D01*
X150426448Y-178346758D01*
X149802812Y-177424765D01*
X149504504Y-176994060D01*
X149473509Y-176723819D01*
X149670995Y-176464508D01*
X150037144Y-176235415D01*
X150461411Y-176360542D01*
X150894802Y-176760659D01*
X151382305Y-177458429D01*
X151851104Y-178329401D01*
X152228382Y-179249127D01*
X152317884Y-179533393D01*
X152519479Y-180097111D01*
X152713898Y-180427834D01*
X152777206Y-180464129D01*
X152957150Y-180275191D01*
X153185439Y-179799329D01*
X153276441Y-179550763D01*
X153451703Y-178919749D01*
X153450678Y-178414726D01*
X153266305Y-177793308D01*
X153221759Y-177673371D01*
X152652966Y-176536818D01*
X151806555Y-175311429D01*
X150785178Y-174115456D01*
X149691491Y-173067146D01*
X148628146Y-172284748D01*
X148459534Y-172187654D01*
X148183482Y-172078628D01*
X147898415Y-172111923D01*
X147512539Y-172330341D01*
X146934063Y-172776682D01*
X146592664Y-173058137D01*
X145760207Y-173719357D01*
X144875052Y-174374104D01*
X144123017Y-174885141D01*
X144095569Y-174902380D01*
X143503773Y-175289493D01*
X143094278Y-175590135D01*
X142965484Y-175723029D01*
X139848068Y-175723029D01*
X142040949Y-174560124D01*
X144941587Y-172587791D01*
X146893246Y-170966737D01*
X149187788Y-168635952D01*
X151134655Y-166082034D01*
X152747243Y-163280834D01*
X154038947Y-160208199D01*
X155023160Y-156839980D01*
X155223012Y-155947607D01*
X155640407Y-153819767D01*
X155988852Y-151689026D01*
X156269278Y-149514702D01*
X156482618Y-147256111D01*
X156629801Y-144872571D01*
X156711760Y-142323397D01*
X156729424Y-139567908D01*
X156683727Y-136565420D01*
X156575597Y-133275249D01*
X156405967Y-129656714D01*
X156175769Y-125669131D01*
X155983816Y-122706737D01*
X155876281Y-121029330D01*
X155768651Y-119213736D01*
X155669390Y-117412378D01*
X155657813Y-117182766D01*
X156974917Y-117182766D01*
X157202555Y-121933694D01*
X158099187Y-122792764D01*
X159211250Y-123682323D01*
X160318355Y-124242184D01*
X161364219Y-124458742D01*
X162292561Y-124318394D01*
X162898515Y-123952728D01*
X163488776Y-123431762D01*
X162533823Y-122741842D01*
X161790487Y-122195137D01*
X161342352Y-121830684D01*
X161126524Y-121585531D01*
X161080112Y-121396726D01*
X161099888Y-121306551D01*
X161385135Y-121032687D01*
X161912790Y-121011853D01*
X162578834Y-121234821D01*
X162990604Y-121474281D01*
X163509659Y-121811826D01*
X163866275Y-122016195D01*
X163942052Y-122044129D01*
X164037928Y-121853539D01*
X164055161Y-121383911D01*
X164003874Y-120788452D01*
X163894185Y-120220371D01*
X163804074Y-119955327D01*
X163368567Y-119440191D01*
X162528481Y-118914207D01*
X161309233Y-118388117D01*
X159736237Y-117872662D01*
X157834910Y-117378584D01*
X157554860Y-117314197D01*
X156974917Y-117182766D01*
X155657813Y-117182766D01*
X155586963Y-115777675D01*
X155538989Y-114696269D01*
X155398439Y-111213627D01*
X153860689Y-110307058D01*
X152247694Y-109341608D01*
X150981663Y-108549081D01*
X150025151Y-107903528D01*
X149340709Y-107378998D01*
X148890892Y-106949541D01*
X148739089Y-106757794D01*
X148378394Y-106062119D01*
X148196891Y-105229590D01*
X148195095Y-104196075D01*
X148373521Y-102897439D01*
X148732684Y-101269549D01*
X148784792Y-101061520D01*
X149249954Y-98947483D01*
X149483565Y-97188817D01*
X149486231Y-95768887D01*
X149258558Y-94671059D01*
X149034807Y-94197581D01*
X148671275Y-93415297D01*
X148316780Y-92346717D01*
X148010172Y-91146222D01*
X147790298Y-89968197D01*
X147696009Y-88967024D01*
X147694973Y-88873227D01*
X147694973Y-88070011D01*
X148991760Y-88070011D01*
X149046095Y-89571033D01*
X149227451Y-90838100D01*
X149577823Y-92070203D01*
X150122677Y-93428779D01*
X150538821Y-94569242D01*
X150765843Y-95723730D01*
X150803495Y-96978401D01*
X150651528Y-98419416D01*
X150309694Y-100132933D01*
X150100855Y-100988408D01*
X149735240Y-102504958D01*
X149510677Y-103672148D01*
X149427368Y-104558045D01*
X149485514Y-105230718D01*
X149685318Y-105758233D01*
X150026980Y-106208659D01*
X150116583Y-106299641D01*
X150518523Y-106618182D01*
X151228015Y-107104583D01*
X152174196Y-107716062D01*
X153286207Y-108409839D01*
X154493185Y-109143134D01*
X155724271Y-109873167D01*
X156908602Y-110557156D01*
X157975317Y-111152322D01*
X158853556Y-111615884D01*
X159211074Y-111790185D01*
X159936440Y-112066239D01*
X160907937Y-112354190D01*
X161945690Y-112602221D01*
X162218199Y-112656434D01*
X163114213Y-112839925D01*
X163870545Y-113021052D01*
X164370311Y-113170728D01*
X164478368Y-113218861D01*
X165057671Y-113408284D01*
X165654568Y-113240010D01*
X166253161Y-112790543D01*
X166825894Y-112082510D01*
X167297665Y-111150883D01*
X167364332Y-110968369D01*
X168140175Y-109271022D01*
X169191275Y-107906455D01*
X170452274Y-106918453D01*
X170472672Y-106687237D01*
X170346395Y-106245336D01*
X170142108Y-105760881D01*
X169928474Y-105402003D01*
X169798545Y-105317732D01*
X169534203Y-105535014D01*
X169065256Y-106046998D01*
X168442120Y-106792494D01*
X167715209Y-107710308D01*
X166934939Y-108739249D01*
X166565820Y-109241496D01*
X165662042Y-110234986D01*
X164711452Y-110800524D01*
X163725004Y-110932224D01*
X163482204Y-110898252D01*
X162971532Y-110691192D01*
X162254979Y-110259697D01*
X161446688Y-109674806D01*
X161203018Y-109479753D01*
X160251397Y-108746101D01*
X159168427Y-107981368D01*
X158165581Y-107333933D01*
X158027176Y-107251427D01*
X156612272Y-106352543D01*
X155590368Y-105519386D01*
X154940548Y-104696238D01*
X154641893Y-103827379D01*
X154673486Y-102857089D01*
X155014409Y-101729650D01*
X155532181Y-100605362D01*
X156521328Y-98449018D01*
X157189389Y-96453348D01*
X157559181Y-94513291D01*
X157653522Y-92523791D01*
X157579939Y-91176712D01*
X157478877Y-90222073D01*
X157347178Y-89560265D01*
X157135472Y-89042799D01*
X156794389Y-88521187D01*
X156620398Y-88290756D01*
X155825400Y-87257172D01*
X155958408Y-84109781D01*
X155997936Y-82988601D01*
X156016286Y-82043628D01*
X156013110Y-81353037D01*
X155988063Y-80995003D01*
X155972335Y-80962389D01*
X155719914Y-81054549D01*
X155253961Y-81281062D01*
X155164368Y-81328100D01*
X154370204Y-81671351D01*
X153404838Y-81980485D01*
X152457407Y-82202634D01*
X151741062Y-82284985D01*
X151345945Y-82360310D01*
X151047273Y-82651280D01*
X150739194Y-83261855D01*
X150733883Y-83274157D01*
X150341103Y-84073008D01*
X149848184Y-84933383D01*
X149647539Y-85246561D01*
X149317063Y-85776719D01*
X149120170Y-86245293D01*
X149023257Y-86796963D01*
X148992720Y-87576409D01*
X148991760Y-88070011D01*
X147694973Y-88070011D01*
X147694973Y-87799074D01*
X146574873Y-88707559D01*
X144635116Y-90024856D01*
X142467327Y-91048104D01*
X140201618Y-91721240D01*
X139173833Y-91896403D01*
X138187122Y-91947230D01*
X136914051Y-91903437D01*
X135485406Y-91779620D01*
X134031972Y-91590371D01*
X132684533Y-91350286D01*
X131573873Y-91073958D01*
X131448046Y-91034295D01*
X130485563Y-90659908D01*
X129520849Y-90186458D01*
X128780823Y-89728629D01*
X127719454Y-88946220D01*
X127488830Y-89886005D01*
X127046360Y-91068455D01*
X126362108Y-91901650D01*
X125391738Y-92426291D01*
X124493831Y-92635413D01*
X123516259Y-92778911D01*
X123566102Y-95687186D01*
X123569526Y-97135618D01*
X123508801Y-98220050D01*
X123362554Y-99016033D01*
X123109413Y-99599122D01*
X122728005Y-100044867D01*
X122230709Y-100407853D01*
X121259713Y-100780440D01*
X120159017Y-100837039D01*
X119094312Y-100583008D01*
X118548942Y-100288782D01*
X117756394Y-99736915D01*
X117120354Y-100219427D01*
X116306749Y-100616903D01*
X115304256Y-100799884D01*
X114286579Y-100759126D01*
X113427422Y-100485389D01*
X113319804Y-100421635D01*
X112763627Y-100022648D01*
X112369113Y-99603395D01*
X112111548Y-99082757D01*
X111966217Y-98379614D01*
X111908675Y-97417361D01*
X113112144Y-97417361D01*
X113163129Y-98010402D01*
X113274231Y-98436868D01*
X113351389Y-98611055D01*
X113647569Y-99097960D01*
X114001987Y-99362140D01*
X114553315Y-99473678D01*
X115106337Y-99497996D01*
X115889485Y-99401970D01*
X116503409Y-99025634D01*
X116559303Y-98973805D01*
X116952504Y-98599893D01*
X118420396Y-98599893D01*
X118987561Y-99057663D01*
X119745326Y-99438935D01*
X120599332Y-99523702D01*
X121393943Y-99316079D01*
X121847289Y-98982017D01*
X122052390Y-98728620D01*
X122189196Y-98441406D01*
X122270231Y-98032235D01*
X122308017Y-97412965D01*
X122315078Y-96495456D01*
X122309430Y-95729191D01*
X122287411Y-94676033D01*
X122246529Y-93789909D01*
X122192511Y-93160754D01*
X122131086Y-92878505D01*
X122127642Y-92874864D01*
X121861163Y-92741430D01*
X121309065Y-92514831D01*
X120594461Y-92240615D01*
X119840464Y-91964328D01*
X119170188Y-91731518D01*
X118706746Y-91587730D01*
X118581837Y-91563065D01*
X118527210Y-91771948D01*
X118480489Y-92348428D01*
X118445073Y-93218389D01*
X118424363Y-94307711D01*
X118420396Y-95082011D01*
X118420396Y-98599893D01*
X116952504Y-98599893D01*
X117128871Y-98432178D01*
X117128871Y-95082011D01*
X117128871Y-91334843D01*
X116536922Y-91478447D01*
X116026553Y-91640588D01*
X115295724Y-91917533D01*
X114629181Y-92195178D01*
X113313390Y-92768304D01*
X113170211Y-95367880D01*
X113116198Y-96566827D01*
X113112144Y-97417361D01*
X111908675Y-97417361D01*
X111908405Y-97412846D01*
X111913396Y-96101333D01*
X111919023Y-95823952D01*
X111982905Y-92889346D01*
X110889652Y-92889346D01*
X109553393Y-92725089D01*
X108498014Y-92227811D01*
X107714161Y-91390748D01*
X107195967Y-90219125D01*
X106962024Y-89417921D01*
X108376479Y-89417921D01*
X108513851Y-90113395D01*
X108805659Y-90794390D01*
X109211662Y-91229721D01*
X109816286Y-91459587D01*
X110703955Y-91524190D01*
X111424634Y-91499382D01*
X112613783Y-91376877D01*
X113591141Y-91130371D01*
X114438193Y-90773493D01*
X115901478Y-90222927D01*
X117340918Y-90035839D01*
X118852227Y-90210418D01*
X120318555Y-90662129D01*
X121822605Y-91123163D01*
X123214317Y-91335488D01*
X124414877Y-91293509D01*
X125301292Y-91015796D01*
X125869849Y-90484866D01*
X126229807Y-89678845D01*
X126331403Y-88733215D01*
X126286337Y-88333946D01*
X125953926Y-87496788D01*
X125321515Y-86654273D01*
X124501082Y-85929239D01*
X123677240Y-85471860D01*
X123077890Y-85257047D01*
X122721947Y-85215696D01*
X122457906Y-85345392D01*
X122337722Y-85450519D01*
X121670636Y-85905783D01*
X120718674Y-86347493D01*
X119625306Y-86717855D01*
X118630715Y-86943779D01*
X117236713Y-87033289D01*
X115773080Y-86886584D01*
X114366947Y-86533604D01*
X113145447Y-86004290D01*
X112385471Y-85472971D01*
X112129826Y-85326185D01*
X111785933Y-85352335D01*
X111230214Y-85570090D01*
X110984752Y-85684576D01*
X109827338Y-86411210D01*
X108985996Y-87312973D01*
X108491963Y-88333874D01*
X108376479Y-89417921D01*
X106962024Y-89417921D01*
X106949687Y-89375671D01*
X106065974Y-90151893D01*
X104574333Y-91245291D01*
X102884669Y-92061520D01*
X100951134Y-92614613D01*
X98727882Y-92918602D01*
X96787345Y-92991758D01*
X95250445Y-92970535D01*
X94025078Y-92881916D01*
X92994394Y-92702302D01*
X92041539Y-92408094D01*
X91049661Y-91975696D01*
X90573176Y-91736825D01*
X90026561Y-91513449D01*
X89636603Y-91459346D01*
X89559558Y-91492989D01*
X89416584Y-91789560D01*
X89218724Y-92384576D01*
X89018510Y-93112189D01*
X88863166Y-93832561D01*
X88774165Y-94557635D01*
X88746037Y-95405857D01*
X88773313Y-96495673D01*
X88819701Y-97417172D01*
X88900882Y-98946461D01*
X88937001Y-100120016D01*
X88909659Y-101022996D01*
X88800456Y-101740558D01*
X88590992Y-102357860D01*
X88262869Y-102960060D01*
X87797685Y-103632316D01*
X87346521Y-104235382D01*
X86770272Y-104906675D01*
X85977364Y-105708637D01*
X85058725Y-106561664D01*
X84105284Y-107386150D01*
X83207969Y-108102492D01*
X82457707Y-108631084D01*
X82090272Y-108837060D01*
X81169471Y-109259785D01*
X81310832Y-111510653D01*
X81354921Y-112274366D01*
X81391470Y-113064550D01*
X81420337Y-113913763D01*
X81441385Y-114854561D01*
X81454473Y-115919501D01*
X81459463Y-117141138D01*
X81456214Y-118552031D01*
X81444587Y-120184735D01*
X81424444Y-122071807D01*
X81395644Y-124245804D01*
X81358047Y-126739283D01*
X81311516Y-129584799D01*
X81255910Y-132814911D01*
X81208028Y-135517172D01*
X81161959Y-138228977D01*
X81121540Y-140880313D01*
X81087157Y-143427303D01*
X81059195Y-145826071D01*
X81038040Y-148032740D01*
X81024078Y-150003433D01*
X81017693Y-151694273D01*
X79785721Y-151694273D01*
X79782016Y-151336960D01*
X79777666Y-149404279D01*
X79784958Y-147157138D01*
X79802746Y-144560477D01*
X79829881Y-141579238D01*
X79851206Y-139492824D01*
X79877559Y-136950094D01*
X79901773Y-134539816D01*
X79923537Y-132297899D01*
X79942538Y-130260250D01*
X79958464Y-128462778D01*
X79971004Y-126941388D01*
X79979844Y-125731991D01*
X79984673Y-124870492D01*
X79985178Y-124392800D01*
X79983218Y-124305190D01*
X79816694Y-124395702D01*
X79420636Y-124690793D01*
X79115781Y-124934877D01*
X77656445Y-125955651D01*
X76270906Y-126575855D01*
X74979049Y-126789884D01*
X73800761Y-126592134D01*
X73570005Y-126497945D01*
X72640689Y-125866264D01*
X71919779Y-124965082D01*
X71424944Y-123885903D01*
X71173847Y-122720234D01*
X71176051Y-122472053D01*
X72358376Y-122472053D01*
X72439471Y-122925213D01*
X72480688Y-122981935D01*
X72712171Y-122940875D01*
X73174188Y-122698734D01*
X73557574Y-122450499D01*
X74355188Y-121997824D01*
X74925828Y-121895772D01*
X75256022Y-122144828D01*
X75324842Y-122386984D01*
X75234038Y-122773440D01*
X74806570Y-123160496D01*
X74545613Y-123321423D01*
X73957183Y-123702736D01*
X73503711Y-124069236D01*
X73413417Y-124165687D01*
X73265345Y-124446184D01*
X73384065Y-124723530D01*
X73720327Y-125051165D01*
X74391328Y-125461192D01*
X75150215Y-125535537D01*
X76082797Y-125276659D01*
X76421748Y-125128588D01*
X77057959Y-124768077D01*
X77856339Y-124226836D01*
X78655237Y-123615225D01*
X78735731Y-123548786D01*
X80105142Y-122408737D01*
X80105142Y-118060060D01*
X79513193Y-118193418D01*
X77448647Y-118693347D01*
X75786655Y-119175752D01*
X74500184Y-119652029D01*
X73562203Y-120133574D01*
X72945680Y-120631781D01*
X72650235Y-121086470D01*
X72433311Y-121806814D01*
X72358376Y-122472053D01*
X71176051Y-122472053D01*
X71184156Y-121559580D01*
X71473537Y-120495444D01*
X72059657Y-119619334D01*
X72214080Y-119474696D01*
X73199436Y-118819804D01*
X74591458Y-118197817D01*
X76366961Y-117617201D01*
X78502761Y-117086422D01*
X79098619Y-116960807D01*
X80352266Y-116705152D01*
X80222507Y-114460292D01*
X80152264Y-113315648D01*
X80074362Y-112156678D01*
X80001562Y-111169689D01*
X79974185Y-110834998D01*
X79855622Y-109454563D01*
X79143532Y-109454563D01*
X78596139Y-109549291D01*
X77828890Y-109798399D01*
X77002245Y-110149273D01*
X76954310Y-110172389D01*
X75477176Y-110890216D01*
X71710227Y-110901784D01*
X70325758Y-110909941D01*
X69282016Y-110931560D01*
X68489232Y-110976966D01*
X67857633Y-111056485D01*
X67297451Y-111180441D01*
X66718914Y-111359160D01*
X66227021Y-111532441D01*
X64985141Y-111910375D01*
X63941037Y-112036219D01*
X62936362Y-111906081D01*
X61812764Y-111516071D01*
X61586718Y-111418435D01*
X60632478Y-110830988D01*
X59605344Y-109917412D01*
X58577663Y-108767422D01*
X57621779Y-107470731D01*
X56810040Y-106117053D01*
X56214791Y-104796100D01*
X56189589Y-104725664D01*
X56021176Y-104122137D01*
X56026661Y-104053566D01*
X57288193Y-104053566D01*
X57400645Y-104402388D01*
X57699519Y-105012649D01*
X58127093Y-105781952D01*
X58625644Y-106607900D01*
X59137452Y-107388096D01*
X59290715Y-107605962D01*
X60401058Y-108954740D01*
X61519884Y-109903608D01*
X62615298Y-110464654D01*
X63340552Y-110682074D01*
X64008345Y-110743362D01*
X64751392Y-110638927D01*
X65702411Y-110359178D01*
X66129728Y-110210686D01*
X66753392Y-110000549D01*
X67323072Y-109847936D01*
X67928027Y-109742745D01*
X68657516Y-109674870D01*
X69600799Y-109634205D01*
X70847136Y-109610647D01*
X71494973Y-109603295D01*
X72862032Y-109586633D01*
X73878933Y-109561511D01*
X74626024Y-109517376D01*
X75183650Y-109443672D01*
X75632157Y-109329845D01*
X76051892Y-109165341D01*
X76514498Y-108943921D01*
X77577621Y-108525179D01*
X78880457Y-108177997D01*
X79695628Y-108027232D01*
X80671539Y-107860253D01*
X81367430Y-107677061D01*
X81931738Y-107418373D01*
X82512901Y-107024904D01*
X82841227Y-106770918D01*
X84066155Y-105728251D01*
X85219621Y-104606357D01*
X86218790Y-103494398D01*
X86980825Y-102481535D01*
X87261316Y-102013335D01*
X87547472Y-101448470D01*
X87707337Y-101002167D01*
X87757730Y-100532169D01*
X87715469Y-99896222D01*
X87610984Y-99055784D01*
X87473746Y-97352830D01*
X87479166Y-95567601D01*
X87618740Y-93850127D01*
X87883965Y-92350435D01*
X88018860Y-91859431D01*
X88443257Y-90498211D01*
X87478403Y-89761170D01*
X86605341Y-88978501D01*
X85652776Y-87938136D01*
X84733168Y-86777771D01*
X83958977Y-85635103D01*
X83625297Y-85043375D01*
X83045409Y-83906912D01*
X81413835Y-83576393D01*
X80584828Y-83397508D01*
X79894758Y-83228800D01*
X79475839Y-83102942D01*
X79444411Y-83089709D01*
X79222208Y-83083603D01*
X79046157Y-83357051D01*
X78869960Y-83986177D01*
X78852461Y-84063078D01*
X78636577Y-85689025D01*
X78636229Y-87663634D01*
X78850121Y-89953948D01*
X79160838Y-91916474D01*
X79409123Y-93361049D01*
X79563900Y-94525906D01*
X79637795Y-95559432D01*
X79643434Y-96610015D01*
X79619465Y-97306737D01*
X79529043Y-98538823D01*
X79356400Y-99673789D01*
X79073289Y-100804003D01*
X78651467Y-102021831D01*
X78062688Y-103419641D01*
X77278708Y-105089799D01*
X77173107Y-105306889D01*
X76673066Y-106316227D01*
X76243594Y-107078081D01*
X75813885Y-107630459D01*
X75313133Y-108011371D01*
X74670531Y-108258826D01*
X73815273Y-108410833D01*
X72676553Y-108505402D01*
X71183563Y-108580541D01*
X71064464Y-108586031D01*
X69414159Y-108680707D01*
X68146430Y-108797223D01*
X67213630Y-108941291D01*
X66568114Y-109118621D01*
X66544125Y-109127838D01*
X65404217Y-109439585D01*
X64234684Y-109531328D01*
X63128824Y-109418631D01*
X62179936Y-109117056D01*
X61481321Y-108642169D01*
X61200450Y-108236436D01*
X61057817Y-107782488D01*
X60879279Y-107025807D01*
X60695186Y-106100140D01*
X60624072Y-105696462D01*
X60395895Y-104550614D01*
X60131781Y-103547592D01*
X59858129Y-102765804D01*
X59601336Y-102283663D01*
X59435419Y-102165868D01*
X59254209Y-102343415D01*
X59044297Y-102729518D01*
X58679254Y-103192829D01*
X58117243Y-103581059D01*
X58041101Y-103615961D01*
X57556604Y-103850781D01*
X57300323Y-104027844D01*
X57288193Y-104053566D01*
X56026661Y-104053566D01*
X56056300Y-103683090D01*
X56222361Y-103319395D01*
X56667710Y-102829678D01*
X57222104Y-102532317D01*
X57805407Y-102208629D01*
X58041630Y-101752316D01*
X58309644Y-101102803D01*
X58708745Y-100606404D01*
X59128079Y-100399255D01*
X59143726Y-100398911D01*
X59465148Y-100535489D01*
X59948274Y-100880214D01*
X60172669Y-101071818D01*
X60662975Y-101622042D01*
X61063776Y-102341082D01*
X61402776Y-103302585D01*
X61707681Y-104580197D01*
X61916592Y-105707476D01*
X62145329Y-106806288D01*
X62389909Y-107542928D01*
X62597835Y-107850449D01*
X63365446Y-108209355D01*
X64357946Y-108275360D01*
X65617748Y-108049193D01*
X66099584Y-107910499D01*
X66991244Y-107671586D01*
X67940063Y-107503475D01*
X69064044Y-107390893D01*
X70481191Y-107318570D01*
X70741583Y-107309761D01*
X72170503Y-107262759D01*
X73243066Y-107198850D01*
X74032775Y-107076863D01*
X74613130Y-106855628D01*
X75057634Y-106493975D01*
X75439789Y-105950734D01*
X75833096Y-105184734D01*
X76288943Y-104202556D01*
X77151993Y-102230720D01*
X77777543Y-100503928D01*
X78179414Y-98911877D01*
X78371428Y-97344267D01*
X78367407Y-95690794D01*
X78181172Y-93841157D01*
X77844973Y-91784998D01*
X77455600Y-89132558D01*
X77324103Y-86801433D01*
X77449746Y-84759785D01*
X77656154Y-83626657D01*
X78005472Y-82141633D01*
X77245535Y-81120090D01*
X76564967Y-79892170D01*
X76138162Y-78446465D01*
X76077542Y-77818221D01*
X77308037Y-77818221D01*
X77361166Y-78116861D01*
X77492360Y-78664611D01*
X77544430Y-78864129D01*
X78092787Y-80126557D01*
X78987760Y-81134917D01*
X79972324Y-81757043D01*
X80712346Y-82054416D01*
X81403493Y-82237937D01*
X81942285Y-82290989D01*
X82225244Y-82196951D01*
X82244411Y-82121955D01*
X82199844Y-81833752D01*
X82096524Y-81244105D01*
X81968521Y-80544053D01*
X81705904Y-79131803D01*
X80636455Y-78850916D01*
X79775179Y-78592926D01*
X78825536Y-78263084D01*
X78436922Y-78112910D01*
X77827805Y-77892252D01*
X77418002Y-77793069D01*
X77308037Y-77818221D01*
X76077542Y-77818221D01*
X76015312Y-77173302D01*
X75846457Y-76464547D01*
X75387801Y-75685236D01*
X75376622Y-75670684D01*
X74293052Y-73927328D01*
X73596387Y-72041981D01*
X73289288Y-70071865D01*
X73314630Y-69477172D01*
X74624481Y-69477172D01*
X74641201Y-70544920D01*
X74709471Y-71326781D01*
X74856455Y-71977899D01*
X75109318Y-72653416D01*
X75228179Y-72925032D01*
X75860382Y-74035755D01*
X76712664Y-75122519D01*
X77663596Y-76047736D01*
X78490735Y-76621804D01*
X79034658Y-76893751D01*
X79325671Y-76946779D01*
X79346109Y-76925566D01*
X80834388Y-76925566D01*
X80846675Y-77372717D01*
X80867306Y-77443044D01*
X81104556Y-77598781D01*
X81429534Y-77655514D01*
X81610591Y-77576138D01*
X81611922Y-77562313D01*
X81631263Y-77334978D01*
X83154158Y-77334978D01*
X83157166Y-78729185D01*
X83218166Y-79923012D01*
X83326480Y-80724102D01*
X83970436Y-82785781D01*
X84989147Y-84775918D01*
X86327023Y-86635047D01*
X87928471Y-88303702D01*
X89737900Y-89722418D01*
X91699718Y-90831727D01*
X93366538Y-91463874D01*
X94133429Y-91602080D01*
X95210105Y-91679335D01*
X96480389Y-91698692D01*
X97828100Y-91663203D01*
X99137060Y-91575919D01*
X100291089Y-91439894D01*
X101171768Y-91258821D01*
X102314167Y-90881184D01*
X103321497Y-90418839D01*
X104279792Y-89812874D01*
X105275085Y-89004378D01*
X106393408Y-87934441D01*
X107114744Y-87189368D01*
X108006697Y-86274061D01*
X108873272Y-85426750D01*
X109636430Y-84720847D01*
X110218129Y-84229766D01*
X110401791Y-84097194D01*
X110990016Y-83652171D01*
X111264070Y-83247612D01*
X111316622Y-82895634D01*
X111503392Y-82243150D01*
X112007055Y-81519519D01*
X112743754Y-80814980D01*
X113629633Y-80219774D01*
X113955670Y-80055699D01*
X114562630Y-79809056D01*
X115166080Y-79653936D01*
X115894108Y-79570767D01*
X116874804Y-79539976D01*
X117344125Y-79537937D01*
X118454856Y-79553801D01*
X119264020Y-79614479D01*
X119899859Y-79739605D01*
X120490613Y-79948810D01*
X120735946Y-80057184D01*
X121754165Y-80666867D01*
X122587062Y-81440088D01*
X123142755Y-82280096D01*
X123301660Y-82758870D01*
X123500566Y-83247836D01*
X123946253Y-83656320D01*
X124422836Y-83933072D01*
X125005387Y-84327359D01*
X125780582Y-84981790D01*
X126662324Y-85819861D01*
X127362300Y-86544980D01*
X128603502Y-87789849D01*
X129788296Y-88756419D01*
X130997698Y-89476646D01*
X132312720Y-89982489D01*
X133814378Y-90305904D01*
X135583686Y-90478848D01*
X137470396Y-90532249D01*
X138674009Y-90531351D01*
X139560668Y-90500777D01*
X140243684Y-90425829D01*
X140836365Y-90291808D01*
X141452018Y-90084012D01*
X141719849Y-89980966D01*
X144012501Y-88871141D01*
X145983096Y-87468611D01*
X147629103Y-85776714D01*
X148947991Y-83798786D01*
X149937228Y-81538164D01*
X150134089Y-80777156D01*
X151612569Y-80777156D01*
X151744330Y-80929319D01*
X152108883Y-80923912D01*
X152767639Y-80762928D01*
X153537977Y-80526574D01*
X154817871Y-79985026D01*
X155746009Y-79254986D01*
X156379175Y-78268950D01*
X156774150Y-76959413D01*
X156837480Y-76604072D01*
X156987476Y-75669233D01*
X155838762Y-76190501D01*
X154919800Y-76549616D01*
X153897590Y-76866649D01*
X153452966Y-76975286D01*
X152822254Y-77118540D01*
X152427317Y-77285264D01*
X152195308Y-77574811D01*
X152053382Y-78086536D01*
X151928690Y-78919791D01*
X151906101Y-79084998D01*
X151793047Y-79791908D01*
X151671246Y-80390188D01*
X151652186Y-80465433D01*
X151612569Y-80777156D01*
X150134089Y-80777156D01*
X150594283Y-78998185D01*
X150738901Y-78091085D01*
X150853085Y-75712763D01*
X150571068Y-73259784D01*
X149908064Y-70787586D01*
X148879287Y-68351606D01*
X147499951Y-66007282D01*
X147371359Y-65820241D01*
X146086185Y-64200584D01*
X144612805Y-62787470D01*
X142921025Y-61568233D01*
X140980651Y-60530211D01*
X138761488Y-59660736D01*
X138224243Y-59509094D01*
X142696376Y-59509094D01*
X142728739Y-59726476D01*
X142844573Y-59852469D01*
X142871391Y-59869346D01*
X143201936Y-60094311D01*
X143777685Y-60512029D01*
X144499552Y-61050046D01*
X144876192Y-61335335D01*
X146805208Y-63069976D01*
X148497197Y-65129684D01*
X149916224Y-67448938D01*
X151026357Y-69962221D01*
X151791661Y-72604012D01*
X152105420Y-74516611D01*
X152213361Y-75289788D01*
X152336603Y-75694827D01*
X152502503Y-75805154D01*
X152578591Y-75786611D01*
X152983993Y-75672965D01*
X153096477Y-75661520D01*
X153205073Y-75463876D01*
X153201337Y-74923556D01*
X153101461Y-74119480D01*
X152921637Y-73130568D01*
X152678054Y-72035739D01*
X152386905Y-70913913D01*
X152064380Y-69844010D01*
X151726670Y-68904948D01*
X151693599Y-68823497D01*
X150443618Y-66308397D01*
X148879380Y-64091401D01*
X146986676Y-62153838D01*
X146014365Y-61360783D01*
X145171088Y-60672730D01*
X144804831Y-60296351D01*
X147049210Y-60296351D01*
X147190789Y-60453654D01*
X147576922Y-60864153D01*
X148149706Y-61466696D01*
X148851234Y-62200128D01*
X148898141Y-62249031D01*
X149698208Y-63070091D01*
X150277605Y-63620323D01*
X150708623Y-63952586D01*
X151063549Y-64119737D01*
X151414673Y-64174637D01*
X151535005Y-64177128D01*
X152552986Y-64376244D01*
X153410169Y-64915044D01*
X154066214Y-65709120D01*
X154480783Y-66674059D01*
X154613534Y-67725453D01*
X154424128Y-68778891D01*
X154070882Y-69483405D01*
X153737200Y-70103739D01*
X153696083Y-70586599D01*
X153740878Y-70742327D01*
X153868278Y-71210729D01*
X154021701Y-71949742D01*
X154156619Y-72730153D01*
X154330539Y-73816879D01*
X154459736Y-74537711D01*
X154561175Y-74963935D01*
X154651822Y-75166839D01*
X154748643Y-75217708D01*
X154748650Y-75217708D01*
X155005923Y-75114430D01*
X155513601Y-74848509D01*
X156033224Y-74552302D01*
X157401828Y-73503555D01*
X158455989Y-72167654D01*
X159179592Y-70575926D01*
X159556519Y-68759698D01*
X159609811Y-67599781D01*
X159436961Y-65747545D01*
X158936550Y-64138616D01*
X158083001Y-62701465D01*
X157682524Y-62210283D01*
X156363005Y-61024048D01*
X154802790Y-60202838D01*
X153001258Y-59746510D01*
X150957786Y-59654923D01*
X148671754Y-59927934D01*
X148179295Y-60027586D01*
X147553247Y-60166686D01*
X147142869Y-60266083D01*
X147049210Y-60296351D01*
X144804831Y-60296351D01*
X144661500Y-60149059D01*
X144507635Y-59812530D01*
X144508777Y-59805393D01*
X144696824Y-59548032D01*
X145184436Y-59294485D01*
X146004817Y-59033997D01*
X147191172Y-58755809D01*
X148590868Y-58482948D01*
X150670662Y-58102389D01*
X150312902Y-57050403D01*
X149879970Y-56048678D01*
X149275545Y-55176576D01*
X148423267Y-54346490D01*
X147246773Y-53470814D01*
X147115536Y-53382184D01*
X145441696Y-52259406D01*
X145186205Y-52759751D01*
X145020665Y-53135310D01*
X144734341Y-53837570D01*
X144361252Y-54781040D01*
X143935416Y-55880228D01*
X143716092Y-56454286D01*
X143257340Y-57672917D01*
X142944953Y-58545883D01*
X142763206Y-59136752D01*
X142696376Y-59509094D01*
X138224243Y-59509094D01*
X136233344Y-58947146D01*
X133366025Y-58376774D01*
X130129337Y-57936957D01*
X128106837Y-57739760D01*
X126786463Y-57650263D01*
X125162827Y-57577801D01*
X123306868Y-57522410D01*
X121289526Y-57484124D01*
X119181739Y-57462980D01*
X117054446Y-57459012D01*
X114978587Y-57472255D01*
X113025101Y-57502745D01*
X111264927Y-57550517D01*
X109769004Y-57615606D01*
X108608271Y-57698047D01*
X108303447Y-57729934D01*
X104369473Y-58268801D01*
X100838429Y-58917846D01*
X97695207Y-59681698D01*
X94924697Y-60564988D01*
X92511792Y-61572345D01*
X90441384Y-62708399D01*
X89177618Y-63590554D01*
X87713185Y-64945523D01*
X86347499Y-66631170D01*
X85151172Y-68537377D01*
X84194815Y-70554027D01*
X83632490Y-72238042D01*
X83448309Y-73191923D01*
X83304207Y-74442162D01*
X83204664Y-75864575D01*
X83154158Y-77334978D01*
X81631263Y-77334978D01*
X81632536Y-77320023D01*
X81688195Y-76734677D01*
X81769619Y-75902614D01*
X81838527Y-75209464D01*
X82174648Y-73035610D01*
X82727002Y-70879722D01*
X83451788Y-68888844D01*
X84135931Y-67496854D01*
X84706553Y-66622372D01*
X85485849Y-65600571D01*
X86382030Y-64536276D01*
X87303307Y-63534309D01*
X88157890Y-62699496D01*
X88792878Y-62178594D01*
X89504325Y-61678385D01*
X89221297Y-60442561D01*
X89069761Y-59688823D01*
X88890212Y-58656936D01*
X88709565Y-57506882D01*
X88606920Y-56790842D01*
X88468794Y-55814176D01*
X88347962Y-55015683D01*
X88258723Y-54486429D01*
X88218391Y-54316274D01*
X88010486Y-54384209D01*
X87557562Y-54650606D01*
X86957753Y-55047176D01*
X86309192Y-55505631D01*
X85710013Y-55957682D01*
X85258351Y-56335041D01*
X85120796Y-56471794D01*
X84828202Y-56894918D01*
X84463256Y-57548344D01*
X84090602Y-58298175D01*
X83774884Y-59010516D01*
X83580743Y-59551470D01*
X83549210Y-59727031D01*
X83743817Y-59850764D01*
X84254962Y-60008046D01*
X84973635Y-60165577D01*
X85002176Y-60170864D01*
X86455181Y-60480203D01*
X87533462Y-60802031D01*
X88219343Y-61129605D01*
X88495148Y-61456184D01*
X88500057Y-61505053D01*
X88341500Y-61816251D01*
X87920219Y-62301819D01*
X87317799Y-62870953D01*
X87126099Y-63034311D01*
X85241929Y-64881086D01*
X83656145Y-67014807D01*
X82407238Y-69371911D01*
X81533699Y-71888832D01*
X81381796Y-72520448D01*
X81228699Y-73331313D01*
X81086141Y-74285080D01*
X80965390Y-75273925D01*
X80877716Y-76190028D01*
X80834388Y-76925566D01*
X79346109Y-76925566D01*
X79483796Y-76782664D01*
X79543977Y-76637369D01*
X79633123Y-76184679D01*
X79674306Y-75552965D01*
X79674634Y-75495895D01*
X79712794Y-74838154D01*
X79811273Y-73970180D01*
X79907811Y-73329859D01*
X80023506Y-72512937D01*
X80022414Y-71956259D01*
X79892981Y-71491731D01*
X79762334Y-71213506D01*
X79458885Y-70285993D01*
X79387332Y-69265188D01*
X79545097Y-68321714D01*
X79814471Y-67764562D01*
X80398872Y-67121897D01*
X81103481Y-66580415D01*
X81787448Y-66236341D01*
X82157133Y-66164129D01*
X82643204Y-65977263D01*
X83000943Y-65596822D01*
X83304482Y-65193017D01*
X83822481Y-64574006D01*
X84468889Y-63840892D01*
X84858992Y-63413763D01*
X86354778Y-61798012D01*
X85357132Y-61644503D01*
X83608532Y-61482320D01*
X81883938Y-61518604D01*
X80294432Y-61741980D01*
X78951095Y-62141070D01*
X78510710Y-62345691D01*
X77507762Y-63050643D01*
X76522559Y-64043619D01*
X75680131Y-65184841D01*
X75240150Y-66001941D01*
X74938526Y-66732484D01*
X74754152Y-67375547D01*
X74659362Y-68087287D01*
X74626491Y-69023862D01*
X74624481Y-69477172D01*
X73314630Y-69477172D01*
X73374416Y-68074202D01*
X73854433Y-66106214D01*
X74732000Y-64225124D01*
X74836356Y-64052674D01*
X75960781Y-62637031D01*
X77382876Y-61526638D01*
X79070564Y-60742750D01*
X80332007Y-60411160D01*
X81079407Y-60265574D01*
X81663921Y-60147931D01*
X81941474Y-60087747D01*
X82123505Y-59861993D01*
X82360370Y-59339328D01*
X82532293Y-58845710D01*
X83096853Y-57341497D01*
X83793416Y-56146423D01*
X84716113Y-55129599D01*
X85845016Y-54239470D01*
X86142171Y-54022099D01*
X89604103Y-54022099D01*
X89658253Y-54902352D01*
X89752048Y-55821358D01*
X89891769Y-56908824D01*
X90058759Y-58045386D01*
X90234359Y-59111677D01*
X90399913Y-59988334D01*
X90536764Y-60555991D01*
X90546810Y-60587172D01*
X90638524Y-60782656D01*
X90802387Y-60832343D01*
X91134522Y-60718071D01*
X91731049Y-60421677D01*
X91907702Y-60330024D01*
X93644447Y-59552992D01*
X95754503Y-58822222D01*
X98181999Y-58149306D01*
X100871065Y-57545836D01*
X103765831Y-57023406D01*
X106810426Y-56593606D01*
X109948982Y-56268031D01*
X112285651Y-56101789D01*
X114868701Y-55954556D01*
X114735028Y-49518907D01*
X114695500Y-47829723D01*
X114650027Y-46244488D01*
X114601131Y-44828454D01*
X114551336Y-43646870D01*
X114503165Y-42764989D01*
X114459140Y-42248060D01*
X114452016Y-42199781D01*
X114296197Y-41277319D01*
X114169942Y-40709842D01*
X114014195Y-40420057D01*
X113769901Y-40330670D01*
X113378003Y-40364388D01*
X113082149Y-40406855D01*
X112571215Y-40503956D01*
X111723268Y-40695921D01*
X110617201Y-40963534D01*
X109331904Y-41287580D01*
X107946270Y-41648842D01*
X107550057Y-41754315D01*
X105938776Y-42193119D01*
X104653394Y-42566358D01*
X103600347Y-42907893D01*
X102686073Y-43251587D01*
X101817009Y-43631301D01*
X100899591Y-44080895D01*
X100381993Y-44348504D01*
X99048802Y-45062422D01*
X98020149Y-45666589D01*
X97207829Y-46232179D01*
X96523640Y-46830370D01*
X95879377Y-47532334D01*
X95186835Y-48409249D01*
X94938919Y-48740727D01*
X94269800Y-49608209D01*
X93710749Y-50218980D01*
X93134750Y-50685050D01*
X92414788Y-51118426D01*
X91985229Y-51345422D01*
X90958065Y-51894601D01*
X90264314Y-52348287D01*
X89846032Y-52795053D01*
X89645276Y-53323467D01*
X89604103Y-54022099D01*
X86142171Y-54022099D01*
X86732665Y-53590149D01*
X87614444Y-52900716D01*
X88336886Y-52292388D01*
X88506842Y-52137016D01*
X89168852Y-51596853D01*
X90055521Y-50983605D01*
X91000978Y-50410088D01*
X91231919Y-50283558D01*
X92238852Y-49701592D01*
X92940333Y-49175972D01*
X93439771Y-48624735D01*
X93576675Y-48425098D01*
X94508110Y-47133111D01*
X95552103Y-46015674D01*
X96794881Y-44998206D01*
X98322673Y-44006122D01*
X99368046Y-43415837D01*
X100392574Y-42871244D01*
X101281194Y-42432467D01*
X102130463Y-42062842D01*
X103036936Y-41725706D01*
X104097171Y-41384394D01*
X105407725Y-41002242D01*
X106594298Y-40671920D01*
X108524023Y-40145500D01*
X108875917Y-40053653D01*
X115378578Y-40053653D01*
X115500406Y-40795412D01*
X115700435Y-42202198D01*
X115851227Y-43720117D01*
X115957012Y-45424604D01*
X116022021Y-47391091D01*
X116050484Y-49695010D01*
X116052600Y-50642247D01*
X116052600Y-56004129D01*
X118581837Y-56005264D01*
X121696541Y-56050098D01*
X124761394Y-56177707D01*
X127726142Y-56381957D01*
X130540532Y-56656718D01*
X133154308Y-56995858D01*
X135517219Y-57393243D01*
X137579008Y-57842742D01*
X139289424Y-58338223D01*
X140056223Y-58625638D01*
X140674601Y-58876907D01*
X141113930Y-59044313D01*
X141242524Y-59084258D01*
X141352961Y-58892865D01*
X141592141Y-58353315D01*
X141933590Y-57529481D01*
X142350834Y-56485233D01*
X142816414Y-55287013D01*
X144277500Y-51477723D01*
X141627338Y-48809639D01*
X140842688Y-48021517D01*
X140173771Y-47369312D01*
X139567660Y-46823343D01*
X138971431Y-46353930D01*
X138332156Y-45931391D01*
X137596910Y-45526045D01*
X136712767Y-45108211D01*
X135626801Y-44648207D01*
X134286087Y-44116353D01*
X132637698Y-43482968D01*
X131054885Y-42880544D01*
X129235918Y-42193966D01*
X127733986Y-41647961D01*
X126464484Y-41224057D01*
X125342810Y-40903783D01*
X124284359Y-40668669D01*
X123204529Y-40500245D01*
X122018715Y-40380039D01*
X120642315Y-40289581D01*
X118990725Y-40210401D01*
X118782962Y-40201341D01*
X115378578Y-40053653D01*
X108875917Y-40053653D01*
X110121613Y-39728518D01*
X111469236Y-39410363D01*
X112649064Y-39180423D01*
X113743265Y-39028087D01*
X114834010Y-38942745D01*
X116003468Y-38913783D01*
X117333809Y-38930593D01*
G37*
G04 #@! TD.AperFunction*
D12*
X94166520Y-71242120D03*
X94166520Y-74442120D03*
X99066520Y-74442120D03*
X99066520Y-71242120D03*
X123865300Y-70378320D03*
X123865300Y-73578320D03*
X128765300Y-73578320D03*
X128765300Y-70378320D03*
D13*
X130235000Y-164760000D03*
X130225000Y-162220000D03*
X130225000Y-159690000D03*
X130225000Y-157130000D03*
X130225000Y-154600000D03*
X130225000Y-152070000D03*
X130225000Y-149520000D03*
X114725000Y-149520000D03*
X114725000Y-152060000D03*
X114735000Y-154610000D03*
X114735000Y-157140000D03*
X114725000Y-159690000D03*
X114725000Y-162230000D03*
X114725000Y-164760000D03*
D14*
X123695000Y-148450000D03*
X121145000Y-148450000D03*
D15*
X123696197Y-165454187D03*
X121156197Y-165454187D03*
X123696197Y-162914187D03*
X121156197Y-162914187D03*
D16*
X114280000Y-111200000D03*
X116820000Y-111200000D03*
X119360000Y-111200000D03*
X121900000Y-111200000D03*
D17*
X137000000Y-146700000D03*
X143500000Y-146700000D03*
X137000000Y-151200000D03*
X143500000Y-151200000D03*
X84900000Y-153300000D03*
X91400000Y-153300000D03*
X84900000Y-157800000D03*
X91400000Y-157800000D03*
X93700000Y-163200000D03*
X100200000Y-163200000D03*
X93700000Y-167700000D03*
X100200000Y-167700000D03*
X93700000Y-143600000D03*
X100200000Y-143600000D03*
X93700000Y-148100000D03*
X100200000Y-148100000D03*
X101700000Y-153300000D03*
X108200000Y-153300000D03*
X101700000Y-157800000D03*
X108200000Y-157800000D03*
X142600000Y-157500000D03*
X149100000Y-157500000D03*
X142600000Y-162000000D03*
X149100000Y-162000000D03*
D18*
X126300000Y-73600000D03*
X116900000Y-148600000D03*
X114300000Y-135600000D03*
X117700000Y-164100000D03*
X99200000Y-73000000D03*
X105000000Y-153300000D03*
X128000000Y-147900000D03*
X94488000Y-72961500D03*
X96431100Y-70980300D03*
X126136400Y-70408800D03*
X115700000Y-147400000D03*
X95859600Y-72961500D03*
X97409000Y-72999600D03*
X126885700Y-72034400D03*
D19*
X116900000Y-160055000D02*
X114725000Y-162230000D01*
X116900000Y-148600000D02*
X116900000Y-160055000D01*
D20*
X105000000Y-154600000D02*
X108200000Y-157800000D01*
X117700000Y-164100000D02*
X116595000Y-164100000D01*
X93700000Y-148100000D02*
X100200000Y-148100000D01*
D21*
X120930813Y-162914187D02*
X121156197Y-162914187D01*
D20*
X116595000Y-164100000D02*
X114725000Y-162230000D01*
D19*
X114280000Y-111200000D02*
X114280000Y-135580000D01*
D20*
X137000000Y-146700000D02*
X143500000Y-146700000D01*
D19*
X128743620Y-73600000D02*
X128765300Y-73578320D01*
D22*
X121145000Y-162902990D02*
X121156197Y-162914187D01*
D20*
X105000000Y-153300000D02*
X105000000Y-154600000D01*
D19*
X126300000Y-73600000D02*
X128743620Y-73600000D01*
X99066520Y-73133480D02*
X99200000Y-73000000D01*
X114280000Y-135580000D02*
X114300000Y-135600000D01*
D20*
X93700000Y-167700000D02*
X100200000Y-167700000D01*
D19*
X99066520Y-74442120D02*
X99066520Y-73133480D01*
D20*
X101700000Y-157800000D02*
X108200000Y-157800000D01*
X142600000Y-157500000D02*
X149100000Y-157500000D01*
X84900000Y-157800000D02*
X91400000Y-157800000D01*
X128000000Y-152375000D02*
X130225000Y-154600000D01*
X128000000Y-147900000D02*
X128000000Y-152375000D01*
D19*
X123865300Y-70378320D02*
X126105920Y-70378320D01*
X94166520Y-71242120D02*
X96169280Y-71242120D01*
X96169280Y-71242120D02*
X96431100Y-70980300D01*
X94488000Y-71563600D02*
X94166520Y-71242120D01*
X126105920Y-70378320D02*
X126136400Y-70408800D01*
D22*
X123751200Y-70408800D02*
X123751000Y-70409000D01*
D19*
X94488000Y-72961500D02*
X94488000Y-71563600D01*
D20*
X119100000Y-147100000D02*
X124200000Y-147100000D01*
X118800000Y-147400000D02*
X119100000Y-147100000D01*
X115700000Y-147400000D02*
X118800000Y-147400000D01*
X124200000Y-147100000D02*
X127300000Y-150200000D01*
X127300000Y-161825000D02*
X130235000Y-164760000D01*
X127300000Y-150200000D02*
X127300000Y-161825000D01*
X97383600Y-71437500D02*
X95859600Y-72961500D01*
X99388000Y-71437500D02*
X97383600Y-71437500D01*
X126885700Y-72034400D02*
X127025600Y-72034400D01*
X94488000Y-74637500D02*
X95771100Y-74637500D01*
X127025600Y-72034400D02*
X128651000Y-70409000D01*
X95771100Y-74637500D02*
X97409000Y-72999600D01*
X93700000Y-143600000D02*
X100200000Y-143600000D01*
X84900000Y-153300000D02*
X91400000Y-153300000D01*
X93700000Y-163200000D02*
X100200000Y-163200000D01*
X101700000Y-153300000D02*
X102800000Y-153300000D01*
X107400000Y-152500000D02*
X108200000Y-153300000D01*
X103600000Y-152500000D02*
X107400000Y-152500000D01*
X102800000Y-153300000D02*
X103600000Y-152500000D01*
X137000000Y-151200000D02*
X143500000Y-151200000D01*
X142600000Y-162000000D02*
X149100000Y-162000000D01*
G04 #@! TA.AperFunction,Conductor*
G36*
X120071121Y-147753502D02*
G01*
X120117614Y-147807158D01*
X120129000Y-147859500D01*
X120129000Y-148196000D01*
X122161000Y-148196000D01*
X122161000Y-147859500D01*
X122181002Y-147791379D01*
X122234658Y-147744886D01*
X122287000Y-147733500D01*
X122552500Y-147733500D01*
X122620621Y-147753502D01*
X122667114Y-147807158D01*
X122678500Y-147859500D01*
X122678500Y-149058119D01*
X122680436Y-149067850D01*
X122717564Y-149254502D01*
X122794190Y-149439493D01*
X122905433Y-149605981D01*
X122905434Y-149605982D01*
X122905439Y-149605988D01*
X123047011Y-149747560D01*
X123047017Y-149747565D01*
X123047019Y-149747567D01*
X123213507Y-149858810D01*
X123398498Y-149935436D01*
X123594884Y-149974500D01*
X123795116Y-149974500D01*
X123991502Y-149935436D01*
X124176493Y-149858810D01*
X124342981Y-149747567D01*
X124484567Y-149605981D01*
X124595810Y-149439493D01*
X124672436Y-149254502D01*
X124711500Y-149058116D01*
X124711500Y-148811594D01*
X124731502Y-148743473D01*
X124785158Y-148696980D01*
X124855432Y-148686876D01*
X124920012Y-148716370D01*
X124926595Y-148722499D01*
X126629595Y-150425499D01*
X126663621Y-150487811D01*
X126666500Y-150514594D01*
X126666500Y-161762606D01*
X126666500Y-161887394D01*
X126690845Y-162009785D01*
X126738600Y-162125075D01*
X126807929Y-162228833D01*
X126807931Y-162228835D01*
X128811216Y-164232120D01*
X128845242Y-164294432D01*
X128844266Y-164352146D01*
X128801557Y-164520799D01*
X128781736Y-164760000D01*
X128801558Y-164999206D01*
X128860476Y-165231870D01*
X128860477Y-165231871D01*
X128860478Y-165231874D01*
X128956892Y-165451677D01*
X129088171Y-165652613D01*
X129088174Y-165652617D01*
X129088176Y-165652619D01*
X129250725Y-165829195D01*
X129250731Y-165829201D01*
X129440140Y-165976624D01*
X129651231Y-166090860D01*
X129878245Y-166168795D01*
X130114990Y-166208300D01*
X130114994Y-166208300D01*
X130355006Y-166208300D01*
X130355010Y-166208300D01*
X130591755Y-166168795D01*
X130818769Y-166090860D01*
X131029860Y-165976624D01*
X131172396Y-165865683D01*
X131238435Y-165839628D01*
X131308080Y-165853413D01*
X131359217Y-165902663D01*
X131375784Y-165965176D01*
X131375059Y-167484271D01*
X131355024Y-167552382D01*
X131301347Y-167598850D01*
X131249271Y-167610211D01*
X113701272Y-167639787D01*
X113633118Y-167619900D01*
X113586535Y-167566322D01*
X113575060Y-167513727D01*
X113575074Y-167484271D01*
X113575800Y-165958501D01*
X113595833Y-165890396D01*
X113649511Y-165843929D01*
X113719790Y-165833858D01*
X113779190Y-165859135D01*
X113806521Y-165880407D01*
X113930140Y-165976624D01*
X114141231Y-166090860D01*
X114368245Y-166168795D01*
X114604990Y-166208300D01*
X114604994Y-166208300D01*
X114845006Y-166208300D01*
X114845010Y-166208300D01*
X115081755Y-166168795D01*
X115308769Y-166090860D01*
X115519860Y-165976624D01*
X115709269Y-165829201D01*
X115871829Y-165652613D01*
X116001471Y-165454182D01*
X120071570Y-165454182D01*
X120071570Y-165454191D01*
X120090037Y-165653481D01*
X120090037Y-165653485D01*
X120144811Y-165845998D01*
X120144814Y-165846004D01*
X120234025Y-166025165D01*
X120234029Y-166025170D01*
X120354644Y-166184891D01*
X120502563Y-166319738D01*
X120502564Y-166319739D01*
X120672725Y-166425098D01*
X120672728Y-166425099D01*
X120672737Y-166425105D01*
X120859370Y-166497407D01*
X120859375Y-166497409D01*
X121056120Y-166534187D01*
X121056122Y-166534187D01*
X121256272Y-166534187D01*
X121256274Y-166534187D01*
X121453019Y-166497409D01*
X121639657Y-166425105D01*
X121809831Y-166319738D01*
X121957746Y-166184895D01*
X122078365Y-166025170D01*
X122078366Y-166025166D01*
X122078368Y-166025165D01*
X122132486Y-165916481D01*
X122167582Y-165845999D01*
X122222356Y-165653487D01*
X122240824Y-165454187D01*
X122240824Y-165454182D01*
X122611570Y-165454182D01*
X122611570Y-165454191D01*
X122630037Y-165653481D01*
X122630037Y-165653485D01*
X122684811Y-165845998D01*
X122684814Y-165846004D01*
X122774025Y-166025165D01*
X122774029Y-166025170D01*
X122894644Y-166184891D01*
X123042563Y-166319738D01*
X123042564Y-166319739D01*
X123212725Y-166425098D01*
X123212728Y-166425099D01*
X123212737Y-166425105D01*
X123399370Y-166497407D01*
X123399375Y-166497409D01*
X123596120Y-166534187D01*
X123596122Y-166534187D01*
X123796272Y-166534187D01*
X123796274Y-166534187D01*
X123993019Y-166497409D01*
X124179657Y-166425105D01*
X124349831Y-166319738D01*
X124497746Y-166184895D01*
X124618365Y-166025170D01*
X124618366Y-166025166D01*
X124618368Y-166025165D01*
X124672486Y-165916481D01*
X124707582Y-165845999D01*
X124762356Y-165653487D01*
X124780824Y-165454187D01*
X124780591Y-165451677D01*
X124762356Y-165254892D01*
X124762356Y-165254888D01*
X124707582Y-165062375D01*
X124707579Y-165062369D01*
X124618368Y-164883208D01*
X124618364Y-164883203D01*
X124497749Y-164723482D01*
X124349830Y-164588635D01*
X124349829Y-164588634D01*
X124179668Y-164483275D01*
X124179661Y-164483271D01*
X124179657Y-164483269D01*
X124179652Y-164483267D01*
X123993023Y-164410966D01*
X123993024Y-164410966D01*
X123993019Y-164410965D01*
X123796274Y-164374187D01*
X123596120Y-164374187D01*
X123447655Y-164401939D01*
X123399369Y-164410966D01*
X123212741Y-164483267D01*
X123212725Y-164483275D01*
X123042564Y-164588634D01*
X123042563Y-164588635D01*
X122894644Y-164723482D01*
X122774029Y-164883203D01*
X122774025Y-164883208D01*
X122684814Y-165062369D01*
X122684811Y-165062375D01*
X122630037Y-165254888D01*
X122630037Y-165254892D01*
X122611570Y-165454182D01*
X122240824Y-165454182D01*
X122240591Y-165451677D01*
X122222356Y-165254892D01*
X122222356Y-165254888D01*
X122167582Y-165062375D01*
X122167579Y-165062369D01*
X122078368Y-164883208D01*
X122078364Y-164883203D01*
X121957749Y-164723482D01*
X121809830Y-164588635D01*
X121809829Y-164588634D01*
X121639668Y-164483275D01*
X121639661Y-164483271D01*
X121639657Y-164483269D01*
X121639652Y-164483267D01*
X121453023Y-164410966D01*
X121453024Y-164410966D01*
X121453019Y-164410965D01*
X121256274Y-164374187D01*
X121056120Y-164374187D01*
X120907655Y-164401939D01*
X120859369Y-164410966D01*
X120672741Y-164483267D01*
X120672725Y-164483275D01*
X120502564Y-164588634D01*
X120502563Y-164588635D01*
X120354644Y-164723482D01*
X120234029Y-164883203D01*
X120234025Y-164883208D01*
X120144814Y-165062369D01*
X120144811Y-165062375D01*
X120090037Y-165254888D01*
X120090037Y-165254892D01*
X120071570Y-165454182D01*
X116001471Y-165454182D01*
X116003108Y-165451677D01*
X116099522Y-165231874D01*
X116158443Y-164999199D01*
X116178264Y-164760000D01*
X116158443Y-164520801D01*
X116130629Y-164410965D01*
X116099523Y-164288129D01*
X116099522Y-164288128D01*
X116099522Y-164288126D01*
X116003108Y-164068323D01*
X115871829Y-163867387D01*
X115842658Y-163835699D01*
X120593893Y-163835699D01*
X120672957Y-163884653D01*
X120672960Y-163884655D01*
X120859510Y-163956925D01*
X121056169Y-163993687D01*
X121256225Y-163993687D01*
X121452883Y-163956925D01*
X121639430Y-163884656D01*
X121718498Y-163835698D01*
X121156197Y-163273397D01*
X120593893Y-163835699D01*
X115842658Y-163835699D01*
X115709274Y-163690804D01*
X115709272Y-163690802D01*
X115709269Y-163690799D01*
X115585047Y-163594113D01*
X115543577Y-163536488D01*
X115539843Y-163465590D01*
X115553236Y-163442120D01*
X115554679Y-163418888D01*
X114856481Y-162720690D01*
X114921081Y-162703381D01*
X115036920Y-162636502D01*
X115131502Y-162541920D01*
X115198381Y-162426081D01*
X115215690Y-162361481D01*
X115912955Y-163058746D01*
X115912956Y-163058746D01*
X116002667Y-162921434D01*
X116005846Y-162914187D01*
X120072072Y-162914187D01*
X120090531Y-163113395D01*
X120145280Y-163305815D01*
X120145280Y-163305816D01*
X120231732Y-163479439D01*
X120796987Y-162914186D01*
X121515407Y-162914186D01*
X122080660Y-163479439D01*
X122167114Y-163305813D01*
X122221862Y-163113395D01*
X122240321Y-162914187D01*
X122240321Y-162914182D01*
X122611570Y-162914182D01*
X122611570Y-162914191D01*
X122630037Y-163113481D01*
X122630037Y-163113485D01*
X122684811Y-163305998D01*
X122684814Y-163306004D01*
X122774025Y-163485165D01*
X122774029Y-163485170D01*
X122894644Y-163644891D01*
X123042563Y-163779738D01*
X123042564Y-163779739D01*
X123212725Y-163885098D01*
X123212728Y-163885099D01*
X123212737Y-163885105D01*
X123399370Y-163957407D01*
X123399375Y-163957409D01*
X123596120Y-163994187D01*
X123596122Y-163994187D01*
X123796272Y-163994187D01*
X123796274Y-163994187D01*
X123993019Y-163957409D01*
X124179657Y-163885105D01*
X124349831Y-163779738D01*
X124497746Y-163644895D01*
X124618365Y-163485170D01*
X124618366Y-163485166D01*
X124618368Y-163485165D01*
X124704743Y-163311700D01*
X124707582Y-163305999D01*
X124762356Y-163113487D01*
X124773436Y-162993907D01*
X124780824Y-162914191D01*
X124780824Y-162914182D01*
X124771590Y-162814537D01*
X124762356Y-162714887D01*
X124707582Y-162522375D01*
X124676124Y-162459199D01*
X124618368Y-162343208D01*
X124618364Y-162343203D01*
X124497749Y-162183482D01*
X124451042Y-162140903D01*
X124349831Y-162048636D01*
X124349830Y-162048635D01*
X124349829Y-162048634D01*
X124179668Y-161943275D01*
X124179661Y-161943271D01*
X124179657Y-161943269D01*
X124114637Y-161918080D01*
X123993023Y-161870966D01*
X123993024Y-161870966D01*
X123992077Y-161870789D01*
X123796274Y-161834187D01*
X123596120Y-161834187D01*
X123447655Y-161861939D01*
X123399369Y-161870966D01*
X123212741Y-161943267D01*
X123212725Y-161943275D01*
X123042564Y-162048634D01*
X123042563Y-162048635D01*
X122894644Y-162183482D01*
X122774029Y-162343203D01*
X122774025Y-162343208D01*
X122684814Y-162522369D01*
X122684811Y-162522375D01*
X122630037Y-162714888D01*
X122630037Y-162714892D01*
X122611570Y-162914182D01*
X122240321Y-162914182D01*
X122221862Y-162714978D01*
X122167113Y-162522558D01*
X122167113Y-162522557D01*
X122080660Y-162348933D01*
X121515407Y-162914186D01*
X120796987Y-162914186D01*
X120231733Y-162348932D01*
X120145283Y-162522551D01*
X120145279Y-162522561D01*
X120090531Y-162714978D01*
X120072072Y-162914187D01*
X116005846Y-162914187D01*
X116099045Y-162701714D01*
X116099048Y-162701707D01*
X116157946Y-162469124D01*
X116177761Y-162230000D01*
X116158095Y-161992674D01*
X120593893Y-161992674D01*
X121156196Y-162554977D01*
X121156197Y-162554977D01*
X121718499Y-161992674D01*
X121639438Y-161943721D01*
X121639425Y-161943714D01*
X121452889Y-161871450D01*
X121452886Y-161871449D01*
X121256225Y-161834687D01*
X121056169Y-161834687D01*
X120859507Y-161871449D01*
X120859504Y-161871450D01*
X120672971Y-161943713D01*
X120672960Y-161943718D01*
X120593893Y-161992674D01*
X116158095Y-161992674D01*
X116157946Y-161990875D01*
X116099048Y-161758292D01*
X116099045Y-161758285D01*
X116002667Y-161538565D01*
X115912956Y-161401252D01*
X115215690Y-162098518D01*
X115198381Y-162033919D01*
X115131502Y-161918080D01*
X115036920Y-161823498D01*
X114921081Y-161756619D01*
X114856479Y-161739309D01*
X115554678Y-161041111D01*
X115553683Y-161025091D01*
X115537153Y-161002120D01*
X115533421Y-160931222D01*
X115568612Y-160869561D01*
X115578619Y-160860889D01*
X115709269Y-160759201D01*
X115871829Y-160582613D01*
X116003108Y-160381677D01*
X116099522Y-160161874D01*
X116158443Y-159929199D01*
X116178264Y-159690000D01*
X116158443Y-159450801D01*
X116099522Y-159218126D01*
X116003108Y-158998323D01*
X115871829Y-158797387D01*
X115709269Y-158620799D01*
X115709265Y-158620796D01*
X115709262Y-158620793D01*
X115577608Y-158518322D01*
X115536137Y-158460697D01*
X115532404Y-158389799D01*
X115567593Y-158328137D01*
X115577594Y-158319471D01*
X115719269Y-158209201D01*
X115881829Y-158032613D01*
X116013108Y-157831677D01*
X116109522Y-157611874D01*
X116168443Y-157379199D01*
X116188264Y-157140000D01*
X116168443Y-156900801D01*
X116109522Y-156668126D01*
X116013108Y-156448323D01*
X115881829Y-156247387D01*
X115872623Y-156237387D01*
X115719274Y-156070804D01*
X115719272Y-156070802D01*
X115719269Y-156070799D01*
X115595455Y-155974430D01*
X115553985Y-155916807D01*
X115550251Y-155845908D01*
X115585441Y-155784246D01*
X115595449Y-155775573D01*
X115719269Y-155679201D01*
X115881829Y-155502613D01*
X116013108Y-155301677D01*
X116109522Y-155081874D01*
X116168443Y-154849199D01*
X116188264Y-154610000D01*
X116168443Y-154370801D01*
X116109522Y-154138126D01*
X116013108Y-153918323D01*
X115881829Y-153717387D01*
X115872623Y-153707387D01*
X115719274Y-153540804D01*
X115719272Y-153540802D01*
X115719269Y-153540799D01*
X115577607Y-153430539D01*
X115536137Y-153372914D01*
X115532403Y-153302016D01*
X115567593Y-153240354D01*
X115577597Y-153231684D01*
X115709269Y-153129201D01*
X115871829Y-152952613D01*
X116003108Y-152751677D01*
X116099522Y-152531874D01*
X116158443Y-152299199D01*
X116178264Y-152060000D01*
X116158443Y-151820801D01*
X116127763Y-151699648D01*
X116099523Y-151588129D01*
X116099522Y-151588128D01*
X116099522Y-151588126D01*
X116003108Y-151368323D01*
X115871829Y-151167387D01*
X115718479Y-151000804D01*
X115709274Y-150990804D01*
X115709272Y-150990802D01*
X115709269Y-150990799D01*
X115579031Y-150889430D01*
X115537561Y-150831807D01*
X115533827Y-150760908D01*
X115569017Y-150699246D01*
X115579025Y-150690573D01*
X115709269Y-150589201D01*
X115871829Y-150412613D01*
X116003108Y-150211677D01*
X116099522Y-149991874D01*
X116158443Y-149759199D01*
X116178264Y-149520000D01*
X116158443Y-149280801D01*
X116102040Y-149058069D01*
X120129000Y-149058069D01*
X120168044Y-149254356D01*
X120168046Y-149254361D01*
X120244632Y-149439255D01*
X120355818Y-149605657D01*
X120355823Y-149605664D01*
X120497335Y-149747176D01*
X120497342Y-149747181D01*
X120663744Y-149858367D01*
X120848638Y-149934953D01*
X120848643Y-149934955D01*
X120890999Y-149943380D01*
X120891000Y-149943380D01*
X121399000Y-149943380D01*
X121441356Y-149934955D01*
X121441361Y-149934953D01*
X121626255Y-149858367D01*
X121792657Y-149747181D01*
X121792664Y-149747176D01*
X121934176Y-149605664D01*
X121934181Y-149605657D01*
X122045367Y-149439255D01*
X122121953Y-149254361D01*
X122121955Y-149254356D01*
X122160999Y-149058069D01*
X122161000Y-149058065D01*
X122161000Y-148704000D01*
X121399000Y-148704000D01*
X121399000Y-149943380D01*
X120891000Y-149943380D01*
X120891000Y-148704000D01*
X120129000Y-148704000D01*
X120129000Y-149058069D01*
X116102040Y-149058069D01*
X116102039Y-149058065D01*
X116099523Y-149048129D01*
X116099522Y-149048128D01*
X116099522Y-149048126D01*
X116003108Y-148828323D01*
X115871829Y-148627387D01*
X115761377Y-148507404D01*
X115709274Y-148450804D01*
X115709262Y-148450793D01*
X115686015Y-148432699D01*
X115644544Y-148375074D01*
X115640811Y-148304176D01*
X115676001Y-148242514D01*
X115738941Y-148209666D01*
X115749266Y-148208064D01*
X115881047Y-148193217D01*
X116053015Y-148133043D01*
X116150642Y-148071700D01*
X116180701Y-148052813D01*
X116247737Y-148033500D01*
X118862393Y-148033500D01*
X118862394Y-148033500D01*
X118984785Y-148009155D01*
X119100075Y-147961400D01*
X119203833Y-147892071D01*
X119325499Y-147770405D01*
X119387811Y-147736379D01*
X119414594Y-147733500D01*
X120003000Y-147733500D01*
X120071121Y-147753502D01*
G37*
G04 #@! TD.AperFunction*
M02*
