M48
; DRILL file {KiCad 8.0.5-8.0.5-0~ubuntu24.04.1} date 2024-09-20T13:44:20+0900
; FORMAT={-:-/ absolute / inch / decimal}
; #@! TF.CreationDate,2024-09-20T13:44:20+09:00
; #@! TF.GenerationSoftware,Kicad,Pcbnew,8.0.5-8.0.5-0~ubuntu24.04.1
; #@! TF.FileFunction,Plated,1,2,PTH
FMAT,2
INCH
; #@! TA.AperFunction,Plated,PTH,ViaDrill
T1C0.0118
; #@! TA.AperFunction,Plated,PTH,ComponentDrill
T2C0.0394
; #@! TA.AperFunction,Plated,PTH,ComponentDrill
T3C0.0400
; #@! TA.AperFunction,Plated,PTH,ComponentDrill
T4C0.0433
%
G90
G05
T1
X3.72Y-2.8725
X3.774Y-2.8725
X3.7965Y-2.7945
X3.835Y-2.874
X3.9055Y-2.874
X4.1339Y-6.0354
X4.5Y-5.3386
X4.5551Y-5.8031
X4.6024Y-5.8504
X4.6339Y-6.4606
X4.966Y-2.772
X4.9724Y-2.8976
X4.9955Y-2.836
X5.0394Y-5.8228
T2
X4.4992Y-4.378
X4.5992Y-4.378
X4.6992Y-4.378
X4.7992Y-4.378
T3
X4.5167Y-5.8866
X4.5167Y-5.9866
X4.5167Y-6.287
X4.5167Y-6.387
X4.5167Y-6.4866
X4.5171Y-6.087
X4.5171Y-6.1866
X5.127Y-5.8866
X5.127Y-5.987
X5.127Y-6.0866
X5.127Y-6.1862
X5.127Y-6.287
X5.127Y-6.3866
X5.1274Y-6.4866
T4
X3.3425Y-6.0354
X3.3425Y-6.2126
X3.5984Y-6.0354
X3.5984Y-6.2126
X3.689Y-5.6535
X3.689Y-5.8307
X3.689Y-6.4252
X3.689Y-6.6024
X3.9449Y-5.6535
X3.9449Y-5.8307
X3.9449Y-6.4252
X3.9449Y-6.6024
X4.0039Y-6.0354
X4.0039Y-6.2126
X4.2598Y-6.0354
X4.2598Y-6.2126
X5.3937Y-5.7756
X5.3937Y-5.9528
X5.6142Y-6.2008
X5.6142Y-6.378
X5.6496Y-5.7756
X5.6496Y-5.9528
X5.8701Y-6.2008
X5.8701Y-6.378
M30
