G04 #@! TF.GenerationSoftware,KiCad,Pcbnew,8.0.5-8.0.5-0~ubuntu24.04.1*
G04 #@! TF.CreationDate,2024-09-20T13:44:16+09:00*
G04 #@! TF.ProjectId,gopher_pilot_xiao_sw,676f7068-6572-45f7-9069-6c6f745f7869,rev?*
G04 #@! TF.SameCoordinates,Original*
G04 #@! TF.FileFunction,Copper,L2,Bot*
G04 #@! TF.FilePolarity,Positive*
%FSLAX46Y46*%
G04 Gerber Fmt 4.6, Leading zero omitted, Abs format (unit mm)*
G04 Created by KiCad (PCBNEW 8.0.5-8.0.5-0~ubuntu24.04.1) date 2024-09-20 13:44:16*
%MOMM*%
%LPD*%
G01*
G04 APERTURE LIST*
G04 Aperture macros list*
%AMRoundRect*
0 Rectangle with rounded corners*
0 $1 Rounding radius*
0 $2 $3 $4 $5 $6 $7 $8 $9 X,Y pos of 4 corners*
0 Add a 4 corners polygon primitive as box body*
4,1,4,$2,$3,$4,$5,$6,$7,$8,$9,$2,$3,0*
0 Add four circle primitives for the rounded corners*
1,1,$1+$1,$2,$3*
1,1,$1+$1,$4,$5*
1,1,$1+$1,$6,$7*
1,1,$1+$1,$8,$9*
0 Add four rect primitives between the rounded corners*
20,1,$1+$1,$2,$3,$4,$5,0*
20,1,$1+$1,$4,$5,$6,$7,0*
20,1,$1+$1,$6,$7,$8,$9,0*
20,1,$1+$1,$8,$9,$2,$3,0*%
G04 Aperture macros list end*
%ADD10C,0.300000*%
G04 #@! TA.AperFunction,NonConductor*
%ADD11C,0.300000*%
G04 #@! TD*
G04 #@! TA.AperFunction,ComponentPad*
%ADD12C,1.879600*%
G04 #@! TD*
G04 #@! TA.AperFunction,ComponentPad*
%ADD13O,1.600000X2.000000*%
G04 #@! TD*
G04 #@! TA.AperFunction,ComponentPad*
%ADD14C,2.000000*%
G04 #@! TD*
G04 #@! TA.AperFunction,SMDPad,CuDef*
%ADD15RoundRect,0.243750X0.456250X-0.243750X0.456250X0.243750X-0.456250X0.243750X-0.456250X-0.243750X0*%
G04 #@! TD*
G04 #@! TA.AperFunction,ViaPad*
%ADD16C,0.600000*%
G04 #@! TD*
G04 #@! TA.AperFunction,Conductor*
%ADD17C,0.250000*%
G04 #@! TD*
G04 #@! TA.AperFunction,Conductor*
%ADD18C,0.600000*%
G04 #@! TD*
G04 #@! TA.AperFunction,Conductor*
%ADD19C,0.200000*%
G04 #@! TD*
G04 APERTURE END LIST*
D10*
D11*
X123416917Y-116700828D02*
X123416917Y-117772257D01*
X123416917Y-117772257D02*
X123488346Y-117986542D01*
X123488346Y-117986542D02*
X123631203Y-118129400D01*
X123631203Y-118129400D02*
X123845489Y-118200828D01*
X123845489Y-118200828D02*
X123988346Y-118200828D01*
X121988346Y-118200828D02*
X122702632Y-118200828D01*
X122702632Y-118200828D02*
X122702632Y-116700828D01*
X120631203Y-118057971D02*
X120702631Y-118129400D01*
X120702631Y-118129400D02*
X120916917Y-118200828D01*
X120916917Y-118200828D02*
X121059774Y-118200828D01*
X121059774Y-118200828D02*
X121274060Y-118129400D01*
X121274060Y-118129400D02*
X121416917Y-117986542D01*
X121416917Y-117986542D02*
X121488346Y-117843685D01*
X121488346Y-117843685D02*
X121559774Y-117557971D01*
X121559774Y-117557971D02*
X121559774Y-117343685D01*
X121559774Y-117343685D02*
X121488346Y-117057971D01*
X121488346Y-117057971D02*
X121416917Y-116915114D01*
X121416917Y-116915114D02*
X121274060Y-116772257D01*
X121274060Y-116772257D02*
X121059774Y-116700828D01*
X121059774Y-116700828D02*
X120916917Y-116700828D01*
X120916917Y-116700828D02*
X120702631Y-116772257D01*
X120702631Y-116772257D02*
X120631203Y-116843685D01*
X119559774Y-116700828D02*
X119559774Y-117772257D01*
X119559774Y-117772257D02*
X119631203Y-117986542D01*
X119631203Y-117986542D02*
X119774060Y-118129400D01*
X119774060Y-118129400D02*
X119988346Y-118200828D01*
X119988346Y-118200828D02*
X120131203Y-118200828D01*
X118131203Y-118200828D02*
X118845489Y-118200828D01*
X118845489Y-118200828D02*
X118845489Y-116700828D01*
X116774060Y-118057971D02*
X116845488Y-118129400D01*
X116845488Y-118129400D02*
X117059774Y-118200828D01*
X117059774Y-118200828D02*
X117202631Y-118200828D01*
X117202631Y-118200828D02*
X117416917Y-118129400D01*
X117416917Y-118129400D02*
X117559774Y-117986542D01*
X117559774Y-117986542D02*
X117631203Y-117843685D01*
X117631203Y-117843685D02*
X117702631Y-117557971D01*
X117702631Y-117557971D02*
X117702631Y-117343685D01*
X117702631Y-117343685D02*
X117631203Y-117057971D01*
X117631203Y-117057971D02*
X117559774Y-116915114D01*
X117559774Y-116915114D02*
X117416917Y-116772257D01*
X117416917Y-116772257D02*
X117202631Y-116700828D01*
X117202631Y-116700828D02*
X117059774Y-116700828D01*
X117059774Y-116700828D02*
X116845488Y-116772257D01*
X116845488Y-116772257D02*
X116774060Y-116843685D01*
X115702631Y-116700828D02*
X115702631Y-117772257D01*
X115702631Y-117772257D02*
X115774060Y-117986542D01*
X115774060Y-117986542D02*
X115916917Y-118129400D01*
X115916917Y-118129400D02*
X116131203Y-118200828D01*
X116131203Y-118200828D02*
X116274060Y-118200828D01*
X114274060Y-118200828D02*
X114988346Y-118200828D01*
X114988346Y-118200828D02*
X114988346Y-116700828D01*
X112916917Y-118057971D02*
X112988345Y-118129400D01*
X112988345Y-118129400D02*
X113202631Y-118200828D01*
X113202631Y-118200828D02*
X113345488Y-118200828D01*
X113345488Y-118200828D02*
X113559774Y-118129400D01*
X113559774Y-118129400D02*
X113702631Y-117986542D01*
X113702631Y-117986542D02*
X113774060Y-117843685D01*
X113774060Y-117843685D02*
X113845488Y-117557971D01*
X113845488Y-117557971D02*
X113845488Y-117343685D01*
X113845488Y-117343685D02*
X113774060Y-117057971D01*
X113774060Y-117057971D02*
X113702631Y-116915114D01*
X113702631Y-116915114D02*
X113559774Y-116772257D01*
X113559774Y-116772257D02*
X113345488Y-116700828D01*
X113345488Y-116700828D02*
X113202631Y-116700828D01*
X113202631Y-116700828D02*
X112988345Y-116772257D01*
X112988345Y-116772257D02*
X112916917Y-116843685D01*
X111845488Y-116700828D02*
X111845488Y-117772257D01*
X111845488Y-117772257D02*
X111916917Y-117986542D01*
X111916917Y-117986542D02*
X112059774Y-118129400D01*
X112059774Y-118129400D02*
X112274060Y-118200828D01*
X112274060Y-118200828D02*
X112416917Y-118200828D01*
X110416917Y-118200828D02*
X111131203Y-118200828D01*
X111131203Y-118200828D02*
X111131203Y-116700828D01*
X109059774Y-118057971D02*
X109131202Y-118129400D01*
X109131202Y-118129400D02*
X109345488Y-118200828D01*
X109345488Y-118200828D02*
X109488345Y-118200828D01*
X109488345Y-118200828D02*
X109702631Y-118129400D01*
X109702631Y-118129400D02*
X109845488Y-117986542D01*
X109845488Y-117986542D02*
X109916917Y-117843685D01*
X109916917Y-117843685D02*
X109988345Y-117557971D01*
X109988345Y-117557971D02*
X109988345Y-117343685D01*
X109988345Y-117343685D02*
X109916917Y-117057971D01*
X109916917Y-117057971D02*
X109845488Y-116915114D01*
X109845488Y-116915114D02*
X109702631Y-116772257D01*
X109702631Y-116772257D02*
X109488345Y-116700828D01*
X109488345Y-116700828D02*
X109345488Y-116700828D01*
X109345488Y-116700828D02*
X109131202Y-116772257D01*
X109131202Y-116772257D02*
X109059774Y-116843685D01*
D12*
X130235000Y-164760000D03*
X130225000Y-162220000D03*
X130225000Y-159690000D03*
X130225000Y-157130000D03*
X130225000Y-154600000D03*
X130225000Y-152070000D03*
X130225000Y-149520000D03*
X114725000Y-149520000D03*
X114725000Y-152060000D03*
X114735000Y-154610000D03*
X114735000Y-157140000D03*
X114725000Y-159690000D03*
X114725000Y-162230000D03*
X114725000Y-164760000D03*
D13*
X114280000Y-111200000D03*
X116820000Y-111200000D03*
X119360000Y-111200000D03*
X121900000Y-111200000D03*
D14*
X137000000Y-146700000D03*
X143500000Y-146700000D03*
X137000000Y-151200000D03*
X143500000Y-151200000D03*
X84900000Y-153300000D03*
X91400000Y-153300000D03*
X84900000Y-157800000D03*
X91400000Y-157800000D03*
X93700000Y-163200000D03*
X100200000Y-163200000D03*
X93700000Y-167700000D03*
X100200000Y-167700000D03*
X93700000Y-143600000D03*
X100200000Y-143600000D03*
X93700000Y-148100000D03*
X100200000Y-148100000D03*
X101700000Y-153300000D03*
X108200000Y-153300000D03*
X101700000Y-157800000D03*
X108200000Y-157800000D03*
X142600000Y-157500000D03*
X149100000Y-157500000D03*
X142600000Y-162000000D03*
X149100000Y-162000000D03*
D15*
X92500000Y-112075000D03*
X92500000Y-110200000D03*
D16*
X126300000Y-73600000D03*
X116900000Y-148600000D03*
X114300000Y-135600000D03*
X117700000Y-164100000D03*
X99200000Y-73000000D03*
X105000000Y-153300000D03*
X128000000Y-147900000D03*
X94488000Y-72961500D03*
X96431100Y-70980300D03*
X126136400Y-70408800D03*
X115700000Y-147400000D03*
X95859600Y-72961500D03*
X97409000Y-72999600D03*
X126885700Y-72034400D03*
D17*
X140200000Y-155100000D02*
X142600000Y-157500000D01*
D18*
X116900000Y-147300000D02*
X116900000Y-148600000D01*
X114300000Y-144700000D02*
X116900000Y-147300000D01*
D17*
X108200000Y-157800000D02*
X110295000Y-157800000D01*
D18*
X122000000Y-107100000D02*
X117100000Y-107100000D01*
D17*
X140200000Y-149900000D02*
X140200000Y-155100000D01*
X91400000Y-157800000D02*
X99800000Y-157800000D01*
X117700000Y-165500000D02*
X117700000Y-164100000D01*
X100200000Y-167700000D02*
X98875000Y-166375000D01*
D18*
X117100000Y-107100000D02*
X114280000Y-109920000D01*
D17*
X99800000Y-157800000D02*
X101700000Y-157800000D01*
D18*
X114280000Y-109920000D02*
X114280000Y-111200000D01*
D17*
X145000000Y-159900000D02*
X145000000Y-164300000D01*
X100200000Y-148100000D02*
X105000000Y-152900000D01*
D18*
X99200000Y-73000000D02*
X125700000Y-73000000D01*
D17*
X110295000Y-157800000D02*
X114725000Y-162230000D01*
X142600000Y-157500000D02*
X145000000Y-159900000D01*
X142600000Y-166700000D02*
X118900000Y-166700000D01*
X118900000Y-166700000D02*
X117700000Y-165500000D01*
X137000000Y-146700000D02*
X140200000Y-149900000D01*
X98875000Y-158725000D02*
X99800000Y-157800000D01*
X98875000Y-166375000D02*
X98875000Y-158725000D01*
X145000000Y-164300000D02*
X142600000Y-166700000D01*
D18*
X114300000Y-135600000D02*
X114300000Y-144700000D01*
X126300000Y-102800000D02*
X122000000Y-107100000D01*
X126300000Y-73600000D02*
X126300000Y-102800000D01*
D17*
X105000000Y-152900000D02*
X105000000Y-153300000D01*
D18*
X125700000Y-73000000D02*
X126300000Y-73600000D01*
D17*
X121900000Y-111200000D02*
X121900000Y-141800000D01*
D19*
X130205000Y-154620000D02*
X130225000Y-154600000D01*
D17*
X121900000Y-141800000D02*
X128000000Y-147900000D01*
X119360000Y-111200000D02*
X119360000Y-141205000D01*
X119360000Y-141205000D02*
X130225000Y-152070000D01*
D18*
X117900000Y-161585000D02*
X117900000Y-112500000D01*
X114725000Y-164760000D02*
X117900000Y-161585000D01*
X116820000Y-111420000D02*
X116820000Y-111200000D01*
X96431100Y-70980300D02*
X96431100Y-70968900D01*
X95400000Y-73800000D02*
X94561500Y-72961500D01*
X97900000Y-69500000D02*
X125227600Y-69500000D01*
X95400000Y-107200000D02*
X95400000Y-73800000D01*
X101800000Y-113600000D02*
X95400000Y-107200000D01*
X116820000Y-111200000D02*
X114420000Y-113600000D01*
X125227600Y-69500000D02*
X126136400Y-70408800D01*
X94561500Y-72961500D02*
X94488000Y-72961500D01*
X117900000Y-112500000D02*
X116820000Y-111420000D01*
X96431100Y-70968900D02*
X97900000Y-69500000D01*
X114420000Y-113600000D02*
X101800000Y-113600000D01*
D17*
X115700000Y-147400000D02*
X92500000Y-124200000D01*
X92500000Y-124200000D02*
X92500000Y-112075000D01*
X94500000Y-69700000D02*
X95500000Y-70700000D01*
X95500000Y-72601900D02*
X95859600Y-72961500D01*
X92500000Y-70100000D02*
X92900000Y-69700000D01*
X95500000Y-70700000D02*
X95500000Y-72601900D01*
X92900000Y-69700000D02*
X94500000Y-69700000D01*
X92500000Y-110200000D02*
X92500000Y-70100000D01*
X97409000Y-72999600D02*
X98374200Y-72034400D01*
X98374200Y-72034400D02*
X126885700Y-72034400D01*
X110900000Y-143600000D02*
X100200000Y-143600000D01*
X116800000Y-155075000D02*
X116800000Y-149500000D01*
X114735000Y-157140000D02*
X116800000Y-155075000D01*
X116800000Y-149500000D02*
X110900000Y-143600000D01*
X93000000Y-154900000D02*
X110096302Y-154900000D01*
X91400000Y-153300000D02*
X93000000Y-154900000D01*
X115989800Y-153355200D02*
X114735000Y-154610000D01*
X115279800Y-150784800D02*
X115989800Y-151494800D01*
X110096302Y-154900000D02*
X114211502Y-150784800D01*
X114211502Y-150784800D02*
X115279800Y-150784800D01*
X115989800Y-151494800D02*
X115989800Y-153355200D01*
X104700000Y-158700000D02*
X104700000Y-160600000D01*
X111385000Y-155415000D02*
X110800000Y-156000000D01*
X114725000Y-152060000D02*
X111385000Y-155400000D01*
X110800000Y-156000000D02*
X107400000Y-156000000D01*
X102100000Y-163200000D02*
X100200000Y-163200000D01*
X111385000Y-155400000D02*
X111385000Y-155415000D01*
X107400000Y-156000000D02*
X104700000Y-158700000D01*
X104700000Y-160600000D02*
X102100000Y-163200000D01*
X111980000Y-149520000D02*
X114725000Y-149520000D01*
X108200000Y-153300000D02*
X111980000Y-149520000D01*
X128700000Y-158900000D02*
X129174800Y-158425200D01*
X134074800Y-158425200D02*
X137000000Y-155500000D01*
X129174800Y-158425200D02*
X134074800Y-158425200D01*
X137000000Y-155500000D02*
X137000000Y-151200000D01*
X130225000Y-162220000D02*
X128700000Y-160695000D01*
X128700000Y-160695000D02*
X128700000Y-158900000D01*
X133690000Y-159690000D02*
X136000000Y-162000000D01*
X130225000Y-159690000D02*
X133690000Y-159690000D01*
X136000000Y-162000000D02*
X142600000Y-162000000D01*
G04 #@! TA.AperFunction,Conductor*
G36*
X123925027Y-146670002D02*
G01*
X123946001Y-146686905D01*
X128801216Y-151542120D01*
X128835242Y-151604432D01*
X128834266Y-151662146D01*
X128791557Y-151830799D01*
X128771736Y-152070000D01*
X128791558Y-152309206D01*
X128850476Y-152541870D01*
X128850477Y-152541871D01*
X128850478Y-152541874D01*
X128946892Y-152761677D01*
X129078171Y-152962613D01*
X129078174Y-152962617D01*
X129078176Y-152962619D01*
X129240725Y-153139195D01*
X129240731Y-153139201D01*
X129240734Y-153139203D01*
X129240737Y-153139206D01*
X129364543Y-153235569D01*
X129406014Y-153293194D01*
X129409747Y-153364092D01*
X129374557Y-153425754D01*
X129364543Y-153434431D01*
X129240737Y-153530793D01*
X129240725Y-153530804D01*
X129078176Y-153707380D01*
X128946892Y-153908323D01*
X128850477Y-154128128D01*
X128850476Y-154128129D01*
X128791558Y-154360793D01*
X128791557Y-154360799D01*
X128791557Y-154360801D01*
X128780340Y-154496167D01*
X128771736Y-154600000D01*
X128791558Y-154839206D01*
X128850476Y-155071870D01*
X128850477Y-155071871D01*
X128850478Y-155071874D01*
X128946892Y-155291677D01*
X129078171Y-155492613D01*
X129078174Y-155492617D01*
X129078176Y-155492619D01*
X129240725Y-155669195D01*
X129240731Y-155669201D01*
X129240734Y-155669203D01*
X129240737Y-155669206D01*
X129364543Y-155765569D01*
X129406014Y-155823194D01*
X129409747Y-155894092D01*
X129374557Y-155955754D01*
X129364543Y-155964431D01*
X129240737Y-156060793D01*
X129240725Y-156060804D01*
X129078176Y-156237380D01*
X128946892Y-156438323D01*
X128850477Y-156658128D01*
X128850476Y-156658129D01*
X128791558Y-156890793D01*
X128791557Y-156890799D01*
X128791557Y-156890801D01*
X128771736Y-157130000D01*
X128791558Y-157369206D01*
X128850476Y-157601870D01*
X128850477Y-157601871D01*
X128850478Y-157601874D01*
X128888369Y-157688258D01*
X128902403Y-157720252D01*
X128911449Y-157790670D01*
X128880988Y-157854800D01*
X128857018Y-157875630D01*
X128770965Y-157933129D01*
X128296167Y-158407929D01*
X128207927Y-158496169D01*
X128207926Y-158496171D01*
X128138601Y-158599923D01*
X128090846Y-158715212D01*
X128066500Y-158837603D01*
X128066500Y-158837606D01*
X128066500Y-160632606D01*
X128066500Y-160757394D01*
X128090845Y-160879785D01*
X128138600Y-160995075D01*
X128207929Y-161098833D01*
X128207931Y-161098835D01*
X128801216Y-161692120D01*
X128835242Y-161754432D01*
X128834266Y-161812146D01*
X128791557Y-161980799D01*
X128781647Y-162100389D01*
X128771736Y-162220000D01*
X128779947Y-162319095D01*
X128791558Y-162459206D01*
X128850476Y-162691870D01*
X128850477Y-162691871D01*
X128850478Y-162691874D01*
X128946892Y-162911677D01*
X129078171Y-163112613D01*
X129078174Y-163112617D01*
X129078176Y-163112619D01*
X129240725Y-163289195D01*
X129240731Y-163289201D01*
X129375967Y-163394460D01*
X129417439Y-163452084D01*
X129421173Y-163522982D01*
X129385983Y-163584644D01*
X129375968Y-163593322D01*
X129250737Y-163690793D01*
X129250725Y-163690804D01*
X129088176Y-163867380D01*
X128956892Y-164068323D01*
X128860477Y-164288128D01*
X128860476Y-164288129D01*
X128801558Y-164520793D01*
X128801557Y-164520799D01*
X128801557Y-164520801D01*
X128781736Y-164760000D01*
X128801558Y-164999206D01*
X128860476Y-165231870D01*
X128860477Y-165231871D01*
X128860478Y-165231874D01*
X128956892Y-165451677D01*
X129088171Y-165652613D01*
X129088174Y-165652617D01*
X129088176Y-165652619D01*
X129250725Y-165829195D01*
X129250731Y-165829201D01*
X129440140Y-165976624D01*
X129651231Y-166090860D01*
X129878245Y-166168795D01*
X130114990Y-166208300D01*
X130114994Y-166208300D01*
X130355006Y-166208300D01*
X130355010Y-166208300D01*
X130591755Y-166168795D01*
X130818769Y-166090860D01*
X131029860Y-165976624D01*
X131191610Y-165850728D01*
X131257651Y-165824673D01*
X131327297Y-165838458D01*
X131378433Y-165887708D01*
X131395000Y-165950161D01*
X131395000Y-167474211D01*
X131374998Y-167542332D01*
X131321342Y-167588825D01*
X131269212Y-167600211D01*
X113701272Y-167629787D01*
X113633118Y-167609899D01*
X113586535Y-167556322D01*
X113575060Y-167503727D01*
X113575074Y-167474211D01*
X113575796Y-165958497D01*
X113595829Y-165890392D01*
X113649507Y-165843924D01*
X113719786Y-165833854D01*
X113779183Y-165859130D01*
X113930140Y-165976624D01*
X114141231Y-166090860D01*
X114368245Y-166168795D01*
X114604990Y-166208300D01*
X114604994Y-166208300D01*
X114845006Y-166208300D01*
X114845010Y-166208300D01*
X115081755Y-166168795D01*
X115308769Y-166090860D01*
X115519860Y-165976624D01*
X115709269Y-165829201D01*
X115871829Y-165652613D01*
X116003108Y-165451677D01*
X116099522Y-165231874D01*
X116158443Y-164999199D01*
X116178264Y-164760000D01*
X116159374Y-164532037D01*
X116173681Y-164462503D01*
X116195842Y-164432548D01*
X118528003Y-162100389D01*
X118616484Y-161967968D01*
X118646956Y-161894399D01*
X118677430Y-161820831D01*
X118708500Y-161664630D01*
X118708500Y-146776000D01*
X118728502Y-146707879D01*
X118782158Y-146661386D01*
X118834500Y-146650000D01*
X123856906Y-146650000D01*
X123925027Y-146670002D01*
G37*
G04 #@! TD.AperFunction*
G04 #@! TA.AperFunction,Conductor*
G36*
X117009533Y-155865537D02*
G01*
X117066368Y-155908084D01*
X117091179Y-155974604D01*
X117091500Y-155983593D01*
X117091500Y-161197916D01*
X117071498Y-161266037D01*
X117054595Y-161287012D01*
X116353703Y-161987902D01*
X116291391Y-162021927D01*
X116220575Y-162016862D01*
X116163740Y-161974315D01*
X116142464Y-161929737D01*
X116099048Y-161758292D01*
X116099045Y-161758285D01*
X116002667Y-161538565D01*
X115912956Y-161401252D01*
X115215690Y-162098517D01*
X115198381Y-162033919D01*
X115131502Y-161918080D01*
X115036920Y-161823498D01*
X114921081Y-161756619D01*
X114856480Y-161739309D01*
X115554678Y-161041111D01*
X115553683Y-161025091D01*
X115537153Y-161002120D01*
X115533421Y-160931222D01*
X115568612Y-160869561D01*
X115578619Y-160860889D01*
X115709269Y-160759201D01*
X115871829Y-160582613D01*
X116003108Y-160381677D01*
X116099522Y-160161874D01*
X116158443Y-159929199D01*
X116178264Y-159690000D01*
X116158443Y-159450801D01*
X116099522Y-159218126D01*
X116003108Y-158998323D01*
X115871829Y-158797387D01*
X115709269Y-158620799D01*
X115709265Y-158620796D01*
X115709262Y-158620793D01*
X115577608Y-158518322D01*
X115536137Y-158460697D01*
X115532404Y-158389799D01*
X115567593Y-158328137D01*
X115577594Y-158319471D01*
X115719269Y-158209201D01*
X115881829Y-158032613D01*
X116013108Y-157831677D01*
X116109522Y-157611874D01*
X116168443Y-157379199D01*
X116188264Y-157140000D01*
X116168443Y-156900801D01*
X116125734Y-156732145D01*
X116128401Y-156661199D01*
X116158779Y-156612123D01*
X116876408Y-155894494D01*
X116938717Y-155860472D01*
X117009533Y-155865537D01*
G37*
G04 #@! TD.AperFunction*
G04 #@! TA.AperFunction,Conductor*
G36*
X117033621Y-146670002D02*
G01*
X117080114Y-146723658D01*
X117091500Y-146776000D01*
X117091500Y-148591406D01*
X117071498Y-148659527D01*
X117017842Y-148706020D01*
X116947568Y-148716124D01*
X116882988Y-148686630D01*
X116876405Y-148680501D01*
X116308743Y-148112839D01*
X116274717Y-148050527D01*
X116279782Y-147979712D01*
X116308742Y-147934649D01*
X116336111Y-147907281D01*
X116433043Y-147753015D01*
X116493217Y-147581047D01*
X116513616Y-147400000D01*
X116493217Y-147218953D01*
X116433043Y-147046985D01*
X116433041Y-147046982D01*
X116433041Y-147046981D01*
X116336112Y-146892720D01*
X116336111Y-146892718D01*
X116308488Y-146865095D01*
X116274462Y-146802783D01*
X116279527Y-146731968D01*
X116322074Y-146675132D01*
X116388594Y-146650321D01*
X116397583Y-146650000D01*
X116965500Y-146650000D01*
X117033621Y-146670002D01*
G37*
G04 #@! TD.AperFunction*
M02*
