G04 #@! TF.GenerationSoftware,KiCad,Pcbnew,(5.1.2)-1*
G04 #@! TF.CreationDate,2022-09-26T02:33:09+09:00*
G04 #@! TF.ProjectId,gopher_pilot_xiao,676f7068-6572-45f7-9069-6c6f745f7869,rev?*
G04 #@! TF.SameCoordinates,Original*
G04 #@! TF.FileFunction,Soldermask,Bot*
G04 #@! TF.FilePolarity,Negative*
%FSLAX46Y46*%
G04 Gerber Fmt 4.6, Leading zero omitted, Abs format (unit mm)*
G04 Created by KiCad (PCBNEW (5.1.2)-1) date 2022-09-26 02:33:09*
%MOMM*%
%LPD*%
G04 APERTURE LIST*
%ADD10C,0.100000*%
G04 APERTURE END LIST*
D10*
G36*
X119496822Y-169341313D02*
G01*
X119657241Y-169389976D01*
X119805077Y-169468995D01*
X119934659Y-169575341D01*
X120041004Y-169704922D01*
X120041005Y-169704924D01*
X120120024Y-169852758D01*
X120168687Y-170013177D01*
X120181000Y-170138196D01*
X120181000Y-170621803D01*
X120168687Y-170746822D01*
X120120024Y-170907242D01*
X120049114Y-171039906D01*
X120041004Y-171055078D01*
X119934659Y-171184659D01*
X119805078Y-171291004D01*
X119805076Y-171291005D01*
X119657242Y-171370024D01*
X119496823Y-171418687D01*
X119330000Y-171435117D01*
X119163178Y-171418687D01*
X119002759Y-171370024D01*
X118854925Y-171291005D01*
X118854923Y-171291004D01*
X118725342Y-171184659D01*
X118618996Y-171055078D01*
X118610886Y-171039906D01*
X118539976Y-170907242D01*
X118491313Y-170746823D01*
X118479000Y-170621804D01*
X118479000Y-170138197D01*
X118491313Y-170013178D01*
X118539976Y-169852759D01*
X118618995Y-169704923D01*
X118725341Y-169575341D01*
X118854922Y-169468996D01*
X118870094Y-169460886D01*
X119002758Y-169389976D01*
X119163177Y-169341313D01*
X119330000Y-169324883D01*
X119496822Y-169341313D01*
X119496822Y-169341313D01*
G37*
G36*
X122036822Y-169341313D02*
G01*
X122197241Y-169389976D01*
X122345077Y-169468995D01*
X122474659Y-169575341D01*
X122581004Y-169704922D01*
X122581005Y-169704924D01*
X122660024Y-169852758D01*
X122708687Y-170013177D01*
X122721000Y-170138196D01*
X122721000Y-170621803D01*
X122708687Y-170746822D01*
X122660024Y-170907242D01*
X122589114Y-171039906D01*
X122581004Y-171055078D01*
X122474659Y-171184659D01*
X122345078Y-171291004D01*
X122345076Y-171291005D01*
X122197242Y-171370024D01*
X122036823Y-171418687D01*
X121870000Y-171435117D01*
X121703178Y-171418687D01*
X121542759Y-171370024D01*
X121394925Y-171291005D01*
X121394923Y-171291004D01*
X121265342Y-171184659D01*
X121158996Y-171055078D01*
X121150886Y-171039906D01*
X121079976Y-170907242D01*
X121031313Y-170746823D01*
X121019000Y-170621804D01*
X121019000Y-170138197D01*
X121031313Y-170013178D01*
X121079976Y-169852759D01*
X121158995Y-169704923D01*
X121265341Y-169575341D01*
X121394922Y-169468996D01*
X121410094Y-169460886D01*
X121542758Y-169389976D01*
X121703177Y-169341313D01*
X121870000Y-169324883D01*
X122036822Y-169341313D01*
X122036822Y-169341313D01*
G37*
G36*
X114416822Y-169341313D02*
G01*
X114577241Y-169389976D01*
X114725077Y-169468995D01*
X114854659Y-169575341D01*
X114961004Y-169704922D01*
X114961005Y-169704924D01*
X115040024Y-169852758D01*
X115088687Y-170013177D01*
X115101000Y-170138196D01*
X115101000Y-170621803D01*
X115088687Y-170746822D01*
X115040024Y-170907242D01*
X114969114Y-171039906D01*
X114961004Y-171055078D01*
X114854659Y-171184659D01*
X114725078Y-171291004D01*
X114725076Y-171291005D01*
X114577242Y-171370024D01*
X114416823Y-171418687D01*
X114250000Y-171435117D01*
X114083178Y-171418687D01*
X113922759Y-171370024D01*
X113774925Y-171291005D01*
X113774923Y-171291004D01*
X113645342Y-171184659D01*
X113538996Y-171055078D01*
X113530886Y-171039906D01*
X113459976Y-170907242D01*
X113411313Y-170746823D01*
X113399000Y-170621804D01*
X113399000Y-170138197D01*
X113411313Y-170013178D01*
X113459976Y-169852759D01*
X113538995Y-169704923D01*
X113645341Y-169575341D01*
X113774922Y-169468996D01*
X113790094Y-169460886D01*
X113922758Y-169389976D01*
X114083177Y-169341313D01*
X114250000Y-169324883D01*
X114416822Y-169341313D01*
X114416822Y-169341313D01*
G37*
G36*
X116956822Y-169341313D02*
G01*
X117117241Y-169389976D01*
X117265077Y-169468995D01*
X117394659Y-169575341D01*
X117501004Y-169704922D01*
X117501005Y-169704924D01*
X117580024Y-169852758D01*
X117628687Y-170013177D01*
X117641000Y-170138196D01*
X117641000Y-170621803D01*
X117628687Y-170746822D01*
X117580024Y-170907242D01*
X117509114Y-171039906D01*
X117501004Y-171055078D01*
X117394659Y-171184659D01*
X117265078Y-171291004D01*
X117265076Y-171291005D01*
X117117242Y-171370024D01*
X116956823Y-171418687D01*
X116790000Y-171435117D01*
X116623178Y-171418687D01*
X116462759Y-171370024D01*
X116314925Y-171291005D01*
X116314923Y-171291004D01*
X116185342Y-171184659D01*
X116078996Y-171055078D01*
X116070886Y-171039906D01*
X115999976Y-170907242D01*
X115951313Y-170746823D01*
X115939000Y-170621804D01*
X115939000Y-170138197D01*
X115951313Y-170013178D01*
X115999976Y-169852759D01*
X116078995Y-169704923D01*
X116185341Y-169575341D01*
X116314922Y-169468996D01*
X116330094Y-169460886D01*
X116462758Y-169389976D01*
X116623177Y-169341313D01*
X116790000Y-169324883D01*
X116956822Y-169341313D01*
X116956822Y-169341313D01*
G37*
G36*
X125933765Y-166178620D02*
G01*
X126099144Y-166247122D01*
X126123288Y-166257123D01*
X126293854Y-166371092D01*
X126438908Y-166516146D01*
X126552877Y-166686712D01*
X126631380Y-166876235D01*
X126671400Y-167077431D01*
X126671400Y-167282569D01*
X126631380Y-167483765D01*
X126552877Y-167673288D01*
X126438908Y-167843854D01*
X126293854Y-167988908D01*
X126123288Y-168102877D01*
X126123287Y-168102878D01*
X126123286Y-168102878D01*
X125933765Y-168181380D01*
X125732570Y-168221400D01*
X125527430Y-168221400D01*
X125326235Y-168181380D01*
X125136714Y-168102878D01*
X125136713Y-168102878D01*
X125136712Y-168102877D01*
X124966146Y-167988908D01*
X124821092Y-167843854D01*
X124707123Y-167673288D01*
X124628620Y-167483765D01*
X124588600Y-167282569D01*
X124588600Y-167077431D01*
X124628620Y-166876235D01*
X124707123Y-166686712D01*
X124821092Y-166516146D01*
X124966146Y-166371092D01*
X125136712Y-166257123D01*
X125160857Y-166247122D01*
X125326235Y-166178620D01*
X125527430Y-166138600D01*
X125732570Y-166138600D01*
X125933765Y-166178620D01*
X125933765Y-166178620D01*
G37*
G36*
X110693765Y-166178620D02*
G01*
X110859144Y-166247122D01*
X110883288Y-166257123D01*
X111053854Y-166371092D01*
X111198908Y-166516146D01*
X111312877Y-166686712D01*
X111391380Y-166876235D01*
X111431400Y-167077431D01*
X111431400Y-167282569D01*
X111391380Y-167483765D01*
X111312877Y-167673288D01*
X111198908Y-167843854D01*
X111053854Y-167988908D01*
X110883288Y-168102877D01*
X110883287Y-168102878D01*
X110883286Y-168102878D01*
X110693765Y-168181380D01*
X110492570Y-168221400D01*
X110287430Y-168221400D01*
X110086235Y-168181380D01*
X109896714Y-168102878D01*
X109896713Y-168102878D01*
X109896712Y-168102877D01*
X109726146Y-167988908D01*
X109581092Y-167843854D01*
X109467123Y-167673288D01*
X109388620Y-167483765D01*
X109348600Y-167282569D01*
X109348600Y-167077431D01*
X109388620Y-166876235D01*
X109467123Y-166686712D01*
X109581092Y-166516146D01*
X109726146Y-166371092D01*
X109896712Y-166257123D01*
X109920857Y-166247122D01*
X110086235Y-166178620D01*
X110287430Y-166138600D01*
X110492570Y-166138600D01*
X110693765Y-166178620D01*
X110693765Y-166178620D01*
G37*
G36*
X113233765Y-166178620D02*
G01*
X113399144Y-166247122D01*
X113423288Y-166257123D01*
X113593854Y-166371092D01*
X113738908Y-166516146D01*
X113852877Y-166686712D01*
X113931380Y-166876235D01*
X113971400Y-167077431D01*
X113971400Y-167282569D01*
X113931380Y-167483765D01*
X113852877Y-167673288D01*
X113738908Y-167843854D01*
X113593854Y-167988908D01*
X113423288Y-168102877D01*
X113423287Y-168102878D01*
X113423286Y-168102878D01*
X113233765Y-168181380D01*
X113032570Y-168221400D01*
X112827430Y-168221400D01*
X112626235Y-168181380D01*
X112436714Y-168102878D01*
X112436713Y-168102878D01*
X112436712Y-168102877D01*
X112266146Y-167988908D01*
X112121092Y-167843854D01*
X112007123Y-167673288D01*
X111928620Y-167483765D01*
X111888600Y-167282569D01*
X111888600Y-167077431D01*
X111928620Y-166876235D01*
X112007123Y-166686712D01*
X112121092Y-166516146D01*
X112266146Y-166371092D01*
X112436712Y-166257123D01*
X112460857Y-166247122D01*
X112626235Y-166178620D01*
X112827430Y-166138600D01*
X113032570Y-166138600D01*
X113233765Y-166178620D01*
X113233765Y-166178620D01*
G37*
G36*
X120863765Y-166178620D02*
G01*
X121029144Y-166247122D01*
X121053288Y-166257123D01*
X121223854Y-166371092D01*
X121368908Y-166516146D01*
X121482877Y-166686712D01*
X121561380Y-166876235D01*
X121601400Y-167077431D01*
X121601400Y-167282569D01*
X121561380Y-167483765D01*
X121482877Y-167673288D01*
X121368908Y-167843854D01*
X121223854Y-167988908D01*
X121053288Y-168102877D01*
X121053287Y-168102878D01*
X121053286Y-168102878D01*
X120863765Y-168181380D01*
X120662570Y-168221400D01*
X120457430Y-168221400D01*
X120256235Y-168181380D01*
X120066714Y-168102878D01*
X120066713Y-168102878D01*
X120066712Y-168102877D01*
X119896146Y-167988908D01*
X119751092Y-167843854D01*
X119637123Y-167673288D01*
X119558620Y-167483765D01*
X119518600Y-167282569D01*
X119518600Y-167077431D01*
X119558620Y-166876235D01*
X119637123Y-166686712D01*
X119751092Y-166516146D01*
X119896146Y-166371092D01*
X120066712Y-166257123D01*
X120090857Y-166247122D01*
X120256235Y-166178620D01*
X120457430Y-166138600D01*
X120662570Y-166138600D01*
X120863765Y-166178620D01*
X120863765Y-166178620D01*
G37*
G36*
X123403765Y-166178620D02*
G01*
X123569144Y-166247122D01*
X123593288Y-166257123D01*
X123763854Y-166371092D01*
X123908908Y-166516146D01*
X124022877Y-166686712D01*
X124101380Y-166876235D01*
X124141400Y-167077431D01*
X124141400Y-167282569D01*
X124101380Y-167483765D01*
X124022877Y-167673288D01*
X123908908Y-167843854D01*
X123763854Y-167988908D01*
X123593288Y-168102877D01*
X123593287Y-168102878D01*
X123593286Y-168102878D01*
X123403765Y-168181380D01*
X123202570Y-168221400D01*
X122997430Y-168221400D01*
X122796235Y-168181380D01*
X122606714Y-168102878D01*
X122606713Y-168102878D01*
X122606712Y-168102877D01*
X122436146Y-167988908D01*
X122291092Y-167843854D01*
X122177123Y-167673288D01*
X122098620Y-167483765D01*
X122058600Y-167282569D01*
X122058600Y-167077431D01*
X122098620Y-166876235D01*
X122177123Y-166686712D01*
X122291092Y-166516146D01*
X122436146Y-166371092D01*
X122606712Y-166257123D01*
X122630857Y-166247122D01*
X122796235Y-166178620D01*
X122997430Y-166138600D01*
X123202570Y-166138600D01*
X123403765Y-166178620D01*
X123403765Y-166178620D01*
G37*
G36*
X118313765Y-166168620D02*
G01*
X118503288Y-166247123D01*
X118673854Y-166361092D01*
X118818908Y-166506146D01*
X118932877Y-166676712D01*
X119011380Y-166866235D01*
X119051400Y-167067431D01*
X119051400Y-167272569D01*
X119011380Y-167473765D01*
X118932877Y-167663288D01*
X118818908Y-167833854D01*
X118673854Y-167978908D01*
X118503288Y-168092877D01*
X118503287Y-168092878D01*
X118503286Y-168092878D01*
X118313765Y-168171380D01*
X118112570Y-168211400D01*
X117907430Y-168211400D01*
X117706235Y-168171380D01*
X117516714Y-168092878D01*
X117516713Y-168092878D01*
X117516712Y-168092877D01*
X117346146Y-167978908D01*
X117201092Y-167833854D01*
X117087123Y-167663288D01*
X117008620Y-167473765D01*
X116968600Y-167272569D01*
X116968600Y-167067431D01*
X117008620Y-166866235D01*
X117087123Y-166676712D01*
X117201092Y-166506146D01*
X117346146Y-166361092D01*
X117516712Y-166247123D01*
X117706235Y-166168620D01*
X117907430Y-166128600D01*
X118112570Y-166128600D01*
X118313765Y-166168620D01*
X118313765Y-166168620D01*
G37*
G36*
X115783765Y-166168620D02*
G01*
X115973288Y-166247123D01*
X116143854Y-166361092D01*
X116288908Y-166506146D01*
X116402877Y-166676712D01*
X116481380Y-166866235D01*
X116521400Y-167067431D01*
X116521400Y-167272569D01*
X116481380Y-167473765D01*
X116402877Y-167663288D01*
X116288908Y-167833854D01*
X116143854Y-167978908D01*
X115973288Y-168092877D01*
X115973287Y-168092878D01*
X115973286Y-168092878D01*
X115783765Y-168171380D01*
X115582570Y-168211400D01*
X115377430Y-168211400D01*
X115176235Y-168171380D01*
X114986714Y-168092878D01*
X114986713Y-168092878D01*
X114986712Y-168092877D01*
X114816146Y-167978908D01*
X114671092Y-167833854D01*
X114557123Y-167663288D01*
X114478620Y-167473765D01*
X114438600Y-167272569D01*
X114438600Y-167067431D01*
X114478620Y-166866235D01*
X114557123Y-166676712D01*
X114671092Y-166506146D01*
X114816146Y-166361092D01*
X114986712Y-166247123D01*
X115176235Y-166168620D01*
X115377430Y-166128600D01*
X115582570Y-166128600D01*
X115783765Y-166168620D01*
X115783765Y-166168620D01*
G37*
G36*
X115773765Y-150678620D02*
G01*
X115939144Y-150747122D01*
X115963288Y-150757123D01*
X116133854Y-150871092D01*
X116278908Y-151016146D01*
X116392877Y-151186712D01*
X116471380Y-151376235D01*
X116511400Y-151577431D01*
X116511400Y-151782569D01*
X116471380Y-151983765D01*
X116392877Y-152173288D01*
X116278908Y-152343854D01*
X116133854Y-152488908D01*
X115963288Y-152602877D01*
X115963287Y-152602878D01*
X115963286Y-152602878D01*
X115773765Y-152681380D01*
X115572570Y-152721400D01*
X115367430Y-152721400D01*
X115166235Y-152681380D01*
X114976714Y-152602878D01*
X114976713Y-152602878D01*
X114976712Y-152602877D01*
X114806146Y-152488908D01*
X114661092Y-152343854D01*
X114547123Y-152173288D01*
X114468620Y-151983765D01*
X114428600Y-151782569D01*
X114428600Y-151577431D01*
X114468620Y-151376235D01*
X114547123Y-151186712D01*
X114661092Y-151016146D01*
X114806146Y-150871092D01*
X114976712Y-150757123D01*
X115000857Y-150747122D01*
X115166235Y-150678620D01*
X115367430Y-150638600D01*
X115572570Y-150638600D01*
X115773765Y-150678620D01*
X115773765Y-150678620D01*
G37*
G36*
X123393765Y-150678620D02*
G01*
X123559144Y-150747122D01*
X123583288Y-150757123D01*
X123753854Y-150871092D01*
X123898908Y-151016146D01*
X124012877Y-151186712D01*
X124091380Y-151376235D01*
X124131400Y-151577431D01*
X124131400Y-151782569D01*
X124091380Y-151983765D01*
X124012877Y-152173288D01*
X123898908Y-152343854D01*
X123753854Y-152488908D01*
X123583288Y-152602877D01*
X123583287Y-152602878D01*
X123583286Y-152602878D01*
X123393765Y-152681380D01*
X123192570Y-152721400D01*
X122987430Y-152721400D01*
X122786235Y-152681380D01*
X122596714Y-152602878D01*
X122596713Y-152602878D01*
X122596712Y-152602877D01*
X122426146Y-152488908D01*
X122281092Y-152343854D01*
X122167123Y-152173288D01*
X122088620Y-151983765D01*
X122048600Y-151782569D01*
X122048600Y-151577431D01*
X122088620Y-151376235D01*
X122167123Y-151186712D01*
X122281092Y-151016146D01*
X122426146Y-150871092D01*
X122596712Y-150757123D01*
X122620857Y-150747122D01*
X122786235Y-150678620D01*
X122987430Y-150638600D01*
X123192570Y-150638600D01*
X123393765Y-150678620D01*
X123393765Y-150678620D01*
G37*
G36*
X120863765Y-150678620D02*
G01*
X121029144Y-150747122D01*
X121053288Y-150757123D01*
X121223854Y-150871092D01*
X121368908Y-151016146D01*
X121482877Y-151186712D01*
X121561380Y-151376235D01*
X121601400Y-151577431D01*
X121601400Y-151782569D01*
X121561380Y-151983765D01*
X121482877Y-152173288D01*
X121368908Y-152343854D01*
X121223854Y-152488908D01*
X121053288Y-152602877D01*
X121053287Y-152602878D01*
X121053286Y-152602878D01*
X120863765Y-152681380D01*
X120662570Y-152721400D01*
X120457430Y-152721400D01*
X120256235Y-152681380D01*
X120066714Y-152602878D01*
X120066713Y-152602878D01*
X120066712Y-152602877D01*
X119896146Y-152488908D01*
X119751092Y-152343854D01*
X119637123Y-152173288D01*
X119558620Y-151983765D01*
X119518600Y-151782569D01*
X119518600Y-151577431D01*
X119558620Y-151376235D01*
X119637123Y-151186712D01*
X119751092Y-151016146D01*
X119896146Y-150871092D01*
X120066712Y-150757123D01*
X120090857Y-150747122D01*
X120256235Y-150678620D01*
X120457430Y-150638600D01*
X120662570Y-150638600D01*
X120863765Y-150678620D01*
X120863765Y-150678620D01*
G37*
G36*
X118303765Y-150678620D02*
G01*
X118469144Y-150747122D01*
X118493288Y-150757123D01*
X118663854Y-150871092D01*
X118808908Y-151016146D01*
X118922877Y-151186712D01*
X119001380Y-151376235D01*
X119041400Y-151577431D01*
X119041400Y-151782569D01*
X119001380Y-151983765D01*
X118922877Y-152173288D01*
X118808908Y-152343854D01*
X118663854Y-152488908D01*
X118493288Y-152602877D01*
X118493287Y-152602878D01*
X118493286Y-152602878D01*
X118303765Y-152681380D01*
X118102570Y-152721400D01*
X117897430Y-152721400D01*
X117696235Y-152681380D01*
X117506714Y-152602878D01*
X117506713Y-152602878D01*
X117506712Y-152602877D01*
X117336146Y-152488908D01*
X117191092Y-152343854D01*
X117077123Y-152173288D01*
X116998620Y-151983765D01*
X116958600Y-151782569D01*
X116958600Y-151577431D01*
X116998620Y-151376235D01*
X117077123Y-151186712D01*
X117191092Y-151016146D01*
X117336146Y-150871092D01*
X117506712Y-150757123D01*
X117530857Y-150747122D01*
X117696235Y-150678620D01*
X117897430Y-150638600D01*
X118102570Y-150638600D01*
X118303765Y-150678620D01*
X118303765Y-150678620D01*
G37*
G36*
X113243765Y-150678620D02*
G01*
X113409144Y-150747122D01*
X113433288Y-150757123D01*
X113603854Y-150871092D01*
X113748908Y-151016146D01*
X113862877Y-151186712D01*
X113941380Y-151376235D01*
X113981400Y-151577431D01*
X113981400Y-151782569D01*
X113941380Y-151983765D01*
X113862877Y-152173288D01*
X113748908Y-152343854D01*
X113603854Y-152488908D01*
X113433288Y-152602877D01*
X113433287Y-152602878D01*
X113433286Y-152602878D01*
X113243765Y-152681380D01*
X113042570Y-152721400D01*
X112837430Y-152721400D01*
X112636235Y-152681380D01*
X112446714Y-152602878D01*
X112446713Y-152602878D01*
X112446712Y-152602877D01*
X112276146Y-152488908D01*
X112131092Y-152343854D01*
X112017123Y-152173288D01*
X111938620Y-151983765D01*
X111898600Y-151782569D01*
X111898600Y-151577431D01*
X111938620Y-151376235D01*
X112017123Y-151186712D01*
X112131092Y-151016146D01*
X112276146Y-150871092D01*
X112446712Y-150757123D01*
X112470857Y-150747122D01*
X112636235Y-150678620D01*
X112837430Y-150638600D01*
X113042570Y-150638600D01*
X113243765Y-150678620D01*
X113243765Y-150678620D01*
G37*
G36*
X110693765Y-150678620D02*
G01*
X110859144Y-150747122D01*
X110883288Y-150757123D01*
X111053854Y-150871092D01*
X111198908Y-151016146D01*
X111312877Y-151186712D01*
X111391380Y-151376235D01*
X111431400Y-151577431D01*
X111431400Y-151782569D01*
X111391380Y-151983765D01*
X111312877Y-152173288D01*
X111198908Y-152343854D01*
X111053854Y-152488908D01*
X110883288Y-152602877D01*
X110883287Y-152602878D01*
X110883286Y-152602878D01*
X110693765Y-152681380D01*
X110492570Y-152721400D01*
X110287430Y-152721400D01*
X110086235Y-152681380D01*
X109896714Y-152602878D01*
X109896713Y-152602878D01*
X109896712Y-152602877D01*
X109726146Y-152488908D01*
X109581092Y-152343854D01*
X109467123Y-152173288D01*
X109388620Y-151983765D01*
X109348600Y-151782569D01*
X109348600Y-151577431D01*
X109388620Y-151376235D01*
X109467123Y-151186712D01*
X109581092Y-151016146D01*
X109726146Y-150871092D01*
X109896712Y-150757123D01*
X109920857Y-150747122D01*
X110086235Y-150678620D01*
X110287430Y-150638600D01*
X110492570Y-150638600D01*
X110693765Y-150678620D01*
X110693765Y-150678620D01*
G37*
G36*
X125933765Y-150668620D02*
G01*
X126123288Y-150747123D01*
X126293854Y-150861092D01*
X126438908Y-151006146D01*
X126552877Y-151176712D01*
X126631380Y-151366235D01*
X126671400Y-151567431D01*
X126671400Y-151772569D01*
X126631380Y-151973765D01*
X126552877Y-152163288D01*
X126438908Y-152333854D01*
X126293854Y-152478908D01*
X126123288Y-152592877D01*
X126123287Y-152592878D01*
X126123286Y-152592878D01*
X125933765Y-152671380D01*
X125732570Y-152711400D01*
X125527430Y-152711400D01*
X125326235Y-152671380D01*
X125136714Y-152592878D01*
X125136713Y-152592878D01*
X125136712Y-152592877D01*
X124966146Y-152478908D01*
X124821092Y-152333854D01*
X124707123Y-152163288D01*
X124628620Y-151973765D01*
X124588600Y-151772569D01*
X124588600Y-151567431D01*
X124628620Y-151366235D01*
X124707123Y-151176712D01*
X124821092Y-151006146D01*
X124966146Y-150861092D01*
X125136712Y-150747123D01*
X125326235Y-150668620D01*
X125527430Y-150628600D01*
X125732570Y-150628600D01*
X125933765Y-150668620D01*
X125933765Y-150668620D01*
G37*
G36*
X97815668Y-132430465D02*
G01*
X97854338Y-132442196D01*
X97889977Y-132461246D01*
X97921217Y-132486883D01*
X97946854Y-132518123D01*
X97965904Y-132553762D01*
X97977635Y-132592432D01*
X97982200Y-132638788D01*
X97982200Y-133290012D01*
X97977635Y-133336368D01*
X97965904Y-133375038D01*
X97946854Y-133410677D01*
X97921217Y-133441917D01*
X97889977Y-133467554D01*
X97854338Y-133486604D01*
X97815668Y-133498335D01*
X97769312Y-133502900D01*
X96693088Y-133502900D01*
X96646732Y-133498335D01*
X96608062Y-133486604D01*
X96572423Y-133467554D01*
X96541183Y-133441917D01*
X96515546Y-133410677D01*
X96496496Y-133375038D01*
X96484765Y-133336368D01*
X96480200Y-133290012D01*
X96480200Y-132638788D01*
X96484765Y-132592432D01*
X96496496Y-132553762D01*
X96515546Y-132518123D01*
X96541183Y-132486883D01*
X96572423Y-132461246D01*
X96608062Y-132442196D01*
X96646732Y-132430465D01*
X96693088Y-132425900D01*
X97769312Y-132425900D01*
X97815668Y-132430465D01*
X97815668Y-132430465D01*
G37*
G36*
X97815668Y-130555465D02*
G01*
X97854338Y-130567196D01*
X97889977Y-130586246D01*
X97921217Y-130611883D01*
X97946854Y-130643123D01*
X97965904Y-130678762D01*
X97977635Y-130717432D01*
X97982200Y-130763788D01*
X97982200Y-131415012D01*
X97977635Y-131461368D01*
X97965904Y-131500038D01*
X97946854Y-131535677D01*
X97921217Y-131566917D01*
X97889977Y-131592554D01*
X97854338Y-131611604D01*
X97815668Y-131623335D01*
X97769312Y-131627900D01*
X96693088Y-131627900D01*
X96646732Y-131623335D01*
X96608062Y-131611604D01*
X96572423Y-131592554D01*
X96541183Y-131566917D01*
X96515546Y-131535677D01*
X96496496Y-131500038D01*
X96484765Y-131461368D01*
X96480200Y-131415012D01*
X96480200Y-130763788D01*
X96484765Y-130717432D01*
X96496496Y-130678762D01*
X96515546Y-130643123D01*
X96541183Y-130611883D01*
X96572423Y-130586246D01*
X96608062Y-130567196D01*
X96646732Y-130555465D01*
X96693088Y-130550900D01*
X97769312Y-130550900D01*
X97815668Y-130555465D01*
X97815668Y-130555465D01*
G37*
G36*
X119623176Y-42170738D02*
G01*
X119729499Y-42191887D01*
X120029962Y-42316343D01*
X120300371Y-42497025D01*
X120530335Y-42726989D01*
X120711017Y-42997398D01*
X120835473Y-43297861D01*
X120898920Y-43616831D01*
X120898920Y-43942049D01*
X120835473Y-44261019D01*
X120711017Y-44561482D01*
X120530335Y-44831891D01*
X120300371Y-45061855D01*
X120029962Y-45242537D01*
X119729499Y-45366993D01*
X119623176Y-45388142D01*
X119410531Y-45430440D01*
X119085309Y-45430440D01*
X118872664Y-45388142D01*
X118766341Y-45366993D01*
X118465878Y-45242537D01*
X118195469Y-45061855D01*
X117965505Y-44831891D01*
X117784823Y-44561482D01*
X117660367Y-44261019D01*
X117596920Y-43942049D01*
X117596920Y-43616831D01*
X117660367Y-43297861D01*
X117784823Y-42997398D01*
X117965505Y-42726989D01*
X118195469Y-42497025D01*
X118465878Y-42316343D01*
X118766341Y-42191887D01*
X118872664Y-42170738D01*
X119085309Y-42128440D01*
X119410531Y-42128440D01*
X119623176Y-42170738D01*
X119623176Y-42170738D01*
G37*
M02*
