M48
; DRILL file {KiCad (5.1.2)-1} date 2022/09/26 2:33:12
; FORMAT={2:4/ absolute / inch / suppress leading zeros}
; #@! TF.CreationDate,2022-09-26T02:33:12+09:00
; #@! TF.GenerationSoftware,Kicad,Pcbnew,(5.1.2)-1
FMAT,2
INCH,TZ
T1C0.0118
T2C0.0394
T3C0.0400
T4C0.1260
%
G90
G05
T1
X37200Y-28725
X37740Y-28725
X37965Y-27945
X38350Y-28740
X39130Y-28765
X44465Y-64126
X45469Y-64138
X49232Y-63874
X49660Y-27720
X49675Y-28980
X49955Y-28360
T2
X44980Y-67079
X45980Y-67079
X46980Y-67079
X47980Y-67079
T3
X43461Y-59717
X43461Y-65819
X44461Y-65819
X44465Y-59717
X45461Y-59717
X45465Y-65815
X46457Y-59717
X46461Y-65815
X47465Y-59717
X47465Y-65819
X48461Y-59717
X48465Y-65819
X49461Y-59713
X49461Y-65819
T4
X46948Y-17236
T0
M30
