G04 #@! TF.GenerationSoftware,KiCad,Pcbnew,8.0.5-8.0.5-0~ubuntu24.04.1*
G04 #@! TF.CreationDate,2024-09-20T13:35:50+09:00*
G04 #@! TF.ProjectId,gopher_xiao_grove,676f7068-6572-45f7-9869-616f5f67726f,rev?*
G04 #@! TF.SameCoordinates,Original*
G04 #@! TF.FileFunction,Legend,Top*
G04 #@! TF.FilePolarity,Positive*
%FSLAX46Y46*%
G04 Gerber Fmt 4.6, Leading zero omitted, Abs format (unit mm)*
G04 Created by KiCad (PCBNEW 8.0.5-8.0.5-0~ubuntu24.04.1) date 2024-09-20 13:35:50*
%MOMM*%
%LPD*%
G01*
G04 APERTURE LIST*
%ADD10C,0.150000*%
%ADD11C,0.101600*%
%ADD12C,0.076200*%
%ADD13C,0.120000*%
%ADD14C,0.127000*%
%ADD15C,0.066040*%
G04 APERTURE END LIST*
D10*
X102566666Y-144854819D02*
X102566666Y-145569104D01*
X102566666Y-145569104D02*
X102519047Y-145711961D01*
X102519047Y-145711961D02*
X102423809Y-145807200D01*
X102423809Y-145807200D02*
X102280952Y-145854819D01*
X102280952Y-145854819D02*
X102185714Y-145854819D01*
X103566666Y-145854819D02*
X102995238Y-145854819D01*
X103280952Y-145854819D02*
X103280952Y-144854819D01*
X103280952Y-144854819D02*
X103185714Y-144997676D01*
X103185714Y-144997676D02*
X103090476Y-145092914D01*
X103090476Y-145092914D02*
X102995238Y-145140533D01*
X96199905Y-69992319D02*
X96199905Y-68992319D01*
X96199905Y-68992319D02*
X96438000Y-68992319D01*
X96438000Y-68992319D02*
X96580857Y-69039938D01*
X96580857Y-69039938D02*
X96676095Y-69135176D01*
X96676095Y-69135176D02*
X96723714Y-69230414D01*
X96723714Y-69230414D02*
X96771333Y-69420890D01*
X96771333Y-69420890D02*
X96771333Y-69563747D01*
X96771333Y-69563747D02*
X96723714Y-69754223D01*
X96723714Y-69754223D02*
X96676095Y-69849461D01*
X96676095Y-69849461D02*
X96580857Y-69944700D01*
X96580857Y-69944700D02*
X96438000Y-69992319D01*
X96438000Y-69992319D02*
X96199905Y-69992319D01*
X97723714Y-69992319D02*
X97152286Y-69992319D01*
X97438000Y-69992319D02*
X97438000Y-68992319D01*
X97438000Y-68992319D02*
X97342762Y-69135176D01*
X97342762Y-69135176D02*
X97247524Y-69230414D01*
X97247524Y-69230414D02*
X97152286Y-69278033D01*
X93073714Y-71892319D02*
X92502286Y-71892319D01*
X92788000Y-71892319D02*
X92788000Y-70892319D01*
X92788000Y-70892319D02*
X92692762Y-71035176D01*
X92692762Y-71035176D02*
X92597524Y-71130414D01*
X92597524Y-71130414D02*
X92502286Y-71178033D01*
X125462905Y-68963819D02*
X125462905Y-67963819D01*
X125462905Y-67963819D02*
X125701000Y-67963819D01*
X125701000Y-67963819D02*
X125843857Y-68011438D01*
X125843857Y-68011438D02*
X125939095Y-68106676D01*
X125939095Y-68106676D02*
X125986714Y-68201914D01*
X125986714Y-68201914D02*
X126034333Y-68392390D01*
X126034333Y-68392390D02*
X126034333Y-68535247D01*
X126034333Y-68535247D02*
X125986714Y-68725723D01*
X125986714Y-68725723D02*
X125939095Y-68820961D01*
X125939095Y-68820961D02*
X125843857Y-68916200D01*
X125843857Y-68916200D02*
X125701000Y-68963819D01*
X125701000Y-68963819D02*
X125462905Y-68963819D01*
X126415286Y-68059057D02*
X126462905Y-68011438D01*
X126462905Y-68011438D02*
X126558143Y-67963819D01*
X126558143Y-67963819D02*
X126796238Y-67963819D01*
X126796238Y-67963819D02*
X126891476Y-68011438D01*
X126891476Y-68011438D02*
X126939095Y-68059057D01*
X126939095Y-68059057D02*
X126986714Y-68154295D01*
X126986714Y-68154295D02*
X126986714Y-68249533D01*
X126986714Y-68249533D02*
X126939095Y-68392390D01*
X126939095Y-68392390D02*
X126367667Y-68963819D01*
X126367667Y-68963819D02*
X126986714Y-68963819D01*
X122336714Y-70863819D02*
X121765286Y-70863819D01*
X122051000Y-70863819D02*
X122051000Y-69863819D01*
X122051000Y-69863819D02*
X121955762Y-70006676D01*
X121955762Y-70006676D02*
X121860524Y-70101914D01*
X121860524Y-70101914D02*
X121765286Y-70149533D01*
D11*
X129945985Y-152797933D02*
X130665652Y-152797933D01*
X130665652Y-152797933D02*
X130750318Y-152755600D01*
X130750318Y-152755600D02*
X130792652Y-152713266D01*
X130792652Y-152713266D02*
X130834985Y-152628600D01*
X130834985Y-152628600D02*
X130834985Y-152459266D01*
X130834985Y-152459266D02*
X130792652Y-152374600D01*
X130792652Y-152374600D02*
X130750318Y-152332266D01*
X130750318Y-152332266D02*
X130665652Y-152289933D01*
X130665652Y-152289933D02*
X129945985Y-152289933D01*
X130834985Y-151400933D02*
X130834985Y-151908933D01*
X130834985Y-151654933D02*
X129945985Y-151654933D01*
X129945985Y-151654933D02*
X130072985Y-151739600D01*
X130072985Y-151739600D02*
X130157652Y-151824267D01*
X130157652Y-151824267D02*
X130199985Y-151908933D01*
D12*
X119692521Y-154898270D02*
X119721549Y-154811185D01*
X119721549Y-154811185D02*
X119721549Y-154666042D01*
X119721549Y-154666042D02*
X119692521Y-154607985D01*
X119692521Y-154607985D02*
X119663492Y-154578956D01*
X119663492Y-154578956D02*
X119605435Y-154549927D01*
X119605435Y-154549927D02*
X119547378Y-154549927D01*
X119547378Y-154549927D02*
X119489321Y-154578956D01*
X119489321Y-154578956D02*
X119460292Y-154607985D01*
X119460292Y-154607985D02*
X119431263Y-154666042D01*
X119431263Y-154666042D02*
X119402235Y-154782156D01*
X119402235Y-154782156D02*
X119373206Y-154840213D01*
X119373206Y-154840213D02*
X119344178Y-154869242D01*
X119344178Y-154869242D02*
X119286121Y-154898270D01*
X119286121Y-154898270D02*
X119228063Y-154898270D01*
X119228063Y-154898270D02*
X119170006Y-154869242D01*
X119170006Y-154869242D02*
X119140978Y-154840213D01*
X119140978Y-154840213D02*
X119111949Y-154782156D01*
X119111949Y-154782156D02*
X119111949Y-154637013D01*
X119111949Y-154637013D02*
X119140978Y-154549927D01*
X119692521Y-154056442D02*
X119721549Y-154114499D01*
X119721549Y-154114499D02*
X119721549Y-154230614D01*
X119721549Y-154230614D02*
X119692521Y-154288671D01*
X119692521Y-154288671D02*
X119634463Y-154317699D01*
X119634463Y-154317699D02*
X119402235Y-154317699D01*
X119402235Y-154317699D02*
X119344178Y-154288671D01*
X119344178Y-154288671D02*
X119315149Y-154230614D01*
X119315149Y-154230614D02*
X119315149Y-154114499D01*
X119315149Y-154114499D02*
X119344178Y-154056442D01*
X119344178Y-154056442D02*
X119402235Y-154027414D01*
X119402235Y-154027414D02*
X119460292Y-154027414D01*
X119460292Y-154027414D02*
X119518349Y-154317699D01*
X119692521Y-153533928D02*
X119721549Y-153591985D01*
X119721549Y-153591985D02*
X119721549Y-153708100D01*
X119721549Y-153708100D02*
X119692521Y-153766157D01*
X119692521Y-153766157D02*
X119634463Y-153795185D01*
X119634463Y-153795185D02*
X119402235Y-153795185D01*
X119402235Y-153795185D02*
X119344178Y-153766157D01*
X119344178Y-153766157D02*
X119315149Y-153708100D01*
X119315149Y-153708100D02*
X119315149Y-153591985D01*
X119315149Y-153591985D02*
X119344178Y-153533928D01*
X119344178Y-153533928D02*
X119402235Y-153504900D01*
X119402235Y-153504900D02*
X119460292Y-153504900D01*
X119460292Y-153504900D02*
X119518349Y-153795185D01*
X119692521Y-153011414D02*
X119721549Y-153069471D01*
X119721549Y-153069471D02*
X119721549Y-153185586D01*
X119721549Y-153185586D02*
X119692521Y-153243643D01*
X119692521Y-153243643D02*
X119634463Y-153272671D01*
X119634463Y-153272671D02*
X119402235Y-153272671D01*
X119402235Y-153272671D02*
X119344178Y-153243643D01*
X119344178Y-153243643D02*
X119315149Y-153185586D01*
X119315149Y-153185586D02*
X119315149Y-153069471D01*
X119315149Y-153069471D02*
X119344178Y-153011414D01*
X119344178Y-153011414D02*
X119402235Y-152982386D01*
X119402235Y-152982386D02*
X119460292Y-152982386D01*
X119460292Y-152982386D02*
X119518349Y-153272671D01*
X119721549Y-152459872D02*
X119111949Y-152459872D01*
X119692521Y-152459872D02*
X119721549Y-152517929D01*
X119721549Y-152517929D02*
X119721549Y-152634043D01*
X119721549Y-152634043D02*
X119692521Y-152692100D01*
X119692521Y-152692100D02*
X119663492Y-152721129D01*
X119663492Y-152721129D02*
X119605435Y-152750157D01*
X119605435Y-152750157D02*
X119431263Y-152750157D01*
X119431263Y-152750157D02*
X119373206Y-152721129D01*
X119373206Y-152721129D02*
X119344178Y-152692100D01*
X119344178Y-152692100D02*
X119315149Y-152634043D01*
X119315149Y-152634043D02*
X119315149Y-152517929D01*
X119315149Y-152517929D02*
X119344178Y-152459872D01*
X119315149Y-151908329D02*
X119721549Y-151908329D01*
X119315149Y-152169586D02*
X119634463Y-152169586D01*
X119634463Y-152169586D02*
X119692521Y-152140557D01*
X119692521Y-152140557D02*
X119721549Y-152082500D01*
X119721549Y-152082500D02*
X119721549Y-151995414D01*
X119721549Y-151995414D02*
X119692521Y-151937357D01*
X119692521Y-151937357D02*
X119663492Y-151908329D01*
X119721549Y-151618043D02*
X119315149Y-151618043D01*
X119111949Y-151618043D02*
X119140978Y-151647071D01*
X119140978Y-151647071D02*
X119170006Y-151618043D01*
X119170006Y-151618043D02*
X119140978Y-151589014D01*
X119140978Y-151589014D02*
X119111949Y-151618043D01*
X119111949Y-151618043D02*
X119170006Y-151618043D01*
X119315149Y-151327757D02*
X119721549Y-151327757D01*
X119373206Y-151327757D02*
X119344178Y-151298728D01*
X119344178Y-151298728D02*
X119315149Y-151240671D01*
X119315149Y-151240671D02*
X119315149Y-151153585D01*
X119315149Y-151153585D02*
X119344178Y-151095528D01*
X119344178Y-151095528D02*
X119402235Y-151066500D01*
X119402235Y-151066500D02*
X119721549Y-151066500D01*
X119721549Y-150689128D02*
X119692521Y-150747185D01*
X119692521Y-150747185D02*
X119663492Y-150776214D01*
X119663492Y-150776214D02*
X119605435Y-150805242D01*
X119605435Y-150805242D02*
X119431263Y-150805242D01*
X119431263Y-150805242D02*
X119373206Y-150776214D01*
X119373206Y-150776214D02*
X119344178Y-150747185D01*
X119344178Y-150747185D02*
X119315149Y-150689128D01*
X119315149Y-150689128D02*
X119315149Y-150602042D01*
X119315149Y-150602042D02*
X119344178Y-150543985D01*
X119344178Y-150543985D02*
X119373206Y-150514957D01*
X119373206Y-150514957D02*
X119431263Y-150485928D01*
X119431263Y-150485928D02*
X119605435Y-150485928D01*
X119605435Y-150485928D02*
X119663492Y-150514957D01*
X119663492Y-150514957D02*
X119692521Y-150543985D01*
X119692521Y-150543985D02*
X119721549Y-150602042D01*
X119721549Y-150602042D02*
X119721549Y-150689128D01*
X119111949Y-150282728D02*
X119721549Y-149876328D01*
X119111949Y-149876328D02*
X119721549Y-150282728D01*
X119721549Y-149644100D02*
X119111949Y-149644100D01*
X119547378Y-149382842D02*
X119547378Y-149092557D01*
X119721549Y-149440899D02*
X119111949Y-149237699D01*
X119111949Y-149237699D02*
X119721549Y-149034499D01*
X119111949Y-148715185D02*
X119111949Y-148599071D01*
X119111949Y-148599071D02*
X119140978Y-148541014D01*
X119140978Y-148541014D02*
X119199035Y-148482957D01*
X119199035Y-148482957D02*
X119315149Y-148453928D01*
X119315149Y-148453928D02*
X119518349Y-148453928D01*
X119518349Y-148453928D02*
X119634463Y-148482957D01*
X119634463Y-148482957D02*
X119692521Y-148541014D01*
X119692521Y-148541014D02*
X119721549Y-148599071D01*
X119721549Y-148599071D02*
X119721549Y-148715185D01*
X119721549Y-148715185D02*
X119692521Y-148773243D01*
X119692521Y-148773243D02*
X119634463Y-148831300D01*
X119634463Y-148831300D02*
X119518349Y-148860328D01*
X119518349Y-148860328D02*
X119315149Y-148860328D01*
X119315149Y-148860328D02*
X119199035Y-148831300D01*
X119199035Y-148831300D02*
X119140978Y-148773243D01*
X119140978Y-148773243D02*
X119111949Y-148715185D01*
D10*
X117400533Y-173781309D02*
X117543390Y-173828928D01*
X117543390Y-173828928D02*
X117591009Y-173876547D01*
X117591009Y-173876547D02*
X117638628Y-173971785D01*
X117638628Y-173971785D02*
X117638628Y-174114642D01*
X117638628Y-174114642D02*
X117591009Y-174209880D01*
X117591009Y-174209880D02*
X117543390Y-174257500D01*
X117543390Y-174257500D02*
X117448152Y-174305119D01*
X117448152Y-174305119D02*
X117067200Y-174305119D01*
X117067200Y-174305119D02*
X117067200Y-173305119D01*
X117067200Y-173305119D02*
X117400533Y-173305119D01*
X117400533Y-173305119D02*
X117495771Y-173352738D01*
X117495771Y-173352738D02*
X117543390Y-173400357D01*
X117543390Y-173400357D02*
X117591009Y-173495595D01*
X117591009Y-173495595D02*
X117591009Y-173590833D01*
X117591009Y-173590833D02*
X117543390Y-173686071D01*
X117543390Y-173686071D02*
X117495771Y-173733690D01*
X117495771Y-173733690D02*
X117400533Y-173781309D01*
X117400533Y-173781309D02*
X117067200Y-173781309D01*
X118067200Y-174305119D02*
X118067200Y-173638452D01*
X118067200Y-173828928D02*
X118114819Y-173733690D01*
X118114819Y-173733690D02*
X118162438Y-173686071D01*
X118162438Y-173686071D02*
X118257676Y-173638452D01*
X118257676Y-173638452D02*
X118352914Y-173638452D01*
X119114819Y-174305119D02*
X119114819Y-173305119D01*
X119114819Y-174257500D02*
X119019581Y-174305119D01*
X119019581Y-174305119D02*
X118829105Y-174305119D01*
X118829105Y-174305119D02*
X118733867Y-174257500D01*
X118733867Y-174257500D02*
X118686248Y-174209880D01*
X118686248Y-174209880D02*
X118638629Y-174114642D01*
X118638629Y-174114642D02*
X118638629Y-173828928D01*
X118638629Y-173828928D02*
X118686248Y-173733690D01*
X118686248Y-173733690D02*
X118733867Y-173686071D01*
X118733867Y-173686071D02*
X118829105Y-173638452D01*
X118829105Y-173638452D02*
X119019581Y-173638452D01*
X119019581Y-173638452D02*
X119114819Y-173686071D01*
X120114819Y-174305119D02*
X119543391Y-174305119D01*
X119829105Y-174305119D02*
X119829105Y-173305119D01*
X119829105Y-173305119D02*
X119733867Y-173447976D01*
X119733867Y-173447976D02*
X119638629Y-173543214D01*
X119638629Y-173543214D02*
X119543391Y-173590833D01*
D13*
X101100000Y-146900000D02*
X101100000Y-149550000D01*
X101100000Y-146900000D02*
X106950000Y-146900000D01*
X101100000Y-149800000D02*
X101100000Y-150400000D01*
X101100000Y-150650000D02*
X101100000Y-154150000D01*
X101100000Y-154400000D02*
X101100000Y-155000000D01*
X101100000Y-155300000D02*
X101100000Y-157950000D01*
X101100000Y-157950000D02*
X106950000Y-157950000D01*
X104400000Y-146400000D02*
X107400000Y-146400000D01*
X106950000Y-146900000D02*
X106950000Y-157950000D01*
X107400000Y-146400000D02*
X107400000Y-149400000D01*
X93288000Y-70287500D02*
X100588000Y-70287500D01*
X93288000Y-75787500D02*
X100588000Y-75787500D01*
X100588000Y-75787500D02*
X100588000Y-74637500D01*
X122551000Y-69259000D02*
X129851000Y-69259000D01*
X122551000Y-74759000D02*
X129851000Y-74759000D01*
X129851000Y-74759000D02*
X129851000Y-73609000D01*
X100915747Y-72936800D02*
G75*
G02*
X92929035Y-72936800I-3993356J0D01*
G01*
X92929035Y-72936800D02*
G75*
G02*
X100915747Y-72936800I3993356J0D01*
G01*
X129935247Y-71933500D02*
G75*
G02*
X121948535Y-71933500I-3993356J0D01*
G01*
X121948535Y-71933500D02*
G75*
G02*
X129935247Y-71933500I3993356J0D01*
G01*
D14*
X108648500Y-142786100D02*
X108648500Y-160583880D01*
X108648500Y-160583880D02*
X129646680Y-160583880D01*
D15*
X109283500Y-149136100D02*
X109283500Y-154851100D01*
X109283500Y-149136100D02*
X111823500Y-149136100D01*
X109283500Y-154851100D02*
X111823500Y-154851100D01*
X111823500Y-149136100D02*
X111823500Y-154851100D01*
X122996960Y-146469100D02*
X122996960Y-148247100D01*
X122996960Y-146469100D02*
X125666500Y-146469100D01*
X122996960Y-148247100D02*
X125666500Y-148247100D01*
X122996960Y-155105100D02*
X122996960Y-156883100D01*
X122996960Y-155105100D02*
X125666500Y-155105100D01*
X122996960Y-156883100D02*
X125666500Y-156883100D01*
D14*
X123718320Y-147180300D02*
X131071620Y-147180300D01*
X123718320Y-156179520D02*
X123718320Y-147180300D01*
D15*
X125666500Y-146469100D02*
X125666500Y-148247100D01*
X125666500Y-155105100D02*
X125666500Y-156883100D01*
X126428500Y-149136100D02*
X126428500Y-154216100D01*
X126428500Y-149136100D02*
X128968500Y-149136100D01*
X126428500Y-154216100D02*
X128968500Y-154216100D01*
X127063500Y-146469100D02*
X127063500Y-148247100D01*
X127063500Y-146469100D02*
X129730500Y-146469100D01*
X127063500Y-148247100D02*
X129730500Y-148247100D01*
X127063500Y-155105100D02*
X127063500Y-156883100D01*
X127063500Y-155105100D02*
X129730500Y-155105100D01*
X127063500Y-156883100D02*
X129730500Y-156883100D01*
X128968500Y-149136100D02*
X128968500Y-154216100D01*
D14*
X128976120Y-142786100D02*
X108648500Y-142786100D01*
X129646680Y-143456660D02*
X128976120Y-142786100D01*
X129646680Y-160583880D02*
X129646680Y-143456660D01*
D15*
X129730500Y-146469100D02*
X129730500Y-148247100D01*
X129730500Y-155105100D02*
X129730500Y-156883100D01*
D14*
X131071620Y-147185380D02*
X131071620Y-156179520D01*
X131071620Y-156179520D02*
X123718320Y-156179520D01*
D13*
X105167200Y-161296300D02*
X132567200Y-161296300D01*
X105167200Y-188596300D02*
X105167200Y-161296300D01*
X105589200Y-164591300D02*
X128689200Y-164591300D01*
X105589200Y-181191300D02*
X105589200Y-164591300D01*
X113868200Y-161785300D02*
X113868200Y-164198300D01*
X113868200Y-161785300D02*
X123647200Y-161785300D01*
X123647200Y-161785300D02*
X123647200Y-164198300D01*
X123647200Y-164198300D02*
X113868200Y-164198300D01*
X128689200Y-164591300D02*
X131775200Y-164591300D01*
X128689200Y-181191300D02*
X105589200Y-181191300D01*
X128689200Y-181191300D02*
X132029200Y-181216300D01*
X132029200Y-164579300D02*
X131775200Y-164591300D01*
X132029200Y-181216300D02*
X132029200Y-164579300D01*
X132567200Y-161296300D02*
X132567200Y-188596300D01*
X132567200Y-188596300D02*
X105167200Y-188596300D01*
G36*
X92732578Y-69609497D02*
G01*
X92733319Y-69611077D01*
X92897173Y-69977339D01*
X92901167Y-69992141D01*
X92905219Y-70030046D01*
X92898976Y-70059679D01*
X92883049Y-70087379D01*
X92863847Y-70106072D01*
X92839497Y-70119217D01*
X92828589Y-70123512D01*
X92632791Y-70174590D01*
X92595642Y-70169449D01*
X92573009Y-70139546D01*
X92571782Y-70121251D01*
X92578395Y-70066971D01*
X92578585Y-70059772D01*
X92626103Y-69667756D01*
X92627043Y-69667870D01*
X92628183Y-69656353D01*
X92642221Y-69615250D01*
X92667001Y-69587100D01*
X92704428Y-69584717D01*
X92732578Y-69609497D01*
G37*
G36*
X92820874Y-69537475D02*
G01*
X92872458Y-69586257D01*
X92878429Y-69597840D01*
X93441621Y-70844759D01*
X93451433Y-70915074D01*
X93437712Y-70956395D01*
X93310539Y-71192398D01*
X93306345Y-71211381D01*
X93157039Y-71564504D01*
X93157038Y-71564506D01*
X92984320Y-72224900D01*
X92984319Y-72224903D01*
X92933521Y-72610965D01*
X92933519Y-72610982D01*
X92918279Y-72898003D01*
X92918279Y-72898005D01*
X92925899Y-73172305D01*
X92966541Y-73530467D01*
X92999558Y-73738733D01*
X92999561Y-73738749D01*
X93075758Y-74046076D01*
X93192601Y-74399141D01*
X93334839Y-74714099D01*
X93418655Y-74879191D01*
X93553287Y-75107811D01*
X93751398Y-75387198D01*
X94002865Y-75679305D01*
X94002878Y-75679319D01*
X94292410Y-75968851D01*
X94292422Y-75968862D01*
X94736914Y-76311755D01*
X94736920Y-76311759D01*
X95328737Y-76634337D01*
X95328737Y-76634338D01*
X95669105Y-76761341D01*
X95743891Y-76783776D01*
X96154420Y-76872565D01*
X96216773Y-76906516D01*
X96250873Y-76968787D01*
X96253784Y-76995266D01*
X96265819Y-80347844D01*
X96246062Y-80416036D01*
X96192573Y-80462721D01*
X96122336Y-80473077D01*
X96065340Y-80449926D01*
X95992875Y-80396820D01*
X95962049Y-80364376D01*
X95912010Y-80288214D01*
X95646216Y-79994734D01*
X94387029Y-78647228D01*
X94372362Y-78628173D01*
X93189590Y-76743288D01*
X93181416Y-76728022D01*
X93120060Y-76591674D01*
X93113921Y-76574968D01*
X92872556Y-75740245D01*
X92505636Y-74493725D01*
X92500791Y-74466581D01*
X92342465Y-72106768D01*
X92343000Y-72084001D01*
X92504209Y-70675943D01*
X92504316Y-70675037D01*
X92583770Y-70022840D01*
X92583488Y-70019326D01*
X92625515Y-69672610D01*
X92631360Y-69647052D01*
X92644360Y-69608985D01*
X92685304Y-69550984D01*
X92751106Y-69524326D01*
X92820874Y-69537475D01*
G37*
G36*
X104661611Y-61640659D02*
G01*
X104664886Y-61640891D01*
X105827488Y-61762206D01*
X105835657Y-61763768D01*
X106976305Y-62084260D01*
X106982952Y-62086656D01*
X108278565Y-62662484D01*
X108286506Y-62666940D01*
X110551157Y-64230688D01*
X110559975Y-64238497D01*
X112263904Y-66159842D01*
X112270820Y-66169945D01*
X113411015Y-68387130D01*
X113414909Y-68397389D01*
X114039485Y-70837535D01*
X114041009Y-70848927D01*
X114078935Y-73301506D01*
X114077911Y-73312258D01*
X113553254Y-75830613D01*
X113549169Y-75842417D01*
X112403998Y-78147927D01*
X112397499Y-78157804D01*
X110610157Y-80267357D01*
X110603917Y-80273510D01*
X109717815Y-81003093D01*
X109713555Y-81006230D01*
X108369568Y-81888300D01*
X108364313Y-81891302D01*
X107184434Y-82471778D01*
X107174331Y-82475436D01*
X105642323Y-82846278D01*
X105634771Y-82847491D01*
X103333700Y-83034817D01*
X103325788Y-83034821D01*
X100938892Y-82842452D01*
X100930276Y-82840975D01*
X98907643Y-82304977D01*
X98897809Y-82301200D01*
X97877269Y-81777071D01*
X97870690Y-81773006D01*
X95981666Y-80388606D01*
X95969679Y-80375989D01*
X95912014Y-80288219D01*
X95646240Y-79994760D01*
X95491883Y-79829576D01*
X95486733Y-79823027D01*
X93176785Y-76307115D01*
X93170475Y-76293143D01*
X93160413Y-76256374D01*
X93161837Y-76226124D01*
X93172425Y-76198096D01*
X93191358Y-76174460D01*
X93218057Y-76156919D01*
X93243635Y-76148889D01*
X93271328Y-76148139D01*
X93283013Y-76149228D01*
X95192081Y-76562119D01*
X95205174Y-76566988D01*
X95328740Y-76634340D01*
X95669079Y-76761332D01*
X95669111Y-76761343D01*
X95743871Y-76783771D01*
X96532699Y-76954380D01*
X97081336Y-76969620D01*
X97596957Y-76918820D01*
X97596966Y-76918818D01*
X98249732Y-76763882D01*
X98950772Y-76461623D01*
X98950776Y-76461620D01*
X99593398Y-75996801D01*
X100202996Y-75364343D01*
X100202999Y-75364339D01*
X100408741Y-75054457D01*
X100408746Y-75054449D01*
X100685597Y-74508365D01*
X100845619Y-74038460D01*
X101010719Y-72796396D01*
X100921819Y-72059795D01*
X100698301Y-71358764D01*
X100698299Y-71358759D01*
X100408740Y-70810121D01*
X99773740Y-70025260D01*
X99773733Y-70025253D01*
X99001583Y-69428362D01*
X99001578Y-69428359D01*
X98008446Y-69032121D01*
X98008437Y-69032119D01*
X97327723Y-68907660D01*
X96540318Y-68927980D01*
X95846902Y-69060059D01*
X95846896Y-69060061D01*
X95125540Y-69339459D01*
X94472757Y-69735701D01*
X93845380Y-70342760D01*
X93845378Y-70342762D01*
X93532960Y-70779640D01*
X93315019Y-71184085D01*
X93311880Y-71198290D01*
X93266354Y-71305963D01*
X93239642Y-71332287D01*
X93202140Y-71332013D01*
X93180049Y-71313448D01*
X93178583Y-71311176D01*
X93174311Y-71302931D01*
X92605149Y-69891229D01*
X92601950Y-69867011D01*
X92626103Y-69667756D01*
X92627043Y-69667870D01*
X92628183Y-69656354D01*
X93047763Y-68427765D01*
X93047887Y-68427623D01*
X93047820Y-68427600D01*
X93358822Y-67527461D01*
X93362357Y-67519568D01*
X93879031Y-66594595D01*
X93883368Y-66588106D01*
X94340542Y-66009694D01*
X94340680Y-66009520D01*
X95619208Y-64406928D01*
X95628799Y-64397780D01*
X97746466Y-62866388D01*
X97758184Y-62860135D01*
X100301413Y-61919697D01*
X100313215Y-61916932D01*
X103354183Y-61592832D01*
X103361186Y-61592589D01*
X104661611Y-61640659D01*
G37*
G36*
X131406553Y-60324989D02*
G01*
X131407221Y-60325013D01*
X132023358Y-60351540D01*
X132031475Y-60355319D01*
X132081555Y-60356235D01*
X132115935Y-60371218D01*
X132129651Y-60406123D01*
X132120079Y-60434331D01*
X126611109Y-67895909D01*
X126578983Y-67915259D01*
X126561311Y-67914693D01*
X126485128Y-67898183D01*
X126477426Y-67901089D01*
X126459853Y-67904241D01*
X125590307Y-67899279D01*
X125590297Y-67899280D01*
X124861319Y-68026280D01*
X124076462Y-68331079D01*
X123667511Y-68605406D01*
X123667510Y-68605407D01*
X123319538Y-68882261D01*
X123319528Y-68882269D01*
X123019825Y-69174353D01*
X122809003Y-69405496D01*
X122808995Y-69405505D01*
X122582944Y-69733152D01*
X122582944Y-69733153D01*
X122410232Y-70027777D01*
X122410223Y-70027793D01*
X122217180Y-70396099D01*
X122016520Y-71117456D01*
X121958099Y-71506088D01*
X121937780Y-72049648D01*
X121937780Y-72049649D01*
X121968259Y-72410315D01*
X122011438Y-72694789D01*
X122011442Y-72694813D01*
X122120657Y-73151992D01*
X122275598Y-73555855D01*
X122275598Y-73555857D01*
X122410218Y-73825097D01*
X122532135Y-74040991D01*
X122641359Y-74216259D01*
X122641367Y-74216270D01*
X122966479Y-74635359D01*
X123334781Y-74996041D01*
X123804678Y-75341478D01*
X123804702Y-75341494D01*
X124075041Y-75503696D01*
X124092114Y-75501362D01*
X124092174Y-75501801D01*
X124099850Y-75498377D01*
X124120596Y-75502374D01*
X124188555Y-75531720D01*
X124214675Y-75558632D01*
X124214115Y-75596130D01*
X124212443Y-75599617D01*
X124211248Y-75601876D01*
X124203884Y-75612261D01*
X123347345Y-76537019D01*
X123347012Y-76537374D01*
X123345967Y-76538480D01*
X123345609Y-76538856D01*
X122926035Y-76973596D01*
X122926032Y-76973598D01*
X122910434Y-76991660D01*
X122876925Y-77008501D01*
X122841322Y-76996716D01*
X122835872Y-76991197D01*
X122793079Y-76940388D01*
X122793077Y-76940386D01*
X122777666Y-76922087D01*
X122766324Y-76886340D01*
X122766530Y-76884622D01*
X122511899Y-76357644D01*
X122511750Y-76357333D01*
X122133310Y-75559815D01*
X121637823Y-74528395D01*
X121634299Y-74518425D01*
X121445642Y-73718521D01*
X121444691Y-73713177D01*
X121275083Y-72315806D01*
X121274762Y-72311785D01*
X121229120Y-71125080D01*
X121213969Y-70731161D01*
X121214012Y-70726505D01*
X121249438Y-70101497D01*
X121287290Y-69415099D01*
X121288613Y-69406180D01*
X121599909Y-68130629D01*
X121599960Y-68130420D01*
X121841282Y-67160048D01*
X121925991Y-66813738D01*
X121931015Y-66801121D01*
X123209538Y-64557388D01*
X123217625Y-64546838D01*
X125123835Y-62658326D01*
X125133068Y-62651144D01*
X127667597Y-61126881D01*
X127673741Y-61123752D01*
X128812677Y-60641409D01*
X128819701Y-60639043D01*
X129799819Y-60389604D01*
X129808627Y-60388200D01*
X130751309Y-60325018D01*
X130751806Y-60324987D01*
X130972987Y-60312420D01*
X130977207Y-60312362D01*
X131406553Y-60324989D01*
G37*
G36*
X132023358Y-60351540D02*
G01*
X132031475Y-60355319D01*
X132593746Y-60365605D01*
X132597496Y-60365818D01*
X134192286Y-60517703D01*
X134199262Y-60518880D01*
X136364051Y-61047432D01*
X136375515Y-61051813D01*
X138224328Y-62039362D01*
X138233607Y-62045793D01*
X139979668Y-63581821D01*
X139983952Y-63586087D01*
X140499961Y-64167541D01*
X140504784Y-64173967D01*
X141896495Y-66385523D01*
X141901508Y-66396126D01*
X142736015Y-68899645D01*
X142738343Y-68910868D01*
X142958363Y-71424666D01*
X142958164Y-71435073D01*
X142657241Y-73819701D01*
X142654713Y-73830212D01*
X141835490Y-76098245D01*
X141830581Y-76108159D01*
X140475544Y-78208972D01*
X140467566Y-78218451D01*
X138607298Y-79932121D01*
X138597231Y-79939278D01*
X136354552Y-81140262D01*
X136344477Y-81144294D01*
X134314832Y-81705417D01*
X134305250Y-81707066D01*
X131600717Y-81899343D01*
X131589066Y-81898779D01*
X128958674Y-81453636D01*
X128948183Y-81450628D01*
X126591414Y-80479599D01*
X126581230Y-80473900D01*
X124640340Y-79060040D01*
X124640187Y-79059928D01*
X124482489Y-78944118D01*
X124474015Y-78936190D01*
X122793079Y-76940389D01*
X122793079Y-76940388D01*
X122793078Y-76940387D01*
X122777666Y-76922088D01*
X122766323Y-76886342D01*
X122766530Y-76884620D01*
X122734683Y-76818713D01*
X122732530Y-76781272D01*
X122743235Y-76763689D01*
X123960159Y-75479545D01*
X123994410Y-75464268D01*
X124020937Y-75471233D01*
X124075042Y-75503696D01*
X124092114Y-75501362D01*
X124092174Y-75501801D01*
X124099850Y-75498377D01*
X124120596Y-75502374D01*
X124647961Y-75730100D01*
X124647960Y-75730100D01*
X125219459Y-75877420D01*
X125737616Y-75971399D01*
X125737620Y-75971400D01*
X126215137Y-75971400D01*
X126215139Y-75971399D01*
X127010166Y-75829158D01*
X127510531Y-75676763D01*
X127510535Y-75676761D01*
X128028706Y-75407515D01*
X128587496Y-75031602D01*
X129006598Y-74640440D01*
X129006601Y-74640437D01*
X129504437Y-73962262D01*
X129504442Y-73962255D01*
X129854960Y-73139298D01*
X130004818Y-72433190D01*
X130047999Y-71826118D01*
X129974339Y-71160639D01*
X129974339Y-71160636D01*
X129809239Y-70561199D01*
X129501901Y-69903342D01*
X128889758Y-69100699D01*
X128889755Y-69100695D01*
X128211581Y-68531740D01*
X127076199Y-68026279D01*
X127076200Y-68026279D01*
X126485128Y-67898183D01*
X126477426Y-67901089D01*
X126459853Y-67904241D01*
X126207464Y-67902801D01*
X126172899Y-67888252D01*
X126162889Y-67873526D01*
X126162692Y-67873078D01*
X126159659Y-67842976D01*
X126167445Y-67807049D01*
X126174381Y-67790520D01*
X126174563Y-67790243D01*
X126176077Y-67788070D01*
X131655189Y-60357352D01*
X131687303Y-60337982D01*
X131696735Y-60337477D01*
X132023358Y-60351540D01*
G37*
G36*
X118004495Y-90082802D02*
G01*
X118028151Y-90111903D01*
X118030123Y-90128562D01*
X117993160Y-90810075D01*
X117952527Y-91737347D01*
X117952520Y-91737498D01*
X117906799Y-92712227D01*
X117866212Y-93821079D01*
X117866023Y-93823946D01*
X117741707Y-95125461D01*
X117741708Y-95125462D01*
X117711384Y-95453955D01*
X117710920Y-95457530D01*
X117566481Y-96321630D01*
X117566415Y-96322018D01*
X117491071Y-96751479D01*
X117488502Y-96760706D01*
X117259980Y-97350845D01*
X117257996Y-97355297D01*
X117217442Y-97435339D01*
X117198180Y-97455659D01*
X116497541Y-97859019D01*
X116480279Y-97865023D01*
X115554902Y-98002209D01*
X115539409Y-98002030D01*
X114689485Y-97855833D01*
X114665552Y-97844441D01*
X114183292Y-97423072D01*
X114168848Y-97401058D01*
X114118531Y-97243248D01*
X114116565Y-97234209D01*
X113992891Y-96205062D01*
X113992581Y-96201187D01*
X113936881Y-94817540D01*
X113936937Y-94812510D01*
X114025602Y-93395139D01*
X114025820Y-93392662D01*
X114169660Y-92127754D01*
X114173219Y-92114198D01*
X114554777Y-91212334D01*
X114577178Y-91188015D01*
X115366496Y-90774798D01*
X115377787Y-90770562D01*
X116070369Y-90604342D01*
X117106706Y-90327478D01*
X117695984Y-90159838D01*
X117967190Y-90078952D01*
X118004495Y-90082802D01*
G37*
G36*
X119514317Y-90278733D02*
G01*
X121781350Y-91125002D01*
X121794184Y-91132142D01*
X122322259Y-91540402D01*
X122336996Y-91559110D01*
X122605628Y-92157856D01*
X122609349Y-92170447D01*
X122785940Y-93315763D01*
X122786272Y-93318390D01*
X122888981Y-94353094D01*
X122889025Y-94353554D01*
X122977660Y-95341202D01*
X122977842Y-95346765D01*
X122954416Y-96317112D01*
X122952682Y-96328900D01*
X122778815Y-96962272D01*
X122771286Y-96977990D01*
X122450701Y-97421877D01*
X122440198Y-97432522D01*
X122009435Y-97752518D01*
X121992534Y-97760610D01*
X121033750Y-98009645D01*
X121013789Y-98010619D01*
X120072465Y-97861988D01*
X120048099Y-97850689D01*
X119418402Y-97307421D01*
X119406583Y-97292234D01*
X119375144Y-97229357D01*
X119371580Y-97219897D01*
X119154983Y-96395702D01*
X119153571Y-96387635D01*
X119052481Y-95262999D01*
X119052300Y-95259848D01*
X119017299Y-93873100D01*
X119017291Y-93870957D01*
X119042647Y-92501711D01*
X119042766Y-92499094D01*
X119125807Y-91347424D01*
X119126482Y-91342118D01*
X119276105Y-90525423D01*
X119286501Y-90503076D01*
X119459379Y-90293462D01*
X119492496Y-90275863D01*
X119514317Y-90278733D01*
G37*
M02*
