G04 #@! TF.GenerationSoftware,KiCad,Pcbnew,8.0.5-8.0.5-0~ubuntu24.04.1*
G04 #@! TF.CreationDate,2024-09-20T13:35:51+09:00*
G04 #@! TF.ProjectId,gopher_xiao_grove,676f7068-6572-45f7-9869-616f5f67726f,rev?*
G04 #@! TF.SameCoordinates,Original*
G04 #@! TF.FileFunction,Profile,NP*
%FSLAX46Y46*%
G04 Gerber Fmt 4.6, Leading zero omitted, Abs format (unit mm)*
G04 Created by KiCad (PCBNEW 8.0.5-8.0.5-0~ubuntu24.04.1) date 2024-09-20 13:35:51*
%MOMM*%
%LPD*%
G01*
G04 APERTURE LIST*
G04 #@! TA.AperFunction,Profile*
%ADD10C,0.050000*%
G04 #@! TD*
G04 APERTURE END LIST*
D10*
X154825700Y-75374500D02*
X154393900Y-75615800D01*
X162534600Y-123317000D02*
X162204400Y-123482100D01*
X138531600Y-55664100D02*
X141859000Y-57327800D01*
X81216500Y-153873200D02*
X81153000Y-152450800D01*
X157543500Y-144640300D02*
X156629100Y-151472900D01*
X85369400Y-178790600D02*
X84340700Y-177482500D01*
X155663900Y-80949800D02*
X155917900Y-82473800D01*
X142240000Y-173723300D02*
X141566900Y-173748700D01*
X86448900Y-179590700D02*
X85686900Y-179082700D01*
X157772100Y-134747000D02*
X157810200Y-140208000D01*
X156641800Y-94513400D02*
X156768800Y-101396800D01*
X92163900Y-178562000D02*
X91643200Y-178993800D01*
X156629100Y-74333100D02*
X155638500Y-74930000D01*
X144983200Y-59410600D02*
X146646900Y-58737500D01*
X107873800Y-178142900D02*
X106210100Y-177812700D01*
X128422400Y-53086000D02*
X130581400Y-53327300D01*
X81254600Y-77685900D02*
X80518000Y-77279500D01*
X81381600Y-124701300D02*
X81394300Y-122732800D01*
X74777600Y-68732400D02*
X75107800Y-66319400D01*
X129413000Y-177723800D02*
X127673100Y-178015900D01*
X151472900Y-179209700D02*
X150787100Y-179489100D01*
X115049300Y-178523900D02*
X111493300Y-178485800D01*
X158115000Y-72974200D02*
X157086300Y-73914000D01*
X86588600Y-171640500D02*
X87871300Y-170535600D01*
X150787100Y-179489100D02*
X149580600Y-179730400D01*
X88315800Y-170256200D02*
X89293700Y-169722800D01*
X80149700Y-96634300D02*
X80111600Y-92456000D01*
X157289500Y-121793000D02*
X157200600Y-122123200D01*
X160083500Y-69850000D02*
X159308800Y-71437500D01*
X143014700Y-174053500D02*
X142240000Y-173723300D01*
X91643200Y-178993800D02*
X90893900Y-179527200D01*
X148755100Y-58127900D02*
X150901400Y-57912000D01*
X98526600Y-175450500D02*
X97574100Y-175171100D01*
X140055600Y-174434500D02*
X138569700Y-175094900D01*
X157200600Y-122123200D02*
X157200600Y-123088400D01*
X74714100Y-118084600D02*
X75679300Y-117386100D01*
X141566900Y-173748700D02*
X140741400Y-174117000D01*
X80035400Y-123685300D02*
X78536800Y-124612400D01*
X77622400Y-75361800D02*
X76123800Y-73469500D01*
X145681700Y-176796700D02*
X144729200Y-175641000D01*
X84632800Y-163728400D02*
X83502500Y-161620200D01*
X163969700Y-117297200D02*
X164388800Y-118389400D01*
X111493300Y-178485800D02*
X109448600Y-178346100D01*
X74320400Y-118541800D02*
X74714100Y-118084600D01*
X158369000Y-122529600D02*
X157467300Y-121805700D01*
X76123800Y-73469500D02*
X75133200Y-71196200D01*
X121272300Y-52857400D02*
X123723400Y-52844700D01*
X85928200Y-165506400D02*
X84632800Y-163728400D01*
X156883100Y-112407700D02*
X156908500Y-113957100D01*
X81495900Y-115087400D02*
X81635600Y-114528600D01*
X80784700Y-105156000D02*
X80416400Y-101688900D01*
X148907500Y-168389300D02*
X149821900Y-169113200D01*
X106210100Y-177812700D02*
X104711500Y-177444400D01*
X153606500Y-176974500D02*
X152742900Y-178219100D01*
X157416500Y-126860300D02*
X157543500Y-129489200D01*
X81521300Y-111544100D02*
X81330800Y-109766100D01*
X141859000Y-57327800D02*
X143179800Y-58153300D01*
X136144000Y-175983900D02*
X133083300Y-176872900D01*
X78536800Y-124612400D02*
X77076300Y-124891800D01*
X156768800Y-101396800D02*
X156845000Y-107035600D01*
X77076300Y-124891800D02*
X75831700Y-124460000D01*
X164388800Y-118389400D02*
X164465000Y-119151400D01*
X97510600Y-56794400D02*
X100418900Y-55651400D01*
X80187800Y-60401200D02*
X82016600Y-59931300D01*
X143179800Y-58153300D02*
X143967200Y-58686700D01*
X82016600Y-59931300D02*
X84162900Y-59778900D01*
X75831700Y-124460000D02*
X74701400Y-123304300D01*
X80086200Y-115620800D02*
X80873600Y-115481100D01*
X161683700Y-115557300D02*
X163131500Y-116382800D01*
X81178400Y-78600300D02*
X81254600Y-78028800D01*
X158737300Y-114528600D02*
X160642300Y-115176300D01*
X95072200Y-57950100D02*
X97510600Y-56794400D01*
X89293700Y-169722800D02*
X88760300Y-169087800D01*
X163131500Y-116382800D02*
X163969700Y-117297200D01*
X84340700Y-177482500D02*
X83997800Y-176174400D01*
X75133200Y-71196200D02*
X74777600Y-68732400D01*
X138569700Y-175094900D02*
X137820400Y-175412400D01*
X81661000Y-113626900D02*
X81597500Y-112547400D01*
X93472000Y-177444400D02*
X92163900Y-178562000D01*
X77038200Y-116700300D02*
X78524100Y-116103400D01*
X113817400Y-53213000D02*
X116763800Y-53009800D01*
X163537900Y-122326400D02*
X162534600Y-123317000D01*
X102285800Y-176784000D02*
X99834700Y-175971200D01*
X157086300Y-73914000D02*
X156629100Y-74333100D01*
X78790800Y-76212700D02*
X77622400Y-75361800D01*
X147307300Y-178638200D02*
X146392900Y-177622200D01*
X154978100Y-77889100D02*
X155663900Y-80949800D01*
X85369400Y-173050200D02*
X86588600Y-171640500D01*
X159308800Y-71437500D02*
X158115000Y-72974200D01*
X100418900Y-55651400D02*
X102184200Y-55054500D01*
X153860500Y-160502600D02*
X151815800Y-164376100D01*
X110756700Y-53517800D02*
X113817400Y-53213000D01*
X160388300Y-67716400D02*
X160223200Y-69380100D01*
X133083300Y-176872900D02*
X131000500Y-177393600D01*
X74599800Y-123151900D02*
X73837800Y-121500900D01*
X87350600Y-179819300D02*
X86448900Y-179590700D01*
X136525000Y-54940200D02*
X138531600Y-55664100D01*
X157505400Y-60032900D02*
X159029400Y-61709300D01*
X150571200Y-169697400D02*
X151574500Y-170776900D01*
X150317200Y-166420800D02*
X149148800Y-167970200D01*
X157200600Y-123088400D02*
X157289500Y-124688600D01*
X155638500Y-74930000D02*
X154825700Y-75374500D01*
X94348300Y-176720500D02*
X93472000Y-177444400D01*
X95745300Y-175780700D02*
X94957900Y-176276000D01*
X160083500Y-64084200D02*
X160337500Y-65874900D01*
X146646900Y-58737500D02*
X147980400Y-58343800D01*
X82892900Y-160477200D02*
X81737200Y-157276800D01*
X153924000Y-175590200D02*
X153606500Y-176974500D01*
X144678400Y-59182000D02*
X144983200Y-59410600D01*
X81254600Y-78028800D02*
X81254600Y-77685900D01*
X81394300Y-122732800D02*
X81013300Y-122961400D01*
X119354600Y-52895500D02*
X121272300Y-52857400D01*
X81330800Y-126301500D02*
X81381600Y-124701300D01*
X156908500Y-113957100D02*
X158737300Y-114528600D01*
X109448600Y-178346100D02*
X107873800Y-178142900D01*
X164211000Y-120904000D02*
X163537900Y-122326400D01*
X80111600Y-92456000D02*
X80149700Y-90004900D01*
X90131900Y-179781200D02*
X89128600Y-179857400D01*
X159651700Y-62725300D02*
X160083500Y-64084200D01*
X156629100Y-151472900D02*
X155575000Y-155702000D01*
X81127600Y-131660900D02*
X81330800Y-126301500D01*
X149148800Y-167970200D02*
X148907500Y-168389300D01*
X74701400Y-123304300D02*
X74599800Y-123151900D01*
X81737200Y-157276800D02*
X81330800Y-155168600D01*
X125450600Y-178295300D02*
X123698000Y-178422300D01*
X81597500Y-112547400D02*
X81521300Y-111544100D01*
X120154700Y-178536600D02*
X118059200Y-178536600D01*
X156565600Y-90843100D02*
X156641800Y-94513400D01*
X99834700Y-175971200D02*
X98526600Y-175450500D01*
X126415800Y-52920900D02*
X128422400Y-53086000D01*
X137820400Y-175412400D02*
X136144000Y-175983900D01*
X88290400Y-179857400D02*
X87350600Y-179819300D01*
X123698000Y-178422300D02*
X120154700Y-178536600D01*
X80149700Y-90004900D02*
X80264000Y-86918800D01*
X87426800Y-167487600D02*
X87122000Y-167106600D01*
X153784300Y-174625000D02*
X153924000Y-175590200D01*
X147980400Y-58343800D02*
X148755100Y-58127900D01*
X73736200Y-119926100D02*
X74320400Y-118541800D01*
X79641700Y-76822300D02*
X78790800Y-76212700D01*
X81064100Y-107581700D02*
X80784700Y-105156000D01*
X148463000Y-179463700D02*
X147307300Y-178638200D01*
X143776700Y-174663100D02*
X143014700Y-174053500D01*
X156845000Y-107035600D02*
X156883100Y-112407700D01*
X140741400Y-174117000D02*
X140055600Y-174434500D01*
X96977200Y-175209200D02*
X96278700Y-175463200D01*
X77482700Y-62217300D02*
X79324200Y-60820300D01*
X157467300Y-121805700D02*
X157289500Y-121793000D01*
X160642300Y-115176300D02*
X161683700Y-115557300D01*
X154393900Y-75615800D02*
X154978100Y-77889100D01*
X84467700Y-174485300D02*
X85369400Y-173050200D01*
X155575000Y-58699400D02*
X157505400Y-60032900D01*
X94957900Y-176276000D02*
X94348300Y-176720500D01*
X131000500Y-177393600D02*
X129413000Y-177723800D01*
X80416400Y-101688900D02*
X80149700Y-96634300D01*
X92354400Y-59512200D02*
X95072200Y-57950100D01*
X152742900Y-178219100D02*
X151472900Y-179209700D01*
X156375100Y-86969600D02*
X156565600Y-90843100D01*
X83502500Y-161620200D02*
X82892900Y-160477200D01*
X144729200Y-175641000D02*
X143776700Y-174663100D01*
X88760300Y-169087800D02*
X87426800Y-167487600D01*
X156159200Y-84251800D02*
X156375100Y-86969600D01*
X159753300Y-123266200D02*
X158369000Y-122529600D01*
X81064100Y-79641700D02*
X81178400Y-78600300D01*
X97574100Y-175171100D02*
X96977200Y-175209200D01*
X81026000Y-139344400D02*
X81127600Y-131660900D01*
X159029400Y-61709300D02*
X159651700Y-62725300D01*
X76098400Y-64033400D02*
X77482700Y-62217300D01*
X81153000Y-152450800D02*
X81026000Y-144716500D01*
X116763800Y-53009800D02*
X119354600Y-52895500D01*
X152031700Y-171297600D02*
X153098500Y-172935900D01*
X157289500Y-124688600D02*
X157416500Y-126860300D01*
X73837800Y-121500900D02*
X73736200Y-119926100D01*
X151574500Y-170776900D02*
X152031700Y-171297600D01*
X105041700Y-54343300D02*
X107543600Y-53924200D01*
X81330800Y-109766100D02*
X81064100Y-107581700D01*
X83997800Y-176174400D02*
X84328000Y-174739300D01*
X146392900Y-177622200D02*
X145681700Y-176796700D01*
X118059200Y-178536600D02*
X115049300Y-178523900D01*
X102184200Y-55054500D02*
X105041700Y-54343300D01*
X160223200Y-69380100D02*
X160083500Y-69850000D01*
X88341200Y-60299600D02*
X90119200Y-60960000D01*
X78524100Y-116103400D02*
X80086200Y-115620800D01*
X162204400Y-123482100D02*
X161099500Y-123609100D01*
X150901400Y-57912000D02*
X153022300Y-57988200D01*
X134708900Y-54305200D02*
X136525000Y-54940200D01*
X85686900Y-179082700D02*
X85369400Y-178790600D01*
X123723400Y-52844700D02*
X125272800Y-52882800D01*
X86360000Y-59893200D02*
X88341200Y-60299600D01*
X80822800Y-81407000D02*
X81064100Y-79641700D01*
X87871300Y-170535600D02*
X88315800Y-170256200D01*
X149580600Y-179730400D02*
X148463000Y-179463700D01*
X127673100Y-178015900D02*
X125450600Y-178295300D01*
X81241900Y-115379500D02*
X81495900Y-115087400D01*
X161099500Y-123609100D02*
X159753300Y-123266200D01*
X79324200Y-60820300D02*
X80187800Y-60401200D01*
X155917900Y-82473800D02*
X156159200Y-84251800D01*
X75679300Y-117386100D02*
X77038200Y-116700300D01*
X80873600Y-115481100D02*
X81241900Y-115379500D01*
X157683200Y-132410200D02*
X157772100Y-134747000D01*
X80454500Y-84785200D02*
X80822800Y-81407000D01*
X80518000Y-77279500D02*
X79641700Y-76822300D01*
X84328000Y-174739300D02*
X84467700Y-174485300D01*
X104711500Y-177444400D02*
X102285800Y-176784000D01*
X153136600Y-172986700D02*
X153784300Y-174625000D01*
X125272800Y-52882800D02*
X126415800Y-52920900D01*
X89128600Y-179857400D02*
X88290400Y-179857400D01*
X155575000Y-155702000D02*
X153860500Y-160502600D01*
X143967200Y-58686700D02*
X144678400Y-59182000D01*
X164465000Y-119151400D02*
X164211000Y-120904000D01*
X75107800Y-66319400D02*
X76098400Y-64033400D01*
X130581400Y-53327300D02*
X134708900Y-54305200D01*
X81330800Y-155168600D02*
X81216500Y-153873200D01*
X151815800Y-164376100D02*
X150317200Y-166420800D01*
X153022300Y-57988200D02*
X154876500Y-58394600D01*
X157543500Y-129489200D02*
X157683200Y-132410200D01*
X84162900Y-59778900D02*
X86360000Y-59893200D01*
X107543600Y-53924200D02*
X110756700Y-53517800D01*
X157734000Y-141757400D02*
X157543500Y-144640300D01*
X81026000Y-144716500D02*
X81026000Y-139344400D01*
X80264000Y-86918800D02*
X80454500Y-84785200D01*
X96278700Y-175463200D02*
X95745300Y-175780700D01*
X154876500Y-58394600D02*
X155575000Y-58699400D01*
X81013300Y-122961400D02*
X80035400Y-123685300D01*
X87122000Y-167106600D02*
X85928200Y-165506400D01*
X90893900Y-179527200D02*
X90131900Y-179781200D01*
X160337500Y-65874900D02*
X160388300Y-67716400D01*
X90119200Y-60960000D02*
X92354400Y-59512200D01*
X81635600Y-114528600D02*
X81661000Y-113626900D01*
X153098500Y-172935900D02*
X153136600Y-172986700D01*
X157810200Y-140208000D02*
X157734000Y-141757400D01*
X149821900Y-169113200D02*
X150571200Y-169697400D01*
M02*
