G04 #@! TF.GenerationSoftware,KiCad,Pcbnew,8.0.5-8.0.5-0~ubuntu24.04.1*
G04 #@! TF.CreationDate,2024-09-20T13:35:50+09:00*
G04 #@! TF.ProjectId,gopher_xiao_grove,676f7068-6572-45f7-9869-616f5f67726f,rev?*
G04 #@! TF.SameCoordinates,Original*
G04 #@! TF.FileFunction,Copper,L2,Bot*
G04 #@! TF.FilePolarity,Positive*
%FSLAX46Y46*%
G04 Gerber Fmt 4.6, Leading zero omitted, Abs format (unit mm)*
G04 Created by KiCad (PCBNEW 8.0.5-8.0.5-0~ubuntu24.04.1) date 2024-09-20 13:35:50*
%MOMM*%
%LPD*%
G01*
G04 APERTURE LIST*
G04 Aperture macros list*
%AMRoundRect*
0 Rectangle with rounded corners*
0 $1 Rounding radius*
0 $2 $3 $4 $5 $6 $7 $8 $9 X,Y pos of 4 corners*
0 Add a 4 corners polygon primitive as box body*
4,1,4,$2,$3,$4,$5,$6,$7,$8,$9,$2,$3,0*
0 Add four circle primitives for the rounded corners*
1,1,$1+$1,$2,$3*
1,1,$1+$1,$4,$5*
1,1,$1+$1,$6,$7*
1,1,$1+$1,$8,$9*
0 Add four rect primitives between the rounded corners*
20,1,$1+$1,$2,$3,$4,$5,0*
20,1,$1+$1,$4,$5,$6,$7,0*
20,1,$1+$1,$6,$7,$8,$9,0*
20,1,$1+$1,$8,$9,$2,$3,0*%
G04 Aperture macros list end*
G04 #@! TA.AperFunction,ComponentPad*
%ADD10R,1.524000X1.524000*%
G04 #@! TD*
G04 #@! TA.AperFunction,ComponentPad*
%ADD11C,1.524000*%
G04 #@! TD*
G04 #@! TA.AperFunction,ComponentPad*
%ADD12C,1.879600*%
G04 #@! TD*
G04 #@! TA.AperFunction,ComponentPad*
%ADD13O,1.600000X2.000000*%
G04 #@! TD*
G04 #@! TA.AperFunction,SMDPad,CuDef*
%ADD14RoundRect,0.243750X0.456250X-0.243750X0.456250X0.243750X-0.456250X0.243750X-0.456250X-0.243750X0*%
G04 #@! TD*
G04 #@! TA.AperFunction,ViaPad*
%ADD15C,0.600000*%
G04 #@! TD*
G04 #@! TA.AperFunction,Conductor*
%ADD16C,0.250000*%
G04 #@! TD*
G04 #@! TA.AperFunction,Conductor*
%ADD17C,0.400000*%
G04 #@! TD*
G04 APERTURE END LIST*
D10*
X104400000Y-149400000D03*
D11*
X104400000Y-151400000D03*
X104400000Y-153400000D03*
X104400000Y-155400000D03*
D12*
X126758500Y-143946100D03*
X124218500Y-143956100D03*
X121688500Y-143956100D03*
X119128500Y-143956100D03*
X116598500Y-143956100D03*
X114068500Y-143956100D03*
X111518500Y-143956100D03*
X111518500Y-159456100D03*
X114058500Y-159456100D03*
X116608500Y-159446100D03*
X119138500Y-159446100D03*
X121688500Y-159456100D03*
X124228500Y-159456100D03*
X126758500Y-159456100D03*
D13*
X114947200Y-162996300D03*
X117487200Y-162996300D03*
X120027200Y-162996300D03*
X122567200Y-162996300D03*
D14*
X97231200Y-132964400D03*
X97231200Y-131089400D03*
D15*
X118400000Y-146000000D03*
X115600000Y-147500000D03*
X116700000Y-150000000D03*
X99390200Y-73063100D03*
X122435620Y-153022300D03*
X126174500Y-73609200D03*
X126885700Y-72034400D03*
X97409000Y-72999600D03*
X95859600Y-72961500D03*
X94488000Y-72961500D03*
X126136400Y-70408800D03*
X96431100Y-70980300D03*
X116258340Y-157480000D03*
D16*
X119644600Y-146000000D02*
X121688500Y-143956100D01*
X104400000Y-149400000D02*
X113700000Y-149400000D01*
X113700000Y-149400000D02*
X115600000Y-147500000D01*
X118400000Y-146000000D02*
X119644600Y-146000000D01*
X116600000Y-150000000D02*
X116700000Y-150000000D01*
X116500000Y-150100000D02*
X116600000Y-150000000D01*
X104400000Y-151400000D02*
X115200000Y-151400000D01*
X115200000Y-151400000D02*
X116500000Y-150100000D01*
D17*
X104400000Y-153400000D02*
X107349800Y-153400000D01*
X107349800Y-153400000D02*
X111429800Y-157480000D01*
X122435620Y-153446564D02*
X122428000Y-153454184D01*
D16*
X126174500Y-73609200D02*
X131660900Y-79095600D01*
X131660900Y-79095600D02*
X131660900Y-152023700D01*
X131660900Y-152023700D02*
X124228500Y-159456100D01*
X125328401Y-72763101D02*
X126174500Y-73609200D01*
D17*
X122428000Y-157655600D02*
X124228500Y-159456100D01*
X122435620Y-153022300D02*
X122435620Y-153446564D01*
D16*
X99690199Y-72763101D02*
X125328401Y-72763101D01*
D17*
X122428000Y-153454184D02*
X122428000Y-157655600D01*
D16*
X99390200Y-73063100D02*
X99690199Y-72763101D01*
X97409000Y-72999600D02*
X98374200Y-72034400D01*
X98374200Y-72034400D02*
X126885700Y-72034400D01*
X97231200Y-74333100D02*
X97231200Y-127589280D01*
X95859600Y-72961500D02*
X97231200Y-74333100D01*
X97231200Y-127589280D02*
X97231200Y-131089400D01*
D17*
X125006100Y-69011800D02*
X126136400Y-70142100D01*
X94488000Y-151980900D02*
X99987100Y-157480000D01*
X126136400Y-70142100D02*
X126136400Y-70408800D01*
X94488000Y-72961500D02*
X94488000Y-151980900D01*
X96431100Y-70980300D02*
X96731099Y-70680301D01*
X122008900Y-69011800D02*
X125006100Y-69011800D01*
X96731099Y-70680301D02*
X120340399Y-70680301D01*
X111429800Y-157480000D02*
X116258340Y-157480000D01*
X120340399Y-70680301D02*
X122008900Y-69011800D01*
X99987100Y-157480000D02*
X111429800Y-157480000D01*
D16*
X124546940Y-141734540D02*
X126758500Y-143946100D01*
X97231200Y-132964400D02*
X97231200Y-133551900D01*
X105413840Y-141734540D02*
X124546940Y-141734540D01*
X97231200Y-133551900D02*
X105413840Y-141734540D01*
X120027200Y-162796300D02*
X120027200Y-162996300D01*
X114068500Y-143956100D02*
X117873301Y-147760901D01*
X117873301Y-160642401D02*
X120027200Y-162796300D01*
X117873301Y-147760901D02*
X117873301Y-160642401D01*
X117538299Y-144895899D02*
X117538299Y-146659399D01*
X120423699Y-160652799D02*
X122567200Y-162796300D01*
X117538299Y-146659399D02*
X120423699Y-149544799D01*
X116598500Y-143956100D02*
X117538299Y-144895899D01*
X122567200Y-162796300D02*
X122567200Y-162996300D01*
X120423699Y-149544799D02*
X120423699Y-160652799D01*
G04 #@! TA.AperFunction,Conductor*
G36*
X129532701Y-142806102D02*
G01*
X129579194Y-142859758D01*
X129590579Y-142912319D01*
X129586438Y-145286959D01*
X129552919Y-164504090D01*
X129532798Y-164572176D01*
X129479061Y-164618575D01*
X129426689Y-164629870D01*
X123182823Y-164618483D01*
X123114739Y-164598357D01*
X123068344Y-164544616D01*
X123058368Y-164474324D01*
X123087979Y-164409797D01*
X123125846Y-164380218D01*
X123253003Y-164315429D01*
X123419630Y-164194368D01*
X123565268Y-164048730D01*
X123686329Y-163882103D01*
X123779834Y-163698590D01*
X123843480Y-163502708D01*
X123875700Y-163299281D01*
X123875700Y-162693319D01*
X123843480Y-162489892D01*
X123779834Y-162294010D01*
X123686329Y-162110497D01*
X123565268Y-161943870D01*
X123565265Y-161943867D01*
X123565263Y-161943864D01*
X123419635Y-161798236D01*
X123419632Y-161798234D01*
X123419630Y-161798232D01*
X123294199Y-161707102D01*
X123253006Y-161677173D01*
X123253005Y-161677172D01*
X123253003Y-161677171D01*
X123069490Y-161583666D01*
X123069487Y-161583665D01*
X123069485Y-161583664D01*
X122873612Y-161520021D01*
X122873610Y-161520020D01*
X122873608Y-161520020D01*
X122670181Y-161487800D01*
X122464219Y-161487800D01*
X122260792Y-161520020D01*
X122260788Y-161520021D01*
X122260347Y-161520091D01*
X122189936Y-161510991D01*
X122151541Y-161484737D01*
X121778227Y-161111423D01*
X121744201Y-161049111D01*
X121749266Y-160978296D01*
X121791813Y-160921460D01*
X121846581Y-160898047D01*
X122045255Y-160864895D01*
X122272269Y-160786960D01*
X122483360Y-160672724D01*
X122672769Y-160525301D01*
X122835329Y-160348713D01*
X122853315Y-160321182D01*
X122907317Y-160275095D01*
X122977664Y-160265518D01*
X123013037Y-160281994D01*
X123040542Y-160284846D01*
X123737809Y-159587579D01*
X123755119Y-159652181D01*
X123821998Y-159768020D01*
X123916580Y-159862602D01*
X124032419Y-159929481D01*
X124097019Y-159946790D01*
X123398820Y-160644989D01*
X123433906Y-160672298D01*
X123433916Y-160672304D01*
X123644932Y-160786500D01*
X123644934Y-160786502D01*
X123871863Y-160864406D01*
X123871870Y-160864408D01*
X124108536Y-160903900D01*
X124348464Y-160903900D01*
X124585129Y-160864408D01*
X124585136Y-160864406D01*
X124812065Y-160786502D01*
X124812067Y-160786500D01*
X125023089Y-160672301D01*
X125058178Y-160644989D01*
X125058179Y-160644988D01*
X124359981Y-159946790D01*
X124424581Y-159929481D01*
X124540420Y-159862602D01*
X124635002Y-159768020D01*
X124701881Y-159652181D01*
X124719190Y-159587581D01*
X125416456Y-160284847D01*
X125457822Y-160280556D01*
X125512062Y-160273171D01*
X125576421Y-160303144D01*
X125598683Y-160328834D01*
X125611668Y-160348709D01*
X125611677Y-160348720D01*
X125765023Y-160515299D01*
X125774231Y-160525301D01*
X125963640Y-160672724D01*
X126174731Y-160786960D01*
X126401745Y-160864895D01*
X126638490Y-160904400D01*
X126638494Y-160904400D01*
X126878506Y-160904400D01*
X126878510Y-160904400D01*
X127115255Y-160864895D01*
X127342269Y-160786960D01*
X127553360Y-160672724D01*
X127742769Y-160525301D01*
X127905329Y-160348713D01*
X128036608Y-160147777D01*
X128133022Y-159927974D01*
X128191943Y-159695299D01*
X128211764Y-159456100D01*
X128191943Y-159216901D01*
X128161552Y-159096890D01*
X128133023Y-158984229D01*
X128133022Y-158984228D01*
X128133022Y-158984226D01*
X128036608Y-158764423D01*
X127905329Y-158563487D01*
X127905324Y-158563481D01*
X127905323Y-158563480D01*
X127742774Y-158386904D01*
X127742772Y-158386902D01*
X127742769Y-158386899D01*
X127553360Y-158239476D01*
X127342269Y-158125240D01*
X127342266Y-158125239D01*
X127342265Y-158125238D01*
X127115259Y-158047306D01*
X127115250Y-158047304D01*
X127055321Y-158037304D01*
X126878510Y-158007800D01*
X126638490Y-158007800D01*
X126504216Y-158030206D01*
X126401749Y-158047304D01*
X126401740Y-158047306D01*
X126174734Y-158125238D01*
X126174731Y-158125240D01*
X125963640Y-158239476D01*
X125963638Y-158239477D01*
X125963637Y-158239478D01*
X125774230Y-158386900D01*
X125774225Y-158386904D01*
X125611677Y-158563479D01*
X125611669Y-158563488D01*
X125598682Y-158583367D01*
X125544676Y-158629454D01*
X125474328Y-158639027D01*
X125458662Y-158631729D01*
X125416456Y-158627352D01*
X124719190Y-159324618D01*
X124701881Y-159260019D01*
X124635002Y-159144180D01*
X124540420Y-159049598D01*
X124424581Y-158982719D01*
X124359980Y-158965409D01*
X125058178Y-158267210D01*
X125058178Y-158267209D01*
X125023094Y-158239901D01*
X125023085Y-158239895D01*
X124812067Y-158125699D01*
X124812065Y-158125697D01*
X124585136Y-158047793D01*
X124585129Y-158047791D01*
X124348464Y-158008300D01*
X124108536Y-158008300D01*
X123871870Y-158047791D01*
X123871863Y-158047793D01*
X123644934Y-158125697D01*
X123644932Y-158125699D01*
X123433916Y-158239894D01*
X123398820Y-158267210D01*
X123398819Y-158267210D01*
X124097018Y-158965409D01*
X124032419Y-158982719D01*
X123916580Y-159049598D01*
X123821998Y-159144180D01*
X123755119Y-159260019D01*
X123737809Y-159324618D01*
X123040542Y-158627351D01*
X123019094Y-158629576D01*
X123010270Y-158637107D01*
X122939921Y-158646678D01*
X122875566Y-158616697D01*
X122853314Y-158591015D01*
X122835332Y-158563492D01*
X122835329Y-158563487D01*
X122835323Y-158563481D01*
X122835322Y-158563479D01*
X122672774Y-158386904D01*
X122672772Y-158386902D01*
X122672769Y-158386899D01*
X122483360Y-158239476D01*
X122272269Y-158125240D01*
X122272266Y-158125239D01*
X122272265Y-158125238D01*
X122045259Y-158047306D01*
X122045250Y-158047304D01*
X121985321Y-158037304D01*
X121808510Y-158007800D01*
X121568490Y-158007800D01*
X121434216Y-158030206D01*
X121331749Y-158047304D01*
X121331740Y-158047306D01*
X121224111Y-158084256D01*
X121153187Y-158087456D01*
X121091791Y-158051804D01*
X121059417Y-157988619D01*
X121057199Y-157965083D01*
X121057199Y-149482406D01*
X121057198Y-149482402D01*
X121032854Y-149360014D01*
X120985099Y-149244724D01*
X120915770Y-149140966D01*
X120827532Y-149052728D01*
X118713104Y-146938300D01*
X118679078Y-146875988D01*
X118684143Y-146805173D01*
X118726690Y-146748337D01*
X118747545Y-146735676D01*
X118753006Y-146733045D01*
X118753015Y-146733043D01*
X118794806Y-146706784D01*
X118880701Y-146652813D01*
X118947737Y-146633500D01*
X119706993Y-146633500D01*
X119706994Y-146633500D01*
X119829385Y-146609155D01*
X119944675Y-146561400D01*
X120048433Y-146492071D01*
X121159897Y-145380605D01*
X121222206Y-145346583D01*
X121289901Y-145350530D01*
X121315240Y-145359228D01*
X121331745Y-145364895D01*
X121568490Y-145404400D01*
X121568494Y-145404400D01*
X121808506Y-145404400D01*
X121808510Y-145404400D01*
X122045255Y-145364895D01*
X122272269Y-145286960D01*
X122483360Y-145172724D01*
X122672769Y-145025301D01*
X122835329Y-144848713D01*
X122848019Y-144829288D01*
X122902021Y-144783203D01*
X122972369Y-144773628D01*
X123036726Y-144803606D01*
X123058978Y-144829285D01*
X123071671Y-144848713D01*
X123071674Y-144848717D01*
X123071676Y-144848719D01*
X123225025Y-145015301D01*
X123234231Y-145025301D01*
X123423640Y-145172724D01*
X123634731Y-145286960D01*
X123861745Y-145364895D01*
X124098490Y-145404400D01*
X124098494Y-145404400D01*
X124338506Y-145404400D01*
X124338510Y-145404400D01*
X124575255Y-145364895D01*
X124802269Y-145286960D01*
X125013360Y-145172724D01*
X125202769Y-145025301D01*
X125365329Y-144848713D01*
X125386283Y-144816639D01*
X125440285Y-144770552D01*
X125510633Y-144760975D01*
X125574990Y-144790952D01*
X125597247Y-144816637D01*
X125611666Y-144838706D01*
X125611677Y-144838720D01*
X125620877Y-144848714D01*
X125774231Y-145015301D01*
X125963640Y-145162724D01*
X126174731Y-145276960D01*
X126401745Y-145354895D01*
X126638490Y-145394400D01*
X126638494Y-145394400D01*
X126878506Y-145394400D01*
X126878510Y-145394400D01*
X127115255Y-145354895D01*
X127342269Y-145276960D01*
X127553360Y-145162724D01*
X127742769Y-145015301D01*
X127905329Y-144838713D01*
X128036608Y-144637777D01*
X128133022Y-144417974D01*
X128191943Y-144185299D01*
X128211764Y-143946100D01*
X128191943Y-143706901D01*
X128135555Y-143484228D01*
X128133023Y-143474229D01*
X128133022Y-143474228D01*
X128133022Y-143474226D01*
X128036608Y-143254423D01*
X127905329Y-143053487D01*
X127853732Y-142997437D01*
X127822311Y-142933772D01*
X127830298Y-142863226D01*
X127875157Y-142808197D01*
X127942646Y-142786157D01*
X127946433Y-142786100D01*
X129464580Y-142786100D01*
X129532701Y-142806102D01*
G37*
G04 #@! TD.AperFunction*
G04 #@! TA.AperFunction,Conductor*
G36*
X110497740Y-158208502D02*
G01*
X110544233Y-158262158D01*
X110554337Y-158332432D01*
X110524843Y-158397012D01*
X110522320Y-158399837D01*
X110371676Y-158563480D01*
X110371672Y-158563485D01*
X110371671Y-158563487D01*
X110317319Y-158646678D01*
X110240392Y-158764423D01*
X110143977Y-158984228D01*
X110143976Y-158984229D01*
X110085058Y-159216893D01*
X110065236Y-159456100D01*
X110085058Y-159695306D01*
X110143976Y-159927970D01*
X110143977Y-159927971D01*
X110143978Y-159927974D01*
X110240392Y-160147777D01*
X110371671Y-160348713D01*
X110371673Y-160348715D01*
X110371676Y-160348719D01*
X110525025Y-160515301D01*
X110534231Y-160525301D01*
X110723640Y-160672724D01*
X110934731Y-160786960D01*
X111161745Y-160864895D01*
X111398490Y-160904400D01*
X111398494Y-160904400D01*
X111638506Y-160904400D01*
X111638510Y-160904400D01*
X111875255Y-160864895D01*
X112102269Y-160786960D01*
X112313360Y-160672724D01*
X112502769Y-160525301D01*
X112665329Y-160348713D01*
X112683019Y-160321635D01*
X112737021Y-160275550D01*
X112807369Y-160265975D01*
X112871726Y-160295953D01*
X112893978Y-160321632D01*
X112911671Y-160348713D01*
X112911673Y-160348715D01*
X112911676Y-160348719D01*
X113065025Y-160515301D01*
X113074231Y-160525301D01*
X113263640Y-160672724D01*
X113474731Y-160786960D01*
X113701745Y-160864895D01*
X113938490Y-160904400D01*
X113938494Y-160904400D01*
X114178506Y-160904400D01*
X114178510Y-160904400D01*
X114415255Y-160864895D01*
X114642269Y-160786960D01*
X114853360Y-160672724D01*
X115042769Y-160525301D01*
X115205329Y-160348713D01*
X115231285Y-160308983D01*
X115285286Y-160262898D01*
X115355634Y-160253322D01*
X115419991Y-160283299D01*
X115442247Y-160308982D01*
X115461671Y-160338713D01*
X115461675Y-160338717D01*
X115461677Y-160338720D01*
X115470877Y-160348714D01*
X115624231Y-160515301D01*
X115813640Y-160662724D01*
X116024731Y-160776960D01*
X116251745Y-160854895D01*
X116488490Y-160894400D01*
X116488494Y-160894400D01*
X116728506Y-160894400D01*
X116728510Y-160894400D01*
X116965255Y-160854895D01*
X117124982Y-160800059D01*
X117195903Y-160796859D01*
X117257299Y-160832511D01*
X117282300Y-160871013D01*
X117311901Y-160942476D01*
X117381230Y-161046234D01*
X117381232Y-161046236D01*
X117607701Y-161272705D01*
X117641727Y-161335017D01*
X117636662Y-161405832D01*
X117594115Y-161462668D01*
X117527595Y-161487479D01*
X117518606Y-161487800D01*
X117384219Y-161487800D01*
X117180792Y-161520020D01*
X117180790Y-161520020D01*
X117180787Y-161520021D01*
X116984914Y-161583664D01*
X116984908Y-161583667D01*
X116801393Y-161677173D01*
X116634767Y-161798234D01*
X116634764Y-161798236D01*
X116489136Y-161943864D01*
X116489134Y-161943867D01*
X116368072Y-162110493D01*
X116329187Y-162186811D01*
X116280438Y-162238426D01*
X116211523Y-162255492D01*
X116144322Y-162232591D01*
X116104653Y-162186811D01*
X116065900Y-162110755D01*
X115944884Y-161944192D01*
X115944882Y-161944189D01*
X115799310Y-161798617D01*
X115799307Y-161798615D01*
X115632745Y-161677600D01*
X115449299Y-161584129D01*
X115449293Y-161584126D01*
X115253494Y-161520508D01*
X115253496Y-161520508D01*
X115201200Y-161512225D01*
X115201200Y-162565597D01*
X115140193Y-162530375D01*
X115013026Y-162496300D01*
X114881374Y-162496300D01*
X114754207Y-162530375D01*
X114693200Y-162565597D01*
X114693200Y-161512225D01*
X114640904Y-161520508D01*
X114445106Y-161584126D01*
X114445100Y-161584129D01*
X114261654Y-161677600D01*
X114095092Y-161798615D01*
X114095089Y-161798617D01*
X113949517Y-161944189D01*
X113949515Y-161944192D01*
X113828500Y-162110754D01*
X113735029Y-162294200D01*
X113735026Y-162294206D01*
X113671408Y-162490003D01*
X113639200Y-162693361D01*
X113639200Y-162742300D01*
X114516497Y-162742300D01*
X114481275Y-162803307D01*
X114447200Y-162930474D01*
X114447200Y-163062126D01*
X114481275Y-163189293D01*
X114516497Y-163250300D01*
X113639200Y-163250300D01*
X113639200Y-163299238D01*
X113671408Y-163502596D01*
X113735026Y-163698393D01*
X113735029Y-163698399D01*
X113828500Y-163881845D01*
X113949515Y-164048407D01*
X113949517Y-164048410D01*
X114095089Y-164193982D01*
X114095092Y-164193984D01*
X114261654Y-164314999D01*
X114357856Y-164364017D01*
X114409471Y-164412765D01*
X114426537Y-164481680D01*
X114403636Y-164548882D01*
X114348039Y-164593034D01*
X114300423Y-164602284D01*
X108786823Y-164592229D01*
X108718739Y-164572103D01*
X108672344Y-164518362D01*
X108661053Y-164466378D01*
X108654935Y-159216893D01*
X108653884Y-158314647D01*
X108673807Y-158246503D01*
X108727408Y-158199947D01*
X108779884Y-158188500D01*
X110429619Y-158188500D01*
X110497740Y-158208502D01*
G37*
G04 #@! TD.AperFunction*
M02*
