G04 #@! TF.GenerationSoftware,KiCad,Pcbnew,8.0.5-8.0.5-0~ubuntu24.04.1*
G04 #@! TF.CreationDate,2024-09-20T13:35:51+09:00*
G04 #@! TF.ProjectId,gopher_xiao_grove,676f7068-6572-45f7-9869-616f5f67726f,rev?*
G04 #@! TF.SameCoordinates,Original*
G04 #@! TF.FileFunction,Soldermask,Bot*
G04 #@! TF.FilePolarity,Negative*
%FSLAX46Y46*%
G04 Gerber Fmt 4.6, Leading zero omitted, Abs format (unit mm)*
G04 Created by KiCad (PCBNEW 8.0.5-8.0.5-0~ubuntu24.04.1) date 2024-09-20 13:35:51*
%MOMM*%
%LPD*%
G01*
G04 APERTURE LIST*
G04 APERTURE END LIST*
G36*
X115194232Y-161981944D02*
G01*
X115348359Y-162045785D01*
X115487069Y-162138468D01*
X115605032Y-162256431D01*
X115697715Y-162395141D01*
X115761556Y-162549268D01*
X115794102Y-162712887D01*
X115798200Y-162796300D01*
X115798200Y-163196300D01*
X115794102Y-163279713D01*
X115761556Y-163443332D01*
X115697715Y-163597459D01*
X115605032Y-163736169D01*
X115487069Y-163854132D01*
X115348359Y-163946815D01*
X115194232Y-164010656D01*
X115030613Y-164043202D01*
X114863787Y-164043202D01*
X114700168Y-164010656D01*
X114546041Y-163946815D01*
X114407331Y-163854132D01*
X114289368Y-163736169D01*
X114196685Y-163597459D01*
X114132844Y-163443332D01*
X114100298Y-163279713D01*
X114096200Y-163196300D01*
X114096200Y-162796300D01*
X114100298Y-162712887D01*
X114132844Y-162549268D01*
X114196685Y-162395141D01*
X114289368Y-162256431D01*
X114407331Y-162138468D01*
X114546041Y-162045785D01*
X114700168Y-161981944D01*
X114863787Y-161949398D01*
X115030613Y-161949398D01*
X115194232Y-161981944D01*
G37*
G36*
X117734232Y-161981944D02*
G01*
X117888359Y-162045785D01*
X118027069Y-162138468D01*
X118145032Y-162256431D01*
X118237715Y-162395141D01*
X118301556Y-162549268D01*
X118334102Y-162712887D01*
X118338200Y-162796300D01*
X118338200Y-163196300D01*
X118334102Y-163279713D01*
X118301556Y-163443332D01*
X118237715Y-163597459D01*
X118145032Y-163736169D01*
X118027069Y-163854132D01*
X117888359Y-163946815D01*
X117734232Y-164010656D01*
X117570613Y-164043202D01*
X117403787Y-164043202D01*
X117240168Y-164010656D01*
X117086041Y-163946815D01*
X116947331Y-163854132D01*
X116829368Y-163736169D01*
X116736685Y-163597459D01*
X116672844Y-163443332D01*
X116640298Y-163279713D01*
X116636200Y-163196300D01*
X116636200Y-162796300D01*
X116640298Y-162712887D01*
X116672844Y-162549268D01*
X116736685Y-162395141D01*
X116829368Y-162256431D01*
X116947331Y-162138468D01*
X117086041Y-162045785D01*
X117240168Y-161981944D01*
X117403787Y-161949398D01*
X117570613Y-161949398D01*
X117734232Y-161981944D01*
G37*
G36*
X120274232Y-161981944D02*
G01*
X120428359Y-162045785D01*
X120567069Y-162138468D01*
X120685032Y-162256431D01*
X120777715Y-162395141D01*
X120841556Y-162549268D01*
X120874102Y-162712887D01*
X120878200Y-162796300D01*
X120878200Y-163196300D01*
X120874102Y-163279713D01*
X120841556Y-163443332D01*
X120777715Y-163597459D01*
X120685032Y-163736169D01*
X120567069Y-163854132D01*
X120428359Y-163946815D01*
X120274232Y-164010656D01*
X120110613Y-164043202D01*
X119943787Y-164043202D01*
X119780168Y-164010656D01*
X119626041Y-163946815D01*
X119487331Y-163854132D01*
X119369368Y-163736169D01*
X119276685Y-163597459D01*
X119212844Y-163443332D01*
X119180298Y-163279713D01*
X119176200Y-163196300D01*
X119176200Y-162796300D01*
X119180298Y-162712887D01*
X119212844Y-162549268D01*
X119276685Y-162395141D01*
X119369368Y-162256431D01*
X119487331Y-162138468D01*
X119626041Y-162045785D01*
X119780168Y-161981944D01*
X119943787Y-161949398D01*
X120110613Y-161949398D01*
X120274232Y-161981944D01*
G37*
G36*
X122814232Y-161981944D02*
G01*
X122968359Y-162045785D01*
X123107069Y-162138468D01*
X123225032Y-162256431D01*
X123317715Y-162395141D01*
X123381556Y-162549268D01*
X123414102Y-162712887D01*
X123418200Y-162796300D01*
X123418200Y-163196300D01*
X123414102Y-163279713D01*
X123381556Y-163443332D01*
X123317715Y-163597459D01*
X123225032Y-163736169D01*
X123107069Y-163854132D01*
X122968359Y-163946815D01*
X122814232Y-164010656D01*
X122650613Y-164043202D01*
X122483787Y-164043202D01*
X122320168Y-164010656D01*
X122166041Y-163946815D01*
X122027331Y-163854132D01*
X121909368Y-163736169D01*
X121816685Y-163597459D01*
X121752844Y-163443332D01*
X121720298Y-163279713D01*
X121716200Y-163196300D01*
X121716200Y-162796300D01*
X121720298Y-162712887D01*
X121752844Y-162549268D01*
X121816685Y-162395141D01*
X121909368Y-162256431D01*
X122027331Y-162138468D01*
X122166041Y-162045785D01*
X122320168Y-161981944D01*
X122483787Y-161949398D01*
X122650613Y-161949398D01*
X122814232Y-161981944D01*
G37*
G36*
X111569023Y-158419676D02*
G01*
X111614537Y-158419676D01*
X111665223Y-158429150D01*
X111721667Y-158434710D01*
X111764546Y-158447717D01*
X111803350Y-158454971D01*
X111857097Y-158475792D01*
X111917027Y-158493972D01*
X111951264Y-158512272D01*
X111982451Y-158524354D01*
X112036640Y-158557907D01*
X112097071Y-158590208D01*
X112122462Y-158611046D01*
X112145759Y-158625471D01*
X112197376Y-158672526D01*
X112254881Y-158719719D01*
X112271921Y-158740482D01*
X112287709Y-158754875D01*
X112333542Y-158815568D01*
X112384392Y-158877529D01*
X112394225Y-158895926D01*
X112403461Y-158908156D01*
X112440200Y-158981939D01*
X112480628Y-159057573D01*
X112484940Y-159071787D01*
X112489077Y-159080096D01*
X112513517Y-159165994D01*
X112539890Y-159252933D01*
X112540756Y-159261728D01*
X112541641Y-159264838D01*
X112550840Y-159364113D01*
X112559900Y-159456100D01*
X112550839Y-159548094D01*
X112541641Y-159647361D01*
X112540756Y-159650469D01*
X112539890Y-159659267D01*
X112513512Y-159746220D01*
X112489077Y-159832103D01*
X112484940Y-159840409D01*
X112480628Y-159854627D01*
X112440193Y-159930274D01*
X112403461Y-160004043D01*
X112394227Y-160016270D01*
X112384392Y-160034671D01*
X112333532Y-160096643D01*
X112287709Y-160157324D01*
X112271924Y-160171713D01*
X112254881Y-160192481D01*
X112197365Y-160239682D01*
X112145759Y-160286728D01*
X112122467Y-160301149D01*
X112097071Y-160321992D01*
X112036628Y-160354299D01*
X111982451Y-160387845D01*
X111951271Y-160399923D01*
X111917027Y-160418228D01*
X111857085Y-160436411D01*
X111803350Y-160457228D01*
X111764553Y-160464480D01*
X111721667Y-160477490D01*
X111665220Y-160483049D01*
X111614537Y-160492524D01*
X111569023Y-160492524D01*
X111518500Y-160497500D01*
X111467977Y-160492524D01*
X111422463Y-160492524D01*
X111371779Y-160483049D01*
X111315333Y-160477490D01*
X111272447Y-160464480D01*
X111233649Y-160457228D01*
X111179910Y-160436409D01*
X111119973Y-160418228D01*
X111085730Y-160399925D01*
X111054548Y-160387845D01*
X111000363Y-160354295D01*
X110939929Y-160321992D01*
X110914535Y-160301151D01*
X110891240Y-160286728D01*
X110839624Y-160239674D01*
X110782119Y-160192481D01*
X110765078Y-160171717D01*
X110749290Y-160157324D01*
X110703454Y-160096628D01*
X110652608Y-160034671D01*
X110642774Y-160016274D01*
X110633538Y-160004043D01*
X110596791Y-159930247D01*
X110556372Y-159854627D01*
X110552060Y-159840414D01*
X110547922Y-159832103D01*
X110523471Y-159746167D01*
X110497110Y-159659267D01*
X110496244Y-159650475D01*
X110495358Y-159647361D01*
X110486143Y-159547922D01*
X110477100Y-159456100D01*
X110486142Y-159364285D01*
X110495358Y-159264838D01*
X110496244Y-159261723D01*
X110497110Y-159252933D01*
X110523466Y-159166047D01*
X110547922Y-159080096D01*
X110552061Y-159071782D01*
X110556372Y-159057573D01*
X110596784Y-158981966D01*
X110633538Y-158908156D01*
X110642776Y-158895921D01*
X110652608Y-158877529D01*
X110703445Y-158815583D01*
X110749290Y-158754875D01*
X110765081Y-158740478D01*
X110782119Y-158719719D01*
X110839613Y-158672534D01*
X110891240Y-158625471D01*
X110914540Y-158611043D01*
X110939929Y-158590208D01*
X111000351Y-158557911D01*
X111054548Y-158524354D01*
X111085737Y-158512271D01*
X111119973Y-158493972D01*
X111179898Y-158475793D01*
X111233649Y-158454971D01*
X111272454Y-158447717D01*
X111315333Y-158434710D01*
X111371776Y-158429150D01*
X111422463Y-158419676D01*
X111467977Y-158419676D01*
X111518500Y-158414700D01*
X111569023Y-158419676D01*
G37*
G36*
X114109023Y-158419676D02*
G01*
X114154537Y-158419676D01*
X114205223Y-158429150D01*
X114261667Y-158434710D01*
X114304546Y-158447717D01*
X114343350Y-158454971D01*
X114397097Y-158475792D01*
X114457027Y-158493972D01*
X114491264Y-158512272D01*
X114522451Y-158524354D01*
X114576640Y-158557907D01*
X114637071Y-158590208D01*
X114662462Y-158611046D01*
X114685759Y-158625471D01*
X114737376Y-158672526D01*
X114794881Y-158719719D01*
X114811921Y-158740482D01*
X114827709Y-158754875D01*
X114873542Y-158815568D01*
X114924392Y-158877529D01*
X114934225Y-158895926D01*
X114943461Y-158908156D01*
X114980200Y-158981939D01*
X115020628Y-159057573D01*
X115024940Y-159071787D01*
X115029077Y-159080096D01*
X115053517Y-159165994D01*
X115079890Y-159252933D01*
X115080756Y-159261728D01*
X115081641Y-159264838D01*
X115090840Y-159364113D01*
X115099900Y-159456100D01*
X115090839Y-159548094D01*
X115081641Y-159647361D01*
X115080756Y-159650469D01*
X115079890Y-159659267D01*
X115053512Y-159746220D01*
X115029077Y-159832103D01*
X115024940Y-159840409D01*
X115020628Y-159854627D01*
X114980193Y-159930274D01*
X114943461Y-160004043D01*
X114934227Y-160016270D01*
X114924392Y-160034671D01*
X114873532Y-160096643D01*
X114827709Y-160157324D01*
X114811924Y-160171713D01*
X114794881Y-160192481D01*
X114737365Y-160239682D01*
X114685759Y-160286728D01*
X114662467Y-160301149D01*
X114637071Y-160321992D01*
X114576628Y-160354299D01*
X114522451Y-160387845D01*
X114491271Y-160399923D01*
X114457027Y-160418228D01*
X114397085Y-160436411D01*
X114343350Y-160457228D01*
X114304553Y-160464480D01*
X114261667Y-160477490D01*
X114205220Y-160483049D01*
X114154537Y-160492524D01*
X114109023Y-160492524D01*
X114058500Y-160497500D01*
X114007977Y-160492524D01*
X113962463Y-160492524D01*
X113911779Y-160483049D01*
X113855333Y-160477490D01*
X113812447Y-160464480D01*
X113773649Y-160457228D01*
X113719910Y-160436409D01*
X113659973Y-160418228D01*
X113625730Y-160399925D01*
X113594548Y-160387845D01*
X113540363Y-160354295D01*
X113479929Y-160321992D01*
X113454535Y-160301151D01*
X113431240Y-160286728D01*
X113379624Y-160239674D01*
X113322119Y-160192481D01*
X113305078Y-160171717D01*
X113289290Y-160157324D01*
X113243454Y-160096628D01*
X113192608Y-160034671D01*
X113182774Y-160016274D01*
X113173538Y-160004043D01*
X113136791Y-159930247D01*
X113096372Y-159854627D01*
X113092060Y-159840414D01*
X113087922Y-159832103D01*
X113063471Y-159746167D01*
X113037110Y-159659267D01*
X113036244Y-159650475D01*
X113035358Y-159647361D01*
X113026143Y-159547922D01*
X113017100Y-159456100D01*
X113026142Y-159364285D01*
X113035358Y-159264838D01*
X113036244Y-159261723D01*
X113037110Y-159252933D01*
X113063466Y-159166047D01*
X113087922Y-159080096D01*
X113092061Y-159071782D01*
X113096372Y-159057573D01*
X113136784Y-158981966D01*
X113173538Y-158908156D01*
X113182776Y-158895921D01*
X113192608Y-158877529D01*
X113243445Y-158815583D01*
X113289290Y-158754875D01*
X113305081Y-158740478D01*
X113322119Y-158719719D01*
X113379613Y-158672534D01*
X113431240Y-158625471D01*
X113454540Y-158611043D01*
X113479929Y-158590208D01*
X113540351Y-158557911D01*
X113594548Y-158524354D01*
X113625737Y-158512271D01*
X113659973Y-158493972D01*
X113719898Y-158475793D01*
X113773649Y-158454971D01*
X113812454Y-158447717D01*
X113855333Y-158434710D01*
X113911776Y-158429150D01*
X113962463Y-158419676D01*
X114007977Y-158419676D01*
X114058500Y-158414700D01*
X114109023Y-158419676D01*
G37*
G36*
X121739023Y-158419676D02*
G01*
X121784537Y-158419676D01*
X121835223Y-158429150D01*
X121891667Y-158434710D01*
X121934546Y-158447717D01*
X121973350Y-158454971D01*
X122027097Y-158475792D01*
X122087027Y-158493972D01*
X122121264Y-158512272D01*
X122152451Y-158524354D01*
X122206640Y-158557907D01*
X122267071Y-158590208D01*
X122292462Y-158611046D01*
X122315759Y-158625471D01*
X122367376Y-158672526D01*
X122424881Y-158719719D01*
X122441921Y-158740482D01*
X122457709Y-158754875D01*
X122503542Y-158815568D01*
X122554392Y-158877529D01*
X122564225Y-158895926D01*
X122573461Y-158908156D01*
X122610200Y-158981939D01*
X122650628Y-159057573D01*
X122654940Y-159071787D01*
X122659077Y-159080096D01*
X122683517Y-159165994D01*
X122709890Y-159252933D01*
X122710756Y-159261728D01*
X122711641Y-159264838D01*
X122720840Y-159364113D01*
X122729900Y-159456100D01*
X122720839Y-159548094D01*
X122711641Y-159647361D01*
X122710756Y-159650469D01*
X122709890Y-159659267D01*
X122683512Y-159746220D01*
X122659077Y-159832103D01*
X122654940Y-159840409D01*
X122650628Y-159854627D01*
X122610193Y-159930274D01*
X122573461Y-160004043D01*
X122564227Y-160016270D01*
X122554392Y-160034671D01*
X122503532Y-160096643D01*
X122457709Y-160157324D01*
X122441924Y-160171713D01*
X122424881Y-160192481D01*
X122367365Y-160239682D01*
X122315759Y-160286728D01*
X122292467Y-160301149D01*
X122267071Y-160321992D01*
X122206628Y-160354299D01*
X122152451Y-160387845D01*
X122121271Y-160399923D01*
X122087027Y-160418228D01*
X122027085Y-160436411D01*
X121973350Y-160457228D01*
X121934553Y-160464480D01*
X121891667Y-160477490D01*
X121835220Y-160483049D01*
X121784537Y-160492524D01*
X121739023Y-160492524D01*
X121688500Y-160497500D01*
X121637977Y-160492524D01*
X121592463Y-160492524D01*
X121541779Y-160483049D01*
X121485333Y-160477490D01*
X121442447Y-160464480D01*
X121403649Y-160457228D01*
X121349910Y-160436409D01*
X121289973Y-160418228D01*
X121255730Y-160399925D01*
X121224548Y-160387845D01*
X121170363Y-160354295D01*
X121109929Y-160321992D01*
X121084535Y-160301151D01*
X121061240Y-160286728D01*
X121009624Y-160239674D01*
X120952119Y-160192481D01*
X120935078Y-160171717D01*
X120919290Y-160157324D01*
X120873454Y-160096628D01*
X120822608Y-160034671D01*
X120812774Y-160016274D01*
X120803538Y-160004043D01*
X120766791Y-159930247D01*
X120726372Y-159854627D01*
X120722060Y-159840414D01*
X120717922Y-159832103D01*
X120693471Y-159746167D01*
X120667110Y-159659267D01*
X120666244Y-159650475D01*
X120665358Y-159647361D01*
X120656143Y-159547922D01*
X120647100Y-159456100D01*
X120656142Y-159364285D01*
X120665358Y-159264838D01*
X120666244Y-159261723D01*
X120667110Y-159252933D01*
X120693466Y-159166047D01*
X120717922Y-159080096D01*
X120722061Y-159071782D01*
X120726372Y-159057573D01*
X120766784Y-158981966D01*
X120803538Y-158908156D01*
X120812776Y-158895921D01*
X120822608Y-158877529D01*
X120873445Y-158815583D01*
X120919290Y-158754875D01*
X120935081Y-158740478D01*
X120952119Y-158719719D01*
X121009613Y-158672534D01*
X121061240Y-158625471D01*
X121084540Y-158611043D01*
X121109929Y-158590208D01*
X121170351Y-158557911D01*
X121224548Y-158524354D01*
X121255737Y-158512271D01*
X121289973Y-158493972D01*
X121349898Y-158475793D01*
X121403649Y-158454971D01*
X121442454Y-158447717D01*
X121485333Y-158434710D01*
X121541776Y-158429150D01*
X121592463Y-158419676D01*
X121637977Y-158419676D01*
X121688500Y-158414700D01*
X121739023Y-158419676D01*
G37*
G36*
X124279023Y-158419676D02*
G01*
X124324537Y-158419676D01*
X124375223Y-158429150D01*
X124431667Y-158434710D01*
X124474546Y-158447717D01*
X124513350Y-158454971D01*
X124567097Y-158475792D01*
X124627027Y-158493972D01*
X124661264Y-158512272D01*
X124692451Y-158524354D01*
X124746640Y-158557907D01*
X124807071Y-158590208D01*
X124832462Y-158611046D01*
X124855759Y-158625471D01*
X124907376Y-158672526D01*
X124964881Y-158719719D01*
X124981921Y-158740482D01*
X124997709Y-158754875D01*
X125043542Y-158815568D01*
X125094392Y-158877529D01*
X125104225Y-158895926D01*
X125113461Y-158908156D01*
X125150200Y-158981939D01*
X125190628Y-159057573D01*
X125194940Y-159071787D01*
X125199077Y-159080096D01*
X125223517Y-159165994D01*
X125249890Y-159252933D01*
X125250756Y-159261728D01*
X125251641Y-159264838D01*
X125260840Y-159364113D01*
X125269900Y-159456100D01*
X125260839Y-159548094D01*
X125251641Y-159647361D01*
X125250756Y-159650469D01*
X125249890Y-159659267D01*
X125223512Y-159746220D01*
X125199077Y-159832103D01*
X125194940Y-159840409D01*
X125190628Y-159854627D01*
X125150193Y-159930274D01*
X125113461Y-160004043D01*
X125104227Y-160016270D01*
X125094392Y-160034671D01*
X125043532Y-160096643D01*
X124997709Y-160157324D01*
X124981924Y-160171713D01*
X124964881Y-160192481D01*
X124907365Y-160239682D01*
X124855759Y-160286728D01*
X124832467Y-160301149D01*
X124807071Y-160321992D01*
X124746628Y-160354299D01*
X124692451Y-160387845D01*
X124661271Y-160399923D01*
X124627027Y-160418228D01*
X124567085Y-160436411D01*
X124513350Y-160457228D01*
X124474553Y-160464480D01*
X124431667Y-160477490D01*
X124375220Y-160483049D01*
X124324537Y-160492524D01*
X124279023Y-160492524D01*
X124228500Y-160497500D01*
X124177977Y-160492524D01*
X124132463Y-160492524D01*
X124081779Y-160483049D01*
X124025333Y-160477490D01*
X123982447Y-160464480D01*
X123943649Y-160457228D01*
X123889910Y-160436409D01*
X123829973Y-160418228D01*
X123795730Y-160399925D01*
X123764548Y-160387845D01*
X123710363Y-160354295D01*
X123649929Y-160321992D01*
X123624535Y-160301151D01*
X123601240Y-160286728D01*
X123549624Y-160239674D01*
X123492119Y-160192481D01*
X123475078Y-160171717D01*
X123459290Y-160157324D01*
X123413454Y-160096628D01*
X123362608Y-160034671D01*
X123352774Y-160016274D01*
X123343538Y-160004043D01*
X123306791Y-159930247D01*
X123266372Y-159854627D01*
X123262060Y-159840414D01*
X123257922Y-159832103D01*
X123233471Y-159746167D01*
X123207110Y-159659267D01*
X123206244Y-159650475D01*
X123205358Y-159647361D01*
X123196143Y-159547922D01*
X123187100Y-159456100D01*
X123196142Y-159364285D01*
X123205358Y-159264838D01*
X123206244Y-159261723D01*
X123207110Y-159252933D01*
X123233466Y-159166047D01*
X123257922Y-159080096D01*
X123262061Y-159071782D01*
X123266372Y-159057573D01*
X123306784Y-158981966D01*
X123343538Y-158908156D01*
X123352776Y-158895921D01*
X123362608Y-158877529D01*
X123413445Y-158815583D01*
X123459290Y-158754875D01*
X123475081Y-158740478D01*
X123492119Y-158719719D01*
X123549613Y-158672534D01*
X123601240Y-158625471D01*
X123624540Y-158611043D01*
X123649929Y-158590208D01*
X123710351Y-158557911D01*
X123764548Y-158524354D01*
X123795737Y-158512271D01*
X123829973Y-158493972D01*
X123889898Y-158475793D01*
X123943649Y-158454971D01*
X123982454Y-158447717D01*
X124025333Y-158434710D01*
X124081776Y-158429150D01*
X124132463Y-158419676D01*
X124177977Y-158419676D01*
X124228500Y-158414700D01*
X124279023Y-158419676D01*
G37*
G36*
X126809023Y-158419676D02*
G01*
X126854537Y-158419676D01*
X126905223Y-158429150D01*
X126961667Y-158434710D01*
X127004546Y-158447717D01*
X127043350Y-158454971D01*
X127097097Y-158475792D01*
X127157027Y-158493972D01*
X127191264Y-158512272D01*
X127222451Y-158524354D01*
X127276640Y-158557907D01*
X127337071Y-158590208D01*
X127362462Y-158611046D01*
X127385759Y-158625471D01*
X127437376Y-158672526D01*
X127494881Y-158719719D01*
X127511921Y-158740482D01*
X127527709Y-158754875D01*
X127573542Y-158815568D01*
X127624392Y-158877529D01*
X127634225Y-158895926D01*
X127643461Y-158908156D01*
X127680200Y-158981939D01*
X127720628Y-159057573D01*
X127724940Y-159071787D01*
X127729077Y-159080096D01*
X127753517Y-159165994D01*
X127779890Y-159252933D01*
X127780756Y-159261728D01*
X127781641Y-159264838D01*
X127790840Y-159364113D01*
X127799900Y-159456100D01*
X127790839Y-159548094D01*
X127781641Y-159647361D01*
X127780756Y-159650469D01*
X127779890Y-159659267D01*
X127753512Y-159746220D01*
X127729077Y-159832103D01*
X127724940Y-159840409D01*
X127720628Y-159854627D01*
X127680193Y-159930274D01*
X127643461Y-160004043D01*
X127634227Y-160016270D01*
X127624392Y-160034671D01*
X127573532Y-160096643D01*
X127527709Y-160157324D01*
X127511924Y-160171713D01*
X127494881Y-160192481D01*
X127437365Y-160239682D01*
X127385759Y-160286728D01*
X127362467Y-160301149D01*
X127337071Y-160321992D01*
X127276628Y-160354299D01*
X127222451Y-160387845D01*
X127191271Y-160399923D01*
X127157027Y-160418228D01*
X127097085Y-160436411D01*
X127043350Y-160457228D01*
X127004553Y-160464480D01*
X126961667Y-160477490D01*
X126905220Y-160483049D01*
X126854537Y-160492524D01*
X126809023Y-160492524D01*
X126758500Y-160497500D01*
X126707977Y-160492524D01*
X126662463Y-160492524D01*
X126611779Y-160483049D01*
X126555333Y-160477490D01*
X126512447Y-160464480D01*
X126473649Y-160457228D01*
X126419910Y-160436409D01*
X126359973Y-160418228D01*
X126325730Y-160399925D01*
X126294548Y-160387845D01*
X126240363Y-160354295D01*
X126179929Y-160321992D01*
X126154535Y-160301151D01*
X126131240Y-160286728D01*
X126079624Y-160239674D01*
X126022119Y-160192481D01*
X126005078Y-160171717D01*
X125989290Y-160157324D01*
X125943454Y-160096628D01*
X125892608Y-160034671D01*
X125882774Y-160016274D01*
X125873538Y-160004043D01*
X125836791Y-159930247D01*
X125796372Y-159854627D01*
X125792060Y-159840414D01*
X125787922Y-159832103D01*
X125763471Y-159746167D01*
X125737110Y-159659267D01*
X125736244Y-159650475D01*
X125735358Y-159647361D01*
X125726143Y-159547922D01*
X125717100Y-159456100D01*
X125726142Y-159364285D01*
X125735358Y-159264838D01*
X125736244Y-159261723D01*
X125737110Y-159252933D01*
X125763466Y-159166047D01*
X125787922Y-159080096D01*
X125792061Y-159071782D01*
X125796372Y-159057573D01*
X125836784Y-158981966D01*
X125873538Y-158908156D01*
X125882776Y-158895921D01*
X125892608Y-158877529D01*
X125943445Y-158815583D01*
X125989290Y-158754875D01*
X126005081Y-158740478D01*
X126022119Y-158719719D01*
X126079613Y-158672534D01*
X126131240Y-158625471D01*
X126154540Y-158611043D01*
X126179929Y-158590208D01*
X126240351Y-158557911D01*
X126294548Y-158524354D01*
X126325737Y-158512271D01*
X126359973Y-158493972D01*
X126419898Y-158475793D01*
X126473649Y-158454971D01*
X126512454Y-158447717D01*
X126555333Y-158434710D01*
X126611776Y-158429150D01*
X126662463Y-158419676D01*
X126707977Y-158419676D01*
X126758500Y-158414700D01*
X126809023Y-158419676D01*
G37*
G36*
X116659023Y-158409676D02*
G01*
X116704537Y-158409676D01*
X116755223Y-158419150D01*
X116811667Y-158424710D01*
X116854546Y-158437717D01*
X116893350Y-158444971D01*
X116947097Y-158465792D01*
X117007027Y-158483972D01*
X117041264Y-158502272D01*
X117072451Y-158514354D01*
X117126640Y-158547907D01*
X117187071Y-158580208D01*
X117212462Y-158601046D01*
X117235759Y-158615471D01*
X117287376Y-158662526D01*
X117344881Y-158709719D01*
X117361921Y-158730482D01*
X117377709Y-158744875D01*
X117423542Y-158805568D01*
X117474392Y-158867529D01*
X117484225Y-158885926D01*
X117493461Y-158898156D01*
X117530200Y-158971939D01*
X117570628Y-159047573D01*
X117574940Y-159061787D01*
X117579077Y-159070096D01*
X117603517Y-159155994D01*
X117629890Y-159242933D01*
X117630756Y-159251728D01*
X117631641Y-159254838D01*
X117640840Y-159354113D01*
X117649900Y-159446100D01*
X117640839Y-159538094D01*
X117631641Y-159637361D01*
X117630756Y-159640469D01*
X117629890Y-159649267D01*
X117603512Y-159736220D01*
X117579077Y-159822103D01*
X117574940Y-159830409D01*
X117570628Y-159844627D01*
X117530193Y-159920274D01*
X117493461Y-159994043D01*
X117484227Y-160006270D01*
X117474392Y-160024671D01*
X117423532Y-160086643D01*
X117377709Y-160147324D01*
X117361924Y-160161713D01*
X117344881Y-160182481D01*
X117287365Y-160229682D01*
X117235759Y-160276728D01*
X117212467Y-160291149D01*
X117187071Y-160311992D01*
X117126628Y-160344299D01*
X117072451Y-160377845D01*
X117041271Y-160389923D01*
X117007027Y-160408228D01*
X116947085Y-160426411D01*
X116893350Y-160447228D01*
X116854553Y-160454480D01*
X116811667Y-160467490D01*
X116755220Y-160473049D01*
X116704537Y-160482524D01*
X116659023Y-160482524D01*
X116608500Y-160487500D01*
X116557977Y-160482524D01*
X116512463Y-160482524D01*
X116461779Y-160473049D01*
X116405333Y-160467490D01*
X116362447Y-160454480D01*
X116323649Y-160447228D01*
X116269910Y-160426409D01*
X116209973Y-160408228D01*
X116175730Y-160389925D01*
X116144548Y-160377845D01*
X116090363Y-160344295D01*
X116029929Y-160311992D01*
X116004535Y-160291151D01*
X115981240Y-160276728D01*
X115929624Y-160229674D01*
X115872119Y-160182481D01*
X115855078Y-160161717D01*
X115839290Y-160147324D01*
X115793454Y-160086628D01*
X115742608Y-160024671D01*
X115732774Y-160006274D01*
X115723538Y-159994043D01*
X115686791Y-159920247D01*
X115646372Y-159844627D01*
X115642060Y-159830414D01*
X115637922Y-159822103D01*
X115613471Y-159736167D01*
X115587110Y-159649267D01*
X115586244Y-159640475D01*
X115585358Y-159637361D01*
X115576143Y-159537922D01*
X115567100Y-159446100D01*
X115576142Y-159354285D01*
X115585358Y-159254838D01*
X115586244Y-159251723D01*
X115587110Y-159242933D01*
X115613466Y-159156047D01*
X115637922Y-159070096D01*
X115642061Y-159061782D01*
X115646372Y-159047573D01*
X115686784Y-158971966D01*
X115723538Y-158898156D01*
X115732776Y-158885921D01*
X115742608Y-158867529D01*
X115793445Y-158805583D01*
X115839290Y-158744875D01*
X115855081Y-158730478D01*
X115872119Y-158709719D01*
X115929613Y-158662534D01*
X115981240Y-158615471D01*
X116004540Y-158601043D01*
X116029929Y-158580208D01*
X116090351Y-158547911D01*
X116144548Y-158514354D01*
X116175737Y-158502271D01*
X116209973Y-158483972D01*
X116269898Y-158465793D01*
X116323649Y-158444971D01*
X116362454Y-158437717D01*
X116405333Y-158424710D01*
X116461776Y-158419150D01*
X116512463Y-158409676D01*
X116557977Y-158409676D01*
X116608500Y-158404700D01*
X116659023Y-158409676D01*
G37*
G36*
X119189023Y-158409676D02*
G01*
X119234537Y-158409676D01*
X119285223Y-158419150D01*
X119341667Y-158424710D01*
X119384546Y-158437717D01*
X119423350Y-158444971D01*
X119477097Y-158465792D01*
X119537027Y-158483972D01*
X119571264Y-158502272D01*
X119602451Y-158514354D01*
X119656640Y-158547907D01*
X119717071Y-158580208D01*
X119742462Y-158601046D01*
X119765759Y-158615471D01*
X119817376Y-158662526D01*
X119874881Y-158709719D01*
X119891921Y-158730482D01*
X119907709Y-158744875D01*
X119953542Y-158805568D01*
X120004392Y-158867529D01*
X120014225Y-158885926D01*
X120023461Y-158898156D01*
X120060200Y-158971939D01*
X120100628Y-159047573D01*
X120104940Y-159061787D01*
X120109077Y-159070096D01*
X120133517Y-159155994D01*
X120159890Y-159242933D01*
X120160756Y-159251728D01*
X120161641Y-159254838D01*
X120170840Y-159354113D01*
X120179900Y-159446100D01*
X120170839Y-159538094D01*
X120161641Y-159637361D01*
X120160756Y-159640469D01*
X120159890Y-159649267D01*
X120133512Y-159736220D01*
X120109077Y-159822103D01*
X120104940Y-159830409D01*
X120100628Y-159844627D01*
X120060193Y-159920274D01*
X120023461Y-159994043D01*
X120014227Y-160006270D01*
X120004392Y-160024671D01*
X119953532Y-160086643D01*
X119907709Y-160147324D01*
X119891924Y-160161713D01*
X119874881Y-160182481D01*
X119817365Y-160229682D01*
X119765759Y-160276728D01*
X119742467Y-160291149D01*
X119717071Y-160311992D01*
X119656628Y-160344299D01*
X119602451Y-160377845D01*
X119571271Y-160389923D01*
X119537027Y-160408228D01*
X119477085Y-160426411D01*
X119423350Y-160447228D01*
X119384553Y-160454480D01*
X119341667Y-160467490D01*
X119285220Y-160473049D01*
X119234537Y-160482524D01*
X119189023Y-160482524D01*
X119138500Y-160487500D01*
X119087977Y-160482524D01*
X119042463Y-160482524D01*
X118991779Y-160473049D01*
X118935333Y-160467490D01*
X118892447Y-160454480D01*
X118853649Y-160447228D01*
X118799910Y-160426409D01*
X118739973Y-160408228D01*
X118705730Y-160389925D01*
X118674548Y-160377845D01*
X118620363Y-160344295D01*
X118559929Y-160311992D01*
X118534535Y-160291151D01*
X118511240Y-160276728D01*
X118459624Y-160229674D01*
X118402119Y-160182481D01*
X118385078Y-160161717D01*
X118369290Y-160147324D01*
X118323454Y-160086628D01*
X118272608Y-160024671D01*
X118262774Y-160006274D01*
X118253538Y-159994043D01*
X118216791Y-159920247D01*
X118176372Y-159844627D01*
X118172060Y-159830414D01*
X118167922Y-159822103D01*
X118143471Y-159736167D01*
X118117110Y-159649267D01*
X118116244Y-159640475D01*
X118115358Y-159637361D01*
X118106143Y-159537922D01*
X118097100Y-159446100D01*
X118106142Y-159354285D01*
X118115358Y-159254838D01*
X118116244Y-159251723D01*
X118117110Y-159242933D01*
X118143466Y-159156047D01*
X118167922Y-159070096D01*
X118172061Y-159061782D01*
X118176372Y-159047573D01*
X118216784Y-158971966D01*
X118253538Y-158898156D01*
X118262776Y-158885921D01*
X118272608Y-158867529D01*
X118323445Y-158805583D01*
X118369290Y-158744875D01*
X118385081Y-158730478D01*
X118402119Y-158709719D01*
X118459613Y-158662534D01*
X118511240Y-158615471D01*
X118534540Y-158601043D01*
X118559929Y-158580208D01*
X118620351Y-158547911D01*
X118674548Y-158514354D01*
X118705737Y-158502271D01*
X118739973Y-158483972D01*
X118799898Y-158465793D01*
X118853649Y-158444971D01*
X118892454Y-158437717D01*
X118935333Y-158424710D01*
X118991776Y-158419150D01*
X119042463Y-158409676D01*
X119087977Y-158409676D01*
X119138500Y-158404700D01*
X119189023Y-158409676D01*
G37*
G36*
X104445600Y-154592138D02*
G01*
X104484912Y-154592138D01*
X104529258Y-154601564D01*
X104580910Y-154607384D01*
X104618470Y-154620527D01*
X104651017Y-154627445D01*
X104697917Y-154648326D01*
X104752747Y-154667512D01*
X104781287Y-154685445D01*
X104806155Y-154696517D01*
X104852523Y-154730205D01*
X104906897Y-154764371D01*
X104926423Y-154783897D01*
X104943542Y-154796335D01*
X104985860Y-154843334D01*
X105035629Y-154893103D01*
X105047076Y-154911322D01*
X105057173Y-154922535D01*
X105091716Y-154982365D01*
X105132488Y-155047253D01*
X105137577Y-155061799D01*
X105142084Y-155069604D01*
X105165157Y-155140618D01*
X105192616Y-155219090D01*
X105193657Y-155228331D01*
X105194560Y-155231110D01*
X105202745Y-155308993D01*
X105213000Y-155400000D01*
X105202745Y-155491013D01*
X105194560Y-155568889D01*
X105193657Y-155571666D01*
X105192616Y-155580910D01*
X105165153Y-155659394D01*
X105142084Y-155730395D01*
X105137578Y-155738198D01*
X105132488Y-155752747D01*
X105091709Y-155817645D01*
X105057173Y-155877464D01*
X105047078Y-155888674D01*
X105035629Y-155906897D01*
X104985851Y-155956674D01*
X104943542Y-156003664D01*
X104926427Y-156016098D01*
X104906897Y-156035629D01*
X104852512Y-156069800D01*
X104806155Y-156103482D01*
X104781293Y-156114551D01*
X104752747Y-156132488D01*
X104697906Y-156151677D01*
X104651017Y-156172554D01*
X104618476Y-156179470D01*
X104580910Y-156192616D01*
X104529255Y-156198436D01*
X104484912Y-156207862D01*
X104445600Y-156207862D01*
X104400000Y-156213000D01*
X104354400Y-156207862D01*
X104315088Y-156207862D01*
X104270744Y-156198436D01*
X104219090Y-156192616D01*
X104181524Y-156179471D01*
X104148982Y-156172554D01*
X104102088Y-156151675D01*
X104047253Y-156132488D01*
X104018709Y-156114552D01*
X103993844Y-156103482D01*
X103947479Y-156069796D01*
X103893103Y-156035629D01*
X103873575Y-156016101D01*
X103856457Y-156003664D01*
X103814138Y-155956664D01*
X103764371Y-155906897D01*
X103752923Y-155888678D01*
X103742826Y-155877464D01*
X103708278Y-155817626D01*
X103667512Y-155752747D01*
X103662422Y-155738202D01*
X103657915Y-155730395D01*
X103634832Y-155659354D01*
X103607384Y-155580910D01*
X103606343Y-155571671D01*
X103605439Y-155568889D01*
X103597240Y-155490881D01*
X103587000Y-155400000D01*
X103597239Y-155309125D01*
X103605439Y-155231110D01*
X103606343Y-155228327D01*
X103607384Y-155219090D01*
X103634828Y-155140658D01*
X103657915Y-155069604D01*
X103662423Y-155061794D01*
X103667512Y-155047253D01*
X103708271Y-154982385D01*
X103742826Y-154922535D01*
X103752925Y-154911318D01*
X103764371Y-154893103D01*
X103814130Y-154843343D01*
X103856459Y-154796333D01*
X103873580Y-154783893D01*
X103893103Y-154764371D01*
X103947464Y-154730213D01*
X103993842Y-154696518D01*
X104018713Y-154685444D01*
X104047253Y-154667512D01*
X104102081Y-154648326D01*
X104148983Y-154627445D01*
X104181529Y-154620527D01*
X104219090Y-154607384D01*
X104270741Y-154601564D01*
X104315088Y-154592138D01*
X104354400Y-154592138D01*
X104400000Y-154587000D01*
X104445600Y-154592138D01*
G37*
G36*
X104445600Y-152592138D02*
G01*
X104484912Y-152592138D01*
X104529258Y-152601564D01*
X104580910Y-152607384D01*
X104618470Y-152620527D01*
X104651017Y-152627445D01*
X104697917Y-152648326D01*
X104752747Y-152667512D01*
X104781287Y-152685445D01*
X104806155Y-152696517D01*
X104852523Y-152730205D01*
X104906897Y-152764371D01*
X104926423Y-152783897D01*
X104943542Y-152796335D01*
X104985860Y-152843334D01*
X105035629Y-152893103D01*
X105047076Y-152911322D01*
X105057173Y-152922535D01*
X105091716Y-152982365D01*
X105132488Y-153047253D01*
X105137577Y-153061799D01*
X105142084Y-153069604D01*
X105165157Y-153140618D01*
X105192616Y-153219090D01*
X105193657Y-153228331D01*
X105194560Y-153231110D01*
X105202745Y-153308993D01*
X105213000Y-153400000D01*
X105202745Y-153491013D01*
X105194560Y-153568889D01*
X105193657Y-153571666D01*
X105192616Y-153580910D01*
X105165153Y-153659394D01*
X105142084Y-153730395D01*
X105137578Y-153738198D01*
X105132488Y-153752747D01*
X105091709Y-153817645D01*
X105057173Y-153877464D01*
X105047078Y-153888674D01*
X105035629Y-153906897D01*
X104985851Y-153956674D01*
X104943542Y-154003664D01*
X104926427Y-154016098D01*
X104906897Y-154035629D01*
X104852512Y-154069800D01*
X104806155Y-154103482D01*
X104781293Y-154114551D01*
X104752747Y-154132488D01*
X104697906Y-154151677D01*
X104651017Y-154172554D01*
X104618476Y-154179470D01*
X104580910Y-154192616D01*
X104529255Y-154198436D01*
X104484912Y-154207862D01*
X104445600Y-154207862D01*
X104400000Y-154213000D01*
X104354400Y-154207862D01*
X104315088Y-154207862D01*
X104270744Y-154198436D01*
X104219090Y-154192616D01*
X104181524Y-154179471D01*
X104148982Y-154172554D01*
X104102088Y-154151675D01*
X104047253Y-154132488D01*
X104018709Y-154114552D01*
X103993844Y-154103482D01*
X103947479Y-154069796D01*
X103893103Y-154035629D01*
X103873575Y-154016101D01*
X103856457Y-154003664D01*
X103814138Y-153956664D01*
X103764371Y-153906897D01*
X103752923Y-153888678D01*
X103742826Y-153877464D01*
X103708278Y-153817626D01*
X103667512Y-153752747D01*
X103662422Y-153738202D01*
X103657915Y-153730395D01*
X103634832Y-153659354D01*
X103607384Y-153580910D01*
X103606343Y-153571671D01*
X103605439Y-153568889D01*
X103597240Y-153490881D01*
X103587000Y-153400000D01*
X103597239Y-153309125D01*
X103605439Y-153231110D01*
X103606343Y-153228327D01*
X103607384Y-153219090D01*
X103634828Y-153140658D01*
X103657915Y-153069604D01*
X103662423Y-153061794D01*
X103667512Y-153047253D01*
X103708271Y-152982385D01*
X103742826Y-152922535D01*
X103752925Y-152911318D01*
X103764371Y-152893103D01*
X103814130Y-152843343D01*
X103856459Y-152796333D01*
X103873580Y-152783893D01*
X103893103Y-152764371D01*
X103947464Y-152730213D01*
X103993842Y-152696518D01*
X104018713Y-152685444D01*
X104047253Y-152667512D01*
X104102081Y-152648326D01*
X104148983Y-152627445D01*
X104181529Y-152620527D01*
X104219090Y-152607384D01*
X104270741Y-152601564D01*
X104315088Y-152592138D01*
X104354400Y-152592138D01*
X104400000Y-152587000D01*
X104445600Y-152592138D01*
G37*
G36*
X104445600Y-150592138D02*
G01*
X104484912Y-150592138D01*
X104529258Y-150601564D01*
X104580910Y-150607384D01*
X104618470Y-150620527D01*
X104651017Y-150627445D01*
X104697917Y-150648326D01*
X104752747Y-150667512D01*
X104781287Y-150685445D01*
X104806155Y-150696517D01*
X104852523Y-150730205D01*
X104906897Y-150764371D01*
X104926423Y-150783897D01*
X104943542Y-150796335D01*
X104985860Y-150843334D01*
X105035629Y-150893103D01*
X105047076Y-150911322D01*
X105057173Y-150922535D01*
X105091716Y-150982365D01*
X105132488Y-151047253D01*
X105137577Y-151061799D01*
X105142084Y-151069604D01*
X105165157Y-151140618D01*
X105192616Y-151219090D01*
X105193657Y-151228331D01*
X105194560Y-151231110D01*
X105202745Y-151308993D01*
X105213000Y-151400000D01*
X105202745Y-151491013D01*
X105194560Y-151568889D01*
X105193657Y-151571666D01*
X105192616Y-151580910D01*
X105165153Y-151659394D01*
X105142084Y-151730395D01*
X105137578Y-151738198D01*
X105132488Y-151752747D01*
X105091709Y-151817645D01*
X105057173Y-151877464D01*
X105047078Y-151888674D01*
X105035629Y-151906897D01*
X104985851Y-151956674D01*
X104943542Y-152003664D01*
X104926427Y-152016098D01*
X104906897Y-152035629D01*
X104852512Y-152069800D01*
X104806155Y-152103482D01*
X104781293Y-152114551D01*
X104752747Y-152132488D01*
X104697906Y-152151677D01*
X104651017Y-152172554D01*
X104618476Y-152179470D01*
X104580910Y-152192616D01*
X104529255Y-152198436D01*
X104484912Y-152207862D01*
X104445600Y-152207862D01*
X104400000Y-152213000D01*
X104354400Y-152207862D01*
X104315088Y-152207862D01*
X104270744Y-152198436D01*
X104219090Y-152192616D01*
X104181524Y-152179471D01*
X104148982Y-152172554D01*
X104102088Y-152151675D01*
X104047253Y-152132488D01*
X104018709Y-152114552D01*
X103993844Y-152103482D01*
X103947479Y-152069796D01*
X103893103Y-152035629D01*
X103873575Y-152016101D01*
X103856457Y-152003664D01*
X103814138Y-151956664D01*
X103764371Y-151906897D01*
X103752923Y-151888678D01*
X103742826Y-151877464D01*
X103708278Y-151817626D01*
X103667512Y-151752747D01*
X103662422Y-151738202D01*
X103657915Y-151730395D01*
X103634832Y-151659354D01*
X103607384Y-151580910D01*
X103606343Y-151571671D01*
X103605439Y-151568889D01*
X103597240Y-151490881D01*
X103587000Y-151400000D01*
X103597239Y-151309125D01*
X103605439Y-151231110D01*
X103606343Y-151228327D01*
X103607384Y-151219090D01*
X103634828Y-151140658D01*
X103657915Y-151069604D01*
X103662423Y-151061794D01*
X103667512Y-151047253D01*
X103708271Y-150982385D01*
X103742826Y-150922535D01*
X103752925Y-150911318D01*
X103764371Y-150893103D01*
X103814130Y-150843343D01*
X103856459Y-150796333D01*
X103873580Y-150783893D01*
X103893103Y-150764371D01*
X103947464Y-150730213D01*
X103993842Y-150696518D01*
X104018713Y-150685444D01*
X104047253Y-150667512D01*
X104102081Y-150648326D01*
X104148983Y-150627445D01*
X104181529Y-150620527D01*
X104219090Y-150607384D01*
X104270741Y-150601564D01*
X104315088Y-150592138D01*
X104354400Y-150592138D01*
X104400000Y-150587000D01*
X104445600Y-150592138D01*
G37*
G36*
X105181517Y-148590882D02*
G01*
X105198062Y-148601938D01*
X105209118Y-148618483D01*
X105213000Y-148638000D01*
X105213000Y-150162000D01*
X105209118Y-150181517D01*
X105198062Y-150198062D01*
X105181517Y-150209118D01*
X105162000Y-150213000D01*
X103638000Y-150213000D01*
X103618483Y-150209118D01*
X103601938Y-150198062D01*
X103590882Y-150181517D01*
X103587000Y-150162000D01*
X103587000Y-148638000D01*
X103590882Y-148618483D01*
X103601938Y-148601938D01*
X103618483Y-148590882D01*
X103638000Y-148587000D01*
X105162000Y-148587000D01*
X105181517Y-148590882D01*
G37*
G36*
X111569023Y-142919676D02*
G01*
X111614537Y-142919676D01*
X111665223Y-142929150D01*
X111721667Y-142934710D01*
X111764546Y-142947717D01*
X111803350Y-142954971D01*
X111857097Y-142975792D01*
X111917027Y-142993972D01*
X111951264Y-143012272D01*
X111982451Y-143024354D01*
X112036640Y-143057907D01*
X112097071Y-143090208D01*
X112122462Y-143111046D01*
X112145759Y-143125471D01*
X112197376Y-143172526D01*
X112254881Y-143219719D01*
X112271921Y-143240482D01*
X112287709Y-143254875D01*
X112333542Y-143315568D01*
X112384392Y-143377529D01*
X112394225Y-143395926D01*
X112403461Y-143408156D01*
X112440200Y-143481939D01*
X112480628Y-143557573D01*
X112484940Y-143571787D01*
X112489077Y-143580096D01*
X112513517Y-143665994D01*
X112539890Y-143752933D01*
X112540756Y-143761728D01*
X112541641Y-143764838D01*
X112550840Y-143864113D01*
X112559900Y-143956100D01*
X112550839Y-144048094D01*
X112541641Y-144147361D01*
X112540756Y-144150469D01*
X112539890Y-144159267D01*
X112513512Y-144246220D01*
X112489077Y-144332103D01*
X112484940Y-144340409D01*
X112480628Y-144354627D01*
X112440193Y-144430274D01*
X112403461Y-144504043D01*
X112394227Y-144516270D01*
X112384392Y-144534671D01*
X112333532Y-144596643D01*
X112287709Y-144657324D01*
X112271924Y-144671713D01*
X112254881Y-144692481D01*
X112197365Y-144739682D01*
X112145759Y-144786728D01*
X112122467Y-144801149D01*
X112097071Y-144821992D01*
X112036628Y-144854299D01*
X111982451Y-144887845D01*
X111951271Y-144899923D01*
X111917027Y-144918228D01*
X111857085Y-144936411D01*
X111803350Y-144957228D01*
X111764553Y-144964480D01*
X111721667Y-144977490D01*
X111665220Y-144983049D01*
X111614537Y-144992524D01*
X111569023Y-144992524D01*
X111518500Y-144997500D01*
X111467977Y-144992524D01*
X111422463Y-144992524D01*
X111371779Y-144983049D01*
X111315333Y-144977490D01*
X111272447Y-144964480D01*
X111233649Y-144957228D01*
X111179910Y-144936409D01*
X111119973Y-144918228D01*
X111085730Y-144899925D01*
X111054548Y-144887845D01*
X111000363Y-144854295D01*
X110939929Y-144821992D01*
X110914535Y-144801151D01*
X110891240Y-144786728D01*
X110839624Y-144739674D01*
X110782119Y-144692481D01*
X110765078Y-144671717D01*
X110749290Y-144657324D01*
X110703454Y-144596628D01*
X110652608Y-144534671D01*
X110642774Y-144516274D01*
X110633538Y-144504043D01*
X110596791Y-144430247D01*
X110556372Y-144354627D01*
X110552060Y-144340414D01*
X110547922Y-144332103D01*
X110523471Y-144246167D01*
X110497110Y-144159267D01*
X110496244Y-144150475D01*
X110495358Y-144147361D01*
X110486143Y-144047922D01*
X110477100Y-143956100D01*
X110486142Y-143864285D01*
X110495358Y-143764838D01*
X110496244Y-143761723D01*
X110497110Y-143752933D01*
X110523466Y-143666047D01*
X110547922Y-143580096D01*
X110552061Y-143571782D01*
X110556372Y-143557573D01*
X110596784Y-143481966D01*
X110633538Y-143408156D01*
X110642776Y-143395921D01*
X110652608Y-143377529D01*
X110703445Y-143315583D01*
X110749290Y-143254875D01*
X110765081Y-143240478D01*
X110782119Y-143219719D01*
X110839613Y-143172534D01*
X110891240Y-143125471D01*
X110914540Y-143111043D01*
X110939929Y-143090208D01*
X111000351Y-143057911D01*
X111054548Y-143024354D01*
X111085737Y-143012271D01*
X111119973Y-142993972D01*
X111179898Y-142975793D01*
X111233649Y-142954971D01*
X111272454Y-142947717D01*
X111315333Y-142934710D01*
X111371776Y-142929150D01*
X111422463Y-142919676D01*
X111467977Y-142919676D01*
X111518500Y-142914700D01*
X111569023Y-142919676D01*
G37*
G36*
X114119023Y-142919676D02*
G01*
X114164537Y-142919676D01*
X114215223Y-142929150D01*
X114271667Y-142934710D01*
X114314546Y-142947717D01*
X114353350Y-142954971D01*
X114407097Y-142975792D01*
X114467027Y-142993972D01*
X114501264Y-143012272D01*
X114532451Y-143024354D01*
X114586640Y-143057907D01*
X114647071Y-143090208D01*
X114672462Y-143111046D01*
X114695759Y-143125471D01*
X114747376Y-143172526D01*
X114804881Y-143219719D01*
X114821921Y-143240482D01*
X114837709Y-143254875D01*
X114883542Y-143315568D01*
X114934392Y-143377529D01*
X114944225Y-143395926D01*
X114953461Y-143408156D01*
X114990200Y-143481939D01*
X115030628Y-143557573D01*
X115034940Y-143571787D01*
X115039077Y-143580096D01*
X115063517Y-143665994D01*
X115089890Y-143752933D01*
X115090756Y-143761728D01*
X115091641Y-143764838D01*
X115100840Y-143864113D01*
X115109900Y-143956100D01*
X115100839Y-144048094D01*
X115091641Y-144147361D01*
X115090756Y-144150469D01*
X115089890Y-144159267D01*
X115063512Y-144246220D01*
X115039077Y-144332103D01*
X115034940Y-144340409D01*
X115030628Y-144354627D01*
X114990193Y-144430274D01*
X114953461Y-144504043D01*
X114944227Y-144516270D01*
X114934392Y-144534671D01*
X114883532Y-144596643D01*
X114837709Y-144657324D01*
X114821924Y-144671713D01*
X114804881Y-144692481D01*
X114747365Y-144739682D01*
X114695759Y-144786728D01*
X114672467Y-144801149D01*
X114647071Y-144821992D01*
X114586628Y-144854299D01*
X114532451Y-144887845D01*
X114501271Y-144899923D01*
X114467027Y-144918228D01*
X114407085Y-144936411D01*
X114353350Y-144957228D01*
X114314553Y-144964480D01*
X114271667Y-144977490D01*
X114215220Y-144983049D01*
X114164537Y-144992524D01*
X114119023Y-144992524D01*
X114068500Y-144997500D01*
X114017977Y-144992524D01*
X113972463Y-144992524D01*
X113921779Y-144983049D01*
X113865333Y-144977490D01*
X113822447Y-144964480D01*
X113783649Y-144957228D01*
X113729910Y-144936409D01*
X113669973Y-144918228D01*
X113635730Y-144899925D01*
X113604548Y-144887845D01*
X113550363Y-144854295D01*
X113489929Y-144821992D01*
X113464535Y-144801151D01*
X113441240Y-144786728D01*
X113389624Y-144739674D01*
X113332119Y-144692481D01*
X113315078Y-144671717D01*
X113299290Y-144657324D01*
X113253454Y-144596628D01*
X113202608Y-144534671D01*
X113192774Y-144516274D01*
X113183538Y-144504043D01*
X113146791Y-144430247D01*
X113106372Y-144354627D01*
X113102060Y-144340414D01*
X113097922Y-144332103D01*
X113073471Y-144246167D01*
X113047110Y-144159267D01*
X113046244Y-144150475D01*
X113045358Y-144147361D01*
X113036143Y-144047922D01*
X113027100Y-143956100D01*
X113036142Y-143864285D01*
X113045358Y-143764838D01*
X113046244Y-143761723D01*
X113047110Y-143752933D01*
X113073466Y-143666047D01*
X113097922Y-143580096D01*
X113102061Y-143571782D01*
X113106372Y-143557573D01*
X113146784Y-143481966D01*
X113183538Y-143408156D01*
X113192776Y-143395921D01*
X113202608Y-143377529D01*
X113253445Y-143315583D01*
X113299290Y-143254875D01*
X113315081Y-143240478D01*
X113332119Y-143219719D01*
X113389613Y-143172534D01*
X113441240Y-143125471D01*
X113464540Y-143111043D01*
X113489929Y-143090208D01*
X113550351Y-143057911D01*
X113604548Y-143024354D01*
X113635737Y-143012271D01*
X113669973Y-142993972D01*
X113729898Y-142975793D01*
X113783649Y-142954971D01*
X113822454Y-142947717D01*
X113865333Y-142934710D01*
X113921776Y-142929150D01*
X113972463Y-142919676D01*
X114017977Y-142919676D01*
X114068500Y-142914700D01*
X114119023Y-142919676D01*
G37*
G36*
X116649023Y-142919676D02*
G01*
X116694537Y-142919676D01*
X116745223Y-142929150D01*
X116801667Y-142934710D01*
X116844546Y-142947717D01*
X116883350Y-142954971D01*
X116937097Y-142975792D01*
X116997027Y-142993972D01*
X117031264Y-143012272D01*
X117062451Y-143024354D01*
X117116640Y-143057907D01*
X117177071Y-143090208D01*
X117202462Y-143111046D01*
X117225759Y-143125471D01*
X117277376Y-143172526D01*
X117334881Y-143219719D01*
X117351921Y-143240482D01*
X117367709Y-143254875D01*
X117413542Y-143315568D01*
X117464392Y-143377529D01*
X117474225Y-143395926D01*
X117483461Y-143408156D01*
X117520200Y-143481939D01*
X117560628Y-143557573D01*
X117564940Y-143571787D01*
X117569077Y-143580096D01*
X117593517Y-143665994D01*
X117619890Y-143752933D01*
X117620756Y-143761728D01*
X117621641Y-143764838D01*
X117630840Y-143864113D01*
X117639900Y-143956100D01*
X117630839Y-144048094D01*
X117621641Y-144147361D01*
X117620756Y-144150469D01*
X117619890Y-144159267D01*
X117593512Y-144246220D01*
X117569077Y-144332103D01*
X117564940Y-144340409D01*
X117560628Y-144354627D01*
X117520193Y-144430274D01*
X117483461Y-144504043D01*
X117474227Y-144516270D01*
X117464392Y-144534671D01*
X117413532Y-144596643D01*
X117367709Y-144657324D01*
X117351924Y-144671713D01*
X117334881Y-144692481D01*
X117277365Y-144739682D01*
X117225759Y-144786728D01*
X117202467Y-144801149D01*
X117177071Y-144821992D01*
X117116628Y-144854299D01*
X117062451Y-144887845D01*
X117031271Y-144899923D01*
X116997027Y-144918228D01*
X116937085Y-144936411D01*
X116883350Y-144957228D01*
X116844553Y-144964480D01*
X116801667Y-144977490D01*
X116745220Y-144983049D01*
X116694537Y-144992524D01*
X116649023Y-144992524D01*
X116598500Y-144997500D01*
X116547977Y-144992524D01*
X116502463Y-144992524D01*
X116451779Y-144983049D01*
X116395333Y-144977490D01*
X116352447Y-144964480D01*
X116313649Y-144957228D01*
X116259910Y-144936409D01*
X116199973Y-144918228D01*
X116165730Y-144899925D01*
X116134548Y-144887845D01*
X116080363Y-144854295D01*
X116019929Y-144821992D01*
X115994535Y-144801151D01*
X115971240Y-144786728D01*
X115919624Y-144739674D01*
X115862119Y-144692481D01*
X115845078Y-144671717D01*
X115829290Y-144657324D01*
X115783454Y-144596628D01*
X115732608Y-144534671D01*
X115722774Y-144516274D01*
X115713538Y-144504043D01*
X115676791Y-144430247D01*
X115636372Y-144354627D01*
X115632060Y-144340414D01*
X115627922Y-144332103D01*
X115603471Y-144246167D01*
X115577110Y-144159267D01*
X115576244Y-144150475D01*
X115575358Y-144147361D01*
X115566143Y-144047922D01*
X115557100Y-143956100D01*
X115566142Y-143864285D01*
X115575358Y-143764838D01*
X115576244Y-143761723D01*
X115577110Y-143752933D01*
X115603466Y-143666047D01*
X115627922Y-143580096D01*
X115632061Y-143571782D01*
X115636372Y-143557573D01*
X115676784Y-143481966D01*
X115713538Y-143408156D01*
X115722776Y-143395921D01*
X115732608Y-143377529D01*
X115783445Y-143315583D01*
X115829290Y-143254875D01*
X115845081Y-143240478D01*
X115862119Y-143219719D01*
X115919613Y-143172534D01*
X115971240Y-143125471D01*
X115994540Y-143111043D01*
X116019929Y-143090208D01*
X116080351Y-143057911D01*
X116134548Y-143024354D01*
X116165737Y-143012271D01*
X116199973Y-142993972D01*
X116259898Y-142975793D01*
X116313649Y-142954971D01*
X116352454Y-142947717D01*
X116395333Y-142934710D01*
X116451776Y-142929150D01*
X116502463Y-142919676D01*
X116547977Y-142919676D01*
X116598500Y-142914700D01*
X116649023Y-142919676D01*
G37*
G36*
X119179023Y-142919676D02*
G01*
X119224537Y-142919676D01*
X119275223Y-142929150D01*
X119331667Y-142934710D01*
X119374546Y-142947717D01*
X119413350Y-142954971D01*
X119467097Y-142975792D01*
X119527027Y-142993972D01*
X119561264Y-143012272D01*
X119592451Y-143024354D01*
X119646640Y-143057907D01*
X119707071Y-143090208D01*
X119732462Y-143111046D01*
X119755759Y-143125471D01*
X119807376Y-143172526D01*
X119864881Y-143219719D01*
X119881921Y-143240482D01*
X119897709Y-143254875D01*
X119943542Y-143315568D01*
X119994392Y-143377529D01*
X120004225Y-143395926D01*
X120013461Y-143408156D01*
X120050200Y-143481939D01*
X120090628Y-143557573D01*
X120094940Y-143571787D01*
X120099077Y-143580096D01*
X120123517Y-143665994D01*
X120149890Y-143752933D01*
X120150756Y-143761728D01*
X120151641Y-143764838D01*
X120160840Y-143864113D01*
X120169900Y-143956100D01*
X120160839Y-144048094D01*
X120151641Y-144147361D01*
X120150756Y-144150469D01*
X120149890Y-144159267D01*
X120123512Y-144246220D01*
X120099077Y-144332103D01*
X120094940Y-144340409D01*
X120090628Y-144354627D01*
X120050193Y-144430274D01*
X120013461Y-144504043D01*
X120004227Y-144516270D01*
X119994392Y-144534671D01*
X119943532Y-144596643D01*
X119897709Y-144657324D01*
X119881924Y-144671713D01*
X119864881Y-144692481D01*
X119807365Y-144739682D01*
X119755759Y-144786728D01*
X119732467Y-144801149D01*
X119707071Y-144821992D01*
X119646628Y-144854299D01*
X119592451Y-144887845D01*
X119561271Y-144899923D01*
X119527027Y-144918228D01*
X119467085Y-144936411D01*
X119413350Y-144957228D01*
X119374553Y-144964480D01*
X119331667Y-144977490D01*
X119275220Y-144983049D01*
X119224537Y-144992524D01*
X119179023Y-144992524D01*
X119128500Y-144997500D01*
X119077977Y-144992524D01*
X119032463Y-144992524D01*
X118981779Y-144983049D01*
X118925333Y-144977490D01*
X118882447Y-144964480D01*
X118843649Y-144957228D01*
X118789910Y-144936409D01*
X118729973Y-144918228D01*
X118695730Y-144899925D01*
X118664548Y-144887845D01*
X118610363Y-144854295D01*
X118549929Y-144821992D01*
X118524535Y-144801151D01*
X118501240Y-144786728D01*
X118449624Y-144739674D01*
X118392119Y-144692481D01*
X118375078Y-144671717D01*
X118359290Y-144657324D01*
X118313454Y-144596628D01*
X118262608Y-144534671D01*
X118252774Y-144516274D01*
X118243538Y-144504043D01*
X118206791Y-144430247D01*
X118166372Y-144354627D01*
X118162060Y-144340414D01*
X118157922Y-144332103D01*
X118133471Y-144246167D01*
X118107110Y-144159267D01*
X118106244Y-144150475D01*
X118105358Y-144147361D01*
X118096143Y-144047922D01*
X118087100Y-143956100D01*
X118096142Y-143864285D01*
X118105358Y-143764838D01*
X118106244Y-143761723D01*
X118107110Y-143752933D01*
X118133466Y-143666047D01*
X118157922Y-143580096D01*
X118162061Y-143571782D01*
X118166372Y-143557573D01*
X118206784Y-143481966D01*
X118243538Y-143408156D01*
X118252776Y-143395921D01*
X118262608Y-143377529D01*
X118313445Y-143315583D01*
X118359290Y-143254875D01*
X118375081Y-143240478D01*
X118392119Y-143219719D01*
X118449613Y-143172534D01*
X118501240Y-143125471D01*
X118524540Y-143111043D01*
X118549929Y-143090208D01*
X118610351Y-143057911D01*
X118664548Y-143024354D01*
X118695737Y-143012271D01*
X118729973Y-142993972D01*
X118789898Y-142975793D01*
X118843649Y-142954971D01*
X118882454Y-142947717D01*
X118925333Y-142934710D01*
X118981776Y-142929150D01*
X119032463Y-142919676D01*
X119077977Y-142919676D01*
X119128500Y-142914700D01*
X119179023Y-142919676D01*
G37*
G36*
X121739023Y-142919676D02*
G01*
X121784537Y-142919676D01*
X121835223Y-142929150D01*
X121891667Y-142934710D01*
X121934546Y-142947717D01*
X121973350Y-142954971D01*
X122027097Y-142975792D01*
X122087027Y-142993972D01*
X122121264Y-143012272D01*
X122152451Y-143024354D01*
X122206640Y-143057907D01*
X122267071Y-143090208D01*
X122292462Y-143111046D01*
X122315759Y-143125471D01*
X122367376Y-143172526D01*
X122424881Y-143219719D01*
X122441921Y-143240482D01*
X122457709Y-143254875D01*
X122503542Y-143315568D01*
X122554392Y-143377529D01*
X122564225Y-143395926D01*
X122573461Y-143408156D01*
X122610200Y-143481939D01*
X122650628Y-143557573D01*
X122654940Y-143571787D01*
X122659077Y-143580096D01*
X122683517Y-143665994D01*
X122709890Y-143752933D01*
X122710756Y-143761728D01*
X122711641Y-143764838D01*
X122720840Y-143864113D01*
X122729900Y-143956100D01*
X122720839Y-144048094D01*
X122711641Y-144147361D01*
X122710756Y-144150469D01*
X122709890Y-144159267D01*
X122683512Y-144246220D01*
X122659077Y-144332103D01*
X122654940Y-144340409D01*
X122650628Y-144354627D01*
X122610193Y-144430274D01*
X122573461Y-144504043D01*
X122564227Y-144516270D01*
X122554392Y-144534671D01*
X122503532Y-144596643D01*
X122457709Y-144657324D01*
X122441924Y-144671713D01*
X122424881Y-144692481D01*
X122367365Y-144739682D01*
X122315759Y-144786728D01*
X122292467Y-144801149D01*
X122267071Y-144821992D01*
X122206628Y-144854299D01*
X122152451Y-144887845D01*
X122121271Y-144899923D01*
X122087027Y-144918228D01*
X122027085Y-144936411D01*
X121973350Y-144957228D01*
X121934553Y-144964480D01*
X121891667Y-144977490D01*
X121835220Y-144983049D01*
X121784537Y-144992524D01*
X121739023Y-144992524D01*
X121688500Y-144997500D01*
X121637977Y-144992524D01*
X121592463Y-144992524D01*
X121541779Y-144983049D01*
X121485333Y-144977490D01*
X121442447Y-144964480D01*
X121403649Y-144957228D01*
X121349910Y-144936409D01*
X121289973Y-144918228D01*
X121255730Y-144899925D01*
X121224548Y-144887845D01*
X121170363Y-144854295D01*
X121109929Y-144821992D01*
X121084535Y-144801151D01*
X121061240Y-144786728D01*
X121009624Y-144739674D01*
X120952119Y-144692481D01*
X120935078Y-144671717D01*
X120919290Y-144657324D01*
X120873454Y-144596628D01*
X120822608Y-144534671D01*
X120812774Y-144516274D01*
X120803538Y-144504043D01*
X120766791Y-144430247D01*
X120726372Y-144354627D01*
X120722060Y-144340414D01*
X120717922Y-144332103D01*
X120693471Y-144246167D01*
X120667110Y-144159267D01*
X120666244Y-144150475D01*
X120665358Y-144147361D01*
X120656143Y-144047922D01*
X120647100Y-143956100D01*
X120656142Y-143864285D01*
X120665358Y-143764838D01*
X120666244Y-143761723D01*
X120667110Y-143752933D01*
X120693466Y-143666047D01*
X120717922Y-143580096D01*
X120722061Y-143571782D01*
X120726372Y-143557573D01*
X120766784Y-143481966D01*
X120803538Y-143408156D01*
X120812776Y-143395921D01*
X120822608Y-143377529D01*
X120873445Y-143315583D01*
X120919290Y-143254875D01*
X120935081Y-143240478D01*
X120952119Y-143219719D01*
X121009613Y-143172534D01*
X121061240Y-143125471D01*
X121084540Y-143111043D01*
X121109929Y-143090208D01*
X121170351Y-143057911D01*
X121224548Y-143024354D01*
X121255737Y-143012271D01*
X121289973Y-142993972D01*
X121349898Y-142975793D01*
X121403649Y-142954971D01*
X121442454Y-142947717D01*
X121485333Y-142934710D01*
X121541776Y-142929150D01*
X121592463Y-142919676D01*
X121637977Y-142919676D01*
X121688500Y-142914700D01*
X121739023Y-142919676D01*
G37*
G36*
X124269023Y-142919676D02*
G01*
X124314537Y-142919676D01*
X124365223Y-142929150D01*
X124421667Y-142934710D01*
X124464546Y-142947717D01*
X124503350Y-142954971D01*
X124557097Y-142975792D01*
X124617027Y-142993972D01*
X124651264Y-143012272D01*
X124682451Y-143024354D01*
X124736640Y-143057907D01*
X124797071Y-143090208D01*
X124822462Y-143111046D01*
X124845759Y-143125471D01*
X124897376Y-143172526D01*
X124954881Y-143219719D01*
X124971921Y-143240482D01*
X124987709Y-143254875D01*
X125033542Y-143315568D01*
X125084392Y-143377529D01*
X125094225Y-143395926D01*
X125103461Y-143408156D01*
X125140200Y-143481939D01*
X125180628Y-143557573D01*
X125184940Y-143571787D01*
X125189077Y-143580096D01*
X125213517Y-143665994D01*
X125239890Y-143752933D01*
X125240756Y-143761728D01*
X125241641Y-143764838D01*
X125250840Y-143864113D01*
X125259900Y-143956100D01*
X125250839Y-144048094D01*
X125241641Y-144147361D01*
X125240756Y-144150469D01*
X125239890Y-144159267D01*
X125213512Y-144246220D01*
X125189077Y-144332103D01*
X125184940Y-144340409D01*
X125180628Y-144354627D01*
X125140193Y-144430274D01*
X125103461Y-144504043D01*
X125094227Y-144516270D01*
X125084392Y-144534671D01*
X125033532Y-144596643D01*
X124987709Y-144657324D01*
X124971924Y-144671713D01*
X124954881Y-144692481D01*
X124897365Y-144739682D01*
X124845759Y-144786728D01*
X124822467Y-144801149D01*
X124797071Y-144821992D01*
X124736628Y-144854299D01*
X124682451Y-144887845D01*
X124651271Y-144899923D01*
X124617027Y-144918228D01*
X124557085Y-144936411D01*
X124503350Y-144957228D01*
X124464553Y-144964480D01*
X124421667Y-144977490D01*
X124365220Y-144983049D01*
X124314537Y-144992524D01*
X124269023Y-144992524D01*
X124218500Y-144997500D01*
X124167977Y-144992524D01*
X124122463Y-144992524D01*
X124071779Y-144983049D01*
X124015333Y-144977490D01*
X123972447Y-144964480D01*
X123933649Y-144957228D01*
X123879910Y-144936409D01*
X123819973Y-144918228D01*
X123785730Y-144899925D01*
X123754548Y-144887845D01*
X123700363Y-144854295D01*
X123639929Y-144821992D01*
X123614535Y-144801151D01*
X123591240Y-144786728D01*
X123539624Y-144739674D01*
X123482119Y-144692481D01*
X123465078Y-144671717D01*
X123449290Y-144657324D01*
X123403454Y-144596628D01*
X123352608Y-144534671D01*
X123342774Y-144516274D01*
X123333538Y-144504043D01*
X123296791Y-144430247D01*
X123256372Y-144354627D01*
X123252060Y-144340414D01*
X123247922Y-144332103D01*
X123223471Y-144246167D01*
X123197110Y-144159267D01*
X123196244Y-144150475D01*
X123195358Y-144147361D01*
X123186143Y-144047922D01*
X123177100Y-143956100D01*
X123186142Y-143864285D01*
X123195358Y-143764838D01*
X123196244Y-143761723D01*
X123197110Y-143752933D01*
X123223466Y-143666047D01*
X123247922Y-143580096D01*
X123252061Y-143571782D01*
X123256372Y-143557573D01*
X123296784Y-143481966D01*
X123333538Y-143408156D01*
X123342776Y-143395921D01*
X123352608Y-143377529D01*
X123403445Y-143315583D01*
X123449290Y-143254875D01*
X123465081Y-143240478D01*
X123482119Y-143219719D01*
X123539613Y-143172534D01*
X123591240Y-143125471D01*
X123614540Y-143111043D01*
X123639929Y-143090208D01*
X123700351Y-143057911D01*
X123754548Y-143024354D01*
X123785737Y-143012271D01*
X123819973Y-142993972D01*
X123879898Y-142975793D01*
X123933649Y-142954971D01*
X123972454Y-142947717D01*
X124015333Y-142934710D01*
X124071776Y-142929150D01*
X124122463Y-142919676D01*
X124167977Y-142919676D01*
X124218500Y-142914700D01*
X124269023Y-142919676D01*
G37*
G36*
X126809023Y-142909676D02*
G01*
X126854537Y-142909676D01*
X126905223Y-142919150D01*
X126961667Y-142924710D01*
X127004546Y-142937717D01*
X127043350Y-142944971D01*
X127097097Y-142965792D01*
X127157027Y-142983972D01*
X127191264Y-143002272D01*
X127222451Y-143014354D01*
X127276640Y-143047907D01*
X127337071Y-143080208D01*
X127362462Y-143101046D01*
X127385759Y-143115471D01*
X127437376Y-143162526D01*
X127494881Y-143209719D01*
X127511921Y-143230482D01*
X127527709Y-143244875D01*
X127573542Y-143305568D01*
X127624392Y-143367529D01*
X127634225Y-143385926D01*
X127643461Y-143398156D01*
X127680200Y-143471939D01*
X127720628Y-143547573D01*
X127724940Y-143561787D01*
X127729077Y-143570096D01*
X127753517Y-143655994D01*
X127779890Y-143742933D01*
X127780756Y-143751728D01*
X127781641Y-143754838D01*
X127790840Y-143854113D01*
X127799900Y-143946100D01*
X127790839Y-144038094D01*
X127781641Y-144137361D01*
X127780756Y-144140469D01*
X127779890Y-144149267D01*
X127753512Y-144236220D01*
X127729077Y-144322103D01*
X127724940Y-144330409D01*
X127720628Y-144344627D01*
X127680193Y-144420274D01*
X127643461Y-144494043D01*
X127634227Y-144506270D01*
X127624392Y-144524671D01*
X127573532Y-144586643D01*
X127527709Y-144647324D01*
X127511924Y-144661713D01*
X127494881Y-144682481D01*
X127437365Y-144729682D01*
X127385759Y-144776728D01*
X127362467Y-144791149D01*
X127337071Y-144811992D01*
X127276628Y-144844299D01*
X127222451Y-144877845D01*
X127191271Y-144889923D01*
X127157027Y-144908228D01*
X127097085Y-144926411D01*
X127043350Y-144947228D01*
X127004553Y-144954480D01*
X126961667Y-144967490D01*
X126905220Y-144973049D01*
X126854537Y-144982524D01*
X126809023Y-144982524D01*
X126758500Y-144987500D01*
X126707977Y-144982524D01*
X126662463Y-144982524D01*
X126611779Y-144973049D01*
X126555333Y-144967490D01*
X126512447Y-144954480D01*
X126473649Y-144947228D01*
X126419910Y-144926409D01*
X126359973Y-144908228D01*
X126325730Y-144889925D01*
X126294548Y-144877845D01*
X126240363Y-144844295D01*
X126179929Y-144811992D01*
X126154535Y-144791151D01*
X126131240Y-144776728D01*
X126079624Y-144729674D01*
X126022119Y-144682481D01*
X126005078Y-144661717D01*
X125989290Y-144647324D01*
X125943454Y-144586628D01*
X125892608Y-144524671D01*
X125882774Y-144506274D01*
X125873538Y-144494043D01*
X125836791Y-144420247D01*
X125796372Y-144344627D01*
X125792060Y-144330414D01*
X125787922Y-144322103D01*
X125763471Y-144236167D01*
X125737110Y-144149267D01*
X125736244Y-144140475D01*
X125735358Y-144137361D01*
X125726143Y-144037922D01*
X125717100Y-143946100D01*
X125726142Y-143854285D01*
X125735358Y-143754838D01*
X125736244Y-143751723D01*
X125737110Y-143742933D01*
X125763466Y-143656047D01*
X125787922Y-143570096D01*
X125792061Y-143561782D01*
X125796372Y-143547573D01*
X125836784Y-143471966D01*
X125873538Y-143398156D01*
X125882776Y-143385921D01*
X125892608Y-143367529D01*
X125943445Y-143305583D01*
X125989290Y-143244875D01*
X126005081Y-143230478D01*
X126022119Y-143209719D01*
X126079613Y-143162534D01*
X126131240Y-143115471D01*
X126154540Y-143101043D01*
X126179929Y-143080208D01*
X126240351Y-143047911D01*
X126294548Y-143014354D01*
X126325737Y-143002271D01*
X126359973Y-142983972D01*
X126419898Y-142965793D01*
X126473649Y-142944971D01*
X126512454Y-142937717D01*
X126555333Y-142924710D01*
X126611776Y-142919150D01*
X126662463Y-142909676D01*
X126707977Y-142909676D01*
X126758500Y-142904700D01*
X126809023Y-142909676D01*
G37*
G36*
X97754933Y-132433729D02*
G01*
X97770530Y-132440616D01*
X97778050Y-132441807D01*
X97809366Y-132457763D01*
X97854024Y-132477482D01*
X97930618Y-132554076D01*
X97950339Y-132598740D01*
X97966292Y-132630049D01*
X97967482Y-132637566D01*
X97974371Y-132653167D01*
X97982200Y-132720650D01*
X97982200Y-133208150D01*
X97974371Y-133275633D01*
X97967482Y-133291234D01*
X97966292Y-133298750D01*
X97950342Y-133330052D01*
X97930618Y-133374724D01*
X97854024Y-133451318D01*
X97809352Y-133471042D01*
X97778050Y-133486992D01*
X97770534Y-133488182D01*
X97754933Y-133495071D01*
X97687450Y-133502900D01*
X96774950Y-133502900D01*
X96707467Y-133495071D01*
X96691866Y-133488182D01*
X96684349Y-133486992D01*
X96653040Y-133471039D01*
X96608376Y-133451318D01*
X96531782Y-133374724D01*
X96512063Y-133330066D01*
X96496107Y-133298750D01*
X96494916Y-133291230D01*
X96488029Y-133275633D01*
X96480200Y-133208150D01*
X96480200Y-132720650D01*
X96488029Y-132653167D01*
X96494915Y-132637569D01*
X96496107Y-132630049D01*
X96512067Y-132598725D01*
X96531782Y-132554076D01*
X96608376Y-132477482D01*
X96653025Y-132457767D01*
X96684349Y-132441807D01*
X96691869Y-132440615D01*
X96707467Y-132433729D01*
X96774950Y-132425900D01*
X97687450Y-132425900D01*
X97754933Y-132433729D01*
G37*
G36*
X97754933Y-130558729D02*
G01*
X97770530Y-130565616D01*
X97778050Y-130566807D01*
X97809366Y-130582763D01*
X97854024Y-130602482D01*
X97930618Y-130679076D01*
X97950339Y-130723740D01*
X97966292Y-130755049D01*
X97967482Y-130762566D01*
X97974371Y-130778167D01*
X97982200Y-130845650D01*
X97982200Y-131333150D01*
X97974371Y-131400633D01*
X97967482Y-131416234D01*
X97966292Y-131423750D01*
X97950342Y-131455052D01*
X97930618Y-131499724D01*
X97854024Y-131576318D01*
X97809352Y-131596042D01*
X97778050Y-131611992D01*
X97770534Y-131613182D01*
X97754933Y-131620071D01*
X97687450Y-131627900D01*
X96774950Y-131627900D01*
X96707467Y-131620071D01*
X96691866Y-131613182D01*
X96684349Y-131611992D01*
X96653040Y-131596039D01*
X96608376Y-131576318D01*
X96531782Y-131499724D01*
X96512063Y-131455066D01*
X96496107Y-131423750D01*
X96494916Y-131416230D01*
X96488029Y-131400633D01*
X96480200Y-131333150D01*
X96480200Y-130845650D01*
X96488029Y-130778167D01*
X96494915Y-130762569D01*
X96496107Y-130755049D01*
X96512067Y-130723725D01*
X96531782Y-130679076D01*
X96608376Y-130602482D01*
X96653025Y-130582767D01*
X96684349Y-130566807D01*
X96691869Y-130565615D01*
X96707467Y-130558729D01*
X96774950Y-130550900D01*
X97687450Y-130550900D01*
X97754933Y-130558729D01*
G37*
G36*
X117718438Y-57342926D02*
G01*
X117778693Y-57342926D01*
X117844539Y-57352850D01*
X117913613Y-57358287D01*
X117969287Y-57371653D01*
X118022642Y-57379695D01*
X118092361Y-57401200D01*
X118165527Y-57418766D01*
X118212835Y-57438361D01*
X118258392Y-57452414D01*
X118329909Y-57486855D01*
X118404878Y-57517908D01*
X118443362Y-57541491D01*
X118480662Y-57559454D01*
X118551611Y-57607826D01*
X118625773Y-57653273D01*
X118655467Y-57678634D01*
X118684502Y-57698430D01*
X118752296Y-57761334D01*
X118822773Y-57821527D01*
X118844174Y-57846585D01*
X118865351Y-57866234D01*
X118927265Y-57943871D01*
X118991027Y-58018527D01*
X119005049Y-58041409D01*
X119019170Y-58059116D01*
X119072427Y-58151359D01*
X119126392Y-58239422D01*
X119134317Y-58258557D01*
X119142525Y-58272772D01*
X119184378Y-58379414D01*
X119225534Y-58478773D01*
X119228937Y-58492951D01*
X119232654Y-58502420D01*
X119260497Y-58624406D01*
X119286013Y-58730687D01*
X119286674Y-58739093D01*
X119287554Y-58742946D01*
X119299023Y-58895991D01*
X119306340Y-58988960D01*
X119299022Y-59081935D01*
X119287554Y-59234973D01*
X119286674Y-59238825D01*
X119286013Y-59247233D01*
X119260492Y-59353533D01*
X119232654Y-59475499D01*
X119228938Y-59484965D01*
X119225534Y-59499147D01*
X119184371Y-59598523D01*
X119142525Y-59705147D01*
X119134319Y-59719359D01*
X119126392Y-59738498D01*
X119072417Y-59826576D01*
X119019170Y-59918803D01*
X119005052Y-59936506D01*
X118991027Y-59959393D01*
X118927253Y-60034062D01*
X118865351Y-60111685D01*
X118844178Y-60131329D01*
X118822773Y-60156393D01*
X118752282Y-60216597D01*
X118684502Y-60279489D01*
X118655473Y-60299280D01*
X118625773Y-60324647D01*
X118551597Y-60370102D01*
X118480662Y-60418465D01*
X118443370Y-60436423D01*
X118404878Y-60460012D01*
X118329894Y-60491070D01*
X118258392Y-60525505D01*
X118212844Y-60539554D01*
X118165527Y-60559154D01*
X118092347Y-60576722D01*
X118022642Y-60598224D01*
X117969295Y-60606264D01*
X117913613Y-60619633D01*
X117844535Y-60625069D01*
X117778693Y-60634994D01*
X117718438Y-60634994D01*
X117655340Y-60639960D01*
X117592242Y-60634994D01*
X117531987Y-60634994D01*
X117466143Y-60625069D01*
X117397067Y-60619633D01*
X117341385Y-60606265D01*
X117288037Y-60598224D01*
X117218328Y-60576721D01*
X117145153Y-60559154D01*
X117097838Y-60539555D01*
X117052287Y-60525505D01*
X116980778Y-60491067D01*
X116905802Y-60460012D01*
X116867312Y-60436425D01*
X116830015Y-60418464D01*
X116759066Y-60370091D01*
X116684907Y-60324647D01*
X116655213Y-60299286D01*
X116626179Y-60279491D01*
X116558383Y-60216585D01*
X116487907Y-60156393D01*
X116466504Y-60131334D01*
X116445328Y-60111685D01*
X116383411Y-60034044D01*
X116319653Y-59959393D01*
X116305631Y-59936511D01*
X116291509Y-59918803D01*
X116238245Y-59826548D01*
X116184288Y-59738498D01*
X116176363Y-59719365D01*
X116168154Y-59705147D01*
X116126289Y-59598477D01*
X116085146Y-59499147D01*
X116081742Y-59484972D01*
X116078025Y-59475499D01*
X116050167Y-59353448D01*
X116024667Y-59247233D01*
X116024005Y-59238831D01*
X116023125Y-59234973D01*
X116011636Y-59081670D01*
X116004340Y-58988960D01*
X116011636Y-58896257D01*
X116023125Y-58742946D01*
X116024005Y-58739086D01*
X116024667Y-58730687D01*
X116050162Y-58624490D01*
X116078025Y-58502420D01*
X116081743Y-58492944D01*
X116085146Y-58478773D01*
X116126282Y-58379460D01*
X116168154Y-58272772D01*
X116176364Y-58258550D01*
X116184288Y-58239422D01*
X116238235Y-58151387D01*
X116291509Y-58059116D01*
X116305633Y-58041403D01*
X116319653Y-58018527D01*
X116383399Y-57943889D01*
X116445328Y-57866234D01*
X116466509Y-57846580D01*
X116487907Y-57821527D01*
X116558369Y-57761346D01*
X116626179Y-57698428D01*
X116655219Y-57678628D01*
X116684907Y-57653273D01*
X116759051Y-57607836D01*
X116830015Y-57559455D01*
X116867320Y-57541489D01*
X116905802Y-57517908D01*
X116980763Y-57486858D01*
X117052287Y-57452414D01*
X117097847Y-57438360D01*
X117145153Y-57418766D01*
X117218313Y-57401201D01*
X117288037Y-57379695D01*
X117341394Y-57371652D01*
X117397067Y-57358287D01*
X117466139Y-57352850D01*
X117531987Y-57342926D01*
X117592242Y-57342926D01*
X117655340Y-57337960D01*
X117718438Y-57342926D01*
G37*
M02*
