G04 #@! TF.GenerationSoftware,KiCad,Pcbnew,(5.1.2)-1*
G04 #@! TF.CreationDate,2023-11-23T12:08:04+09:00*
G04 #@! TF.ProjectId,gopher_party_xiao_v2,676f7068-6572-45f7-9061-7274795f7869,rev?*
G04 #@! TF.SameCoordinates,Original*
G04 #@! TF.FileFunction,Soldermask,Bot*
G04 #@! TF.FilePolarity,Negative*
%FSLAX46Y46*%
G04 Gerber Fmt 4.6, Leading zero omitted, Abs format (unit mm)*
G04 Created by KiCad (PCBNEW (5.1.2)-1) date 2023-11-23 12:08:04*
%MOMM*%
%LPD*%
G04 APERTURE LIST*
%ADD10C,0.100000*%
G04 APERTURE END LIST*
D10*
G36*
X104937142Y-173018242D02*
G01*
X105085101Y-173079529D01*
X105218255Y-173168499D01*
X105331501Y-173281745D01*
X105420471Y-173414899D01*
X105481758Y-173562858D01*
X105513000Y-173719925D01*
X105513000Y-173880075D01*
X105481758Y-174037142D01*
X105420471Y-174185101D01*
X105331501Y-174318255D01*
X105218255Y-174431501D01*
X105085101Y-174520471D01*
X104937142Y-174581758D01*
X104780075Y-174613000D01*
X104619925Y-174613000D01*
X104462858Y-174581758D01*
X104314899Y-174520471D01*
X104181745Y-174431501D01*
X104068499Y-174318255D01*
X103979529Y-174185101D01*
X103918242Y-174037142D01*
X103887000Y-173880075D01*
X103887000Y-173719925D01*
X103918242Y-173562858D01*
X103979529Y-173414899D01*
X104068499Y-173281745D01*
X104181745Y-173168499D01*
X104314899Y-173079529D01*
X104462858Y-173018242D01*
X104619925Y-172987000D01*
X104780075Y-172987000D01*
X104937142Y-173018242D01*
X104937142Y-173018242D01*
G37*
G36*
X99857142Y-173018242D02*
G01*
X100005101Y-173079529D01*
X100138255Y-173168499D01*
X100251501Y-173281745D01*
X100340471Y-173414899D01*
X100401758Y-173562858D01*
X100433000Y-173719925D01*
X100433000Y-173880075D01*
X100401758Y-174037142D01*
X100340471Y-174185101D01*
X100251501Y-174318255D01*
X100138255Y-174431501D01*
X100005101Y-174520471D01*
X99857142Y-174581758D01*
X99700075Y-174613000D01*
X99539925Y-174613000D01*
X99382858Y-174581758D01*
X99234899Y-174520471D01*
X99101745Y-174431501D01*
X98988499Y-174318255D01*
X98899529Y-174185101D01*
X98838242Y-174037142D01*
X98807000Y-173880075D01*
X98807000Y-173719925D01*
X98838242Y-173562858D01*
X98899529Y-173414899D01*
X98988499Y-173281745D01*
X99101745Y-173168499D01*
X99234899Y-173079529D01*
X99382858Y-173018242D01*
X99539925Y-172987000D01*
X99700075Y-172987000D01*
X99857142Y-173018242D01*
X99857142Y-173018242D01*
G37*
G36*
X97317142Y-173018242D02*
G01*
X97465101Y-173079529D01*
X97598255Y-173168499D01*
X97711501Y-173281745D01*
X97800471Y-173414899D01*
X97861758Y-173562858D01*
X97893000Y-173719925D01*
X97893000Y-173880075D01*
X97861758Y-174037142D01*
X97800471Y-174185101D01*
X97711501Y-174318255D01*
X97598255Y-174431501D01*
X97465101Y-174520471D01*
X97317142Y-174581758D01*
X97160075Y-174613000D01*
X96999925Y-174613000D01*
X96842858Y-174581758D01*
X96694899Y-174520471D01*
X96561745Y-174431501D01*
X96448499Y-174318255D01*
X96359529Y-174185101D01*
X96298242Y-174037142D01*
X96267000Y-173880075D01*
X96267000Y-173719925D01*
X96298242Y-173562858D01*
X96359529Y-173414899D01*
X96448499Y-173281745D01*
X96561745Y-173168499D01*
X96694899Y-173079529D01*
X96842858Y-173018242D01*
X96999925Y-172987000D01*
X97160075Y-172987000D01*
X97317142Y-173018242D01*
X97317142Y-173018242D01*
G37*
G36*
X94777142Y-173018242D02*
G01*
X94925101Y-173079529D01*
X95058255Y-173168499D01*
X95171501Y-173281745D01*
X95260471Y-173414899D01*
X95321758Y-173562858D01*
X95353000Y-173719925D01*
X95353000Y-173880075D01*
X95321758Y-174037142D01*
X95260471Y-174185101D01*
X95171501Y-174318255D01*
X95058255Y-174431501D01*
X94925101Y-174520471D01*
X94777142Y-174581758D01*
X94620075Y-174613000D01*
X94459925Y-174613000D01*
X94302858Y-174581758D01*
X94154899Y-174520471D01*
X94021745Y-174431501D01*
X93908499Y-174318255D01*
X93819529Y-174185101D01*
X93758242Y-174037142D01*
X93727000Y-173880075D01*
X93727000Y-173719925D01*
X93758242Y-173562858D01*
X93819529Y-173414899D01*
X93908499Y-173281745D01*
X94021745Y-173168499D01*
X94154899Y-173079529D01*
X94302858Y-173018242D01*
X94459925Y-172987000D01*
X94620075Y-172987000D01*
X94777142Y-173018242D01*
X94777142Y-173018242D01*
G37*
G36*
X92237142Y-173018242D02*
G01*
X92385101Y-173079529D01*
X92518255Y-173168499D01*
X92631501Y-173281745D01*
X92720471Y-173414899D01*
X92781758Y-173562858D01*
X92813000Y-173719925D01*
X92813000Y-173880075D01*
X92781758Y-174037142D01*
X92720471Y-174185101D01*
X92631501Y-174318255D01*
X92518255Y-174431501D01*
X92385101Y-174520471D01*
X92237142Y-174581758D01*
X92080075Y-174613000D01*
X91919925Y-174613000D01*
X91762858Y-174581758D01*
X91614899Y-174520471D01*
X91481745Y-174431501D01*
X91368499Y-174318255D01*
X91279529Y-174185101D01*
X91218242Y-174037142D01*
X91187000Y-173880075D01*
X91187000Y-173719925D01*
X91218242Y-173562858D01*
X91279529Y-173414899D01*
X91368499Y-173281745D01*
X91481745Y-173168499D01*
X91614899Y-173079529D01*
X91762858Y-173018242D01*
X91919925Y-172987000D01*
X92080075Y-172987000D01*
X92237142Y-173018242D01*
X92237142Y-173018242D01*
G37*
G36*
X89697142Y-173018242D02*
G01*
X89845101Y-173079529D01*
X89978255Y-173168499D01*
X90091501Y-173281745D01*
X90180471Y-173414899D01*
X90241758Y-173562858D01*
X90273000Y-173719925D01*
X90273000Y-173880075D01*
X90241758Y-174037142D01*
X90180471Y-174185101D01*
X90091501Y-174318255D01*
X89978255Y-174431501D01*
X89845101Y-174520471D01*
X89697142Y-174581758D01*
X89540075Y-174613000D01*
X89379925Y-174613000D01*
X89222858Y-174581758D01*
X89074899Y-174520471D01*
X88941745Y-174431501D01*
X88828499Y-174318255D01*
X88739529Y-174185101D01*
X88678242Y-174037142D01*
X88647000Y-173880075D01*
X88647000Y-173719925D01*
X88678242Y-173562858D01*
X88739529Y-173414899D01*
X88828499Y-173281745D01*
X88941745Y-173168499D01*
X89074899Y-173079529D01*
X89222858Y-173018242D01*
X89379925Y-172987000D01*
X89540075Y-172987000D01*
X89697142Y-173018242D01*
X89697142Y-173018242D01*
G37*
G36*
X87157142Y-173018242D02*
G01*
X87305101Y-173079529D01*
X87438255Y-173168499D01*
X87551501Y-173281745D01*
X87640471Y-173414899D01*
X87701758Y-173562858D01*
X87733000Y-173719925D01*
X87733000Y-173880075D01*
X87701758Y-174037142D01*
X87640471Y-174185101D01*
X87551501Y-174318255D01*
X87438255Y-174431501D01*
X87305101Y-174520471D01*
X87157142Y-174581758D01*
X87000075Y-174613000D01*
X86839925Y-174613000D01*
X86682858Y-174581758D01*
X86534899Y-174520471D01*
X86401745Y-174431501D01*
X86288499Y-174318255D01*
X86199529Y-174185101D01*
X86138242Y-174037142D01*
X86107000Y-173880075D01*
X86107000Y-173719925D01*
X86138242Y-173562858D01*
X86199529Y-173414899D01*
X86288499Y-173281745D01*
X86401745Y-173168499D01*
X86534899Y-173079529D01*
X86682858Y-173018242D01*
X86839925Y-172987000D01*
X87000075Y-172987000D01*
X87157142Y-173018242D01*
X87157142Y-173018242D01*
G37*
G36*
X102397142Y-173018242D02*
G01*
X102545101Y-173079529D01*
X102678255Y-173168499D01*
X102791501Y-173281745D01*
X102880471Y-173414899D01*
X102941758Y-173562858D01*
X102973000Y-173719925D01*
X102973000Y-173880075D01*
X102941758Y-174037142D01*
X102880471Y-174185101D01*
X102791501Y-174318255D01*
X102678255Y-174431501D01*
X102545101Y-174520471D01*
X102397142Y-174581758D01*
X102240075Y-174613000D01*
X102079925Y-174613000D01*
X101922858Y-174581758D01*
X101774899Y-174520471D01*
X101641745Y-174431501D01*
X101528499Y-174318255D01*
X101439529Y-174185101D01*
X101378242Y-174037142D01*
X101347000Y-173880075D01*
X101347000Y-173719925D01*
X101378242Y-173562858D01*
X101439529Y-173414899D01*
X101528499Y-173281745D01*
X101641745Y-173168499D01*
X101774899Y-173079529D01*
X101922858Y-173018242D01*
X102079925Y-172987000D01*
X102240075Y-172987000D01*
X102397142Y-173018242D01*
X102397142Y-173018242D01*
G37*
G36*
X104053765Y-169848620D02*
G01*
X104219144Y-169917122D01*
X104243288Y-169927123D01*
X104413854Y-170041092D01*
X104558908Y-170186146D01*
X104672877Y-170356712D01*
X104751380Y-170546235D01*
X104791400Y-170747431D01*
X104791400Y-170952569D01*
X104751380Y-171153765D01*
X104672877Y-171343288D01*
X104558908Y-171513854D01*
X104413854Y-171658908D01*
X104243288Y-171772877D01*
X104243287Y-171772878D01*
X104243286Y-171772878D01*
X104053765Y-171851380D01*
X103852570Y-171891400D01*
X103647430Y-171891400D01*
X103446235Y-171851380D01*
X103256714Y-171772878D01*
X103256713Y-171772878D01*
X103256712Y-171772877D01*
X103086146Y-171658908D01*
X102941092Y-171513854D01*
X102827123Y-171343288D01*
X102748620Y-171153765D01*
X102708600Y-170952569D01*
X102708600Y-170747431D01*
X102748620Y-170546235D01*
X102827123Y-170356712D01*
X102941092Y-170186146D01*
X103086146Y-170041092D01*
X103256712Y-169927123D01*
X103280857Y-169917122D01*
X103446235Y-169848620D01*
X103647430Y-169808600D01*
X103852570Y-169808600D01*
X104053765Y-169848620D01*
X104053765Y-169848620D01*
G37*
G36*
X101523765Y-169848620D02*
G01*
X101689144Y-169917122D01*
X101713288Y-169927123D01*
X101883854Y-170041092D01*
X102028908Y-170186146D01*
X102142877Y-170356712D01*
X102221380Y-170546235D01*
X102261400Y-170747431D01*
X102261400Y-170952569D01*
X102221380Y-171153765D01*
X102142877Y-171343288D01*
X102028908Y-171513854D01*
X101883854Y-171658908D01*
X101713288Y-171772877D01*
X101713287Y-171772878D01*
X101713286Y-171772878D01*
X101523765Y-171851380D01*
X101322570Y-171891400D01*
X101117430Y-171891400D01*
X100916235Y-171851380D01*
X100726714Y-171772878D01*
X100726713Y-171772878D01*
X100726712Y-171772877D01*
X100556146Y-171658908D01*
X100411092Y-171513854D01*
X100297123Y-171343288D01*
X100218620Y-171153765D01*
X100178600Y-170952569D01*
X100178600Y-170747431D01*
X100218620Y-170546235D01*
X100297123Y-170356712D01*
X100411092Y-170186146D01*
X100556146Y-170041092D01*
X100726712Y-169927123D01*
X100750857Y-169917122D01*
X100916235Y-169848620D01*
X101117430Y-169808600D01*
X101322570Y-169808600D01*
X101523765Y-169848620D01*
X101523765Y-169848620D01*
G37*
G36*
X91353765Y-169848620D02*
G01*
X91519144Y-169917122D01*
X91543288Y-169927123D01*
X91713854Y-170041092D01*
X91858908Y-170186146D01*
X91972877Y-170356712D01*
X92051380Y-170546235D01*
X92091400Y-170747431D01*
X92091400Y-170952569D01*
X92051380Y-171153765D01*
X91972877Y-171343288D01*
X91858908Y-171513854D01*
X91713854Y-171658908D01*
X91543288Y-171772877D01*
X91543287Y-171772878D01*
X91543286Y-171772878D01*
X91353765Y-171851380D01*
X91152570Y-171891400D01*
X90947430Y-171891400D01*
X90746235Y-171851380D01*
X90556714Y-171772878D01*
X90556713Y-171772878D01*
X90556712Y-171772877D01*
X90386146Y-171658908D01*
X90241092Y-171513854D01*
X90127123Y-171343288D01*
X90048620Y-171153765D01*
X90008600Y-170952569D01*
X90008600Y-170747431D01*
X90048620Y-170546235D01*
X90127123Y-170356712D01*
X90241092Y-170186146D01*
X90386146Y-170041092D01*
X90556712Y-169927123D01*
X90580857Y-169917122D01*
X90746235Y-169848620D01*
X90947430Y-169808600D01*
X91152570Y-169808600D01*
X91353765Y-169848620D01*
X91353765Y-169848620D01*
G37*
G36*
X88813765Y-169848620D02*
G01*
X88979144Y-169917122D01*
X89003288Y-169927123D01*
X89173854Y-170041092D01*
X89318908Y-170186146D01*
X89432877Y-170356712D01*
X89511380Y-170546235D01*
X89551400Y-170747431D01*
X89551400Y-170952569D01*
X89511380Y-171153765D01*
X89432877Y-171343288D01*
X89318908Y-171513854D01*
X89173854Y-171658908D01*
X89003288Y-171772877D01*
X89003287Y-171772878D01*
X89003286Y-171772878D01*
X88813765Y-171851380D01*
X88612570Y-171891400D01*
X88407430Y-171891400D01*
X88206235Y-171851380D01*
X88016714Y-171772878D01*
X88016713Y-171772878D01*
X88016712Y-171772877D01*
X87846146Y-171658908D01*
X87701092Y-171513854D01*
X87587123Y-171343288D01*
X87508620Y-171153765D01*
X87468600Y-170952569D01*
X87468600Y-170747431D01*
X87508620Y-170546235D01*
X87587123Y-170356712D01*
X87701092Y-170186146D01*
X87846146Y-170041092D01*
X88016712Y-169927123D01*
X88040857Y-169917122D01*
X88206235Y-169848620D01*
X88407430Y-169808600D01*
X88612570Y-169808600D01*
X88813765Y-169848620D01*
X88813765Y-169848620D01*
G37*
G36*
X98983765Y-169848620D02*
G01*
X99149144Y-169917122D01*
X99173288Y-169927123D01*
X99343854Y-170041092D01*
X99488908Y-170186146D01*
X99602877Y-170356712D01*
X99681380Y-170546235D01*
X99721400Y-170747431D01*
X99721400Y-170952569D01*
X99681380Y-171153765D01*
X99602877Y-171343288D01*
X99488908Y-171513854D01*
X99343854Y-171658908D01*
X99173288Y-171772877D01*
X99173287Y-171772878D01*
X99173286Y-171772878D01*
X98983765Y-171851380D01*
X98782570Y-171891400D01*
X98577430Y-171891400D01*
X98376235Y-171851380D01*
X98186714Y-171772878D01*
X98186713Y-171772878D01*
X98186712Y-171772877D01*
X98016146Y-171658908D01*
X97871092Y-171513854D01*
X97757123Y-171343288D01*
X97678620Y-171153765D01*
X97638600Y-170952569D01*
X97638600Y-170747431D01*
X97678620Y-170546235D01*
X97757123Y-170356712D01*
X97871092Y-170186146D01*
X98016146Y-170041092D01*
X98186712Y-169927123D01*
X98210857Y-169917122D01*
X98376235Y-169848620D01*
X98577430Y-169808600D01*
X98782570Y-169808600D01*
X98983765Y-169848620D01*
X98983765Y-169848620D01*
G37*
G36*
X93903765Y-169838620D02*
G01*
X94093288Y-169917123D01*
X94263854Y-170031092D01*
X94408908Y-170176146D01*
X94522877Y-170346712D01*
X94601380Y-170536235D01*
X94641400Y-170737431D01*
X94641400Y-170942569D01*
X94601380Y-171143765D01*
X94522877Y-171333288D01*
X94408908Y-171503854D01*
X94263854Y-171648908D01*
X94093288Y-171762877D01*
X94093287Y-171762878D01*
X94093286Y-171762878D01*
X93903765Y-171841380D01*
X93702570Y-171881400D01*
X93497430Y-171881400D01*
X93296235Y-171841380D01*
X93106714Y-171762878D01*
X93106713Y-171762878D01*
X93106712Y-171762877D01*
X92936146Y-171648908D01*
X92791092Y-171503854D01*
X92677123Y-171333288D01*
X92598620Y-171143765D01*
X92558600Y-170942569D01*
X92558600Y-170737431D01*
X92598620Y-170536235D01*
X92677123Y-170346712D01*
X92791092Y-170176146D01*
X92936146Y-170031092D01*
X93106712Y-169917123D01*
X93296235Y-169838620D01*
X93497430Y-169798600D01*
X93702570Y-169798600D01*
X93903765Y-169838620D01*
X93903765Y-169838620D01*
G37*
G36*
X96433765Y-169838620D02*
G01*
X96623288Y-169917123D01*
X96793854Y-170031092D01*
X96938908Y-170176146D01*
X97052877Y-170346712D01*
X97131380Y-170536235D01*
X97171400Y-170737431D01*
X97171400Y-170942569D01*
X97131380Y-171143765D01*
X97052877Y-171333288D01*
X96938908Y-171503854D01*
X96793854Y-171648908D01*
X96623288Y-171762877D01*
X96623287Y-171762878D01*
X96623286Y-171762878D01*
X96433765Y-171841380D01*
X96232570Y-171881400D01*
X96027430Y-171881400D01*
X95826235Y-171841380D01*
X95636714Y-171762878D01*
X95636713Y-171762878D01*
X95636712Y-171762877D01*
X95466146Y-171648908D01*
X95321092Y-171503854D01*
X95207123Y-171333288D01*
X95128620Y-171143765D01*
X95088600Y-170942569D01*
X95088600Y-170737431D01*
X95128620Y-170536235D01*
X95207123Y-170346712D01*
X95321092Y-170176146D01*
X95466146Y-170031092D01*
X95636712Y-169917123D01*
X95826235Y-169838620D01*
X96027430Y-169798600D01*
X96232570Y-169798600D01*
X96433765Y-169838620D01*
X96433765Y-169838620D01*
G37*
G36*
X96423765Y-154348620D02*
G01*
X96589144Y-154417122D01*
X96613288Y-154427123D01*
X96783854Y-154541092D01*
X96928908Y-154686146D01*
X97042877Y-154856712D01*
X97121380Y-155046235D01*
X97161400Y-155247431D01*
X97161400Y-155452569D01*
X97121380Y-155653765D01*
X97042877Y-155843288D01*
X96928908Y-156013854D01*
X96783854Y-156158908D01*
X96613288Y-156272877D01*
X96613287Y-156272878D01*
X96613286Y-156272878D01*
X96423765Y-156351380D01*
X96222570Y-156391400D01*
X96017430Y-156391400D01*
X95816235Y-156351380D01*
X95626714Y-156272878D01*
X95626713Y-156272878D01*
X95626712Y-156272877D01*
X95456146Y-156158908D01*
X95311092Y-156013854D01*
X95197123Y-155843288D01*
X95118620Y-155653765D01*
X95078600Y-155452569D01*
X95078600Y-155247431D01*
X95118620Y-155046235D01*
X95197123Y-154856712D01*
X95311092Y-154686146D01*
X95456146Y-154541092D01*
X95626712Y-154427123D01*
X95650857Y-154417122D01*
X95816235Y-154348620D01*
X96017430Y-154308600D01*
X96222570Y-154308600D01*
X96423765Y-154348620D01*
X96423765Y-154348620D01*
G37*
G36*
X93893765Y-154348620D02*
G01*
X94059144Y-154417122D01*
X94083288Y-154427123D01*
X94253854Y-154541092D01*
X94398908Y-154686146D01*
X94512877Y-154856712D01*
X94591380Y-155046235D01*
X94631400Y-155247431D01*
X94631400Y-155452569D01*
X94591380Y-155653765D01*
X94512877Y-155843288D01*
X94398908Y-156013854D01*
X94253854Y-156158908D01*
X94083288Y-156272877D01*
X94083287Y-156272878D01*
X94083286Y-156272878D01*
X93893765Y-156351380D01*
X93692570Y-156391400D01*
X93487430Y-156391400D01*
X93286235Y-156351380D01*
X93096714Y-156272878D01*
X93096713Y-156272878D01*
X93096712Y-156272877D01*
X92926146Y-156158908D01*
X92781092Y-156013854D01*
X92667123Y-155843288D01*
X92588620Y-155653765D01*
X92548600Y-155452569D01*
X92548600Y-155247431D01*
X92588620Y-155046235D01*
X92667123Y-154856712D01*
X92781092Y-154686146D01*
X92926146Y-154541092D01*
X93096712Y-154427123D01*
X93120857Y-154417122D01*
X93286235Y-154348620D01*
X93487430Y-154308600D01*
X93692570Y-154308600D01*
X93893765Y-154348620D01*
X93893765Y-154348620D01*
G37*
G36*
X91363765Y-154348620D02*
G01*
X91529144Y-154417122D01*
X91553288Y-154427123D01*
X91723854Y-154541092D01*
X91868908Y-154686146D01*
X91982877Y-154856712D01*
X92061380Y-155046235D01*
X92101400Y-155247431D01*
X92101400Y-155452569D01*
X92061380Y-155653765D01*
X91982877Y-155843288D01*
X91868908Y-156013854D01*
X91723854Y-156158908D01*
X91553288Y-156272877D01*
X91553287Y-156272878D01*
X91553286Y-156272878D01*
X91363765Y-156351380D01*
X91162570Y-156391400D01*
X90957430Y-156391400D01*
X90756235Y-156351380D01*
X90566714Y-156272878D01*
X90566713Y-156272878D01*
X90566712Y-156272877D01*
X90396146Y-156158908D01*
X90251092Y-156013854D01*
X90137123Y-155843288D01*
X90058620Y-155653765D01*
X90018600Y-155452569D01*
X90018600Y-155247431D01*
X90058620Y-155046235D01*
X90137123Y-154856712D01*
X90251092Y-154686146D01*
X90396146Y-154541092D01*
X90566712Y-154427123D01*
X90590857Y-154417122D01*
X90756235Y-154348620D01*
X90957430Y-154308600D01*
X91162570Y-154308600D01*
X91363765Y-154348620D01*
X91363765Y-154348620D01*
G37*
G36*
X88813765Y-154348620D02*
G01*
X88979144Y-154417122D01*
X89003288Y-154427123D01*
X89173854Y-154541092D01*
X89318908Y-154686146D01*
X89432877Y-154856712D01*
X89511380Y-155046235D01*
X89551400Y-155247431D01*
X89551400Y-155452569D01*
X89511380Y-155653765D01*
X89432877Y-155843288D01*
X89318908Y-156013854D01*
X89173854Y-156158908D01*
X89003288Y-156272877D01*
X89003287Y-156272878D01*
X89003286Y-156272878D01*
X88813765Y-156351380D01*
X88612570Y-156391400D01*
X88407430Y-156391400D01*
X88206235Y-156351380D01*
X88016714Y-156272878D01*
X88016713Y-156272878D01*
X88016712Y-156272877D01*
X87846146Y-156158908D01*
X87701092Y-156013854D01*
X87587123Y-155843288D01*
X87508620Y-155653765D01*
X87468600Y-155452569D01*
X87468600Y-155247431D01*
X87508620Y-155046235D01*
X87587123Y-154856712D01*
X87701092Y-154686146D01*
X87846146Y-154541092D01*
X88016712Y-154427123D01*
X88040857Y-154417122D01*
X88206235Y-154348620D01*
X88407430Y-154308600D01*
X88612570Y-154308600D01*
X88813765Y-154348620D01*
X88813765Y-154348620D01*
G37*
G36*
X98983765Y-154348620D02*
G01*
X99149144Y-154417122D01*
X99173288Y-154427123D01*
X99343854Y-154541092D01*
X99488908Y-154686146D01*
X99602877Y-154856712D01*
X99681380Y-155046235D01*
X99721400Y-155247431D01*
X99721400Y-155452569D01*
X99681380Y-155653765D01*
X99602877Y-155843288D01*
X99488908Y-156013854D01*
X99343854Y-156158908D01*
X99173288Y-156272877D01*
X99173287Y-156272878D01*
X99173286Y-156272878D01*
X98983765Y-156351380D01*
X98782570Y-156391400D01*
X98577430Y-156391400D01*
X98376235Y-156351380D01*
X98186714Y-156272878D01*
X98186713Y-156272878D01*
X98186712Y-156272877D01*
X98016146Y-156158908D01*
X97871092Y-156013854D01*
X97757123Y-155843288D01*
X97678620Y-155653765D01*
X97638600Y-155452569D01*
X97638600Y-155247431D01*
X97678620Y-155046235D01*
X97757123Y-154856712D01*
X97871092Y-154686146D01*
X98016146Y-154541092D01*
X98186712Y-154427123D01*
X98210857Y-154417122D01*
X98376235Y-154348620D01*
X98577430Y-154308600D01*
X98782570Y-154308600D01*
X98983765Y-154348620D01*
X98983765Y-154348620D01*
G37*
G36*
X101513765Y-154348620D02*
G01*
X101679144Y-154417122D01*
X101703288Y-154427123D01*
X101873854Y-154541092D01*
X102018908Y-154686146D01*
X102132877Y-154856712D01*
X102211380Y-155046235D01*
X102251400Y-155247431D01*
X102251400Y-155452569D01*
X102211380Y-155653765D01*
X102132877Y-155843288D01*
X102018908Y-156013854D01*
X101873854Y-156158908D01*
X101703288Y-156272877D01*
X101703287Y-156272878D01*
X101703286Y-156272878D01*
X101513765Y-156351380D01*
X101312570Y-156391400D01*
X101107430Y-156391400D01*
X100906235Y-156351380D01*
X100716714Y-156272878D01*
X100716713Y-156272878D01*
X100716712Y-156272877D01*
X100546146Y-156158908D01*
X100401092Y-156013854D01*
X100287123Y-155843288D01*
X100208620Y-155653765D01*
X100168600Y-155452569D01*
X100168600Y-155247431D01*
X100208620Y-155046235D01*
X100287123Y-154856712D01*
X100401092Y-154686146D01*
X100546146Y-154541092D01*
X100716712Y-154427123D01*
X100740857Y-154417122D01*
X100906235Y-154348620D01*
X101107430Y-154308600D01*
X101312570Y-154308600D01*
X101513765Y-154348620D01*
X101513765Y-154348620D01*
G37*
G36*
X104053765Y-154338620D02*
G01*
X104243288Y-154417123D01*
X104413854Y-154531092D01*
X104558908Y-154676146D01*
X104672877Y-154846712D01*
X104751380Y-155036235D01*
X104791400Y-155237431D01*
X104791400Y-155442569D01*
X104751380Y-155643765D01*
X104672877Y-155833288D01*
X104558908Y-156003854D01*
X104413854Y-156148908D01*
X104243288Y-156262877D01*
X104243287Y-156262878D01*
X104243286Y-156262878D01*
X104053765Y-156341380D01*
X103852570Y-156381400D01*
X103647430Y-156381400D01*
X103446235Y-156341380D01*
X103256714Y-156262878D01*
X103256713Y-156262878D01*
X103256712Y-156262877D01*
X103086146Y-156148908D01*
X102941092Y-156003854D01*
X102827123Y-155833288D01*
X102748620Y-155643765D01*
X102708600Y-155442569D01*
X102708600Y-155237431D01*
X102748620Y-155036235D01*
X102827123Y-154846712D01*
X102941092Y-154676146D01*
X103086146Y-154531092D01*
X103256712Y-154417123D01*
X103446235Y-154338620D01*
X103647430Y-154298600D01*
X103852570Y-154298600D01*
X104053765Y-154338620D01*
X104053765Y-154338620D01*
G37*
G36*
X87744468Y-128883565D02*
G01*
X87783138Y-128895296D01*
X87818777Y-128914346D01*
X87850017Y-128939983D01*
X87875654Y-128971223D01*
X87894704Y-129006862D01*
X87906435Y-129045532D01*
X87911000Y-129091888D01*
X87911000Y-129743112D01*
X87906435Y-129789468D01*
X87894704Y-129828138D01*
X87875654Y-129863777D01*
X87850017Y-129895017D01*
X87818777Y-129920654D01*
X87783138Y-129939704D01*
X87744468Y-129951435D01*
X87698112Y-129956000D01*
X86621888Y-129956000D01*
X86575532Y-129951435D01*
X86536862Y-129939704D01*
X86501223Y-129920654D01*
X86469983Y-129895017D01*
X86444346Y-129863777D01*
X86425296Y-129828138D01*
X86413565Y-129789468D01*
X86409000Y-129743112D01*
X86409000Y-129091888D01*
X86413565Y-129045532D01*
X86425296Y-129006862D01*
X86444346Y-128971223D01*
X86469983Y-128939983D01*
X86501223Y-128914346D01*
X86536862Y-128895296D01*
X86575532Y-128883565D01*
X86621888Y-128879000D01*
X87698112Y-128879000D01*
X87744468Y-128883565D01*
X87744468Y-128883565D01*
G37*
G36*
X87744468Y-127008565D02*
G01*
X87783138Y-127020296D01*
X87818777Y-127039346D01*
X87850017Y-127064983D01*
X87875654Y-127096223D01*
X87894704Y-127131862D01*
X87906435Y-127170532D01*
X87911000Y-127216888D01*
X87911000Y-127868112D01*
X87906435Y-127914468D01*
X87894704Y-127953138D01*
X87875654Y-127988777D01*
X87850017Y-128020017D01*
X87818777Y-128045654D01*
X87783138Y-128064704D01*
X87744468Y-128076435D01*
X87698112Y-128081000D01*
X86621888Y-128081000D01*
X86575532Y-128076435D01*
X86536862Y-128064704D01*
X86501223Y-128045654D01*
X86469983Y-128020017D01*
X86444346Y-127988777D01*
X86425296Y-127953138D01*
X86413565Y-127914468D01*
X86409000Y-127868112D01*
X86409000Y-127216888D01*
X86413565Y-127170532D01*
X86425296Y-127131862D01*
X86444346Y-127096223D01*
X86469983Y-127064983D01*
X86501223Y-127039346D01*
X86536862Y-127020296D01*
X86575532Y-127008565D01*
X86621888Y-127004000D01*
X87698112Y-127004000D01*
X87744468Y-127008565D01*
X87744468Y-127008565D01*
G37*
G36*
X94865256Y-32331298D02*
G01*
X94971579Y-32352447D01*
X95272042Y-32476903D01*
X95542451Y-32657585D01*
X95772415Y-32887549D01*
X95953097Y-33157958D01*
X96077553Y-33458421D01*
X96141000Y-33777391D01*
X96141000Y-34102609D01*
X96077553Y-34421579D01*
X95953097Y-34722042D01*
X95772415Y-34992451D01*
X95542451Y-35222415D01*
X95272042Y-35403097D01*
X94971579Y-35527553D01*
X94865256Y-35548702D01*
X94652611Y-35591000D01*
X94327389Y-35591000D01*
X94114744Y-35548702D01*
X94008421Y-35527553D01*
X93707958Y-35403097D01*
X93437549Y-35222415D01*
X93207585Y-34992451D01*
X93026903Y-34722042D01*
X92902447Y-34421579D01*
X92839000Y-34102609D01*
X92839000Y-33777391D01*
X92902447Y-33458421D01*
X93026903Y-33157958D01*
X93207585Y-32887549D01*
X93437549Y-32657585D01*
X93707958Y-32476903D01*
X94008421Y-32352447D01*
X94114744Y-32331298D01*
X94327389Y-32289000D01*
X94652611Y-32289000D01*
X94865256Y-32331298D01*
X94865256Y-32331298D01*
G37*
M02*
