G04 #@! TF.GenerationSoftware,KiCad,Pcbnew,(5.1.2)-1*
G04 #@! TF.CreationDate,2023-11-23T12:08:04+09:00*
G04 #@! TF.ProjectId,gopher_party_xiao_v2,676f7068-6572-45f7-9061-7274795f7869,rev?*
G04 #@! TF.SameCoordinates,Original*
G04 #@! TF.FileFunction,Legend,Top*
G04 #@! TF.FilePolarity,Positive*
%FSLAX46Y46*%
G04 Gerber Fmt 4.6, Leading zero omitted, Abs format (unit mm)*
G04 Created by KiCad (PCBNEW (5.1.2)-1) date 2023-11-23 12:08:04*
%MOMM*%
%LPD*%
G04 APERTURE LIST*
%ADD10C,0.120000*%
%ADD11C,0.100000*%
%ADD12C,0.127000*%
%ADD13C,0.066040*%
%ADD14C,0.150000*%
%ADD15C,0.101600*%
%ADD16C,0.076200*%
G04 APERTURE END LIST*
D10*
X80620000Y-172500000D02*
X111620000Y-172500000D01*
X111620000Y-172500000D02*
X111620000Y-200500000D01*
X111620000Y-200500000D02*
X80620000Y-200500000D01*
X80620000Y-200500000D02*
X80620000Y-172500000D01*
D11*
G36*
X109880000Y-62880000D02*
G01*
X111470000Y-62990000D01*
X112980000Y-63300000D01*
X114330000Y-63790000D01*
X115620000Y-64450000D01*
X116910000Y-65360000D01*
X118210000Y-66570000D01*
X119100000Y-67610000D01*
X119880000Y-68810000D01*
X120550000Y-70140000D01*
X120970000Y-71470000D01*
X121270000Y-72950000D01*
X121330000Y-73980000D01*
X119110000Y-74040000D01*
X116430000Y-74020000D01*
X115140000Y-74040000D01*
X114690000Y-73990000D01*
X114640000Y-73520000D01*
X114510000Y-72880000D01*
X114260000Y-72220000D01*
X113970000Y-71700000D01*
X113630000Y-71210000D01*
X113300000Y-70850000D01*
X112970000Y-70530000D01*
X112500000Y-70180000D01*
X111990000Y-69920000D01*
X111340000Y-69630000D01*
X110810000Y-69510000D01*
X110180000Y-69440000D01*
X109540000Y-69440000D01*
X108990000Y-69500000D01*
X108350000Y-69670000D01*
X107760000Y-69920000D01*
X107410000Y-70110000D01*
X106860000Y-70500000D01*
X106390000Y-70870000D01*
X106000000Y-71370000D01*
X105660000Y-71920000D01*
X105390000Y-72490000D01*
X105220000Y-73020000D01*
X105130000Y-73520000D01*
X105090000Y-73790000D01*
X105080000Y-74070000D01*
X105070000Y-74310000D01*
X98060000Y-74420000D01*
X98080000Y-73880000D01*
X98150000Y-73030000D01*
X98370000Y-71850000D01*
X98420000Y-71620000D01*
X98720000Y-70680000D01*
X99410000Y-69080000D01*
X100130000Y-67900000D01*
X100950000Y-66800000D01*
X102010000Y-65750000D01*
X103070000Y-64920000D01*
X104460000Y-64110000D01*
X105950000Y-63470000D01*
X107150000Y-63130000D01*
X108390000Y-62930000D01*
X109880000Y-62880000D01*
G37*
X109880000Y-62880000D02*
X111470000Y-62990000D01*
X112980000Y-63300000D01*
X114330000Y-63790000D01*
X115620000Y-64450000D01*
X116910000Y-65360000D01*
X118210000Y-66570000D01*
X119100000Y-67610000D01*
X119880000Y-68810000D01*
X120550000Y-70140000D01*
X120970000Y-71470000D01*
X121270000Y-72950000D01*
X121330000Y-73980000D01*
X119110000Y-74040000D01*
X116430000Y-74020000D01*
X115140000Y-74040000D01*
X114690000Y-73990000D01*
X114640000Y-73520000D01*
X114510000Y-72880000D01*
X114260000Y-72220000D01*
X113970000Y-71700000D01*
X113630000Y-71210000D01*
X113300000Y-70850000D01*
X112970000Y-70530000D01*
X112500000Y-70180000D01*
X111990000Y-69920000D01*
X111340000Y-69630000D01*
X110810000Y-69510000D01*
X110180000Y-69440000D01*
X109540000Y-69440000D01*
X108990000Y-69500000D01*
X108350000Y-69670000D01*
X107760000Y-69920000D01*
X107410000Y-70110000D01*
X106860000Y-70500000D01*
X106390000Y-70870000D01*
X106000000Y-71370000D01*
X105660000Y-71920000D01*
X105390000Y-72490000D01*
X105220000Y-73020000D01*
X105130000Y-73520000D01*
X105090000Y-73790000D01*
X105080000Y-74070000D01*
X105070000Y-74310000D01*
X98060000Y-74420000D01*
X98080000Y-73880000D01*
X98150000Y-73030000D01*
X98370000Y-71850000D01*
X98420000Y-71620000D01*
X98720000Y-70680000D01*
X99410000Y-69080000D01*
X100130000Y-67900000D01*
X100950000Y-66800000D01*
X102010000Y-65750000D01*
X103070000Y-64920000D01*
X104460000Y-64110000D01*
X105950000Y-63470000D01*
X107150000Y-63130000D01*
X108390000Y-62930000D01*
X109880000Y-62880000D01*
G36*
X114690000Y-74050000D02*
G01*
X121330000Y-74010000D01*
X121360000Y-74500000D01*
X121310000Y-75690000D01*
X121110000Y-77070000D01*
X120710000Y-78410000D01*
X120130000Y-79760000D01*
X119050000Y-81490000D01*
X118030000Y-82670000D01*
X116980000Y-83600000D01*
X115710000Y-84490000D01*
X114510000Y-85130000D01*
X113180000Y-85650000D01*
X111360000Y-86040000D01*
X110290000Y-86150000D01*
X109200000Y-86160000D01*
X108400000Y-86110000D01*
X107680000Y-86030000D01*
X107120000Y-85910000D01*
X105740000Y-85490000D01*
X104350000Y-84860000D01*
X103150000Y-84150000D01*
X101990000Y-83250000D01*
X100900000Y-82150000D01*
X100100000Y-81120000D01*
X99310000Y-79790000D01*
X98800000Y-78650000D01*
X98410000Y-77340000D01*
X98160000Y-75940000D01*
X98080000Y-74430000D01*
X105060000Y-74350000D01*
X105120000Y-74820000D01*
X105230000Y-75520000D01*
X105510000Y-76250000D01*
X105960000Y-77030000D01*
X106540000Y-77690000D01*
X107300000Y-78300000D01*
X108250000Y-78740000D01*
X108950000Y-78940000D01*
X109860000Y-79040000D01*
X110340000Y-79010000D01*
X110970000Y-78890000D01*
X111690000Y-78690000D01*
X112040000Y-78520000D01*
X112510000Y-78240000D01*
X112980000Y-77890000D01*
X113470000Y-77420000D01*
X113790000Y-77010000D01*
X114070000Y-76580000D01*
X114440000Y-75760000D01*
X114660000Y-74760000D01*
X114670000Y-74460000D01*
X114690000Y-74050000D01*
G37*
X114690000Y-74050000D02*
X121330000Y-74010000D01*
X121360000Y-74500000D01*
X121310000Y-75690000D01*
X121110000Y-77070000D01*
X120710000Y-78410000D01*
X120130000Y-79760000D01*
X119050000Y-81490000D01*
X118030000Y-82670000D01*
X116980000Y-83600000D01*
X115710000Y-84490000D01*
X114510000Y-85130000D01*
X113180000Y-85650000D01*
X111360000Y-86040000D01*
X110290000Y-86150000D01*
X109200000Y-86160000D01*
X108400000Y-86110000D01*
X107680000Y-86030000D01*
X107120000Y-85910000D01*
X105740000Y-85490000D01*
X104350000Y-84860000D01*
X103150000Y-84150000D01*
X101990000Y-83250000D01*
X100900000Y-82150000D01*
X100100000Y-81120000D01*
X99310000Y-79790000D01*
X98800000Y-78650000D01*
X98410000Y-77340000D01*
X98160000Y-75940000D01*
X98080000Y-74430000D01*
X105060000Y-74350000D01*
X105120000Y-74820000D01*
X105230000Y-75520000D01*
X105510000Y-76250000D01*
X105960000Y-77030000D01*
X106540000Y-77690000D01*
X107300000Y-78300000D01*
X108250000Y-78740000D01*
X108950000Y-78940000D01*
X109860000Y-79040000D01*
X110340000Y-79010000D01*
X110970000Y-78890000D01*
X111690000Y-78690000D01*
X112040000Y-78520000D01*
X112510000Y-78240000D01*
X112980000Y-77890000D01*
X113470000Y-77420000D01*
X113790000Y-77010000D01*
X114070000Y-76580000D01*
X114440000Y-75760000D01*
X114660000Y-74760000D01*
X114670000Y-74460000D01*
X114690000Y-74050000D01*
G36*
X79180000Y-64150000D02*
G01*
X80020000Y-64170000D01*
X80790000Y-64220000D01*
X81580000Y-64310000D01*
X82360000Y-64460000D01*
X83440000Y-64810000D01*
X84820000Y-65420000D01*
X86080000Y-66180000D01*
X87160000Y-67040000D01*
X88230000Y-68110000D01*
X89140000Y-69280000D01*
X89850000Y-70500000D01*
X90400000Y-71760000D01*
X90820000Y-73190000D01*
X90900000Y-73630000D01*
X91080000Y-74670000D01*
X91110000Y-74770000D01*
X91130000Y-75080000D01*
X91130000Y-75150000D01*
X89770000Y-75180000D01*
X87080000Y-75130000D01*
X84710000Y-75090000D01*
X84260000Y-75070000D01*
X84160000Y-75060000D01*
X84090000Y-74420000D01*
X83950000Y-73850000D01*
X83760000Y-73280000D01*
X83500000Y-72810000D01*
X83140000Y-72280000D01*
X82800000Y-71860000D01*
X82410000Y-71530000D01*
X81960000Y-71190000D01*
X81500000Y-70930000D01*
X81060000Y-70730000D01*
X80490000Y-70560000D01*
X80000000Y-70470000D01*
X79460000Y-70430000D01*
X78970000Y-70440000D01*
X78460000Y-70510000D01*
X77700000Y-70710000D01*
X77050000Y-71020000D01*
X76390000Y-71460000D01*
X76000000Y-71800000D01*
X75720000Y-72100000D01*
X75370000Y-72550000D01*
X75040000Y-73140000D01*
X74800000Y-73730000D01*
X74690000Y-74100000D01*
X74590000Y-74640000D01*
X74550000Y-75070000D01*
X74550000Y-75390000D01*
X74570000Y-75610000D01*
X71390000Y-75700000D01*
X67850000Y-75710000D01*
X67850000Y-75200000D01*
X67860000Y-74850000D01*
X67970000Y-73800000D01*
X68200000Y-72700000D01*
X68550000Y-71670000D01*
X69360000Y-69990000D01*
X69870000Y-69170000D01*
X70170000Y-68770000D01*
X70920000Y-67940000D01*
X71510000Y-67320000D01*
X72550000Y-66440000D01*
X73810000Y-65590000D01*
X75090000Y-64960000D01*
X76450000Y-64520000D01*
X78130000Y-64210000D01*
X79180000Y-64150000D01*
G37*
X79180000Y-64150000D02*
X80020000Y-64170000D01*
X80790000Y-64220000D01*
X81580000Y-64310000D01*
X82360000Y-64460000D01*
X83440000Y-64810000D01*
X84820000Y-65420000D01*
X86080000Y-66180000D01*
X87160000Y-67040000D01*
X88230000Y-68110000D01*
X89140000Y-69280000D01*
X89850000Y-70500000D01*
X90400000Y-71760000D01*
X90820000Y-73190000D01*
X90900000Y-73630000D01*
X91080000Y-74670000D01*
X91110000Y-74770000D01*
X91130000Y-75080000D01*
X91130000Y-75150000D01*
X89770000Y-75180000D01*
X87080000Y-75130000D01*
X84710000Y-75090000D01*
X84260000Y-75070000D01*
X84160000Y-75060000D01*
X84090000Y-74420000D01*
X83950000Y-73850000D01*
X83760000Y-73280000D01*
X83500000Y-72810000D01*
X83140000Y-72280000D01*
X82800000Y-71860000D01*
X82410000Y-71530000D01*
X81960000Y-71190000D01*
X81500000Y-70930000D01*
X81060000Y-70730000D01*
X80490000Y-70560000D01*
X80000000Y-70470000D01*
X79460000Y-70430000D01*
X78970000Y-70440000D01*
X78460000Y-70510000D01*
X77700000Y-70710000D01*
X77050000Y-71020000D01*
X76390000Y-71460000D01*
X76000000Y-71800000D01*
X75720000Y-72100000D01*
X75370000Y-72550000D01*
X75040000Y-73140000D01*
X74800000Y-73730000D01*
X74690000Y-74100000D01*
X74590000Y-74640000D01*
X74550000Y-75070000D01*
X74550000Y-75390000D01*
X74570000Y-75610000D01*
X71390000Y-75700000D01*
X67850000Y-75710000D01*
X67850000Y-75200000D01*
X67860000Y-74850000D01*
X67970000Y-73800000D01*
X68200000Y-72700000D01*
X68550000Y-71670000D01*
X69360000Y-69990000D01*
X69870000Y-69170000D01*
X70170000Y-68770000D01*
X70920000Y-67940000D01*
X71510000Y-67320000D01*
X72550000Y-66440000D01*
X73810000Y-65590000D01*
X75090000Y-64960000D01*
X76450000Y-64520000D01*
X78130000Y-64210000D01*
X79180000Y-64150000D01*
G36*
X84140000Y-75100000D02*
G01*
X91130000Y-75180000D01*
X91140000Y-75930000D01*
X91140000Y-76550000D01*
X91010000Y-77580000D01*
X90960000Y-77970000D01*
X90590000Y-79380000D01*
X90060000Y-80710000D01*
X89350000Y-81980000D01*
X88480000Y-83180000D01*
X86720000Y-84910000D01*
X85500000Y-85760000D01*
X84180000Y-86460000D01*
X82800000Y-86970000D01*
X81180000Y-87330000D01*
X80350000Y-87410000D01*
X79490000Y-87440000D01*
X78780000Y-87420000D01*
X77930000Y-87370000D01*
X77120000Y-87230000D01*
X76050000Y-86920000D01*
X75540000Y-86770000D01*
X74230000Y-86200000D01*
X73000000Y-85480000D01*
X71870000Y-84610000D01*
X71170000Y-83930000D01*
X70840000Y-83610000D01*
X69900000Y-82440000D01*
X69270000Y-81400000D01*
X68580000Y-79910000D01*
X68240000Y-78910000D01*
X68010000Y-77920000D01*
X67900000Y-76990000D01*
X67870000Y-76000000D01*
X67850000Y-75700000D01*
X74580000Y-75630000D01*
X74680000Y-76380000D01*
X74930000Y-77080000D01*
X75190000Y-77600000D01*
X75440000Y-78010000D01*
X75740000Y-78380000D01*
X76090000Y-78740000D01*
X76480000Y-79070000D01*
X76890000Y-79350000D01*
X77300000Y-79560000D01*
X77690000Y-79730000D01*
X78190000Y-79890000D01*
X78660000Y-79980000D01*
X79380000Y-80030000D01*
X79850000Y-80010000D01*
X80520000Y-79890000D01*
X81010000Y-79740000D01*
X81460000Y-79540000D01*
X81960000Y-79270000D01*
X82340000Y-78990000D01*
X82640000Y-78730000D01*
X82970000Y-78400000D01*
X83290000Y-77990000D01*
X83500000Y-77650000D01*
X83750000Y-77170000D01*
X83930000Y-76710000D01*
X84080000Y-76090000D01*
X84160000Y-75490000D01*
X84140000Y-75100000D01*
G37*
X84140000Y-75100000D02*
X91130000Y-75180000D01*
X91140000Y-75930000D01*
X91140000Y-76550000D01*
X91010000Y-77580000D01*
X90960000Y-77970000D01*
X90590000Y-79380000D01*
X90060000Y-80710000D01*
X89350000Y-81980000D01*
X88480000Y-83180000D01*
X86720000Y-84910000D01*
X85500000Y-85760000D01*
X84180000Y-86460000D01*
X82800000Y-86970000D01*
X81180000Y-87330000D01*
X80350000Y-87410000D01*
X79490000Y-87440000D01*
X78780000Y-87420000D01*
X77930000Y-87370000D01*
X77120000Y-87230000D01*
X76050000Y-86920000D01*
X75540000Y-86770000D01*
X74230000Y-86200000D01*
X73000000Y-85480000D01*
X71870000Y-84610000D01*
X71170000Y-83930000D01*
X70840000Y-83610000D01*
X69900000Y-82440000D01*
X69270000Y-81400000D01*
X68580000Y-79910000D01*
X68240000Y-78910000D01*
X68010000Y-77920000D01*
X67900000Y-76990000D01*
X67870000Y-76000000D01*
X67850000Y-75700000D01*
X74580000Y-75630000D01*
X74680000Y-76380000D01*
X74930000Y-77080000D01*
X75190000Y-77600000D01*
X75440000Y-78010000D01*
X75740000Y-78380000D01*
X76090000Y-78740000D01*
X76480000Y-79070000D01*
X76890000Y-79350000D01*
X77300000Y-79560000D01*
X77690000Y-79730000D01*
X78190000Y-79890000D01*
X78660000Y-79980000D01*
X79380000Y-80030000D01*
X79850000Y-80010000D01*
X80520000Y-79890000D01*
X81010000Y-79740000D01*
X81460000Y-79540000D01*
X81960000Y-79270000D01*
X82340000Y-78990000D01*
X82640000Y-78730000D01*
X82970000Y-78400000D01*
X83290000Y-77990000D01*
X83500000Y-77650000D01*
X83750000Y-77170000D01*
X83930000Y-76710000D01*
X84080000Y-76090000D01*
X84160000Y-75490000D01*
X84140000Y-75100000D01*
D10*
X114626588Y-74226588D02*
G75*
G03X114626588Y-74226588I-4746588J0D01*
G01*
D11*
G36*
X119590000Y-109400000D02*
G01*
X120310000Y-109430000D01*
X121970000Y-109610000D01*
X123220000Y-109930000D01*
X124300000Y-110270000D01*
X125580000Y-110900000D01*
X126410000Y-111500000D01*
X127290000Y-112330000D01*
X127930000Y-113300000D01*
X128330000Y-114040000D01*
X128540000Y-114580000D01*
X128730000Y-115220000D01*
X128810000Y-115680000D01*
X128820000Y-115770000D01*
X128790000Y-115830000D01*
X128710000Y-115820000D01*
X128510000Y-115850000D01*
X128260000Y-115970000D01*
X128110000Y-116090000D01*
X127960000Y-116290000D01*
X127830000Y-116570000D01*
X127780000Y-116700000D01*
X127600000Y-117150000D01*
X127560000Y-117270000D01*
X127350000Y-117780000D01*
X127300000Y-117910000D01*
X127120000Y-118250000D01*
X127050000Y-118390000D01*
X126830000Y-118680000D01*
X126620000Y-118800000D01*
X126430000Y-118730000D01*
X126350000Y-118630000D01*
X126290000Y-118520000D01*
X126230000Y-118350000D01*
X126110000Y-118030000D01*
X126070000Y-117900000D01*
X125980000Y-117600000D01*
X125850000Y-117170000D01*
X125770000Y-116930000D01*
X125590000Y-116440000D01*
X125300000Y-115970000D01*
X124980000Y-115700000D01*
X124590000Y-115590000D01*
X124310000Y-115630000D01*
X124090000Y-115760000D01*
X123900000Y-116040000D01*
X123630000Y-116570000D01*
X123560000Y-116740000D01*
X123420000Y-117050000D01*
X123250000Y-117530000D01*
X123130000Y-117880000D01*
X123050000Y-118120000D01*
X122930000Y-118410000D01*
X122870000Y-118570000D01*
X122640000Y-119070000D01*
X122430000Y-119350000D01*
X122060000Y-119650000D01*
X121740000Y-119680000D01*
X121440000Y-119540000D01*
X121200000Y-119250000D01*
X120940000Y-118740000D01*
X120710000Y-118180000D01*
X120550000Y-117440000D01*
X120350000Y-116620000D01*
X120150000Y-116060000D01*
X119940000Y-115650000D01*
X119690000Y-115430000D01*
X119430000Y-115390000D01*
X119190000Y-115410000D01*
X118820000Y-115570000D01*
X118420000Y-115880000D01*
X118000000Y-116340000D01*
X117560000Y-116950000D01*
X117300000Y-117370000D01*
X116930000Y-117950000D01*
X116730000Y-118250000D01*
X116410000Y-118720000D01*
X116120000Y-119000000D01*
X115880000Y-119170000D01*
X115610000Y-119250000D01*
X115310000Y-119290000D01*
X114640000Y-119330000D01*
X114120000Y-119140000D01*
X113720000Y-118660000D01*
X113360000Y-118220000D01*
X113210000Y-117880000D01*
X113100000Y-117550000D01*
X113060000Y-117440000D01*
X113000000Y-117210000D01*
X112920000Y-116870000D01*
X112900000Y-116780000D01*
X112670000Y-116080000D01*
X112350000Y-115550000D01*
X111980000Y-115190000D01*
X111540000Y-115030000D01*
X111060000Y-115050000D01*
X110530000Y-115250000D01*
X110170000Y-115500000D01*
X109950000Y-115660000D01*
X109800000Y-115780000D01*
X109720000Y-115820000D01*
X109700000Y-115760000D01*
X109740000Y-115570000D01*
X109850000Y-115190000D01*
X109960000Y-114860000D01*
X110430000Y-113700000D01*
X110520000Y-113510000D01*
X111080000Y-112570000D01*
X111730000Y-111770000D01*
X112550000Y-111060000D01*
X113520000Y-110460000D01*
X114760000Y-109950000D01*
X115820000Y-109650000D01*
X116910000Y-109480000D01*
X118090000Y-109390000D01*
X119170000Y-109390000D01*
X119590000Y-109400000D01*
G37*
X119590000Y-109400000D02*
X120310000Y-109430000D01*
X121970000Y-109610000D01*
X123220000Y-109930000D01*
X124300000Y-110270000D01*
X125580000Y-110900000D01*
X126410000Y-111500000D01*
X127290000Y-112330000D01*
X127930000Y-113300000D01*
X128330000Y-114040000D01*
X128540000Y-114580000D01*
X128730000Y-115220000D01*
X128810000Y-115680000D01*
X128820000Y-115770000D01*
X128790000Y-115830000D01*
X128710000Y-115820000D01*
X128510000Y-115850000D01*
X128260000Y-115970000D01*
X128110000Y-116090000D01*
X127960000Y-116290000D01*
X127830000Y-116570000D01*
X127780000Y-116700000D01*
X127600000Y-117150000D01*
X127560000Y-117270000D01*
X127350000Y-117780000D01*
X127300000Y-117910000D01*
X127120000Y-118250000D01*
X127050000Y-118390000D01*
X126830000Y-118680000D01*
X126620000Y-118800000D01*
X126430000Y-118730000D01*
X126350000Y-118630000D01*
X126290000Y-118520000D01*
X126230000Y-118350000D01*
X126110000Y-118030000D01*
X126070000Y-117900000D01*
X125980000Y-117600000D01*
X125850000Y-117170000D01*
X125770000Y-116930000D01*
X125590000Y-116440000D01*
X125300000Y-115970000D01*
X124980000Y-115700000D01*
X124590000Y-115590000D01*
X124310000Y-115630000D01*
X124090000Y-115760000D01*
X123900000Y-116040000D01*
X123630000Y-116570000D01*
X123560000Y-116740000D01*
X123420000Y-117050000D01*
X123250000Y-117530000D01*
X123130000Y-117880000D01*
X123050000Y-118120000D01*
X122930000Y-118410000D01*
X122870000Y-118570000D01*
X122640000Y-119070000D01*
X122430000Y-119350000D01*
X122060000Y-119650000D01*
X121740000Y-119680000D01*
X121440000Y-119540000D01*
X121200000Y-119250000D01*
X120940000Y-118740000D01*
X120710000Y-118180000D01*
X120550000Y-117440000D01*
X120350000Y-116620000D01*
X120150000Y-116060000D01*
X119940000Y-115650000D01*
X119690000Y-115430000D01*
X119430000Y-115390000D01*
X119190000Y-115410000D01*
X118820000Y-115570000D01*
X118420000Y-115880000D01*
X118000000Y-116340000D01*
X117560000Y-116950000D01*
X117300000Y-117370000D01*
X116930000Y-117950000D01*
X116730000Y-118250000D01*
X116410000Y-118720000D01*
X116120000Y-119000000D01*
X115880000Y-119170000D01*
X115610000Y-119250000D01*
X115310000Y-119290000D01*
X114640000Y-119330000D01*
X114120000Y-119140000D01*
X113720000Y-118660000D01*
X113360000Y-118220000D01*
X113210000Y-117880000D01*
X113100000Y-117550000D01*
X113060000Y-117440000D01*
X113000000Y-117210000D01*
X112920000Y-116870000D01*
X112900000Y-116780000D01*
X112670000Y-116080000D01*
X112350000Y-115550000D01*
X111980000Y-115190000D01*
X111540000Y-115030000D01*
X111060000Y-115050000D01*
X110530000Y-115250000D01*
X110170000Y-115500000D01*
X109950000Y-115660000D01*
X109800000Y-115780000D01*
X109720000Y-115820000D01*
X109700000Y-115760000D01*
X109740000Y-115570000D01*
X109850000Y-115190000D01*
X109960000Y-114860000D01*
X110430000Y-113700000D01*
X110520000Y-113510000D01*
X111080000Y-112570000D01*
X111730000Y-111770000D01*
X112550000Y-111060000D01*
X113520000Y-110460000D01*
X114760000Y-109950000D01*
X115820000Y-109650000D01*
X116910000Y-109480000D01*
X118090000Y-109390000D01*
X119170000Y-109390000D01*
X119590000Y-109400000D01*
G36*
X91710000Y-43490000D02*
G01*
X91860000Y-43760000D01*
X92230000Y-44440000D01*
X92590000Y-45150000D01*
X93200000Y-46320000D01*
X93350000Y-46570000D01*
X93470000Y-46710000D01*
X93580000Y-46790000D01*
X93700000Y-46830000D01*
X94510000Y-46950000D01*
X95900000Y-47150000D01*
X97120000Y-47320000D01*
X96610000Y-47800000D01*
X96130000Y-48310000D01*
X95470000Y-48970000D01*
X94440000Y-50000000D01*
X94440000Y-50020000D01*
X94550000Y-50640000D01*
X94660000Y-51300000D01*
X94750000Y-51800000D01*
X94830000Y-52280000D01*
X94900000Y-52740000D01*
X94950000Y-53030000D01*
X94960000Y-53140000D01*
X94980000Y-53270000D01*
X95000000Y-53410000D01*
X95010000Y-53510000D01*
X95020000Y-53610000D01*
X94990000Y-53610000D01*
X94920000Y-53580000D01*
X94570000Y-53400000D01*
X93970000Y-53100000D01*
X92750000Y-52460000D01*
X92200000Y-52180000D01*
X91720000Y-51920000D01*
X91500000Y-52030000D01*
X90500000Y-52560000D01*
X89700000Y-52980000D01*
X89060000Y-53310000D01*
X88720000Y-53480000D01*
X88450000Y-53610000D01*
X88450000Y-53520000D01*
X88470000Y-53330000D01*
X88540000Y-52800000D01*
X88700000Y-51790000D01*
X88870000Y-50800000D01*
X88980000Y-50180000D01*
X89020000Y-49970000D01*
X88790000Y-49740000D01*
X88330000Y-49300000D01*
X88080000Y-49050000D01*
X87630000Y-48610000D01*
X87330000Y-48320000D01*
X87070000Y-48070000D01*
X86880000Y-47880000D01*
X86680000Y-47670000D01*
X86490000Y-47480000D01*
X86420000Y-47390000D01*
X86510000Y-47360000D01*
X87010000Y-47250000D01*
X87910000Y-47100000D01*
X88780000Y-46970000D01*
X89960000Y-46780000D01*
X90090000Y-46750000D01*
X90790000Y-45330000D01*
X91250000Y-44350000D01*
X91590000Y-43700000D01*
X91710000Y-43490000D01*
G37*
X91710000Y-43490000D02*
X91860000Y-43760000D01*
X92230000Y-44440000D01*
X92590000Y-45150000D01*
X93200000Y-46320000D01*
X93350000Y-46570000D01*
X93470000Y-46710000D01*
X93580000Y-46790000D01*
X93700000Y-46830000D01*
X94510000Y-46950000D01*
X95900000Y-47150000D01*
X97120000Y-47320000D01*
X96610000Y-47800000D01*
X96130000Y-48310000D01*
X95470000Y-48970000D01*
X94440000Y-50000000D01*
X94440000Y-50020000D01*
X94550000Y-50640000D01*
X94660000Y-51300000D01*
X94750000Y-51800000D01*
X94830000Y-52280000D01*
X94900000Y-52740000D01*
X94950000Y-53030000D01*
X94960000Y-53140000D01*
X94980000Y-53270000D01*
X95000000Y-53410000D01*
X95010000Y-53510000D01*
X95020000Y-53610000D01*
X94990000Y-53610000D01*
X94920000Y-53580000D01*
X94570000Y-53400000D01*
X93970000Y-53100000D01*
X92750000Y-52460000D01*
X92200000Y-52180000D01*
X91720000Y-51920000D01*
X91500000Y-52030000D01*
X90500000Y-52560000D01*
X89700000Y-52980000D01*
X89060000Y-53310000D01*
X88720000Y-53480000D01*
X88450000Y-53610000D01*
X88450000Y-53520000D01*
X88470000Y-53330000D01*
X88540000Y-52800000D01*
X88700000Y-51790000D01*
X88870000Y-50800000D01*
X88980000Y-50180000D01*
X89020000Y-49970000D01*
X88790000Y-49740000D01*
X88330000Y-49300000D01*
X88080000Y-49050000D01*
X87630000Y-48610000D01*
X87330000Y-48320000D01*
X87070000Y-48070000D01*
X86880000Y-47880000D01*
X86680000Y-47670000D01*
X86490000Y-47480000D01*
X86420000Y-47390000D01*
X86510000Y-47360000D01*
X87010000Y-47250000D01*
X87910000Y-47100000D01*
X88780000Y-46970000D01*
X89960000Y-46780000D01*
X90090000Y-46750000D01*
X90790000Y-45330000D01*
X91250000Y-44350000D01*
X91590000Y-43700000D01*
X91710000Y-43490000D01*
G36*
X100470000Y-46590000D02*
G01*
X100970000Y-46920000D01*
X101550000Y-47300000D01*
X101950000Y-47580000D01*
X102270000Y-47770000D01*
X102540000Y-47870000D01*
X102770000Y-47880000D01*
X103010000Y-47820000D01*
X103420000Y-47660000D01*
X103740000Y-47530000D01*
X104070000Y-47400000D01*
X104300000Y-47310000D01*
X104580000Y-47200000D01*
X104830000Y-47110000D01*
X104910000Y-47100000D01*
X104920000Y-47100000D01*
X104900000Y-47220000D01*
X104860000Y-47420000D01*
X104520000Y-48700000D01*
X104310000Y-49460000D01*
X104310000Y-49490000D01*
X104490000Y-49710000D01*
X104830000Y-50120000D01*
X105010000Y-50320000D01*
X105310000Y-50690000D01*
X105570000Y-50990000D01*
X105830000Y-51300000D01*
X105930000Y-51410000D01*
X105780000Y-51440000D01*
X105460000Y-51490000D01*
X104900000Y-51530000D01*
X103420000Y-51550000D01*
X103300000Y-51750000D01*
X103100000Y-52080000D01*
X102850000Y-52500000D01*
X102750000Y-52660000D01*
X102590000Y-52910000D01*
X102400000Y-53210000D01*
X102290000Y-53380000D01*
X102120000Y-53620000D01*
X102050000Y-53700000D01*
X101990000Y-53590000D01*
X101870000Y-53310000D01*
X101560000Y-52530000D01*
X101350000Y-51970000D01*
X101130000Y-51380000D01*
X100490000Y-51230000D01*
X99790000Y-51060000D01*
X99120000Y-50900000D01*
X98630000Y-50760000D01*
X98690000Y-50720000D01*
X98750000Y-50670000D01*
X99340000Y-50200000D01*
X99980000Y-49690000D01*
X100610000Y-49160000D01*
X100580000Y-48630000D01*
X100540000Y-47900000D01*
X100510000Y-47230000D01*
X100470000Y-46590000D01*
G37*
X100470000Y-46590000D02*
X100970000Y-46920000D01*
X101550000Y-47300000D01*
X101950000Y-47580000D01*
X102270000Y-47770000D01*
X102540000Y-47870000D01*
X102770000Y-47880000D01*
X103010000Y-47820000D01*
X103420000Y-47660000D01*
X103740000Y-47530000D01*
X104070000Y-47400000D01*
X104300000Y-47310000D01*
X104580000Y-47200000D01*
X104830000Y-47110000D01*
X104910000Y-47100000D01*
X104920000Y-47100000D01*
X104900000Y-47220000D01*
X104860000Y-47420000D01*
X104520000Y-48700000D01*
X104310000Y-49460000D01*
X104310000Y-49490000D01*
X104490000Y-49710000D01*
X104830000Y-50120000D01*
X105010000Y-50320000D01*
X105310000Y-50690000D01*
X105570000Y-50990000D01*
X105830000Y-51300000D01*
X105930000Y-51410000D01*
X105780000Y-51440000D01*
X105460000Y-51490000D01*
X104900000Y-51530000D01*
X103420000Y-51550000D01*
X103300000Y-51750000D01*
X103100000Y-52080000D01*
X102850000Y-52500000D01*
X102750000Y-52660000D01*
X102590000Y-52910000D01*
X102400000Y-53210000D01*
X102290000Y-53380000D01*
X102120000Y-53620000D01*
X102050000Y-53700000D01*
X101990000Y-53590000D01*
X101870000Y-53310000D01*
X101560000Y-52530000D01*
X101350000Y-51970000D01*
X101130000Y-51380000D01*
X100490000Y-51230000D01*
X99790000Y-51060000D01*
X99120000Y-50900000D01*
X98630000Y-50760000D01*
X98690000Y-50720000D01*
X98750000Y-50670000D01*
X99340000Y-50200000D01*
X99980000Y-49690000D01*
X100610000Y-49160000D01*
X100580000Y-48630000D01*
X100540000Y-47900000D01*
X100510000Y-47230000D01*
X100470000Y-46590000D01*
G36*
X98290000Y-37400000D02*
G01*
X98360000Y-37600000D01*
X98440000Y-37920000D01*
X98610000Y-38720000D01*
X98680000Y-39130000D01*
X99070000Y-39280000D01*
X100360000Y-39800000D01*
X99490000Y-40300000D01*
X99250000Y-40450000D01*
X99030000Y-40590000D01*
X98950000Y-40650000D01*
X98830000Y-40780000D01*
X98780000Y-40910000D01*
X98780000Y-40960000D01*
X98770000Y-41190000D01*
X98750000Y-41500000D01*
X98730000Y-41700000D01*
X98710000Y-41910000D01*
X98680000Y-42130000D01*
X98630000Y-42360000D01*
X98590000Y-42450000D01*
X98500000Y-42380000D01*
X98200000Y-42120000D01*
X97560000Y-41520000D01*
X97330000Y-41300000D01*
X97280000Y-41310000D01*
X96970000Y-41390000D01*
X96530000Y-41500000D01*
X96210000Y-41580000D01*
X95870000Y-41650000D01*
X95700000Y-41650000D01*
X95650000Y-41570000D01*
X95700000Y-41400000D01*
X95930000Y-40880000D01*
X96050000Y-40600000D01*
X96160000Y-40310000D01*
X96190000Y-40090000D01*
X96150000Y-39900000D01*
X96040000Y-39670000D01*
X95860000Y-39370000D01*
X95670000Y-39060000D01*
X95550000Y-38860000D01*
X95400000Y-38620000D01*
X95420000Y-38610000D01*
X95570000Y-38590000D01*
X95880000Y-38590000D01*
X96200000Y-38610000D01*
X96550000Y-38640000D01*
X96880000Y-38660000D01*
X97170000Y-38680000D01*
X97240000Y-38610000D01*
X97430000Y-38380000D01*
X97780000Y-37960000D01*
X98030000Y-37660000D01*
X98210000Y-37470000D01*
X98290000Y-37400000D01*
G37*
X98290000Y-37400000D02*
X98360000Y-37600000D01*
X98440000Y-37920000D01*
X98610000Y-38720000D01*
X98680000Y-39130000D01*
X99070000Y-39280000D01*
X100360000Y-39800000D01*
X99490000Y-40300000D01*
X99250000Y-40450000D01*
X99030000Y-40590000D01*
X98950000Y-40650000D01*
X98830000Y-40780000D01*
X98780000Y-40910000D01*
X98780000Y-40960000D01*
X98770000Y-41190000D01*
X98750000Y-41500000D01*
X98730000Y-41700000D01*
X98710000Y-41910000D01*
X98680000Y-42130000D01*
X98630000Y-42360000D01*
X98590000Y-42450000D01*
X98500000Y-42380000D01*
X98200000Y-42120000D01*
X97560000Y-41520000D01*
X97330000Y-41300000D01*
X97280000Y-41310000D01*
X96970000Y-41390000D01*
X96530000Y-41500000D01*
X96210000Y-41580000D01*
X95870000Y-41650000D01*
X95700000Y-41650000D01*
X95650000Y-41570000D01*
X95700000Y-41400000D01*
X95930000Y-40880000D01*
X96050000Y-40600000D01*
X96160000Y-40310000D01*
X96190000Y-40090000D01*
X96150000Y-39900000D01*
X96040000Y-39670000D01*
X95860000Y-39370000D01*
X95670000Y-39060000D01*
X95550000Y-38860000D01*
X95400000Y-38620000D01*
X95420000Y-38610000D01*
X95570000Y-38590000D01*
X95880000Y-38590000D01*
X96200000Y-38610000D01*
X96550000Y-38640000D01*
X96880000Y-38660000D01*
X97170000Y-38680000D01*
X97240000Y-38610000D01*
X97430000Y-38380000D01*
X97780000Y-37960000D01*
X98030000Y-37660000D01*
X98210000Y-37470000D01*
X98290000Y-37400000D01*
G36*
X90420000Y-95210000D02*
G01*
X90590000Y-95160000D01*
X91200000Y-94980000D01*
X91730000Y-94840000D01*
X93020000Y-94500000D01*
X93640000Y-94350000D01*
X94310000Y-94190000D01*
X94740000Y-94120000D01*
X94790000Y-94150000D01*
X94820000Y-94220000D01*
X94850000Y-94370000D01*
X94880000Y-94630000D01*
X94890000Y-94960000D01*
X94910000Y-95460000D01*
X94920000Y-96050000D01*
X94930000Y-96720000D01*
X94940000Y-97340000D01*
X94930000Y-98030000D01*
X94930000Y-98290000D01*
X94890000Y-99010000D01*
X94880000Y-99210000D01*
X94820000Y-99700000D01*
X94730000Y-100190000D01*
X94640000Y-100490000D01*
X94480000Y-100950000D01*
X94180000Y-101470000D01*
X93770000Y-101860000D01*
X93290000Y-102100000D01*
X92780000Y-102190000D01*
X92400000Y-102160000D01*
X91950000Y-102060000D01*
X91750000Y-102000000D01*
X91250000Y-101690000D01*
X90850000Y-101250000D01*
X90510000Y-100660000D01*
X90240000Y-99960000D01*
X90070000Y-99130000D01*
X90000000Y-98250000D01*
X90040000Y-97290000D01*
X90130000Y-96590000D01*
X90210000Y-96140000D01*
X90280000Y-95700000D01*
X90350000Y-95400000D01*
X90420000Y-95210000D01*
G37*
X90420000Y-95210000D02*
X90590000Y-95160000D01*
X91200000Y-94980000D01*
X91730000Y-94840000D01*
X93020000Y-94500000D01*
X93640000Y-94350000D01*
X94310000Y-94190000D01*
X94740000Y-94120000D01*
X94790000Y-94150000D01*
X94820000Y-94220000D01*
X94850000Y-94370000D01*
X94880000Y-94630000D01*
X94890000Y-94960000D01*
X94910000Y-95460000D01*
X94920000Y-96050000D01*
X94930000Y-96720000D01*
X94940000Y-97340000D01*
X94930000Y-98030000D01*
X94930000Y-98290000D01*
X94890000Y-99010000D01*
X94880000Y-99210000D01*
X94820000Y-99700000D01*
X94730000Y-100190000D01*
X94640000Y-100490000D01*
X94480000Y-100950000D01*
X94180000Y-101470000D01*
X93770000Y-101860000D01*
X93290000Y-102100000D01*
X92780000Y-102190000D01*
X92400000Y-102160000D01*
X91950000Y-102060000D01*
X91750000Y-102000000D01*
X91250000Y-101690000D01*
X90850000Y-101250000D01*
X90510000Y-100660000D01*
X90240000Y-99960000D01*
X90070000Y-99130000D01*
X90000000Y-98250000D01*
X90040000Y-97290000D01*
X90130000Y-96590000D01*
X90210000Y-96140000D01*
X90280000Y-95700000D01*
X90350000Y-95400000D01*
X90420000Y-95210000D01*
G36*
X95540000Y-94070000D02*
G01*
X95780000Y-94000000D01*
X96230000Y-93990000D01*
X96770000Y-94030000D01*
X97690000Y-94140000D01*
X98660000Y-94360000D01*
X99400000Y-94540000D01*
X99560000Y-95070000D01*
X99660000Y-95370000D01*
X99730000Y-95610000D01*
X99930000Y-96550000D01*
X100060000Y-97590000D01*
X100050000Y-98700000D01*
X100010000Y-99380000D01*
X99960000Y-99800000D01*
X99900000Y-100050000D01*
X99750000Y-100390000D01*
X99420000Y-100920000D01*
X98970000Y-101370000D01*
X98540000Y-101620000D01*
X98400000Y-101720000D01*
X98000000Y-101860000D01*
X97500000Y-101960000D01*
X97040000Y-101940000D01*
X96700000Y-101730000D01*
X96380000Y-101390000D01*
X96090000Y-100950000D01*
X95880000Y-100540000D01*
X95540000Y-99720000D01*
X95520000Y-98650000D01*
X95500000Y-97410000D01*
X95470000Y-96100000D01*
X95470000Y-95200000D01*
X95470000Y-94660000D01*
X95500000Y-94120000D01*
X95540000Y-94070000D01*
G37*
X95540000Y-94070000D02*
X95780000Y-94000000D01*
X96230000Y-93990000D01*
X96770000Y-94030000D01*
X97690000Y-94140000D01*
X98660000Y-94360000D01*
X99400000Y-94540000D01*
X99560000Y-95070000D01*
X99660000Y-95370000D01*
X99730000Y-95610000D01*
X99930000Y-96550000D01*
X100060000Y-97590000D01*
X100050000Y-98700000D01*
X100010000Y-99380000D01*
X99960000Y-99800000D01*
X99900000Y-100050000D01*
X99750000Y-100390000D01*
X99420000Y-100920000D01*
X98970000Y-101370000D01*
X98540000Y-101620000D01*
X98400000Y-101720000D01*
X98000000Y-101860000D01*
X97500000Y-101960000D01*
X97040000Y-101940000D01*
X96700000Y-101730000D01*
X96380000Y-101390000D01*
X96090000Y-100950000D01*
X95880000Y-100540000D01*
X95540000Y-99720000D01*
X95520000Y-98650000D01*
X95500000Y-97410000D01*
X95470000Y-96100000D01*
X95470000Y-95200000D01*
X95470000Y-94660000D01*
X95500000Y-94120000D01*
X95540000Y-94070000D01*
D10*
X84106588Y-75230000D02*
G75*
G03X84106588Y-75230000I-4746588J0D01*
G01*
D12*
X100709820Y-158574200D02*
X108063120Y-158574200D01*
X100709820Y-167573420D02*
X100709820Y-158574200D01*
X108063120Y-167573420D02*
X100709820Y-167573420D01*
X108063120Y-158579280D02*
X108063120Y-167573420D01*
X105967620Y-154180000D02*
X85640000Y-154180000D01*
X106638180Y-154850560D02*
X105967620Y-154180000D01*
X106638180Y-171977780D02*
X106638180Y-154850560D01*
X85640000Y-171977780D02*
X106638180Y-171977780D01*
X85640000Y-154180000D02*
X85640000Y-171977780D01*
D13*
X104055000Y-166499000D02*
X106722000Y-166499000D01*
X106722000Y-166499000D02*
X106722000Y-168277000D01*
X104055000Y-168277000D02*
X106722000Y-168277000D01*
X104055000Y-166499000D02*
X104055000Y-168277000D01*
X99988460Y-166499000D02*
X102658000Y-166499000D01*
X102658000Y-166499000D02*
X102658000Y-168277000D01*
X99988460Y-168277000D02*
X102658000Y-168277000D01*
X99988460Y-166499000D02*
X99988460Y-168277000D01*
X99988460Y-157863000D02*
X102658000Y-157863000D01*
X102658000Y-157863000D02*
X102658000Y-159641000D01*
X99988460Y-159641000D02*
X102658000Y-159641000D01*
X99988460Y-157863000D02*
X99988460Y-159641000D01*
X104055000Y-157863000D02*
X106722000Y-157863000D01*
X106722000Y-157863000D02*
X106722000Y-159641000D01*
X104055000Y-159641000D02*
X106722000Y-159641000D01*
X104055000Y-157863000D02*
X104055000Y-159641000D01*
X86275000Y-160530000D02*
X88815000Y-160530000D01*
X88815000Y-160530000D02*
X88815000Y-166245000D01*
X86275000Y-166245000D02*
X88815000Y-166245000D01*
X86275000Y-160530000D02*
X86275000Y-166245000D01*
X103420000Y-160530000D02*
X105960000Y-160530000D01*
X105960000Y-160530000D02*
X105960000Y-165610000D01*
X103420000Y-165610000D02*
X105960000Y-165610000D01*
X103420000Y-160530000D02*
X103420000Y-165610000D01*
D10*
X113530000Y-77410000D02*
X113530000Y-76260000D01*
X106230000Y-77410000D02*
X113530000Y-77410000D01*
X106230000Y-71910000D02*
X113530000Y-71910000D01*
X82940000Y-77920000D02*
X82940000Y-76770000D01*
X75640000Y-77920000D02*
X82940000Y-77920000D01*
X75640000Y-72420000D02*
X82940000Y-72420000D01*
D14*
X94858095Y-179952380D02*
X94858095Y-180761904D01*
X94905714Y-180857142D01*
X94953333Y-180904761D01*
X95048571Y-180952380D01*
X95239047Y-180952380D01*
X95334285Y-180904761D01*
X95381904Y-180857142D01*
X95429523Y-180761904D01*
X95429523Y-179952380D01*
X95858095Y-180047619D02*
X95905714Y-180000000D01*
X96000952Y-179952380D01*
X96239047Y-179952380D01*
X96334285Y-180000000D01*
X96381904Y-180047619D01*
X96429523Y-180142857D01*
X96429523Y-180238095D01*
X96381904Y-180380952D01*
X95810476Y-180952380D01*
X96429523Y-180952380D01*
D11*
X86260476Y-175100000D02*
X86184285Y-175061904D01*
X86070000Y-175061904D01*
X85955714Y-175100000D01*
X85879523Y-175176190D01*
X85841428Y-175252380D01*
X85803333Y-175404761D01*
X85803333Y-175519047D01*
X85841428Y-175671428D01*
X85879523Y-175747619D01*
X85955714Y-175823809D01*
X86070000Y-175861904D01*
X86146190Y-175861904D01*
X86260476Y-175823809D01*
X86298571Y-175785714D01*
X86298571Y-175519047D01*
X86146190Y-175519047D01*
X86641428Y-175861904D02*
X86641428Y-175061904D01*
X87098571Y-175861904D01*
X87098571Y-175061904D01*
X87479523Y-175861904D02*
X87479523Y-175061904D01*
X87670000Y-175061904D01*
X87784285Y-175100000D01*
X87860476Y-175176190D01*
X87898571Y-175252380D01*
X87936666Y-175404761D01*
X87936666Y-175519047D01*
X87898571Y-175671428D01*
X87860476Y-175747619D01*
X87784285Y-175823809D01*
X87670000Y-175861904D01*
X87479523Y-175861904D01*
X88553333Y-175061904D02*
X88820000Y-175861904D01*
X89086666Y-175061904D01*
X89810476Y-175785714D02*
X89772380Y-175823809D01*
X89658095Y-175861904D01*
X89581904Y-175861904D01*
X89467619Y-175823809D01*
X89391428Y-175747619D01*
X89353333Y-175671428D01*
X89315238Y-175519047D01*
X89315238Y-175404761D01*
X89353333Y-175252380D01*
X89391428Y-175176190D01*
X89467619Y-175100000D01*
X89581904Y-175061904D01*
X89658095Y-175061904D01*
X89772380Y-175100000D01*
X89810476Y-175138095D01*
X90610476Y-175785714D02*
X90572380Y-175823809D01*
X90458095Y-175861904D01*
X90381904Y-175861904D01*
X90267619Y-175823809D01*
X90191428Y-175747619D01*
X90153333Y-175671428D01*
X90115238Y-175519047D01*
X90115238Y-175404761D01*
X90153333Y-175252380D01*
X90191428Y-175176190D01*
X90267619Y-175100000D01*
X90381904Y-175061904D01*
X90458095Y-175061904D01*
X90572380Y-175100000D01*
X90610476Y-175138095D01*
X91167619Y-175823809D02*
X91281904Y-175861904D01*
X91472380Y-175861904D01*
X91548571Y-175823809D01*
X91586666Y-175785714D01*
X91624761Y-175709523D01*
X91624761Y-175633333D01*
X91586666Y-175557142D01*
X91548571Y-175519047D01*
X91472380Y-175480952D01*
X91320000Y-175442857D01*
X91243809Y-175404761D01*
X91205714Y-175366666D01*
X91167619Y-175290476D01*
X91167619Y-175214285D01*
X91205714Y-175138095D01*
X91243809Y-175100000D01*
X91320000Y-175061904D01*
X91510476Y-175061904D01*
X91624761Y-175100000D01*
X92424761Y-175785714D02*
X92386666Y-175823809D01*
X92272380Y-175861904D01*
X92196190Y-175861904D01*
X92081904Y-175823809D01*
X92005714Y-175747619D01*
X91967619Y-175671428D01*
X91929523Y-175519047D01*
X91929523Y-175404761D01*
X91967619Y-175252380D01*
X92005714Y-175176190D01*
X92081904Y-175100000D01*
X92196190Y-175061904D01*
X92272380Y-175061904D01*
X92386666Y-175100000D01*
X92424761Y-175138095D01*
X93148571Y-175861904D02*
X92767619Y-175861904D01*
X92767619Y-175061904D01*
X93648571Y-175823809D02*
X93762857Y-175861904D01*
X93953333Y-175861904D01*
X94029523Y-175823809D01*
X94067619Y-175785714D01*
X94105714Y-175709523D01*
X94105714Y-175633333D01*
X94067619Y-175557142D01*
X94029523Y-175519047D01*
X93953333Y-175480952D01*
X93800952Y-175442857D01*
X93724761Y-175404761D01*
X93686666Y-175366666D01*
X93648571Y-175290476D01*
X93648571Y-175214285D01*
X93686666Y-175138095D01*
X93724761Y-175100000D01*
X93800952Y-175061904D01*
X93991428Y-175061904D01*
X94105714Y-175100000D01*
X94905714Y-175785714D02*
X94867619Y-175823809D01*
X94753333Y-175861904D01*
X94677142Y-175861904D01*
X94562857Y-175823809D01*
X94486666Y-175747619D01*
X94448571Y-175671428D01*
X94410476Y-175519047D01*
X94410476Y-175404761D01*
X94448571Y-175252380D01*
X94486666Y-175176190D01*
X94562857Y-175100000D01*
X94677142Y-175061904D01*
X94753333Y-175061904D01*
X94867619Y-175100000D01*
X94905714Y-175138095D01*
X95210476Y-175633333D02*
X95591428Y-175633333D01*
X95134285Y-175861904D02*
X95400952Y-175061904D01*
X95667619Y-175861904D01*
X96624761Y-175861904D02*
X96358095Y-175480952D01*
X96167619Y-175861904D02*
X96167619Y-175061904D01*
X96472380Y-175061904D01*
X96548571Y-175100000D01*
X96586666Y-175138095D01*
X96624761Y-175214285D01*
X96624761Y-175328571D01*
X96586666Y-175404761D01*
X96548571Y-175442857D01*
X96472380Y-175480952D01*
X96167619Y-175480952D01*
X96967619Y-175442857D02*
X97234285Y-175442857D01*
X97348571Y-175861904D02*
X96967619Y-175861904D01*
X96967619Y-175061904D01*
X97348571Y-175061904D01*
X97653333Y-175823809D02*
X97767619Y-175861904D01*
X97958095Y-175861904D01*
X98034285Y-175823809D01*
X98072380Y-175785714D01*
X98110476Y-175709523D01*
X98110476Y-175633333D01*
X98072380Y-175557142D01*
X98034285Y-175519047D01*
X97958095Y-175480952D01*
X97805714Y-175442857D01*
X97729523Y-175404761D01*
X97691428Y-175366666D01*
X97653333Y-175290476D01*
X97653333Y-175214285D01*
X97691428Y-175138095D01*
X97729523Y-175100000D01*
X97805714Y-175061904D01*
X97996190Y-175061904D01*
X98110476Y-175100000D01*
X99010476Y-175861904D02*
X99010476Y-175061904D01*
X99200952Y-175061904D01*
X99315238Y-175100000D01*
X99391428Y-175176190D01*
X99429523Y-175252380D01*
X99467619Y-175404761D01*
X99467619Y-175519047D01*
X99429523Y-175671428D01*
X99391428Y-175747619D01*
X99315238Y-175823809D01*
X99200952Y-175861904D01*
X99010476Y-175861904D01*
X100267619Y-175785714D02*
X100229523Y-175823809D01*
X100115238Y-175861904D01*
X100039047Y-175861904D01*
X99924761Y-175823809D01*
X99848571Y-175747619D01*
X99810476Y-175671428D01*
X99772380Y-175519047D01*
X99772380Y-175404761D01*
X99810476Y-175252380D01*
X99848571Y-175176190D01*
X99924761Y-175100000D01*
X100039047Y-175061904D01*
X100115238Y-175061904D01*
X100229523Y-175100000D01*
X100267619Y-175138095D01*
X101986666Y-175785714D02*
X101948571Y-175823809D01*
X101834285Y-175861904D01*
X101758095Y-175861904D01*
X101643809Y-175823809D01*
X101567619Y-175747619D01*
X101529523Y-175671428D01*
X101491428Y-175519047D01*
X101491428Y-175404761D01*
X101529523Y-175252380D01*
X101567619Y-175176190D01*
X101643809Y-175100000D01*
X101758095Y-175061904D01*
X101834285Y-175061904D01*
X101948571Y-175100000D01*
X101986666Y-175138095D01*
X102291428Y-175823809D02*
X102405714Y-175861904D01*
X102596190Y-175861904D01*
X102672380Y-175823809D01*
X102710476Y-175785714D01*
X102748571Y-175709523D01*
X102748571Y-175633333D01*
X102710476Y-175557142D01*
X102672380Y-175519047D01*
X102596190Y-175480952D01*
X102443809Y-175442857D01*
X102367619Y-175404761D01*
X102329523Y-175366666D01*
X102291428Y-175290476D01*
X102291428Y-175214285D01*
X102329523Y-175138095D01*
X102367619Y-175100000D01*
X102443809Y-175061904D01*
X102634285Y-175061904D01*
X102748571Y-175100000D01*
X104277142Y-175442857D02*
X104391428Y-175480952D01*
X104429523Y-175519047D01*
X104467619Y-175595238D01*
X104467619Y-175709523D01*
X104429523Y-175785714D01*
X104391428Y-175823809D01*
X104315238Y-175861904D01*
X104010476Y-175861904D01*
X104010476Y-175061904D01*
X104277142Y-175061904D01*
X104353333Y-175100000D01*
X104391428Y-175138095D01*
X104429523Y-175214285D01*
X104429523Y-175290476D01*
X104391428Y-175366666D01*
X104353333Y-175404761D01*
X104277142Y-175442857D01*
X104010476Y-175442857D01*
X104810476Y-175861904D02*
X104810476Y-175061904D01*
X105267619Y-175861904D02*
X104924761Y-175404761D01*
X105267619Y-175061904D02*
X104810476Y-175519047D01*
D14*
X93156666Y-30192380D02*
X92823333Y-29716190D01*
X92585238Y-30192380D02*
X92585238Y-29192380D01*
X92966190Y-29192380D01*
X93061428Y-29240000D01*
X93109047Y-29287619D01*
X93156666Y-29382857D01*
X93156666Y-29525714D01*
X93109047Y-29620952D01*
X93061428Y-29668571D01*
X92966190Y-29716190D01*
X92585238Y-29716190D01*
X93585238Y-29668571D02*
X93918571Y-29668571D01*
X94061428Y-30192380D02*
X93585238Y-30192380D01*
X93585238Y-29192380D01*
X94061428Y-29192380D01*
X94823333Y-29668571D02*
X94490000Y-29668571D01*
X94490000Y-30192380D02*
X94490000Y-29192380D01*
X94966190Y-29192380D01*
X95490000Y-29192380D02*
X95490000Y-29430476D01*
X95251904Y-29335238D02*
X95490000Y-29430476D01*
X95728095Y-29335238D01*
X95347142Y-29620952D02*
X95490000Y-29430476D01*
X95632857Y-29620952D01*
X96251904Y-29192380D02*
X96251904Y-29430476D01*
X96013809Y-29335238D02*
X96251904Y-29430476D01*
X96490000Y-29335238D01*
X96109047Y-29620952D02*
X96251904Y-29430476D01*
X96394761Y-29620952D01*
D15*
X106933666Y-164191833D02*
X107653333Y-164191833D01*
X107738000Y-164149500D01*
X107780333Y-164107166D01*
X107822666Y-164022500D01*
X107822666Y-163853166D01*
X107780333Y-163768500D01*
X107738000Y-163726166D01*
X107653333Y-163683833D01*
X106933666Y-163683833D01*
X107822666Y-162794833D02*
X107822666Y-163302833D01*
X107822666Y-163048833D02*
X106933666Y-163048833D01*
X107060666Y-163133500D01*
X107145333Y-163218166D01*
X107187666Y-163302833D01*
D16*
X96681742Y-166292171D02*
X96710771Y-166205085D01*
X96710771Y-166059942D01*
X96681742Y-166001885D01*
X96652714Y-165972857D01*
X96594657Y-165943828D01*
X96536600Y-165943828D01*
X96478542Y-165972857D01*
X96449514Y-166001885D01*
X96420485Y-166059942D01*
X96391457Y-166176057D01*
X96362428Y-166234114D01*
X96333400Y-166263142D01*
X96275342Y-166292171D01*
X96217285Y-166292171D01*
X96159228Y-166263142D01*
X96130200Y-166234114D01*
X96101171Y-166176057D01*
X96101171Y-166030914D01*
X96130200Y-165943828D01*
X96681742Y-165450342D02*
X96710771Y-165508400D01*
X96710771Y-165624514D01*
X96681742Y-165682571D01*
X96623685Y-165711600D01*
X96391457Y-165711600D01*
X96333400Y-165682571D01*
X96304371Y-165624514D01*
X96304371Y-165508400D01*
X96333400Y-165450342D01*
X96391457Y-165421314D01*
X96449514Y-165421314D01*
X96507571Y-165711600D01*
X96681742Y-164927828D02*
X96710771Y-164985885D01*
X96710771Y-165102000D01*
X96681742Y-165160057D01*
X96623685Y-165189085D01*
X96391457Y-165189085D01*
X96333400Y-165160057D01*
X96304371Y-165102000D01*
X96304371Y-164985885D01*
X96333400Y-164927828D01*
X96391457Y-164898800D01*
X96449514Y-164898800D01*
X96507571Y-165189085D01*
X96681742Y-164405314D02*
X96710771Y-164463371D01*
X96710771Y-164579485D01*
X96681742Y-164637542D01*
X96623685Y-164666571D01*
X96391457Y-164666571D01*
X96333400Y-164637542D01*
X96304371Y-164579485D01*
X96304371Y-164463371D01*
X96333400Y-164405314D01*
X96391457Y-164376285D01*
X96449514Y-164376285D01*
X96507571Y-164666571D01*
X96710771Y-163853771D02*
X96101171Y-163853771D01*
X96681742Y-163853771D02*
X96710771Y-163911828D01*
X96710771Y-164027942D01*
X96681742Y-164086000D01*
X96652714Y-164115028D01*
X96594657Y-164144057D01*
X96420485Y-164144057D01*
X96362428Y-164115028D01*
X96333400Y-164086000D01*
X96304371Y-164027942D01*
X96304371Y-163911828D01*
X96333400Y-163853771D01*
X96304371Y-163302228D02*
X96710771Y-163302228D01*
X96304371Y-163563485D02*
X96623685Y-163563485D01*
X96681742Y-163534457D01*
X96710771Y-163476400D01*
X96710771Y-163389314D01*
X96681742Y-163331257D01*
X96652714Y-163302228D01*
X96710771Y-163011942D02*
X96304371Y-163011942D01*
X96101171Y-163011942D02*
X96130200Y-163040971D01*
X96159228Y-163011942D01*
X96130200Y-162982914D01*
X96101171Y-163011942D01*
X96159228Y-163011942D01*
X96304371Y-162721657D02*
X96710771Y-162721657D01*
X96362428Y-162721657D02*
X96333400Y-162692628D01*
X96304371Y-162634571D01*
X96304371Y-162547485D01*
X96333400Y-162489428D01*
X96391457Y-162460400D01*
X96710771Y-162460400D01*
X96710771Y-162083028D02*
X96681742Y-162141085D01*
X96652714Y-162170114D01*
X96594657Y-162199142D01*
X96420485Y-162199142D01*
X96362428Y-162170114D01*
X96333400Y-162141085D01*
X96304371Y-162083028D01*
X96304371Y-161995942D01*
X96333400Y-161937885D01*
X96362428Y-161908857D01*
X96420485Y-161879828D01*
X96594657Y-161879828D01*
X96652714Y-161908857D01*
X96681742Y-161937885D01*
X96710771Y-161995942D01*
X96710771Y-162083028D01*
X96101171Y-161676628D02*
X96710771Y-161270228D01*
X96101171Y-161270228D02*
X96710771Y-161676628D01*
X96710771Y-161038000D02*
X96101171Y-161038000D01*
X96536600Y-160776742D02*
X96536600Y-160486457D01*
X96710771Y-160834800D02*
X96101171Y-160631600D01*
X96710771Y-160428400D01*
X96101171Y-160109085D02*
X96101171Y-159992971D01*
X96130200Y-159934914D01*
X96188257Y-159876857D01*
X96304371Y-159847828D01*
X96507571Y-159847828D01*
X96623685Y-159876857D01*
X96681742Y-159934914D01*
X96710771Y-159992971D01*
X96710771Y-160109085D01*
X96681742Y-160167142D01*
X96623685Y-160225200D01*
X96507571Y-160254228D01*
X96304371Y-160254228D01*
X96188257Y-160225200D01*
X96130200Y-160167142D01*
X96101171Y-160109085D01*
D14*
X109141904Y-71612380D02*
X109141904Y-70612380D01*
X109380000Y-70612380D01*
X109522857Y-70660000D01*
X109618095Y-70755238D01*
X109665714Y-70850476D01*
X109713333Y-71040952D01*
X109713333Y-71183809D01*
X109665714Y-71374285D01*
X109618095Y-71469523D01*
X109522857Y-71564761D01*
X109380000Y-71612380D01*
X109141904Y-71612380D01*
X110094285Y-70707619D02*
X110141904Y-70660000D01*
X110237142Y-70612380D01*
X110475238Y-70612380D01*
X110570476Y-70660000D01*
X110618095Y-70707619D01*
X110665714Y-70802857D01*
X110665714Y-70898095D01*
X110618095Y-71040952D01*
X110046666Y-71612380D01*
X110665714Y-71612380D01*
X106015714Y-73512380D02*
X105444285Y-73512380D01*
X105730000Y-73512380D02*
X105730000Y-72512380D01*
X105634761Y-72655238D01*
X105539523Y-72750476D01*
X105444285Y-72798095D01*
X78551904Y-72122380D02*
X78551904Y-71122380D01*
X78790000Y-71122380D01*
X78932857Y-71170000D01*
X79028095Y-71265238D01*
X79075714Y-71360476D01*
X79123333Y-71550952D01*
X79123333Y-71693809D01*
X79075714Y-71884285D01*
X79028095Y-71979523D01*
X78932857Y-72074761D01*
X78790000Y-72122380D01*
X78551904Y-72122380D01*
X80075714Y-72122380D02*
X79504285Y-72122380D01*
X79790000Y-72122380D02*
X79790000Y-71122380D01*
X79694761Y-71265238D01*
X79599523Y-71360476D01*
X79504285Y-71408095D01*
X75425714Y-74022380D02*
X74854285Y-74022380D01*
X75140000Y-74022380D02*
X75140000Y-73022380D01*
X75044761Y-73165238D01*
X74949523Y-73260476D01*
X74854285Y-73308095D01*
M02*
