G04 #@! TF.GenerationSoftware,KiCad,Pcbnew,(5.1.2)-1*
G04 #@! TF.CreationDate,2023-11-23T12:08:04+09:00*
G04 #@! TF.ProjectId,gopher_party_xiao_v2,676f7068-6572-45f7-9061-7274795f7869,rev?*
G04 #@! TF.SameCoordinates,Original*
G04 #@! TF.FileFunction,Copper,L2,Bot*
G04 #@! TF.FilePolarity,Positive*
%FSLAX46Y46*%
G04 Gerber Fmt 4.6, Leading zero omitted, Abs format (unit mm)*
G04 Created by KiCad (PCBNEW (5.1.2)-1) date 2023-11-23 12:08:04*
%MOMM*%
%LPD*%
G04 APERTURE LIST*
%ADD10C,1.524000*%
%ADD11C,1.879600*%
%ADD12C,0.100000*%
%ADD13C,0.975000*%
%ADD14C,0.600000*%
%ADD15C,0.400000*%
%ADD16C,0.250000*%
%ADD17C,0.254000*%
G04 APERTURE END LIST*
D10*
X86920000Y-173800000D03*
X89460000Y-173800000D03*
X92000000Y-173800000D03*
X94540000Y-173800000D03*
X97080000Y-173800000D03*
X99620000Y-173800000D03*
X102160000Y-173800000D03*
X104700000Y-173800000D03*
D11*
X103750000Y-170850000D03*
X101220000Y-170850000D03*
X98680000Y-170850000D03*
X96130000Y-170840000D03*
X93600000Y-170840000D03*
X91050000Y-170850000D03*
X88510000Y-170850000D03*
X88510000Y-155350000D03*
X91060000Y-155350000D03*
X93590000Y-155350000D03*
X96120000Y-155350000D03*
X98680000Y-155350000D03*
X101210000Y-155350000D03*
X103750000Y-155340000D03*
D12*
G36*
X87640142Y-127056174D02*
G01*
X87663803Y-127059684D01*
X87687007Y-127065496D01*
X87709529Y-127073554D01*
X87731153Y-127083782D01*
X87751670Y-127096079D01*
X87770883Y-127110329D01*
X87788607Y-127126393D01*
X87804671Y-127144117D01*
X87818921Y-127163330D01*
X87831218Y-127183847D01*
X87841446Y-127205471D01*
X87849504Y-127227993D01*
X87855316Y-127251197D01*
X87858826Y-127274858D01*
X87860000Y-127298750D01*
X87860000Y-127786250D01*
X87858826Y-127810142D01*
X87855316Y-127833803D01*
X87849504Y-127857007D01*
X87841446Y-127879529D01*
X87831218Y-127901153D01*
X87818921Y-127921670D01*
X87804671Y-127940883D01*
X87788607Y-127958607D01*
X87770883Y-127974671D01*
X87751670Y-127988921D01*
X87731153Y-128001218D01*
X87709529Y-128011446D01*
X87687007Y-128019504D01*
X87663803Y-128025316D01*
X87640142Y-128028826D01*
X87616250Y-128030000D01*
X86703750Y-128030000D01*
X86679858Y-128028826D01*
X86656197Y-128025316D01*
X86632993Y-128019504D01*
X86610471Y-128011446D01*
X86588847Y-128001218D01*
X86568330Y-127988921D01*
X86549117Y-127974671D01*
X86531393Y-127958607D01*
X86515329Y-127940883D01*
X86501079Y-127921670D01*
X86488782Y-127901153D01*
X86478554Y-127879529D01*
X86470496Y-127857007D01*
X86464684Y-127833803D01*
X86461174Y-127810142D01*
X86460000Y-127786250D01*
X86460000Y-127298750D01*
X86461174Y-127274858D01*
X86464684Y-127251197D01*
X86470496Y-127227993D01*
X86478554Y-127205471D01*
X86488782Y-127183847D01*
X86501079Y-127163330D01*
X86515329Y-127144117D01*
X86531393Y-127126393D01*
X86549117Y-127110329D01*
X86568330Y-127096079D01*
X86588847Y-127083782D01*
X86610471Y-127073554D01*
X86632993Y-127065496D01*
X86656197Y-127059684D01*
X86679858Y-127056174D01*
X86703750Y-127055000D01*
X87616250Y-127055000D01*
X87640142Y-127056174D01*
X87640142Y-127056174D01*
G37*
D13*
X87160000Y-127542500D03*
D12*
G36*
X87640142Y-128931174D02*
G01*
X87663803Y-128934684D01*
X87687007Y-128940496D01*
X87709529Y-128948554D01*
X87731153Y-128958782D01*
X87751670Y-128971079D01*
X87770883Y-128985329D01*
X87788607Y-129001393D01*
X87804671Y-129019117D01*
X87818921Y-129038330D01*
X87831218Y-129058847D01*
X87841446Y-129080471D01*
X87849504Y-129102993D01*
X87855316Y-129126197D01*
X87858826Y-129149858D01*
X87860000Y-129173750D01*
X87860000Y-129661250D01*
X87858826Y-129685142D01*
X87855316Y-129708803D01*
X87849504Y-129732007D01*
X87841446Y-129754529D01*
X87831218Y-129776153D01*
X87818921Y-129796670D01*
X87804671Y-129815883D01*
X87788607Y-129833607D01*
X87770883Y-129849671D01*
X87751670Y-129863921D01*
X87731153Y-129876218D01*
X87709529Y-129886446D01*
X87687007Y-129894504D01*
X87663803Y-129900316D01*
X87640142Y-129903826D01*
X87616250Y-129905000D01*
X86703750Y-129905000D01*
X86679858Y-129903826D01*
X86656197Y-129900316D01*
X86632993Y-129894504D01*
X86610471Y-129886446D01*
X86588847Y-129876218D01*
X86568330Y-129863921D01*
X86549117Y-129849671D01*
X86531393Y-129833607D01*
X86515329Y-129815883D01*
X86501079Y-129796670D01*
X86488782Y-129776153D01*
X86478554Y-129754529D01*
X86470496Y-129732007D01*
X86464684Y-129708803D01*
X86461174Y-129685142D01*
X86460000Y-129661250D01*
X86460000Y-129173750D01*
X86461174Y-129149858D01*
X86464684Y-129126197D01*
X86470496Y-129102993D01*
X86478554Y-129080471D01*
X86488782Y-129058847D01*
X86501079Y-129038330D01*
X86515329Y-129019117D01*
X86531393Y-129001393D01*
X86549117Y-128985329D01*
X86568330Y-128971079D01*
X86588847Y-128958782D01*
X86610471Y-128948554D01*
X86632993Y-128940496D01*
X86656197Y-128934684D01*
X86679858Y-128931174D01*
X86703750Y-128930000D01*
X87616250Y-128930000D01*
X87640142Y-128931174D01*
X87640142Y-128931174D01*
G37*
D13*
X87160000Y-129417500D03*
D14*
X75610000Y-75210000D03*
X80590000Y-72070000D03*
X107440000Y-71410000D03*
X82170000Y-75570000D03*
X109860000Y-76200000D03*
X101900000Y-166270000D03*
X80290000Y-74790000D03*
X112470000Y-74780000D03*
X79320000Y-73530000D03*
X99100000Y-167100000D03*
X97400000Y-169200000D03*
X98700000Y-165800000D03*
D15*
X103750000Y-169520923D02*
X103750000Y-170850000D01*
X102409077Y-168180000D02*
X103750000Y-169520923D01*
X82410000Y-168180000D02*
X102409077Y-168180000D01*
X74100000Y-159870000D02*
X82410000Y-168180000D01*
X75610000Y-75210000D02*
X74100000Y-76720000D01*
X74100000Y-76720000D02*
X74100000Y-159870000D01*
X80590000Y-72070000D02*
X81250000Y-71410000D01*
X81250000Y-71410000D02*
X107440000Y-71410000D01*
D16*
X109860000Y-77310000D02*
X109860000Y-76200000D01*
X109260000Y-77910000D02*
X109860000Y-77310000D01*
X86290000Y-77910000D02*
X109260000Y-77910000D01*
X82170000Y-75570000D02*
X83950000Y-75570000D01*
X83950000Y-75570000D02*
X86290000Y-77910000D01*
X109260000Y-77910000D02*
X109260000Y-163280000D01*
X109260000Y-163280000D02*
X106270000Y-166270000D01*
X106270000Y-166270000D02*
X101900000Y-166270000D01*
X80290000Y-74790000D02*
X112460000Y-74790000D01*
X112460000Y-74790000D02*
X112470000Y-74780000D01*
X87160000Y-127542500D02*
X87160000Y-124730000D01*
X87160000Y-124730000D02*
X79320000Y-116890000D01*
X79320000Y-116890000D02*
X79320000Y-73530000D01*
X87160000Y-148920000D02*
X93590000Y-155350000D01*
X87160000Y-129417500D02*
X87160000Y-148920000D01*
X94540000Y-172430000D02*
X94540000Y-173800000D01*
X96130000Y-170840000D02*
X94540000Y-172430000D01*
X92000000Y-171800000D02*
X92000000Y-173800000D01*
X91050000Y-170850000D02*
X92000000Y-171800000D01*
X96120000Y-155350000D02*
X96120000Y-165720000D01*
X96120000Y-165720000D02*
X97500000Y-167100000D01*
X97500000Y-167100000D02*
X99100000Y-167100000D01*
X98858001Y-173038001D02*
X98538001Y-173038001D01*
X99620000Y-173800000D02*
X98858001Y-173038001D01*
X98538001Y-173038001D02*
X97400000Y-171900000D01*
X97400000Y-171900000D02*
X97400000Y-169200000D01*
X98700000Y-155370000D02*
X98680000Y-155350000D01*
X98700000Y-165800000D02*
X98700000Y-155370000D01*
D17*
G36*
X96465000Y-169107911D02*
G01*
X96465000Y-169292089D01*
X96466842Y-169301350D01*
X96285104Y-169265200D01*
X95974896Y-169265200D01*
X95670648Y-169325718D01*
X95384052Y-169444430D01*
X95126123Y-169616773D01*
X94906773Y-169836123D01*
X94865000Y-169898641D01*
X94823227Y-169836123D01*
X94603877Y-169616773D01*
X94345948Y-169444430D01*
X94059352Y-169325718D01*
X93755104Y-169265200D01*
X93444896Y-169265200D01*
X93140648Y-169325718D01*
X92854052Y-169444430D01*
X92596123Y-169616773D01*
X92376773Y-169836123D01*
X92321659Y-169918607D01*
X92273227Y-169846123D01*
X92053877Y-169626773D01*
X91795948Y-169454430D01*
X91509352Y-169335718D01*
X91205104Y-169275200D01*
X90894896Y-169275200D01*
X90590648Y-169335718D01*
X90304052Y-169454430D01*
X90046123Y-169626773D01*
X89826773Y-169846123D01*
X89780000Y-169916124D01*
X89733227Y-169846123D01*
X89513877Y-169626773D01*
X89255948Y-169454430D01*
X88969352Y-169335718D01*
X88665104Y-169275200D01*
X88354896Y-169275200D01*
X88050648Y-169335718D01*
X87764052Y-169454430D01*
X87506123Y-169626773D01*
X87286773Y-169846123D01*
X87114430Y-170104052D01*
X86995718Y-170390648D01*
X86935200Y-170694896D01*
X86935200Y-171005104D01*
X86995718Y-171309352D01*
X87114430Y-171595948D01*
X87286773Y-171853877D01*
X87305111Y-171872215D01*
X85786858Y-171872939D01*
X85783650Y-169015000D01*
X96483481Y-169015000D01*
X96465000Y-169107911D01*
X96465000Y-169107911D01*
G37*
X96465000Y-169107911D02*
X96465000Y-169292089D01*
X96466842Y-169301350D01*
X96285104Y-169265200D01*
X95974896Y-169265200D01*
X95670648Y-169325718D01*
X95384052Y-169444430D01*
X95126123Y-169616773D01*
X94906773Y-169836123D01*
X94865000Y-169898641D01*
X94823227Y-169836123D01*
X94603877Y-169616773D01*
X94345948Y-169444430D01*
X94059352Y-169325718D01*
X93755104Y-169265200D01*
X93444896Y-169265200D01*
X93140648Y-169325718D01*
X92854052Y-169444430D01*
X92596123Y-169616773D01*
X92376773Y-169836123D01*
X92321659Y-169918607D01*
X92273227Y-169846123D01*
X92053877Y-169626773D01*
X91795948Y-169454430D01*
X91509352Y-169335718D01*
X91205104Y-169275200D01*
X90894896Y-169275200D01*
X90590648Y-169335718D01*
X90304052Y-169454430D01*
X90046123Y-169626773D01*
X89826773Y-169846123D01*
X89780000Y-169916124D01*
X89733227Y-169846123D01*
X89513877Y-169626773D01*
X89255948Y-169454430D01*
X88969352Y-169335718D01*
X88665104Y-169275200D01*
X88354896Y-169275200D01*
X88050648Y-169335718D01*
X87764052Y-169454430D01*
X87506123Y-169626773D01*
X87286773Y-169846123D01*
X87114430Y-170104052D01*
X86995718Y-170390648D01*
X86935200Y-170694896D01*
X86935200Y-171005104D01*
X86995718Y-171309352D01*
X87114430Y-171595948D01*
X87286773Y-171853877D01*
X87305111Y-171872215D01*
X85786858Y-171872939D01*
X85783650Y-169015000D01*
X96483481Y-169015000D01*
X96465000Y-169107911D01*
G36*
X89826773Y-171853877D02*
G01*
X89843900Y-171871004D01*
X89716039Y-171871065D01*
X89733227Y-171853877D01*
X89780000Y-171783876D01*
X89826773Y-171853877D01*
X89826773Y-171853877D01*
G37*
X89826773Y-171853877D02*
X89843900Y-171871004D01*
X89716039Y-171871065D01*
X89733227Y-171853877D01*
X89780000Y-171783876D01*
X89826773Y-171853877D01*
G36*
X99996773Y-171853877D02*
G01*
X100009053Y-171866157D01*
X99890890Y-171866214D01*
X99903227Y-171853877D01*
X99950000Y-171783876D01*
X99996773Y-171853877D01*
X99996773Y-171853877D01*
G37*
X99996773Y-171853877D02*
X100009053Y-171866157D01*
X99890890Y-171866214D01*
X99903227Y-171853877D01*
X99950000Y-171783876D01*
X99996773Y-171853877D01*
G36*
X102526773Y-171853877D02*
G01*
X102537848Y-171864952D01*
X102432102Y-171865002D01*
X102443227Y-171853877D01*
X102485000Y-171791359D01*
X102526773Y-171853877D01*
X102526773Y-171853877D01*
G37*
X102526773Y-171853877D02*
X102537848Y-171864952D01*
X102432102Y-171865002D01*
X102443227Y-171853877D01*
X102485000Y-171791359D01*
X102526773Y-171853877D01*
G36*
X106491182Y-164974017D02*
G01*
X105955199Y-165510000D01*
X102445535Y-165510000D01*
X102342889Y-165441414D01*
X102172729Y-165370932D01*
X101992089Y-165335000D01*
X101807911Y-165335000D01*
X101627271Y-165370932D01*
X101457111Y-165441414D01*
X101303972Y-165543738D01*
X101173738Y-165673972D01*
X101071414Y-165827111D01*
X101000932Y-165997271D01*
X100965000Y-166177911D01*
X100965000Y-166362089D01*
X101000932Y-166542729D01*
X101071414Y-166712889D01*
X101173738Y-166866028D01*
X101303972Y-166996262D01*
X101457111Y-167098586D01*
X101627271Y-167169068D01*
X101807911Y-167205000D01*
X101992089Y-167205000D01*
X102172729Y-167169068D01*
X102342889Y-167098586D01*
X102445535Y-167030000D01*
X106232678Y-167030000D01*
X106270000Y-167033676D01*
X106307322Y-167030000D01*
X106307333Y-167030000D01*
X106418986Y-167019003D01*
X106494588Y-166996070D01*
X106502786Y-171863061D01*
X104963309Y-171863795D01*
X104973227Y-171853877D01*
X105145570Y-171595948D01*
X105264282Y-171309352D01*
X105324800Y-171005104D01*
X105324800Y-170694896D01*
X105264282Y-170390648D01*
X105145570Y-170104052D01*
X104973227Y-169846123D01*
X104753877Y-169626773D01*
X104588587Y-169516329D01*
X104585000Y-169479914D01*
X104585000Y-169479904D01*
X104572918Y-169357234D01*
X104525172Y-169199836D01*
X104447636Y-169054777D01*
X104343291Y-168927632D01*
X104311428Y-168901483D01*
X103028523Y-167618579D01*
X103002368Y-167586709D01*
X102875223Y-167482364D01*
X102730164Y-167404828D01*
X102572766Y-167357082D01*
X102450096Y-167345000D01*
X102450095Y-167345000D01*
X102409077Y-167340960D01*
X102368059Y-167345000D01*
X100004584Y-167345000D01*
X100035000Y-167192089D01*
X100035000Y-167007911D01*
X99999068Y-166827271D01*
X99928586Y-166657111D01*
X99826262Y-166503972D01*
X99696028Y-166373738D01*
X99542889Y-166271414D01*
X99516758Y-166260590D01*
X99528586Y-166242889D01*
X99599068Y-166072729D01*
X99635000Y-165892089D01*
X99635000Y-165707911D01*
X99599068Y-165527271D01*
X99528586Y-165357111D01*
X99460000Y-165254465D01*
X99460000Y-156722817D01*
X99683877Y-156573227D01*
X99903227Y-156353877D01*
X99945000Y-156291359D01*
X99986773Y-156353877D01*
X100206123Y-156573227D01*
X100464052Y-156745570D01*
X100750648Y-156864282D01*
X101054896Y-156924800D01*
X101365104Y-156924800D01*
X101669352Y-156864282D01*
X101955948Y-156745570D01*
X102213877Y-156573227D01*
X102433227Y-156353877D01*
X102483341Y-156278876D01*
X102526773Y-156343877D01*
X102746123Y-156563227D01*
X103004052Y-156735570D01*
X103290648Y-156854282D01*
X103594896Y-156914800D01*
X103905104Y-156914800D01*
X104209352Y-156854282D01*
X104495948Y-156735570D01*
X104753877Y-156563227D01*
X104973227Y-156343877D01*
X105145570Y-156085948D01*
X105264282Y-155799352D01*
X105324800Y-155495104D01*
X105324800Y-155184896D01*
X105264282Y-154880648D01*
X105145570Y-154594052D01*
X104973227Y-154336123D01*
X104944104Y-154307000D01*
X106473214Y-154307000D01*
X106491182Y-164974017D01*
X106491182Y-164974017D01*
G37*
X106491182Y-164974017D02*
X105955199Y-165510000D01*
X102445535Y-165510000D01*
X102342889Y-165441414D01*
X102172729Y-165370932D01*
X101992089Y-165335000D01*
X101807911Y-165335000D01*
X101627271Y-165370932D01*
X101457111Y-165441414D01*
X101303972Y-165543738D01*
X101173738Y-165673972D01*
X101071414Y-165827111D01*
X101000932Y-165997271D01*
X100965000Y-166177911D01*
X100965000Y-166362089D01*
X101000932Y-166542729D01*
X101071414Y-166712889D01*
X101173738Y-166866028D01*
X101303972Y-166996262D01*
X101457111Y-167098586D01*
X101627271Y-167169068D01*
X101807911Y-167205000D01*
X101992089Y-167205000D01*
X102172729Y-167169068D01*
X102342889Y-167098586D01*
X102445535Y-167030000D01*
X106232678Y-167030000D01*
X106270000Y-167033676D01*
X106307322Y-167030000D01*
X106307333Y-167030000D01*
X106418986Y-167019003D01*
X106494588Y-166996070D01*
X106502786Y-171863061D01*
X104963309Y-171863795D01*
X104973227Y-171853877D01*
X105145570Y-171595948D01*
X105264282Y-171309352D01*
X105324800Y-171005104D01*
X105324800Y-170694896D01*
X105264282Y-170390648D01*
X105145570Y-170104052D01*
X104973227Y-169846123D01*
X104753877Y-169626773D01*
X104588587Y-169516329D01*
X104585000Y-169479914D01*
X104585000Y-169479904D01*
X104572918Y-169357234D01*
X104525172Y-169199836D01*
X104447636Y-169054777D01*
X104343291Y-168927632D01*
X104311428Y-168901483D01*
X103028523Y-167618579D01*
X103002368Y-167586709D01*
X102875223Y-167482364D01*
X102730164Y-167404828D01*
X102572766Y-167357082D01*
X102450096Y-167345000D01*
X102450095Y-167345000D01*
X102409077Y-167340960D01*
X102368059Y-167345000D01*
X100004584Y-167345000D01*
X100035000Y-167192089D01*
X100035000Y-167007911D01*
X99999068Y-166827271D01*
X99928586Y-166657111D01*
X99826262Y-166503972D01*
X99696028Y-166373738D01*
X99542889Y-166271414D01*
X99516758Y-166260590D01*
X99528586Y-166242889D01*
X99599068Y-166072729D01*
X99635000Y-165892089D01*
X99635000Y-165707911D01*
X99599068Y-165527271D01*
X99528586Y-165357111D01*
X99460000Y-165254465D01*
X99460000Y-156722817D01*
X99683877Y-156573227D01*
X99903227Y-156353877D01*
X99945000Y-156291359D01*
X99986773Y-156353877D01*
X100206123Y-156573227D01*
X100464052Y-156745570D01*
X100750648Y-156864282D01*
X101054896Y-156924800D01*
X101365104Y-156924800D01*
X101669352Y-156864282D01*
X101955948Y-156745570D01*
X102213877Y-156573227D01*
X102433227Y-156353877D01*
X102483341Y-156278876D01*
X102526773Y-156343877D01*
X102746123Y-156563227D01*
X103004052Y-156735570D01*
X103290648Y-156854282D01*
X103594896Y-156914800D01*
X103905104Y-156914800D01*
X104209352Y-156854282D01*
X104495948Y-156735570D01*
X104753877Y-156563227D01*
X104973227Y-156343877D01*
X105145570Y-156085948D01*
X105264282Y-155799352D01*
X105324800Y-155495104D01*
X105324800Y-155184896D01*
X105264282Y-154880648D01*
X105145570Y-154594052D01*
X104973227Y-154336123D01*
X104944104Y-154307000D01*
X106473214Y-154307000D01*
X106491182Y-164974017D01*
G36*
X102710553Y-169662343D02*
G01*
X102526773Y-169846123D01*
X102485000Y-169908641D01*
X102443227Y-169846123D01*
X102223877Y-169626773D01*
X101965948Y-169454430D01*
X101679352Y-169335718D01*
X101375104Y-169275200D01*
X101064896Y-169275200D01*
X100760648Y-169335718D01*
X100474052Y-169454430D01*
X100216123Y-169626773D01*
X99996773Y-169846123D01*
X99950000Y-169916124D01*
X99903227Y-169846123D01*
X99683877Y-169626773D01*
X99425948Y-169454430D01*
X99139352Y-169335718D01*
X98835104Y-169275200D01*
X98524896Y-169275200D01*
X98330675Y-169313833D01*
X98335000Y-169292089D01*
X98335000Y-169107911D01*
X98316519Y-169015000D01*
X102063210Y-169015000D01*
X102710553Y-169662343D01*
X102710553Y-169662343D01*
G37*
X102710553Y-169662343D02*
X102526773Y-169846123D01*
X102485000Y-169908641D01*
X102443227Y-169846123D01*
X102223877Y-169626773D01*
X101965948Y-169454430D01*
X101679352Y-169335718D01*
X101375104Y-169275200D01*
X101064896Y-169275200D01*
X100760648Y-169335718D01*
X100474052Y-169454430D01*
X100216123Y-169626773D01*
X99996773Y-169846123D01*
X99950000Y-169916124D01*
X99903227Y-169846123D01*
X99683877Y-169626773D01*
X99425948Y-169454430D01*
X99139352Y-169335718D01*
X98835104Y-169275200D01*
X98524896Y-169275200D01*
X98330675Y-169313833D01*
X98335000Y-169292089D01*
X98335000Y-169107911D01*
X98316519Y-169015000D01*
X102063210Y-169015000D01*
X102710553Y-169662343D01*
G36*
X87286773Y-154346123D02*
G01*
X87114430Y-154604052D01*
X86995718Y-154890648D01*
X86935200Y-155194896D01*
X86935200Y-155505104D01*
X86995718Y-155809352D01*
X87114430Y-156095948D01*
X87286773Y-156353877D01*
X87506123Y-156573227D01*
X87764052Y-156745570D01*
X88050648Y-156864282D01*
X88354896Y-156924800D01*
X88665104Y-156924800D01*
X88969352Y-156864282D01*
X89255948Y-156745570D01*
X89513877Y-156573227D01*
X89733227Y-156353877D01*
X89785000Y-156276393D01*
X89836773Y-156353877D01*
X90056123Y-156573227D01*
X90314052Y-156745570D01*
X90600648Y-156864282D01*
X90904896Y-156924800D01*
X91215104Y-156924800D01*
X91519352Y-156864282D01*
X91805948Y-156745570D01*
X92063877Y-156573227D01*
X92283227Y-156353877D01*
X92325000Y-156291359D01*
X92366773Y-156353877D01*
X92586123Y-156573227D01*
X92844052Y-156745570D01*
X93130648Y-156864282D01*
X93434896Y-156924800D01*
X93745104Y-156924800D01*
X94049352Y-156864282D01*
X94335948Y-156745570D01*
X94593877Y-156573227D01*
X94813227Y-156353877D01*
X94855000Y-156291359D01*
X94896773Y-156353877D01*
X95116123Y-156573227D01*
X95360000Y-156736181D01*
X95360001Y-165682668D01*
X95356324Y-165720000D01*
X95370998Y-165868985D01*
X95414454Y-166012246D01*
X95485026Y-166144276D01*
X95531523Y-166200932D01*
X95580000Y-166260001D01*
X95608998Y-166283799D01*
X96670198Y-167345000D01*
X85781776Y-167345000D01*
X85767143Y-154307000D01*
X87325896Y-154307000D01*
X87286773Y-154346123D01*
X87286773Y-154346123D01*
G37*
X87286773Y-154346123D02*
X87114430Y-154604052D01*
X86995718Y-154890648D01*
X86935200Y-155194896D01*
X86935200Y-155505104D01*
X86995718Y-155809352D01*
X87114430Y-156095948D01*
X87286773Y-156353877D01*
X87506123Y-156573227D01*
X87764052Y-156745570D01*
X88050648Y-156864282D01*
X88354896Y-156924800D01*
X88665104Y-156924800D01*
X88969352Y-156864282D01*
X89255948Y-156745570D01*
X89513877Y-156573227D01*
X89733227Y-156353877D01*
X89785000Y-156276393D01*
X89836773Y-156353877D01*
X90056123Y-156573227D01*
X90314052Y-156745570D01*
X90600648Y-156864282D01*
X90904896Y-156924800D01*
X91215104Y-156924800D01*
X91519352Y-156864282D01*
X91805948Y-156745570D01*
X92063877Y-156573227D01*
X92283227Y-156353877D01*
X92325000Y-156291359D01*
X92366773Y-156353877D01*
X92586123Y-156573227D01*
X92844052Y-156745570D01*
X93130648Y-156864282D01*
X93434896Y-156924800D01*
X93745104Y-156924800D01*
X94049352Y-156864282D01*
X94335948Y-156745570D01*
X94593877Y-156573227D01*
X94813227Y-156353877D01*
X94855000Y-156291359D01*
X94896773Y-156353877D01*
X95116123Y-156573227D01*
X95360000Y-156736181D01*
X95360001Y-165682668D01*
X95356324Y-165720000D01*
X95370998Y-165868985D01*
X95414454Y-166012246D01*
X95485026Y-166144276D01*
X95531523Y-166200932D01*
X95580000Y-166260001D01*
X95608998Y-166283799D01*
X96670198Y-167345000D01*
X85781776Y-167345000D01*
X85767143Y-154307000D01*
X87325896Y-154307000D01*
X87286773Y-154346123D01*
G36*
X97456773Y-156353877D02*
G01*
X97676123Y-156573227D01*
X97934052Y-156745570D01*
X97940001Y-156748034D01*
X97940000Y-165254465D01*
X97871414Y-165357111D01*
X97800932Y-165527271D01*
X97765000Y-165707911D01*
X97765000Y-165892089D01*
X97800932Y-166072729D01*
X97871414Y-166242889D01*
X97936301Y-166340000D01*
X97814802Y-166340000D01*
X96880000Y-165405199D01*
X96880000Y-156736181D01*
X97123877Y-156573227D01*
X97343227Y-156353877D01*
X97400000Y-156268910D01*
X97456773Y-156353877D01*
X97456773Y-156353877D01*
G37*
X97456773Y-156353877D02*
X97676123Y-156573227D01*
X97934052Y-156745570D01*
X97940001Y-156748034D01*
X97940000Y-165254465D01*
X97871414Y-165357111D01*
X97800932Y-165527271D01*
X97765000Y-165707911D01*
X97765000Y-165892089D01*
X97800932Y-166072729D01*
X97871414Y-166242889D01*
X97936301Y-166340000D01*
X97814802Y-166340000D01*
X96880000Y-165405199D01*
X96880000Y-156736181D01*
X97123877Y-156573227D01*
X97343227Y-156353877D01*
X97400000Y-156268910D01*
X97456773Y-156353877D01*
G36*
X97456773Y-154346123D02*
G01*
X97400000Y-154431090D01*
X97343227Y-154346123D01*
X97304104Y-154307000D01*
X97495896Y-154307000D01*
X97456773Y-154346123D01*
X97456773Y-154346123D01*
G37*
X97456773Y-154346123D02*
X97400000Y-154431090D01*
X97343227Y-154346123D01*
X97304104Y-154307000D01*
X97495896Y-154307000D01*
X97456773Y-154346123D01*
G36*
X89836773Y-154346123D02*
G01*
X89785000Y-154423607D01*
X89733227Y-154346123D01*
X89694104Y-154307000D01*
X89875896Y-154307000D01*
X89836773Y-154346123D01*
X89836773Y-154346123D01*
G37*
X89836773Y-154346123D02*
X89785000Y-154423607D01*
X89733227Y-154346123D01*
X89694104Y-154307000D01*
X89875896Y-154307000D01*
X89836773Y-154346123D01*
G36*
X102526773Y-154336123D02*
G01*
X102476659Y-154411124D01*
X102433227Y-154346123D01*
X102394104Y-154307000D01*
X102555896Y-154307000D01*
X102526773Y-154336123D01*
X102526773Y-154336123D01*
G37*
X102526773Y-154336123D02*
X102476659Y-154411124D01*
X102433227Y-154346123D01*
X102394104Y-154307000D01*
X102555896Y-154307000D01*
X102526773Y-154336123D01*
G36*
X94896773Y-154346123D02*
G01*
X94855000Y-154408641D01*
X94813227Y-154346123D01*
X94774104Y-154307000D01*
X94935896Y-154307000D01*
X94896773Y-154346123D01*
X94896773Y-154346123D01*
G37*
X94896773Y-154346123D02*
X94855000Y-154408641D01*
X94813227Y-154346123D01*
X94774104Y-154307000D01*
X94935896Y-154307000D01*
X94896773Y-154346123D01*
G36*
X99986773Y-154346123D02*
G01*
X99945000Y-154408641D01*
X99903227Y-154346123D01*
X99864104Y-154307000D01*
X100025896Y-154307000D01*
X99986773Y-154346123D01*
X99986773Y-154346123D01*
G37*
X99986773Y-154346123D02*
X99945000Y-154408641D01*
X99903227Y-154346123D01*
X99864104Y-154307000D01*
X100025896Y-154307000D01*
X99986773Y-154346123D01*
M02*
