M48
; DRILL file {KiCad (5.1.2)-1} date 2023/11/23 12:08:06
; FORMAT={2:4/ absolute / inch / suppress leading zeros}
; #@! TF.CreationDate,2023-11-23T12:08:06+09:00
; #@! TF.GenerationSoftware,Kicad,Pcbnew,(5.1.2)-1
FMAT,2
INCH,TZ
T1C0.0118
T2C0.0300
T3C0.0400
T4C0.1260
%
G90
G05
T1
X29768Y-29610
X31228Y-28949
X31610Y-29445
X31728Y-28374
X32350Y-29752
X38346Y-66614
X38858Y-65276
X39016Y-65787
X40118Y-65461
X42299Y-28114
X43252Y-30000
X44280Y-29441
T2
X34220Y-68425
X35220Y-68425
X36220Y-68425
X37220Y-68425
X38220Y-68425
X39220Y-68425
X40220Y-68425
X41220Y-68425
T3
X34846Y-61161
X34846Y-67264
X35846Y-67264
X35850Y-61161
X36846Y-61161
X36850Y-67260
X37843Y-61161
X37846Y-67260
X38850Y-61161
X38850Y-67264
X39846Y-61161
X39850Y-67264
X40846Y-61157
X40846Y-67264
T4
X37201Y-13362
T0
M30
