G04 #@! TF.GenerationSoftware,KiCad,Pcbnew,(5.1.2)-1*
G04 #@! TF.CreationDate,2023-11-23T12:08:04+09:00*
G04 #@! TF.ProjectId,gopher_party_xiao_v2,676f7068-6572-45f7-9061-7274795f7869,rev?*
G04 #@! TF.SameCoordinates,Original*
G04 #@! TF.FileFunction,Soldermask,Top*
G04 #@! TF.FilePolarity,Negative*
%FSLAX46Y46*%
G04 Gerber Fmt 4.6, Leading zero omitted, Abs format (unit mm)*
G04 Created by KiCad (PCBNEW (5.1.2)-1) date 2023-11-23 12:08:04*
%MOMM*%
%LPD*%
G04 APERTURE LIST*
%ADD10C,0.100000*%
G04 APERTURE END LIST*
D10*
G36*
X118730000Y-104820000D02*
G01*
X119030000Y-104950000D01*
X119060000Y-104980000D01*
X119100000Y-105130000D01*
X118960000Y-105310000D01*
X118790000Y-105430000D01*
X118660000Y-105520000D01*
X118350000Y-105670000D01*
X118170000Y-105730000D01*
X118050000Y-105660000D01*
X118000000Y-105480000D01*
X118020000Y-105250000D01*
X118120000Y-105010000D01*
X118170000Y-104950000D01*
X118280000Y-104840000D01*
X118440000Y-104790000D01*
X118730000Y-104820000D01*
G37*
X118730000Y-104820000D02*
X119030000Y-104950000D01*
X119060000Y-104980000D01*
X119100000Y-105130000D01*
X118960000Y-105310000D01*
X118790000Y-105430000D01*
X118660000Y-105520000D01*
X118350000Y-105670000D01*
X118170000Y-105730000D01*
X118050000Y-105660000D01*
X118000000Y-105480000D01*
X118020000Y-105250000D01*
X118120000Y-105010000D01*
X118170000Y-104950000D01*
X118280000Y-104840000D01*
X118440000Y-104790000D01*
X118730000Y-104820000D01*
G36*
X89930000Y-87080000D02*
G01*
X90380000Y-87400000D01*
X90760000Y-87640000D01*
X91190000Y-87840000D01*
X91510000Y-88000000D01*
X92200000Y-88230000D01*
X92410000Y-88300000D01*
X92730000Y-88380000D01*
X93280000Y-88480000D01*
X94060000Y-88530000D01*
X95030000Y-88540000D01*
X96010000Y-88510000D01*
X96820000Y-88390000D01*
X97560000Y-88130000D01*
X98570000Y-87680000D01*
X99120000Y-87280000D01*
X99640000Y-86860000D01*
X99920000Y-87000000D01*
X100170000Y-87130000D01*
X99610000Y-87440000D01*
X95910000Y-89430000D01*
X91990000Y-91180000D01*
X88570000Y-89040000D01*
X87610000Y-88390000D01*
X88120000Y-88030000D01*
X88810000Y-87640000D01*
X89380000Y-87350000D01*
X89770000Y-87150000D01*
X89930000Y-87080000D01*
G37*
X89930000Y-87080000D02*
X90380000Y-87400000D01*
X90760000Y-87640000D01*
X91190000Y-87840000D01*
X91510000Y-88000000D01*
X92200000Y-88230000D01*
X92410000Y-88300000D01*
X92730000Y-88380000D01*
X93280000Y-88480000D01*
X94060000Y-88530000D01*
X95030000Y-88540000D01*
X96010000Y-88510000D01*
X96820000Y-88390000D01*
X97560000Y-88130000D01*
X98570000Y-87680000D01*
X99120000Y-87280000D01*
X99640000Y-86860000D01*
X99920000Y-87000000D01*
X100170000Y-87130000D01*
X99610000Y-87440000D01*
X95910000Y-89430000D01*
X91990000Y-91180000D01*
X88570000Y-89040000D01*
X87610000Y-88390000D01*
X88120000Y-88030000D01*
X88810000Y-87640000D01*
X89380000Y-87350000D01*
X89770000Y-87150000D01*
X89930000Y-87080000D01*
G36*
X100170000Y-87180000D02*
G01*
X100880000Y-87510000D01*
X101810000Y-88100000D01*
X102280000Y-88380000D01*
X103040000Y-89020000D01*
X103630000Y-89680000D01*
X104070000Y-90360000D01*
X104360000Y-91170000D01*
X104450000Y-91610000D01*
X104480000Y-92010000D01*
X104470000Y-92260000D01*
X104340000Y-92980000D01*
X104110000Y-93460000D01*
X103680000Y-93900000D01*
X103120000Y-94190000D01*
X102400000Y-94380000D01*
X101950000Y-94450000D01*
X101400000Y-94450000D01*
X100720000Y-94370000D01*
X99930000Y-94200000D01*
X99030000Y-93960000D01*
X98280000Y-93760000D01*
X97740000Y-93640000D01*
X97020000Y-93500000D01*
X96360000Y-93450000D01*
X95780000Y-93460000D01*
X95060000Y-93530000D01*
X94230000Y-93680000D01*
X93270000Y-93890000D01*
X92150000Y-94170000D01*
X91440000Y-94350000D01*
X90400000Y-94560000D01*
X89170000Y-94640000D01*
X88370000Y-94630000D01*
X87950000Y-94600000D01*
X87580000Y-94520000D01*
X87180000Y-94380000D01*
X86630000Y-94130000D01*
X86080000Y-93790000D01*
X85600000Y-93400000D01*
X85250000Y-92970000D01*
X85060000Y-92550000D01*
X85020000Y-92210000D01*
X85080000Y-91640000D01*
X85310000Y-91020000D01*
X85660000Y-90390000D01*
X86140000Y-89750000D01*
X86700000Y-89150000D01*
X87635000Y-88440000D01*
X92147500Y-91110000D01*
X100170000Y-87180000D01*
G37*
X100170000Y-87180000D02*
X100880000Y-87510000D01*
X101810000Y-88100000D01*
X102280000Y-88380000D01*
X103040000Y-89020000D01*
X103630000Y-89680000D01*
X104070000Y-90360000D01*
X104360000Y-91170000D01*
X104450000Y-91610000D01*
X104480000Y-92010000D01*
X104470000Y-92260000D01*
X104340000Y-92980000D01*
X104110000Y-93460000D01*
X103680000Y-93900000D01*
X103120000Y-94190000D01*
X102400000Y-94380000D01*
X101950000Y-94450000D01*
X101400000Y-94450000D01*
X100720000Y-94370000D01*
X99930000Y-94200000D01*
X99030000Y-93960000D01*
X98280000Y-93760000D01*
X97740000Y-93640000D01*
X97020000Y-93500000D01*
X96360000Y-93450000D01*
X95780000Y-93460000D01*
X95060000Y-93530000D01*
X94230000Y-93680000D01*
X93270000Y-93890000D01*
X92150000Y-94170000D01*
X91440000Y-94350000D01*
X90400000Y-94560000D01*
X89170000Y-94640000D01*
X88370000Y-94630000D01*
X87950000Y-94600000D01*
X87580000Y-94520000D01*
X87180000Y-94380000D01*
X86630000Y-94130000D01*
X86080000Y-93790000D01*
X85600000Y-93400000D01*
X85250000Y-92970000D01*
X85060000Y-92550000D01*
X85020000Y-92210000D01*
X85080000Y-91640000D01*
X85310000Y-91020000D01*
X85660000Y-90390000D01*
X86140000Y-89750000D01*
X86700000Y-89150000D01*
X87635000Y-88440000D01*
X92147500Y-91110000D01*
X100170000Y-87180000D01*
G36*
X126860000Y-173240000D02*
G01*
X127790000Y-173250000D01*
X128770000Y-173450000D01*
X129560000Y-173750000D01*
X130360000Y-174260000D01*
X131150000Y-175000000D01*
X131870000Y-175920000D01*
X132380000Y-176750000D01*
X132760000Y-177620000D01*
X133020000Y-178360000D01*
X133100000Y-178760000D01*
X133150000Y-179600000D01*
X133140000Y-180810000D01*
X133120000Y-181200000D01*
X133060000Y-181430000D01*
X132990000Y-181650000D01*
X132750000Y-182130000D01*
X132560000Y-182440000D01*
X132470000Y-182570000D01*
X132350000Y-182720000D01*
X132070000Y-182990000D01*
X132000000Y-182480000D01*
X131840000Y-181830000D01*
X131730000Y-181370000D01*
X131520000Y-180860000D01*
X131280000Y-180270000D01*
X131170000Y-180080000D01*
X131010000Y-179800000D01*
X130650000Y-179170000D01*
X130270000Y-178650000D01*
X129990000Y-178310000D01*
X129630000Y-177900000D01*
X129390000Y-177690000D01*
X129250000Y-177630000D01*
X129160000Y-177640000D01*
X129150000Y-177640000D01*
X129060000Y-177740000D01*
X129100000Y-177940000D01*
X129120000Y-177980000D01*
X129290000Y-178260000D01*
X129560000Y-178620000D01*
X129770000Y-178910000D01*
X130250000Y-179550000D01*
X130820000Y-180540000D01*
X131180000Y-181440000D01*
X131360000Y-182040000D01*
X131460000Y-182570000D01*
X131510000Y-182910000D01*
X131510000Y-183200000D01*
X131450000Y-183340000D01*
X131310000Y-183390000D01*
X131020000Y-183430000D01*
X130620000Y-183450000D01*
X130240000Y-183440000D01*
X129940000Y-183400000D01*
X129360000Y-183230000D01*
X128540000Y-182870000D01*
X127730000Y-182420000D01*
X127040000Y-181960000D01*
X126750000Y-181750000D01*
X126080000Y-181140000D01*
X124960000Y-180010000D01*
X124020000Y-178990000D01*
X123150000Y-178130000D01*
X122810000Y-177800000D01*
X122240000Y-177320000D01*
X122030000Y-177150000D01*
X121790000Y-176960000D01*
X121590000Y-176750000D01*
X121740000Y-176520000D01*
X121950000Y-176240000D01*
X122230000Y-175880000D01*
X122350000Y-175740000D01*
X122910000Y-175180000D01*
X123120000Y-174950000D01*
X123970000Y-174290000D01*
X124950000Y-173740000D01*
X125490000Y-173540000D01*
X125880000Y-173400000D01*
X126860000Y-173240000D01*
G37*
X126860000Y-173240000D02*
X127790000Y-173250000D01*
X128770000Y-173450000D01*
X129560000Y-173750000D01*
X130360000Y-174260000D01*
X131150000Y-175000000D01*
X131870000Y-175920000D01*
X132380000Y-176750000D01*
X132760000Y-177620000D01*
X133020000Y-178360000D01*
X133100000Y-178760000D01*
X133150000Y-179600000D01*
X133140000Y-180810000D01*
X133120000Y-181200000D01*
X133060000Y-181430000D01*
X132990000Y-181650000D01*
X132750000Y-182130000D01*
X132560000Y-182440000D01*
X132470000Y-182570000D01*
X132350000Y-182720000D01*
X132070000Y-182990000D01*
X132000000Y-182480000D01*
X131840000Y-181830000D01*
X131730000Y-181370000D01*
X131520000Y-180860000D01*
X131280000Y-180270000D01*
X131170000Y-180080000D01*
X131010000Y-179800000D01*
X130650000Y-179170000D01*
X130270000Y-178650000D01*
X129990000Y-178310000D01*
X129630000Y-177900000D01*
X129390000Y-177690000D01*
X129250000Y-177630000D01*
X129160000Y-177640000D01*
X129150000Y-177640000D01*
X129060000Y-177740000D01*
X129100000Y-177940000D01*
X129120000Y-177980000D01*
X129290000Y-178260000D01*
X129560000Y-178620000D01*
X129770000Y-178910000D01*
X130250000Y-179550000D01*
X130820000Y-180540000D01*
X131180000Y-181440000D01*
X131360000Y-182040000D01*
X131460000Y-182570000D01*
X131510000Y-182910000D01*
X131510000Y-183200000D01*
X131450000Y-183340000D01*
X131310000Y-183390000D01*
X131020000Y-183430000D01*
X130620000Y-183450000D01*
X130240000Y-183440000D01*
X129940000Y-183400000D01*
X129360000Y-183230000D01*
X128540000Y-182870000D01*
X127730000Y-182420000D01*
X127040000Y-181960000D01*
X126750000Y-181750000D01*
X126080000Y-181140000D01*
X124960000Y-180010000D01*
X124020000Y-178990000D01*
X123150000Y-178130000D01*
X122810000Y-177800000D01*
X122240000Y-177320000D01*
X122030000Y-177150000D01*
X121790000Y-176960000D01*
X121590000Y-176750000D01*
X121740000Y-176520000D01*
X121950000Y-176240000D01*
X122230000Y-175880000D01*
X122350000Y-175740000D01*
X122910000Y-175180000D01*
X123120000Y-174950000D01*
X123970000Y-174290000D01*
X124950000Y-173740000D01*
X125490000Y-173540000D01*
X125880000Y-173400000D01*
X126860000Y-173240000D01*
G36*
X127880000Y-122790000D02*
G01*
X127720000Y-123240000D01*
X127310000Y-124280000D01*
X126880000Y-125390000D01*
X126770000Y-125670000D01*
X126520000Y-125410000D01*
X126080000Y-124820000D01*
X125810000Y-124490000D01*
X125700000Y-124300000D01*
X125970000Y-124230000D01*
X126380000Y-124110000D01*
X126880000Y-123880000D01*
X127260000Y-123610000D01*
X127620000Y-123200000D01*
X127710000Y-123060000D01*
X127880000Y-122790000D01*
G37*
X127880000Y-122790000D02*
X127720000Y-123240000D01*
X127310000Y-124280000D01*
X126880000Y-125390000D01*
X126770000Y-125670000D01*
X126520000Y-125410000D01*
X126080000Y-124820000D01*
X125810000Y-124490000D01*
X125700000Y-124300000D01*
X125970000Y-124230000D01*
X126380000Y-124110000D01*
X126880000Y-123880000D01*
X127260000Y-123610000D01*
X127620000Y-123200000D01*
X127710000Y-123060000D01*
X127880000Y-122790000D01*
G36*
X129330000Y-119230000D02*
G01*
X129960000Y-118890000D01*
X130650000Y-118570000D01*
X131530000Y-118500000D01*
X132280000Y-118520000D01*
X133110000Y-118600000D01*
X133840000Y-118770000D01*
X134490000Y-119070000D01*
X134950000Y-119450000D01*
X135230000Y-119940000D01*
X135390000Y-120300000D01*
X135400000Y-120860000D01*
X135270000Y-121500000D01*
X134990000Y-122130000D01*
X134570000Y-122650000D01*
X133830000Y-123300000D01*
X133520000Y-123620000D01*
X133200000Y-124080000D01*
X132850000Y-124530000D01*
X132110000Y-125280000D01*
X131350000Y-125970000D01*
X130330000Y-126570000D01*
X129530000Y-126930000D01*
X128630000Y-127270000D01*
X127550000Y-127550000D01*
X127240000Y-127600000D01*
X126420000Y-127670000D01*
X125530000Y-127680000D01*
X124750000Y-127600000D01*
X124130000Y-127450000D01*
X123720000Y-127310000D01*
X123210000Y-127070000D01*
X123010000Y-126990000D01*
X122580000Y-126720000D01*
X122240000Y-126380000D01*
X122100000Y-126060000D01*
X122140000Y-125730000D01*
X122380000Y-125400000D01*
X122580000Y-125230000D01*
X122950000Y-125020000D01*
X123340000Y-124870000D01*
X124140000Y-124640000D01*
X124950000Y-124470000D01*
X125660000Y-124320000D01*
X126790000Y-125730000D01*
X129330000Y-119230000D01*
G37*
X129330000Y-119230000D02*
X129960000Y-118890000D01*
X130650000Y-118570000D01*
X131530000Y-118500000D01*
X132280000Y-118520000D01*
X133110000Y-118600000D01*
X133840000Y-118770000D01*
X134490000Y-119070000D01*
X134950000Y-119450000D01*
X135230000Y-119940000D01*
X135390000Y-120300000D01*
X135400000Y-120860000D01*
X135270000Y-121500000D01*
X134990000Y-122130000D01*
X134570000Y-122650000D01*
X133830000Y-123300000D01*
X133520000Y-123620000D01*
X133200000Y-124080000D01*
X132850000Y-124530000D01*
X132110000Y-125280000D01*
X131350000Y-125970000D01*
X130330000Y-126570000D01*
X129530000Y-126930000D01*
X128630000Y-127270000D01*
X127550000Y-127550000D01*
X127240000Y-127600000D01*
X126420000Y-127670000D01*
X125530000Y-127680000D01*
X124750000Y-127600000D01*
X124130000Y-127450000D01*
X123720000Y-127310000D01*
X123210000Y-127070000D01*
X123010000Y-126990000D01*
X122580000Y-126720000D01*
X122240000Y-126380000D01*
X122100000Y-126060000D01*
X122140000Y-125730000D01*
X122380000Y-125400000D01*
X122580000Y-125230000D01*
X122950000Y-125020000D01*
X123340000Y-124870000D01*
X124140000Y-124640000D01*
X124950000Y-124470000D01*
X125660000Y-124320000D01*
X126790000Y-125730000D01*
X129330000Y-119230000D01*
G36*
X66590000Y-174320000D02*
G01*
X67270000Y-174290000D01*
X67940000Y-174340000D01*
X68550000Y-174590000D01*
X69090000Y-174900000D01*
X69800000Y-175500000D01*
X70280000Y-175970000D01*
X71230000Y-176920000D01*
X71930000Y-177650000D01*
X72460000Y-178200000D01*
X72910000Y-178650000D01*
X72690000Y-178730000D01*
X72140000Y-178940000D01*
X71740000Y-179130000D01*
X71380000Y-179320000D01*
X70970000Y-179560000D01*
X70530000Y-179860000D01*
X70220000Y-180080000D01*
X69910000Y-180310000D01*
X68990000Y-181000000D01*
X68510000Y-181360000D01*
X68040000Y-181730000D01*
X67340000Y-182230000D01*
X66950000Y-182500000D01*
X66550000Y-182750000D01*
X65990000Y-183080000D01*
X65360000Y-183410000D01*
X64850000Y-183610000D01*
X64360000Y-183740000D01*
X64050000Y-183790000D01*
X63270000Y-183840000D01*
X62590000Y-183750000D01*
X61950000Y-183510000D01*
X61660000Y-183320000D01*
X61570000Y-183170000D01*
X61510000Y-182920000D01*
X61480000Y-182550000D01*
X61500000Y-181700000D01*
X61590000Y-181260000D01*
X61760000Y-180830000D01*
X62070000Y-180340000D01*
X62540000Y-179770000D01*
X63130000Y-179220000D01*
X63770000Y-178770000D01*
X64040000Y-178580000D01*
X64290000Y-178350000D01*
X64340000Y-178170000D01*
X64200000Y-178060000D01*
X64100000Y-178050000D01*
X63830000Y-178140000D01*
X63490000Y-178330000D01*
X63090000Y-178600000D01*
X62740000Y-178880000D01*
X62690000Y-178920000D01*
X62450000Y-179130000D01*
X62290000Y-179270000D01*
X61860000Y-179730000D01*
X61370000Y-180460000D01*
X61060000Y-181180000D01*
X61040000Y-181300000D01*
X60910000Y-182040000D01*
X60880000Y-182480000D01*
X60860000Y-182750000D01*
X60700000Y-182500000D01*
X60640000Y-182410000D01*
X60530000Y-182240000D01*
X60440000Y-182090000D01*
X60450000Y-182110000D01*
X60160000Y-181450000D01*
X60000000Y-180840000D01*
X60000000Y-180480000D01*
X60000000Y-180270000D01*
X60050000Y-180010000D01*
X60170000Y-179600000D01*
X60390000Y-179170000D01*
X60700000Y-178740000D01*
X61290000Y-178070000D01*
X61870000Y-177480000D01*
X62720000Y-176710000D01*
X63300000Y-176230000D01*
X64670000Y-175320000D01*
X65600000Y-174770000D01*
X66340000Y-174380000D01*
X66590000Y-174320000D01*
G37*
X66590000Y-174320000D02*
X67270000Y-174290000D01*
X67940000Y-174340000D01*
X68550000Y-174590000D01*
X69090000Y-174900000D01*
X69800000Y-175500000D01*
X70280000Y-175970000D01*
X71230000Y-176920000D01*
X71930000Y-177650000D01*
X72460000Y-178200000D01*
X72910000Y-178650000D01*
X72690000Y-178730000D01*
X72140000Y-178940000D01*
X71740000Y-179130000D01*
X71380000Y-179320000D01*
X70970000Y-179560000D01*
X70530000Y-179860000D01*
X70220000Y-180080000D01*
X69910000Y-180310000D01*
X68990000Y-181000000D01*
X68510000Y-181360000D01*
X68040000Y-181730000D01*
X67340000Y-182230000D01*
X66950000Y-182500000D01*
X66550000Y-182750000D01*
X65990000Y-183080000D01*
X65360000Y-183410000D01*
X64850000Y-183610000D01*
X64360000Y-183740000D01*
X64050000Y-183790000D01*
X63270000Y-183840000D01*
X62590000Y-183750000D01*
X61950000Y-183510000D01*
X61660000Y-183320000D01*
X61570000Y-183170000D01*
X61510000Y-182920000D01*
X61480000Y-182550000D01*
X61500000Y-181700000D01*
X61590000Y-181260000D01*
X61760000Y-180830000D01*
X62070000Y-180340000D01*
X62540000Y-179770000D01*
X63130000Y-179220000D01*
X63770000Y-178770000D01*
X64040000Y-178580000D01*
X64290000Y-178350000D01*
X64340000Y-178170000D01*
X64200000Y-178060000D01*
X64100000Y-178050000D01*
X63830000Y-178140000D01*
X63490000Y-178330000D01*
X63090000Y-178600000D01*
X62740000Y-178880000D01*
X62690000Y-178920000D01*
X62450000Y-179130000D01*
X62290000Y-179270000D01*
X61860000Y-179730000D01*
X61370000Y-180460000D01*
X61060000Y-181180000D01*
X61040000Y-181300000D01*
X60910000Y-182040000D01*
X60880000Y-182480000D01*
X60860000Y-182750000D01*
X60700000Y-182500000D01*
X60640000Y-182410000D01*
X60530000Y-182240000D01*
X60440000Y-182090000D01*
X60450000Y-182110000D01*
X60160000Y-181450000D01*
X60000000Y-180840000D01*
X60000000Y-180480000D01*
X60000000Y-180270000D01*
X60050000Y-180010000D01*
X60170000Y-179600000D01*
X60390000Y-179170000D01*
X60700000Y-178740000D01*
X61290000Y-178070000D01*
X61870000Y-177480000D01*
X62720000Y-176710000D01*
X63300000Y-176230000D01*
X64670000Y-175320000D01*
X65600000Y-174770000D01*
X66340000Y-174380000D01*
X66590000Y-174320000D01*
G36*
X56580000Y-119890000D02*
G01*
X56640000Y-120290000D01*
X56700000Y-121300000D01*
X56730000Y-122150000D01*
X56770000Y-123410000D01*
X56800000Y-124640000D01*
X55880000Y-125500000D01*
X55560000Y-125780000D01*
X54660000Y-126420000D01*
X54430000Y-126590000D01*
X53200000Y-127260000D01*
X52320000Y-127600000D01*
X51750000Y-127690000D01*
X51270000Y-127660000D01*
X50800000Y-127460000D01*
X50400000Y-127150000D01*
X50210000Y-126810000D01*
X50260000Y-126460000D01*
X50460000Y-126080000D01*
X50850000Y-125650000D01*
X51410000Y-125220000D01*
X51720000Y-124990000D01*
X51940000Y-124770000D01*
X51980000Y-124640000D01*
X51930000Y-124560000D01*
X51770000Y-124480000D01*
X51610000Y-124510000D01*
X51300000Y-124650000D01*
X50910000Y-124880000D01*
X50540000Y-125180000D01*
X50260000Y-125440000D01*
X50200000Y-125500000D01*
X49950000Y-125820000D01*
X49770000Y-126150000D01*
X49310000Y-125800000D01*
X48990000Y-125390000D01*
X48830000Y-124930000D01*
X48860000Y-124390000D01*
X49070000Y-123790000D01*
X49430000Y-123270000D01*
X49950000Y-122680000D01*
X50550000Y-122150000D01*
X51290000Y-121590000D01*
X52060000Y-121110000D01*
X52790000Y-120720000D01*
X53380000Y-120460000D01*
X54140000Y-120200000D01*
X54890000Y-120030000D01*
X56280000Y-119910000D01*
X56580000Y-119890000D01*
G37*
X56580000Y-119890000D02*
X56640000Y-120290000D01*
X56700000Y-121300000D01*
X56730000Y-122150000D01*
X56770000Y-123410000D01*
X56800000Y-124640000D01*
X55880000Y-125500000D01*
X55560000Y-125780000D01*
X54660000Y-126420000D01*
X54430000Y-126590000D01*
X53200000Y-127260000D01*
X52320000Y-127600000D01*
X51750000Y-127690000D01*
X51270000Y-127660000D01*
X50800000Y-127460000D01*
X50400000Y-127150000D01*
X50210000Y-126810000D01*
X50260000Y-126460000D01*
X50460000Y-126080000D01*
X50850000Y-125650000D01*
X51410000Y-125220000D01*
X51720000Y-124990000D01*
X51940000Y-124770000D01*
X51980000Y-124640000D01*
X51930000Y-124560000D01*
X51770000Y-124480000D01*
X51610000Y-124510000D01*
X51300000Y-124650000D01*
X50910000Y-124880000D01*
X50540000Y-125180000D01*
X50260000Y-125440000D01*
X50200000Y-125500000D01*
X49950000Y-125820000D01*
X49770000Y-126150000D01*
X49310000Y-125800000D01*
X48990000Y-125390000D01*
X48830000Y-124930000D01*
X48860000Y-124390000D01*
X49070000Y-123790000D01*
X49430000Y-123270000D01*
X49950000Y-122680000D01*
X50550000Y-122150000D01*
X51290000Y-121590000D01*
X52060000Y-121110000D01*
X52790000Y-120720000D01*
X53380000Y-120460000D01*
X54140000Y-120200000D01*
X54890000Y-120030000D01*
X56280000Y-119910000D01*
X56580000Y-119890000D01*
G36*
X104937142Y-173018242D02*
G01*
X105085101Y-173079529D01*
X105218255Y-173168499D01*
X105331501Y-173281745D01*
X105420471Y-173414899D01*
X105481758Y-173562858D01*
X105513000Y-173719925D01*
X105513000Y-173880075D01*
X105481758Y-174037142D01*
X105420471Y-174185101D01*
X105331501Y-174318255D01*
X105218255Y-174431501D01*
X105085101Y-174520471D01*
X104937142Y-174581758D01*
X104780075Y-174613000D01*
X104619925Y-174613000D01*
X104462858Y-174581758D01*
X104314899Y-174520471D01*
X104181745Y-174431501D01*
X104068499Y-174318255D01*
X103979529Y-174185101D01*
X103918242Y-174037142D01*
X103887000Y-173880075D01*
X103887000Y-173719925D01*
X103918242Y-173562858D01*
X103979529Y-173414899D01*
X104068499Y-173281745D01*
X104181745Y-173168499D01*
X104314899Y-173079529D01*
X104462858Y-173018242D01*
X104619925Y-172987000D01*
X104780075Y-172987000D01*
X104937142Y-173018242D01*
X104937142Y-173018242D01*
G37*
G36*
X102397142Y-173018242D02*
G01*
X102545101Y-173079529D01*
X102678255Y-173168499D01*
X102791501Y-173281745D01*
X102880471Y-173414899D01*
X102941758Y-173562858D01*
X102973000Y-173719925D01*
X102973000Y-173880075D01*
X102941758Y-174037142D01*
X102880471Y-174185101D01*
X102791501Y-174318255D01*
X102678255Y-174431501D01*
X102545101Y-174520471D01*
X102397142Y-174581758D01*
X102240075Y-174613000D01*
X102079925Y-174613000D01*
X101922858Y-174581758D01*
X101774899Y-174520471D01*
X101641745Y-174431501D01*
X101528499Y-174318255D01*
X101439529Y-174185101D01*
X101378242Y-174037142D01*
X101347000Y-173880075D01*
X101347000Y-173719925D01*
X101378242Y-173562858D01*
X101439529Y-173414899D01*
X101528499Y-173281745D01*
X101641745Y-173168499D01*
X101774899Y-173079529D01*
X101922858Y-173018242D01*
X102079925Y-172987000D01*
X102240075Y-172987000D01*
X102397142Y-173018242D01*
X102397142Y-173018242D01*
G37*
G36*
X87157142Y-173018242D02*
G01*
X87305101Y-173079529D01*
X87438255Y-173168499D01*
X87551501Y-173281745D01*
X87640471Y-173414899D01*
X87701758Y-173562858D01*
X87733000Y-173719925D01*
X87733000Y-173880075D01*
X87701758Y-174037142D01*
X87640471Y-174185101D01*
X87551501Y-174318255D01*
X87438255Y-174431501D01*
X87305101Y-174520471D01*
X87157142Y-174581758D01*
X87000075Y-174613000D01*
X86839925Y-174613000D01*
X86682858Y-174581758D01*
X86534899Y-174520471D01*
X86401745Y-174431501D01*
X86288499Y-174318255D01*
X86199529Y-174185101D01*
X86138242Y-174037142D01*
X86107000Y-173880075D01*
X86107000Y-173719925D01*
X86138242Y-173562858D01*
X86199529Y-173414899D01*
X86288499Y-173281745D01*
X86401745Y-173168499D01*
X86534899Y-173079529D01*
X86682858Y-173018242D01*
X86839925Y-172987000D01*
X87000075Y-172987000D01*
X87157142Y-173018242D01*
X87157142Y-173018242D01*
G37*
G36*
X89697142Y-173018242D02*
G01*
X89845101Y-173079529D01*
X89978255Y-173168499D01*
X90091501Y-173281745D01*
X90180471Y-173414899D01*
X90241758Y-173562858D01*
X90273000Y-173719925D01*
X90273000Y-173880075D01*
X90241758Y-174037142D01*
X90180471Y-174185101D01*
X90091501Y-174318255D01*
X89978255Y-174431501D01*
X89845101Y-174520471D01*
X89697142Y-174581758D01*
X89540075Y-174613000D01*
X89379925Y-174613000D01*
X89222858Y-174581758D01*
X89074899Y-174520471D01*
X88941745Y-174431501D01*
X88828499Y-174318255D01*
X88739529Y-174185101D01*
X88678242Y-174037142D01*
X88647000Y-173880075D01*
X88647000Y-173719925D01*
X88678242Y-173562858D01*
X88739529Y-173414899D01*
X88828499Y-173281745D01*
X88941745Y-173168499D01*
X89074899Y-173079529D01*
X89222858Y-173018242D01*
X89379925Y-172987000D01*
X89540075Y-172987000D01*
X89697142Y-173018242D01*
X89697142Y-173018242D01*
G37*
G36*
X92237142Y-173018242D02*
G01*
X92385101Y-173079529D01*
X92518255Y-173168499D01*
X92631501Y-173281745D01*
X92720471Y-173414899D01*
X92781758Y-173562858D01*
X92813000Y-173719925D01*
X92813000Y-173880075D01*
X92781758Y-174037142D01*
X92720471Y-174185101D01*
X92631501Y-174318255D01*
X92518255Y-174431501D01*
X92385101Y-174520471D01*
X92237142Y-174581758D01*
X92080075Y-174613000D01*
X91919925Y-174613000D01*
X91762858Y-174581758D01*
X91614899Y-174520471D01*
X91481745Y-174431501D01*
X91368499Y-174318255D01*
X91279529Y-174185101D01*
X91218242Y-174037142D01*
X91187000Y-173880075D01*
X91187000Y-173719925D01*
X91218242Y-173562858D01*
X91279529Y-173414899D01*
X91368499Y-173281745D01*
X91481745Y-173168499D01*
X91614899Y-173079529D01*
X91762858Y-173018242D01*
X91919925Y-172987000D01*
X92080075Y-172987000D01*
X92237142Y-173018242D01*
X92237142Y-173018242D01*
G37*
G36*
X94777142Y-173018242D02*
G01*
X94925101Y-173079529D01*
X95058255Y-173168499D01*
X95171501Y-173281745D01*
X95260471Y-173414899D01*
X95321758Y-173562858D01*
X95353000Y-173719925D01*
X95353000Y-173880075D01*
X95321758Y-174037142D01*
X95260471Y-174185101D01*
X95171501Y-174318255D01*
X95058255Y-174431501D01*
X94925101Y-174520471D01*
X94777142Y-174581758D01*
X94620075Y-174613000D01*
X94459925Y-174613000D01*
X94302858Y-174581758D01*
X94154899Y-174520471D01*
X94021745Y-174431501D01*
X93908499Y-174318255D01*
X93819529Y-174185101D01*
X93758242Y-174037142D01*
X93727000Y-173880075D01*
X93727000Y-173719925D01*
X93758242Y-173562858D01*
X93819529Y-173414899D01*
X93908499Y-173281745D01*
X94021745Y-173168499D01*
X94154899Y-173079529D01*
X94302858Y-173018242D01*
X94459925Y-172987000D01*
X94620075Y-172987000D01*
X94777142Y-173018242D01*
X94777142Y-173018242D01*
G37*
G36*
X97317142Y-173018242D02*
G01*
X97465101Y-173079529D01*
X97598255Y-173168499D01*
X97711501Y-173281745D01*
X97800471Y-173414899D01*
X97861758Y-173562858D01*
X97893000Y-173719925D01*
X97893000Y-173880075D01*
X97861758Y-174037142D01*
X97800471Y-174185101D01*
X97711501Y-174318255D01*
X97598255Y-174431501D01*
X97465101Y-174520471D01*
X97317142Y-174581758D01*
X97160075Y-174613000D01*
X96999925Y-174613000D01*
X96842858Y-174581758D01*
X96694899Y-174520471D01*
X96561745Y-174431501D01*
X96448499Y-174318255D01*
X96359529Y-174185101D01*
X96298242Y-174037142D01*
X96267000Y-173880075D01*
X96267000Y-173719925D01*
X96298242Y-173562858D01*
X96359529Y-173414899D01*
X96448499Y-173281745D01*
X96561745Y-173168499D01*
X96694899Y-173079529D01*
X96842858Y-173018242D01*
X96999925Y-172987000D01*
X97160075Y-172987000D01*
X97317142Y-173018242D01*
X97317142Y-173018242D01*
G37*
G36*
X99857142Y-173018242D02*
G01*
X100005101Y-173079529D01*
X100138255Y-173168499D01*
X100251501Y-173281745D01*
X100340471Y-173414899D01*
X100401758Y-173562858D01*
X100433000Y-173719925D01*
X100433000Y-173880075D01*
X100401758Y-174037142D01*
X100340471Y-174185101D01*
X100251501Y-174318255D01*
X100138255Y-174431501D01*
X100005101Y-174520471D01*
X99857142Y-174581758D01*
X99700075Y-174613000D01*
X99539925Y-174613000D01*
X99382858Y-174581758D01*
X99234899Y-174520471D01*
X99101745Y-174431501D01*
X98988499Y-174318255D01*
X98899529Y-174185101D01*
X98838242Y-174037142D01*
X98807000Y-173880075D01*
X98807000Y-173719925D01*
X98838242Y-173562858D01*
X98899529Y-173414899D01*
X98988499Y-173281745D01*
X99101745Y-173168499D01*
X99234899Y-173079529D01*
X99382858Y-173018242D01*
X99539925Y-172987000D01*
X99700075Y-172987000D01*
X99857142Y-173018242D01*
X99857142Y-173018242D01*
G37*
G36*
X98983765Y-169848620D02*
G01*
X99149144Y-169917122D01*
X99173288Y-169927123D01*
X99343854Y-170041092D01*
X99488908Y-170186146D01*
X99602877Y-170356712D01*
X99681380Y-170546235D01*
X99721400Y-170747431D01*
X99721400Y-170952569D01*
X99681380Y-171153765D01*
X99602877Y-171343288D01*
X99488908Y-171513854D01*
X99343854Y-171658908D01*
X99173288Y-171772877D01*
X99173287Y-171772878D01*
X99173286Y-171772878D01*
X98983765Y-171851380D01*
X98782570Y-171891400D01*
X98577430Y-171891400D01*
X98376235Y-171851380D01*
X98186714Y-171772878D01*
X98186713Y-171772878D01*
X98186712Y-171772877D01*
X98016146Y-171658908D01*
X97871092Y-171513854D01*
X97757123Y-171343288D01*
X97678620Y-171153765D01*
X97638600Y-170952569D01*
X97638600Y-170747431D01*
X97678620Y-170546235D01*
X97757123Y-170356712D01*
X97871092Y-170186146D01*
X98016146Y-170041092D01*
X98186712Y-169927123D01*
X98210857Y-169917122D01*
X98376235Y-169848620D01*
X98577430Y-169808600D01*
X98782570Y-169808600D01*
X98983765Y-169848620D01*
X98983765Y-169848620D01*
G37*
G36*
X88813765Y-169848620D02*
G01*
X88979144Y-169917122D01*
X89003288Y-169927123D01*
X89173854Y-170041092D01*
X89318908Y-170186146D01*
X89432877Y-170356712D01*
X89511380Y-170546235D01*
X89551400Y-170747431D01*
X89551400Y-170952569D01*
X89511380Y-171153765D01*
X89432877Y-171343288D01*
X89318908Y-171513854D01*
X89173854Y-171658908D01*
X89003288Y-171772877D01*
X89003287Y-171772878D01*
X89003286Y-171772878D01*
X88813765Y-171851380D01*
X88612570Y-171891400D01*
X88407430Y-171891400D01*
X88206235Y-171851380D01*
X88016714Y-171772878D01*
X88016713Y-171772878D01*
X88016712Y-171772877D01*
X87846146Y-171658908D01*
X87701092Y-171513854D01*
X87587123Y-171343288D01*
X87508620Y-171153765D01*
X87468600Y-170952569D01*
X87468600Y-170747431D01*
X87508620Y-170546235D01*
X87587123Y-170356712D01*
X87701092Y-170186146D01*
X87846146Y-170041092D01*
X88016712Y-169927123D01*
X88040857Y-169917122D01*
X88206235Y-169848620D01*
X88407430Y-169808600D01*
X88612570Y-169808600D01*
X88813765Y-169848620D01*
X88813765Y-169848620D01*
G37*
G36*
X91353765Y-169848620D02*
G01*
X91519144Y-169917122D01*
X91543288Y-169927123D01*
X91713854Y-170041092D01*
X91858908Y-170186146D01*
X91972877Y-170356712D01*
X92051380Y-170546235D01*
X92091400Y-170747431D01*
X92091400Y-170952569D01*
X92051380Y-171153765D01*
X91972877Y-171343288D01*
X91858908Y-171513854D01*
X91713854Y-171658908D01*
X91543288Y-171772877D01*
X91543287Y-171772878D01*
X91543286Y-171772878D01*
X91353765Y-171851380D01*
X91152570Y-171891400D01*
X90947430Y-171891400D01*
X90746235Y-171851380D01*
X90556714Y-171772878D01*
X90556713Y-171772878D01*
X90556712Y-171772877D01*
X90386146Y-171658908D01*
X90241092Y-171513854D01*
X90127123Y-171343288D01*
X90048620Y-171153765D01*
X90008600Y-170952569D01*
X90008600Y-170747431D01*
X90048620Y-170546235D01*
X90127123Y-170356712D01*
X90241092Y-170186146D01*
X90386146Y-170041092D01*
X90556712Y-169927123D01*
X90580857Y-169917122D01*
X90746235Y-169848620D01*
X90947430Y-169808600D01*
X91152570Y-169808600D01*
X91353765Y-169848620D01*
X91353765Y-169848620D01*
G37*
G36*
X101523765Y-169848620D02*
G01*
X101689144Y-169917122D01*
X101713288Y-169927123D01*
X101883854Y-170041092D01*
X102028908Y-170186146D01*
X102142877Y-170356712D01*
X102221380Y-170546235D01*
X102261400Y-170747431D01*
X102261400Y-170952569D01*
X102221380Y-171153765D01*
X102142877Y-171343288D01*
X102028908Y-171513854D01*
X101883854Y-171658908D01*
X101713288Y-171772877D01*
X101713287Y-171772878D01*
X101713286Y-171772878D01*
X101523765Y-171851380D01*
X101322570Y-171891400D01*
X101117430Y-171891400D01*
X100916235Y-171851380D01*
X100726714Y-171772878D01*
X100726713Y-171772878D01*
X100726712Y-171772877D01*
X100556146Y-171658908D01*
X100411092Y-171513854D01*
X100297123Y-171343288D01*
X100218620Y-171153765D01*
X100178600Y-170952569D01*
X100178600Y-170747431D01*
X100218620Y-170546235D01*
X100297123Y-170356712D01*
X100411092Y-170186146D01*
X100556146Y-170041092D01*
X100726712Y-169927123D01*
X100750857Y-169917122D01*
X100916235Y-169848620D01*
X101117430Y-169808600D01*
X101322570Y-169808600D01*
X101523765Y-169848620D01*
X101523765Y-169848620D01*
G37*
G36*
X104053765Y-169848620D02*
G01*
X104219144Y-169917122D01*
X104243288Y-169927123D01*
X104413854Y-170041092D01*
X104558908Y-170186146D01*
X104672877Y-170356712D01*
X104751380Y-170546235D01*
X104791400Y-170747431D01*
X104791400Y-170952569D01*
X104751380Y-171153765D01*
X104672877Y-171343288D01*
X104558908Y-171513854D01*
X104413854Y-171658908D01*
X104243288Y-171772877D01*
X104243287Y-171772878D01*
X104243286Y-171772878D01*
X104053765Y-171851380D01*
X103852570Y-171891400D01*
X103647430Y-171891400D01*
X103446235Y-171851380D01*
X103256714Y-171772878D01*
X103256713Y-171772878D01*
X103256712Y-171772877D01*
X103086146Y-171658908D01*
X102941092Y-171513854D01*
X102827123Y-171343288D01*
X102748620Y-171153765D01*
X102708600Y-170952569D01*
X102708600Y-170747431D01*
X102748620Y-170546235D01*
X102827123Y-170356712D01*
X102941092Y-170186146D01*
X103086146Y-170041092D01*
X103256712Y-169927123D01*
X103280857Y-169917122D01*
X103446235Y-169848620D01*
X103647430Y-169808600D01*
X103852570Y-169808600D01*
X104053765Y-169848620D01*
X104053765Y-169848620D01*
G37*
G36*
X96433765Y-169838620D02*
G01*
X96623288Y-169917123D01*
X96793854Y-170031092D01*
X96938908Y-170176146D01*
X97052877Y-170346712D01*
X97131380Y-170536235D01*
X97171400Y-170737431D01*
X97171400Y-170942569D01*
X97131380Y-171143765D01*
X97052877Y-171333288D01*
X96938908Y-171503854D01*
X96793854Y-171648908D01*
X96623288Y-171762877D01*
X96623287Y-171762878D01*
X96623286Y-171762878D01*
X96433765Y-171841380D01*
X96232570Y-171881400D01*
X96027430Y-171881400D01*
X95826235Y-171841380D01*
X95636714Y-171762878D01*
X95636713Y-171762878D01*
X95636712Y-171762877D01*
X95466146Y-171648908D01*
X95321092Y-171503854D01*
X95207123Y-171333288D01*
X95128620Y-171143765D01*
X95088600Y-170942569D01*
X95088600Y-170737431D01*
X95128620Y-170536235D01*
X95207123Y-170346712D01*
X95321092Y-170176146D01*
X95466146Y-170031092D01*
X95636712Y-169917123D01*
X95826235Y-169838620D01*
X96027430Y-169798600D01*
X96232570Y-169798600D01*
X96433765Y-169838620D01*
X96433765Y-169838620D01*
G37*
G36*
X93903765Y-169838620D02*
G01*
X94093288Y-169917123D01*
X94263854Y-170031092D01*
X94408908Y-170176146D01*
X94522877Y-170346712D01*
X94601380Y-170536235D01*
X94641400Y-170737431D01*
X94641400Y-170942569D01*
X94601380Y-171143765D01*
X94522877Y-171333288D01*
X94408908Y-171503854D01*
X94263854Y-171648908D01*
X94093288Y-171762877D01*
X94093287Y-171762878D01*
X94093286Y-171762878D01*
X93903765Y-171841380D01*
X93702570Y-171881400D01*
X93497430Y-171881400D01*
X93296235Y-171841380D01*
X93106714Y-171762878D01*
X93106713Y-171762878D01*
X93106712Y-171762877D01*
X92936146Y-171648908D01*
X92791092Y-171503854D01*
X92677123Y-171333288D01*
X92598620Y-171143765D01*
X92558600Y-170942569D01*
X92558600Y-170737431D01*
X92598620Y-170536235D01*
X92677123Y-170346712D01*
X92791092Y-170176146D01*
X92936146Y-170031092D01*
X93106712Y-169917123D01*
X93296235Y-169838620D01*
X93497430Y-169798600D01*
X93702570Y-169798600D01*
X93903765Y-169838620D01*
X93903765Y-169838620D01*
G37*
G36*
X102025631Y-163808264D02*
G01*
X102085764Y-163820225D01*
X102123526Y-163835867D01*
X102199053Y-163867151D01*
X102301005Y-163935273D01*
X102387717Y-164021985D01*
X102455839Y-164123937D01*
X102502765Y-164237227D01*
X102526687Y-164357491D01*
X102526687Y-164480115D01*
X102502765Y-164600379D01*
X102455839Y-164713669D01*
X102387717Y-164815621D01*
X102301005Y-164902333D01*
X102199053Y-164970455D01*
X102123526Y-165001739D01*
X102085764Y-165017381D01*
X102025631Y-165029342D01*
X101965499Y-165041303D01*
X101842875Y-165041303D01*
X101782743Y-165029342D01*
X101722610Y-165017381D01*
X101684848Y-165001739D01*
X101609321Y-164970455D01*
X101507369Y-164902333D01*
X101420657Y-164815621D01*
X101352535Y-164713669D01*
X101305609Y-164600379D01*
X101281687Y-164480115D01*
X101281687Y-164357491D01*
X101305609Y-164237227D01*
X101352535Y-164123937D01*
X101420657Y-164021985D01*
X101507369Y-163935273D01*
X101609321Y-163867151D01*
X101684848Y-163835867D01*
X101722610Y-163820225D01*
X101782743Y-163808264D01*
X101842875Y-163796303D01*
X101965499Y-163796303D01*
X102025631Y-163808264D01*
X102025631Y-163808264D01*
G37*
G36*
X104565631Y-163808264D02*
G01*
X104625764Y-163820225D01*
X104663526Y-163835867D01*
X104739053Y-163867151D01*
X104841005Y-163935273D01*
X104927717Y-164021985D01*
X104995839Y-164123937D01*
X105042765Y-164237227D01*
X105066687Y-164357491D01*
X105066687Y-164480115D01*
X105042765Y-164600379D01*
X104995839Y-164713669D01*
X104927717Y-164815621D01*
X104841005Y-164902333D01*
X104739053Y-164970455D01*
X104663526Y-165001739D01*
X104625764Y-165017381D01*
X104565631Y-165029342D01*
X104505499Y-165041303D01*
X104382875Y-165041303D01*
X104322743Y-165029342D01*
X104262610Y-165017381D01*
X104224848Y-165001739D01*
X104149321Y-164970455D01*
X104047369Y-164902333D01*
X103960657Y-164815621D01*
X103892535Y-164713669D01*
X103845609Y-164600379D01*
X103821687Y-164480115D01*
X103821687Y-164357491D01*
X103845609Y-164237227D01*
X103892535Y-164123937D01*
X103960657Y-164021985D01*
X104047369Y-163935273D01*
X104149321Y-163867151D01*
X104224848Y-163835867D01*
X104262610Y-163820225D01*
X104322743Y-163808264D01*
X104382875Y-163796303D01*
X104505499Y-163796303D01*
X104565631Y-163808264D01*
X104565631Y-163808264D01*
G37*
G36*
X88057579Y-163879088D02*
G01*
X88057582Y-163879089D01*
X88057583Y-163879089D01*
X88162955Y-163911053D01*
X88162958Y-163911055D01*
X88162959Y-163911055D01*
X88260065Y-163962959D01*
X88260067Y-163962960D01*
X88260066Y-163962960D01*
X88345185Y-164032815D01*
X88415040Y-164117934D01*
X88466947Y-164215045D01*
X88498911Y-164320417D01*
X88498912Y-164320421D01*
X88509704Y-164430000D01*
X88498912Y-164539579D01*
X88498911Y-164539582D01*
X88498911Y-164539583D01*
X88466947Y-164644955D01*
X88466945Y-164644958D01*
X88466945Y-164644959D01*
X88415041Y-164742065D01*
X88345185Y-164827185D01*
X88260065Y-164897041D01*
X88250164Y-164902333D01*
X88162955Y-164948947D01*
X88057583Y-164980911D01*
X88057582Y-164980911D01*
X88057579Y-164980912D01*
X87975458Y-164989000D01*
X86904542Y-164989000D01*
X86822421Y-164980912D01*
X86822418Y-164980911D01*
X86822417Y-164980911D01*
X86717045Y-164948947D01*
X86629836Y-164902333D01*
X86619935Y-164897041D01*
X86534815Y-164827185D01*
X86464959Y-164742065D01*
X86413055Y-164644959D01*
X86413055Y-164644958D01*
X86413053Y-164644955D01*
X86381089Y-164539583D01*
X86381089Y-164539582D01*
X86381088Y-164539579D01*
X86370296Y-164430000D01*
X86381088Y-164320421D01*
X86381089Y-164320417D01*
X86413053Y-164215045D01*
X86464960Y-164117934D01*
X86534815Y-164032815D01*
X86619934Y-163962960D01*
X86619933Y-163962960D01*
X86619935Y-163962959D01*
X86717041Y-163911055D01*
X86717042Y-163911055D01*
X86717045Y-163911053D01*
X86822417Y-163879089D01*
X86822418Y-163879089D01*
X86822421Y-163879088D01*
X86904542Y-163871000D01*
X87975458Y-163871000D01*
X88057579Y-163879088D01*
X88057579Y-163879088D01*
G37*
G36*
X102025631Y-161268264D02*
G01*
X102085764Y-161280225D01*
X102123526Y-161295867D01*
X102199053Y-161327151D01*
X102301005Y-161395273D01*
X102387717Y-161481985D01*
X102455839Y-161583937D01*
X102502765Y-161697227D01*
X102526687Y-161817491D01*
X102526687Y-161940115D01*
X102502765Y-162060379D01*
X102455839Y-162173669D01*
X102387717Y-162275621D01*
X102301005Y-162362333D01*
X102199053Y-162430455D01*
X102123526Y-162461739D01*
X102085764Y-162477381D01*
X102025631Y-162489342D01*
X101965499Y-162501303D01*
X101842875Y-162501303D01*
X101782743Y-162489342D01*
X101722610Y-162477381D01*
X101684848Y-162461739D01*
X101609321Y-162430455D01*
X101507369Y-162362333D01*
X101420657Y-162275621D01*
X101352535Y-162173669D01*
X101305609Y-162060379D01*
X101281687Y-161940115D01*
X101281687Y-161817491D01*
X101305609Y-161697227D01*
X101352535Y-161583937D01*
X101420657Y-161481985D01*
X101507369Y-161395273D01*
X101609321Y-161327151D01*
X101684848Y-161295867D01*
X101722610Y-161280225D01*
X101782743Y-161268264D01*
X101842875Y-161256303D01*
X101965499Y-161256303D01*
X102025631Y-161268264D01*
X102025631Y-161268264D01*
G37*
G36*
X104565631Y-161268264D02*
G01*
X104625764Y-161280225D01*
X104663526Y-161295867D01*
X104739053Y-161327151D01*
X104841005Y-161395273D01*
X104927717Y-161481985D01*
X104995839Y-161583937D01*
X105042765Y-161697227D01*
X105066687Y-161817491D01*
X105066687Y-161940115D01*
X105042765Y-162060379D01*
X104995839Y-162173669D01*
X104927717Y-162275621D01*
X104841005Y-162362333D01*
X104739053Y-162430455D01*
X104663526Y-162461739D01*
X104625764Y-162477381D01*
X104565631Y-162489342D01*
X104505499Y-162501303D01*
X104382875Y-162501303D01*
X104322743Y-162489342D01*
X104262610Y-162477381D01*
X104224848Y-162461739D01*
X104149321Y-162430455D01*
X104047369Y-162362333D01*
X103960657Y-162275621D01*
X103892535Y-162173669D01*
X103845609Y-162060379D01*
X103821687Y-161940115D01*
X103821687Y-161817491D01*
X103845609Y-161697227D01*
X103892535Y-161583937D01*
X103960657Y-161481985D01*
X104047369Y-161395273D01*
X104149321Y-161327151D01*
X104224848Y-161295867D01*
X104262610Y-161280225D01*
X104322743Y-161268264D01*
X104382875Y-161256303D01*
X104505499Y-161256303D01*
X104565631Y-161268264D01*
X104565631Y-161268264D01*
G37*
G36*
X88057579Y-161329088D02*
G01*
X88057582Y-161329089D01*
X88057583Y-161329089D01*
X88162955Y-161361053D01*
X88162958Y-161361055D01*
X88162959Y-161361055D01*
X88260065Y-161412959D01*
X88260067Y-161412960D01*
X88260066Y-161412960D01*
X88345185Y-161482815D01*
X88415040Y-161567934D01*
X88466947Y-161665045D01*
X88476709Y-161697227D01*
X88498912Y-161770421D01*
X88509704Y-161880000D01*
X88498912Y-161989579D01*
X88498911Y-161989582D01*
X88498911Y-161989583D01*
X88466947Y-162094955D01*
X88466945Y-162094958D01*
X88466945Y-162094959D01*
X88415041Y-162192065D01*
X88345185Y-162277185D01*
X88260065Y-162347041D01*
X88162959Y-162398945D01*
X88162955Y-162398947D01*
X88057583Y-162430911D01*
X88057582Y-162430911D01*
X88057579Y-162430912D01*
X87975458Y-162439000D01*
X86904542Y-162439000D01*
X86822421Y-162430912D01*
X86822418Y-162430911D01*
X86822417Y-162430911D01*
X86717045Y-162398947D01*
X86717041Y-162398945D01*
X86619935Y-162347041D01*
X86534815Y-162277185D01*
X86464959Y-162192065D01*
X86413055Y-162094959D01*
X86413055Y-162094958D01*
X86413053Y-162094955D01*
X86381089Y-161989583D01*
X86381089Y-161989582D01*
X86381088Y-161989579D01*
X86370296Y-161880000D01*
X86381088Y-161770421D01*
X86403291Y-161697227D01*
X86413053Y-161665045D01*
X86464960Y-161567934D01*
X86534815Y-161482815D01*
X86619934Y-161412960D01*
X86619933Y-161412960D01*
X86619935Y-161412959D01*
X86717041Y-161361055D01*
X86717042Y-161361055D01*
X86717045Y-161361053D01*
X86822417Y-161329089D01*
X86822418Y-161329089D01*
X86822421Y-161329088D01*
X86904542Y-161321000D01*
X87975458Y-161321000D01*
X88057579Y-161329088D01*
X88057579Y-161329088D01*
G37*
G36*
X93893765Y-154348620D02*
G01*
X94059144Y-154417122D01*
X94083288Y-154427123D01*
X94253854Y-154541092D01*
X94398908Y-154686146D01*
X94512877Y-154856712D01*
X94591380Y-155046235D01*
X94631400Y-155247431D01*
X94631400Y-155452569D01*
X94591380Y-155653765D01*
X94512877Y-155843288D01*
X94398908Y-156013854D01*
X94253854Y-156158908D01*
X94083288Y-156272877D01*
X94083287Y-156272878D01*
X94083286Y-156272878D01*
X93893765Y-156351380D01*
X93692570Y-156391400D01*
X93487430Y-156391400D01*
X93286235Y-156351380D01*
X93096714Y-156272878D01*
X93096713Y-156272878D01*
X93096712Y-156272877D01*
X92926146Y-156158908D01*
X92781092Y-156013854D01*
X92667123Y-155843288D01*
X92588620Y-155653765D01*
X92548600Y-155452569D01*
X92548600Y-155247431D01*
X92588620Y-155046235D01*
X92667123Y-154856712D01*
X92781092Y-154686146D01*
X92926146Y-154541092D01*
X93096712Y-154427123D01*
X93120857Y-154417122D01*
X93286235Y-154348620D01*
X93487430Y-154308600D01*
X93692570Y-154308600D01*
X93893765Y-154348620D01*
X93893765Y-154348620D01*
G37*
G36*
X88813765Y-154348620D02*
G01*
X88979144Y-154417122D01*
X89003288Y-154427123D01*
X89173854Y-154541092D01*
X89318908Y-154686146D01*
X89432877Y-154856712D01*
X89511380Y-155046235D01*
X89551400Y-155247431D01*
X89551400Y-155452569D01*
X89511380Y-155653765D01*
X89432877Y-155843288D01*
X89318908Y-156013854D01*
X89173854Y-156158908D01*
X89003288Y-156272877D01*
X89003287Y-156272878D01*
X89003286Y-156272878D01*
X88813765Y-156351380D01*
X88612570Y-156391400D01*
X88407430Y-156391400D01*
X88206235Y-156351380D01*
X88016714Y-156272878D01*
X88016713Y-156272878D01*
X88016712Y-156272877D01*
X87846146Y-156158908D01*
X87701092Y-156013854D01*
X87587123Y-155843288D01*
X87508620Y-155653765D01*
X87468600Y-155452569D01*
X87468600Y-155247431D01*
X87508620Y-155046235D01*
X87587123Y-154856712D01*
X87701092Y-154686146D01*
X87846146Y-154541092D01*
X88016712Y-154427123D01*
X88040857Y-154417122D01*
X88206235Y-154348620D01*
X88407430Y-154308600D01*
X88612570Y-154308600D01*
X88813765Y-154348620D01*
X88813765Y-154348620D01*
G37*
G36*
X91363765Y-154348620D02*
G01*
X91529144Y-154417122D01*
X91553288Y-154427123D01*
X91723854Y-154541092D01*
X91868908Y-154686146D01*
X91982877Y-154856712D01*
X92061380Y-155046235D01*
X92101400Y-155247431D01*
X92101400Y-155452569D01*
X92061380Y-155653765D01*
X91982877Y-155843288D01*
X91868908Y-156013854D01*
X91723854Y-156158908D01*
X91553288Y-156272877D01*
X91553287Y-156272878D01*
X91553286Y-156272878D01*
X91363765Y-156351380D01*
X91162570Y-156391400D01*
X90957430Y-156391400D01*
X90756235Y-156351380D01*
X90566714Y-156272878D01*
X90566713Y-156272878D01*
X90566712Y-156272877D01*
X90396146Y-156158908D01*
X90251092Y-156013854D01*
X90137123Y-155843288D01*
X90058620Y-155653765D01*
X90018600Y-155452569D01*
X90018600Y-155247431D01*
X90058620Y-155046235D01*
X90137123Y-154856712D01*
X90251092Y-154686146D01*
X90396146Y-154541092D01*
X90566712Y-154427123D01*
X90590857Y-154417122D01*
X90756235Y-154348620D01*
X90957430Y-154308600D01*
X91162570Y-154308600D01*
X91363765Y-154348620D01*
X91363765Y-154348620D01*
G37*
G36*
X96423765Y-154348620D02*
G01*
X96589144Y-154417122D01*
X96613288Y-154427123D01*
X96783854Y-154541092D01*
X96928908Y-154686146D01*
X97042877Y-154856712D01*
X97121380Y-155046235D01*
X97161400Y-155247431D01*
X97161400Y-155452569D01*
X97121380Y-155653765D01*
X97042877Y-155843288D01*
X96928908Y-156013854D01*
X96783854Y-156158908D01*
X96613288Y-156272877D01*
X96613287Y-156272878D01*
X96613286Y-156272878D01*
X96423765Y-156351380D01*
X96222570Y-156391400D01*
X96017430Y-156391400D01*
X95816235Y-156351380D01*
X95626714Y-156272878D01*
X95626713Y-156272878D01*
X95626712Y-156272877D01*
X95456146Y-156158908D01*
X95311092Y-156013854D01*
X95197123Y-155843288D01*
X95118620Y-155653765D01*
X95078600Y-155452569D01*
X95078600Y-155247431D01*
X95118620Y-155046235D01*
X95197123Y-154856712D01*
X95311092Y-154686146D01*
X95456146Y-154541092D01*
X95626712Y-154427123D01*
X95650857Y-154417122D01*
X95816235Y-154348620D01*
X96017430Y-154308600D01*
X96222570Y-154308600D01*
X96423765Y-154348620D01*
X96423765Y-154348620D01*
G37*
G36*
X98983765Y-154348620D02*
G01*
X99149144Y-154417122D01*
X99173288Y-154427123D01*
X99343854Y-154541092D01*
X99488908Y-154686146D01*
X99602877Y-154856712D01*
X99681380Y-155046235D01*
X99721400Y-155247431D01*
X99721400Y-155452569D01*
X99681380Y-155653765D01*
X99602877Y-155843288D01*
X99488908Y-156013854D01*
X99343854Y-156158908D01*
X99173288Y-156272877D01*
X99173287Y-156272878D01*
X99173286Y-156272878D01*
X98983765Y-156351380D01*
X98782570Y-156391400D01*
X98577430Y-156391400D01*
X98376235Y-156351380D01*
X98186714Y-156272878D01*
X98186713Y-156272878D01*
X98186712Y-156272877D01*
X98016146Y-156158908D01*
X97871092Y-156013854D01*
X97757123Y-155843288D01*
X97678620Y-155653765D01*
X97638600Y-155452569D01*
X97638600Y-155247431D01*
X97678620Y-155046235D01*
X97757123Y-154856712D01*
X97871092Y-154686146D01*
X98016146Y-154541092D01*
X98186712Y-154427123D01*
X98210857Y-154417122D01*
X98376235Y-154348620D01*
X98577430Y-154308600D01*
X98782570Y-154308600D01*
X98983765Y-154348620D01*
X98983765Y-154348620D01*
G37*
G36*
X101513765Y-154348620D02*
G01*
X101679144Y-154417122D01*
X101703288Y-154427123D01*
X101873854Y-154541092D01*
X102018908Y-154686146D01*
X102132877Y-154856712D01*
X102211380Y-155046235D01*
X102251400Y-155247431D01*
X102251400Y-155452569D01*
X102211380Y-155653765D01*
X102132877Y-155843288D01*
X102018908Y-156013854D01*
X101873854Y-156158908D01*
X101703288Y-156272877D01*
X101703287Y-156272878D01*
X101703286Y-156272878D01*
X101513765Y-156351380D01*
X101312570Y-156391400D01*
X101107430Y-156391400D01*
X100906235Y-156351380D01*
X100716714Y-156272878D01*
X100716713Y-156272878D01*
X100716712Y-156272877D01*
X100546146Y-156158908D01*
X100401092Y-156013854D01*
X100287123Y-155843288D01*
X100208620Y-155653765D01*
X100168600Y-155452569D01*
X100168600Y-155247431D01*
X100208620Y-155046235D01*
X100287123Y-154856712D01*
X100401092Y-154686146D01*
X100546146Y-154541092D01*
X100716712Y-154427123D01*
X100740857Y-154417122D01*
X100906235Y-154348620D01*
X101107430Y-154308600D01*
X101312570Y-154308600D01*
X101513765Y-154348620D01*
X101513765Y-154348620D01*
G37*
G36*
X104053765Y-154338620D02*
G01*
X104243288Y-154417123D01*
X104413854Y-154531092D01*
X104558908Y-154676146D01*
X104672877Y-154846712D01*
X104751380Y-155036235D01*
X104791400Y-155237431D01*
X104791400Y-155442569D01*
X104751380Y-155643765D01*
X104672877Y-155833288D01*
X104558908Y-156003854D01*
X104413854Y-156148908D01*
X104243288Y-156262877D01*
X104243287Y-156262878D01*
X104243286Y-156262878D01*
X104053765Y-156341380D01*
X103852570Y-156381400D01*
X103647430Y-156381400D01*
X103446235Y-156341380D01*
X103256714Y-156262878D01*
X103256713Y-156262878D01*
X103256712Y-156262877D01*
X103086146Y-156148908D01*
X102941092Y-156003854D01*
X102827123Y-155833288D01*
X102748620Y-155643765D01*
X102708600Y-155442569D01*
X102708600Y-155237431D01*
X102748620Y-155036235D01*
X102827123Y-154846712D01*
X102941092Y-154676146D01*
X103086146Y-154531092D01*
X103256712Y-154417123D01*
X103446235Y-154338620D01*
X103647430Y-154298600D01*
X103852570Y-154298600D01*
X104053765Y-154338620D01*
X104053765Y-154338620D01*
G37*
G36*
X82541000Y-77321000D02*
G01*
X80939000Y-77321000D01*
X80939000Y-76219000D01*
X82541000Y-76219000D01*
X82541000Y-77321000D01*
X82541000Y-77321000D01*
G37*
G36*
X77641000Y-77321000D02*
G01*
X76039000Y-77321000D01*
X76039000Y-76219000D01*
X77641000Y-76219000D01*
X77641000Y-77321000D01*
X77641000Y-77321000D01*
G37*
G36*
X113131000Y-76811000D02*
G01*
X111529000Y-76811000D01*
X111529000Y-75709000D01*
X113131000Y-75709000D01*
X113131000Y-76811000D01*
X113131000Y-76811000D01*
G37*
G36*
X108231000Y-76811000D02*
G01*
X106629000Y-76811000D01*
X106629000Y-75709000D01*
X108231000Y-75709000D01*
X108231000Y-76811000D01*
X108231000Y-76811000D01*
G37*
G36*
X82541000Y-74121000D02*
G01*
X80939000Y-74121000D01*
X80939000Y-73019000D01*
X82541000Y-73019000D01*
X82541000Y-74121000D01*
X82541000Y-74121000D01*
G37*
G36*
X77641000Y-74121000D02*
G01*
X76039000Y-74121000D01*
X76039000Y-73019000D01*
X77641000Y-73019000D01*
X77641000Y-74121000D01*
X77641000Y-74121000D01*
G37*
G36*
X113131000Y-73611000D02*
G01*
X111529000Y-73611000D01*
X111529000Y-72509000D01*
X113131000Y-72509000D01*
X113131000Y-73611000D01*
X113131000Y-73611000D01*
G37*
G36*
X108231000Y-73611000D02*
G01*
X106629000Y-73611000D01*
X106629000Y-72509000D01*
X108231000Y-72509000D01*
X108231000Y-73611000D01*
X108231000Y-73611000D01*
G37*
G36*
X94865256Y-32331298D02*
G01*
X94971579Y-32352447D01*
X95272042Y-32476903D01*
X95542451Y-32657585D01*
X95772415Y-32887549D01*
X95953097Y-33157958D01*
X96077553Y-33458421D01*
X96141000Y-33777391D01*
X96141000Y-34102609D01*
X96077553Y-34421579D01*
X95953097Y-34722042D01*
X95772415Y-34992451D01*
X95542451Y-35222415D01*
X95272042Y-35403097D01*
X94971579Y-35527553D01*
X94865256Y-35548702D01*
X94652611Y-35591000D01*
X94327389Y-35591000D01*
X94114744Y-35548702D01*
X94008421Y-35527553D01*
X93707958Y-35403097D01*
X93437549Y-35222415D01*
X93207585Y-34992451D01*
X93026903Y-34722042D01*
X92902447Y-34421579D01*
X92839000Y-34102609D01*
X92839000Y-33777391D01*
X92902447Y-33458421D01*
X93026903Y-33157958D01*
X93207585Y-32887549D01*
X93437549Y-32657585D01*
X93707958Y-32476903D01*
X94008421Y-32352447D01*
X94114744Y-32331298D01*
X94327389Y-32289000D01*
X94652611Y-32289000D01*
X94865256Y-32331298D01*
X94865256Y-32331298D01*
G37*
M02*
