G04 #@! TF.GenerationSoftware,KiCad,Pcbnew,(5.1.2)-1*
G04 #@! TF.CreationDate,2023-11-06T09:23:23+09:00*
G04 #@! TF.ProjectId,gopher_m5stack,676f7068-6572-45f6-9d35-737461636b2e,rev?*
G04 #@! TF.SameCoordinates,Original*
G04 #@! TF.FileFunction,Copper,L1,Top*
G04 #@! TF.FilePolarity,Positive*
%FSLAX46Y46*%
G04 Gerber Fmt 4.6, Leading zero omitted, Abs format (unit mm)*
G04 Created by KiCad (PCBNEW (5.1.2)-1) date 2023-11-06 09:23:23*
%MOMM*%
%LPD*%
G04 APERTURE LIST*
%ADD10C,0.010000*%
G04 APERTURE END LIST*
D10*
G36*
X126149317Y-52914845D02*
G01*
X129110958Y-53147204D01*
X130634612Y-53368256D01*
X134631753Y-54318945D01*
X138407981Y-55663845D01*
X141782220Y-57331145D01*
X143630451Y-58522215D01*
X144876616Y-59419437D01*
X146714737Y-58671375D01*
X148643572Y-58124059D01*
X150793404Y-57893346D01*
X152911696Y-57978840D01*
X154745913Y-58380141D01*
X155451899Y-58685156D01*
X157362196Y-60015174D01*
X158899348Y-61682350D01*
X159520013Y-62693887D01*
X159962628Y-64054304D01*
X160222308Y-65824544D01*
X160278273Y-67686258D01*
X160109743Y-69321098D01*
X159984530Y-69810372D01*
X159218244Y-71359847D01*
X157999789Y-72928908D01*
X156551229Y-74260779D01*
X155611240Y-74867337D01*
X154274406Y-75569398D01*
X154778238Y-77548375D01*
X155196072Y-79269599D01*
X155541205Y-80910031D01*
X155821707Y-82568383D01*
X156045644Y-84343364D01*
X156221085Y-86333687D01*
X156356097Y-88638061D01*
X156458747Y-91355199D01*
X156537104Y-94583810D01*
X156599235Y-98422606D01*
X156620617Y-100090537D01*
X156788740Y-113930193D01*
X159497587Y-114795792D01*
X161569105Y-115563193D01*
X163000666Y-116369537D01*
X163877137Y-117290734D01*
X164283388Y-118402692D01*
X164337143Y-119124404D01*
X164088018Y-120858807D01*
X163407515Y-122313001D01*
X162395948Y-123292303D01*
X162116342Y-123434491D01*
X161011770Y-123558966D01*
X159655088Y-123217919D01*
X158291043Y-122490343D01*
X157678135Y-122002077D01*
X157369606Y-121747055D01*
X157178309Y-121737661D01*
X157088305Y-122084412D01*
X157083654Y-122897829D01*
X157148420Y-124288428D01*
X157204720Y-125284705D01*
X157306572Y-127175187D01*
X157423595Y-129529602D01*
X157542230Y-132065411D01*
X157648917Y-134500075D01*
X157661835Y-134809705D01*
X157695405Y-140669691D01*
X157308842Y-146216556D01*
X156516407Y-151389120D01*
X155332367Y-156126199D01*
X153770985Y-160366614D01*
X151846526Y-164049181D01*
X150344373Y-166195142D01*
X149551700Y-167225678D01*
X148998899Y-168000158D01*
X148791214Y-168370049D01*
X148795552Y-168381020D01*
X150457867Y-169684246D01*
X151905601Y-171275651D01*
X153019569Y-172983938D01*
X153680583Y-174637811D01*
X153810881Y-175589134D01*
X153485436Y-176930769D01*
X152614260Y-178191610D01*
X151366400Y-179161654D01*
X150696786Y-179457754D01*
X149481938Y-179678635D01*
X148364747Y-179413813D01*
X147226233Y-178600470D01*
X145947415Y-177175782D01*
X145649860Y-176792990D01*
X144669867Y-175618464D01*
X143695176Y-174629211D01*
X142929726Y-174031331D01*
X142902244Y-174016278D01*
X142154178Y-173689405D01*
X141519936Y-173700930D01*
X140657594Y-174071521D01*
X140481178Y-174162615D01*
X137705868Y-175388400D01*
X134373242Y-176487320D01*
X130648035Y-177407444D01*
X129400301Y-177655577D01*
X127667074Y-177956373D01*
X126029457Y-178178003D01*
X124323067Y-178331808D01*
X122383516Y-178429128D01*
X120046421Y-178481306D01*
X117165715Y-178499651D01*
X114448729Y-178495569D01*
X112311274Y-178465906D01*
X110607306Y-178399800D01*
X109190782Y-178286392D01*
X107915658Y-178114823D01*
X106635892Y-177874233D01*
X105563101Y-177636881D01*
X103686343Y-177163587D01*
X101793071Y-176617621D01*
X100170352Y-176084527D01*
X99509891Y-175833052D01*
X98283607Y-175347294D01*
X97486183Y-175129622D01*
X96877232Y-175159214D01*
X96216364Y-175415246D01*
X95983339Y-175527578D01*
X95059382Y-176094583D01*
X93866147Y-176980565D01*
X92671864Y-177985084D01*
X91583888Y-178932624D01*
X90783005Y-179481313D01*
X90023601Y-179739629D01*
X89060064Y-179816048D01*
X88517259Y-179820000D01*
X87213810Y-179765889D01*
X86340781Y-179539433D01*
X85606659Y-179044446D01*
X85293443Y-178756297D01*
X84256153Y-177445670D01*
X84019149Y-176525465D01*
X85027599Y-176525465D01*
X85247724Y-177231140D01*
X85685726Y-178073627D01*
X86131185Y-176985784D01*
X86688792Y-175902811D01*
X87393464Y-174898567D01*
X88108263Y-174128043D01*
X88696248Y-173746231D01*
X88955351Y-173789331D01*
X88973682Y-174320888D01*
X88435254Y-175260814D01*
X88190647Y-175586750D01*
X87280641Y-176984580D01*
X86961894Y-178068085D01*
X87238888Y-178799679D01*
X87774286Y-179078188D01*
X88669763Y-179175379D01*
X89614544Y-178928214D01*
X90743335Y-178272687D01*
X92190838Y-177144789D01*
X92631384Y-176770250D01*
X93824811Y-175805612D01*
X94939929Y-175010635D01*
X95761380Y-174537153D01*
X95847858Y-174502560D01*
X96556025Y-174172907D01*
X96830610Y-173900371D01*
X96538236Y-173318684D01*
X95833472Y-172489526D01*
X94900688Y-171590539D01*
X93924250Y-170799365D01*
X93088529Y-170293645D01*
X93086315Y-170292691D01*
X92251273Y-169981436D01*
X91574534Y-169935358D01*
X90753226Y-170176086D01*
X89953604Y-170516415D01*
X88599442Y-171310994D01*
X87243410Y-172427340D01*
X86068768Y-173681011D01*
X85258774Y-174887561D01*
X85034299Y-175467543D01*
X85027599Y-176525465D01*
X84019149Y-176525465D01*
X83917384Y-176130351D01*
X84255390Y-174714292D01*
X84338238Y-174537436D01*
X85267123Y-173056840D01*
X86502519Y-171626936D01*
X87797790Y-170519289D01*
X88229782Y-170252513D01*
X89229564Y-169713471D01*
X86836939Y-166829235D01*
X84566157Y-163701966D01*
X82823722Y-160467485D01*
X81669920Y-157252018D01*
X81251514Y-155134361D01*
X81147376Y-153872315D01*
X81064156Y-151980756D01*
X81002108Y-149576926D01*
X80961485Y-146778068D01*
X80942539Y-143701424D01*
X80945522Y-140464238D01*
X80970688Y-137183751D01*
X81018290Y-133977207D01*
X81088580Y-130961848D01*
X81181811Y-128254916D01*
X81192993Y-127992170D01*
X81267807Y-126095898D01*
X81316418Y-124497721D01*
X81335937Y-123329841D01*
X81323475Y-122724461D01*
X81309361Y-122669376D01*
X80976968Y-122873392D01*
X80288865Y-123381379D01*
X80039361Y-123574741D01*
X78420426Y-124569173D01*
X76995254Y-124849488D01*
X75737750Y-124413518D01*
X74621820Y-123259098D01*
X74525494Y-123116941D01*
X73757333Y-121465731D01*
X73721837Y-120894251D01*
X74454805Y-120894251D01*
X74759135Y-121320595D01*
X75451591Y-121127640D01*
X75639405Y-121009414D01*
X76610026Y-120496966D01*
X77139122Y-120570523D01*
X77251429Y-120989117D01*
X76983804Y-121484854D01*
X76751573Y-121549411D01*
X76115656Y-121812932D01*
X75800000Y-122109705D01*
X75531204Y-122707555D01*
X75800000Y-123230294D01*
X76644198Y-123735173D01*
X77810168Y-123663309D01*
X79182021Y-123033876D01*
X79853935Y-122559536D01*
X80691244Y-121870681D01*
X81170107Y-121289534D01*
X81403206Y-120565207D01*
X81503223Y-119446814D01*
X81531579Y-118824242D01*
X81541562Y-117567472D01*
X81465005Y-116668625D01*
X81318449Y-116320058D01*
X81316242Y-116320000D01*
X80722635Y-116450361D01*
X79684376Y-116786081D01*
X78426265Y-117244112D01*
X77173105Y-117741404D01*
X76149695Y-118194910D01*
X75901601Y-118320326D01*
X75028197Y-119037303D01*
X74561415Y-119872667D01*
X74454805Y-120894251D01*
X73721837Y-120894251D01*
X73660899Y-119913181D01*
X74234458Y-118540776D01*
X74632695Y-118078532D01*
X75580398Y-117396979D01*
X76972573Y-116682753D01*
X78541885Y-116048715D01*
X80020993Y-115607725D01*
X80788926Y-115479589D01*
X81156735Y-115377005D01*
X81412677Y-115085493D01*
X81556964Y-114521089D01*
X81589804Y-113599833D01*
X81511408Y-112237761D01*
X81321986Y-110350910D01*
X81021748Y-107855318D01*
X80812101Y-106213300D01*
X80339978Y-101605163D01*
X80071445Y-96798142D01*
X80019220Y-92855108D01*
X81655149Y-92855108D01*
X81846616Y-98848033D01*
X82370326Y-104247809D01*
X82569979Y-105858139D01*
X82738266Y-107402259D01*
X82876338Y-108951128D01*
X82985346Y-110575705D01*
X83066439Y-112346948D01*
X83120769Y-114335816D01*
X83149487Y-116613269D01*
X83153743Y-119250263D01*
X83134687Y-122317759D01*
X83093470Y-125886715D01*
X83031243Y-130028090D01*
X82949156Y-134812842D01*
X82905260Y-137237647D01*
X82828449Y-141564401D01*
X82774226Y-145218824D01*
X82749349Y-148275468D01*
X82760578Y-150808882D01*
X82814672Y-152893618D01*
X82918390Y-154604226D01*
X83078491Y-156015256D01*
X83301734Y-157201259D01*
X83594879Y-158236787D01*
X83964684Y-159196388D01*
X84417909Y-160154615D01*
X84961312Y-161186017D01*
X85099675Y-161441270D01*
X86040570Y-162973509D01*
X87194232Y-164553848D01*
X88448800Y-166060218D01*
X89692414Y-167370549D01*
X90813212Y-168362771D01*
X91699334Y-168914816D01*
X92014950Y-168987647D01*
X92964139Y-169121439D01*
X93935521Y-169583671D01*
X95077677Y-170465628D01*
X96301429Y-171621086D01*
X97644153Y-172785857D01*
X99165803Y-173739921D01*
X101016287Y-174553493D01*
X103345513Y-175296792D01*
X105153003Y-175767149D01*
X109677730Y-176593445D01*
X114667487Y-176992480D01*
X119989191Y-176960081D01*
X125509756Y-176492073D01*
X126055715Y-176422713D01*
X130093218Y-175743448D01*
X133860863Y-174812975D01*
X137260386Y-173667397D01*
X139568270Y-172625178D01*
X142507821Y-172625178D01*
X143716053Y-173395704D01*
X144601108Y-174122846D01*
X145628025Y-175198047D01*
X146329102Y-176066137D01*
X147462198Y-177487824D01*
X148376549Y-178328647D01*
X149198912Y-178664707D01*
X150056039Y-178572106D01*
X150337466Y-178472683D01*
X150760058Y-178187894D01*
X150861025Y-177696316D01*
X150623274Y-176857516D01*
X150029716Y-175531056D01*
X149962510Y-175391736D01*
X149488261Y-174308340D01*
X149230760Y-173507603D01*
X149228027Y-173210756D01*
X149664576Y-173203444D01*
X150249636Y-173827016D01*
X150917416Y-174998613D01*
X151268905Y-175781087D01*
X151773828Y-176864046D01*
X152131367Y-177300120D01*
X152391689Y-177170061D01*
X152741175Y-175956591D01*
X152557260Y-174526832D01*
X151943145Y-173023169D01*
X151002030Y-171587985D01*
X149837114Y-170363664D01*
X148551599Y-169492592D01*
X147248685Y-169117152D01*
X146590898Y-169166779D01*
X145792582Y-169554175D01*
X144779596Y-170317284D01*
X144048436Y-171009236D01*
X142507821Y-172625178D01*
X139568270Y-172625178D01*
X140193527Y-172342818D01*
X142562022Y-170875342D01*
X143655934Y-169956029D01*
X144637873Y-169081745D01*
X145473144Y-168463782D01*
X145963687Y-168240588D01*
X146546083Y-167946151D01*
X147401507Y-167152297D01*
X148418510Y-165993213D01*
X149485645Y-164603083D01*
X150491462Y-163116094D01*
X151151242Y-161994678D01*
X151844981Y-160552684D01*
X152613864Y-158695168D01*
X153336028Y-156725610D01*
X153642290Y-155791144D01*
X154495833Y-152679717D01*
X155148931Y-149412769D01*
X155607991Y-145896134D01*
X155879422Y-142035645D01*
X155969629Y-137737135D01*
X155885021Y-132906438D01*
X155632005Y-127449387D01*
X155603649Y-126965588D01*
X155518453Y-125254548D01*
X155426186Y-122907041D01*
X155329974Y-120033584D01*
X155232944Y-116744695D01*
X155204615Y-115669836D01*
X156867245Y-115669836D01*
X156897444Y-116615607D01*
X156980889Y-117901966D01*
X156984666Y-117950339D01*
X157108295Y-119309507D01*
X157292255Y-120156831D01*
X157654956Y-120725128D01*
X158314807Y-121247216D01*
X158836917Y-121592251D01*
X159993859Y-122296251D01*
X160798268Y-122610458D01*
X161475789Y-122596578D01*
X161948895Y-122443271D01*
X162468216Y-121978247D01*
X162333454Y-121309766D01*
X161561953Y-120517866D01*
X161525664Y-120490422D01*
X160874515Y-119838892D01*
X160857591Y-119449055D01*
X161398234Y-119432333D01*
X162067753Y-119702485D01*
X162861516Y-120110828D01*
X163339286Y-120354583D01*
X163591618Y-120227159D01*
X163635244Y-119633339D01*
X163505565Y-118810256D01*
X163237986Y-117995042D01*
X162907597Y-117463113D01*
X162346964Y-117098420D01*
X161362469Y-116636019D01*
X160148942Y-116147118D01*
X158901215Y-115702922D01*
X157814119Y-115374639D01*
X157082484Y-115233476D01*
X156896887Y-115266320D01*
X156867245Y-115669836D01*
X155204615Y-115669836D01*
X155138223Y-113150891D01*
X155048939Y-109362691D01*
X154968218Y-105490612D01*
X154916696Y-102686176D01*
X154841839Y-98480128D01*
X154772331Y-94944522D01*
X154704331Y-92002800D01*
X154633997Y-89578404D01*
X154557488Y-87594777D01*
X154470962Y-85975361D01*
X154370578Y-84643599D01*
X154252494Y-83522933D01*
X154112869Y-82536806D01*
X153947861Y-81608660D01*
X153829609Y-81021470D01*
X152549263Y-75826801D01*
X150991869Y-71296843D01*
X149122579Y-67392084D01*
X146906545Y-64073009D01*
X144308921Y-61300104D01*
X143431551Y-60640416D01*
X146207600Y-60640416D01*
X147152158Y-61679472D01*
X147944881Y-62617733D01*
X148598956Y-63498319D01*
X148637247Y-63556748D01*
X149110351Y-64094939D01*
X149746071Y-64253205D01*
X150604239Y-64160157D01*
X151675846Y-64086864D01*
X152439246Y-64378075D01*
X152922493Y-64787785D01*
X153665338Y-65950329D01*
X153729800Y-67259622D01*
X153110063Y-68581783D01*
X153088572Y-68610160D01*
X152627845Y-69247277D01*
X152430384Y-69763732D01*
X152499442Y-70388555D01*
X152838272Y-71350780D01*
X153138147Y-72100220D01*
X153913436Y-74025761D01*
X155129697Y-73287043D01*
X156228566Y-72462943D01*
X157214814Y-71484905D01*
X157247721Y-71445120D01*
X158295382Y-69635584D01*
X158743636Y-67635368D01*
X158635712Y-65589135D01*
X158014840Y-63641547D01*
X156924248Y-61937266D01*
X155407167Y-60620956D01*
X153801132Y-59911418D01*
X152146195Y-59659934D01*
X150201385Y-59667392D01*
X148326927Y-59915695D01*
X147198800Y-60243105D01*
X146207600Y-60640416D01*
X143431551Y-60640416D01*
X141294859Y-59033855D01*
X137829512Y-57234749D01*
X133878033Y-55863272D01*
X131044287Y-55184838D01*
X128432890Y-54805720D01*
X125277381Y-54594552D01*
X121738756Y-54542527D01*
X117978012Y-54640835D01*
X114156145Y-54880671D01*
X110434150Y-55253225D01*
X106973024Y-55749689D01*
X103933764Y-56361257D01*
X102488203Y-56747102D01*
X100156390Y-57540592D01*
X97710179Y-58540208D01*
X95359990Y-59647530D01*
X93316245Y-60764140D01*
X91920202Y-61690043D01*
X90213267Y-63303280D01*
X88494024Y-65494637D01*
X86855342Y-68103060D01*
X85390091Y-70967498D01*
X84191141Y-73926900D01*
X83459063Y-76363090D01*
X82467863Y-81446404D01*
X81864394Y-86999154D01*
X81655149Y-92855108D01*
X80019220Y-92855108D01*
X80007958Y-92004847D01*
X80150973Y-87437886D01*
X80501947Y-83309868D01*
X80647543Y-82192113D01*
X80883534Y-80469756D01*
X81060784Y-79042864D01*
X81162334Y-78058322D01*
X81171224Y-77663017D01*
X81170529Y-77662291D01*
X80810161Y-77450987D01*
X80022364Y-77027488D01*
X79558274Y-76784679D01*
X77587565Y-75362765D01*
X76060723Y-73444325D01*
X75070976Y-71184959D01*
X74711549Y-68740266D01*
X74711429Y-68695000D01*
X76707143Y-68695000D01*
X76731155Y-70267245D01*
X76838888Y-71325680D01*
X77083884Y-72102904D01*
X77519689Y-72831518D01*
X77724476Y-73114408D01*
X78533069Y-73989577D01*
X79591886Y-74867579D01*
X80665490Y-75576740D01*
X81518440Y-75945386D01*
X81630163Y-75962315D01*
X81840130Y-75646525D01*
X82172341Y-74811665D01*
X82467364Y-73917129D01*
X82809311Y-72739783D01*
X82916212Y-72018026D01*
X82778419Y-71497334D01*
X82386287Y-70923184D01*
X82352201Y-70878520D01*
X81704151Y-69500767D01*
X81736843Y-68059378D01*
X82199705Y-67054419D01*
X82718117Y-66490429D01*
X83403675Y-66299065D01*
X84286134Y-66349005D01*
X85083409Y-66407332D01*
X85652778Y-66282684D01*
X86179186Y-65853323D01*
X86847582Y-64997507D01*
X87295143Y-64368345D01*
X88811714Y-62220117D01*
X86995923Y-61771704D01*
X84491895Y-61440175D01*
X82114199Y-61666284D01*
X79998715Y-62412705D01*
X78281325Y-63642110D01*
X77684518Y-64329518D01*
X77188844Y-65076607D01*
X76895333Y-65814162D01*
X76752451Y-66772360D01*
X76708664Y-68181381D01*
X76707143Y-68695000D01*
X74711429Y-68695000D01*
X75043329Y-66315128D01*
X75972211Y-64105681D01*
X77397847Y-62221577D01*
X79220007Y-60817730D01*
X80070232Y-60412246D01*
X81885770Y-59948594D01*
X84056828Y-59776340D01*
X86270353Y-59896316D01*
X88213295Y-60309355D01*
X88444133Y-60389961D01*
X90021123Y-60974984D01*
X92174283Y-59542399D01*
X94401328Y-58237225D01*
X97084702Y-56943756D01*
X99962352Y-55779621D01*
X102288572Y-55002438D01*
X104878242Y-54372816D01*
X108015745Y-53837815D01*
X111536182Y-53406940D01*
X115274656Y-53089700D01*
X119066269Y-52895599D01*
X122746122Y-52834145D01*
X126149317Y-52914845D01*
X126149317Y-52914845D01*
G37*
X126149317Y-52914845D02*
X129110958Y-53147204D01*
X130634612Y-53368256D01*
X134631753Y-54318945D01*
X138407981Y-55663845D01*
X141782220Y-57331145D01*
X143630451Y-58522215D01*
X144876616Y-59419437D01*
X146714737Y-58671375D01*
X148643572Y-58124059D01*
X150793404Y-57893346D01*
X152911696Y-57978840D01*
X154745913Y-58380141D01*
X155451899Y-58685156D01*
X157362196Y-60015174D01*
X158899348Y-61682350D01*
X159520013Y-62693887D01*
X159962628Y-64054304D01*
X160222308Y-65824544D01*
X160278273Y-67686258D01*
X160109743Y-69321098D01*
X159984530Y-69810372D01*
X159218244Y-71359847D01*
X157999789Y-72928908D01*
X156551229Y-74260779D01*
X155611240Y-74867337D01*
X154274406Y-75569398D01*
X154778238Y-77548375D01*
X155196072Y-79269599D01*
X155541205Y-80910031D01*
X155821707Y-82568383D01*
X156045644Y-84343364D01*
X156221085Y-86333687D01*
X156356097Y-88638061D01*
X156458747Y-91355199D01*
X156537104Y-94583810D01*
X156599235Y-98422606D01*
X156620617Y-100090537D01*
X156788740Y-113930193D01*
X159497587Y-114795792D01*
X161569105Y-115563193D01*
X163000666Y-116369537D01*
X163877137Y-117290734D01*
X164283388Y-118402692D01*
X164337143Y-119124404D01*
X164088018Y-120858807D01*
X163407515Y-122313001D01*
X162395948Y-123292303D01*
X162116342Y-123434491D01*
X161011770Y-123558966D01*
X159655088Y-123217919D01*
X158291043Y-122490343D01*
X157678135Y-122002077D01*
X157369606Y-121747055D01*
X157178309Y-121737661D01*
X157088305Y-122084412D01*
X157083654Y-122897829D01*
X157148420Y-124288428D01*
X157204720Y-125284705D01*
X157306572Y-127175187D01*
X157423595Y-129529602D01*
X157542230Y-132065411D01*
X157648917Y-134500075D01*
X157661835Y-134809705D01*
X157695405Y-140669691D01*
X157308842Y-146216556D01*
X156516407Y-151389120D01*
X155332367Y-156126199D01*
X153770985Y-160366614D01*
X151846526Y-164049181D01*
X150344373Y-166195142D01*
X149551700Y-167225678D01*
X148998899Y-168000158D01*
X148791214Y-168370049D01*
X148795552Y-168381020D01*
X150457867Y-169684246D01*
X151905601Y-171275651D01*
X153019569Y-172983938D01*
X153680583Y-174637811D01*
X153810881Y-175589134D01*
X153485436Y-176930769D01*
X152614260Y-178191610D01*
X151366400Y-179161654D01*
X150696786Y-179457754D01*
X149481938Y-179678635D01*
X148364747Y-179413813D01*
X147226233Y-178600470D01*
X145947415Y-177175782D01*
X145649860Y-176792990D01*
X144669867Y-175618464D01*
X143695176Y-174629211D01*
X142929726Y-174031331D01*
X142902244Y-174016278D01*
X142154178Y-173689405D01*
X141519936Y-173700930D01*
X140657594Y-174071521D01*
X140481178Y-174162615D01*
X137705868Y-175388400D01*
X134373242Y-176487320D01*
X130648035Y-177407444D01*
X129400301Y-177655577D01*
X127667074Y-177956373D01*
X126029457Y-178178003D01*
X124323067Y-178331808D01*
X122383516Y-178429128D01*
X120046421Y-178481306D01*
X117165715Y-178499651D01*
X114448729Y-178495569D01*
X112311274Y-178465906D01*
X110607306Y-178399800D01*
X109190782Y-178286392D01*
X107915658Y-178114823D01*
X106635892Y-177874233D01*
X105563101Y-177636881D01*
X103686343Y-177163587D01*
X101793071Y-176617621D01*
X100170352Y-176084527D01*
X99509891Y-175833052D01*
X98283607Y-175347294D01*
X97486183Y-175129622D01*
X96877232Y-175159214D01*
X96216364Y-175415246D01*
X95983339Y-175527578D01*
X95059382Y-176094583D01*
X93866147Y-176980565D01*
X92671864Y-177985084D01*
X91583888Y-178932624D01*
X90783005Y-179481313D01*
X90023601Y-179739629D01*
X89060064Y-179816048D01*
X88517259Y-179820000D01*
X87213810Y-179765889D01*
X86340781Y-179539433D01*
X85606659Y-179044446D01*
X85293443Y-178756297D01*
X84256153Y-177445670D01*
X84019149Y-176525465D01*
X85027599Y-176525465D01*
X85247724Y-177231140D01*
X85685726Y-178073627D01*
X86131185Y-176985784D01*
X86688792Y-175902811D01*
X87393464Y-174898567D01*
X88108263Y-174128043D01*
X88696248Y-173746231D01*
X88955351Y-173789331D01*
X88973682Y-174320888D01*
X88435254Y-175260814D01*
X88190647Y-175586750D01*
X87280641Y-176984580D01*
X86961894Y-178068085D01*
X87238888Y-178799679D01*
X87774286Y-179078188D01*
X88669763Y-179175379D01*
X89614544Y-178928214D01*
X90743335Y-178272687D01*
X92190838Y-177144789D01*
X92631384Y-176770250D01*
X93824811Y-175805612D01*
X94939929Y-175010635D01*
X95761380Y-174537153D01*
X95847858Y-174502560D01*
X96556025Y-174172907D01*
X96830610Y-173900371D01*
X96538236Y-173318684D01*
X95833472Y-172489526D01*
X94900688Y-171590539D01*
X93924250Y-170799365D01*
X93088529Y-170293645D01*
X93086315Y-170292691D01*
X92251273Y-169981436D01*
X91574534Y-169935358D01*
X90753226Y-170176086D01*
X89953604Y-170516415D01*
X88599442Y-171310994D01*
X87243410Y-172427340D01*
X86068768Y-173681011D01*
X85258774Y-174887561D01*
X85034299Y-175467543D01*
X85027599Y-176525465D01*
X84019149Y-176525465D01*
X83917384Y-176130351D01*
X84255390Y-174714292D01*
X84338238Y-174537436D01*
X85267123Y-173056840D01*
X86502519Y-171626936D01*
X87797790Y-170519289D01*
X88229782Y-170252513D01*
X89229564Y-169713471D01*
X86836939Y-166829235D01*
X84566157Y-163701966D01*
X82823722Y-160467485D01*
X81669920Y-157252018D01*
X81251514Y-155134361D01*
X81147376Y-153872315D01*
X81064156Y-151980756D01*
X81002108Y-149576926D01*
X80961485Y-146778068D01*
X80942539Y-143701424D01*
X80945522Y-140464238D01*
X80970688Y-137183751D01*
X81018290Y-133977207D01*
X81088580Y-130961848D01*
X81181811Y-128254916D01*
X81192993Y-127992170D01*
X81267807Y-126095898D01*
X81316418Y-124497721D01*
X81335937Y-123329841D01*
X81323475Y-122724461D01*
X81309361Y-122669376D01*
X80976968Y-122873392D01*
X80288865Y-123381379D01*
X80039361Y-123574741D01*
X78420426Y-124569173D01*
X76995254Y-124849488D01*
X75737750Y-124413518D01*
X74621820Y-123259098D01*
X74525494Y-123116941D01*
X73757333Y-121465731D01*
X73721837Y-120894251D01*
X74454805Y-120894251D01*
X74759135Y-121320595D01*
X75451591Y-121127640D01*
X75639405Y-121009414D01*
X76610026Y-120496966D01*
X77139122Y-120570523D01*
X77251429Y-120989117D01*
X76983804Y-121484854D01*
X76751573Y-121549411D01*
X76115656Y-121812932D01*
X75800000Y-122109705D01*
X75531204Y-122707555D01*
X75800000Y-123230294D01*
X76644198Y-123735173D01*
X77810168Y-123663309D01*
X79182021Y-123033876D01*
X79853935Y-122559536D01*
X80691244Y-121870681D01*
X81170107Y-121289534D01*
X81403206Y-120565207D01*
X81503223Y-119446814D01*
X81531579Y-118824242D01*
X81541562Y-117567472D01*
X81465005Y-116668625D01*
X81318449Y-116320058D01*
X81316242Y-116320000D01*
X80722635Y-116450361D01*
X79684376Y-116786081D01*
X78426265Y-117244112D01*
X77173105Y-117741404D01*
X76149695Y-118194910D01*
X75901601Y-118320326D01*
X75028197Y-119037303D01*
X74561415Y-119872667D01*
X74454805Y-120894251D01*
X73721837Y-120894251D01*
X73660899Y-119913181D01*
X74234458Y-118540776D01*
X74632695Y-118078532D01*
X75580398Y-117396979D01*
X76972573Y-116682753D01*
X78541885Y-116048715D01*
X80020993Y-115607725D01*
X80788926Y-115479589D01*
X81156735Y-115377005D01*
X81412677Y-115085493D01*
X81556964Y-114521089D01*
X81589804Y-113599833D01*
X81511408Y-112237761D01*
X81321986Y-110350910D01*
X81021748Y-107855318D01*
X80812101Y-106213300D01*
X80339978Y-101605163D01*
X80071445Y-96798142D01*
X80019220Y-92855108D01*
X81655149Y-92855108D01*
X81846616Y-98848033D01*
X82370326Y-104247809D01*
X82569979Y-105858139D01*
X82738266Y-107402259D01*
X82876338Y-108951128D01*
X82985346Y-110575705D01*
X83066439Y-112346948D01*
X83120769Y-114335816D01*
X83149487Y-116613269D01*
X83153743Y-119250263D01*
X83134687Y-122317759D01*
X83093470Y-125886715D01*
X83031243Y-130028090D01*
X82949156Y-134812842D01*
X82905260Y-137237647D01*
X82828449Y-141564401D01*
X82774226Y-145218824D01*
X82749349Y-148275468D01*
X82760578Y-150808882D01*
X82814672Y-152893618D01*
X82918390Y-154604226D01*
X83078491Y-156015256D01*
X83301734Y-157201259D01*
X83594879Y-158236787D01*
X83964684Y-159196388D01*
X84417909Y-160154615D01*
X84961312Y-161186017D01*
X85099675Y-161441270D01*
X86040570Y-162973509D01*
X87194232Y-164553848D01*
X88448800Y-166060218D01*
X89692414Y-167370549D01*
X90813212Y-168362771D01*
X91699334Y-168914816D01*
X92014950Y-168987647D01*
X92964139Y-169121439D01*
X93935521Y-169583671D01*
X95077677Y-170465628D01*
X96301429Y-171621086D01*
X97644153Y-172785857D01*
X99165803Y-173739921D01*
X101016287Y-174553493D01*
X103345513Y-175296792D01*
X105153003Y-175767149D01*
X109677730Y-176593445D01*
X114667487Y-176992480D01*
X119989191Y-176960081D01*
X125509756Y-176492073D01*
X126055715Y-176422713D01*
X130093218Y-175743448D01*
X133860863Y-174812975D01*
X137260386Y-173667397D01*
X139568270Y-172625178D01*
X142507821Y-172625178D01*
X143716053Y-173395704D01*
X144601108Y-174122846D01*
X145628025Y-175198047D01*
X146329102Y-176066137D01*
X147462198Y-177487824D01*
X148376549Y-178328647D01*
X149198912Y-178664707D01*
X150056039Y-178572106D01*
X150337466Y-178472683D01*
X150760058Y-178187894D01*
X150861025Y-177696316D01*
X150623274Y-176857516D01*
X150029716Y-175531056D01*
X149962510Y-175391736D01*
X149488261Y-174308340D01*
X149230760Y-173507603D01*
X149228027Y-173210756D01*
X149664576Y-173203444D01*
X150249636Y-173827016D01*
X150917416Y-174998613D01*
X151268905Y-175781087D01*
X151773828Y-176864046D01*
X152131367Y-177300120D01*
X152391689Y-177170061D01*
X152741175Y-175956591D01*
X152557260Y-174526832D01*
X151943145Y-173023169D01*
X151002030Y-171587985D01*
X149837114Y-170363664D01*
X148551599Y-169492592D01*
X147248685Y-169117152D01*
X146590898Y-169166779D01*
X145792582Y-169554175D01*
X144779596Y-170317284D01*
X144048436Y-171009236D01*
X142507821Y-172625178D01*
X139568270Y-172625178D01*
X140193527Y-172342818D01*
X142562022Y-170875342D01*
X143655934Y-169956029D01*
X144637873Y-169081745D01*
X145473144Y-168463782D01*
X145963687Y-168240588D01*
X146546083Y-167946151D01*
X147401507Y-167152297D01*
X148418510Y-165993213D01*
X149485645Y-164603083D01*
X150491462Y-163116094D01*
X151151242Y-161994678D01*
X151844981Y-160552684D01*
X152613864Y-158695168D01*
X153336028Y-156725610D01*
X153642290Y-155791144D01*
X154495833Y-152679717D01*
X155148931Y-149412769D01*
X155607991Y-145896134D01*
X155879422Y-142035645D01*
X155969629Y-137737135D01*
X155885021Y-132906438D01*
X155632005Y-127449387D01*
X155603649Y-126965588D01*
X155518453Y-125254548D01*
X155426186Y-122907041D01*
X155329974Y-120033584D01*
X155232944Y-116744695D01*
X155204615Y-115669836D01*
X156867245Y-115669836D01*
X156897444Y-116615607D01*
X156980889Y-117901966D01*
X156984666Y-117950339D01*
X157108295Y-119309507D01*
X157292255Y-120156831D01*
X157654956Y-120725128D01*
X158314807Y-121247216D01*
X158836917Y-121592251D01*
X159993859Y-122296251D01*
X160798268Y-122610458D01*
X161475789Y-122596578D01*
X161948895Y-122443271D01*
X162468216Y-121978247D01*
X162333454Y-121309766D01*
X161561953Y-120517866D01*
X161525664Y-120490422D01*
X160874515Y-119838892D01*
X160857591Y-119449055D01*
X161398234Y-119432333D01*
X162067753Y-119702485D01*
X162861516Y-120110828D01*
X163339286Y-120354583D01*
X163591618Y-120227159D01*
X163635244Y-119633339D01*
X163505565Y-118810256D01*
X163237986Y-117995042D01*
X162907597Y-117463113D01*
X162346964Y-117098420D01*
X161362469Y-116636019D01*
X160148942Y-116147118D01*
X158901215Y-115702922D01*
X157814119Y-115374639D01*
X157082484Y-115233476D01*
X156896887Y-115266320D01*
X156867245Y-115669836D01*
X155204615Y-115669836D01*
X155138223Y-113150891D01*
X155048939Y-109362691D01*
X154968218Y-105490612D01*
X154916696Y-102686176D01*
X154841839Y-98480128D01*
X154772331Y-94944522D01*
X154704331Y-92002800D01*
X154633997Y-89578404D01*
X154557488Y-87594777D01*
X154470962Y-85975361D01*
X154370578Y-84643599D01*
X154252494Y-83522933D01*
X154112869Y-82536806D01*
X153947861Y-81608660D01*
X153829609Y-81021470D01*
X152549263Y-75826801D01*
X150991869Y-71296843D01*
X149122579Y-67392084D01*
X146906545Y-64073009D01*
X144308921Y-61300104D01*
X143431551Y-60640416D01*
X146207600Y-60640416D01*
X147152158Y-61679472D01*
X147944881Y-62617733D01*
X148598956Y-63498319D01*
X148637247Y-63556748D01*
X149110351Y-64094939D01*
X149746071Y-64253205D01*
X150604239Y-64160157D01*
X151675846Y-64086864D01*
X152439246Y-64378075D01*
X152922493Y-64787785D01*
X153665338Y-65950329D01*
X153729800Y-67259622D01*
X153110063Y-68581783D01*
X153088572Y-68610160D01*
X152627845Y-69247277D01*
X152430384Y-69763732D01*
X152499442Y-70388555D01*
X152838272Y-71350780D01*
X153138147Y-72100220D01*
X153913436Y-74025761D01*
X155129697Y-73287043D01*
X156228566Y-72462943D01*
X157214814Y-71484905D01*
X157247721Y-71445120D01*
X158295382Y-69635584D01*
X158743636Y-67635368D01*
X158635712Y-65589135D01*
X158014840Y-63641547D01*
X156924248Y-61937266D01*
X155407167Y-60620956D01*
X153801132Y-59911418D01*
X152146195Y-59659934D01*
X150201385Y-59667392D01*
X148326927Y-59915695D01*
X147198800Y-60243105D01*
X146207600Y-60640416D01*
X143431551Y-60640416D01*
X141294859Y-59033855D01*
X137829512Y-57234749D01*
X133878033Y-55863272D01*
X131044287Y-55184838D01*
X128432890Y-54805720D01*
X125277381Y-54594552D01*
X121738756Y-54542527D01*
X117978012Y-54640835D01*
X114156145Y-54880671D01*
X110434150Y-55253225D01*
X106973024Y-55749689D01*
X103933764Y-56361257D01*
X102488203Y-56747102D01*
X100156390Y-57540592D01*
X97710179Y-58540208D01*
X95359990Y-59647530D01*
X93316245Y-60764140D01*
X91920202Y-61690043D01*
X90213267Y-63303280D01*
X88494024Y-65494637D01*
X86855342Y-68103060D01*
X85390091Y-70967498D01*
X84191141Y-73926900D01*
X83459063Y-76363090D01*
X82467863Y-81446404D01*
X81864394Y-86999154D01*
X81655149Y-92855108D01*
X80019220Y-92855108D01*
X80007958Y-92004847D01*
X80150973Y-87437886D01*
X80501947Y-83309868D01*
X80647543Y-82192113D01*
X80883534Y-80469756D01*
X81060784Y-79042864D01*
X81162334Y-78058322D01*
X81171224Y-77663017D01*
X81170529Y-77662291D01*
X80810161Y-77450987D01*
X80022364Y-77027488D01*
X79558274Y-76784679D01*
X77587565Y-75362765D01*
X76060723Y-73444325D01*
X75070976Y-71184959D01*
X74711549Y-68740266D01*
X74711429Y-68695000D01*
X76707143Y-68695000D01*
X76731155Y-70267245D01*
X76838888Y-71325680D01*
X77083884Y-72102904D01*
X77519689Y-72831518D01*
X77724476Y-73114408D01*
X78533069Y-73989577D01*
X79591886Y-74867579D01*
X80665490Y-75576740D01*
X81518440Y-75945386D01*
X81630163Y-75962315D01*
X81840130Y-75646525D01*
X82172341Y-74811665D01*
X82467364Y-73917129D01*
X82809311Y-72739783D01*
X82916212Y-72018026D01*
X82778419Y-71497334D01*
X82386287Y-70923184D01*
X82352201Y-70878520D01*
X81704151Y-69500767D01*
X81736843Y-68059378D01*
X82199705Y-67054419D01*
X82718117Y-66490429D01*
X83403675Y-66299065D01*
X84286134Y-66349005D01*
X85083409Y-66407332D01*
X85652778Y-66282684D01*
X86179186Y-65853323D01*
X86847582Y-64997507D01*
X87295143Y-64368345D01*
X88811714Y-62220117D01*
X86995923Y-61771704D01*
X84491895Y-61440175D01*
X82114199Y-61666284D01*
X79998715Y-62412705D01*
X78281325Y-63642110D01*
X77684518Y-64329518D01*
X77188844Y-65076607D01*
X76895333Y-65814162D01*
X76752451Y-66772360D01*
X76708664Y-68181381D01*
X76707143Y-68695000D01*
X74711429Y-68695000D01*
X75043329Y-66315128D01*
X75972211Y-64105681D01*
X77397847Y-62221577D01*
X79220007Y-60817730D01*
X80070232Y-60412246D01*
X81885770Y-59948594D01*
X84056828Y-59776340D01*
X86270353Y-59896316D01*
X88213295Y-60309355D01*
X88444133Y-60389961D01*
X90021123Y-60974984D01*
X92174283Y-59542399D01*
X94401328Y-58237225D01*
X97084702Y-56943756D01*
X99962352Y-55779621D01*
X102288572Y-55002438D01*
X104878242Y-54372816D01*
X108015745Y-53837815D01*
X111536182Y-53406940D01*
X115274656Y-53089700D01*
X119066269Y-52895599D01*
X122746122Y-52834145D01*
X126149317Y-52914845D01*
G36*
X120202404Y-79120490D02*
G01*
X120994554Y-79449667D01*
X121520000Y-79787250D01*
X122557432Y-80792437D01*
X122904251Y-81681185D01*
X123284572Y-82606577D01*
X124207366Y-83271043D01*
X125818282Y-84319028D01*
X126986636Y-85599141D01*
X127699453Y-86994298D01*
X127943758Y-88387413D01*
X127706579Y-89661404D01*
X126974941Y-90699185D01*
X125735870Y-91383674D01*
X125122305Y-91527943D01*
X123697143Y-91762539D01*
X123697143Y-94868618D01*
X123677712Y-96425959D01*
X123593208Y-97416487D01*
X123404315Y-98019978D01*
X123071716Y-98416207D01*
X122890691Y-98556172D01*
X121736619Y-99039565D01*
X120445107Y-99080936D01*
X119329469Y-98688871D01*
X119038304Y-98450606D01*
X118523578Y-97996304D01*
X118103703Y-98027880D01*
X117546677Y-98450606D01*
X116310487Y-99071411D01*
X115003889Y-99069650D01*
X113852386Y-98464399D01*
X113525364Y-98110441D01*
X113121300Y-97491399D01*
X112903184Y-96811012D01*
X112835784Y-95850157D01*
X112870634Y-94791635D01*
X113908632Y-94791635D01*
X113938850Y-96176591D01*
X114059335Y-97208847D01*
X114120251Y-97426214D01*
X114620645Y-97860178D01*
X115493104Y-98011275D01*
X116438118Y-97879769D01*
X117156174Y-97465919D01*
X117192505Y-97423534D01*
X117451371Y-96737730D01*
X117666453Y-95459113D01*
X117802477Y-93866563D01*
X118966520Y-93866563D01*
X119012990Y-95229983D01*
X119128888Y-96406028D01*
X119316281Y-97208309D01*
X119355624Y-97294556D01*
X120006222Y-97850406D01*
X120975352Y-98008204D01*
X121959357Y-97754435D01*
X122401225Y-97430084D01*
X122747618Y-96954205D01*
X122920299Y-96312441D01*
X122933721Y-95330748D01*
X122802335Y-93835080D01*
X122743062Y-93313298D01*
X122568286Y-92168297D01*
X122283820Y-91524486D01*
X121732210Y-91137616D01*
X121204073Y-90925950D01*
X120226279Y-90564100D01*
X119511186Y-90296516D01*
X119433572Y-90266953D01*
X119223004Y-90515964D01*
X119073595Y-91323163D01*
X118987411Y-92502160D01*
X118966520Y-93866563D01*
X117802477Y-93866563D01*
X117813145Y-93741669D01*
X117828216Y-93445259D01*
X117985420Y-90060508D01*
X117121996Y-90312481D01*
X116060325Y-90597380D01*
X115298512Y-90781136D01*
X114505157Y-91201377D01*
X114119808Y-92123201D01*
X114119227Y-92126188D01*
X113968739Y-93344620D01*
X113908632Y-94791635D01*
X112870634Y-94791635D01*
X112883867Y-94389708D01*
X112894735Y-94188382D01*
X113054273Y-91293529D01*
X111726102Y-91293529D01*
X110380180Y-91019781D01*
X109614548Y-90435130D01*
X108769329Y-89038289D01*
X108666199Y-88167061D01*
X109567631Y-88167061D01*
X110005427Y-89314531D01*
X110146239Y-89489852D01*
X111050607Y-90004364D01*
X112455109Y-90163176D01*
X114219994Y-89963018D01*
X115565903Y-89616690D01*
X117460122Y-89168173D01*
X119072491Y-89164593D01*
X120711247Y-89616023D01*
X121157143Y-89799411D01*
X123039808Y-90386472D01*
X124714522Y-90471522D01*
X126030323Y-90049560D01*
X126156405Y-89964995D01*
X126818315Y-89096457D01*
X126931900Y-87972589D01*
X126554196Y-86750083D01*
X125742236Y-85585633D01*
X124553056Y-84635933D01*
X124137845Y-84419370D01*
X123216060Y-84024279D01*
X122563164Y-83930774D01*
X121844626Y-84150314D01*
X121066900Y-84524559D01*
X118969399Y-85183268D01*
X116713696Y-85235151D01*
X114568833Y-84677254D01*
X114392062Y-84597798D01*
X113436581Y-84183987D01*
X112821265Y-84090725D01*
X112232106Y-84315126D01*
X111803699Y-84573999D01*
X110512332Y-85661655D01*
X109751788Y-86904389D01*
X109567631Y-88167061D01*
X108666199Y-88167061D01*
X108590308Y-87525956D01*
X109054548Y-86016830D01*
X110139113Y-84629609D01*
X110846289Y-84060705D01*
X111839551Y-83169817D01*
X112639658Y-82126219D01*
X112747352Y-81928751D01*
X113668579Y-80546247D01*
X114888527Y-79653797D01*
X116551980Y-79168815D01*
X117812314Y-79039661D01*
X119231730Y-79001983D01*
X120202404Y-79120490D01*
X120202404Y-79120490D01*
G37*
X120202404Y-79120490D02*
X120994554Y-79449667D01*
X121520000Y-79787250D01*
X122557432Y-80792437D01*
X122904251Y-81681185D01*
X123284572Y-82606577D01*
X124207366Y-83271043D01*
X125818282Y-84319028D01*
X126986636Y-85599141D01*
X127699453Y-86994298D01*
X127943758Y-88387413D01*
X127706579Y-89661404D01*
X126974941Y-90699185D01*
X125735870Y-91383674D01*
X125122305Y-91527943D01*
X123697143Y-91762539D01*
X123697143Y-94868618D01*
X123677712Y-96425959D01*
X123593208Y-97416487D01*
X123404315Y-98019978D01*
X123071716Y-98416207D01*
X122890691Y-98556172D01*
X121736619Y-99039565D01*
X120445107Y-99080936D01*
X119329469Y-98688871D01*
X119038304Y-98450606D01*
X118523578Y-97996304D01*
X118103703Y-98027880D01*
X117546677Y-98450606D01*
X116310487Y-99071411D01*
X115003889Y-99069650D01*
X113852386Y-98464399D01*
X113525364Y-98110441D01*
X113121300Y-97491399D01*
X112903184Y-96811012D01*
X112835784Y-95850157D01*
X112870634Y-94791635D01*
X113908632Y-94791635D01*
X113938850Y-96176591D01*
X114059335Y-97208847D01*
X114120251Y-97426214D01*
X114620645Y-97860178D01*
X115493104Y-98011275D01*
X116438118Y-97879769D01*
X117156174Y-97465919D01*
X117192505Y-97423534D01*
X117451371Y-96737730D01*
X117666453Y-95459113D01*
X117802477Y-93866563D01*
X118966520Y-93866563D01*
X119012990Y-95229983D01*
X119128888Y-96406028D01*
X119316281Y-97208309D01*
X119355624Y-97294556D01*
X120006222Y-97850406D01*
X120975352Y-98008204D01*
X121959357Y-97754435D01*
X122401225Y-97430084D01*
X122747618Y-96954205D01*
X122920299Y-96312441D01*
X122933721Y-95330748D01*
X122802335Y-93835080D01*
X122743062Y-93313298D01*
X122568286Y-92168297D01*
X122283820Y-91524486D01*
X121732210Y-91137616D01*
X121204073Y-90925950D01*
X120226279Y-90564100D01*
X119511186Y-90296516D01*
X119433572Y-90266953D01*
X119223004Y-90515964D01*
X119073595Y-91323163D01*
X118987411Y-92502160D01*
X118966520Y-93866563D01*
X117802477Y-93866563D01*
X117813145Y-93741669D01*
X117828216Y-93445259D01*
X117985420Y-90060508D01*
X117121996Y-90312481D01*
X116060325Y-90597380D01*
X115298512Y-90781136D01*
X114505157Y-91201377D01*
X114119808Y-92123201D01*
X114119227Y-92126188D01*
X113968739Y-93344620D01*
X113908632Y-94791635D01*
X112870634Y-94791635D01*
X112883867Y-94389708D01*
X112894735Y-94188382D01*
X113054273Y-91293529D01*
X111726102Y-91293529D01*
X110380180Y-91019781D01*
X109614548Y-90435130D01*
X108769329Y-89038289D01*
X108666199Y-88167061D01*
X109567631Y-88167061D01*
X110005427Y-89314531D01*
X110146239Y-89489852D01*
X111050607Y-90004364D01*
X112455109Y-90163176D01*
X114219994Y-89963018D01*
X115565903Y-89616690D01*
X117460122Y-89168173D01*
X119072491Y-89164593D01*
X120711247Y-89616023D01*
X121157143Y-89799411D01*
X123039808Y-90386472D01*
X124714522Y-90471522D01*
X126030323Y-90049560D01*
X126156405Y-89964995D01*
X126818315Y-89096457D01*
X126931900Y-87972589D01*
X126554196Y-86750083D01*
X125742236Y-85585633D01*
X124553056Y-84635933D01*
X124137845Y-84419370D01*
X123216060Y-84024279D01*
X122563164Y-83930774D01*
X121844626Y-84150314D01*
X121066900Y-84524559D01*
X118969399Y-85183268D01*
X116713696Y-85235151D01*
X114568833Y-84677254D01*
X114392062Y-84597798D01*
X113436581Y-84183987D01*
X112821265Y-84090725D01*
X112232106Y-84315126D01*
X111803699Y-84573999D01*
X110512332Y-85661655D01*
X109751788Y-86904389D01*
X109567631Y-88167061D01*
X108666199Y-88167061D01*
X108590308Y-87525956D01*
X109054548Y-86016830D01*
X110139113Y-84629609D01*
X110846289Y-84060705D01*
X111839551Y-83169817D01*
X112639658Y-82126219D01*
X112747352Y-81928751D01*
X113668579Y-80546247D01*
X114888527Y-79653797D01*
X116551980Y-79168815D01*
X117812314Y-79039661D01*
X119231730Y-79001983D01*
X120202404Y-79120490D01*
G36*
X104871359Y-60532525D02*
G01*
X106130816Y-60720591D01*
X107283558Y-61110994D01*
X108168228Y-61527445D01*
X110738244Y-63191113D01*
X112724673Y-65281812D01*
X114103798Y-67761134D01*
X114851900Y-70590674D01*
X114988572Y-72571409D01*
X114653913Y-75318144D01*
X113710014Y-77805141D01*
X112246990Y-79972173D01*
X110354957Y-81759014D01*
X108124030Y-83105436D01*
X105644326Y-83951212D01*
X103005961Y-84236114D01*
X100299048Y-83899915D01*
X98769582Y-83411089D01*
X97449189Y-82732701D01*
X96004359Y-81758379D01*
X95068571Y-80984910D01*
X93126238Y-78736552D01*
X91843816Y-76238905D01*
X91236012Y-73567507D01*
X91280014Y-72072506D01*
X92287595Y-72072506D01*
X92450736Y-74478542D01*
X93068712Y-76605604D01*
X93127516Y-76733401D01*
X94332483Y-78655593D01*
X95969035Y-80415612D01*
X97810151Y-81792357D01*
X98864879Y-82321167D01*
X100916069Y-82861843D01*
X103273624Y-83043174D01*
X105604265Y-82858698D01*
X107120400Y-82481213D01*
X108332950Y-81890429D01*
X109692024Y-80986504D01*
X110582904Y-80251030D01*
X112350149Y-78161282D01*
X113498088Y-75819691D01*
X114041946Y-73336962D01*
X113996945Y-70823798D01*
X113378307Y-68390903D01*
X112201256Y-66148980D01*
X110481014Y-64208734D01*
X108232805Y-62680868D01*
X108161885Y-62644838D01*
X106910210Y-62081298D01*
X105761546Y-61763564D01*
X104409065Y-61627419D01*
X103197418Y-61605781D01*
X100261778Y-61920373D01*
X97712276Y-62860910D01*
X95565595Y-64417385D01*
X93838417Y-66579790D01*
X93304332Y-67540786D01*
X92573918Y-69666815D01*
X92287595Y-72072506D01*
X91280014Y-72072506D01*
X91317530Y-70797894D01*
X92103076Y-68005606D01*
X92408169Y-67319157D01*
X94011539Y-64710745D01*
X96026050Y-62716276D01*
X98434433Y-61346691D01*
X101219423Y-60612933D01*
X103197418Y-60482071D01*
X104871359Y-60532525D01*
X104871359Y-60532525D01*
G37*
X104871359Y-60532525D02*
X106130816Y-60720591D01*
X107283558Y-61110994D01*
X108168228Y-61527445D01*
X110738244Y-63191113D01*
X112724673Y-65281812D01*
X114103798Y-67761134D01*
X114851900Y-70590674D01*
X114988572Y-72571409D01*
X114653913Y-75318144D01*
X113710014Y-77805141D01*
X112246990Y-79972173D01*
X110354957Y-81759014D01*
X108124030Y-83105436D01*
X105644326Y-83951212D01*
X103005961Y-84236114D01*
X100299048Y-83899915D01*
X98769582Y-83411089D01*
X97449189Y-82732701D01*
X96004359Y-81758379D01*
X95068571Y-80984910D01*
X93126238Y-78736552D01*
X91843816Y-76238905D01*
X91236012Y-73567507D01*
X91280014Y-72072506D01*
X92287595Y-72072506D01*
X92450736Y-74478542D01*
X93068712Y-76605604D01*
X93127516Y-76733401D01*
X94332483Y-78655593D01*
X95969035Y-80415612D01*
X97810151Y-81792357D01*
X98864879Y-82321167D01*
X100916069Y-82861843D01*
X103273624Y-83043174D01*
X105604265Y-82858698D01*
X107120400Y-82481213D01*
X108332950Y-81890429D01*
X109692024Y-80986504D01*
X110582904Y-80251030D01*
X112350149Y-78161282D01*
X113498088Y-75819691D01*
X114041946Y-73336962D01*
X113996945Y-70823798D01*
X113378307Y-68390903D01*
X112201256Y-66148980D01*
X110481014Y-64208734D01*
X108232805Y-62680868D01*
X108161885Y-62644838D01*
X106910210Y-62081298D01*
X105761546Y-61763564D01*
X104409065Y-61627419D01*
X103197418Y-61605781D01*
X100261778Y-61920373D01*
X97712276Y-62860910D01*
X95565595Y-64417385D01*
X93838417Y-66579790D01*
X93304332Y-67540786D01*
X92573918Y-69666815D01*
X92287595Y-72072506D01*
X91280014Y-72072506D01*
X91317530Y-70797894D01*
X92103076Y-68005606D01*
X92408169Y-67319157D01*
X94011539Y-64710745D01*
X96026050Y-62716276D01*
X98434433Y-61346691D01*
X101219423Y-60612933D01*
X103197418Y-60482071D01*
X104871359Y-60532525D01*
G36*
X133891367Y-59398810D02*
G01*
X136104211Y-59882439D01*
X136838823Y-60178059D01*
X138758523Y-61364804D01*
X140587772Y-62994471D01*
X142108558Y-64846784D01*
X142971059Y-66373976D01*
X143687105Y-68826992D01*
X143886761Y-71519598D01*
X143573918Y-74187174D01*
X142823312Y-76420187D01*
X141295879Y-78808161D01*
X139264440Y-80696478D01*
X136803328Y-82036765D01*
X133986874Y-82780651D01*
X132873961Y-82894779D01*
X131427210Y-82929020D01*
X130116283Y-82867124D01*
X129321429Y-82743367D01*
X126506984Y-81598951D01*
X124083365Y-79873447D01*
X122134633Y-77639292D01*
X120985006Y-75559614D01*
X120198248Y-72899552D01*
X120106727Y-70767012D01*
X121157143Y-70767012D01*
X121221805Y-72282730D01*
X121389637Y-73691016D01*
X121577552Y-74522348D01*
X122742251Y-76951613D01*
X124426401Y-78952912D01*
X126524978Y-80478878D01*
X128932962Y-81482143D01*
X131545330Y-81915340D01*
X134257061Y-81731103D01*
X136292817Y-81159266D01*
X138598413Y-79922958D01*
X140437644Y-78207752D01*
X141788073Y-76125735D01*
X142627264Y-73788993D01*
X142932779Y-71309613D01*
X142682180Y-68799681D01*
X141853032Y-66371284D01*
X140422896Y-64136509D01*
X139832191Y-63478039D01*
X138133481Y-62010415D01*
X136305401Y-61055025D01*
X134140803Y-60523604D01*
X132533471Y-60368019D01*
X130929340Y-60311239D01*
X129768230Y-60386191D01*
X128772624Y-60635556D01*
X127665005Y-61102017D01*
X127618343Y-61123958D01*
X125078520Y-62655212D01*
X123160992Y-64554759D01*
X121876048Y-66807242D01*
X121233974Y-69397309D01*
X121157143Y-70767012D01*
X120106727Y-70767012D01*
X120082444Y-70201200D01*
X120596438Y-67570250D01*
X121699074Y-65112393D01*
X123349198Y-62933317D01*
X125505655Y-61138715D01*
X126909169Y-60345856D01*
X129025920Y-59635046D01*
X131442628Y-59317855D01*
X133891367Y-59398810D01*
X133891367Y-59398810D01*
G37*
X133891367Y-59398810D02*
X136104211Y-59882439D01*
X136838823Y-60178059D01*
X138758523Y-61364804D01*
X140587772Y-62994471D01*
X142108558Y-64846784D01*
X142971059Y-66373976D01*
X143687105Y-68826992D01*
X143886761Y-71519598D01*
X143573918Y-74187174D01*
X142823312Y-76420187D01*
X141295879Y-78808161D01*
X139264440Y-80696478D01*
X136803328Y-82036765D01*
X133986874Y-82780651D01*
X132873961Y-82894779D01*
X131427210Y-82929020D01*
X130116283Y-82867124D01*
X129321429Y-82743367D01*
X126506984Y-81598951D01*
X124083365Y-79873447D01*
X122134633Y-77639292D01*
X120985006Y-75559614D01*
X120198248Y-72899552D01*
X120106727Y-70767012D01*
X121157143Y-70767012D01*
X121221805Y-72282730D01*
X121389637Y-73691016D01*
X121577552Y-74522348D01*
X122742251Y-76951613D01*
X124426401Y-78952912D01*
X126524978Y-80478878D01*
X128932962Y-81482143D01*
X131545330Y-81915340D01*
X134257061Y-81731103D01*
X136292817Y-81159266D01*
X138598413Y-79922958D01*
X140437644Y-78207752D01*
X141788073Y-76125735D01*
X142627264Y-73788993D01*
X142932779Y-71309613D01*
X142682180Y-68799681D01*
X141853032Y-66371284D01*
X140422896Y-64136509D01*
X139832191Y-63478039D01*
X138133481Y-62010415D01*
X136305401Y-61055025D01*
X134140803Y-60523604D01*
X132533471Y-60368019D01*
X130929340Y-60311239D01*
X129768230Y-60386191D01*
X128772624Y-60635556D01*
X127665005Y-61102017D01*
X127618343Y-61123958D01*
X125078520Y-62655212D01*
X123160992Y-64554759D01*
X121876048Y-66807242D01*
X121233974Y-69397309D01*
X121157143Y-70767012D01*
X120106727Y-70767012D01*
X120082444Y-70201200D01*
X120596438Y-67570250D01*
X121699074Y-65112393D01*
X123349198Y-62933317D01*
X125505655Y-61138715D01*
X126909169Y-60345856D01*
X129025920Y-59635046D01*
X131442628Y-59317855D01*
X133891367Y-59398810D01*
M02*
