G04 #@! TF.GenerationSoftware,KiCad,Pcbnew,(5.1.2)-1*
G04 #@! TF.CreationDate,2023-11-06T09:23:23+09:00*
G04 #@! TF.ProjectId,gopher_m5stack,676f7068-6572-45f6-9d35-737461636b2e,rev?*
G04 #@! TF.SameCoordinates,Original*
G04 #@! TF.FileFunction,Legend,Top*
G04 #@! TF.FilePolarity,Positive*
%FSLAX46Y46*%
G04 Gerber Fmt 4.6, Leading zero omitted, Abs format (unit mm)*
G04 Created by KiCad (PCBNEW (5.1.2)-1) date 2023-11-06 09:23:23*
%MOMM*%
%LPD*%
G04 APERTURE LIST*
%ADD10C,0.120000*%
%ADD11C,0.150000*%
%ADD12C,0.100000*%
%ADD13C,0.254000*%
G04 APERTURE END LIST*
D10*
X129935247Y-71933500D02*
G75*
G03X129935247Y-71933500I-3993356J0D01*
G01*
X100915747Y-72936800D02*
G75*
G03X100915747Y-72936800I-3993356J0D01*
G01*
D11*
X117566666Y-136852380D02*
X117233333Y-136376190D01*
X116995238Y-136852380D02*
X116995238Y-135852380D01*
X117376190Y-135852380D01*
X117471428Y-135900000D01*
X117519047Y-135947619D01*
X117566666Y-136042857D01*
X117566666Y-136185714D01*
X117519047Y-136280952D01*
X117471428Y-136328571D01*
X117376190Y-136376190D01*
X116995238Y-136376190D01*
X117995238Y-136328571D02*
X118328571Y-136328571D01*
X118471428Y-136852380D02*
X117995238Y-136852380D01*
X117995238Y-135852380D01*
X118471428Y-135852380D01*
X119233333Y-136328571D02*
X118900000Y-136328571D01*
X118900000Y-136852380D02*
X118900000Y-135852380D01*
X119376190Y-135852380D01*
X119900000Y-135852380D02*
X119900000Y-136090476D01*
X119661904Y-135995238D02*
X119900000Y-136090476D01*
X120138095Y-135995238D01*
X119757142Y-136280952D02*
X119900000Y-136090476D01*
X120042857Y-136280952D01*
X120661904Y-135852380D02*
X120661904Y-136090476D01*
X120423809Y-135995238D02*
X120661904Y-136090476D01*
X120900000Y-135995238D01*
X120519047Y-136280952D02*
X120661904Y-136090476D01*
X120804761Y-136280952D01*
D12*
G36*
X121763723Y-91171793D02*
G01*
X122291481Y-91579807D01*
X122559954Y-92178200D01*
X122736519Y-93323350D01*
X122839226Y-94358023D01*
X122927856Y-95345621D01*
X122904435Y-96315781D01*
X122730648Y-96948860D01*
X122410257Y-97392479D01*
X121979775Y-97712266D01*
X121021383Y-97961199D01*
X120080546Y-97812645D01*
X119451215Y-97269693D01*
X119419912Y-97207088D01*
X119203363Y-96383076D01*
X119102283Y-95258561D01*
X119067283Y-93871835D01*
X119092638Y-92502690D01*
X119175675Y-91351063D01*
X119325239Y-90534691D01*
X119497500Y-90325826D01*
X121763723Y-91171793D01*
X121763723Y-91171793D01*
G37*
X121763723Y-91171793D02*
X122291481Y-91579807D01*
X122559954Y-92178200D01*
X122736519Y-93323350D01*
X122839226Y-94358023D01*
X122927856Y-95345621D01*
X122904435Y-96315781D01*
X122730648Y-96948860D01*
X122410257Y-97392479D01*
X121979775Y-97712266D01*
X121021383Y-97961199D01*
X120080546Y-97812645D01*
X119451215Y-97269693D01*
X119419912Y-97207088D01*
X119203363Y-96383076D01*
X119102283Y-95258561D01*
X119067283Y-93871835D01*
X119092638Y-92502690D01*
X119175675Y-91351063D01*
X119325239Y-90534691D01*
X119497500Y-90325826D01*
X121763723Y-91171793D01*
G36*
X117943233Y-90807372D02*
G01*
X117943208Y-90807891D01*
X117902575Y-91735155D01*
X117856855Y-92709880D01*
X117856833Y-92710394D01*
X117816246Y-93819242D01*
X117691927Y-95120786D01*
X117691912Y-95120944D01*
X117661602Y-95449305D01*
X117517157Y-96313438D01*
X117441840Y-96742746D01*
X117213375Y-97332739D01*
X117172975Y-97412476D01*
X116472759Y-97815593D01*
X115547727Y-97952727D01*
X114698240Y-97806605D01*
X114216401Y-97385605D01*
X114166198Y-97228149D01*
X114042540Y-96199143D01*
X113986843Y-94815573D01*
X114075502Y-93398295D01*
X114219324Y-92133546D01*
X114600686Y-91232146D01*
X115389578Y-90819152D01*
X116082049Y-90652959D01*
X116083285Y-90652646D01*
X117119605Y-90375786D01*
X117120381Y-90375572D01*
X117709661Y-90207932D01*
X117710270Y-90207754D01*
X117980120Y-90127272D01*
X117943233Y-90807372D01*
X117943233Y-90807372D01*
G37*
X117943233Y-90807372D02*
X117943208Y-90807891D01*
X117902575Y-91735155D01*
X117856855Y-92709880D01*
X117856833Y-92710394D01*
X117816246Y-93819242D01*
X117691927Y-95120786D01*
X117691912Y-95120944D01*
X117661602Y-95449305D01*
X117517157Y-96313438D01*
X117441840Y-96742746D01*
X117213375Y-97332739D01*
X117172975Y-97412476D01*
X116472759Y-97815593D01*
X115547727Y-97952727D01*
X114698240Y-97806605D01*
X114216401Y-97385605D01*
X114166198Y-97228149D01*
X114042540Y-96199143D01*
X113986843Y-94815573D01*
X114075502Y-93398295D01*
X114219324Y-92133546D01*
X114600686Y-91232146D01*
X115389578Y-90819152D01*
X116082049Y-90652959D01*
X116083285Y-90652646D01*
X117119605Y-90375786D01*
X117120381Y-90375572D01*
X117709661Y-90207932D01*
X117710270Y-90207754D01*
X117980120Y-90127272D01*
X117943233Y-90807372D01*
G36*
X132592791Y-60415597D02*
G01*
X134187478Y-60567472D01*
X136352067Y-61095976D01*
X138200671Y-62083413D01*
X139946594Y-63619319D01*
X140462513Y-64200672D01*
X141854112Y-66412049D01*
X142688543Y-68915342D01*
X142908544Y-71428919D01*
X142607647Y-73813337D01*
X141788505Y-76081149D01*
X140433597Y-78181762D01*
X138573514Y-79895262D01*
X136331045Y-81096133D01*
X134301603Y-81657199D01*
X131597293Y-81849461D01*
X128967127Y-81404356D01*
X126610573Y-80433415D01*
X124669780Y-79019626D01*
X124512183Y-78903891D01*
X122822685Y-76897923D01*
X124101417Y-75548555D01*
X124628138Y-75776003D01*
X124635479Y-75778517D01*
X125206979Y-75925837D01*
X125210537Y-75926617D01*
X125728697Y-76020597D01*
X125737620Y-76021400D01*
X126215140Y-76021400D01*
X126223946Y-76020618D01*
X127018966Y-75878378D01*
X127024728Y-75876991D01*
X127525108Y-75724591D01*
X127533594Y-75721128D01*
X128051754Y-75451888D01*
X128056609Y-75449006D01*
X128615409Y-75073086D01*
X128621616Y-75068153D01*
X129040716Y-74676993D01*
X129046906Y-74670028D01*
X129544746Y-73991848D01*
X129550441Y-73981853D01*
X129900961Y-73158893D01*
X129903871Y-73149680D01*
X130053731Y-72443560D01*
X130054694Y-72436728D01*
X130097874Y-71829668D01*
X130097696Y-71820619D01*
X130024036Y-71155139D01*
X130022545Y-71147363D01*
X129857445Y-70547923D01*
X129854540Y-70540037D01*
X129547200Y-69882177D01*
X129541657Y-69873019D01*
X128929517Y-69070379D01*
X128921896Y-69062395D01*
X128243716Y-68493435D01*
X128231915Y-68486062D01*
X127096535Y-67980602D01*
X127086790Y-67977414D01*
X126341870Y-67815976D01*
X131809183Y-60401263D01*
X132592791Y-60415597D01*
X132592791Y-60415597D01*
G37*
X132592791Y-60415597D02*
X134187478Y-60567472D01*
X136352067Y-61095976D01*
X138200671Y-62083413D01*
X139946594Y-63619319D01*
X140462513Y-64200672D01*
X141854112Y-66412049D01*
X142688543Y-68915342D01*
X142908544Y-71428919D01*
X142607647Y-73813337D01*
X141788505Y-76081149D01*
X140433597Y-78181762D01*
X138573514Y-79895262D01*
X136331045Y-81096133D01*
X134301603Y-81657199D01*
X131597293Y-81849461D01*
X128967127Y-81404356D01*
X126610573Y-80433415D01*
X124669780Y-79019626D01*
X124512183Y-78903891D01*
X122822685Y-76897923D01*
X124101417Y-75548555D01*
X124628138Y-75776003D01*
X124635479Y-75778517D01*
X125206979Y-75925837D01*
X125210537Y-75926617D01*
X125728697Y-76020597D01*
X125737620Y-76021400D01*
X126215140Y-76021400D01*
X126223946Y-76020618D01*
X127018966Y-75878378D01*
X127024728Y-75876991D01*
X127525108Y-75724591D01*
X127533594Y-75721128D01*
X128051754Y-75451888D01*
X128056609Y-75449006D01*
X128615409Y-75073086D01*
X128621616Y-75068153D01*
X129040716Y-74676993D01*
X129046906Y-74670028D01*
X129544746Y-73991848D01*
X129550441Y-73981853D01*
X129900961Y-73158893D01*
X129903871Y-73149680D01*
X130053731Y-72443560D01*
X130054694Y-72436728D01*
X130097874Y-71829668D01*
X130097696Y-71820619D01*
X130024036Y-71155139D01*
X130022545Y-71147363D01*
X129857445Y-70547923D01*
X129854540Y-70540037D01*
X129547200Y-69882177D01*
X129541657Y-69873019D01*
X128929517Y-69070379D01*
X128921896Y-69062395D01*
X128243716Y-68493435D01*
X128231915Y-68486062D01*
X127096535Y-67980602D01*
X127086790Y-67977414D01*
X126341870Y-67815976D01*
X131809183Y-60401263D01*
X132592791Y-60415597D01*
G36*
X131405040Y-60374967D02*
G01*
X131959822Y-60398851D01*
X126455441Y-67854216D01*
X125590585Y-67849281D01*
X125581718Y-67850022D01*
X124852738Y-67977022D01*
X124843220Y-67979671D01*
X124058360Y-68284471D01*
X124048606Y-68289557D01*
X123639666Y-68563877D01*
X123636390Y-68566273D01*
X123288410Y-68843133D01*
X123284643Y-68846452D01*
X122984923Y-69138552D01*
X122982878Y-69140666D01*
X122772058Y-69371806D01*
X122767845Y-69377106D01*
X122541785Y-69704766D01*
X122539805Y-69707874D01*
X122367085Y-70002514D01*
X122365934Y-70004588D01*
X122172894Y-70372888D01*
X122169009Y-70382700D01*
X121968349Y-71104060D01*
X121967076Y-71110027D01*
X121908656Y-71498647D01*
X121908135Y-71504212D01*
X121887815Y-72047772D01*
X121887958Y-72053850D01*
X121918438Y-72414530D01*
X121918826Y-72417823D01*
X121962006Y-72702303D01*
X121962808Y-72706418D01*
X122072028Y-73163618D01*
X122073978Y-73169910D01*
X122228918Y-73573770D01*
X122230879Y-73578221D01*
X122365499Y-73847461D01*
X122366682Y-73849686D01*
X122488602Y-74065586D01*
X122489706Y-74067445D01*
X122598926Y-74242705D01*
X122601854Y-74246907D01*
X122926974Y-74666007D01*
X122931496Y-74671083D01*
X123299796Y-75031763D01*
X123305165Y-75036326D01*
X123775065Y-75381766D01*
X123778955Y-75384355D01*
X124056358Y-75550797D01*
X123237495Y-76434879D01*
X122816203Y-76871398D01*
X122815856Y-76871778D01*
X122556901Y-76335854D01*
X122178532Y-75538485D01*
X122178429Y-75538269D01*
X121682940Y-74506843D01*
X121494322Y-73707102D01*
X121324724Y-72309816D01*
X121263934Y-70729296D01*
X121299360Y-70104289D01*
X121299364Y-70104213D01*
X121337210Y-69417944D01*
X121648482Y-68142487D01*
X121889782Y-67172207D01*
X121889828Y-67172020D01*
X121974526Y-66825755D01*
X123252912Y-64582263D01*
X125158940Y-62693930D01*
X127693307Y-61169766D01*
X128832108Y-60687479D01*
X129812062Y-60438083D01*
X130754715Y-60374902D01*
X130975783Y-60362341D01*
X131405040Y-60374967D01*
X131405040Y-60374967D01*
G37*
X131405040Y-60374967D02*
X131959822Y-60398851D01*
X126455441Y-67854216D01*
X125590585Y-67849281D01*
X125581718Y-67850022D01*
X124852738Y-67977022D01*
X124843220Y-67979671D01*
X124058360Y-68284471D01*
X124048606Y-68289557D01*
X123639666Y-68563877D01*
X123636390Y-68566273D01*
X123288410Y-68843133D01*
X123284643Y-68846452D01*
X122984923Y-69138552D01*
X122982878Y-69140666D01*
X122772058Y-69371806D01*
X122767845Y-69377106D01*
X122541785Y-69704766D01*
X122539805Y-69707874D01*
X122367085Y-70002514D01*
X122365934Y-70004588D01*
X122172894Y-70372888D01*
X122169009Y-70382700D01*
X121968349Y-71104060D01*
X121967076Y-71110027D01*
X121908656Y-71498647D01*
X121908135Y-71504212D01*
X121887815Y-72047772D01*
X121887958Y-72053850D01*
X121918438Y-72414530D01*
X121918826Y-72417823D01*
X121962006Y-72702303D01*
X121962808Y-72706418D01*
X122072028Y-73163618D01*
X122073978Y-73169910D01*
X122228918Y-73573770D01*
X122230879Y-73578221D01*
X122365499Y-73847461D01*
X122366682Y-73849686D01*
X122488602Y-74065586D01*
X122489706Y-74067445D01*
X122598926Y-74242705D01*
X122601854Y-74246907D01*
X122926974Y-74666007D01*
X122931496Y-74671083D01*
X123299796Y-75031763D01*
X123305165Y-75036326D01*
X123775065Y-75381766D01*
X123778955Y-75384355D01*
X124056358Y-75550797D01*
X123237495Y-76434879D01*
X122816203Y-76871398D01*
X122815856Y-76871778D01*
X122556901Y-76335854D01*
X122178532Y-75538485D01*
X122178429Y-75538269D01*
X121682940Y-74506843D01*
X121494322Y-73707102D01*
X121324724Y-72309816D01*
X121263934Y-70729296D01*
X121299360Y-70104289D01*
X121299364Y-70104213D01*
X121337210Y-69417944D01*
X121648482Y-68142487D01*
X121889782Y-67172207D01*
X121889828Y-67172020D01*
X121974526Y-66825755D01*
X123252912Y-64582263D01*
X125158940Y-62693930D01*
X127693307Y-61169766D01*
X128832108Y-60687479D01*
X129812062Y-60438083D01*
X130754715Y-60374902D01*
X130975783Y-60362341D01*
X131405040Y-60374967D01*
G36*
X104659720Y-61690624D02*
G01*
X105822215Y-61811928D01*
X106962713Y-62132378D01*
X108258173Y-62708138D01*
X110522649Y-64271765D01*
X112226413Y-66192923D01*
X113366499Y-68409898D01*
X113991017Y-70849815D01*
X114028940Y-73302169D01*
X113504331Y-75820292D01*
X112359273Y-78125575D01*
X110572069Y-80234965D01*
X109686074Y-80964460D01*
X108342181Y-81846469D01*
X107162463Y-82426865D01*
X105630638Y-82797663D01*
X103329718Y-82984976D01*
X100943003Y-82792622D01*
X98920553Y-82256673D01*
X97900182Y-81732630D01*
X96011369Y-80348385D01*
X93365011Y-76320431D01*
X96522130Y-77003250D01*
X96531312Y-77004361D01*
X97079952Y-77019601D01*
X97086242Y-77019379D01*
X97601862Y-76968579D01*
X97608507Y-76967468D01*
X98261287Y-76812528D01*
X98269536Y-76809794D01*
X98970576Y-76507534D01*
X98980084Y-76502133D01*
X99622704Y-76037313D01*
X99629400Y-76031499D01*
X100239000Y-75399039D01*
X100244655Y-75391996D01*
X100450395Y-75082116D01*
X100453336Y-75077069D01*
X100730196Y-74530969D01*
X100732931Y-74524478D01*
X100892951Y-74054578D01*
X100895184Y-74045048D01*
X101060284Y-72802988D01*
X101060360Y-72790409D01*
X100971460Y-72053809D01*
X100969457Y-72044611D01*
X100745937Y-71343571D01*
X100742519Y-71335422D01*
X100452959Y-70786782D01*
X100447611Y-70778671D01*
X99812611Y-69993811D01*
X99804320Y-69985701D01*
X99032160Y-69388801D01*
X99020109Y-69381920D01*
X98026969Y-68985680D01*
X98017433Y-68982935D01*
X97336713Y-68858475D01*
X97326430Y-68857677D01*
X96539030Y-68877997D01*
X96530964Y-68878863D01*
X95837544Y-69010943D01*
X95828841Y-69013435D01*
X95107481Y-69292835D01*
X95099595Y-69296718D01*
X94446815Y-69692958D01*
X94437991Y-69699768D01*
X93810611Y-70306828D01*
X93804709Y-70313676D01*
X93492289Y-70750556D01*
X93488944Y-70755921D01*
X93275330Y-71152340D01*
X92676969Y-69668216D01*
X93095079Y-68443928D01*
X93406052Y-67543876D01*
X93922645Y-66619049D01*
X94379766Y-66040702D01*
X95658211Y-64438216D01*
X97775658Y-62906983D01*
X100318635Y-61966638D01*
X103359411Y-61642558D01*
X104659720Y-61690624D01*
X104659720Y-61690624D01*
G37*
X104659720Y-61690624D02*
X105822215Y-61811928D01*
X106962713Y-62132378D01*
X108258173Y-62708138D01*
X110522649Y-64271765D01*
X112226413Y-66192923D01*
X113366499Y-68409898D01*
X113991017Y-70849815D01*
X114028940Y-73302169D01*
X113504331Y-75820292D01*
X112359273Y-78125575D01*
X110572069Y-80234965D01*
X109686074Y-80964460D01*
X108342181Y-81846469D01*
X107162463Y-82426865D01*
X105630638Y-82797663D01*
X103329718Y-82984976D01*
X100943003Y-82792622D01*
X98920553Y-82256673D01*
X97900182Y-81732630D01*
X96011369Y-80348385D01*
X93365011Y-76320431D01*
X96522130Y-77003250D01*
X96531312Y-77004361D01*
X97079952Y-77019601D01*
X97086242Y-77019379D01*
X97601862Y-76968579D01*
X97608507Y-76967468D01*
X98261287Y-76812528D01*
X98269536Y-76809794D01*
X98970576Y-76507534D01*
X98980084Y-76502133D01*
X99622704Y-76037313D01*
X99629400Y-76031499D01*
X100239000Y-75399039D01*
X100244655Y-75391996D01*
X100450395Y-75082116D01*
X100453336Y-75077069D01*
X100730196Y-74530969D01*
X100732931Y-74524478D01*
X100892951Y-74054578D01*
X100895184Y-74045048D01*
X101060284Y-72802988D01*
X101060360Y-72790409D01*
X100971460Y-72053809D01*
X100969457Y-72044611D01*
X100745937Y-71343571D01*
X100742519Y-71335422D01*
X100452959Y-70786782D01*
X100447611Y-70778671D01*
X99812611Y-69993811D01*
X99804320Y-69985701D01*
X99032160Y-69388801D01*
X99020109Y-69381920D01*
X98026969Y-68985680D01*
X98017433Y-68982935D01*
X97336713Y-68858475D01*
X97326430Y-68857677D01*
X96539030Y-68877997D01*
X96530964Y-68878863D01*
X95837544Y-69010943D01*
X95828841Y-69013435D01*
X95107481Y-69292835D01*
X95099595Y-69296718D01*
X94446815Y-69692958D01*
X94437991Y-69699768D01*
X93810611Y-70306828D01*
X93804709Y-70313676D01*
X93492289Y-70750556D01*
X93488944Y-70755921D01*
X93275330Y-71152340D01*
X92676969Y-69668216D01*
X93095079Y-68443928D01*
X93406052Y-67543876D01*
X93922645Y-66619049D01*
X94379766Y-66040702D01*
X95658211Y-64438216D01*
X97775658Y-62906983D01*
X100318635Y-61966638D01*
X103359411Y-61642558D01*
X104659720Y-61690624D01*
D13*
G36*
X93178464Y-71187718D02*
G01*
X93040066Y-71515041D01*
X93034173Y-71532365D01*
X92861453Y-72192765D01*
X92858405Y-72208332D01*
X92807605Y-72594412D01*
X92806699Y-72604246D01*
X92791459Y-72891266D01*
X92791329Y-72901526D01*
X92798949Y-73175846D01*
X92799710Y-73186639D01*
X92840350Y-73544779D01*
X92841107Y-73550346D01*
X92874127Y-73758626D01*
X92876292Y-73769302D01*
X92952492Y-74076642D01*
X92955191Y-74085981D01*
X93072031Y-74439041D01*
X93076856Y-74451412D01*
X93219096Y-74766372D01*
X93221598Y-74771592D01*
X93305418Y-74936692D01*
X93309226Y-74943645D01*
X93443846Y-75172245D01*
X93449682Y-75181260D01*
X93647802Y-75460660D01*
X93655152Y-75470057D01*
X93906612Y-75762157D01*
X93913057Y-75769103D01*
X94202617Y-76058663D01*
X94214848Y-76069416D01*
X94659348Y-76412316D01*
X94676139Y-76423271D01*
X95267959Y-76745851D01*
X95284342Y-76753327D01*
X95624702Y-76880327D01*
X95632607Y-76882984D01*
X95872639Y-76954994D01*
X95883812Y-80067889D01*
X95740373Y-79909508D01*
X95739032Y-79908050D01*
X94479885Y-78560586D01*
X93297203Y-76675844D01*
X93235905Y-76539626D01*
X92994562Y-75704982D01*
X92994392Y-75704398D01*
X92627499Y-74457967D01*
X92469187Y-72098359D01*
X92630386Y-70690386D01*
X92699096Y-70126387D01*
X93178464Y-71187718D01*
X93178464Y-71187718D01*
G37*
X93178464Y-71187718D02*
X93040066Y-71515041D01*
X93034173Y-71532365D01*
X92861453Y-72192765D01*
X92858405Y-72208332D01*
X92807605Y-72594412D01*
X92806699Y-72604246D01*
X92791459Y-72891266D01*
X92791329Y-72901526D01*
X92798949Y-73175846D01*
X92799710Y-73186639D01*
X92840350Y-73544779D01*
X92841107Y-73550346D01*
X92874127Y-73758626D01*
X92876292Y-73769302D01*
X92952492Y-74076642D01*
X92955191Y-74085981D01*
X93072031Y-74439041D01*
X93076856Y-74451412D01*
X93219096Y-74766372D01*
X93221598Y-74771592D01*
X93305418Y-74936692D01*
X93309226Y-74943645D01*
X93443846Y-75172245D01*
X93449682Y-75181260D01*
X93647802Y-75460660D01*
X93655152Y-75470057D01*
X93906612Y-75762157D01*
X93913057Y-75769103D01*
X94202617Y-76058663D01*
X94214848Y-76069416D01*
X94659348Y-76412316D01*
X94676139Y-76423271D01*
X95267959Y-76745851D01*
X95284342Y-76753327D01*
X95624702Y-76880327D01*
X95632607Y-76882984D01*
X95872639Y-76954994D01*
X95883812Y-80067889D01*
X95740373Y-79909508D01*
X95739032Y-79908050D01*
X94479885Y-78560586D01*
X93297203Y-76675844D01*
X93235905Y-76539626D01*
X92994562Y-75704982D01*
X92994392Y-75704398D01*
X92627499Y-74457967D01*
X92469187Y-72098359D01*
X92630386Y-70690386D01*
X92699096Y-70126387D01*
X93178464Y-71187718D01*
D12*
G36*
X92739308Y-69991783D02*
G01*
X92633859Y-70019291D01*
X92658962Y-69812187D01*
X92739308Y-69991783D01*
X92739308Y-69991783D01*
G37*
X92739308Y-69991783D02*
X92633859Y-70019291D01*
X92658962Y-69812187D01*
X92739308Y-69991783D01*
M02*
