G04 #@! TF.GenerationSoftware,KiCad,Pcbnew,(5.1.2)-1*
G04 #@! TF.CreationDate,2023-11-06T09:25:53+09:00*
G04 #@! TF.ProjectId,gopher_pilot_m5stack,676f7068-6572-45f7-9069-6c6f745f6d35,rev?*
G04 #@! TF.SameCoordinates,Original*
G04 #@! TF.FileFunction,Profile,NP*
%FSLAX46Y46*%
G04 Gerber Fmt 4.6, Leading zero omitted, Abs format (unit mm)*
G04 Created by KiCad (PCBNEW (5.1.2)-1) date 2023-11-06 09:25:53*
%MOMM*%
%LPD*%
G04 APERTURE LIST*
%ADD10C,0.050000*%
%ADD11C,0.120000*%
G04 APERTURE END LIST*
D10*
X157340000Y-124030000D02*
X157400000Y-124050000D01*
X157560000Y-124170000D02*
X157400000Y-124050000D01*
X157900000Y-124420000D02*
X157560000Y-124170000D01*
X158250000Y-124650000D02*
X157900000Y-124420000D01*
X158950000Y-125090000D02*
X158250000Y-124650000D01*
X160310000Y-125650000D02*
X158950000Y-125090000D01*
X161590000Y-125820000D02*
X160310000Y-125650000D01*
X162750000Y-125580000D02*
X161590000Y-125820000D01*
X162810000Y-125550000D02*
X162750000Y-125580000D01*
X163780000Y-124950000D02*
X162810000Y-125550000D01*
X164630000Y-123920000D02*
X163780000Y-124950000D01*
X164880000Y-123470000D02*
X164630000Y-123920000D01*
X165130000Y-122860000D02*
X164880000Y-123470000D01*
X165240000Y-122220000D02*
X165130000Y-122860000D01*
X165240000Y-122110000D02*
X165240000Y-122220000D01*
X165260000Y-121320000D02*
X165240000Y-122110000D01*
X165260000Y-120730000D02*
X165260000Y-121320000D01*
X165200000Y-120020000D02*
X165260000Y-120730000D01*
X165030000Y-119460000D02*
X165200000Y-120020000D01*
X164710000Y-118910000D02*
X165030000Y-119460000D01*
X164660000Y-118850000D02*
X164710000Y-118910000D01*
X163920000Y-118190000D02*
X164660000Y-118850000D01*
X163610000Y-118010000D02*
X163920000Y-118190000D01*
X162770000Y-117540000D02*
X163610000Y-118010000D01*
X162720000Y-117520000D02*
X162770000Y-117540000D01*
X161250000Y-116950000D02*
X162720000Y-117520000D01*
X161170000Y-116920000D02*
X161250000Y-116950000D01*
X160120000Y-116620000D02*
X161170000Y-116920000D01*
X159390000Y-116410000D02*
X160120000Y-116620000D01*
X159010000Y-116310000D02*
X159390000Y-116410000D01*
X158350000Y-116140000D02*
X159010000Y-116310000D01*
X157740000Y-115970000D02*
X158350000Y-116140000D01*
X157260000Y-115830000D02*
X157740000Y-115970000D01*
X157000000Y-115720000D02*
X157260000Y-115830000D01*
X156940000Y-115510000D02*
X157000000Y-115720000D01*
X156900000Y-115210000D02*
X156940000Y-115510000D01*
X156870000Y-115000000D02*
X156900000Y-115210000D01*
X156860000Y-114780000D02*
X156870000Y-115000000D01*
X156820000Y-114270000D02*
X156860000Y-114780000D01*
X156810000Y-114040000D02*
X156820000Y-114270000D01*
X156780000Y-113360000D02*
X156810000Y-114040000D01*
X156780000Y-112770000D02*
X156780000Y-113360000D01*
X156800000Y-112320000D02*
X156780000Y-112770000D01*
X156850000Y-112140000D02*
X156800000Y-112320000D01*
X157030000Y-112210000D02*
X156850000Y-112140000D01*
X157170000Y-112280000D02*
X157030000Y-112210000D01*
X157450000Y-112410000D02*
X157170000Y-112280000D01*
X157810000Y-112590000D02*
X157450000Y-112410000D01*
X158180000Y-112780000D02*
X157810000Y-112590000D01*
X159000000Y-113160000D02*
X158180000Y-112780000D01*
X160240000Y-113560000D02*
X159000000Y-113160000D01*
X161600000Y-113880000D02*
X160240000Y-113560000D01*
X162130000Y-113990000D02*
X161600000Y-113880000D01*
X163080000Y-114210000D02*
X162130000Y-113990000D01*
X163820000Y-114400000D02*
X163080000Y-114210000D01*
X164660000Y-114700000D02*
X163820000Y-114400000D01*
X165540000Y-114700000D02*
X164660000Y-114700000D01*
X166410000Y-114340000D02*
X165540000Y-114700000D01*
X167300000Y-113610000D02*
X166410000Y-114340000D01*
X168020000Y-112650000D02*
X167300000Y-113610000D01*
X168340000Y-111970000D02*
X168020000Y-112650000D01*
X168600000Y-111410000D02*
X168340000Y-111970000D01*
X168850000Y-110770000D02*
X168600000Y-111410000D01*
X169400000Y-109840000D02*
X168850000Y-110770000D01*
X169710000Y-109490000D02*
X169400000Y-109840000D01*
X170330000Y-108820000D02*
X169710000Y-109490000D01*
X170860000Y-108330000D02*
X170330000Y-108820000D01*
X171400000Y-107830000D02*
X170860000Y-108330000D01*
X171700000Y-107580000D02*
X171400000Y-107830000D01*
X172130000Y-107290000D02*
X171700000Y-107580000D01*
X172370000Y-107150000D02*
X172130000Y-107290000D01*
X172770000Y-106930000D02*
X172370000Y-107150000D01*
X173210000Y-106710000D02*
X172770000Y-106930000D01*
X173600000Y-106500000D02*
X173210000Y-106710000D01*
X173880000Y-106380000D02*
X173600000Y-106500000D01*
X174410000Y-106050000D02*
X173880000Y-106380000D01*
X175060000Y-105660000D02*
X174410000Y-106050000D01*
X175890000Y-104890000D02*
X175060000Y-105660000D01*
X176220000Y-104270000D02*
X175890000Y-104890000D01*
X176290000Y-104140000D02*
X176220000Y-104270000D01*
X176290000Y-104110000D02*
X176290000Y-104140000D01*
X176270000Y-103420000D02*
X176290000Y-104110000D01*
X176250000Y-103380000D02*
X176270000Y-103420000D01*
X175810000Y-102690000D02*
X176250000Y-103380000D01*
X175560000Y-102470000D02*
X175810000Y-102690000D01*
X175520000Y-102450000D02*
X175560000Y-102470000D01*
X175190000Y-102330000D02*
X175520000Y-102450000D01*
X174730000Y-102170000D02*
X175190000Y-102330000D01*
X174680000Y-102160000D02*
X174730000Y-102170000D01*
X173620000Y-102210000D02*
X174680000Y-102160000D01*
X173420000Y-102270000D02*
X173620000Y-102210000D01*
X172270000Y-102610000D02*
X173420000Y-102270000D01*
X171640000Y-102830000D02*
X172270000Y-102610000D01*
X170940000Y-103060000D02*
X171640000Y-102830000D01*
X170500000Y-103180000D02*
X170940000Y-103060000D01*
X170310000Y-103260000D02*
X170500000Y-103180000D01*
X169750000Y-103620000D02*
X170310000Y-103260000D01*
X169070000Y-104220000D02*
X169750000Y-103620000D01*
X168800000Y-104470000D02*
X169070000Y-104220000D01*
X168120000Y-105160000D02*
X168800000Y-104470000D01*
X167430000Y-105920000D02*
X168120000Y-105160000D01*
X166740000Y-106770000D02*
X167430000Y-105920000D01*
X166560000Y-107040000D02*
X166740000Y-106770000D01*
X166170000Y-107580000D02*
X166560000Y-107040000D01*
X165940000Y-107930000D02*
X166170000Y-107580000D01*
X165200000Y-108900000D02*
X165940000Y-107930000D01*
X164530000Y-109460000D02*
X165200000Y-108900000D01*
X163900000Y-109650000D02*
X164530000Y-109460000D01*
X163610000Y-109550000D02*
X163900000Y-109650000D01*
X163080000Y-109230000D02*
X163610000Y-109550000D01*
X162450000Y-108770000D02*
X163080000Y-109230000D01*
X161770000Y-108250000D02*
X162450000Y-108770000D01*
X161460000Y-108010000D02*
X161770000Y-108250000D01*
X161000000Y-107660000D02*
X161460000Y-108010000D01*
X160650000Y-107400000D02*
X161000000Y-107660000D01*
X159950000Y-106960000D02*
X160650000Y-107400000D01*
X159230000Y-106470000D02*
X159950000Y-106960000D01*
X157730000Y-105510000D02*
X159230000Y-106470000D01*
X156770000Y-104930000D02*
X157730000Y-105510000D01*
X156770000Y-104000000D02*
X156770000Y-104930000D01*
X156770000Y-102960000D02*
X156770000Y-104000000D01*
X156780000Y-102360000D02*
X156770000Y-102960000D01*
X156840000Y-101520000D02*
X156780000Y-102360000D01*
X156990000Y-100790000D02*
X156840000Y-101520000D01*
X157320000Y-99970000D02*
X156990000Y-100790000D01*
X157470000Y-99630000D02*
X157320000Y-99970000D01*
X157860000Y-98670000D02*
X157470000Y-99630000D01*
X158060000Y-98190000D02*
X157860000Y-98670000D01*
X158190000Y-97790000D02*
X158060000Y-98190000D01*
X158450000Y-96920000D02*
X158190000Y-97790000D01*
X158660000Y-95770000D02*
X158450000Y-96920000D01*
X158710000Y-95190000D02*
X158660000Y-95770000D01*
X158780000Y-94420000D02*
X158710000Y-95190000D01*
X158790000Y-93870000D02*
X158780000Y-94420000D01*
X158810000Y-92570000D02*
X158790000Y-93870000D01*
X158800000Y-91660000D02*
X158810000Y-92570000D01*
X158790000Y-90810000D02*
X158800000Y-91660000D01*
X158730000Y-89820000D02*
X158790000Y-90810000D01*
X158710000Y-89700000D02*
X158730000Y-89820000D01*
X158610000Y-89120000D02*
X158710000Y-89700000D01*
X158430000Y-88590000D02*
X158610000Y-89120000D01*
X158150000Y-88110000D02*
X158430000Y-88590000D01*
X157790000Y-87660000D02*
X158150000Y-88110000D01*
X157670000Y-87480000D02*
X157790000Y-87660000D01*
X157320000Y-86990000D02*
X157670000Y-87480000D01*
X157110000Y-86200000D02*
X157320000Y-86990000D01*
X157160000Y-84540000D02*
X157110000Y-86200000D01*
X157190000Y-83930000D02*
X157160000Y-84540000D01*
X157230000Y-83190000D02*
X157190000Y-83930000D01*
X157310000Y-81980000D02*
X157230000Y-83190000D01*
X157380000Y-81170000D02*
X157310000Y-81980000D01*
X157470000Y-80330000D02*
X157380000Y-81170000D01*
X157540000Y-79680000D02*
X157470000Y-80330000D01*
X157640000Y-78970000D02*
X157540000Y-79680000D01*
X157750000Y-78460000D02*
X157640000Y-78970000D01*
X157890000Y-77920000D02*
X157750000Y-78460000D01*
X157950000Y-77580000D02*
X157890000Y-77920000D01*
X158060000Y-76890000D02*
X157950000Y-77580000D01*
X158130000Y-76140000D02*
X158060000Y-76890000D01*
X158170000Y-75410000D02*
X158130000Y-76140000D01*
X158290000Y-74780000D02*
X158170000Y-75410000D01*
X158510000Y-74290000D02*
X158290000Y-74780000D01*
X159120000Y-73460000D02*
X158510000Y-74290000D01*
X159800000Y-72500000D02*
X159120000Y-73460000D01*
X160170000Y-71600000D02*
X159800000Y-72500000D01*
X160510000Y-70800000D02*
X160170000Y-71600000D01*
X160890000Y-68970000D02*
X160510000Y-70800000D01*
X160900000Y-68380000D02*
X160890000Y-68970000D01*
X160920000Y-67760000D02*
X160900000Y-68380000D01*
X160930000Y-67060000D02*
X160920000Y-67760000D01*
X160610000Y-65120000D02*
X160930000Y-67060000D01*
X159970000Y-63320000D02*
X160610000Y-65120000D01*
X159660000Y-62730000D02*
X159970000Y-63320000D01*
X158550000Y-61160000D02*
X159660000Y-62730000D01*
X157170000Y-59940000D02*
X158550000Y-61160000D01*
X155490000Y-59050000D02*
X157170000Y-59940000D01*
X153600000Y-58520000D02*
X155490000Y-59050000D01*
X152140000Y-58270000D02*
X153600000Y-58520000D01*
X151840000Y-57450000D02*
X152140000Y-58270000D01*
X151750000Y-57180000D02*
X151840000Y-57450000D01*
X151500000Y-56530000D02*
X151750000Y-57180000D01*
X151100000Y-55580000D02*
X151500000Y-56530000D01*
X150540000Y-54670000D02*
X151100000Y-55580000D01*
X149810000Y-53830000D02*
X150540000Y-54670000D01*
X148860000Y-53030000D02*
X149810000Y-53830000D01*
X148360000Y-52670000D02*
X148860000Y-53030000D01*
X147570000Y-52100000D02*
X148360000Y-52670000D01*
X147180000Y-51810000D02*
X147570000Y-52100000D01*
X146520000Y-51320000D02*
X147180000Y-51810000D01*
X145530000Y-50510000D02*
X146520000Y-51320000D01*
X145260000Y-50280000D02*
X145530000Y-50510000D01*
X144700000Y-49790000D02*
X145260000Y-50280000D01*
X144200000Y-49330000D02*
X144700000Y-49790000D01*
X143470000Y-48640000D02*
X144200000Y-49330000D01*
X142960000Y-48160000D02*
X143470000Y-48640000D01*
X142440000Y-47640000D02*
X142960000Y-48160000D01*
X142170000Y-47400000D02*
X142440000Y-47640000D01*
X141550000Y-46790000D02*
X142170000Y-47400000D01*
X140840000Y-46140000D02*
X141550000Y-46790000D01*
X140330000Y-45700000D02*
X140840000Y-46140000D01*
X139850000Y-45290000D02*
X140330000Y-45700000D01*
X139190000Y-44820000D02*
X139850000Y-45290000D01*
X138550000Y-44430000D02*
X139190000Y-44820000D01*
X138260000Y-44290000D02*
X138550000Y-44430000D01*
X137070000Y-43800000D02*
X138260000Y-44290000D01*
X136570000Y-43600000D02*
X137070000Y-43800000D01*
X136210000Y-43460000D02*
X136570000Y-43600000D01*
X135670000Y-43240000D02*
X136210000Y-43460000D01*
X134770000Y-42890000D02*
X135670000Y-43240000D01*
X134040000Y-42610000D02*
X134770000Y-42890000D01*
X133280000Y-42310000D02*
X134040000Y-42610000D01*
X132500000Y-42010000D02*
X133280000Y-42310000D01*
X132180000Y-41890000D02*
X132500000Y-42010000D01*
X131540000Y-41650000D02*
X132180000Y-41890000D01*
X130650000Y-41310000D02*
X131540000Y-41650000D01*
X129820000Y-41000000D02*
X130650000Y-41310000D01*
X128900000Y-40660000D02*
X129820000Y-41000000D01*
X128060000Y-40350000D02*
X128900000Y-40660000D01*
X125540000Y-39480000D02*
X128060000Y-40350000D01*
X125430000Y-39450000D02*
X125540000Y-39480000D01*
X124760000Y-39350000D02*
X125430000Y-39450000D01*
X123520000Y-39220000D02*
X124760000Y-39350000D01*
X122630000Y-39150000D02*
X123520000Y-39220000D01*
X121290000Y-39070000D02*
X122630000Y-39150000D01*
X120560000Y-39030000D02*
X121290000Y-39070000D01*
X118880000Y-38950000D02*
X120560000Y-39030000D01*
X117890000Y-38920000D02*
X118880000Y-38950000D01*
X117070000Y-38890000D02*
X117890000Y-38920000D01*
X115990000Y-38890000D02*
X117070000Y-38890000D01*
X115620000Y-38890000D02*
X115990000Y-38890000D01*
X114860000Y-38910000D02*
X115620000Y-38890000D01*
X113740000Y-39000000D02*
X114860000Y-38910000D01*
X112770000Y-39130000D02*
X113740000Y-39000000D01*
X112200000Y-39230000D02*
X112770000Y-39130000D01*
X110900000Y-39510000D02*
X112200000Y-39230000D01*
X109580000Y-39830000D02*
X110900000Y-39510000D01*
X107350000Y-40430000D02*
X109580000Y-39830000D01*
X106130000Y-40770000D02*
X107350000Y-40430000D01*
X105200000Y-41030000D02*
X106130000Y-40770000D01*
X103950000Y-41400000D02*
X105200000Y-41030000D01*
X103280000Y-41620000D02*
X103950000Y-41400000D01*
X102970000Y-41720000D02*
X103280000Y-41620000D01*
X102140000Y-42030000D02*
X102970000Y-41720000D01*
X101250000Y-42410000D02*
X102140000Y-42030000D01*
X100300000Y-42890000D02*
X101250000Y-42410000D01*
X99390000Y-43370000D02*
X100300000Y-42890000D01*
X98450000Y-43900000D02*
X99390000Y-43370000D01*
X98280000Y-44000000D02*
X98450000Y-43900000D01*
X97350000Y-44600000D02*
X98280000Y-44000000D01*
X96780000Y-44970000D02*
X97350000Y-44600000D01*
X95530000Y-46000000D02*
X96780000Y-44970000D01*
X94950000Y-46610000D02*
X95530000Y-46000000D01*
X94460000Y-47130000D02*
X94950000Y-46610000D01*
X93420000Y-48600000D02*
X94460000Y-47130000D01*
X92910000Y-49160000D02*
X93420000Y-48600000D01*
X92230000Y-49670000D02*
X92910000Y-49160000D01*
X91840000Y-49900000D02*
X92230000Y-49670000D01*
X91040000Y-50350000D02*
X91840000Y-49900000D01*
X90420000Y-50720000D02*
X91040000Y-50350000D01*
X89860000Y-51070000D02*
X90420000Y-50720000D01*
X88690000Y-51940000D02*
X89860000Y-51070000D01*
X88200000Y-52350000D02*
X88690000Y-51940000D01*
X87590000Y-52880000D02*
X88200000Y-52350000D01*
X86860000Y-53440000D02*
X87590000Y-52880000D01*
X86350000Y-53830000D02*
X86860000Y-53440000D01*
X85770000Y-54260000D02*
X86350000Y-53830000D01*
X85280000Y-54640000D02*
X85770000Y-54260000D01*
X84680000Y-55120000D02*
X85280000Y-54640000D01*
X83770000Y-56140000D02*
X84680000Y-55120000D01*
X83060000Y-57340000D02*
X83770000Y-56140000D01*
X82660000Y-58420000D02*
X83060000Y-57340000D01*
X82340000Y-59320000D02*
X82660000Y-58420000D01*
X82100000Y-59840000D02*
X82340000Y-59320000D01*
X81920000Y-60060000D02*
X82100000Y-59840000D01*
X81330000Y-60180000D02*
X81920000Y-60060000D01*
X80340000Y-60380000D02*
X81330000Y-60180000D01*
X79060000Y-60720000D02*
X80340000Y-60380000D01*
X77360000Y-61500000D02*
X79060000Y-60720000D01*
X75920000Y-62640000D02*
X77360000Y-61500000D01*
X74880000Y-63940000D02*
X75920000Y-62640000D01*
X74710000Y-64200000D02*
X74880000Y-63940000D01*
X73830000Y-66080000D02*
X74710000Y-64200000D01*
X73340000Y-68090000D02*
X73830000Y-66080000D01*
X73300000Y-69170000D02*
X73340000Y-68090000D01*
X73260000Y-70070000D02*
X73300000Y-69170000D01*
X73570000Y-72070000D02*
X73260000Y-70070000D01*
X74280000Y-73950000D02*
X73570000Y-72070000D01*
X74640000Y-74540000D02*
X74280000Y-73950000D01*
X75080000Y-75240000D02*
X74640000Y-74540000D01*
X75520000Y-75970000D02*
X75080000Y-75240000D01*
X75810000Y-76460000D02*
X75520000Y-75970000D01*
X75990000Y-77170000D02*
X75810000Y-76460000D01*
X76110000Y-78460000D02*
X75990000Y-77170000D01*
X76540000Y-79880000D02*
X76110000Y-78460000D01*
X77240000Y-81170000D02*
X76540000Y-79880000D01*
X77990000Y-82150000D02*
X77240000Y-81170000D01*
X77630000Y-83630000D02*
X77990000Y-82150000D01*
X77570000Y-83940000D02*
X77630000Y-83630000D01*
X77420000Y-84760000D02*
X77570000Y-83940000D01*
X77360000Y-85710000D02*
X77420000Y-84760000D01*
X77300000Y-86810000D02*
X77360000Y-85710000D01*
X77330000Y-87360000D02*
X77300000Y-86810000D01*
X77420000Y-89120000D02*
X77330000Y-87360000D01*
X77620000Y-90490000D02*
X77420000Y-89120000D01*
X77880000Y-92180000D02*
X77620000Y-90490000D01*
X78160000Y-93840000D02*
X77880000Y-92180000D01*
X78330000Y-95680000D02*
X78160000Y-93840000D01*
X78340000Y-97340000D02*
X78330000Y-95680000D01*
X78150000Y-98880000D02*
X78340000Y-97340000D01*
X77750000Y-100480000D02*
X78150000Y-98880000D01*
X77610000Y-100880000D02*
X77750000Y-100480000D01*
X77120000Y-102210000D02*
X77610000Y-100880000D01*
X76790000Y-102970000D02*
X77120000Y-102210000D01*
X76360000Y-103960000D02*
X76790000Y-102970000D01*
X75820000Y-105140000D02*
X76360000Y-103960000D01*
X75420000Y-105930000D02*
X75820000Y-105140000D01*
X75050000Y-106460000D02*
X75420000Y-105930000D01*
X74620000Y-106820000D02*
X75050000Y-106460000D01*
X74030000Y-107040000D02*
X74620000Y-106820000D01*
X73230000Y-107170000D02*
X74030000Y-107040000D01*
X73030000Y-107180000D02*
X73230000Y-107170000D01*
X72140000Y-107230000D02*
X73030000Y-107180000D01*
X71380000Y-107250000D02*
X72140000Y-107230000D01*
X69890000Y-107320000D02*
X71380000Y-107250000D01*
X69260000Y-107350000D02*
X69890000Y-107320000D01*
X68960000Y-107370000D02*
X69260000Y-107350000D01*
X67920000Y-107480000D02*
X68960000Y-107370000D01*
X66960000Y-107650000D02*
X67920000Y-107480000D01*
X65610000Y-108020000D02*
X66960000Y-107650000D01*
X64350000Y-108250000D02*
X65610000Y-108020000D01*
X63380000Y-108180000D02*
X64350000Y-108250000D01*
X62610000Y-107820000D02*
X63380000Y-108180000D01*
X62410000Y-107530000D02*
X62610000Y-107820000D01*
X62170000Y-106770000D02*
X62410000Y-107530000D01*
X62000000Y-105990000D02*
X62170000Y-106770000D01*
X61770000Y-104790000D02*
X62000000Y-105990000D01*
X61680000Y-104360000D02*
X61770000Y-104790000D01*
X61430000Y-103300000D02*
X61680000Y-104360000D01*
X61080000Y-102310000D02*
X61430000Y-103300000D01*
X60690000Y-101610000D02*
X61080000Y-102310000D01*
X60200000Y-101060000D02*
X60690000Y-101610000D01*
X59940000Y-100840000D02*
X60200000Y-101060000D01*
X59480000Y-100510000D02*
X59940000Y-100840000D01*
X59160000Y-100370000D02*
X59480000Y-100510000D01*
X59120000Y-100370000D02*
X59160000Y-100370000D01*
X58690000Y-100590000D02*
X59120000Y-100370000D01*
X58280000Y-101090000D02*
X58690000Y-100590000D01*
X58020000Y-101730000D02*
X58280000Y-101090000D01*
X57910000Y-101940000D02*
X58020000Y-101730000D01*
X57790000Y-102190000D02*
X57910000Y-101940000D01*
X57690000Y-102240000D02*
X57790000Y-102190000D01*
X56640000Y-102810000D02*
X57690000Y-102240000D01*
X56200000Y-103310000D02*
X56640000Y-102810000D01*
X56030000Y-103690000D02*
X56200000Y-103310000D01*
X56000000Y-104150000D02*
X56030000Y-103690000D01*
X56190000Y-104800000D02*
X56000000Y-104150000D01*
X56780000Y-106120000D02*
X56190000Y-104800000D01*
X56970000Y-106450000D02*
X56780000Y-106120000D01*
X57580000Y-107460000D02*
X56970000Y-106450000D01*
X57710000Y-107650000D02*
X57580000Y-107460000D01*
X57940000Y-107960000D02*
X57710000Y-107650000D01*
X58600000Y-108830000D02*
X57940000Y-107960000D01*
X58870000Y-109140000D02*
X58600000Y-108830000D01*
X59600000Y-109960000D02*
X58870000Y-109140000D01*
X60630000Y-110860000D02*
X59600000Y-109960000D01*
X61520000Y-111420000D02*
X60630000Y-110860000D01*
X61780000Y-111540000D02*
X61520000Y-111420000D01*
X62890000Y-111930000D02*
X61780000Y-111540000D01*
X63970000Y-112070000D02*
X62890000Y-111930000D01*
X64980000Y-111950000D02*
X63970000Y-112070000D01*
X66340000Y-111520000D02*
X64980000Y-111950000D01*
X67240000Y-111230000D02*
X66340000Y-111520000D01*
X67820000Y-111100000D02*
X67240000Y-111230000D01*
X68270000Y-111030000D02*
X67820000Y-111100000D01*
X69250000Y-110960000D02*
X68270000Y-111030000D01*
X71010000Y-110940000D02*
X69250000Y-110960000D01*
X72590000Y-110930000D02*
X71010000Y-110940000D01*
X74420000Y-110930000D02*
X72590000Y-110930000D01*
X75470000Y-110930000D02*
X74420000Y-110930000D01*
X77030000Y-110150000D02*
X75470000Y-110930000D01*
X77780000Y-109840000D02*
X77030000Y-110150000D01*
X78600000Y-109580000D02*
X77780000Y-109840000D01*
X79140000Y-109470000D02*
X78600000Y-109580000D01*
X79830000Y-109480000D02*
X79140000Y-109470000D01*
X79890000Y-110160000D02*
X79830000Y-109480000D01*
X79980000Y-111240000D02*
X79890000Y-110160000D01*
X80040000Y-112070000D02*
X79980000Y-111240000D01*
X80110000Y-113050000D02*
X80040000Y-112070000D01*
X80190000Y-114340000D02*
X80110000Y-113050000D01*
X80330000Y-116680000D02*
X80190000Y-114340000D01*
X79660000Y-116810000D02*
X80330000Y-116680000D01*
X78670000Y-117010000D02*
X79660000Y-116810000D01*
X77750000Y-117240000D02*
X78670000Y-117010000D01*
X76350000Y-117590000D02*
X77750000Y-117240000D01*
X74580000Y-118170000D02*
X76350000Y-117590000D01*
X73160000Y-118810000D02*
X74580000Y-118170000D01*
X72200000Y-119450000D02*
X73160000Y-118810000D01*
X72030000Y-119610000D02*
X72200000Y-119450000D01*
X71710000Y-120080000D02*
X72030000Y-119610000D01*
X71440000Y-120500000D02*
X71710000Y-120080000D01*
X71160000Y-121560000D02*
X71440000Y-120500000D01*
X71140000Y-122080000D02*
X71160000Y-121560000D01*
X71150000Y-122740000D02*
X71140000Y-122080000D01*
X71400000Y-123910000D02*
X71150000Y-122740000D01*
X71900000Y-124990000D02*
X71400000Y-123910000D01*
X72640000Y-125910000D02*
X71900000Y-124990000D01*
X73790000Y-126620000D02*
X72640000Y-125910000D01*
X74980000Y-126820000D02*
X73790000Y-126620000D01*
X76280000Y-126600000D02*
X74980000Y-126820000D01*
X77730000Y-125950000D02*
X76280000Y-126600000D01*
X79210000Y-124900000D02*
X77730000Y-125950000D01*
X79810000Y-124430000D02*
X79210000Y-124900000D01*
X79960000Y-124370000D02*
X79810000Y-124430000D01*
X79950000Y-125250000D02*
X79960000Y-124370000D01*
X79930000Y-126610000D02*
X79950000Y-125250000D01*
X79930000Y-127520000D02*
X79930000Y-126610000D01*
X79920000Y-129570000D02*
X79930000Y-127520000D01*
X79880000Y-132900000D02*
X79920000Y-129570000D01*
X79840000Y-136280000D02*
X79880000Y-132900000D01*
X79800000Y-142010000D02*
X79840000Y-136280000D01*
X79780000Y-143650000D02*
X79800000Y-142010000D01*
X79760000Y-144800000D02*
X79780000Y-143650000D01*
X79760000Y-145830000D02*
X79760000Y-144800000D01*
X79760000Y-147800000D02*
X79760000Y-145830000D01*
X79740000Y-149460000D02*
X79760000Y-147800000D01*
X79740000Y-150380000D02*
X79740000Y-149460000D01*
X79750000Y-151900000D02*
X79740000Y-150380000D01*
X79750000Y-152340000D02*
X79750000Y-151900000D01*
X79770000Y-153140000D02*
X79750000Y-152340000D01*
X79790000Y-154280000D02*
X79770000Y-153140000D01*
X79830000Y-155430000D02*
X79790000Y-154280000D01*
X79880000Y-156300000D02*
X79830000Y-155430000D01*
X79950000Y-157080000D02*
X79880000Y-156300000D01*
X79990000Y-157500000D02*
X79950000Y-157080000D01*
X80090000Y-158350000D02*
X79990000Y-157500000D01*
X80200000Y-158990000D02*
X80090000Y-158350000D01*
X80340000Y-159680000D02*
X80200000Y-158990000D01*
X80500000Y-160380000D02*
X80340000Y-159680000D01*
X80820000Y-161450000D02*
X80500000Y-160380000D01*
X81230000Y-162500000D02*
X80820000Y-161450000D01*
X81630000Y-163510000D02*
X81230000Y-162500000D01*
X81900000Y-164050000D02*
X81630000Y-163510000D01*
X82030000Y-164310000D02*
X81900000Y-164050000D01*
X82370000Y-164980000D02*
X82030000Y-164310000D01*
X82610000Y-165460000D02*
X82370000Y-164980000D01*
X82800000Y-165810000D02*
X82610000Y-165460000D01*
X83320000Y-166650000D02*
X82800000Y-165810000D01*
X83760000Y-167370000D02*
X83320000Y-166650000D01*
X84150000Y-167970000D02*
X83760000Y-167370000D01*
X84590000Y-168580000D02*
X84150000Y-167970000D01*
X85060000Y-169200000D02*
X84590000Y-168580000D01*
X85550000Y-169860000D02*
X85060000Y-169200000D01*
X85740000Y-170060000D02*
X85550000Y-169860000D01*
X86700000Y-171120000D02*
X85740000Y-170060000D01*
X86990000Y-171460000D02*
X86700000Y-171120000D01*
X88020000Y-172480000D02*
X86990000Y-171460000D01*
X87720000Y-172650000D02*
X88020000Y-172480000D01*
X87090000Y-173010000D02*
X87720000Y-172650000D01*
X86400000Y-173410000D02*
X87090000Y-173010000D01*
X85630000Y-173970000D02*
X86400000Y-173410000D01*
X84840000Y-174560000D02*
X85630000Y-173970000D01*
X84110000Y-175260000D02*
X84840000Y-174560000D01*
X83550000Y-175840000D02*
X84110000Y-175260000D01*
X82820000Y-176840000D02*
X83550000Y-175840000D01*
X82600000Y-177180000D02*
X82820000Y-176840000D01*
X82010000Y-178520000D02*
X82600000Y-177180000D01*
X81900000Y-178980000D02*
X82010000Y-178520000D01*
X81920000Y-180170000D02*
X81900000Y-178980000D01*
X82350000Y-181270000D02*
X81920000Y-180170000D01*
X83160000Y-182310000D02*
X82350000Y-181270000D01*
X83910000Y-182920000D02*
X83160000Y-182310000D01*
X84780000Y-183400000D02*
X83910000Y-182920000D01*
X86040000Y-183800000D02*
X84780000Y-183400000D01*
X86880000Y-183790000D02*
X86040000Y-183800000D01*
X87720000Y-183660000D02*
X86880000Y-183790000D01*
X88650000Y-183350000D02*
X87720000Y-183660000D01*
X89250000Y-182960000D02*
X88650000Y-183350000D01*
X90020000Y-182370000D02*
X89250000Y-182960000D01*
X90510000Y-181950000D02*
X90020000Y-182370000D01*
X91620000Y-180980000D02*
X90510000Y-181950000D01*
X92180000Y-180560000D02*
X91620000Y-180980000D01*
X93050000Y-179910000D02*
X92180000Y-180560000D01*
X93250000Y-179800000D02*
X93050000Y-179910000D01*
X94380000Y-179170000D02*
X93250000Y-179800000D01*
X94830000Y-178990000D02*
X94380000Y-179170000D01*
X95760000Y-178630000D02*
X94830000Y-178990000D01*
X96820000Y-178300000D02*
X95760000Y-178630000D01*
X97240000Y-178170000D02*
X96820000Y-178300000D01*
X98550000Y-178620000D02*
X97240000Y-178170000D01*
X100920000Y-179420000D02*
X98550000Y-178620000D01*
X102020000Y-179750000D02*
X100920000Y-179420000D01*
X103850000Y-180270000D02*
X102020000Y-179750000D01*
X105650000Y-180680000D02*
X103850000Y-180270000D01*
X107560000Y-181030000D02*
X105650000Y-180680000D01*
X108950000Y-181200000D02*
X107560000Y-181030000D01*
X109930000Y-181310000D02*
X108950000Y-181200000D01*
X110840000Y-181380000D02*
X109930000Y-181310000D01*
X112150000Y-181480000D02*
X110840000Y-181380000D01*
X113120000Y-181510000D02*
X112150000Y-181480000D01*
X114610000Y-181560000D02*
X113120000Y-181510000D01*
X115220000Y-181570000D02*
X114610000Y-181560000D01*
X116770000Y-181570000D02*
X115220000Y-181570000D01*
X118310000Y-181580000D02*
X116770000Y-181570000D01*
X119140000Y-181580000D02*
X118310000Y-181580000D01*
X120360000Y-181560000D02*
X119140000Y-181580000D01*
X121910000Y-181530000D02*
X120360000Y-181560000D01*
X122990000Y-181490000D02*
X121910000Y-181530000D01*
X123790000Y-181440000D02*
X122990000Y-181490000D01*
X124820000Y-181350000D02*
X123790000Y-181440000D01*
X125450000Y-181270000D02*
X124820000Y-181350000D01*
X126600000Y-181110000D02*
X125450000Y-181270000D01*
X127610000Y-180930000D02*
X126600000Y-181110000D01*
X129250000Y-180620000D02*
X127610000Y-180930000D01*
X130330000Y-180400000D02*
X129250000Y-180620000D01*
X131390000Y-180140000D02*
X130330000Y-180400000D01*
X132800000Y-179810000D02*
X131390000Y-180140000D01*
X133890000Y-179500000D02*
X132800000Y-179810000D01*
X135610000Y-178970000D02*
X133890000Y-179500000D01*
X136440000Y-178680000D02*
X135610000Y-178970000D01*
X137750000Y-178200000D02*
X136440000Y-178680000D01*
X138740000Y-177800000D02*
X137750000Y-178200000D01*
X139520000Y-177450000D02*
X138740000Y-177800000D01*
X140490000Y-177000000D02*
X139520000Y-177450000D01*
X140950000Y-176770000D02*
X140490000Y-177000000D01*
X141600000Y-176440000D02*
X140950000Y-176770000D01*
X142900000Y-177340000D02*
X141600000Y-176440000D01*
X143440000Y-177770000D02*
X142900000Y-177340000D01*
X143780000Y-178090000D02*
X143440000Y-177770000D01*
X144120000Y-178430000D02*
X143780000Y-178090000D01*
X144570000Y-178900000D02*
X144120000Y-178430000D01*
X144910000Y-179290000D02*
X144570000Y-178900000D01*
X145330000Y-179770000D02*
X144910000Y-179290000D01*
X145680000Y-180190000D02*
X145330000Y-179770000D01*
X146080000Y-180660000D02*
X145680000Y-180190000D01*
X146420000Y-181080000D02*
X146080000Y-180660000D01*
X146860000Y-181560000D02*
X146420000Y-181080000D01*
X147260000Y-181990000D02*
X146860000Y-181560000D01*
X148110000Y-182620000D02*
X147260000Y-181990000D01*
X149020000Y-182940000D02*
X148110000Y-182620000D01*
X150070000Y-183030000D02*
X149020000Y-182940000D01*
X150300000Y-183030000D02*
X150070000Y-183030000D01*
X151590000Y-182790000D02*
X150300000Y-183030000D01*
X152740000Y-182230000D02*
X151590000Y-182790000D01*
X153670000Y-181430000D02*
X152740000Y-182230000D01*
X154350000Y-180430000D02*
X153670000Y-181430000D01*
X154710000Y-179310000D02*
X154350000Y-180430000D01*
X154690000Y-178100000D02*
X154710000Y-179310000D01*
X154440000Y-177220000D02*
X154690000Y-178100000D01*
X153790000Y-175870000D02*
X154440000Y-177220000D01*
X153730000Y-175780000D02*
X153790000Y-175870000D01*
X152880000Y-174500000D02*
X153730000Y-175780000D01*
X152390000Y-173920000D02*
X152880000Y-174500000D01*
X151770000Y-173190000D02*
X152390000Y-173920000D01*
X151200000Y-172650000D02*
X151770000Y-173190000D01*
X150880000Y-172330000D02*
X151200000Y-172650000D01*
X150500000Y-172000000D02*
X150880000Y-172330000D01*
X149910000Y-171570000D02*
X150500000Y-172000000D01*
X149260000Y-171110000D02*
X149910000Y-171570000D01*
X149110000Y-170960000D02*
X149260000Y-171110000D01*
X149140000Y-170770000D02*
X149110000Y-170960000D01*
X149410000Y-170400000D02*
X149140000Y-170770000D01*
X149770000Y-170000000D02*
X149410000Y-170400000D01*
X150250000Y-169440000D02*
X149770000Y-170000000D01*
X150850000Y-168750000D02*
X150250000Y-169440000D01*
X152540000Y-166380000D02*
X150850000Y-168750000D01*
X153070000Y-165420000D02*
X152540000Y-166380000D01*
X153930000Y-163890000D02*
X153070000Y-165420000D01*
X154440000Y-162680000D02*
X153930000Y-163890000D01*
X154770000Y-161910000D02*
X154440000Y-162680000D01*
X155140000Y-161050000D02*
X154770000Y-161910000D01*
X155400000Y-160230000D02*
X155140000Y-161050000D01*
X155670000Y-159370000D02*
X155400000Y-160230000D01*
X156100000Y-158060000D02*
X155670000Y-159370000D01*
X156170000Y-157720000D02*
X156100000Y-158060000D01*
X156400000Y-156670000D02*
X156170000Y-157720000D01*
X156680000Y-155450000D02*
X156400000Y-156670000D01*
X156870000Y-154640000D02*
X156680000Y-155450000D01*
X157010000Y-153670000D02*
X156870000Y-154640000D01*
X157180000Y-152560000D02*
X157010000Y-153670000D01*
X157430000Y-150940000D02*
X157180000Y-152560000D01*
X157480000Y-150380000D02*
X157430000Y-150940000D01*
X157590000Y-149200000D02*
X157480000Y-150380000D01*
X157650000Y-148570000D02*
X157590000Y-149200000D01*
X157730000Y-147720000D02*
X157650000Y-148570000D01*
X157820000Y-146850000D02*
X157730000Y-147720000D01*
X157820000Y-146570000D02*
X157820000Y-146850000D01*
X157870000Y-145670000D02*
X157820000Y-146570000D01*
X157920000Y-144380000D02*
X157870000Y-145670000D01*
X157990000Y-143010000D02*
X157920000Y-144380000D01*
X158030000Y-141770000D02*
X157990000Y-143010000D01*
X158020000Y-140110000D02*
X158030000Y-141770000D01*
X158010000Y-137890000D02*
X158020000Y-140110000D01*
X158020000Y-136640000D02*
X158010000Y-137890000D01*
X158000000Y-135640000D02*
X158020000Y-136640000D01*
X157950000Y-134450000D02*
X158000000Y-135640000D01*
X157910000Y-133300000D02*
X157950000Y-134450000D01*
X157860000Y-132170000D02*
X157910000Y-133300000D01*
X157830000Y-131220000D02*
X157860000Y-132170000D01*
X157750000Y-129820000D02*
X157830000Y-131220000D01*
X157640000Y-127990000D02*
X157750000Y-129820000D01*
X157550000Y-126680000D02*
X157640000Y-127990000D01*
X157480000Y-125510000D02*
X157550000Y-126680000D01*
X157340000Y-124030000D02*
X157480000Y-125510000D01*
D11*
X145500000Y-111600000D02*
X145500000Y-138600000D01*
X91500000Y-111600000D02*
X145500000Y-111600000D01*
X91500000Y-165600000D02*
X91500000Y-111600000D01*
X145500000Y-165600000D02*
X91500000Y-165600000D01*
X145500000Y-138600000D02*
X145500000Y-165600000D01*
M02*
