G04 #@! TF.GenerationSoftware,KiCad,Pcbnew,(5.1.2)-1*
G04 #@! TF.CreationDate,2023-11-23T11:34:59+09:00*
G04 #@! TF.ProjectId,gopher_goldpilot_xiao_v2,676f7068-6572-45f6-976f-6c6470696c6f,rev?*
G04 #@! TF.SameCoordinates,Original*
G04 #@! TF.FileFunction,Legend,Top*
G04 #@! TF.FilePolarity,Positive*
%FSLAX46Y46*%
G04 Gerber Fmt 4.6, Leading zero omitted, Abs format (unit mm)*
G04 Created by KiCad (PCBNEW (5.1.2)-1) date 2023-11-23 11:34:59*
%MOMM*%
%LPD*%
G04 APERTURE LIST*
%ADD10C,0.100000*%
%ADD11C,0.120000*%
%ADD12C,0.127000*%
%ADD13C,0.066040*%
%ADD14C,0.150000*%
%ADD15C,0.101600*%
%ADD16C,0.076200*%
G04 APERTURE END LIST*
D10*
G36*
X171192600Y-104271520D02*
G01*
X171222600Y-104181520D01*
X171582600Y-103891520D01*
X172152600Y-103611520D01*
X172912600Y-103331520D01*
X173632600Y-103131520D01*
X174282600Y-103061520D01*
X174862600Y-103161520D01*
X175242600Y-103401520D01*
X175412600Y-103871520D01*
X175182600Y-104391520D01*
X174542600Y-104941520D01*
X174092600Y-105201520D01*
X173722600Y-105411520D01*
X173452600Y-105561520D01*
X173112600Y-105731520D01*
X172692600Y-105931520D01*
X172452600Y-106051520D01*
X172102600Y-106191520D01*
X171922600Y-106271520D01*
X171692600Y-106301520D01*
X171612600Y-106191520D01*
X171602600Y-105951520D01*
X171622600Y-105821520D01*
X171922600Y-105491520D01*
X172192600Y-105361520D01*
X172482600Y-105221520D01*
X172622600Y-105151520D01*
X172742600Y-105101520D01*
X172992600Y-105001520D01*
X173302600Y-104871520D01*
X173782600Y-104601520D01*
X173932600Y-104361520D01*
X173802600Y-104111520D01*
X173652600Y-104011520D01*
X173262600Y-104011520D01*
X172612600Y-104211520D01*
X172412600Y-104291520D01*
X172112600Y-104401520D01*
X171752600Y-104501520D01*
X171532600Y-104561520D01*
X171292600Y-104521520D01*
X171252600Y-104511520D01*
X171192600Y-104341520D01*
X171192600Y-104271520D01*
G37*
X171192600Y-104271520D02*
X171222600Y-104181520D01*
X171582600Y-103891520D01*
X172152600Y-103611520D01*
X172912600Y-103331520D01*
X173632600Y-103131520D01*
X174282600Y-103061520D01*
X174862600Y-103161520D01*
X175242600Y-103401520D01*
X175412600Y-103871520D01*
X175182600Y-104391520D01*
X174542600Y-104941520D01*
X174092600Y-105201520D01*
X173722600Y-105411520D01*
X173452600Y-105561520D01*
X173112600Y-105731520D01*
X172692600Y-105931520D01*
X172452600Y-106051520D01*
X172102600Y-106191520D01*
X171922600Y-106271520D01*
X171692600Y-106301520D01*
X171612600Y-106191520D01*
X171602600Y-105951520D01*
X171622600Y-105821520D01*
X171922600Y-105491520D01*
X172192600Y-105361520D01*
X172482600Y-105221520D01*
X172622600Y-105151520D01*
X172742600Y-105101520D01*
X172992600Y-105001520D01*
X173302600Y-104871520D01*
X173782600Y-104601520D01*
X173932600Y-104361520D01*
X173802600Y-104111520D01*
X173652600Y-104011520D01*
X173262600Y-104011520D01*
X172612600Y-104211520D01*
X172412600Y-104291520D01*
X172112600Y-104401520D01*
X171752600Y-104501520D01*
X171532600Y-104561520D01*
X171292600Y-104521520D01*
X171252600Y-104511520D01*
X171192600Y-104341520D01*
X171192600Y-104271520D01*
G36*
X132392600Y-60951520D02*
G01*
X132672600Y-60951520D01*
X134842600Y-61341520D01*
X136792600Y-62101520D01*
X138562600Y-63231520D01*
X140062600Y-64621520D01*
X141312600Y-66321520D01*
X142222600Y-68231520D01*
X142752600Y-70291520D01*
X142862600Y-71141520D01*
X142862600Y-71421520D01*
X130612600Y-71541520D01*
X130532600Y-71041520D01*
X130382600Y-70481520D01*
X130202600Y-70071520D01*
X130022600Y-69711520D01*
X129762600Y-69331520D01*
X129472600Y-68971520D01*
X129182600Y-68691520D01*
X128882600Y-68451520D01*
X128652600Y-68291520D01*
X128432600Y-68151520D01*
X127912600Y-67901520D01*
X127522600Y-67761520D01*
X126932600Y-67631520D01*
X126602600Y-67591520D01*
X126152600Y-67581520D01*
X125972600Y-67591520D01*
X125642600Y-67631520D01*
X125302600Y-67691520D01*
X125022600Y-67771520D01*
X124672600Y-67891520D01*
X124312600Y-68051520D01*
X124102600Y-68161520D01*
X123912600Y-68281520D01*
X123752600Y-68391520D01*
X123332600Y-68731520D01*
X122992600Y-69071520D01*
X122722600Y-69421520D01*
X122522600Y-69721520D01*
X122362600Y-70021520D01*
X122222600Y-70361520D01*
X122142600Y-70571520D01*
X122062600Y-70831520D01*
X122002600Y-71101520D01*
X121962600Y-71351520D01*
X120622600Y-71331520D01*
X120662600Y-71021520D01*
X120752600Y-70451520D01*
X120832600Y-69901520D01*
X120912600Y-69371520D01*
X121172600Y-68501520D01*
X121572600Y-67611520D01*
X122052600Y-66531520D01*
X122722600Y-65581520D01*
X123242600Y-64841520D01*
X123752600Y-64331520D01*
X124272600Y-63821520D01*
X124762600Y-63371520D01*
X126492600Y-62221520D01*
X128352600Y-61421520D01*
X130462600Y-60981520D01*
X131662600Y-60961520D01*
X132392600Y-60951520D01*
G37*
X132392600Y-60951520D02*
X132672600Y-60951520D01*
X134842600Y-61341520D01*
X136792600Y-62101520D01*
X138562600Y-63231520D01*
X140062600Y-64621520D01*
X141312600Y-66321520D01*
X142222600Y-68231520D01*
X142752600Y-70291520D01*
X142862600Y-71141520D01*
X142862600Y-71421520D01*
X130612600Y-71541520D01*
X130532600Y-71041520D01*
X130382600Y-70481520D01*
X130202600Y-70071520D01*
X130022600Y-69711520D01*
X129762600Y-69331520D01*
X129472600Y-68971520D01*
X129182600Y-68691520D01*
X128882600Y-68451520D01*
X128652600Y-68291520D01*
X128432600Y-68151520D01*
X127912600Y-67901520D01*
X127522600Y-67761520D01*
X126932600Y-67631520D01*
X126602600Y-67591520D01*
X126152600Y-67581520D01*
X125972600Y-67591520D01*
X125642600Y-67631520D01*
X125302600Y-67691520D01*
X125022600Y-67771520D01*
X124672600Y-67891520D01*
X124312600Y-68051520D01*
X124102600Y-68161520D01*
X123912600Y-68281520D01*
X123752600Y-68391520D01*
X123332600Y-68731520D01*
X122992600Y-69071520D01*
X122722600Y-69421520D01*
X122522600Y-69721520D01*
X122362600Y-70021520D01*
X122222600Y-70361520D01*
X122142600Y-70571520D01*
X122062600Y-70831520D01*
X122002600Y-71101520D01*
X121962600Y-71351520D01*
X120622600Y-71331520D01*
X120662600Y-71021520D01*
X120752600Y-70451520D01*
X120832600Y-69901520D01*
X120912600Y-69371520D01*
X121172600Y-68501520D01*
X121572600Y-67611520D01*
X122052600Y-66531520D01*
X122722600Y-65581520D01*
X123242600Y-64841520D01*
X123752600Y-64331520D01*
X124272600Y-63821520D01*
X124762600Y-63371520D01*
X126492600Y-62221520D01*
X128352600Y-61421520D01*
X130462600Y-60981520D01*
X131662600Y-60961520D01*
X132392600Y-60951520D01*
G36*
X130562600Y-71591520D02*
G01*
X142862600Y-71451520D01*
X142842600Y-72381520D01*
X142822600Y-73161520D01*
X142822600Y-73191520D01*
X142382600Y-75141520D01*
X141592600Y-76981520D01*
X140482600Y-78681520D01*
X139082600Y-80151520D01*
X137422600Y-81361520D01*
X135512600Y-82291520D01*
X134502600Y-82561520D01*
X133072600Y-82781520D01*
X131592600Y-82861520D01*
X130182600Y-82811520D01*
X129042600Y-82631520D01*
X128012600Y-82301520D01*
X126192600Y-81431520D01*
X124562600Y-80271520D01*
X123102600Y-78761520D01*
X122242600Y-77481520D01*
X122002600Y-77131520D01*
X121202600Y-75301520D01*
X120722600Y-73371520D01*
X120622600Y-71381520D01*
X121952600Y-71401520D01*
X121932600Y-72361520D01*
X122072600Y-73081520D01*
X122412600Y-73941520D01*
X122852600Y-74641520D01*
X123542600Y-75341520D01*
X124202600Y-75781520D01*
X124802600Y-76041520D01*
X125482600Y-76211520D01*
X125942600Y-76261520D01*
X126372600Y-76281520D01*
X126922600Y-76241520D01*
X127392600Y-76141520D01*
X127902600Y-75961520D01*
X128252600Y-75811520D01*
X128662600Y-75561520D01*
X129022600Y-75311520D01*
X129412600Y-74941520D01*
X129682600Y-74641520D01*
X129952600Y-74251520D01*
X130232600Y-73731520D01*
X130442600Y-73191520D01*
X130582600Y-72451520D01*
X130632600Y-71981520D01*
X130562600Y-71591520D01*
G37*
X130562600Y-71591520D02*
X142862600Y-71451520D01*
X142842600Y-72381520D01*
X142822600Y-73161520D01*
X142822600Y-73191520D01*
X142382600Y-75141520D01*
X141592600Y-76981520D01*
X140482600Y-78681520D01*
X139082600Y-80151520D01*
X137422600Y-81361520D01*
X135512600Y-82291520D01*
X134502600Y-82561520D01*
X133072600Y-82781520D01*
X131592600Y-82861520D01*
X130182600Y-82811520D01*
X129042600Y-82631520D01*
X128012600Y-82301520D01*
X126192600Y-81431520D01*
X124562600Y-80271520D01*
X123102600Y-78761520D01*
X122242600Y-77481520D01*
X122002600Y-77131520D01*
X121202600Y-75301520D01*
X120722600Y-73371520D01*
X120622600Y-71381520D01*
X121952600Y-71401520D01*
X121932600Y-72361520D01*
X122072600Y-73081520D01*
X122412600Y-73941520D01*
X122852600Y-74641520D01*
X123542600Y-75341520D01*
X124202600Y-75781520D01*
X124802600Y-76041520D01*
X125482600Y-76211520D01*
X125942600Y-76261520D01*
X126372600Y-76281520D01*
X126922600Y-76241520D01*
X127392600Y-76141520D01*
X127902600Y-75961520D01*
X128252600Y-75811520D01*
X128662600Y-75561520D01*
X129022600Y-75311520D01*
X129412600Y-74941520D01*
X129682600Y-74641520D01*
X129952600Y-74251520D01*
X130232600Y-73731520D01*
X130442600Y-73191520D01*
X130582600Y-72451520D01*
X130632600Y-71981520D01*
X130562600Y-71591520D01*
G36*
X102112600Y-62291520D02*
G01*
X104072600Y-62461520D01*
X105982600Y-62981520D01*
X107772600Y-63821520D01*
X109412600Y-64991520D01*
X110812600Y-66451520D01*
X111932600Y-68201520D01*
X112442600Y-69301520D01*
X113032600Y-71321520D01*
X113082600Y-71881520D01*
X101012600Y-72461520D01*
X100932600Y-71821520D01*
X100682600Y-71071520D01*
X100282600Y-70341520D01*
X99842600Y-69791520D01*
X99242600Y-69271520D01*
X98782600Y-68971520D01*
X98272600Y-68731520D01*
X97692600Y-68541520D01*
X97222600Y-68461520D01*
X96742600Y-68431520D01*
X96322600Y-68451520D01*
X95902600Y-68501520D01*
X95342600Y-68641520D01*
X94882600Y-68811520D01*
X94412600Y-69061520D01*
X94132600Y-69251520D01*
X93832600Y-69481520D01*
X93582600Y-69721520D01*
X93362600Y-69961520D01*
X93072600Y-70341520D01*
X92902600Y-70611520D01*
X92762600Y-70881520D01*
X92622600Y-71191520D01*
X92502600Y-71531520D01*
X92422600Y-71851520D01*
X92392600Y-72041520D01*
X91112600Y-71951520D01*
X91212600Y-71231520D01*
X91252600Y-70891520D01*
X91512600Y-70101520D01*
X91722600Y-69441520D01*
X91852600Y-69061520D01*
X92402600Y-68051520D01*
X92822600Y-67281520D01*
X93492600Y-66451520D01*
X94152600Y-65641520D01*
X94722600Y-65101520D01*
X95442600Y-64571520D01*
X95932600Y-64211520D01*
X96372600Y-63881520D01*
X97132600Y-63511520D01*
X98232600Y-62981520D01*
X100112600Y-62471520D01*
X101732600Y-62321520D01*
X102112600Y-62291520D01*
G37*
X102112600Y-62291520D02*
X104072600Y-62461520D01*
X105982600Y-62981520D01*
X107772600Y-63821520D01*
X109412600Y-64991520D01*
X110812600Y-66451520D01*
X111932600Y-68201520D01*
X112442600Y-69301520D01*
X113032600Y-71321520D01*
X113082600Y-71881520D01*
X101012600Y-72461520D01*
X100932600Y-71821520D01*
X100682600Y-71071520D01*
X100282600Y-70341520D01*
X99842600Y-69791520D01*
X99242600Y-69271520D01*
X98782600Y-68971520D01*
X98272600Y-68731520D01*
X97692600Y-68541520D01*
X97222600Y-68461520D01*
X96742600Y-68431520D01*
X96322600Y-68451520D01*
X95902600Y-68501520D01*
X95342600Y-68641520D01*
X94882600Y-68811520D01*
X94412600Y-69061520D01*
X94132600Y-69251520D01*
X93832600Y-69481520D01*
X93582600Y-69721520D01*
X93362600Y-69961520D01*
X93072600Y-70341520D01*
X92902600Y-70611520D01*
X92762600Y-70881520D01*
X92622600Y-71191520D01*
X92502600Y-71531520D01*
X92422600Y-71851520D01*
X92392600Y-72041520D01*
X91112600Y-71951520D01*
X91212600Y-71231520D01*
X91252600Y-70891520D01*
X91512600Y-70101520D01*
X91722600Y-69441520D01*
X91852600Y-69061520D01*
X92402600Y-68051520D01*
X92822600Y-67281520D01*
X93492600Y-66451520D01*
X94152600Y-65641520D01*
X94722600Y-65101520D01*
X95442600Y-64571520D01*
X95932600Y-64211520D01*
X96372600Y-63881520D01*
X97132600Y-63511520D01*
X98232600Y-62981520D01*
X100112600Y-62471520D01*
X101732600Y-62321520D01*
X102112600Y-62291520D01*
G36*
X101002600Y-72511520D02*
G01*
X113042600Y-71911520D01*
X113222600Y-73371520D01*
X112992600Y-75411520D01*
X112352600Y-77471520D01*
X111332600Y-79281520D01*
X109972600Y-80961520D01*
X108752600Y-82111520D01*
X107012600Y-83181520D01*
X104952600Y-83971520D01*
X104012600Y-84111520D01*
X102952600Y-84211520D01*
X101872600Y-84241520D01*
X101472600Y-84231520D01*
X100482600Y-84091520D01*
X99422600Y-83951520D01*
X97522600Y-83331520D01*
X95832600Y-82391520D01*
X94642600Y-81441520D01*
X94072600Y-80871520D01*
X93162600Y-79821520D01*
X92202600Y-78261520D01*
X91492600Y-76511520D01*
X91072600Y-74651520D01*
X91032600Y-73391520D01*
X91012600Y-72791520D01*
X91112600Y-72001520D01*
X92382600Y-72091520D01*
X92322600Y-72621520D01*
X92362600Y-73331520D01*
X92442600Y-73801520D01*
X92592600Y-74321520D01*
X92802600Y-74751520D01*
X93042600Y-75181520D01*
X93282600Y-75511520D01*
X93602600Y-75851520D01*
X93912600Y-76141520D01*
X94202600Y-76361520D01*
X94522600Y-76561520D01*
X94892600Y-76741520D01*
X95232600Y-76881520D01*
X95592600Y-76991520D01*
X95962600Y-77071520D01*
X96352600Y-77121520D01*
X96732600Y-77121520D01*
X97082600Y-77111520D01*
X97512600Y-77051520D01*
X97812600Y-76981520D01*
X98122600Y-76881520D01*
X98352600Y-76791520D01*
X98632600Y-76661520D01*
X98862600Y-76531520D01*
X99122600Y-76371520D01*
X99362600Y-76201520D01*
X99692600Y-75911520D01*
X99862600Y-75731520D01*
X100022600Y-75551520D01*
X100242600Y-75261520D01*
X100412600Y-75001520D01*
X100492600Y-74851520D01*
X100622600Y-74611520D01*
X100732600Y-74331520D01*
X100832600Y-74061520D01*
X100932600Y-73641520D01*
X101012600Y-73111520D01*
X101002600Y-72511520D01*
G37*
X101002600Y-72511520D02*
X113042600Y-71911520D01*
X113222600Y-73371520D01*
X112992600Y-75411520D01*
X112352600Y-77471520D01*
X111332600Y-79281520D01*
X109972600Y-80961520D01*
X108752600Y-82111520D01*
X107012600Y-83181520D01*
X104952600Y-83971520D01*
X104012600Y-84111520D01*
X102952600Y-84211520D01*
X101872600Y-84241520D01*
X101472600Y-84231520D01*
X100482600Y-84091520D01*
X99422600Y-83951520D01*
X97522600Y-83331520D01*
X95832600Y-82391520D01*
X94642600Y-81441520D01*
X94072600Y-80871520D01*
X93162600Y-79821520D01*
X92202600Y-78261520D01*
X91492600Y-76511520D01*
X91072600Y-74651520D01*
X91032600Y-73391520D01*
X91012600Y-72791520D01*
X91112600Y-72001520D01*
X92382600Y-72091520D01*
X92322600Y-72621520D01*
X92362600Y-73331520D01*
X92442600Y-73801520D01*
X92592600Y-74321520D01*
X92802600Y-74751520D01*
X93042600Y-75181520D01*
X93282600Y-75511520D01*
X93602600Y-75851520D01*
X93912600Y-76141520D01*
X94202600Y-76361520D01*
X94522600Y-76561520D01*
X94892600Y-76741520D01*
X95232600Y-76881520D01*
X95592600Y-76991520D01*
X95962600Y-77071520D01*
X96352600Y-77121520D01*
X96732600Y-77121520D01*
X97082600Y-77111520D01*
X97512600Y-77051520D01*
X97812600Y-76981520D01*
X98122600Y-76881520D01*
X98352600Y-76791520D01*
X98632600Y-76661520D01*
X98862600Y-76531520D01*
X99122600Y-76371520D01*
X99362600Y-76201520D01*
X99692600Y-75911520D01*
X99862600Y-75731520D01*
X100022600Y-75551520D01*
X100242600Y-75261520D01*
X100412600Y-75001520D01*
X100492600Y-74851520D01*
X100622600Y-74611520D01*
X100732600Y-74331520D01*
X100832600Y-74061520D01*
X100932600Y-73641520D01*
X101012600Y-73111520D01*
X101002600Y-72511520D01*
D11*
X130562601Y-71931520D02*
G75*
G03X130562601Y-71931520I-4288928J0D01*
G01*
X100962601Y-72781520D02*
G75*
G03X100962601Y-72781520I-4288928J0D01*
G01*
D10*
G36*
X117112600Y-91351520D02*
G01*
X117112600Y-92651520D01*
X117112600Y-94161520D01*
X117112600Y-95411520D01*
X117102600Y-96821520D01*
X117112600Y-98431520D01*
X116602600Y-98901520D01*
X116452600Y-99041520D01*
X115872600Y-99391520D01*
X115072600Y-99501520D01*
X114472600Y-99461520D01*
X114012600Y-99351520D01*
X113662600Y-99111520D01*
X113342600Y-98581520D01*
X113262600Y-98401520D01*
X113172600Y-98021520D01*
X113132600Y-97441520D01*
X113132600Y-96481520D01*
X113162600Y-95601520D01*
X113222600Y-94511520D01*
X113292600Y-93301520D01*
X113312600Y-92781520D01*
X113992600Y-92471520D01*
X114712600Y-92161520D01*
X115202600Y-91961520D01*
X116042600Y-91641520D01*
X116582600Y-91481520D01*
X117112600Y-91351520D01*
G37*
X117112600Y-91351520D02*
X117112600Y-92651520D01*
X117112600Y-94161520D01*
X117112600Y-95411520D01*
X117102600Y-96821520D01*
X117112600Y-98431520D01*
X116602600Y-98901520D01*
X116452600Y-99041520D01*
X115872600Y-99391520D01*
X115072600Y-99501520D01*
X114472600Y-99461520D01*
X114012600Y-99351520D01*
X113662600Y-99111520D01*
X113342600Y-98581520D01*
X113262600Y-98401520D01*
X113172600Y-98021520D01*
X113132600Y-97441520D01*
X113132600Y-96481520D01*
X113162600Y-95601520D01*
X113222600Y-94511520D01*
X113292600Y-93301520D01*
X113312600Y-92781520D01*
X113992600Y-92471520D01*
X114712600Y-92161520D01*
X115202600Y-91961520D01*
X116042600Y-91641520D01*
X116582600Y-91481520D01*
X117112600Y-91351520D01*
G36*
X118612600Y-91591520D02*
G01*
X119702600Y-91941520D01*
X121252600Y-92511520D01*
X122132600Y-92901520D01*
X122232600Y-94021520D01*
X122272600Y-95221520D01*
X122272600Y-97731520D01*
X122222600Y-98021520D01*
X122182600Y-98401520D01*
X121962600Y-98751520D01*
X121702600Y-99041520D01*
X121322600Y-99291520D01*
X120572600Y-99541520D01*
X119762600Y-99441520D01*
X119002600Y-99041520D01*
X118432600Y-98591520D01*
X118432600Y-96601520D01*
X118412600Y-94751520D01*
X118452600Y-93621520D01*
X118522600Y-92171520D01*
X118522600Y-91761520D01*
X118612600Y-91591520D01*
G37*
X118612600Y-91591520D02*
X119702600Y-91941520D01*
X121252600Y-92511520D01*
X122132600Y-92901520D01*
X122232600Y-94021520D01*
X122272600Y-95221520D01*
X122272600Y-97731520D01*
X122222600Y-98021520D01*
X122182600Y-98401520D01*
X121962600Y-98751520D01*
X121702600Y-99041520D01*
X121322600Y-99291520D01*
X120572600Y-99541520D01*
X119762600Y-99441520D01*
X119002600Y-99041520D01*
X118432600Y-98591520D01*
X118432600Y-96601520D01*
X118412600Y-94751520D01*
X118452600Y-93621520D01*
X118522600Y-92171520D01*
X118522600Y-91761520D01*
X118612600Y-91591520D01*
D11*
X103200000Y-196500000D02*
X103200000Y-168500000D01*
X134200000Y-196500000D02*
X103200000Y-196500000D01*
X134200000Y-168500000D02*
X134200000Y-196500000D01*
X103200000Y-168500000D02*
X134200000Y-168500000D01*
D12*
X122589820Y-154904200D02*
X129943120Y-154904200D01*
X122589820Y-163903420D02*
X122589820Y-154904200D01*
X129943120Y-163903420D02*
X122589820Y-163903420D01*
X129943120Y-154909280D02*
X129943120Y-163903420D01*
X127847620Y-150510000D02*
X107520000Y-150510000D01*
X128518180Y-151180560D02*
X127847620Y-150510000D01*
X128518180Y-168307780D02*
X128518180Y-151180560D01*
X107520000Y-168307780D02*
X128518180Y-168307780D01*
X107520000Y-150510000D02*
X107520000Y-168307780D01*
D13*
X125935000Y-162829000D02*
X128602000Y-162829000D01*
X128602000Y-162829000D02*
X128602000Y-164607000D01*
X125935000Y-164607000D02*
X128602000Y-164607000D01*
X125935000Y-162829000D02*
X125935000Y-164607000D01*
X121868460Y-162829000D02*
X124538000Y-162829000D01*
X124538000Y-162829000D02*
X124538000Y-164607000D01*
X121868460Y-164607000D02*
X124538000Y-164607000D01*
X121868460Y-162829000D02*
X121868460Y-164607000D01*
X121868460Y-154193000D02*
X124538000Y-154193000D01*
X124538000Y-154193000D02*
X124538000Y-155971000D01*
X121868460Y-155971000D02*
X124538000Y-155971000D01*
X121868460Y-154193000D02*
X121868460Y-155971000D01*
X125935000Y-154193000D02*
X128602000Y-154193000D01*
X128602000Y-154193000D02*
X128602000Y-155971000D01*
X125935000Y-155971000D02*
X128602000Y-155971000D01*
X125935000Y-154193000D02*
X125935000Y-155971000D01*
X108155000Y-156860000D02*
X110695000Y-156860000D01*
X110695000Y-156860000D02*
X110695000Y-162575000D01*
X108155000Y-162575000D02*
X110695000Y-162575000D01*
X108155000Y-156860000D02*
X108155000Y-162575000D01*
X125300000Y-156860000D02*
X127840000Y-156860000D01*
X127840000Y-156860000D02*
X127840000Y-161940000D01*
X125300000Y-161940000D02*
X127840000Y-161940000D01*
X125300000Y-156860000D02*
X125300000Y-161940000D01*
D11*
X129965300Y-74728320D02*
X129965300Y-73578320D01*
X122665300Y-74728320D02*
X129965300Y-74728320D01*
X122665300Y-69228320D02*
X129965300Y-69228320D01*
X100266520Y-75592120D02*
X100266520Y-74442120D01*
X92966520Y-75592120D02*
X100266520Y-75592120D01*
X92966520Y-70092120D02*
X100266520Y-70092120D01*
D14*
X117438095Y-175952380D02*
X117438095Y-176761904D01*
X117485714Y-176857142D01*
X117533333Y-176904761D01*
X117628571Y-176952380D01*
X117819047Y-176952380D01*
X117914285Y-176904761D01*
X117961904Y-176857142D01*
X118009523Y-176761904D01*
X118009523Y-175952380D01*
X118438095Y-176047619D02*
X118485714Y-176000000D01*
X118580952Y-175952380D01*
X118819047Y-175952380D01*
X118914285Y-176000000D01*
X118961904Y-176047619D01*
X119009523Y-176142857D01*
X119009523Y-176238095D01*
X118961904Y-176380952D01*
X118390476Y-176952380D01*
X119009523Y-176952380D01*
D10*
X126857142Y-171442857D02*
X126971428Y-171480952D01*
X127009523Y-171519047D01*
X127047619Y-171595238D01*
X127047619Y-171709523D01*
X127009523Y-171785714D01*
X126971428Y-171823809D01*
X126895238Y-171861904D01*
X126590476Y-171861904D01*
X126590476Y-171061904D01*
X126857142Y-171061904D01*
X126933333Y-171100000D01*
X126971428Y-171138095D01*
X127009523Y-171214285D01*
X127009523Y-171290476D01*
X126971428Y-171366666D01*
X126933333Y-171404761D01*
X126857142Y-171442857D01*
X126590476Y-171442857D01*
X127390476Y-171861904D02*
X127390476Y-171061904D01*
X127847619Y-171861904D02*
X127504761Y-171404761D01*
X127847619Y-171061904D02*
X127390476Y-171519047D01*
X124566666Y-171785714D02*
X124528571Y-171823809D01*
X124414285Y-171861904D01*
X124338095Y-171861904D01*
X124223809Y-171823809D01*
X124147619Y-171747619D01*
X124109523Y-171671428D01*
X124071428Y-171519047D01*
X124071428Y-171404761D01*
X124109523Y-171252380D01*
X124147619Y-171176190D01*
X124223809Y-171100000D01*
X124338095Y-171061904D01*
X124414285Y-171061904D01*
X124528571Y-171100000D01*
X124566666Y-171138095D01*
X124871428Y-171823809D02*
X124985714Y-171861904D01*
X125176190Y-171861904D01*
X125252380Y-171823809D01*
X125290476Y-171785714D01*
X125328571Y-171709523D01*
X125328571Y-171633333D01*
X125290476Y-171557142D01*
X125252380Y-171519047D01*
X125176190Y-171480952D01*
X125023809Y-171442857D01*
X124947619Y-171404761D01*
X124909523Y-171366666D01*
X124871428Y-171290476D01*
X124871428Y-171214285D01*
X124909523Y-171138095D01*
X124947619Y-171100000D01*
X125023809Y-171061904D01*
X125214285Y-171061904D01*
X125328571Y-171100000D01*
X121590476Y-171861904D02*
X121590476Y-171061904D01*
X121780952Y-171061904D01*
X121895238Y-171100000D01*
X121971428Y-171176190D01*
X122009523Y-171252380D01*
X122047619Y-171404761D01*
X122047619Y-171519047D01*
X122009523Y-171671428D01*
X121971428Y-171747619D01*
X121895238Y-171823809D01*
X121780952Y-171861904D01*
X121590476Y-171861904D01*
X122847619Y-171785714D02*
X122809523Y-171823809D01*
X122695238Y-171861904D01*
X122619047Y-171861904D01*
X122504761Y-171823809D01*
X122428571Y-171747619D01*
X122390476Y-171671428D01*
X122352380Y-171519047D01*
X122352380Y-171404761D01*
X122390476Y-171252380D01*
X122428571Y-171176190D01*
X122504761Y-171100000D01*
X122619047Y-171061904D01*
X122695238Y-171061904D01*
X122809523Y-171100000D01*
X122847619Y-171138095D01*
X119204761Y-171861904D02*
X118938095Y-171480952D01*
X118747619Y-171861904D02*
X118747619Y-171061904D01*
X119052380Y-171061904D01*
X119128571Y-171100000D01*
X119166666Y-171138095D01*
X119204761Y-171214285D01*
X119204761Y-171328571D01*
X119166666Y-171404761D01*
X119128571Y-171442857D01*
X119052380Y-171480952D01*
X118747619Y-171480952D01*
X119547619Y-171442857D02*
X119814285Y-171442857D01*
X119928571Y-171861904D02*
X119547619Y-171861904D01*
X119547619Y-171061904D01*
X119928571Y-171061904D01*
X120233333Y-171823809D02*
X120347619Y-171861904D01*
X120538095Y-171861904D01*
X120614285Y-171823809D01*
X120652380Y-171785714D01*
X120690476Y-171709523D01*
X120690476Y-171633333D01*
X120652380Y-171557142D01*
X120614285Y-171519047D01*
X120538095Y-171480952D01*
X120385714Y-171442857D01*
X120309523Y-171404761D01*
X120271428Y-171366666D01*
X120233333Y-171290476D01*
X120233333Y-171214285D01*
X120271428Y-171138095D01*
X120309523Y-171100000D01*
X120385714Y-171061904D01*
X120576190Y-171061904D01*
X120690476Y-171100000D01*
X116228571Y-171823809D02*
X116342857Y-171861904D01*
X116533333Y-171861904D01*
X116609523Y-171823809D01*
X116647619Y-171785714D01*
X116685714Y-171709523D01*
X116685714Y-171633333D01*
X116647619Y-171557142D01*
X116609523Y-171519047D01*
X116533333Y-171480952D01*
X116380952Y-171442857D01*
X116304761Y-171404761D01*
X116266666Y-171366666D01*
X116228571Y-171290476D01*
X116228571Y-171214285D01*
X116266666Y-171138095D01*
X116304761Y-171100000D01*
X116380952Y-171061904D01*
X116571428Y-171061904D01*
X116685714Y-171100000D01*
X117485714Y-171785714D02*
X117447619Y-171823809D01*
X117333333Y-171861904D01*
X117257142Y-171861904D01*
X117142857Y-171823809D01*
X117066666Y-171747619D01*
X117028571Y-171671428D01*
X116990476Y-171519047D01*
X116990476Y-171404761D01*
X117028571Y-171252380D01*
X117066666Y-171176190D01*
X117142857Y-171100000D01*
X117257142Y-171061904D01*
X117333333Y-171061904D01*
X117447619Y-171100000D01*
X117485714Y-171138095D01*
X117790476Y-171633333D02*
X118171428Y-171633333D01*
X117714285Y-171861904D02*
X117980952Y-171061904D01*
X118247619Y-171861904D01*
X113747619Y-171823809D02*
X113861904Y-171861904D01*
X114052380Y-171861904D01*
X114128571Y-171823809D01*
X114166666Y-171785714D01*
X114204761Y-171709523D01*
X114204761Y-171633333D01*
X114166666Y-171557142D01*
X114128571Y-171519047D01*
X114052380Y-171480952D01*
X113900000Y-171442857D01*
X113823809Y-171404761D01*
X113785714Y-171366666D01*
X113747619Y-171290476D01*
X113747619Y-171214285D01*
X113785714Y-171138095D01*
X113823809Y-171100000D01*
X113900000Y-171061904D01*
X114090476Y-171061904D01*
X114204761Y-171100000D01*
X115004761Y-171785714D02*
X114966666Y-171823809D01*
X114852380Y-171861904D01*
X114776190Y-171861904D01*
X114661904Y-171823809D01*
X114585714Y-171747619D01*
X114547619Y-171671428D01*
X114509523Y-171519047D01*
X114509523Y-171404761D01*
X114547619Y-171252380D01*
X114585714Y-171176190D01*
X114661904Y-171100000D01*
X114776190Y-171061904D01*
X114852380Y-171061904D01*
X114966666Y-171100000D01*
X115004761Y-171138095D01*
X115728571Y-171861904D02*
X115347619Y-171861904D01*
X115347619Y-171061904D01*
X111133333Y-171061904D02*
X111400000Y-171861904D01*
X111666666Y-171061904D01*
X112390476Y-171785714D02*
X112352380Y-171823809D01*
X112238095Y-171861904D01*
X112161904Y-171861904D01*
X112047619Y-171823809D01*
X111971428Y-171747619D01*
X111933333Y-171671428D01*
X111895238Y-171519047D01*
X111895238Y-171404761D01*
X111933333Y-171252380D01*
X111971428Y-171176190D01*
X112047619Y-171100000D01*
X112161904Y-171061904D01*
X112238095Y-171061904D01*
X112352380Y-171100000D01*
X112390476Y-171138095D01*
X113190476Y-171785714D02*
X113152380Y-171823809D01*
X113038095Y-171861904D01*
X112961904Y-171861904D01*
X112847619Y-171823809D01*
X112771428Y-171747619D01*
X112733333Y-171671428D01*
X112695238Y-171519047D01*
X112695238Y-171404761D01*
X112733333Y-171252380D01*
X112771428Y-171176190D01*
X112847619Y-171100000D01*
X112961904Y-171061904D01*
X113038095Y-171061904D01*
X113152380Y-171100000D01*
X113190476Y-171138095D01*
X108840476Y-171100000D02*
X108764285Y-171061904D01*
X108650000Y-171061904D01*
X108535714Y-171100000D01*
X108459523Y-171176190D01*
X108421428Y-171252380D01*
X108383333Y-171404761D01*
X108383333Y-171519047D01*
X108421428Y-171671428D01*
X108459523Y-171747619D01*
X108535714Y-171823809D01*
X108650000Y-171861904D01*
X108726190Y-171861904D01*
X108840476Y-171823809D01*
X108878571Y-171785714D01*
X108878571Y-171519047D01*
X108726190Y-171519047D01*
X109221428Y-171861904D02*
X109221428Y-171061904D01*
X109678571Y-171861904D01*
X109678571Y-171061904D01*
X110059523Y-171861904D02*
X110059523Y-171061904D01*
X110250000Y-171061904D01*
X110364285Y-171100000D01*
X110440476Y-171176190D01*
X110478571Y-171252380D01*
X110516666Y-171404761D01*
X110516666Y-171519047D01*
X110478571Y-171671428D01*
X110440476Y-171747619D01*
X110364285Y-171823809D01*
X110250000Y-171861904D01*
X110059523Y-171861904D01*
D15*
X128813666Y-160521833D02*
X129533333Y-160521833D01*
X129618000Y-160479500D01*
X129660333Y-160437166D01*
X129702666Y-160352500D01*
X129702666Y-160183166D01*
X129660333Y-160098500D01*
X129618000Y-160056166D01*
X129533333Y-160013833D01*
X128813666Y-160013833D01*
X129702666Y-159124833D02*
X129702666Y-159632833D01*
X129702666Y-159378833D02*
X128813666Y-159378833D01*
X128940666Y-159463500D01*
X129025333Y-159548166D01*
X129067666Y-159632833D01*
D16*
X118561742Y-162622171D02*
X118590771Y-162535085D01*
X118590771Y-162389942D01*
X118561742Y-162331885D01*
X118532714Y-162302857D01*
X118474657Y-162273828D01*
X118416600Y-162273828D01*
X118358542Y-162302857D01*
X118329514Y-162331885D01*
X118300485Y-162389942D01*
X118271457Y-162506057D01*
X118242428Y-162564114D01*
X118213400Y-162593142D01*
X118155342Y-162622171D01*
X118097285Y-162622171D01*
X118039228Y-162593142D01*
X118010200Y-162564114D01*
X117981171Y-162506057D01*
X117981171Y-162360914D01*
X118010200Y-162273828D01*
X118561742Y-161780342D02*
X118590771Y-161838400D01*
X118590771Y-161954514D01*
X118561742Y-162012571D01*
X118503685Y-162041600D01*
X118271457Y-162041600D01*
X118213400Y-162012571D01*
X118184371Y-161954514D01*
X118184371Y-161838400D01*
X118213400Y-161780342D01*
X118271457Y-161751314D01*
X118329514Y-161751314D01*
X118387571Y-162041600D01*
X118561742Y-161257828D02*
X118590771Y-161315885D01*
X118590771Y-161432000D01*
X118561742Y-161490057D01*
X118503685Y-161519085D01*
X118271457Y-161519085D01*
X118213400Y-161490057D01*
X118184371Y-161432000D01*
X118184371Y-161315885D01*
X118213400Y-161257828D01*
X118271457Y-161228800D01*
X118329514Y-161228800D01*
X118387571Y-161519085D01*
X118561742Y-160735314D02*
X118590771Y-160793371D01*
X118590771Y-160909485D01*
X118561742Y-160967542D01*
X118503685Y-160996571D01*
X118271457Y-160996571D01*
X118213400Y-160967542D01*
X118184371Y-160909485D01*
X118184371Y-160793371D01*
X118213400Y-160735314D01*
X118271457Y-160706285D01*
X118329514Y-160706285D01*
X118387571Y-160996571D01*
X118590771Y-160183771D02*
X117981171Y-160183771D01*
X118561742Y-160183771D02*
X118590771Y-160241828D01*
X118590771Y-160357942D01*
X118561742Y-160416000D01*
X118532714Y-160445028D01*
X118474657Y-160474057D01*
X118300485Y-160474057D01*
X118242428Y-160445028D01*
X118213400Y-160416000D01*
X118184371Y-160357942D01*
X118184371Y-160241828D01*
X118213400Y-160183771D01*
X118184371Y-159632228D02*
X118590771Y-159632228D01*
X118184371Y-159893485D02*
X118503685Y-159893485D01*
X118561742Y-159864457D01*
X118590771Y-159806400D01*
X118590771Y-159719314D01*
X118561742Y-159661257D01*
X118532714Y-159632228D01*
X118590771Y-159341942D02*
X118184371Y-159341942D01*
X117981171Y-159341942D02*
X118010200Y-159370971D01*
X118039228Y-159341942D01*
X118010200Y-159312914D01*
X117981171Y-159341942D01*
X118039228Y-159341942D01*
X118184371Y-159051657D02*
X118590771Y-159051657D01*
X118242428Y-159051657D02*
X118213400Y-159022628D01*
X118184371Y-158964571D01*
X118184371Y-158877485D01*
X118213400Y-158819428D01*
X118271457Y-158790400D01*
X118590771Y-158790400D01*
X118590771Y-158413028D02*
X118561742Y-158471085D01*
X118532714Y-158500114D01*
X118474657Y-158529142D01*
X118300485Y-158529142D01*
X118242428Y-158500114D01*
X118213400Y-158471085D01*
X118184371Y-158413028D01*
X118184371Y-158325942D01*
X118213400Y-158267885D01*
X118242428Y-158238857D01*
X118300485Y-158209828D01*
X118474657Y-158209828D01*
X118532714Y-158238857D01*
X118561742Y-158267885D01*
X118590771Y-158325942D01*
X118590771Y-158413028D01*
X117981171Y-158006628D02*
X118590771Y-157600228D01*
X117981171Y-157600228D02*
X118590771Y-158006628D01*
X118590771Y-157368000D02*
X117981171Y-157368000D01*
X118416600Y-157106742D02*
X118416600Y-156816457D01*
X118590771Y-157164800D02*
X117981171Y-156961600D01*
X118590771Y-156758400D01*
X117981171Y-156439085D02*
X117981171Y-156322971D01*
X118010200Y-156264914D01*
X118068257Y-156206857D01*
X118184371Y-156177828D01*
X118387571Y-156177828D01*
X118503685Y-156206857D01*
X118561742Y-156264914D01*
X118590771Y-156322971D01*
X118590771Y-156439085D01*
X118561742Y-156497142D01*
X118503685Y-156555200D01*
X118387571Y-156584228D01*
X118184371Y-156584228D01*
X118068257Y-156555200D01*
X118010200Y-156497142D01*
X117981171Y-156439085D01*
D14*
X125577204Y-68930700D02*
X125577204Y-67930700D01*
X125815300Y-67930700D01*
X125958157Y-67978320D01*
X126053395Y-68073558D01*
X126101014Y-68168796D01*
X126148633Y-68359272D01*
X126148633Y-68502129D01*
X126101014Y-68692605D01*
X126053395Y-68787843D01*
X125958157Y-68883081D01*
X125815300Y-68930700D01*
X125577204Y-68930700D01*
X126529585Y-68025939D02*
X126577204Y-67978320D01*
X126672442Y-67930700D01*
X126910538Y-67930700D01*
X127005776Y-67978320D01*
X127053395Y-68025939D01*
X127101014Y-68121177D01*
X127101014Y-68216415D01*
X127053395Y-68359272D01*
X126481966Y-68930700D01*
X127101014Y-68930700D01*
X95878424Y-69794500D02*
X95878424Y-68794500D01*
X96116520Y-68794500D01*
X96259377Y-68842120D01*
X96354615Y-68937358D01*
X96402234Y-69032596D01*
X96449853Y-69223072D01*
X96449853Y-69365929D01*
X96402234Y-69556405D01*
X96354615Y-69651643D01*
X96259377Y-69746881D01*
X96116520Y-69794500D01*
X95878424Y-69794500D01*
X97402234Y-69794500D02*
X96830805Y-69794500D01*
X97116520Y-69794500D02*
X97116520Y-68794500D01*
X97021281Y-68937358D01*
X96926043Y-69032596D01*
X96830805Y-69080215D01*
M02*
